<svg viewBox="0 0 392 369" fill="none" xmlns="http://www.w3.org/2000/svg">
    <mask id="mask0_2063_416" style="mask-type:luminance" maskUnits="userSpaceOnUse" x="0" y="0"
        width="392" height="369">
        <path d="M0.305664 0.0400391H391.081V368.04H0.305664V0.0400391Z" fill="white" />
    </mask>
    <g mask="url(#mask0_2063_416)">
        <path fill-rule="evenodd" clip-rule="evenodd"
            d="M389.831 179.712C389.442 178.622 389.831 177.686 389.675 176.124C389.598 175.345 388.818 174.019 389.128 173.553C389.128 171.291 388.425 171.914 388.349 170.042C388.505 168.406 388.036 167.237 387.569 165.988C387.959 165.912 387.802 164.663 387.569 163.413C387.023 162.244 386.553 160.919 386.163 158.97C385.694 157.878 385.071 158.111 384.681 156.632C385.227 155.07 384.211 152.108 383.511 150.16C382.729 149.847 383.118 151.719 382.652 151.875C382.419 151.795 381.636 150.003 381.716 151.562C381.169 152.185 380.933 150.16 380.387 150.783C380.153 148.444 379.53 148.364 379.14 145.4C379.84 146.103 380.077 145.4 380.623 145.09C381.559 146.183 382.106 150.08 382.495 148.834C382.339 148.208 383.118 147.662 382.495 147.272C381.949 146.336 382.262 145.946 381.949 144.777C381.559 143.531 380.623 142.985 380.387 141.033C379.92 140.41 379.374 140.567 378.827 139.318C379.141 138.538 377.891 136.979 378.204 136.357C378.594 136.979 378.751 136.433 379.14 136.59C379.607 136.746 379.92 137.449 380.233 137.369C381.013 137.136 381.246 136.979 381.169 135.031C381.013 134.015 380.623 134.015 380.387 133.625C380.233 133.315 379.92 132.146 379.687 131.677C379.217 130.897 378.204 129.648 377.735 129.105C377.265 128.636 376.955 128.869 376.485 128.479C376.329 128.402 376.019 127.779 375.862 127.623C374.613 126.53 373.52 125.984 372.504 125.128C371.805 124.269 371.022 122.397 370.319 122.24C369.772 121.384 370.165 123.646 369.226 123.176C368.526 122.087 367.9 122.397 367.197 119.745C369.383 118.576 372.504 120.838 374.223 119.046C375.08 120.525 376.565 120.525 376.329 118.809C376.096 118.263 375.782 117.484 375.939 117.33C375.316 116.005 374.69 115.222 374.067 114.679C373.444 114.133 372.817 113.82 372.271 113.353C371.568 113.663 371.725 116.238 370.242 113.663C369.929 112.651 370.555 112.651 370.555 111.871C370.009 110.702 369.539 109.686 369.852 109.453C370.632 109.14 371.335 108.673 371.022 107.191C370.555 106.022 370.086 105.319 369.619 104.853C369.149 104.383 368.76 104.15 368.37 103.994C367.59 103.684 366.887 103.684 366.028 102.824C365.092 101.888 365.168 100.796 364.155 99.2371C362.906 98.5343 361.737 98.7707 360.251 96.8189C361.344 96.8189 360.098 94.8703 360.174 94.0142C360.877 93.6244 360.644 92.4521 360.251 91.0497C359.005 88.8679 358.379 89.0213 357.366 87.4624C356.896 86.6063 357.676 86.7596 356.663 85.5138C356.037 84.8908 355.803 86.06 355.024 84.811C354.791 83.6418 354.164 82.4726 352.995 80.6774C351.512 79.0418 350.809 79.6647 349.404 78.2624C349.327 79.5881 347.062 77.7161 345.892 77.7928C344.33 77.8726 343.473 79.1983 341.911 79.5881C341.521 79.7414 340.662 78.4956 340.352 78.9619C340.272 79.1983 340.505 79.6647 340.115 79.7414C338.869 78.8054 338.166 79.5881 336.917 78.6521C337.23 76.0007 340.272 76.4671 341.834 75.3746C342.691 74.7517 343.004 73.426 344.486 73.8956C345.812 74.8315 347.608 76.9367 348.781 77.4797C347.921 75.611 345.659 74.675 344.643 72.49C345.736 72.0236 345.812 70.8544 345.346 69.2924C344.253 68.2797 343.55 67.4204 343.16 66.4876C342.847 66.954 341.991 65.6283 341.445 65.3153C341.131 65.1619 340.742 65.1619 340.272 65.0054C338.869 64.4592 337.384 63.8363 336.291 63.8363C335.511 63.8363 335.045 64.3793 334.262 64.3793C333.952 64.3793 333.482 64.1461 333.093 64.1461C332.779 64.0694 332.313 64.4592 331.61 63.5232C333.639 61.8078 336.058 60.9485 338.633 60.4022C337.93 58.7667 335.355 55.4924 333.482 54.7896C332.779 53.6971 332.469 52.7611 330.594 51.1256C326.693 48.784 326.459 51.2022 324.82 52.1382C324.507 52.2947 323.804 52.0615 323.415 52.2149C322.555 52.5279 322.322 53.4639 321.309 53.7769C320.916 53.9303 320.216 53.6971 319.903 53.8536C319.357 54.2433 319.124 54.9461 318.577 55.3358C316.702 54.8662 316.235 57.1279 314.05 56.1153C315.299 55.3358 315.219 54.2433 316.858 54.32C316.938 53.3074 318.497 52.3714 319.823 52.4513C321.073 50.4228 322.868 48.7074 324.897 47.4583C324.117 46.4457 323.648 45.5864 321.775 44.1074C321.073 43.7176 320.526 43.4812 319.98 43.4046C319.433 43.3247 318.967 43.3247 318.497 43.3247C317.951 43.3247 317.874 43.7943 317.484 43.7943C316.938 43.871 315.845 43.0149 315.765 43.4812C316.235 44.5738 314.986 45.5864 313.503 44.7303C313.423 43.4046 315.456 43.1714 316.235 42.1556C315.922 41.5326 313.893 40.2836 314.126 39.8939C311.631 38.0251 311.318 39.584 309.056 38.2583C309.366 37.0892 311.551 35.7635 312.177 34.8275C311.085 33.6583 312.331 34.1247 312.097 33.1121C310.928 31.9397 310.148 30.9271 307.727 29.3682C306.401 29.135 304.841 29.135 303.902 29.5247C303.592 29.6812 303.592 30.1476 303.356 30.3808C302.966 30.6939 302.11 30.6939 301.796 31.0069C300.391 32.1761 299.688 33.2654 299.298 33.9682C298.362 33.5018 297.895 33.8117 297.502 34.0481C296.333 34.671 295.553 36.1532 295.553 37.1658C294.77 37.399 293.758 37.2425 293.055 37.5556L291.962 39.271C291.729 39.8172 290.403 39.0378 290.166 39.5042C289.856 39.8939 291.339 41.3761 289.543 40.52C287.981 39.584 289.543 39.7406 289.62 39.4275C289.776 39.0378 289.62 38.335 289.933 38.0251C290.403 37.4789 291.339 37.2425 291.885 36.6196C292.275 36.1532 292.352 35.4504 292.821 35.0607C293.288 34.7476 294.071 34.7476 294.381 34.4378C294.85 33.8915 295.007 33.2654 295.083 32.486C295.083 31.7864 294.927 31.0069 294.617 30.2243C292.821 29.135 291.729 28.2757 289.543 27.1065C289.073 27.2631 288.527 27.3397 288.061 27.4196C287.514 27.4962 286.968 27.5729 286.422 27.6528C284.626 30.4607 281.035 31.2401 279.632 34.4378C277.603 34.2014 277.756 36.3065 276.041 36.3864C276.197 36.8528 276.43 37.3224 276.43 37.7121C275.964 38.0251 274.558 37.2425 274.325 37.7887C274.012 38.4915 273.778 39.3508 271.983 38.4915C272.06 37.2425 273.935 37.0892 273.309 35.7635C275.181 35.3737 274.402 33.1121 276.744 32.9556C276.667 32.486 276.51 31.9397 276.9 31.55C278.07 30.614 280.022 29.6014 280.958 28.7453C281.348 28.4322 281.271 27.9626 281.581 27.5729C281.974 27.1065 282.91 26.7935 283.3 26.3271C283.456 26.0939 283.067 25.6243 283.22 25.3144C283.846 24.1421 285.249 23.4425 283.846 21.8804C283.766 21.8037 283.063 21.5706 282.91 21.414C282.44 21.0243 282.364 20.3215 281.348 20.0883C279.162 19.5421 278.616 20.0117 277.913 20.4014C277.68 20.5547 276.9 20.4781 276.744 20.6346C276.43 20.8678 277.057 21.3374 276.9 21.4907C276.744 21.6472 275.964 21.3374 275.807 21.5706C275.574 21.8804 276.82 23.1294 274.871 22.4267C274.168 20.6346 277.993 19.7753 274.948 17.2804C273.232 16.6575 272.606 15.9547 271.67 15.8781C268.392 15.4883 269.018 17.4369 267.925 18.5294C267.612 18.8393 266.832 18.7626 266.596 19.0757C266.129 19.7753 266.286 20.7112 265.74 21.2575C265.426 21.5706 264.257 21.4907 264.414 22.0369C264.021 22.5065 264.257 22.9729 264.414 23.4425C263.631 23.5192 263.008 23.5958 262.695 23.9887C261.682 25.5476 260.353 26.8733 259.027 28.199C257.701 29.5247 256.295 30.8504 255.282 32.4093C253.799 31.7864 254.969 33.3453 253.33 32.6425C253.72 28.9785 255.672 25.6243 257.544 22.2701C259.416 18.8393 261.369 15.4085 261.525 11.3547C260.822 10.8851 260.043 10.4187 259.107 9.95236C258.167 9.48278 256.998 9.01639 255.435 8.62666C252.55 8.31361 251.301 9.24958 250.285 9.95236C249.505 10.5753 249.429 11.2781 248.726 11.9776C247.946 12.7571 246.93 13.4599 246.15 14.2393C245.368 15.0187 244.821 15.7982 244.901 16.7342C244.588 16.9706 243.808 16.8907 243.728 17.3603C243.419 17.6701 244.511 17.9033 243.965 18.2962C243.495 18.5294 242.402 18.4496 242.326 18.9958C241.779 20.5547 239.827 21.1808 239.514 22.8164C237.642 23.6757 235.926 25.3911 236.239 27.1065C234.364 26.4037 236.003 28.1192 234.753 27.8093C233.351 27.1832 234.13 26.4836 234.207 26.0939C234.287 25.3911 234.833 25.0014 234.99 24.3785C235.066 23.9887 234.753 23.4425 234.753 23.1294C234.99 21.101 236.939 19.3089 237.409 17.1239C237.485 16.8907 237.019 16.4243 237.095 16.1879C237.329 15.7215 238.111 15.4085 238.345 14.9421C238.578 14.4725 238.421 13.9294 238.658 13.4599C238.891 13.0701 239.671 12.7571 239.907 12.3674C240.06 12.0575 239.594 11.7444 239.594 11.5879C239.594 11.2781 240.217 11.1215 240.217 10.8851C240.687 9.32625 241.623 8.15708 241.623 6.91125C241.623 6.51833 241 6.05194 240.843 5.66222C240.687 5.11597 241.233 4.80292 240.607 4.25986C239.048 3.55708 237.252 3.01083 234.677 2.62111C229.683 3.32389 228.98 6.28514 227.964 9.16972C226.561 9.6393 227.184 10.5753 226.638 11.3547C226.481 11.6678 225.702 11.9776 225.545 12.2108C225.312 12.6804 225.545 13.3033 225.312 13.8496C225.079 14.1626 224.219 14.1626 224.219 14.5524C223.749 15.2551 224.063 16.4243 222.11 16.3444C221.331 15.565 222.58 15.0187 222.813 14.3958C223.046 13.6164 222.737 12.7571 223.126 12.0575C223.36 11.5879 224.139 11.2781 224.219 10.8085C224.376 10.4187 223.906 9.95236 223.906 9.55944C223.906 9.32625 224.452 9.40611 224.452 9.09305C224.532 8.47014 224.532 7.92389 224.686 7.22111C225.079 5.2725 226.638 3.55708 224.376 1.7618C222.423 1.29541 222.5 1.45194 220.315 1.06222C215.947 1.84166 216.337 4.41319 215.244 6.59819C215.008 7.14444 214.308 7.53417 214.151 8.00055C213.995 8.39028 214.228 8.78 214.071 9.16972C213.372 10.5753 211.03 11.8211 212.825 13.1468C210.793 13.1468 211.966 14.4725 210.327 14.629C209.857 15.0986 211.263 16.4243 209.311 16.2678C207.518 15.8781 208.921 15.0986 209.391 14.5524C208.921 13.6164 209.857 12.5239 210.014 11.3547C210.093 10.6519 209.937 9.95236 210.093 9.16972C210.327 8.23694 211.106 7.30097 211.263 6.365C211.34 5.97528 210.793 5.58555 210.793 5.11597C210.793 4.72625 211.419 4.18 211.34 3.79028C211.263 3.01083 210.014 2.30805 210.95 1.7618C210.014 1.21875 209.077 0.749165 207.985 0.282776C206.032 0.359442 205.566 0.0463867 203.927 0.0463867C202.288 0.282775 201.508 0.825832 200.882 1.29541C200.102 1.91833 200.336 1.99819 199.869 2.8543C199.713 3.16736 199.01 3.47722 198.853 3.71361C198.62 4.33653 198.307 5.34917 198.387 5.58555C198.387 5.81875 199.01 5.81875 198.853 6.05194C198.776 6.20847 198.073 6.44166 197.84 6.75472C196.591 8.62666 196.511 10.4187 196.045 12.2108C196.201 12.6804 194.952 12.7571 195.108 13.2267C194.719 13.8496 195.811 13.8496 195.655 14.3958C194.795 14.7089 194.639 15.2551 193.779 15.6449C193.859 17.3603 191.83 18.7626 193.08 20.4014C191.83 20.4781 192.297 21.101 191.284 21.3374C190.581 19.3856 190.894 17.2804 191.44 15.0986C191.987 12.9136 192.843 10.7318 193 8.62666C193 8.39028 192.453 8.08042 192.453 7.76736C192.453 6.28514 192.843 4.56972 192.766 2.8543C192.377 2.69778 191.83 2.62111 191.204 2.54444C190.581 2.46458 189.878 2.46458 189.175 2.46458C187.693 2.46458 186.133 2.62111 184.651 2.93416C181.919 4.95944 182.465 7.84403 180.903 10.2622C181.526 12.5239 178.641 14.8622 179.734 16.7342C177.548 17.8267 178.404 19.5421 177.002 20.7911C177.235 21.5706 177.158 22.1935 176.765 22.5065C176.142 23.0528 176.765 23.7524 175.206 24.0654C174.816 22.5832 174.503 21.0243 174.503 19.3856C174.426 16.0346 175.909 12.9935 175.986 10.029C176.066 8.62666 175.596 7.22111 175.439 5.81875C175.363 5.0393 176.455 4.02347 174.113 3.63375C173.567 3.63375 173.021 3.71361 172.474 3.71361C172.005 3.79028 171.458 3.86694 170.992 3.9468C170.056 4.10333 169.119 4.33653 168.103 4.56972C167.324 4.88278 167.637 5.11597 167.244 5.58555C166.934 5.97528 166.074 6.365 165.918 6.67486C165.685 6.98791 166.231 7.22111 166.074 7.69069C165.998 8.00055 165.371 8.39028 165.295 8.70333C165.215 9.09305 165.138 9.40611 164.982 9.79583C164.592 10.965 164.669 11.901 165.058 12.6804C165.138 12.9935 163.812 13.1468 164.279 13.5365C164.435 15.3318 163.186 17.0472 163.499 18.9192C162.483 19.7753 162.876 20.4781 162.64 21.3374C162.483 21.8037 162.173 22.35 162.017 22.8962C161.704 23.8322 161.937 24.8449 160.844 25.7808C161.08 26.3271 162.173 26.6401 160.767 27.1832C158.738 27.3397 159.128 26.4836 159.052 25.8575C158.895 25.3144 159.518 24.3785 159.518 23.8322C159.518 23.5192 158.972 23.5958 158.895 23.286C158.815 23.0528 159.205 22.8962 159.205 22.5065C159.128 21.0243 158.659 19.6219 158.582 18.1397C158.582 17.4369 159.205 17.0472 158.738 16.7342C158.505 16.5776 159.128 16.3444 159.128 16.2678C159.052 15.2551 158.582 14.5524 158.505 13.6164C159.988 12.2108 159.128 11.1215 159.052 9.6393C159.052 7.76736 160.221 5.19264 157.722 3.86694C155.304 4.18 154.211 4.25986 151.712 5.19264C151.402 5.81875 150.386 6.44166 150.076 7.06458C148.984 8.78 149.374 10.5753 148.437 12.2907C148.124 13.0701 149.763 12.4472 149.683 12.9935C148.904 13.4599 147.891 13.8496 148.044 14.3192C148.514 14.4725 148.984 14.7089 149.294 15.0187C148.827 15.4883 148.201 15.8781 147.655 16.3444C148.201 16.6575 148.514 17.0472 148.591 17.6701C147.734 17.9832 148.358 18.2962 148.358 18.4496C148.124 18.9958 147.734 19.1524 147.734 19.5421C147.578 20.4014 147.734 21.2575 148.437 21.8037C147.968 22.35 146.875 22.8164 146.952 23.3626C147.968 23.0528 147.345 23.9887 147.734 24.1421C146.485 25.0781 147.498 26.014 147.188 27.0299C146.798 27.3397 146.405 27.6528 146.016 27.9626C146.095 29.2117 146.172 30.3808 144.846 31.55C144.769 31.9397 146.405 31.7864 144.613 32.3326C143.91 31.2401 143.753 29.9144 143.44 29.135C143.284 28.8219 142.737 28.8219 142.737 28.5089C142.661 27.9626 143.13 27.1832 143.05 26.6401C142.894 25.3144 142.348 23.8322 142.271 22.9729C142.191 22.1168 141.645 21.0243 141.568 20.9476C141.411 20.7112 141.335 20.4014 141.255 20.165C140.632 17.3603 141.958 13.3832 139.772 11.5879C139.616 11.5112 140.162 11.2781 140.162 11.2781C140.009 10.1057 138.68 9.71597 137.743 9.09305C137.12 9.16972 136.338 9.24958 135.401 9.55944C134.465 9.8725 133.452 10.2622 132.36 10.7318C129.938 12.1342 129.784 13.1468 129.391 14.2393C129.391 14.3192 128.612 14.7856 128.612 14.9421C128.455 15.3318 129.081 15.4883 129.002 15.8781C128.925 16.2678 128.455 16.6575 128.378 17.0472C128.222 18.6061 128.065 20.165 128.065 21.414C128.065 22.1935 128.535 22.8962 128.535 23.5958C128.535 23.9089 128.065 24.5318 128.065 24.9215C128.065 25.3144 128.535 25.6243 128.535 26.014C128.612 27.1065 127.832 28.4322 127.989 29.4449C128.065 29.9911 128.455 30.2243 128.535 30.6939C127.832 32.0196 128.378 33.3453 128.302 34.5144C128.302 34.9042 128.612 35.4504 127.519 35.9967C125.49 36.6994 127.755 35.0607 126.816 34.5911C125.647 32.0196 125.647 28.8986 125.334 26.0939C124.944 23.286 124.241 20.6346 121.043 19.229C120.34 19.4654 119.637 19.7753 118.934 20.0883C118.231 20.4014 117.531 20.7112 116.828 20.9476C115.656 21.8804 115.422 22.2701 115.033 22.9729C114.563 23.9089 115.033 24.1421 114.956 24.9215C114.876 25.4678 114.253 26.2472 114.253 26.7935C114.33 29.135 116.125 30.9271 115.109 33.5018C115.109 34.2014 116.358 33.5785 116.515 34.0481C116.125 34.671 115.735 35.2939 115.892 35.7635C117.375 38.335 115.892 41.3761 117.375 43.871C116.358 45.5097 117.375 46.8354 116.985 48.3943C115.969 48.9406 116.049 48.3943 115.812 48.1611C115.266 47.6915 114.799 46.7587 114.719 46.4457C114.719 46.2892 114.253 46.5224 114.253 46.5224C113.47 45.3532 113.237 44.4172 112.457 43.6378C111.678 42.8583 111.678 41.5326 110.741 40.9097C110.895 40.1303 111.208 38.9579 110.741 38.1018C110.585 37.8686 109.882 37.7887 109.802 37.4789C109.649 36.9326 109.959 36.1532 109.725 35.5271C109.412 34.5144 108.789 32.9556 108.399 32.4093C108.243 32.0962 107.54 32.0962 107.463 31.7864C106.994 30.5374 106.291 29.2117 104.808 28.8219C103.326 28.5089 101.063 29.2117 97.6287 32.0962C96.8491 33.5018 96.7692 34.671 96.9258 35.6069C97.0824 36.6196 97.4722 37.5556 97.7853 38.4915C98.0185 39.1943 97.862 40.0504 98.1751 40.7532C98.3317 41.2196 98.9547 41.456 99.0346 41.999C99.1879 42.4686 98.878 43.1714 99.0346 43.6378C99.2678 44.2607 99.8909 44.5738 100.127 45.12C100.674 46.4457 100.517 48.2378 101.063 49.6433C101.217 50.0331 101.763 50.2662 101.843 50.7358C102.076 51.5153 101.843 52.6046 102 53.3074C102.31 54.3999 102.936 55.3358 103.169 56.4283C103.326 57.0513 103.092 57.9074 103.169 58.6101C103.249 59.3129 104.105 59.7026 103.249 60.8718C102.076 61.105 102.156 60.169 101.763 59.7026C100.047 57.5975 99.7343 55.256 98.4882 53.2307C98.0952 52.6046 97.3156 52.4513 96.9258 51.905C96.3794 51.2022 96.4561 50.0331 95.9896 49.1737C95.2867 47.8481 94.4272 46.9919 94.0374 45.8228C93.8809 45.3532 94.194 44.4971 93.9607 44.1074C93.8042 43.871 93.2578 44.0275 93.1013 43.7176C91.7753 41.6892 91.0724 39.0378 87.3277 39.4275C85.532 40.52 84.8291 41.5326 82.8002 42.7817C82.2538 43.9508 81.7075 45.4331 81.864 46.4457C81.9407 46.8354 82.4871 46.9919 82.7203 47.4583C83.9696 49.72 84.9058 53.4639 86.858 54.5564C86.4682 56.2718 87.4811 57.0512 88.1073 58.1438C88.7303 59.3129 88.7303 61.0283 89.2767 62.2742C89.5898 63.0536 90.1362 63.5232 90.2928 64.0694C90.3694 64.4592 90.526 64.7722 90.6027 65.0821C90.8391 65.705 91.4622 66.0947 90.8391 67.3438C89.2767 65.9414 87.1711 64.4592 85.6886 62.4307C85.2189 61.8078 85.1422 60.9485 84.516 60.4821C84.1262 60.169 83.5031 60.169 83.2667 59.7793C82.7203 59.0797 83.0335 57.754 82.567 56.8947C82.174 56.1919 81.3177 55.6457 80.848 55.0228C79.522 53.1508 78.7424 51.2022 76.9468 49.9532C76.2438 49.4868 75.3844 49.1738 73.9817 49.72C72.1062 51.5153 71.4064 51.8251 69.9207 53.5406C69.221 55.8022 70.6236 57.9074 72.0295 58.5335C71.5598 59.7026 72.4992 59.6228 72.889 60.0924C73.1989 60.4821 73.2788 61.105 73.3555 61.2615C73.512 61.4181 73.9018 61.0283 74.0584 61.2615C74.9179 62.4307 75.2278 64.1461 76.1672 65.3951C76.3205 65.6283 76.8669 65.3951 77.1033 65.6283C78.7424 67.5003 78.8191 70.3849 80.848 71.2442C80.0684 73.9722 83.0335 74.9082 82.3305 77.5596C81.3944 77.6363 81.1611 76.9367 80.5349 76.4671C80.0684 76.1572 79.3655 76.0774 78.9757 75.6876C76.9468 73.3493 74.0584 71.0876 72.1861 68.1232C71.8729 67.6568 71.8729 66.641 71.4831 66.1746C71.3266 65.9414 70.6236 66.0181 70.3904 65.8615C70.1572 65.6283 70.2338 65.0821 70.0006 64.8489C69.7674 64.6157 69.2977 64.8489 69.0644 64.6157C68.9079 64.4592 68.9845 63.9129 68.7513 63.6797C68.5181 63.4465 67.8918 63.5999 67.8151 63.4465C67.6586 63.2101 68.1283 62.5106 67.8918 62.1208C66.3326 60.0924 63.7573 58.8433 60.869 60.4821C59.6996 62.041 58.5269 62.7438 58.2138 63.5999C56.4214 66.8774 58.9167 67.6568 59.1532 69.7619C59.3066 70.5414 60.3226 69.139 60.5558 69.6821C59.9328 71.7904 61.8051 72.0236 62.5081 72.5699C63.1311 73.0363 63.0544 74.2054 63.6008 74.7517C63.834 75.611 64.7702 74.3619 65.16 74.7517C64.3037 77.4829 66.176 77.9493 67.1122 79.3517C67.2688 79.6647 67.1122 80.3675 67.3455 80.7572C67.5819 81.1469 68.2049 81.1469 68.4382 81.6133C68.6746 82.0031 68.5947 82.7058 68.828 83.0956C69.0644 83.4853 70.3137 83.0956 69.2977 84.6544C67.1122 83.875 64.9268 83.0189 63.1311 81.6133C61.1821 80.1311 59.9328 77.5596 57.824 76.3106C56.498 75.5311 55.0155 74.9082 52.5169 76.0007C51.5041 77.6363 50.9577 77.8726 50.0216 79.1983C49.7084 81.2236 50.9577 81.1469 51.8939 81.7699C52.5968 82.3161 53.4531 83.0189 53.9228 83.7983C54.156 84.1881 54.0793 84.9675 54.3126 85.2806C54.4692 85.5138 55.0922 85.2007 55.1721 85.2806C55.875 85.6703 55.875 87.3058 57.2777 86.7596C57.7473 86.9161 56.3415 88.3217 56.9677 88.3217C58.3704 87.6956 59.2299 88.5549 58.3704 90.4268C57.201 90.2703 56.8879 88.8679 56.1082 88.3217C55.875 88.1651 55.3286 88.475 55.1721 88.2418C54.859 87.8521 54.859 86.996 54.4692 86.6063C53.9228 85.9801 52.6735 86.2165 52.8301 84.8908C51.6606 85.7469 51.5041 84.0315 50.8778 83.5651C50.488 83.3288 49.7851 83.4086 49.3186 83.0956C48.3026 82.3161 47.0533 78.7288 43.9317 82.5493C43.2319 83.4086 43.2319 84.0315 42.529 84.7343C41.5928 86.7596 43.855 86.1367 42.6057 88.3983C41.4363 88.475 40.9666 87.3857 39.6406 87.1493C39.0144 87.6956 38.3913 88.1651 37.6884 88.8679C37.0654 89.5675 36.3624 90.5035 35.5828 91.9857C34.177 95.1833 35.8928 95.0268 34.177 96.509C33.0843 97.445 32.851 99.4703 32.0714 100.643C31.3685 101.968 31.0554 101.109 30.2758 102.668C29.886 103.447 29.493 104.227 29.1032 105.009L28.0104 107.348C29.6495 111.638 33.9437 112.651 37.2219 114.832C39.4074 116.315 40.7334 119.279 43.3086 119.046C43.5419 119.589 43.3853 120.448 43.855 120.761C44.4014 121.541 45.181 120.681 44.8678 122.24C43.0754 122.397 41.3564 120.761 39.5608 121.071C39.171 118.263 36.3624 119.046 35.8161 116.394C33.9437 116.628 32.4612 114.209 30.6656 113.04C29.6495 112.417 28.2469 112.651 28.4801 110.935C26.4512 111.245 25.4352 108.673 24.1859 107.271C23.2497 108.051 22.3934 108.204 21.4573 108.36C20.7543 109.766 19.9715 110.232 19.2718 112.651C19.1919 113.896 19.2718 115.379 19.6616 116.238C20.1281 117.174 21.4573 116.628 21.3007 118.576C20.4412 121.617 19.7383 120.292 19.0354 122.787C18.489 123.489 17.9426 125.674 17.3196 127.233C17.0065 129.728 18.0225 130.431 18.489 131.99C17.7861 133.625 17.0065 132.379 16.3035 133.549C15.1341 136.59 15.0574 138.072 14.9776 140.254C14.5878 141.27 14.0414 142.439 14.1181 143.295C14.821 143.685 15.1341 145.247 15.7572 145.793C16.4601 146.336 17.3963 146.572 18.2557 146.882C22.4701 148.521 27.6206 148.754 31.3685 151.719C32.0714 151.875 32.5379 149.534 33.2408 149.69C33.3974 151.329 35.0365 150.859 35.7394 151.639C35.4263 152.265 35.2697 152.731 35.3464 153.434C36.519 153.9 37.9249 154.137 38.6246 155.463C35.8928 156.632 33.9437 153.9 31.7583 155.539C31.4452 155.226 31.525 154.29 30.8988 154.447C24.5789 153.278 20.208 151.719 15.1341 151.406C14.5111 152.108 13.9647 153.354 13.3385 153.667C12.0892 153.044 10.0603 152.731 8.65763 152.811C6.93866 152.964 5.29957 150.549 3.81704 154.137C3.35055 156.395 3.89691 156.395 3.66048 158.504C4.59664 159.983 5.53281 161.155 6.86198 161.621C7.64159 161.855 8.811 162.401 9.12412 162.481C9.20399 162.481 9.5938 161.934 9.82704 162.011C10.7632 162.324 11.6227 163.18 12.5589 163.413C14.7443 164.04 16.2269 164.429 17.4761 166.534C17.7094 165.832 18.0992 165.912 18.4123 165.598C18.6456 166.378 18.9587 166.848 19.4252 167.237C20.1281 166.455 20.5179 167.704 20.9876 168.406C21.4573 168.017 22.0004 167.704 22.0803 169.029C22.7033 169.576 22.7832 167.627 23.4063 168.173C23.0931 169.965 23.876 169.732 24.1859 170.198C25.9815 169.889 26.4512 170.901 28.0903 170.588C28.5568 171.448 29.183 172.07 29.886 171.214C29.9626 172.147 30.2758 172.46 30.5857 172.693C32.6178 172.85 34.6467 174.332 36.2059 174.099C36.9088 175.658 37.9249 176.124 39.171 175.658C39.171 177.06 40.2637 176.124 39.7972 178.386C36.4391 177.84 33.8639 175.814 30.6656 176.517C30.4323 175.971 30.3524 175.112 29.9626 175.035C28.3235 175.581 26.841 174.099 25.1252 173.709C24.5789 173.553 23.876 173.866 23.2497 173.553C22.8599 173.319 22.5468 172.617 22.157 172.46C21.4573 172.227 20.6744 172.617 19.9715 172.304C19.5817 172.15 19.2718 171.368 18.8788 171.214C18.5689 171.134 18.1791 171.681 17.8659 171.604C14.3545 171.291 10.7632 168.563 7.32846 172.304C6.3923 172.304 5.29957 171.757 4.7532 173.163C4.51996 175.035 4.51996 176.124 4.59664 177.06C4.67652 177.996 4.90976 178.855 4.90976 180.101C2.25782 179.712 0.53885 180.258 0.618728 187.276C1.71146 191.566 3.74035 192.346 5.84593 192.422C7.95471 192.422 10.2168 191.799 11.8559 192.968C12.5589 193.358 12.4023 191.333 13.1819 191.876C13.3385 193.202 14.198 192.346 14.2746 193.904C12.9487 194.374 11.6227 193.202 10.53 194.061C9.82704 194.527 9.51392 196.166 8.89087 196.712C6.07918 197.179 3.58379 196.243 1.47502 197.025C1.16509 198.504 1.63158 202.015 1.9447 203.497C4.44328 207.395 7.48502 206.069 10.8431 206.459C11.6227 206.538 12.479 207.161 13.2618 207.238C13.9647 207.318 14.5878 206.928 15.2907 207.005C15.9137 207.085 16.6167 207.708 17.2397 207.784C17.7094 207.864 18.0992 207.628 18.5689 207.628C21.2208 207.864 24.1092 209.5 26.6078 208.174C27.7772 209.969 29.183 209.267 30.509 209.58C30.8221 209.656 31.2886 210.279 31.6017 210.359C32.5379 210.516 32.9277 210.516 33.5539 210.982C34.177 211.452 33.4741 209.5 34.1003 209.969C35.1132 211.841 36.9855 212.151 38.1581 212.541C38.5479 212.697 39.3275 214.336 39.171 212.388C38.861 212.231 38.2348 213.167 38.2348 211.605C38.7811 211.452 39.2508 211.605 39.6406 212.074C40.0304 212.541 40.4202 213.32 40.7334 214.413C39.564 215.662 36.7523 215.582 35.2697 215.349C33.5539 215.116 31.9149 216.052 30.1959 215.738C29.7294 215.662 29.3396 215.039 28.8699 215.039C28.167 214.959 27.6206 215.429 26.841 215.349C26.3713 215.272 25.825 214.726 25.3585 214.646C24.8121 214.569 24.4223 214.959 23.876 214.882C23.2497 214.803 22.6267 214.256 22.0803 214.18C21.3774 214.103 20.7543 214.493 20.0514 214.493C18.6456 214.493 17.0065 213.79 15.5239 213.633C14.3545 213.477 13.3385 213.946 12.2457 213.557C11.6994 213.4 11.3895 212.697 10.9198 212.697C10.53 212.697 10.2168 213.244 9.82704 213.4C8.89087 213.713 8.18795 213.244 7.5649 213.167C7.32846 213.167 7.1719 213.713 7.09522 213.79C6.86198 213.867 6.70542 213.32 6.3923 213.32C4.59664 213.4 2.49106 213.244 0.462168 212.464C0.305607 214.336 0.695411 215.349 0.851971 217.923C5.45613 221.744 12.0125 220.731 15.9137 218.703C16.6965 220.965 17.9426 219.482 18.8788 220.731L19.505 224.162C21.6106 223.773 22.7832 224.552 24.6556 224.082C25.2019 225.408 26.0614 224.316 26.6078 225.641C27.3874 225.721 28.2469 224.552 28.7133 226.657C27.7005 227.513 26.4512 226.501 25.2019 226.424C24.6556 226.424 24.1859 226.89 23.5628 226.814C23.0931 226.734 22.4701 226.188 22.0036 226.111C20.831 226.111 19.7383 226.734 18.5689 226.89C16.3035 227.047 12.9487 226.501 10.9198 226.89C10.6066 226.967 10.6865 227.67 10.3734 227.513C10.3734 227.513 10.0603 226.577 9.9836 226.501C9.82704 226.344 9.5938 226.577 9.51392 226.577C8.18795 226.424 7.01854 227.123 5.76925 226.814C4.83308 226.577 3.58379 224.629 2.95755 226.267C2.80419 227.983 3.81704 229.465 3.50391 230.634C4.7532 232.739 5.76925 233.595 6.86198 233.752C10.2967 234.222 13.7283 231.49 17.7094 231.18C19.2718 231.024 20.9109 231.57 22.4701 231.57C24.499 231.57 26.2946 231.024 28.0903 231.18C28.4801 231.18 29.0265 231.803 29.493 231.803C30.5857 231.88 31.0554 231.49 31.9149 232.193C32.5379 232.426 32.3813 231.57 32.7711 231.49C35.5828 232.739 39.4074 232.426 42.7623 232.583C44.1681 234.142 46.1171 233.129 47.1332 234.531C47.5997 235.078 47.9927 234.531 48.3026 235.547C47.5997 238.588 44.7145 237.573 41.9827 238.042C40.1071 238.352 38.7811 239.758 37.2986 238.508C36.2858 239.368 35.0365 239.444 33.7105 239.211C32.3813 239.055 30.9787 238.665 29.6495 238.822C26.5279 239.211 23.7194 240.614 20.9109 242.019C21.0643 242.955 21.1441 243.891 21.5339 245.06C23.173 248.335 24.2658 247.086 25.9048 246.852C27.3107 246.619 28.9466 246.696 30.0393 245.996C30.8221 246.306 30.1192 244.671 30.6656 244.747C31.2886 246.073 31.9149 245.293 32.5379 245.607C33.0843 245.683 32.9277 244.747 33.1641 244.358C33.8639 245.45 34.5668 245.217 35.0365 245.217C35.6595 245.217 36.5957 245.217 37.0654 244.98C37.3785 244.827 37.5319 244.281 37.845 244.201C39.4074 243.968 41.2797 244.904 42.7623 244.434C43.1521 244.281 42.6856 242.955 43.1521 242.875C43.5419 242.955 43.855 244.514 44.2448 243.968C45.181 243.501 46.4302 244.201 47.5997 244.201C48.0693 244.201 48.3825 243.735 48.8489 243.735C49.3953 243.735 50.0216 243.968 50.5679 244.044C51.1143 244.044 50.9577 243.735 51.191 243.811C51.4242 243.891 51.8939 244.358 52.1271 244.358C52.6735 244.358 53.2997 244.124 53.8461 244.124C54.3126 244.201 55.0922 243.655 55.7184 245.217C53.1432 247.009 49.7084 246.619 47.523 247.475C47.2099 247.632 47.0533 248.178 46.7434 248.258C46.197 248.335 45.4941 247.868 45.0244 247.945C44.7912 248.022 44.6346 248.568 44.4014 248.648C43.4652 249.037 42.0593 248.491 40.8899 248.491C39.2508 248.491 37.4552 248.411 35.9726 248.881C35.2697 249.114 33.7872 248.801 32.9277 248.958C32.4612 249.037 32.1481 249.427 31.6784 249.427C31.2886 249.427 30.7422 248.881 30.4323 248.881C29.183 248.724 28.3235 249.893 26.7643 248.568C25.9048 248.958 24.5789 249.817 23.0931 249.893C22.3135 249.893 21.4573 249.037 20.9876 249.504C20.5179 249.973 20.1281 251.609 20.9109 253.95C22.7033 256.289 24.0325 255.819 25.3585 255.586C25.9815 255.429 26.6078 254.963 27.2308 254.886C29.183 254.65 31.6017 254.493 33.4741 254.027C33.7105 253.95 33.7872 253.324 34.1003 253.248C34.6467 253.091 35.503 253.481 36.2059 253.481C37.2219 253.404 38.2348 252.701 39.171 252.778C39.564 252.778 40.187 253.248 40.5768 253.248C41.8261 253.171 42.9188 252.701 44.1681 252.778C44.7912 252.778 45.3375 253.014 45.8839 253.014C46.5069 253.014 47.1332 252.625 47.7562 252.701C48.0693 252.701 48.4591 253.171 48.7723 253.248C49.1621 253.324 49.4752 253.171 49.865 253.248C51.5041 253.481 52.5968 253.404 53.9995 253.794C54.5458 253.95 55.4053 253.637 56.1082 255.196C55.4053 256.365 54.7024 256.678 53.533 256.912C52.2837 257.145 51.1143 257.068 50.0982 257.068C49.7851 257.068 49.6317 257.458 49.3186 257.458C48.9288 257.381 48.6157 256.912 48.3026 256.912C46.8999 256.912 45.7273 257.691 44.2448 257.771C43.6217 257.771 42.7623 257.225 42.1392 257.145C41.3564 257.068 40.81 257.538 40.1071 257.538C39.4841 257.538 38.7045 257.381 38.0015 257.381C37.2219 257.381 36.5957 257.771 35.8161 257.771C33.3974 257.928 30.8988 257.068 28.7932 257.458C28.3235 257.538 27.8571 258.004 27.3874 258.004C26.6845 258.004 25.6716 257.301 24.9687 257.301C23.7194 257.301 22.7832 258.081 21.6106 258.081C20.3645 258.081 19.0354 257.068 18.0225 257.771C18.8788 259.563 18.1791 259.33 18.8788 260.889C19.8948 262.684 20.5978 263.074 21.3007 263.307C22.0036 263.62 23.7194 263.384 24.0325 263.307C24.2658 263.23 24.0325 262.604 24.4223 262.528C24.8888 262.528 25.515 263.074 25.9048 262.994C26.4512 262.917 26.841 262.371 27.4641 262.294C27.9337 262.214 28.7133 262.761 29.1032 262.684C29.5728 262.604 29.886 262.138 30.3524 262.138C30.7422 262.138 31.4452 262.528 31.835 262.604C34.1003 262.684 36.0493 261.515 38.3913 262.294C39.2508 261.278 40.5768 262.058 41.1998 262.058C41.7462 262.058 42.0593 261.435 42.6057 261.435C43.4652 261.358 44.478 262.214 45.4142 262.214C46.5069 262.214 47.523 261.825 48.539 261.668C50.1781 261.515 51.5808 261.592 52.9067 260.969C54.9388 262.214 56.498 259.72 58.6068 262.058C57.1211 262.448 56.0316 263.463 54.7024 263.62C54.3126 263.697 53.6097 263.23 53.2199 263.384C52.9866 263.463 52.9067 264.01 52.6735 264.163C52.2837 264.399 51.4242 264.556 50.8012 264.633C49.7084 264.709 49.0055 264.399 48.2259 264.399C47.0533 264.476 45.9606 264.709 44.7912 265.099C42.6856 263.62 41.3564 264.866 39.6406 265.022C37.7683 265.179 35.2697 264.163 34.1003 265.489C33.5539 264.866 33.0076 264.556 32.5379 264.556C31.9149 264.399 32.851 265.958 32.2248 265.802C31.7583 264.556 31.3685 264.399 30.9787 264.709C29.7294 265.882 28.167 264.243 26.841 265.489C26.2946 264.946 25.825 265.179 25.2786 264.476C24.5789 265.802 23.0931 264.163 22.0036 265.335C22.6267 267.051 23.0165 267.597 23.7961 269.779C25.5917 271.181 27.3874 271.807 29.1032 271.884C29.886 272.117 28.4801 270.012 29.183 270.169C29.6495 270.169 30.3524 272.274 30.7422 271.728C31.835 270.871 33.0076 271.181 34.1003 271.181C34.8 271.181 35.503 271.418 36.0493 271.338C36.6756 271.181 37.0654 270.558 37.6884 270.482C38.0782 270.402 38.7811 270.792 39.171 270.792C40.2637 270.792 41.1998 270.558 42.1392 270.325C43.3853 270.092 44.2448 268.999 45.9606 269.935C45.7273 269.233 45.8839 268.843 46.2737 268.686C48.3825 270.325 50.1781 269.313 52.0505 268.766C53.8461 269.935 54.7024 268.61 56.0316 268.61C56.7313 268.61 57.7473 269.313 58.3704 269.313C58.7602 269.313 59.0733 269.233 59.4631 269.156C60.9456 269.076 62.6646 268.843 63.9139 269.076C64.3037 269.156 64.537 268.61 65.16 269.856C62.5847 273.053 58.6835 272.977 55.1721 274.925C54.5458 274.615 53.9995 274.769 53.2997 274.379C52.5169 275.705 50.4114 274.069 50.1781 275.705C48.3026 274.459 47.4463 275.705 46.1171 275.861C45.7273 275.861 45.1043 275.548 44.7912 275.548C43.2319 275.471 42.0593 276.174 40.6535 276.174C39.4841 276.174 37.845 275.158 37.0654 276.407C36.8321 276.484 36.3624 275.315 36.1292 275.784C34.9566 276.484 33.3974 274.925 32.3047 276.094C31.4452 275.315 30.509 275.471 30.4323 276.484C30.509 277.42 30.9787 278.123 31.4452 278.826C31.9915 279.525 32.4612 280.228 32.6178 281.241C31.525 280.698 31.2119 281.787 31.132 282.723C32.3047 284.285 32.1481 283.972 33.3974 286.31C35.2697 287.716 35.8161 286.856 37.2219 286.467C38.5479 286.077 40.5768 286.233 41.6695 286.154C42.6057 286.077 43.3853 284.518 44.871 286.467C45.2608 288.105 43.7783 286.543 43.3086 286.856C42.6057 288.805 39.7173 287.792 38.1581 288.885C37.0654 287.949 36.0493 288.572 36.4391 289.977C37.845 292.003 37.4552 291.38 38.861 293.408C41.1998 295.124 42.8389 294.264 44.5579 293.951C46.3536 293.641 48.3825 293.641 49.0055 292.083C50.0982 292.939 50.0982 292.316 50.4114 291.693C52.9866 291.926 54.859 290.054 57.201 289.275C57.5908 289.195 58.2138 289.508 58.6068 289.431C59.8529 289.118 60.869 288.259 62.1949 288.026C62.4282 287.949 63.0544 288.415 63.2877 288.415C63.6775 288.339 63.6775 287.869 64.0673 287.792C65.6297 287.559 67.3455 287.09 68.828 287.09C69.6875 287.09 70.0773 286.856 70.8601 286.7C71.17 286.623 71.7962 286.936 72.1062 286.856C72.7324 286.856 73.1222 286.077 74.3715 287.326C73.8251 288.572 72.1861 288.182 71.17 288.728C70.8601 288.885 70.9368 289.508 70.6236 289.741C68.4382 291.223 65.16 291.38 63.6775 293.408C60.7923 293.562 59.3066 294.967 57.4342 296.996C57.9806 298.788 59.8529 298.475 60.3993 300.27C59.2299 300.347 58.9167 301.439 58.4503 301.829C56.4214 303.544 52.0505 301.362 50.1781 303.857C48.7723 303.231 46.7434 302.688 46.4302 303.468C47.2897 305.339 49.0055 306.272 50.2548 307.754C52.0505 307.445 54.0793 308.068 55.5619 306.818C57.9806 307.365 59.0733 306.429 60.869 306.272C61.7284 306.196 62.8212 306.429 63.6775 306.429C64.4603 306.429 65.0066 306.272 65.3166 306.272C66.0994 306.196 66.7991 305.883 67.1921 305.339C68.9845 305.649 70.3904 305.103 71.5598 303.934C75.3077 304.557 77.5698 301.752 81.4742 302.841C80.3016 304.947 78.506 306.196 76.4004 307.132C75.4642 307.521 74.2916 307.598 73.5887 307.834C73.1222 307.988 73.0455 308.534 72.5759 308.77C72.2627 308.924 71.5598 308.847 71.0134 308.847C69.6875 309.08 69.0644 309.86 67.8918 310.486C67.5819 310.639 66.879 310.406 66.4892 310.486C64.1471 311.032 62.9745 313.057 60.7124 313.683C60.0095 313.683 58.8401 312.981 58.2138 313.137C57.7473 313.29 57.6675 313.76 57.201 313.993C57.6675 314.853 58.2138 315.162 58.6835 315.632C59.2299 316.022 59.7762 316.488 60.3226 317.504C61.492 318.36 62.0384 318.127 63.211 319.063C63.834 319.063 65.4731 321.324 65.8629 320.855C66.879 321.011 68.0484 321.324 68.5181 320.388C69.9207 320.935 70.7802 320.388 70.9368 319.376C71.9528 319.609 72.6525 319.139 73.1989 318.517C75.0744 319.453 75.3844 318.44 76.4004 318.05C76.7902 317.894 77.4133 318.05 77.8063 317.97C78.0395 317.894 78.0395 317.504 78.2727 317.504C78.3526 317.504 79.2089 317.814 79.2888 317.814C80.6914 317.424 81.864 316.724 82.2539 316.022C83.19 316.178 84.516 316.568 84.2061 315.319C84.6725 315.319 85.532 316.098 85.6886 315.709C86.3116 314.463 88.0274 315.319 88.4971 313.917C89.9796 314.616 90.4493 313.137 91.4622 313.37C92.1651 313.527 92.3983 312.434 93.5709 313.68C94.0374 315.006 92.868 315.086 92.3983 315.788C91.6187 316.958 90.8391 318.36 89.7464 319.686C89.3566 320.075 88.9668 320.545 88.6537 321.011C87.8741 322.024 87.1711 322.65 86.3116 323.04C85.0624 323.586 83.5031 323.743 83.6597 325.458C84.2061 326.001 84.7524 326.394 85.1422 326.784C85.6087 327.094 85.9985 327.327 86.3883 327.563C87.0913 327.953 87.6376 328.03 88.0274 327.873C88.8102 327.717 89.2 326.937 89.9029 326.394C90.6027 325.768 91.6187 325.848 91.852 324.675C94.0374 324.599 95.52 323.586 96.8491 322.104C97.3955 322.26 97.7054 321.947 98.4882 322.26C99.1113 321.791 99.4244 321.011 100.674 321.634C101.14 321.011 101.373 319.999 103.169 321.324C103.795 322.417 102.156 322.181 101.687 322.57C100.517 324.755 97.9419 327.25 95.8331 328.966C94.9736 328.732 94.2739 328.889 93.9607 329.199C93.6476 329.588 93.6476 330.215 94.2739 330.994C96.0663 332.24 96.7692 331.93 98.3317 332.866C98.7981 331.694 101.843 332.553 100.594 330.524C103.402 331.227 104.105 329.435 105.744 328.809C106.057 328.653 106.68 328.889 106.917 328.732C107.227 328.576 107.227 328.109 107.463 327.873C108.946 327.796 110.195 327.25 111.441 326.784C112.69 326.314 113.783 325.691 115.033 325.302C116.905 324.599 118.934 323.976 121.043 323.743C121.589 323.663 122.135 322.96 123.305 324.053C121.276 325.848 120.106 328.653 118.934 330.914C117.218 331.071 116.672 332.163 115.656 332.943C114.563 333.722 113.16 334.345 112.534 335.438C111.598 335.517 110.741 335.827 110.039 336.217C109.336 336.607 108.789 337.153 108.32 337.856C107.227 337.779 106.917 338.245 106.214 338.479C104.185 339.338 101.92 340.194 100.204 341.443C99.1879 341.443 98.0952 341.363 97.7853 342.299C99.6576 344.015 101.063 343.938 103.639 345.264C106.134 345.264 106.604 342.845 109.179 342.845C109.336 342.379 108.789 341.753 108.946 341.363C110.348 340.973 111.208 340.274 112.224 339.571C113.707 338.635 115.266 338.089 116.049 336.687C117.531 336.297 118.777 335.671 119.48 334.345C120.886 334.268 122.368 334.112 122.838 332.866C124.087 332.866 124.787 332.32 125.723 332.087C126.973 331.93 127.362 330.838 129.002 331.46C130.018 333.332 127.519 334.815 127.989 336.607C127.362 336.453 127.053 336.53 126.896 336.763C127.053 338.322 124.241 339.494 124.321 340.973C123.305 341.21 122.368 341.52 121.979 342.456C121.666 342.769 120.34 341.989 120.34 342.536C120.026 343.158 119.403 343.392 118.387 343.235C117.921 344.561 114.486 344.641 116.049 346.589C119.014 348.305 119.637 347.602 121.745 348.381C121.822 347.525 122.602 347.445 123.694 347.682C123.148 345.966 125.88 345.887 126.27 344.404C127.129 344.404 128.065 344.561 128.455 344.094C128.535 342.379 131.344 342.146 132.28 341.21C132.826 340.664 131.5 338.948 134.309 339.884C133.919 341.989 132.436 343.625 131.344 345.577C129.861 345.577 129.315 346.589 128.925 347.602C127.519 348.072 124.944 348.228 125.334 349.707C127.362 350.8 128.535 351.033 129.471 351.033C130.407 351.033 131.11 350.879 132.203 351.033C133.063 350.253 133.686 349.474 134.622 348.928C135.325 348.538 136.417 348.305 137.04 347.915C137.743 347.445 138.446 346.979 138.68 346.2C140.319 346.666 139.852 345.264 141.335 345.653L141.801 344.404C142.974 344.561 143.677 344.171 144.376 343.938C145.626 343.625 145.316 342.066 148.044 343.002C147.188 345.497 146.875 348.228 145.549 350.333C144.613 351.892 142.348 352.672 141.724 354.23C140.945 354.464 139.772 354.387 139.852 355.166C140.398 355.4 140.945 355.556 140.632 355.789C142.894 356.725 143.91 356.572 145.392 356.882C145.626 356.572 146.718 356.725 147.032 356.572C147.265 356.415 146.642 356.026 146.718 355.946C146.718 355.946 147.655 355.946 147.734 355.946C148.437 355.479 148.671 354.777 150.153 354.543C150.543 353.764 151.013 353.061 152.105 352.828C152.415 352.515 151.402 352.205 151.869 351.892C152.808 351.892 152.885 351.189 153.978 351.269C154.757 350.253 155.07 349.008 156.24 348.228C156.476 348.072 157.412 348.072 157.722 347.915C158.269 347.682 157.722 346.823 159.205 347.445C159.052 348.072 159.751 348.538 159.675 349.317C159.598 350.02 158.815 350.723 158.815 351.033C158.815 351.269 159.285 351.346 159.128 351.659C158.972 351.892 158.192 352.049 158.036 352.282C157.256 353.218 157.412 354.387 156.786 355.246C156.63 355.479 155.93 355.556 155.694 355.789C155.46 356.026 155.617 356.492 155.46 356.805C154.291 358.364 150.623 359.3 151.716 361.562C155.617 362.731 157.489 362.185 159.675 362.028C160.064 360.939 162.017 360.156 162.876 358.91C163.576 357.898 163.029 356.336 165.451 356.026L165.685 354.7C166.934 354.31 167.87 353.764 167.947 352.672C169.276 351.969 170.912 351.189 172.005 350.643C172.398 350.41 172.161 349.787 173.49 350.02C174.27 351.736 173.724 354.154 173.567 355.479C173.49 356.179 173.177 356.962 173.254 357.661C173.41 359.457 171.068 360.859 171.928 362.731C173.177 363.197 174.19 363.197 175.206 363.197C176.219 363.121 177.158 363.044 178.251 363.121C179.344 361.795 181.526 361.092 181.606 359.3C182.855 358.987 183.635 358.208 184.258 357.505C184.884 356.725 185.43 356.026 186.133 355.479C186.913 354.933 187.849 354.23 189.019 353.841C189.801 355.946 190.111 358.287 189.098 359.766C188.785 360.236 188.162 360.393 188.082 360.549C188.006 360.782 188.552 360.939 188.552 361.092C188.552 361.328 188.082 361.405 188.006 361.718C187.926 362.185 188.082 362.808 187.926 363.197C187.379 364.523 184.727 365.772 186.133 367.331C187.926 367.487 188.472 367.174 190.035 367.254C191.127 366.941 191.83 366.242 192.14 365.459C192.533 364.679 192.533 363.9 192.14 363.277C192.843 363.121 193.703 363.044 193.626 362.654C193.626 362.185 193.626 361.718 193.703 361.328C194.795 361.092 194.795 360.393 194.719 359.69C196.591 358.91 196.045 357.272 198.463 356.725C198.776 355.946 198.697 355.01 200.725 354.933C201.665 356.882 201.818 358.987 203.147 361.092C201.741 362.028 202.444 363.277 202.211 364.523C202.055 365.928 200.259 367.721 203.694 368.034C206.892 367.877 206.189 366.475 209.547 366.318C209.624 364.916 211.886 363.667 210.793 362.498C211.576 361.249 212.432 360.079 212.432 358.677C213.525 358.208 213.448 357.428 214.618 356.962C213.761 355.946 216.1 354.62 216.57 353.451C218.053 353.138 216.647 352.049 218.679 351.892C220.551 352.205 220.238 353.374 220.784 354.31C221.8 356.026 224.063 358.91 222.034 360.782C222.5 361.718 222.58 363.044 222.5 364.29C222.423 365.226 221.018 366.318 222.813 366.631C225.468 366.242 227.341 365.615 227.964 364.759C228.747 363.823 227.497 362.887 227.028 362.028C227.731 360.393 228.2 358.051 227.184 356.725C227.731 356.102 228.747 355.323 227.807 354.933C228.98 353.997 229.759 353.061 229.603 351.892C230.462 351.269 231.242 350.566 231.085 349.787C233.897 348.694 232.961 346.823 236.159 345.653C238.188 346.043 236.939 347.525 237.252 348.538C237.409 348.928 238.111 349.084 238.421 349.474C239.361 350.879 239.671 352.905 239.594 354.543C239.594 354.933 238.968 355.556 238.968 355.869C238.891 356.492 239.361 356.882 239.361 357.505C239.437 358.987 238.734 360.702 238.891 362.108C238.968 362.654 239.124 363.121 239.594 363.121C239.907 363.121 239.124 363.434 239.124 363.434C239.124 363.667 239.204 363.9 239.281 364.057C239.594 364.679 239.984 365.306 241.153 365.539C242.716 365.226 243.575 364.836 244.275 364.446C244.978 364.057 245.604 363.667 246.697 363.197C246.617 362.341 247.633 361.562 248.023 360.702C246.46 358.83 249.192 356.336 247.633 353.997C248.646 352.905 248.492 352.438 248.336 351.502C249.429 350.177 250.052 348.928 249.975 347.525C251.691 345.966 251.144 344.404 253.173 342.845C253.486 342.066 253.799 341.287 254.736 340.507C255.202 339.648 254.656 338.868 257.544 338.012C259.027 340.351 260.043 343.158 261.056 345.887C261.289 346.356 260.119 346.902 260.589 347.292C261.915 348.771 260.509 350.566 260.432 352.282C260.432 352.672 260.353 353.608 260.589 353.997C260.822 354.387 260.666 355.479 262.851 354.543C264.647 353.921 263.787 353.451 264.803 352.905C265.66 353.061 266.049 351.892 266.832 351.579C267.142 350.177 266.596 348.851 267.222 347.445C267.222 346.666 266.442 346.746 266.206 346.2C266.752 345.264 267.299 344.094 267.379 343.079C267.455 342.689 266.989 342.536 266.989 342.143C266.989 341.443 267.612 340.351 267.845 339.571C268.082 338.712 267.379 337.932 269.094 336.92C269.251 337.466 270.967 337.856 271.203 338.169C271.436 338.479 270.89 338.948 271.123 339.102C271.123 339.102 272.06 339.102 272.139 339.181C272.373 339.338 272.296 339.728 272.529 339.961C273.389 340.74 274.481 341.21 274.948 341.753C276.197 343.235 275.964 345.577 277.993 346.823C278.383 347.602 277.756 348.228 279.162 348.148C282.44 346.979 281.581 346.2 284.003 344.717C284.859 343.235 284.08 342.845 283.69 342.066C282.597 340.117 285.016 337.076 283.377 335.671C284.703 333.645 283.377 332.007 285.329 329.902C286.578 329.978 286.188 330.994 286.888 331.54C287.671 332.083 289.23 332.083 289.776 332.709C290.166 333.176 290.01 333.879 290.246 334.425C290.479 334.815 291.026 334.971 291.339 335.281C291.729 335.827 291.102 337.153 292.821 336.763C295.007 335.517 294.77 334.815 296.489 333.645C297.036 330.604 294.927 328.186 297.112 324.599C297.659 323.663 296.646 323.196 298.518 321.947C299.611 321.401 300.314 321.324 300.937 321.481C301.563 321.634 301.953 322.024 302.343 322.494C305.388 321.714 306.087 324.599 309.209 323.743C310.382 322.96 311.318 322.417 312.254 321.481C313.66 320.075 313.66 318.75 314.05 317.737C314.516 316.488 314.516 316.178 314.439 315.399C314.363 314.463 314.516 313.214 314.596 312.121C314.596 311.732 314.753 311.342 314.829 311.032C314.909 309.86 314.829 308.381 316.079 307.055C316.781 306.585 317.561 306.119 318.264 305.806C318.967 305.416 319.67 305.103 320.216 304.793C320.526 304.637 320.526 304.947 320.916 304.793C321.229 304.713 321.775 304.167 322.089 304.014C324.117 303.231 325.6 303.154 327.396 302.608C328.252 301.516 328.878 301.206 329.345 300.58C330.83 298.711 330.127 298.321 331.61 296.369C333.016 294.967 334.185 294.811 334.965 294.264C335.278 294.031 335.591 294.031 335.981 293.875C336.291 293.641 336.604 293.641 336.994 293.485C337.697 293.095 338.633 292.862 338.946 292.629C339.179 292.472 339.259 292.629 339.492 292.472C339.882 292.236 340.429 291.303 340.742 291.067C341.052 290.833 341.208 291.38 341.678 290.6C342.381 290.287 343.394 288.728 344.02 288.728C345.969 286.154 347.531 284.362 349.09 281.71C349.793 280.541 350.34 279.448 350.886 278.199C351.432 276.954 352.059 275.705 352.838 274.459C353.698 273.443 354.554 272.507 355.337 271.651C356.117 270.715 356.896 269.779 357.676 268.843C359.238 266.971 360.877 264.866 362.436 262.058C363.609 260.732 364.935 259.173 366.184 257.068C366.807 255.976 367.354 254.807 367.98 253.404C368.29 252.701 368.603 251.999 368.916 251.219C369.226 250.44 369.539 249.66 369.772 248.724C370.009 247.242 369.772 245.76 370.399 243.735C370.712 242.799 371.022 241.939 371.335 241.24C371.648 240.537 371.958 239.834 372.271 239.211C372.894 237.962 373.52 236.873 373.987 235.624C374.38 234.531 374.69 232.739 374.846 231.803C375.549 228.919 376.485 226.111 376.955 223.226C377.345 220.808 377.578 218.47 377.735 216.285C377.891 215.192 377.891 214.023 377.891 212.931C377.968 211.841 377.968 210.672 378.048 209.58C377.891 208.41 377.735 207.474 378.048 205.213C377.658 203.964 377.578 202.638 377.658 201.312C377.422 199.753 377.422 198.038 377.188 196.323C376.955 194.607 376.719 192.968 376.409 191.643C375.862 190.787 376.096 188.055 375.316 187.822C374.926 188.915 375.316 188.368 375.473 189.228C375.862 189.304 375.473 191.253 375.549 192.112C375.862 192.812 376.019 193.828 376.172 194.92C376.252 195.463 376.252 196.089 376.329 196.636C376.329 197.179 376.329 197.805 376.409 198.351C376.485 200.613 376.798 202.871 376.565 205.603C377.032 206.538 376.798 208.644 376.798 210.516C376.798 211.372 376.798 212.231 376.875 213.167C376.875 214.103 376.875 215.039 376.798 215.895C376.565 217.923 376.252 220.185 375.862 222.367C375.782 222.913 375.706 223.459 375.549 224.006C375.393 224.552 375.316 225.018 375.159 225.565C374.926 226.577 374.69 227.513 374.456 228.373C373.987 230.401 373.597 231.96 373.13 233.362C372.661 234.768 372.271 235.937 371.805 237.263C371.491 238.119 371.102 237.419 370.788 238.978L370.319 240.614C370.165 241.16 369.929 241.706 369.772 242.252C369.149 243.811 368.526 242.875 367.9 244.201C367.667 245.37 368.29 245.37 367.59 247.165C367.667 247.945 368.37 248.022 368.057 249.427C367.354 250.44 366.497 253.014 365.795 254.807C365.405 255.429 364.935 256.056 364.545 256.835C364.155 257.614 363.609 258.471 363.139 259.407C361.267 261.358 359.471 264.633 357.519 266.894C356.819 267.75 356.037 268.22 355.414 269.546C354.634 270.092 353.931 270.638 353.151 271.338C352.369 272.041 351.512 272.977 350.576 274.459C349.873 275.861 350.263 276.251 349.873 277.343C349.327 278.356 348.857 279.215 348.544 280.071C348.154 280.851 347.844 281.633 347.298 282.49C346.439 283.815 345.659 284.828 344.723 285.764C343.783 286.7 342.847 287.559 341.911 288.572C339.805 290.131 338.01 290.833 336.137 291.846C335.435 292.236 334.575 293.095 334.029 293.172C333.639 292.705 333.093 292.549 332.546 292.629C331.53 293.875 330.907 293.954 329.891 295.2C328.798 296.996 329.191 298.008 327.316 300.27C325.99 301.126 324.897 301.283 323.804 301.439C322.245 302.532 321.073 302.765 319.59 303.701C318.731 303.621 317.874 303.777 316.625 304.557C315.142 305.806 314.596 306.662 313.503 307.754C312.724 309.393 312.487 310.875 312.254 312.201C312.021 313.603 311.864 314.929 311.474 316.332L312.021 316.958C310.695 318.75 312.411 319.453 309.912 321.714C309.056 321.791 309.602 320.855 308.586 320.855C306.79 321.481 306.167 320.075 304.605 320.309C303.982 319.609 303.122 319.373 302.11 319.296C301.873 318.127 300.547 318.593 299.221 319.219C296.646 321.245 295.63 322.727 295.007 324.209C294.381 325.691 294.147 327.017 293.055 328.499C293.601 329.199 293.368 330.058 292.508 331.071C291.259 330.291 289.543 330.058 289.856 328.576C289.153 328.576 288.374 328.653 287.981 328.186C288.137 327.094 288.217 325.848 286.342 326.391C285.642 326.784 285.172 327.25 284.703 327.64C284.236 328.03 283.923 328.419 283.61 328.809C283.063 329.588 282.754 330.368 282.44 331.071C281.974 332.32 281.581 333.722 281.428 334.815C281.428 334.891 280.801 335.438 280.801 335.594C280.645 336.763 281.271 338.089 281.114 339.025C280.801 340.664 281.191 341.909 280.801 343.548C281.114 344.328 282.597 344.328 280.255 345.73C278.929 344.484 279.242 342.456 278.383 340.973C277.68 339.884 275.651 339.102 275.261 337.856C275.104 337.466 275.418 336.996 275.181 336.763C274.558 336.06 272.606 335.827 272.842 335.124C272.919 334.891 272.296 335.048 272.296 335.048C272.216 334.815 272.216 334.581 271.983 334.425C271.513 334.035 271.203 333.722 270.5 333.489C268.158 334.502 267.455 335.438 266.053 336.45C265.74 337.776 265.583 339.102 264.414 340.507C264.803 341.443 264.334 342.379 263.631 343.315C262.072 341.443 264.021 337.932 260.589 337.076C261.289 335.751 260.509 334.425 258.014 335.204C255.982 335.827 255.359 337.076 254.736 337.543C252.627 339.181 251.378 341.443 250.521 342.689C249.975 343.468 249.429 344.328 249.039 345.03C248.569 345.73 248.179 346.356 247.866 346.979C247.163 348.228 246.54 349.317 245.837 350.253L246.15 351.423C245.524 352.438 244.355 353.608 244.198 354.777C244.121 355.4 244.668 355.946 244.668 356.572C244.668 356.962 244.121 357.505 244.042 357.974C243.652 359.766 245.447 361.562 242.872 363.277C241.31 362.574 242.639 361.092 243.105 360.079C242.093 358.754 242.402 356.962 242.559 355.246C242.792 353.528 242.872 351.736 241.623 350.41C243.652 349.008 240.374 347.835 241.546 346.433C240.14 345.966 239.671 344.794 239.907 343.705C238.814 343.625 238.345 343.079 236.706 343.392C234.753 343.938 233.427 345.187 232.724 345.653C232.178 346.043 231.945 346.433 231.632 346.746C231.478 346.902 231.009 347.056 230.852 347.212C229.446 348.538 229.213 350.02 227.028 351.346C226.794 352.125 226.714 353.061 225.545 353.608C224.376 352.828 224.063 351.659 222.423 351.113C223.046 350.723 223.203 350.177 223.126 349.63C222.11 349.554 222.97 348.538 221.254 348.851C220.628 348.618 219.069 349.474 217.819 349.63C216.57 350.723 215.79 351.736 214.071 352.672C213.525 354.464 210.717 355.636 210.793 357.661C209.157 358.754 208.375 360.003 208.688 361.718C207.049 362.185 208.764 363.743 206.425 363.98C206.032 362.808 206.972 361.405 206.735 359.923C206.659 359.613 206.346 359.22 206.269 358.91C205.643 356.572 207.438 354.154 205.176 352.515C202.834 352.438 201.741 352.828 200.259 352.985C198.387 353.764 196.824 354.853 195.655 355.713C195.265 356.026 195.185 356.649 193.779 356.492C192.533 355.556 194.249 353.684 193 352.748C194.482 352.202 194.326 350.8 192.22 350.566C189.019 350.566 188.472 351.659 186.29 352.125C185.977 352.985 185.041 353.608 184.104 354.154C183.165 354.777 182.309 355.323 182.229 356.336C180.67 356.725 180.123 357.894 179.187 358.364C178.951 358.521 178.404 358.521 178.251 358.597C177.858 358.754 178.094 359.533 176.765 359.22C177.235 357.115 180.043 353.061 177.468 350.956C178.561 350.253 177.781 349.084 176.922 348.305C176.219 348.148 175.596 348.148 174.973 348.072C174.347 347.992 173.567 347.992 172.551 347.758C171.225 348.305 170.212 349.008 169.196 349.707C168.183 350.41 167.167 351.189 165.841 351.659L165.605 352.828C163.576 353.138 163.732 354.853 161.783 355.246C161.39 355.556 162.33 356.725 160.611 356.179C161.47 353.921 162.64 352.905 164.122 351.269C162.563 350.8 164.359 350.253 164.435 349.787C163.186 348.461 164.359 347.758 163.812 346.509C164.592 346.276 166.151 345.81 165.058 344.874C163.576 344.171 163.266 344.794 161.157 344.171C160.767 344.251 160.454 344.404 160.064 344.561C159.675 344.717 159.361 344.794 158.972 344.951C158.269 345.187 157.489 345.497 156.866 345.81C155.46 346.433 154.211 347.136 153.198 347.915C152.962 348.072 153.198 348.381 153.042 348.538C152.962 348.618 152.182 348.538 152.026 348.618C151.792 348.771 152.652 349.864 150.933 349.161C150.856 346.823 153.898 346.043 152.026 344.015C153.431 343.468 154.211 342.456 152.495 341.13C150.776 340.427 150.466 340.74 149.06 340.351C147.188 340.584 145.392 341.053 143.83 341.52C142.191 341.989 140.788 342.536 139.539 343.158C139.226 343.315 139.616 344.251 137.977 343.468C136.494 342.769 137.667 342.612 137.9 342.379C138.213 342.066 138.993 341.833 139.226 341.443C139.382 341.13 139.069 340.427 139.306 340.038C139.852 338.868 140.945 338.245 139.539 337.076C138.836 336.763 138.37 336.607 137.9 336.53C137.43 336.45 137.12 336.373 136.731 336.373C136.028 336.373 135.481 336.45 134.622 336.217C134.309 336.996 133.919 337.543 132.28 336.996C132.906 335.438 132.593 333.645 133.762 331.694C134.155 331.151 135.558 331.46 134.855 330.368C133.216 329.355 132.749 329.588 130.954 328.653C129.941 328.419 129.861 329.042 129.315 329.122C129.081 329.122 128.222 328.809 127.989 328.809C127.519 328.889 127.599 329.279 127.209 329.355C126.739 329.512 125.96 329.668 125.49 329.825C124.944 329.978 124.867 330.914 123.385 330.058C122.915 329.355 124.477 329.355 124.634 328.653C125.024 326.627 127.676 325.458 126.896 323.586C125.96 323.196 124.867 322.65 123.541 321.871C121.902 321.558 121.119 322.337 119.17 321.714C119.324 322.337 118.467 322.024 117.921 322.104C116.828 322.26 116.282 322.65 115.422 322.883C115.109 322.96 114.173 322.807 113.863 322.883C113.47 323.04 113.237 323.506 112.847 323.663C111.678 324.209 110.662 324.988 108.866 324.912C108.866 325.691 107.773 325.691 107.073 325.924C106.447 326.158 106.291 327.407 104.342 325.848C105.588 325.065 105.198 323.43 105.981 322.65C106.527 322.104 108.086 322.494 108.32 321.634C107.54 320.465 107.15 320.388 105.744 319.139C104.575 318.75 103.559 318.593 102.703 318.593C101.843 318.593 101.063 318.673 100.281 318.906C98.7981 319.296 97.3955 319.842 95.6765 319.842C95.6765 317.657 98.0185 317.268 98.9547 315.709C99.3445 315.006 98.9547 313.76 99.7343 313.29C99.8142 312.668 98.2518 311.655 98.2518 311.029C98.0952 310.406 97.862 309.783 98.4882 309.393C96.8491 308.301 98.0185 308.224 96.8491 307.288C94.194 305.573 93.0246 306.742 90.8391 305.493C90.0595 305.962 88.7303 306.119 87.9507 305.962C87.6376 305.962 87.1711 306.119 86.6248 305.416C87.7942 304.557 88.4204 303.468 88.1073 301.985C87.7175 300.893 85.6087 300.58 85.7653 299.411C87.1711 299.49 88.1073 298.554 89.7464 299.177C90.3694 299.021 89.5898 298.318 90.1362 298.165C90.8391 297.852 92.3216 297.775 93.2578 297.305C93.7275 297.072 94.0374 296.759 94.0374 296.213C94.0374 295.67 93.7275 295.044 93.0246 294.108C90.6059 292.392 89.0435 293.718 87.5609 293.562C84.9857 293.328 83.1133 293.718 81.5509 295.59C80.6148 294.577 80.6914 296.293 79.6786 294.967C81.0812 293.718 82.4104 292.236 82.7203 289.977C82.4871 288.962 81.864 288.885 81.3177 287.869C81.4742 287.246 81.864 286.78 80.848 285.531C79.1322 283.972 77.8063 283.582 76.6336 283.972C75.0744 283.113 74.1351 284.518 72.4992 283.349C71.9528 281.554 73.1222 283.036 73.7453 282.413C75.2278 281.787 79.2089 282.023 77.9596 278.746C76.557 276.954 75.3844 276.484 74.5281 277.11C73.1989 276.018 72.2627 276.797 71.0933 276.407C69.7674 275.784 68.9845 276.407 67.8918 276.484C67.6586 276.484 67.1921 276.018 67.0355 276.018C65.9428 275.941 65.8629 277.42 64.6136 276.018C64.3037 273.756 67.0355 275.395 67.8918 273.913C68.2816 273.989 68.828 274.146 69.221 274.069C69.844 273.913 70.3904 272.82 70.547 272.663C70.7035 272.507 71.0134 272.977 71.17 272.743C71.6397 272.117 72.0295 271.028 72.1062 270.169C69.4542 266.115 67.502 267.128 65.7862 266.661C65.2399 266.505 64.6136 267.051 64.0673 265.725C65.16 265.256 66.879 265.489 67.8918 264.946C68.1283 264.866 68.0484 264.399 68.1283 264.32C68.3615 264.163 68.6746 264.709 68.9079 264.32C69.1411 264.01 69.6108 263.074 68.9079 261.981C68.1283 260.186 67.8918 260.732 67.4253 260.422C67.1921 260.266 66.3326 259.407 66.0994 259.253C65.8629 259.173 65.7064 259.563 65.4731 259.563C65.3166 259.563 64.8501 259.097 64.6136 259.097C64.1471 259.017 63.9139 259.876 63.211 258.863C62.4282 257.068 63.9906 257.301 63.211 255.586C62.2748 254.027 61.5719 253.404 60.7923 253.014C60.0095 252.625 59.2299 252.468 58.4503 251.845L57.5141 252.235C56.4214 250.909 55.4852 252.078 54.3925 250.283C54.7024 249.271 55.9517 249.973 56.8879 249.66C57.5141 249.427 58.1371 248.724 58.9167 248.335C59.6996 247.945 61.0255 248.178 61.4153 247.712C61.885 247.165 61.885 246.073 62.0384 245.217C61.0255 242.875 59.8529 242.252 58.9966 242.019C58.3704 241.863 58.2937 242.176 57.7473 242.019C57.6675 242.019 57.201 241.393 57.1211 241.393C55.4053 241.003 53.6895 242.176 51.9706 240.147C52.9067 239.758 53.4531 238.978 53.9228 238.119C53.3764 236.09 52.6735 235.391 52.0505 234.921C51.3475 234.455 50.7245 234.142 50.1781 233.129C49.6317 232.583 48.8489 233.752 48.3825 231.88C48.9288 232.659 49.0055 231.57 49.2388 231.18C51.2676 231.88 54.3126 231.803 54.9388 229.072C54.7024 227.903 54.4692 227.67 54.2359 227.123C54.0793 226.657 53.8461 225.878 53.6097 225.565C53.533 225.408 53.3764 225.798 53.2997 225.641C52.7534 224.942 52.5169 224.862 52.0505 224.705C51.814 224.629 51.7373 224.082 51.5041 224.006C50.8778 223.616 50.1781 223.459 49.5519 223.146C48.9288 222.837 48.2259 222.757 47.6795 221.821C48.7723 220.495 50.7245 221.901 51.814 220.885C51.7373 219.949 52.9067 220.652 52.4403 219.093C52.2837 218 51.8939 217.297 51.2676 216.674C50.7245 216.052 50.0216 215.505 49.7084 214.569C49.4752 212.308 48.7723 212.388 48.3825 210.982C47.6795 210.436 46.6635 210.046 46.197 209.58C45.7273 209.19 44.9477 208.8 44.9477 207.628C46.1171 206.772 49.0854 208.254 49.6317 205.369C49.5519 204.433 49.3953 203.807 49.1621 203.341C49.0055 202.871 48.7723 202.561 48.4591 202.328C47.9128 201.782 47.3664 201.546 46.9766 200.61C44.871 200.533 43.3853 198.351 41.513 197.568C41.8261 197.102 42.0593 196.556 42.3725 196.01C42.6856 195.463 42.9955 195.074 43.3853 194.917C43.7783 194.764 44.2448 195.153 44.5579 195.31C45.1043 195.543 45.5708 195.62 46.1171 196.089C46.6635 195.074 47.7562 195.074 48.4591 194.294C47.8361 189.851 46.5868 190.317 44.9477 189.381C43.7783 188.682 42.6057 187.666 41.513 187.276C41.8261 185.561 42.6856 184.548 43.4652 184.315C43.9317 184.158 44.4014 184.625 44.9477 184.781C46.8201 185.171 48.4591 184.078 49.7084 183.612C49.7084 182.519 49.7851 181.427 49.7851 180.338C47.3664 176.514 42.9955 176.514 40.5768 172.46C39.6406 172.147 38.7811 171.524 38.1581 170.821C37.4552 170.122 36.8321 169.263 36.1292 168.406C35.8161 167.547 34.8 168.017 35.0365 165.988C36.1292 166.691 37.5319 166.221 38.861 166.924C39.171 167.081 39.171 167.547 39.4074 167.86C40.187 168.716 40.7334 168.17 41.5928 168.093C43.9317 167.937 47.7562 169.342 49.2388 168.17C49.7084 167.78 50.7245 167.86 50.8012 166.301C50.8012 165.755 50.8012 165.285 50.8012 164.819C50.8012 164.349 50.7245 163.96 50.6446 163.65C50.488 162.947 50.2548 162.401 49.9417 161.855C49.3953 160.842 48.6157 160.139 48.0693 159.127C48.3026 157.878 48.3825 156.865 48.4591 156.006C48.539 155.149 48.539 154.37 48.539 153.591C49.0055 152.888 49.3953 152.185 49.7851 151.329C49.9417 150.859 50.0982 150.393 50.2548 149.847C50.3315 149.3 50.488 148.678 50.6446 147.975C50.2548 147.195 49.7084 146.649 49.6317 145.48C47.2897 144.074 45.3375 141.27 43.3853 139.554C42.6856 138.928 41.513 139.008 41.513 137.056C43.1521 137.293 45.4142 137.056 46.8201 138.305C47.1332 138.618 47.2099 139.398 47.6795 139.474C48.6924 139.787 49.5519 138.928 50.3315 138.538C50.7245 138.305 51.2676 139.085 51.5808 137.602C52.4403 134.718 51.3475 134.172 50.8778 133.236C50.7245 132.926 50.0982 132.769 50.5679 131.757C51.2676 131.91 51.9706 132.146 51.814 133.159C53.2199 132.769 54.2359 134.015 55.4053 134.874C55.9517 135.341 56.5747 135.734 57.1211 135.81C57.7473 135.887 58.3704 135.654 59.0733 134.951C59.4631 134.874 59.8529 135.81 60.166 134.485C61.8051 130.741 58.9167 131.6 59.1532 129.182C58.1371 128.949 57.1211 127.153 56.8112 126.374C56.6546 126.064 56.5747 125.908 56.3415 125.751C55.0922 124.582 52.8301 125.205 53.533 121.697C54.6257 120.994 55.7184 120.135 56.7313 120.761C57.6675 118.966 57.6675 118.11 58.2937 116.704C57.824 115.535 56.8112 114.912 56.3415 113.743C57.9039 113.43 59.543 114.443 60.0894 116.158C61.5719 114.989 62.5847 118.343 64.3804 114.053C64.537 111.012 62.2748 109.919 61.492 107.504C62.1949 105.709 62.5081 105.399 63.0544 103.837C63.2877 101.968 60.3226 102.435 60.869 100.406C62.5081 98.4576 62.1183 100.953 62.9745 101.186C63.5209 101.342 64.3037 100.719 64.8501 100.796C65.7064 99.5501 66.0994 98.6908 66.5658 97.7549C66.879 96.0394 65.8629 95.7296 65.3166 94.7936C64.8501 93.9343 64.6136 92.6885 64.1471 91.7525C63.9906 91.5161 63.5209 91.4394 63.2877 91.2063C63.0544 90.8165 63.0544 90.1138 62.8212 89.8007C62.1183 88.6315 61.1821 87.6189 60.6357 86.5264C60.4792 86.1367 59.6197 86.2165 60.6357 84.811C61.7284 84.1881 61.885 85.5138 61.885 86.2932C62.7413 85.4339 63.1311 86.06 63.6775 86.4497C63.834 86.8394 63.834 87.539 64.0673 87.9319C65.0833 89.411 67.1122 90.5035 68.6746 91.3628C68.9845 91.5161 69.7674 91.1264 70.0006 91.2063C70.4671 91.4394 70.0006 92.4521 70.7035 92.2988C71.5598 91.3628 71.9528 92.0624 72.6525 91.596C73.5887 90.5035 73.5887 89.9572 74.6814 88.7881C74.2916 86.996 73.1989 84.7343 72.889 83.4086C72.1062 81.3035 70.7035 80.4442 70.6236 78.5722C70.3904 78.026 69.6108 78.8054 69.4542 78.1825C69.844 75.611 66.7224 75.1414 66.9557 72.3335C65.553 71.3975 64.2238 69.7619 63.0544 68.2797C62.8212 67.9667 63.1311 67.1872 62.9745 66.8774C62.7413 66.5643 61.9617 66.7975 61.7284 66.4876C61.492 66.1746 61.492 65.5517 61.6486 65.0821C62.8979 64.0694 63.2877 65.1619 63.5209 66.0181C65.553 65.0054 64.8501 68.0465 66.7224 66.954C66.176 69.6054 68.828 70.0718 70.0006 71.1643C70.2338 71.554 69.1411 72.6465 69.6875 72.8031C70.0773 72.8797 70.7802 71.9438 70.9368 72.6465C71.0933 73.8157 71.7164 74.9082 72.4193 75.8442C72.9657 76.6236 73.512 77.4797 74.1351 77.9493C74.6048 78.339 75.3077 78.339 75.854 78.2624C75.3844 80.0544 77.18 79.9778 78.1961 80.9138C78.4293 81.1469 78.4293 81.6133 78.6625 81.9264C80.3016 83.9549 81.9407 85.2007 84.5959 84.3446C85.6087 83.3288 85.532 82.939 86.4682 82.0829C86.7813 80.2876 86.1551 78.8853 85.842 77.3264C85.6886 76.6236 85.6886 75.6876 85.4522 75.0647C85.1422 74.2853 84.4393 73.8956 84.0495 73.1129C83.8131 72.5699 83.6597 71.8671 83.5031 71.1643C83.3466 70.4615 83.2667 69.8386 82.8769 69.4489C82.7203 69.2924 82.174 69.2157 81.9407 69.1358C82.174 67.5003 81.1611 66.2513 80.5349 65.0821C80.225 64.5358 78.9757 64.5358 80.0684 63.2101C81.4742 63.0536 82.0206 63.7564 81.3944 65.2386C82.0206 64.8489 82.6437 64.3793 82.8769 64.769C82.3305 66.4876 83.1133 67.5769 84.6726 67.9667C83.8131 69.3722 85.3755 69.2157 85.842 69.8386C86.3116 70.4615 86.7014 70.9311 87.2478 71.3208C87.9507 71.7872 87.9507 72.8031 88.5738 73.3493C89.5898 74.1288 91.3056 74.1288 92.4782 74.2853C94.1173 72.9596 94.0374 72.2568 94.8969 71.2442C94.7403 69.6821 94.3505 68.1232 94.0374 67.0307C93.8809 66.4876 93.4911 66.1746 93.3345 65.6283C93.2578 65.3951 93.7275 64.8489 93.6476 64.6924C93.6476 64.3793 93.1811 64.3793 93.1013 64.0694C92.868 63.0536 92.7881 61.5746 92.3983 60.4821C92.0085 59.4694 91.542 58.5335 91.149 57.5176C90.7592 56.505 90.4493 55.4924 89.9029 54.5564C88.7303 52.6046 88.6537 50.8892 87.0913 49.6433C87.5609 48.2378 86.5449 47.6915 85.9218 46.6789C85.532 45.9761 84.5959 45.12 86.0784 43.7144C88.2639 44.4971 88.5738 46.4457 90.2129 48.1611C90.6027 48.4742 89.6665 49.2536 90.0595 49.5635C91.542 49.2536 90.526 50.8892 91.4622 51.2789C91.6187 51.9817 92.868 51.0457 93.0246 51.7485C92.868 52.1382 92.3983 52.841 92.3983 53.3074C92.3983 53.6971 93.1013 53.2307 93.1811 53.5406C93.1811 53.5406 93.0246 53.6971 92.868 53.8536C92.7115 54.0101 92.5549 54.1667 92.5549 54.2433C92.2418 55.4125 93.9607 55.256 94.4272 55.8022C93.8809 57.0513 94.6637 57.0513 95.5998 57.2844C95.0535 57.9872 95.2867 58.5335 95.2867 59.0765C97.0824 60.6386 97.0025 62.6639 98.7981 62.7438C98.4083 63.29 97.5489 63.9129 98.1751 64.0694C99.7343 65.6283 100.674 68.3564 103.249 68.2797C104.575 67.4204 104.495 66.954 105.824 66.0947C106.291 65.0821 106.371 64.226 105.511 63.5999C106.371 62.1176 105.824 61.4181 105.824 60.4022C105.744 59.3896 105.981 58.2204 105.744 57.3611C105.668 57.0513 105.198 56.8947 105.121 56.505C105.121 55.9588 105.511 55.1793 105.434 54.6331C105.355 53.9303 104.731 53.384 104.652 52.6844C104.575 52.0583 104.888 51.1256 104.808 50.4994C104.495 48.8639 103.169 47.6149 102.779 45.8994C102.623 45.2765 102.779 43.7144 102.703 43.2481C102.623 43.0915 102.156 43.4046 102.156 43.2481C101.92 42.3121 102.076 41.1429 101.843 40.2069C101.453 38.9579 100.75 38.2583 100.437 37.2425C100.127 36.1532 100.204 35.1374 100.281 34.3579C100.281 33.9682 99.2678 33.8915 100.594 32.9556C102.703 32.0962 102.703 33.5785 103.326 34.4378C104.418 36.0733 105.041 38.0219 106.134 38.8812C105.668 39.7406 105.824 40.2069 106.134 40.6733C106.371 41.0662 107.307 40.9097 107.697 41.2994C107.853 41.5326 108.086 42.3121 108.01 42.7018C108.01 43.0149 107.773 43.5611 107.227 44.0275C107.463 44.4971 108.556 43.871 108.633 44.4971C108.32 45.0401 107.54 45.7429 108.01 46.056C108.32 46.9919 109.102 47.2251 109.959 47.3817C109.959 47.6915 108.866 48.2378 109.569 48.4742C111.288 49.6433 111.288 52.2947 113.317 53.4639C113.317 53.9303 112.69 54.4765 113.16 54.7896C114.253 54.9461 115.189 55.1793 115.892 55.8821C120.263 53.4639 119.247 52.1382 119.324 50.8125C119.403 50.1896 119.637 49.4069 119.717 48.8639C119.793 48.0046 119.324 47.3817 120.34 46.3658C120.263 45.7429 119.87 45.1967 119.793 44.4971C119.793 44.2607 120.263 43.7144 120.263 43.4812C120.263 43.1714 119.793 42.935 119.793 42.6251C119.793 41.1429 119.793 39.7406 119.637 38.4915C119.56 37.8686 119.014 37.1658 119.09 36.4631C119.09 36.0733 119.56 35.6069 119.56 35.2939C119.403 34.1247 118.467 33.2654 118.311 31.9397C118.234 31.1603 118.777 30.071 118.624 29.3682C118.544 28.9785 118.077 28.7453 118.077 28.3556C118.077 27.886 118.467 27.1832 118.311 26.7168C117.998 25.2346 116.828 24.6883 118.7 23.1294C121.276 25.2346 121.043 28.8986 121.432 31.7864C121.509 32.486 122.212 32.7224 122.995 32.7224C120.963 33.9682 122.995 34.7476 121.979 35.9168C122.758 36.0733 122.915 36.9326 123.618 37.1658C123.148 37.8686 123.148 38.4915 123.071 39.1144C123.851 39.8939 123.851 41.3761 124.164 42.7018C124.397 44.0275 124.944 45.1967 126.816 45.3532C127.832 44.6504 129.158 43.9508 130.174 43.2481C130.721 42.2354 130.251 41.8457 130.174 41.2196C131.03 38.4149 131.813 35.2172 131.733 32.7224C131.657 30.1476 131.577 27.886 131.657 25.3911C131.657 24.3785 131.89 23.3626 131.97 22.35C132.123 20.2449 131.577 18.0599 132.67 16.1112C132.28 15.6449 132.36 15.0986 132.593 14.4725C132.749 14.0828 133.063 13.2267 134.155 12.7571C136.184 12.2907 135.325 14.1626 136.028 14.7856C136.338 15.0986 136.807 15.2519 137.277 15.3318C135.714 17.0472 138.446 17.2804 137.04 18.9192C138.29 19.5421 138.133 20.7112 137.51 21.6472C137.587 22.0369 138.37 21.8804 138.68 22.1168C136.884 22.8164 138.213 23.4425 137.354 24.0654C138.993 24.8449 139.462 26.6369 138.523 28.5089C140.475 29.4449 137.823 32.9556 140.865 33.3453C140.865 33.735 139.539 34.2014 139.929 34.5911C141.255 34.9808 140.708 36.3065 141.411 37.0892C141.568 37.2425 142.271 37.2425 142.504 37.399C142.894 37.6322 142.504 38.2583 143.284 38.1785C145.316 37.2425 146.409 36.4631 147.032 35.6836C147.578 34.8275 147.655 33.9682 147.578 33.1121C148.904 31.7065 148.591 30.7706 148.827 29.6812C148.984 28.8219 149.294 28.0425 149.45 27.1832C149.84 25.4678 149.997 23.8322 150.856 22.1935C151.013 20.4014 151.479 18.5294 151.716 16.501C151.792 16.0346 151.792 15.565 151.792 15.0986C151.869 13.5365 153.042 11.9776 153.118 10.6519C153.198 9.79583 151.013 9.09305 154.444 7.84403C155.07 9.09305 154.991 10.2622 154.914 11.4314C154.837 12.6006 154.757 13.7729 155.304 15.0187C155.147 15.3318 154.681 15.8781 154.601 16.2678C154.524 16.501 155.147 16.501 155.227 16.6575C155.46 18.0599 154.291 20.3215 155.93 21.0243C154.601 21.8037 155.46 22.4267 155.93 22.9729C153.898 23.9089 156.32 24.1421 156.32 24.2986C156.32 24.2986 155.617 24.7682 155.537 24.8449C154.681 25.7042 155.773 27.4196 155.93 27.886C155.93 27.886 155.85 27.9626 155.773 28.1192C155.694 28.2757 155.617 28.4322 155.617 28.5089C155.617 29.8346 155.537 32.4093 156.553 33.3453C156.786 33.5785 157.722 34.1247 158.505 33.8117C159.285 33.6551 159.988 33.3453 160.454 33.1121C160.924 32.8757 161.314 32.5658 161.627 32.2528C162.173 31.6299 162.406 31.0037 162.72 30.5374C163.732 28.8219 164.279 27.3397 164.825 25.7042C164.982 25.3112 165.371 24.6883 165.451 24.3785C165.605 23.7524 165.371 23.2061 165.528 22.5832C165.685 21.9603 166.308 21.2575 166.544 20.6346C166.934 19.6187 166.621 18.5294 166.854 17.5136C167.09 16.6575 168.027 15.7215 168.26 14.8622C168.416 14.3958 168.337 13.9262 168.493 13.4599C168.806 12.2907 169.119 10.5753 169.819 9.6393C169.742 8.78 168.883 7.76736 171.458 7.30097C172.787 8.93653 170.992 11.3547 172.864 12.9136C173.021 13.3033 172.241 13.5365 171.538 13.8496C171.615 14.2393 172.398 14.1626 172.161 14.7856C170.212 16.2678 171.771 17.5136 171.928 19.1524C171.615 19.6986 170.992 20.165 170.758 20.7112C170.602 21.414 172.084 21.1808 171.928 21.8804C170.132 22.8962 171.382 23.7524 171.458 24.5318C171.615 25.6243 170.445 27.0299 172.005 27.4962C171.068 28.199 171.068 29.4449 171.615 30.3042C171.928 30.7706 172.631 31.3168 173.567 31.1603C177.078 30.6939 177.312 29.0551 177.938 28.0425C178.171 27.7294 178.015 27.4962 178.251 27.1832C178.641 26.6369 179.031 26.0939 179.344 25.5476C179.577 25.2346 180.043 24.8449 180.123 24.6117C180.28 24.2219 179.89 23.8322 179.967 23.4425C180.123 22.9729 180.903 22.4267 181.136 21.9603C181.762 20.7112 182.152 19.4654 182.619 18.3729C183.012 17.3603 183.012 16.501 183.245 15.565C183.402 15.1753 183.948 14.8622 184.104 14.4725C184.494 13.3832 184.258 12.1342 184.727 11.0417C184.884 10.6519 185.507 10.3421 185.587 9.95236C185.897 9.01639 185.041 8.08042 186.833 7.14444C186.21 6.44166 186.29 5.50569 188.709 5.11597C189.565 8.39028 187.926 12.2907 188.395 15.4883C187.772 15.7982 187.616 15.9547 187.536 16.4243C187.226 17.5136 187.379 18.9192 187.772 19.7753C186.21 20.7112 187.303 21.8804 187.146 23.2061C186.99 24.3785 186.133 25.4678 186.523 26.3271C186.756 26.7935 187.926 27.2631 188.006 27.7294C189.332 27.5729 190.971 27.4962 191.051 27.0299C191.75 26.7168 191.83 26.0939 192.766 25.9374C192.377 25.0781 193.469 24.7682 193.156 23.9089C194.872 23.3626 194.639 22.1168 195.811 21.3374L195.731 20.0117C196.824 19.0757 197.604 17.9832 197.527 16.5776C197.917 16.1112 198.776 15.8781 198.933 15.3318C199.556 13.9262 200.102 12.4472 200.649 11.0417C201.272 9.6393 202.055 8.31361 203.224 7.06458C202.601 6.20847 202.678 5.11597 203.224 4.33653C203.537 3.9468 204.24 3.32389 205.253 3.40055C208.141 3.71361 206.502 4.41319 206.189 5.11597C207.672 7.30097 205.486 10.1057 206.502 11.7444C205.176 12.4472 205.176 13.4599 205.02 14.3958C204.94 15.0986 205.096 15.7215 204.94 16.4243C204.786 17.1239 204.083 17.9832 203.927 18.7626C203.77 19.6986 204.16 20.8678 203.847 21.8037C203.77 22.1935 203.147 22.5065 202.911 22.9729C202.678 23.5192 203.067 24.0654 202.444 24.4551C202.911 24.6883 203.147 25.0014 203.77 25.1579C203.927 25.4678 203.147 26.1706 204.63 26.014L206.815 26.0939C208.531 25.5476 208.531 24.5318 209.154 23.5958C210.093 22.35 211.576 21.3374 211.653 19.9318C212.356 19.6986 212.356 19.229 213.135 18.9958C213.215 18.6061 212.356 18.4496 212.745 17.9832C214.931 16.0346 215.947 13.5365 216.647 10.8085C217.976 10.3421 218.132 9.32625 218.286 8.39028C218.442 7.4543 218.599 6.44166 220.081 6.05194C220.628 8.23375 220.238 10.029 219.615 11.8211C218.989 13.5365 218.132 15.1753 217.586 16.814C217.116 18.2164 217.35 19.6986 216.727 20.9444C216.493 21.414 215.867 21.8037 215.711 22.1935C215.008 23.7524 214.541 25.6243 216.18 27.3397C217.586 27.4196 218.522 27.4962 219.145 27.2631C219.771 27.0299 220.081 26.7168 220.315 26.2472C221.954 24.6883 223.593 23.0528 224.609 21.3374C225.155 20.4014 225.312 19.229 225.935 18.6061C227.341 17.2037 227.887 15.6449 229.056 14.1626C230.149 12.6804 231.555 11.1215 231.868 9.32625C232.724 9.09305 233.114 8.5468 233.584 8.08041C233.741 6.98791 233.661 5.81875 236.003 5.97528C237.409 6.98791 236.629 7.84403 236.472 8.78C235.926 12.0575 233.817 14.9421 233.741 17.5935C231.788 18.5294 232.415 19.9318 232.101 21.101C232.022 21.4907 231.009 21.5706 231.009 21.8037C231.009 21.8037 231.788 22.1935 231.788 22.4267C232.101 23.4425 230.852 23.6757 230.539 24.2219C230.386 24.4551 230.932 24.9215 230.852 25.1579C230.696 25.7808 229.759 26.4037 229.603 27.0299C229.526 27.4196 229.839 27.886 229.839 28.2757C229.839 29.5247 228.667 30.6939 230.462 32.1761C231.868 32.4093 232.335 32.2528 233.114 32.1761C234.6 31.9397 235.456 31.3168 236.083 30.7706C236.316 30.5374 236.003 30.1476 236.239 29.9144C236.392 29.7579 237.019 29.9144 237.252 29.6014C237.409 29.3682 237.252 29.0551 237.409 28.7453C240.14 27.9626 240.53 25.6243 242.639 24.3785C243.495 21.9603 246.307 20.9444 247.163 18.4496C249.272 18.1397 248.959 16.5776 249.975 15.565C250.441 15.1753 251.378 14.9421 251.847 14.4725C252.86 13.4599 252.94 12.2108 254.189 11.8211C254.499 11.7444 255.435 11.3547 256.295 11.7444C257.621 12.9935 256.608 14.0828 256.218 15.2519C255.828 16.5776 255.125 17.75 255.515 18.9192C253.33 20.0883 253.876 23.3626 252.004 25.2346C251.924 25.7042 252.627 26.1706 252.55 26.6369C252.004 27.0299 250.988 26.95 250.365 27.3397C251.144 29.3682 248.882 30.6939 248.802 32.486C248.802 32.799 249.349 33.1887 249.429 33.5785C249.505 34.4378 248.882 34.671 249.349 35.1374C249.895 35.6069 249.662 35.9967 249.895 36.3864C251.767 37.0892 252.47 36.9326 253.799 37.1658C254.812 36.3065 256.062 35.4504 256.998 34.8275C257.231 34.671 256.998 34.2812 257.231 34.2014C257.467 34.1247 257.934 34.2812 258.247 34.0481C258.793 33.5785 258.793 32.8757 259.34 32.3294C259.573 32.0962 260.276 31.9397 260.509 31.7065C261.992 30.614 262.851 29.135 263.554 27.6528C264.1 27.4196 265.037 27.4962 265.27 27.1065C265.66 25.5476 266.442 24.2986 268.548 24.2219C268.938 25.1579 267.689 25.5476 267.142 26.4037C266.596 27.2631 266.676 28.5887 265.896 29.3682C265.193 30.1476 263.474 30.614 264.334 32.0196C263.554 32.4093 263.008 33.1887 262.538 34.0481C261.525 35.8401 260.196 37.7887 261.682 39.6607C263.321 40.4401 263.867 40.2836 265.35 41.0662C266.049 42.0789 264.724 42.935 266.909 43.9508C269.174 45.0401 269.874 44.2607 270.734 44.0275C271.75 43.7144 272.606 43.1714 273.309 42.7018C274.088 42.2354 275.104 41.9224 275.964 41.3761C276.82 40.8299 277.133 39.8939 277.993 39.4275C278.772 38.9579 280.022 38.8812 280.645 38.335C280.958 38.0219 281.035 37.4789 281.271 37.1658C281.894 36.3864 283.063 35.8401 284.003 35.1374C285.562 33.9682 286.888 32.1761 288.684 31.6299C289.073 31.4733 288.84 30.5374 290.403 31.6299C291.026 32.6425 289.776 32.6425 289.7 32.799C289.543 33.1121 290.869 33.735 290.246 33.8915C288.607 33.6551 288.764 34.8275 288.217 35.4504C287.748 35.9967 286.578 36.2299 286.265 36.8528C286.188 37.0892 286.578 37.399 286.342 37.7121C285.795 38.4149 284.782 38.8812 284.236 39.584C284.08 39.8172 284.469 40.1303 284.393 40.2836C284.313 40.5967 283.846 40.3635 283.69 40.6733C282.91 41.7658 281.894 42.3121 281.348 43.0149C280.255 44.2607 280.335 45.5864 280.725 46.9121C284.469 49.3303 284.939 47.7714 285.952 46.8354C287.904 46.7587 288.217 45.3532 289.23 44.8868C290.09 44.5738 290.869 44.184 291.572 43.7943C292.588 43.0915 293.211 41.9224 294.147 41.456C294.46 41.2994 295.163 41.456 295.397 41.2196C295.786 40.9097 295.71 40.4401 296.1 40.0504C296.646 39.584 297.815 39.4275 298.518 38.9579C299.768 38.1785 300.78 37.3224 301.483 36.2299C302.889 36.3065 304.215 34.9808 304.528 34.3579C305.541 34.1247 305.541 32.5658 307.883 34.0481C307.806 35.8401 305.541 36.2299 304.295 37.4789C304.138 37.6322 304.448 38.0219 304.448 38.1785C304.372 38.4149 303.825 38.1785 303.749 38.335C302.733 39.584 301.64 40.0504 300.78 40.9864C300.47 41.2994 300.391 41.7658 300.001 42.0789C298.751 43.0915 296.879 43.871 295.786 44.9635C295.24 45.5097 295.24 46.3658 294.537 46.7587C294.147 46.9919 293.368 46.9121 293.134 47.2251C292.821 47.5382 293.055 48.1611 293.055 48.1611C293.055 48.3176 292.588 48.0844 292.588 48.0844C292.275 48.784 292.118 49.2536 292.118 49.5635C292.195 50.4228 291.885 50.4994 293.368 51.7485C296.02 53.2307 296.02 51.7485 297.112 51.1256C297.502 50.8892 298.128 50.8125 298.518 50.656C298.988 50.4994 299.141 49.6433 300.314 50.4994C299.298 52.9176 295.24 52.6046 296.409 55.8022C297.972 57.0513 298.442 56.7382 299.611 57.5176C302.889 55.4924 307.024 54.0868 309.522 51.5919C309.992 51.7485 310.382 51.7485 310.695 51.6686C311.941 51.2789 312.957 50.3429 314.206 49.72C315.456 49.0971 316.155 47.6149 318.264 48.7074C319.357 50.5793 317.328 49.4868 316.625 49.9532C316.625 51.2789 314.986 51.0457 313.97 51.6686C312.957 52.3714 312.097 53.4639 311.631 54.5564C310.928 54.32 310.695 54.3999 310.382 54.6331C308.586 55.6457 307.26 57.6742 306.87 59.6228C308.196 60.9485 308.819 60.9485 310.069 62.1975C311.238 62.354 311.631 61.105 313.97 63.29C314.363 64.1461 313.19 64.4592 313.816 65.4718C315.219 67.0307 315.922 67.1872 317.015 68.0465C317.951 67.8101 319.124 67.9667 319.747 67.1872C321.542 68.0465 322.712 67.89 324.741 69.4489C326.07 68.6694 328.332 69.9185 329.501 68.826C331.453 70.3849 331.767 68.2797 333.716 70.2283C335.278 72.6465 332.936 71.9438 332 72.4133C331.064 72.8031 330.751 73.8956 329.501 73.3493C328.878 73.5058 329.658 74.5185 329.268 74.8283C329.035 75.2213 328.019 73.5825 327.862 74.2054C327.472 74.9082 326.536 74.2853 326.146 75.0647C324.664 74.5951 320.839 75.0647 323.025 77.8726C324.584 79.7414 325.523 79.3517 326.536 79.5881C326.693 79.5881 327.239 80.0544 327.396 80.0544C327.629 80.0544 327.629 79.5881 327.942 79.5881C328.019 79.5881 328.565 79.9778 328.798 80.0544C330.048 80.4442 330.674 80.1311 331.843 81.0671C332.936 81.9264 332.779 80.8339 333.326 81.0671C333.952 81.9264 334.262 82.7825 335.045 83.2521C335.198 82.3161 336.447 83.1722 336.684 83.1722C337.697 83.0189 338.243 81.6133 339.649 83.875C338.166 83.5651 338.01 85.2007 337.074 85.8236C335.981 86.5264 333.952 86.1367 334.498 88.3217C335.591 89.9572 336.214 90.1904 336.917 90.5035C337.697 90.8165 338.633 92.1422 339.336 92.1422C339.805 91.2829 340.352 90.66 341.834 92.1422C341.678 92.7651 342.691 93.0782 343.004 93.6244C343.237 94.9501 341.991 95.1833 342.144 96.3525C342.771 97.2086 343.473 97.7549 343.63 98.6908C344.33 99.1604 345.189 99.4703 346.205 99.86C347.141 100.173 347.764 99.3936 348.544 101.186C348.467 102.901 346.282 101.342 345.502 101.968C345.033 102.278 345.189 103.214 345.033 103.837C347.688 107.971 349.404 106.335 351.432 106.568C352.682 107.971 353.618 106.725 354.791 107.971C355.883 107.894 356.819 106.488 358.379 109.843C358.535 111.558 356.273 109.22 356.43 110.855C357.519 112.651 357.442 112.727 358.222 114.209C359.551 114.286 360.877 114.523 362.283 115.458C362.826 114.053 364.076 114.599 364.935 114.756C366.497 115.069 367.667 114.286 369.149 116.704C368.76 116.938 368.526 117.251 368.603 118.03C368.133 117.953 367.51 116.394 367.044 117.094C366.418 117.64 365.715 116.704 365.168 117.407C364.702 117.797 366.341 118.889 365.795 119.279C365.405 119.356 365.012 119.512 365.012 120.135C365.558 122.087 365.795 122.164 366.651 124.192C366.184 124.269 365.795 124.502 366.418 125.828C367.354 127.933 368.133 129.105 368.993 129.495C369.852 130.431 370.788 132.223 371.725 132.146C372.271 134.251 372.817 133.625 373.287 134.251C373.91 135.654 374.77 136.433 375.549 137.682C376.252 138.775 377.188 139.708 377.422 141.816C377.578 143.218 376.172 140.723 376.252 142.126C376.642 143.921 377.112 143.841 377.422 145.4C377.811 145.946 378.671 145.713 378.514 147.195C378.124 148.441 377.658 146.806 376.955 147.039C376.329 146.103 376.409 145.167 375.939 144.231C375.549 144.387 375.393 143.998 375.08 142.905C374.533 141.816 374.846 143.921 374.3 142.595C373.677 140.021 372.584 141.426 372.428 139.085C371.881 138.305 372.194 139.474 371.648 139.318C371.178 138.538 370.788 136.2 370.165 137.213C370.712 139.474 371.412 139.241 372.038 140.177C372.661 141.113 373.287 142.595 373.91 143.218C374.846 144.467 375.706 145.48 376.485 147.585C376.719 148.598 377.265 147.508 377.501 148.911C377.891 149.923 378.281 150.783 378.594 151.719C378.984 152.575 379.294 153.434 379.607 154.37C380.31 156.162 380.933 158.111 381.479 160.762C382.339 162.557 383.042 165.598 383.901 167.47C383.978 168.406 383.745 168.796 383.901 169.965C384.448 169.965 384.368 171.681 384.601 172.383C385.147 174.255 386.007 175.188 386.476 177.297C386.786 177.763 387.179 178.153 387.413 178.699C387.726 179.245 387.879 180.025 387.959 181.274C389.285 180.414 389.518 185.874 390.534 184.235C391.081 180.025 389.988 181.583 389.831 179.712ZM22.7033 138.695C23.3296 137.136 23.0931 138.538 23.6395 138.462C23.3296 140.254 22.7033 139.164 22.7033 138.695ZM24.5789 123.413C24.3424 121.851 21.7672 123.333 22.9398 120.058C24.2658 119.436 26.1381 119.512 26.4512 121.384C25.825 122.007 25.2019 122.866 24.5789 123.413ZM28.8699 139.944C29.2597 138.928 29.7294 139.944 30.1192 139.787C29.6495 141.736 29.183 140.021 28.8699 139.944ZM15.2108 156.242C15.837 155.929 15.837 156.942 16.0703 157.411C15.6805 158.504 14.9009 157.644 15.2108 156.242ZM20.3645 159.127C20.7543 157.644 21.3774 158.111 21.8471 157.331C21.8471 158.034 21.9237 158.58 22.0803 158.893C21.4573 159.829 21.3007 158.504 20.3645 159.127ZM10.6066 187.276C8.811 186.73 6.23574 188.055 4.51996 187.276C4.05028 187.043 3.19399 187.199 3.19399 185.094C4.98964 185.171 5.61269 184.625 7.40834 184.625C7.32846 183.612 7.40834 182.363 6.93866 182.519C7.64159 181.35 9.04743 182.363 8.89087 185.171C9.75036 185.717 10.2168 184.002 10.9198 186.263C10.8431 186.73 10.7632 187.199 10.6066 187.276ZM12.2457 200.613C12.0125 198.818 12.7154 198.741 13.0253 199.52C13.3385 201.236 12.5589 200.376 12.2457 200.613ZM13.3385 186.81C13.4183 185.717 14.0414 186.576 14.3545 186.34C14.2746 187.666 13.495 187.509 13.3385 186.81ZM13.5717 200.067C13.5717 198.504 13.5717 197.102 14.198 196.946C14.7443 198.584 14.2746 200.22 13.5717 200.067ZM14.9776 187.822C15.2907 186.886 15.9936 186.81 16.6167 187.043C17.2397 187.276 17.9426 187.822 18.3324 188.368C18.2557 188.835 18.1791 189.225 18.0225 189.381C17.0863 188.525 15.9137 188.602 14.9776 187.822ZM16.0703 199.364C15.9936 197.805 16.8499 198.428 17.3196 198.271C17.3963 200.143 16.54 199.83 16.0703 199.364ZM18.3324 202.248C18.0225 202.328 17.9426 201.702 17.6327 201.782C17.4761 200.22 18.2557 199.91 18.5689 200.689C18.5689 201.392 18.3324 201.546 18.3324 202.248ZM24.5789 200.3C23.0931 200.456 21.6106 200.689 20.5978 199.131C19.8182 199.83 19.1152 200.613 18.3324 198.741C18.0992 196.556 19.1152 198.195 19.505 198.195C19.8182 198.195 19.8182 197.648 20.1281 197.648C21.6106 197.725 23.4063 199.051 24.8121 199.287C24.8121 199.753 24.8121 200.143 24.5789 200.3ZM28.3235 202.871C28.7932 202.405 28.7932 203.497 29.183 203.261L29.2597 204.667C28.8699 204.667 28.4034 204.587 28.3235 202.871ZM48.146 288.885C46.9766 287.403 47.3664 286.623 48.0693 287.169C48.3825 287.949 48.6924 288.728 48.146 288.885ZM56.498 282.723C56.0316 282.803 55.5619 283.892 54.6257 282.256C55.4852 281.633 56.1849 282.023 56.5779 280.931C56.9677 281.633 57.3575 281.867 57.5908 281.943C58.0605 283.192 57.0444 282.646 56.498 282.723ZM70.0773 296.449C69.4542 296.916 69.3744 297.775 68.6746 298.241C67.3455 299.021 65.4731 298.944 64.2238 299.49C63.834 297.305 66.4093 296.449 68.0484 296.996C68.2049 295.2 70.3137 295.747 71.17 294.421L72.1062 295.433C71.9528 296.369 70.7035 295.98 70.0773 296.449ZM72.4193 295.124C71.5598 294.264 71.6397 293.875 72.0295 293.641C73.1989 294.734 73.0455 295.433 72.4193 295.124ZM67.2688 315.865C67.4253 315.475 67.8151 315.475 68.2049 315.632C69.9207 317.191 68.7513 317.737 67.2688 315.865ZM85.6886 304.947C87.0146 306.039 85.6087 306.429 84.7524 305.26C84.9857 304.87 85.2956 304.793 85.6886 304.947ZM88.4971 309.237C89.0435 308.77 88.5738 307.988 89.5131 308.144L90.1362 308.77C91.542 309.86 89.9029 309.55 89.5898 309.393C89.0435 310.096 88.4204 310.639 87.5609 310.952C85.6087 311.655 82.9568 311.888 80.848 312.668C79.0523 313.29 77.7264 314.463 75.2278 314.306C74.4482 314.929 73.512 315.242 72.5759 315.475C71.6397 315.709 70.6236 315.865 69.7674 316.255C69.1411 314.306 70.6236 313.993 71.7962 313.527C72.1861 313.37 72.5759 313.214 72.9657 313.057C73.2788 312.981 74.0584 313.214 74.3715 313.057C76.0873 312.354 77.1033 310.796 79.2888 311.498C79.1322 310.562 79.8352 311.109 80.225 310.562C83.1133 310.249 85.3755 308.77 88.4971 309.237ZM79.0523 294.188C79.2888 294.498 79.3655 294.421 79.4422 294.421L79.9885 295.124C79.8352 295.124 79.9885 295.357 80.1451 295.59L79.9118 295.823C79.6786 295.513 79.5987 295.59 79.522 295.59L78.9757 294.887C79.1322 294.887 78.9757 294.654 78.8191 294.421L79.0523 294.188ZM60.0095 262.294C59.7762 262.138 59.543 261.981 59.3864 262.138C59.3066 261.748 59.2299 261.435 58.9167 260.889C59.2299 260.499 59.9328 261.592 60.0095 262.294ZM38.2348 181.583C38.2348 182.286 38.0782 182.363 38.0015 182.909C37.6117 182.989 37.5319 182.206 37.1421 181.973C37.2986 181.037 38.0015 181.817 38.2348 181.583ZM38.6246 187.356C38.6246 187.822 38.6246 188.212 38.6246 188.682C37.845 188.212 36.8321 188.368 36.4391 186.886C36.0493 187.119 35.5828 187.746 35.2697 186.886C36.2059 185.794 37.845 186.73 38.6246 187.356ZM31.0554 179.478C31.6017 179.165 31.6784 179.948 32.0714 180.025C31.9915 181.427 30.9787 180.961 31.0554 179.478ZM31.9149 190.084C31.9915 191.02 31.2119 191.566 31.0554 190.55C30.8988 188.915 31.835 189.771 31.9149 190.084ZM45.4941 223.459C46.197 225.098 47.3664 223.773 48.146 225.018C47.9128 226.967 45.7273 227.28 44.6346 226.344C44.0115 226.344 43.6217 226.657 43.2319 227.123C41.6695 225.798 39.6406 226.657 37.2986 226.267C34.8799 225.878 32.1481 224.862 29.5728 223.693C28.4801 223.226 27.7005 223.07 26.6078 222.837C26.4512 222.837 25.9048 223.536 25.7483 221.977C26.9976 221.977 28.0104 221.274 29.2597 221.274C29.7294 221.274 30.1192 221.821 30.5857 221.977C31.0554 222.057 31.4452 221.664 31.9149 221.744C32.3047 221.821 32.851 222.29 33.2408 222.447C34.177 222.68 35.0365 222.6 36.1292 222.757C37.5319 222.99 39.4841 222.6 41.0465 223.07C41.3564 223.146 41.6695 223.693 41.9028 223.773C42.7623 224.082 43.4652 223.616 44.3247 224.552C45.181 224.942 44.7145 223.303 45.4941 223.459ZM40.7334 198.271C40.7334 199.131 39.8739 198.428 40.187 200.067C40.9666 200.846 41.6695 201.625 42.6856 201.625C42.6856 202.015 42.7623 202.482 42.7623 202.951C40.5768 204.044 38.5479 203.341 36.3624 203.108C35.8928 203.028 35.4263 203.341 35.0365 203.261C34.177 203.028 33.2408 202.092 32.3813 201.702C31.525 201.312 30.5857 201.625 29.7294 200.533C29.4163 198.974 30.1959 199.364 30.2758 199.131C30.7422 198.271 32.4612 199.597 33.4741 198.428C34.0204 198.351 34.3336 198.894 34.7234 199.287C35.2697 199.597 34.9566 198.038 35.503 198.351C36.0493 199.91 37.3785 198.741 38.1581 199.52C38.861 199.83 38.7045 198.428 39.0943 198.115C39.564 198.038 40.3436 197.492 40.7334 198.271ZM44.871 96.509C44.0882 97.2086 43.7783 96.9754 43.6217 96.3525C44.871 94.1675 44.9477 95.8063 44.871 96.509ZM38.3147 92.0624C39.0176 90.5833 39.4074 91.596 39.7173 91.6726C40.5768 91.9857 41.1998 92.9217 41.8261 93.4679C42.1392 93.4679 41.8261 94.0142 41.9827 94.1675C41.7462 94.7138 41.513 94.9501 41.3564 94.9501C40.6535 95.3399 39.7173 94.7936 39.0943 94.1675C38.3913 93.7011 37.2986 93.3881 38.3147 92.0624ZM43.2319 151.639C44.7145 151.639 46.1171 153.201 46.8201 154.213C46.6635 154.993 46.5868 155.616 46.7434 155.929C46.6635 156.632 46.4302 156.632 46.3536 157.178C44.6346 155.852 43.7783 153.434 41.7462 152.655C42.1392 151.172 42.7623 151.639 43.2319 151.639ZM43.9317 161.934C44.6346 161.855 45.1043 161.621 45.7273 161.388C46.5069 162.088 47.3664 162.714 47.8361 163.883C47.7562 164.273 47.5997 164.196 47.4463 164.273C46.8201 165.365 46.8201 163.803 46.3536 163.65C43.7783 164.586 40.81 164.196 38.0782 163.26C35.8161 162.481 33.2408 162.714 31.2886 161.778C30.9787 161.621 30.4323 161.388 30.1959 161.155C30.0393 160.998 29.4163 160.842 29.8061 159.673C32.3047 159.673 34.7234 160.372 37.0654 160.998C39.3275 161.545 41.5928 162.088 43.9317 161.934ZM40.6535 150.549C40.8899 149.377 41.1232 148.678 41.513 148.911C41.513 149.3 41.4363 149.923 41.2797 150.703L40.6535 150.549ZM44.3247 133.472C42.9955 133.392 41.8261 132.3 40.6535 131.677C40.2637 131.443 39.7173 131.833 39.2508 131.677C37.3785 131.054 34.9566 129.572 32.851 128.479C32.3047 128.169 31.6017 127.856 31.2886 127.39C31.0554 127.077 30.4323 126.454 30.8221 125.128C33.1641 124.972 36.7523 125.674 39.2508 127.233C39.564 127.39 39.7173 127.933 40.0304 128.013C40.5768 128.169 41.2797 127.623 41.8261 127.7C43.0754 127.779 43.6984 129.105 44.7912 129.338C44.4014 130.664 44.0115 129.961 43.6984 131.367C44.2448 131.757 44.871 132.146 45.181 132.846C44.871 133.392 44.5579 132.769 44.3247 133.472ZM50.2548 113.896C49.6317 114.209 49.865 113.04 49.3953 112.964C49.2388 112.964 48.6157 113.587 48.0693 113.353C47.2897 112.964 46.8201 112.028 46.0404 111.325C45.6506 111.012 45.0244 111.012 44.7145 110.622C44.4014 110.312 44.4014 109.53 44.0882 109.22C43.855 109.063 43.3086 109.376 43.1521 109.296C42.529 109.063 42.2926 107.971 41.7462 107.504C38.5479 104.93 34.2537 104.696 34.6467 98.7707C35.4263 97.3651 35.8928 97.2885 36.2059 97.6015C36.519 97.9114 36.7523 98.6142 37.0654 98.8474C38.3147 99.7833 40.187 100.406 40.6535 101.888C40.5001 102.901 41.0465 101.888 41.513 101.732C41.7462 102.981 42.4491 103.371 43.3853 103.294C43.4652 104.696 44.478 104.54 45.0244 105.243C45.181 105.476 45.181 106.179 45.3375 106.488C45.9606 107.348 46.8201 107.814 47.4463 108.673C48.2259 109.843 49.0055 111.012 49.5519 112.338C50.2548 112.028 50.7245 112.338 50.8778 113.04C50.6446 113.663 50.4114 113.82 50.2548 113.896ZM50.8778 118.656C51.4242 118.656 51.1143 119.669 51.7373 119.589C51.1143 120.058 50.0982 120.372 50.8778 118.656ZM50.9577 127.39C51.2676 125.828 51.5808 127.39 51.8939 126.374C52.4403 127.153 52.9866 126.374 53.2997 127.39C52.5968 129.105 50.6446 128.559 50.9577 127.39ZM57.201 108.36C55.875 107.971 53.3764 107.661 52.9866 105.476C51.7373 105.086 50.1781 104.696 49.1621 103.371C48.9288 103.058 47.9128 103.138 49.0055 101.655C49.7084 101.109 49.3186 102.202 49.4752 102.511C51.191 104.54 55.2488 104.93 57.2777 106.878C56.8112 107.661 57.201 107.814 57.201 108.36ZM60.0894 90.8932C59.1532 92.6086 57.9806 91.8292 59.2299 90.3469C59.4631 90.9731 60.3226 89.9572 60.0894 90.8932ZM77.1033 59.3896C76.9468 59.1564 76.2438 59.6228 76.2438 59.2331C76.2438 59.1564 76.8669 58.4536 76.8669 58.4536C76.6336 58.1438 75.7742 58.1438 75.4642 57.6742C75.1511 57.1279 74.9179 56.4283 74.7613 55.569C75.9307 54.2433 75.9307 55.4924 75.6975 55.8022C75.9307 56.2718 76.8669 55.4125 77.1033 55.8821C76.3205 58.0639 78.8191 58.1438 78.7424 59.7026C78.1961 60.2489 78.0395 60.169 77.5698 60.5588C77.0235 60.5588 77.2599 59.7026 77.1033 59.3896ZM78.506 60.8718C81.6276 58.6868 78.6625 62.9003 80.6148 62.354C78.899 63.6797 77.9596 62.041 78.506 60.8718ZM272.216 24.8449C273.309 26.2472 271.983 26.4836 271.593 27.3397C270.031 26.5603 271.67 25.0781 272.216 24.8449ZM270.734 28.2757C269.174 27.7294 269.408 27.0299 270.187 27.1065C271.047 27.5729 271.826 28.3556 270.734 28.2757ZM330.284 76.7003C329.581 75.5311 330.674 75.1414 331.923 76.5469C330.83 76.1572 331.22 76.8568 330.284 76.7003ZM339.336 72.1801L338.4 71.0876C338.087 70.0718 339.179 69.8386 340.429 71.3208L339.336 72.1801ZM342.847 69.2924L340.898 70.9311C339.336 69.3722 338.633 69.9951 336.684 67.3438C337.15 65.8615 340.272 65.8615 342.847 69.2924ZM340.352 82.4726C340.115 81.6932 341.365 82.4726 341.911 82.5493C343.004 84.0315 341.365 84.4213 340.352 82.4726ZM359.551 109.376C359.082 108.127 358.768 108.36 358.302 107.348C358.848 107.191 359.471 107.191 360.331 109.063L359.551 109.376ZM370.632 126.297C371.022 127.153 371.491 125.674 371.881 127.39C371.412 127.7 371.022 127.779 370.632 126.297ZM386.476 172.227C386.163 170.821 385.85 169.576 385.46 168.406C385.071 167.237 384.604 166.221 384.134 165.365C383.821 163.65 383.432 162.481 383.042 161.232C382.808 160.609 382.652 159.983 382.419 159.36C382.182 158.657 381.949 157.957 381.792 157.098C381.479 156.395 381.246 155.616 380.856 155.772C380.78 155.306 380.7 154.76 380.623 154.29C380.933 154.057 381.169 154.29 381.403 154.68C381.636 155.07 381.636 155.696 381.792 156.162C382.026 156.708 382.572 157.411 382.808 158.034C382.885 158.267 382.885 158.813 382.965 159.047C383.432 160.063 383.665 160.919 384.134 161.388C384.681 164.429 385.617 165.442 386.163 168.25C386.397 168.017 386.786 167.547 387.1 167.627C387.413 167.627 387.802 168.093 387.802 169.652C387.179 170.198 386.943 167.704 386.553 169.263C386.553 170.901 387.179 169.889 387.333 170.745C387.489 172.227 388.116 171.994 388.116 174.255C387.489 174.019 387.256 172.227 386.476 172.227ZM388.505 176.204C389.831 176.361 388.818 180.101 388.505 176.204Z"
            fill="black" />
    </g>
</svg>