<svg version="1.0" xmlns="http://www.w3.org/2000/svg" viewBox="0 0 1280 1271">
  <path d="M569.7 4.7c-4.7.5-7.7 4.7-7.7 10.9 0 4.1-.1 4.2-4.2 4.8-2.8.5-4.4.3-4.9-.5-1-1.7-22.9 1.8-22.9 3.6 0 .7-1.2 1.6-2.6 1.9-1.4.4-3.8 1.9-5.2 3.4-1.5 1.6-3.5 3.1-4.3 3.4-1.4.6-1.3 2.3 1.7 15.4 1.8 8.2 3.2 14.9 3.1 15-.8.7-8.2 2.2-8.9 1.8-.4-.3-.8-1.4-.8-2.5s-.7-2.2-1.5-2.5c-.8-.4-1.5-1.4-1.5-2.4s-.7-2.5-1.5-3.3c-.7-.8-1.7-2.6-2.1-4.1-.3-1.4-1-2.6-1.4-2.6-.4 0-2.2-1.3-4-3-2.9-2.7-5.9-3.3-4.4-.9.3.5 0 1.7-.8 2.6-.7.9-1.3 3.6-1.3 6.1v4.4L485 59c-5.2 1.5-9.7 2.6-9.9 2.4-.2-.2-3.4-10.1-7.1-22.1-5.3-17.2-7.1-21.8-8.4-21.7-.9.1-1.9-.8-2.2-2.2-.7-2.7-1.2-2.8-4.9-1.4-2.4.9-2.7.7-3.7-2.1-1-3-1.3-3.1-5.1-2.5-2.3.4-6.1 1.6-8.5 2.6-4.3 1.9-4.4 2.2-3.9 5.4.5 3.1.3 3.6-2.4 4.5-2.5.8-2.8 1.3-2 3.3.6 1.6.4 2.6-.6 3.3-1.2.9-.5 3.7 4.6 17.3 3.4 9 6.1 17.1 6.1 18.1s.7 3.6 1.6 5.6c1.3 3.1 1.3 3.9.2 4.6-2 1.3-3.5 1.1-4.2-.6-.3-.8-1-1.4-1.6-1.3-.6.2-3.2-5.1-5.8-11.6l-4.7-11.9-4.2-.4c-3.5-.3-4.6.1-7.3 2.7-2.2 2.1-2.9 3.6-2.5 5 .5 1.4-.2 2.3-2.4 3.5-3.6 1.8-3.5 1.5-1.6 6.2 1.9 4.4 1.9 5.4 0 2.9-1.3-1.7-1.5-1.8-6 0-2.6.9-4.9 2.4-5.2 3.1-.3.8-2.3 2.3-4.5 3.4-3.3 1.7-3.9 2.4-3.3 4.2.4 1.2.7 3.1.6 4.1 0 1 .9 3.6 2 5.7 2.4 4.9 2.4 5.3-.6 6.7-2.4 1.1-2.6.9-6-5.9-2.1-4-4-6.7-4.6-6.3-.6.3-2.3.7-3.9.8-1.7.1-4 1.4-5.5 3.1-2.3 2.3-2.5 3.2-1.6 5.1.9 2 .7 2.5-1.8 4-1.6 1-2.7 2.3-2.5 2.9.3.6-.2 1.7-1 2.4-1.6 1.4-1.8 1.1-11.6-16.9-8.3-15.1-14.6-23.4-18.7-24.7-6.2-1.9-7.3 1.7-3.2 9.9 1.7 3.3 2.8 6.2 2.5 6.5-.5.5-3.6-2.5-5.1-5-.7-1.2-1.4-1.4-2.4-.8-1.3.8-1.3 1.4-.2 3.8.8 1.5 1.5 6.7 1.7 11.5.2 7.2.7 9.3 2.8 12.7 1.4 2.2 2.6 4.3 2.6 4.5 0 .3-2 1.9-4.5 3.6-3.9 2.7-4.6 2.9-5.1 1.5-.4-.9-1.2-1.4-2-1.1-.7.3-2.1-.8-3.1-2.5-1.7-2.6-2.1-2.8-3.8-1.5-1.8 1.3-1.8 1.5-.2 3.9 1 1.6 1.3 2.8.7 3.2-.6.3-.7 1.6-.4 2.9.4 1.7-.1 2.7-2 3.9L306 119l-4.7-6.9c-2.7-3.9-5.1-7-5.5-7.1-.5 0-.8 1.6-.8 3.6 0 3.1.2 3.5 1.4 2.5s2.1-.4 5 3.6l3.5 4.8-2.2 1.7c-1.5 1.2-2.5 1.4-3.4.6-.7-.6-1.3-.7-1.3-.2-.1.5-1.4-.6-2.9-2.4-2.5-3-3.2-3.2-5-2.2l-2.2 1.1 2.2 3c1.6 2.3 1.8 3.3.9 4.3-.7.9-.7 1.6-.1 2 2 1.3-.3 10.3-5 19.8-2.7 5.2-6.3 8.8-7.6 7.4-1-.9-6.4 3.5-5.7 4.6.4.6-.1 1.7-1.1 2.4-1.8 1.3-1.8 1.5.4 3.8l2.2 2.4-7.3 2.7c-4 1.5-12.1 5.2-18.1 8.3-10.1 5.2-10.8 5.4-12.6 3.8-1.7-1.5-1.9-1.5-3.2 0-.8 1-4.5 3.2-8.4 5-7.3 3.4-15.6 10.6-13.6 11.9.7.4-4.4 4.6-12 10.1-15.6 11.2-25.8 19.4-35.4 28.4-5.2 4.9-9.2 7.6-15.7 10.5-4.9 2.1-8.8 4.2-8.8 4.7 0 .8 5.1-1.2 11.4-4.4l3.9-2-4.8 5.6c-4.6 5.4-4.7 5.8-2.9 7.1 22.2 15.8 32.9 24.3 33.2 26.2.5 3.1-1.7 6.8-3.1 5.4-2-2-4.7-1.2-6.7 2.1-1 1.7-1.6 3.6-1.3 4.1.3.5-.5 1.5-1.6 2.4-1.4.9-2 2.1-1.6 3.2.9 3-2.7 6.4-7.1 6.6-3 .2-6.2-1-14-5.2-9.9-5.2-10.2-5.3-10.7-3.1-.4 1.2-.5 2.3-.4 2.4 1.1.9 10.8 5.4 11.4 5.2 1.3-.3 9.3 4.2 9.3 5.2 0 1.8-2.2 1.1-11.2-3.8-7.5-4-9-4.5-9.8-3.2-.5.8-1 1.8-1 2.2 0 .5 4.3 2.8 9.6 5.3 5.2 2.6 9.8 5.3 10.1 6.1.3.8-.7 3.1-2.4 5.2-4.3 5.4-4.6 6.1-3.3 7.7.6.8.9 1.8.6 2.4-.3.5 1.7 2.3 4.4 4.1 5.5 3.5 6.4 6.4 3.1 9.4-1.8 1.6-2 1.6-3.9-.8-2.6-3.4-5.6-3.3-7.1.1-2.9 6.9-2.6 6.9-16.2.3-6.8-3.4-15.1-7.6-18.4-9.5-3.3-1.9-6.2-3.5-6.5-3.5-.3 0-1.3 1.4-2.2 3l-1.7 3.1 6.6 3.2c4.7 2.3 6.7 2.8 7 1.9.7-1.9 1.6-1.6 13.7 4.9l11.5 6-1.1 3c-.5 1.6-1.4 3.1-1.8 3.4-1.1.7-24.2-8.4-25.5-10-1.2-1.4-10.9-6.5-12.4-6.5-.6 0-1.7 1.3-2.6 3l-1.5 3 6.6 3c4.7 2.1 7.1 2.7 7.9 2 1.4-1.1 24.5 9.3 24.5 11 0 2.3-4.2 9.1-5.3 8.6-.7-.2-2.9-1-5-1.7-2-.7-3.7-1.8-3.7-2.4 0-.7-1.9-2-4.2-2.9-4.1-1.7-5.7-1.2-5.8 1.9 0 1.1 6.1 3.8 9.1 4.1.9.1 3.5 1.2 5.8 2.6 3.4 2.1 3.9 2.7 2.7 3.7-1 .9-2 .9-4.1-.1-2.3-1-2.9-1-4 .5-1.4 1.9-3.5 2.3-3.5.7 0-1-9-5.4-9.5-4.8-.1.2-.7 1.3-1.3 2.4-1 1.9-.8 2.3 1.9 3.4 1.9.8 2.7 1.6 2.1 2.2-.6.6-3.7-.2-8.2-2.1-9.4-4-10.3-3.4-1.1.7 3.9 1.7 7.5 4 8.1 5.1 1.4 2.7 1.3 3-1 2.4-2.8-.7-4 4.3-1.5 6.1 2.2 1.6 1.3 4.6-1.3 4.6-1.5 0-2.6 1.8-4.7 7.4-2.4 6.1-3.2 7.2-4.8 6.8-1.8-.5-3.7 1.2-3.7 3.3 0 .6 1.3 1.6 3 2.2 3.1 1.2 4 4 1.6 4.9-.8.3-2.4 0-3.6-.6-1.8-1-2.2-.9-2.7.9-.8 3.1-.5 3.5 3 4.7 1.9.7 3.2 1.7 3.1 2.7 0 1-.1 3.2-.2 5.1-.1 1.9-1 4.2-1.9 5.2-1.2 1.2-1.4 1.9-.6 2.1.8.3.9 1.2.1 3.4-.5 1.6-1.4 2.6-1.9 2.3-.5-.3-.9-.1-.9.4 0 .6.6 1.2 1.3 1.5 1.5.6 1.1 6.3-.4 7.3-1.2.7-8.5-1.3-14.4-4.1-6.2-2.8-13-4.1-14-2.5-1.2 2 1.4 3.7 7.8 5 3.4.7 9.2 2.1 13 3.2 5.8 1.7 6.7 2.3 6.7 4.3v2.3l-5.7-1.5c-3.2-.8-6.7-2-7.8-2.7-2.1-1.3-10.3-3.6-12.9-3.6-.9 0-1.6.6-1.6 1.4 0 1.3 9.6 4.6 13.5 4.6 4.1 0 12.1 3.3 13 5.4 1.3 2.7.7 6.9-.9 6.3-.6-.3-3.8-1-7.1-1.7s-6.4-1.8-7-2.5c-.8-1-8.6-3.5-10.9-3.5-.3 0-.6 2-.6 4.4v4.3l9.8 2.7c5.3 1.5 10.5 3 11.5 3.2 1.5.5 2.6 4.4 1.2 4.4-.3 0-5.3-1.1-11.1-2.5-9.2-2.2-11-2.3-14.4-1.2-2.2.6-4 1.5-4 1.9 0 .4-.7.5-1.5.2-.8-.4-1.7.1-2.1.9-.3.8-2.5 2.1-5 2.8-2.4.7-4.4 1.9-4.4 2.6 0 .6-.6 1.6-1.4 2-.7.4-1.9 3.3-2.5 6.2-1.1 5.4-1.1 5.5 1.7 8.4 1.6 1.6 4.5 3.2 6.3 3.6 2.9.6 3.4 1.1 3.1 3.2-.6 5-1.3 6.9-2.6 6.9-.9 0-1.7 2.8-2.5 9.2-.6 5.1-1.4 10.3-1.7 11.5-.3 1.6 0 2.3 1.1 2.3s1.3.7.9 2.9c-.4 1.6-.1 3.2.5 3.5.6.4 1.1 1.6 1.1 2.7 0 1 .5 1.9 1 1.9.6 0 1 1 1 2.3 0 2.3.4 2.4 14.7 3.6 8.1.7 15 1.4 15.3 1.6.3.2.4 2.4.2 5-.4 4.5-.5 4.7-3.3 4.3-1.6-.3-2.9-.1-2.9.3 0 .3-3 1-6.7 1.4-5 .5-7.5 1.4-9.6 3.1-1.6 1.3-3.5 2.4-4.3 2.4-2.3 0-1.6 2 1 3 1.3.5 2.8 1.6 3.3 2.4.4.8 2.4 1.6 4.3 1.8 2 .2 3.5.8 3.4 1.5-.1.7-.2 5.6-.3 10.9l-.1 9.5-23.5-.7c-21.5-.6-23.5-.6-23.5.9 0 1.2-.9 1.7-3 1.7-2.8 0-3 .3-3 3.4 0 3.2-.3 3.5-3.2 3.8l-3.3.3-.3 6.6C-.2 640.9 1 644 5 644c2.7 0 3 .3 3 3 0 2.5.4 3 2.5 3 1.7 0 2.5.6 2.5 1.7 0 1.5 1.5 1.6 15.9 1 8.7-.4 19.3-.4 23.5-.1 7.1.7 7.6.8 7.6 3 0 1.4-.6 2.4-1.4 2.4-.8 0-1.6.5-1.8 1.1-.2.6-5.6 1.2-13.1 1.6-9 .4-12.7 1-12.7 1.8 0 .7-.7 1.8-1.5 2.5-1.9 1.6-1.9 3.1.2 8 1.3 2.9 2.4 4 4 4 1.7 0 2.2.7 2.5 3.2.3 3.1.5 3.3 5.3 3.9 2.8.3 3.9.7 2.7.7-2.3.2-2.4.4-1.7 5.4.4 2.9 1.1 5.5 1.6 5.8.4.3 1.2 2.8 1.6 5.5.8 4.4 1.1 5 3.1 4.7 1.3-.2 2.9.1 3.5.6.7.6 3.2.7 6.2.2 5.9-.9 6.5-.7 6.5 2.5 0 2.5-.7 2.8-10.1 4.1-4.3.5-4.7.8-5.2 3.9-.6 3.8.1 7.5 1.4 7.5.5 0 .9.9.9 2 0 1.6.7 2 3 2 2.6 0 3.1.5 3.7 3 .3 1.6 1.1 3 1.8 3 1 0 2.5 2 2.5 3.5 0 .1-8.8 2-19.5 4-10.7 2.1-19.5 4.1-19.5 4.5 0 .4-1.6 1.1-3.6 1.5-3.8.7-8.4 4.7-8.4 7.4 0 3 3.4 4.1 9.7 3.1 7.5-1.3 7.8-1.3 6.4.4-.6.7-2.5 1.6-4.2 2-2.2.4-3 1.1-2.7 2.3.2 1.4 1.1 1.7 3.9 1.5 3.6-.3 14.4 2.2 16.4 3.9.9.7 6.4-.1 11.6-1.7 1.3-.4 2 .6 2.9 4.5 1.1 4.9 1.1 5.1-1.6 7.6-1.5 1.4-3.6 2.5-4.6 2.5-1.4 0-1.9.6-1.6 2.2.2 1.8.9 2.2 2.8 2 1.4-.1 3.4.2 4.5.7 1.1.5 2.7 1.1 3.6 1.4.9.3 1.9 1.7 2.1 3.1.5 2.4.1 2.7-8 5.2-8.5 2.6-9 3.2-3.6 4.8 1.7.5 2.2.3 2-1 0-1.1 1.2-2.1 3.4-3 5.6-2 7.7-1.8 8.2 1.1.3 1.4.1 2.5-.3 2.5-.5 0-.9.6-.9 1.3 0 .8-1.8 1.9-4 2.6-3 .9-3.8 1.5-3.3 2.9 1.1 3 1.3 3.1 4.3 2 2.1-.7 3.4-.7 4.3 0 .6.6 3 1.5 5.2 2.1 2.6.7 6.5 3.3 10.8 7.2 6.9 6.2 9.6 10.4 7.9 12.1-1.2 1.2.8 6.8 2.5 6.8.6 0 1.5.9 1.8 2.1.5 1.4 1.2 1.8 2.3 1.4 5-2.1 4.9-2.4 5.5 10.2.3 6.5 1.2 15.2 2.1 19.3 1.6 7.3 1.6 7.5-.3 9-1.9 1.4-2 1.8-.6 5.5.8 2.2 1.4 6.1 1.5 8.6 0 5.1 4.6 15.4 6.9 15.4.8 0 3.2 5.7 6 14.5 6.4 19.4 11.6 32.9 16.1 42 3.1 6.1 4 9.5 5 17.5.7 5.5 1.7 10.4 2.2 11 .6.6.8-.3.4-2.5-1.3-8.4-1.7-13-1.2-13 .3 0 1.7 2.2 3.1 4.9 1.3 2.7 2.9 5.2 3.5 5.6.6.3 8.6-4.9 17.8-11.6 9.2-6.7 17.6-12.4 18.7-12.6 1.1-.3 3.1.5 4.5 1.7 2.3 2 2.3 2.2.7 3.1-2.9 1.6-2.1 5.5 1.8 8.6 1.9 1.5 3.5 3.4 3.5 4 0 .7.8 1.3 1.8 1.3 3.7 0 7.2 6.9 4.7 9-.8.6-1.2 1.7-.9 2.3.2.7-3.2 4.8-7.6 9.2-4.4 4.4-8 8.3-8 8.6 0 .4.8 1 1.7 1.3 1.1.5 3-.7 6-3.6 2.4-2.3 4.3-4.7 4.3-5.4 0-1.5 6.9-6.8 7.8-6 .3.4-2.9 4.2-7.1 8.4-6.1 6.1-7.5 8-6.5 9 2.1 2.1 3.1 1.4 10.3-6.4 8.1-8.8 9.4-9 13.7-2.1 2.5 3.9 3.2 4.4 6.2 4.3 2.3-.1 4.8-1.3 7.5-3.4 3.3-2.6 4.4-3 6.4-2.3 1.3.5 2.7 1.9 3 3.1.4 1.8-.1 2.4-2.9 3.6-1.9.8-3.4 2-3.4 2.6 0 .7 1.6 2.9 3.6 4.9l3.7 3.8-7.4 8c-4.1 4.5-10.7 11-14.6 14.7-4 3.6-7.3 7.1-7.3 7.8 0 .7.9 2.1 2 3.1 2.1 1.9 2.2 1.8 7.2-3.2 4.1-4.1 4.9-5.5 4-6.5-.9-1.1.8-3.3 8.2-10.7l9.4-9.4 3.1 2.2c1.7 1.2 3.1 2.5 3.1 2.7 0 1.2-17.4 20.9-18.9 21.5-1.9.8-9.1 8.5-9.1 9.7 0 .5 1.1 1.9 2.4 3.1l2.3 2.2 4.7-5.4c2.6-3.1 4.4-6.1 4.1-6.9-.3-.8 3-5.2 8.6-11.2l9.2-9.8 4 4.1 4 4-3.3 3.8c-1.9 2.1-3.7 3.7-4 3.6-.4-.1-2.2 1.4-4.1 3.3-3.1 3.2-3.2 3.5-1.6 5.1 1.6 1.6 1.9 1.5 4.7-1.2 1.6-1.6 3-3.4 3-4 0-.6 1.8-2.9 4-5 3.3-3.3 4.2-3.7 5-2.5.7 1.1.2 2.2-1.6 4.1-2.2 2.3-2.3 2.7-.9 3.9 2 1.7 1.9 2.9-.4 3.8-1 .4-3.1 2.2-4.6 4-2.2 2.6-2.5 3.5-1.5 4.7 1.6 1.9 2.9 1.9 5.2-.2 4.2-3.8 1.4 1.4-4.9 9.1l-6.7 8.1 8-8.3c7.5-7.8 12.3-10.6 11-6.4-.4 1.2.2 2.6 1.5 3.8 2 1.8 2.1 1.8 3.5 0 1.1-1.6 1.6-1.7 2.9-.6.9.7 1.3 2.1 1 3-.4 1.3 1 3.1 5.5 6.6 6.4 5 6.6 5.4 4.8 7.2-.8.8-.8 1.5.2 2.7 1.7 2.1 3.7 1.9 5-.5 1.1-2.1 4.4-2.7 5.5-1 .3.5-.2 2.1-1.2 3.6-1.6 2.5-1.6 2.7.2 4.1 2.1 1.5 1.9 1.6 6.1-4.1 1.2-1.8 1.5-1.8 3.1-.5 1 .8 3.5 2.3 5.6 3.2 2.4 1.1 3.5 2.1 3.1 2.9-.5.7-.2.9.8.5 2.1-.7 6.1 2.1 5.4 3.9-.3.8-.1 1.4.3 1.4.5 0 1.1-.6 1.4-1.3.3-.9 1.3-.8 4.1.6l3.8 1.8-1.8 2.7c-5.7 8.7-6.8 10.2-7.8 10.2-.6 0-2.6 2.6-4.4 5.7-2.5 4.3-3 5.8-2 6.4 2.6 1.7 1.7 2.7 13.8-16.4 2.9-4.6 4.8-6.6 5.7-6.2.8.3 1.7.5 1.9.5 1.9 0-3.6 9-8.6 14.1-3.8 3.9-6.6 9.7-5.3 11 .8.8 2.3-.7 5.4-5.3 2.4-3.4 4.2-6.5 4-6.7-.2-.1 1.2-2.4 3.1-5 2.6-3.5 4.2-4.7 6.4-4.9 5.7-.4 6 1 1.9 7.8-2 3.4-4.3 6.4-5 6.7-1.8.6-6.7 8.2-6.3 9.5.2.5 2 1.6 3.9 2.2l3.5 1.2 6.9-10.3c5.9-8.9 7-10.2 8.2-9 1.2 1.2.6 2.7-4.3 10.8-4.1 6.8-5.7 10.4-5.7 13.1 0 2.1.2 4.1.6 4.4.4.4.2 1.3-.4 2-.9 1-.7 1.5.4 2 1.2.4 1.6 1.8 1.3 5.5-.2 3.3.2 5 1.1 5.3.7.3 1.3 1.2 1.3 1.9 0 .8 2.3 2.6 5.1 4.2 5 2.7 5.3 2.7 8.5 1.2 1.8-.9 4.1-2.9 5-4.4 1-1.5 1.9-3 2.1-3.2.7-1 8.3 3.4 8.3 4.8 0 1.1 3.2 3.2 8.8 6.1 8.5 4.3 9 4.4 18.4 4.5h9.8l5.6-13c3.1-7.2 5.9-13.3 6.3-13.7.9-1.1 9.2 2.3 8.5 3.4-.6 1-1.6 8.2-1.6 11.8 0 1.4-.4 3.3-.9 4.2-.6 1.2-.5 2.9.5 5.3.9 2 1.3 4.2 1 5-.4.9 0 1.5 1 1.5.9 0 1.6-.4 1.6-.9s1.3-1.4 2.9-2.1c1.6-.6 3.5-2.5 4.1-4.1.7-1.6 1.5-2.9 1.9-2.9 1.5 0 19.1 6.5 19.1 7.1 0 .4-3.3 10.4-7.4 22.4-5.5 16.3-7 21.8-6 22.2.9.3 1.1 1.5.8 3.3-.6 2.5-.3 2.9 2.6 3.5 2.8.6 3.1 1 2.5 3.3-.4 1.5-.7 3.1-.8 3.6-.2 1.1 11.8 5.5 15 5.6 1.4 0 2.4-.9 3.1-3 1-2.6 1.3-2.8 4.1-2 3.3.9 4.1.5 4.1-2.2 0-1.4.5-1.8 1.9-1.3 1.6.5 2.3-1.2 5.9-14.2 2.2-8.2 4.4-16 4.8-17.6.3-1.5 1-2.7 1.4-2.7.4 0 1.3-2.3 2-5.1 1-4.2 1.6-5 3.3-4.7 3.9.6 4.1 5.9.8 18.6l-3 11.3 2.4 2.5c2.2 2.3 3.2 2.6 10.2 2.3 1.5 0 2.5-.8 2.9-2.4.5-2.1.9-2.2 3.7-1.4 4.6 1.3 4.5 1.3 5.3-3.6.3-2.5 1.1-4.5 1.6-4.5.6 0 .8.9.5 1.9-.7 2.7 1 3.2 12 3.6 9 .4 9.1.4 9.7-2 .4-1.4 1.1-2.5 1.6-2.5s1.2-2.2 1.6-4.9c.8-6.2 1.4-7 4.5-6.4l2.6.5-1.3 7.1c-1.3 7.9-1.2 8.7 1.7 8.7 1 0 1.9.4 1.9.9 0 1.2 4.1 2.2 5.4 1.3.6-.4 2-.7 3.1-.7 1.4 0 2.1-.8 2.3-2.8.3-2.6.6-2.8 3.3-2.2 2.3.5 3.4.2 4.4-1.2 1.1-1.4 1.6-1.5 2.6-.6.9.9.7 5.1-.9 19-2.2 19-2.1 30 .3 31.9.8.6 1.5 1.6 1.5 2.3 0 1.5 2.9 1.4 4.5-.3.8-.7 1.9-4.3 2.6-8 1.2-7.1 2.9-8 2.9-1.5 0 3.2.3 3.9 2 3.9 1.5 0 2-.7 2-2.7 0-2.6 7.5-15.3 9-15.3.4 0 1-2.8 1.4-6.2.3-3.4.8-6.3 1-6.5.2-.2 2.6-.1 5.3.2 5.3.8 7.3 3.1 7.3 8.7 0 2.1.5 2.8 2 2.8s2-.7 2-2.9c0-2 .6-3 2-3.4 1.2-.3 2-1.4 2-2.7 0-1.6.4-2 1.6-1.6.9.3 2.4.6 3.5.6 1.8 0 1.9.6 1.3 8.5-.4 4.7-.4 8.5 0 8.5.9 0 4.5-4.2 4.6-5.2 0-.4-.7-.5-1.5-.2-1.2.5-1.5-.5-1.5-5.5 0-5.9.1-6.1 2.6-6.1 3.5 0 5.3 2.6 5.4 7.2 0 3.4.3 3.8 2.5 3.8 2.3 0 2.5-.4 2.5-4 0-2.9.4-4 1.5-4 .8 0 1.5-.7 1.5-1.5s.5-1.5 1-1.5c.6 0 1-.7 1-1.5 0-2.7 16.7-12.5 21.5-12.5 1.4 0 2.5.4 2.5 1 0 .5 1.6 1 3.5 1s3.5-.4 3.5-.9 1-1.1 2.3-1.3c1.8-.2 2.2-.9 2-3.6-.1-2.7.2-3.2 1.6-2.7 7.6 2.4 22.3 5.5 28.6 6.1 7.3.7 7.8.9 8.7 3.5.8 2.4 1.3 2.7 4.1 2.2 1.8-.2 6 .2 9.4 1 6.8 1.5 17.3.6 17.3-1.6 0-.9 6.5-1.3 23.3-1.4 13.4-.2 28.1-.9 34.9-1.8 11-1.4 12.1-1.4 21.3.5 11.3 2.3 10.5 2.2 10.5 1.2 0-.5-3.7-1.4-8.2-2.2-8.6-1.4-8.5-2.1.4-3.4 2.6-.4 5-1.1 5.2-1.5.3-.4-2.4-9.7-6-20.6-3.8-11.4-6.3-20.8-6-22 .3-1.2 1.7-2.7 3-3.3 2.1-.9 2.6-.8 3.1.8.3 1 1.3 2.1 2.1 2.4 1.9.7 8.4-1.9 8.4-3.4 0-.7.8-.9 1.9-.5 1.4.4 2.5-.1 3.7-2 1.9-2.9 7.3-3.5 9.4-1 .7.8 1.8 1.5 2.4 1.5.6 0 3.4 4.8 6.1 10.6 4.7 9.8 5.1 10.4 6.9 9.2 1.8-1.4 1.7-1.6-.9-6.9-1.5-2.9-3.4-5.8-4.1-6.4-2-1.5-4.6-8.3-3.4-9 .5-.3 3 3.6 5.6 8.7 2.5 5.1 4.8 9.4 4.9 9.6.2.2 1.3-.1 2.5-.8 2-1.1 2-1.3-3.1-10.7-6-11.2-5.9-12 2.2-14.4 4.3-1.2 5.3-1.9 5.1-3.4-.2-1 .2-2.1.8-2.5.8-.5.5-2.2-.9-6.1-2-5.1-2-5.4-.3-7.1.9-.9 2.6-1.8 3.7-2 1.7-.2 2.1.3 2.3 3.4.4 4.7 2.2 5.3 7.7 2.6 2.5-1.2 4.6-2 4.8-1.7 1.4 1.5 12.7 22.8 12.7 23.8 0 .8 4.4 9.5 6.5 12.9.3.4 6.5-2 6.5-2.5 0-.2-1.5-3.1-3.2-6.4-2.5-4.6-3.7-5.9-5.1-5.5-1.6.4-2.9-1.7-7.7-11.7l-5.8-12.1 3-1.9c2.6-1.5 3.3-1.6 4.3-.5 2.5 2.7 13.5 21 13.5 22.5 0 2.4 6 12.3 7.5 12.3.7 0 2.2-.8 3.4-1.8l2-1.7-3.7-6c-2.3-3.7-4.3-5.9-5.2-5.8-1 .2-3.5-3.3-7.5-10.9-3.3-6.2-6.1-11.5-6.3-11.8-.2-.5 8.1-5 9.3-5 .9 0 5.8 8.1 5.2 8.6-.5.5 2.5 7.8 3.8 9.2.2.2 1.3-.1 2.4-.8l2.1-1.1-2-3.9c-1.1-2.1-2.4-4.2-3-4.5-1.2-.7-5-7.9-5-9.5 0-2 3.1-.9 4.2 1.5 1 2.2 1.6 2.5 4 2 2.2-.5 2.8-.3 2.8 1 0 2.3 4.1 9.5 5.4 9.5.6 0 1.7-.4 2.5-.9 1.2-.8 1.3-1.4.3-3.6-1.4-3.1-1.5-3.5-.3-3.5.5 0 2.6 2.7 4.6 6 4.5 7.5 5.8 7.9 1.6.6-3.5-6-4.5-13.4-1.5-10.4 1.5 1.5 1.9 1.5 4 .1 1.9-1.2 2.2-1.9 1.4-3.3-.6-1-1-2.1-1-2.3 0-1.1 3.3-1.7 4.4-.8.8.7 3.2-.3 7.6-3 5.6-3.6 6.6-3.9 8.6-2.8 1.9 1 2.6.9 3.9-.1 1.3-1.1 1.3-1.5-.2-4-1.4-2.4-1.4-3.1-.4-4.4 1.8-2.2 2.5-2 4.1.9 1.5 2.9 1.9 3 4.5 1.1 1.8-1.3 1.8-1.5-.8-4.7l-2.6-3.3 4.2-4.3c2.3-2.4 4.7-4.3 5.4-4.3.7 0 1.3-.6 1.3-1.3 0-1.8 3.7-3.8 5.7-3 1.6.6 1.6.5.4-1.1-1.3-1.5-1.1-2 1.3-4.4l2.7-2.7 4 4.5c2.2 2.5 4.9 6.3 6 8.5 1.1 2.2 3.3 5.5 5 7.4 2.8 3 3.2 3.2 4.7 1.8 1.4-1.5 1.1-2.1-2.7-7.1-2.3-3-4.6-5.6-5.1-5.8-.5-.2-2.7-2.8-5-5.7-3.6-5-3.9-5.6-2.5-7 1.4-1.5 1.9-1.2 5.1 2.4 1.9 2.2 4.1 5.3 4.9 7 1.9 4.1 8.5 11.6 9.6 10.9 1.8-1.1.8-3.1-4.2-8.4-7-7.6-10.8-13.1-10.4-15.5.4-3.2 1.6-5.5 2.9-5.5 1.4.1 10.1 10.6 10.1 12.3 0 1.7 5.8 8.7 7.2 8.7.7 0 1.8-1 2.4-2.3.7-1.2 1.7-2.5 2.2-2.9.6-.4-2.2-4.7-6.7-10.3-6.8-8.5-7.6-9.9-6.4-11.1 1.3-1.3 2.5-.3 9.3 7.6 5.6 6.5 8.4 9 10.1 9 1.2 0 2.6.5 2.9 1 .4.6 1.1.8 1.6.4.5-.3 1.6-.1 2.4.6.8.7 1.5.7 1.9.1.7-1 6 .3 8.2 2.1.7.5 1.6.2 2.4-.7.7-.8 1.6-1.2 2.2-.9.5.3 2.9-1.1 5.4-3.1 4.4-3.6 4.5-3.9 3.9-7.9-.4-2.4-1.8-5.3-3.4-6.9l-2.6-2.8 3.5-2.9c1.9-1.6 4-2.8 4.6-2.6 1.7.6 17.9-16 16.4-16.9-.8-.5-.5-1.4 1-3 1.2-1.3 1.9-2.9 1.5-3.5-.4-.6-.1-1.7.5-2.5s.9-1.9.5-2.5c-.4-.6-.1-1.8.6-2.6.6-.8 1-1.6.8-1.8-7.5-6.4-21.5-18.9-21.6-19.4-.1-.4 1.1-2.3 2.6-4.2 2.8-3.3 3-3.4 4.8-1.7 1.1.9 2.6 1.7 3.5 1.7.8 0 2.3.9 3.3 2s2.1 1.7 2.6 1.4c.5-.3 1.9.2 3.1.9 1.3.8 4.7 1.7 7.6 2 5.1.4 5.3.3 4.7-1.7-.4-1.2-.9-3.2-1.2-4.6-.3-1.4-1.6-3.5-3-4.6l-2.5-2.2 6.2-7.8c3.4-4.4 6.8-7.9 7.4-7.8.7.1 9.2 6.1 19 13.4 12.8 9.6 18 13 18.8 12.2.8-.8 1.8-.6 3.5.6 2.2 1.3 2.6 1.4 3.4.1 2.6-4.4 2.6-4.3 5.4-2.5 2.7 1.7 2.8 1.7 5.5-.9 1.6-1.5 3.9-4.7 5.1-7.1l2.3-4.3-2.3-2.5c-2.2-2.3-2.2-2.5-.6-4.9 1.5-2.4 1.5-2.6-.4-3.9-1.3-1-1.7-1.8-1.1-2.8.7-1.1-2.5-3.7-13.3-11-7.8-5.2-15.3-10.5-16.7-11.7-1.4-1.3-3.5-3.1-4.8-4-1.5-1.2-2.1-2.4-1.7-3.5 1.3-3.3 7.3-1.5 17.6 5.1 8.8 5.6 9.8 6 12.6 5.1 4.7-1.7 7.7-10.2 4.5-12.7-1.6-1.1-1.6-1.4.1-4.4 1.9-3.5 1.9-3.5-3.5-6.5-3.5-1.8-3.6-2.6-.4-1.8 2.1.5 2.8 0 4.7-3.8 1.3-2.3 2.2-4.8 2.1-5.5-.2-.7.7-3.1 1.8-5.4 1.2-2.2 2-4.2 1.8-4.4-.2-.1-1.3-.8-2.6-1.4-1.2-.7-2-1.6-1.7-2.1.3-.5-1.7-2.1-4.5-3.5-5.4-2.7-5.7-3.2-3.7-5.9 1.2-1.7 1.7-1.6 7.9 1.5l6.5 3.2 2.1-2.1c2.5-2.5 4.5-6.2 3.8-6.9-.3-.3-.1-1.4.4-2.4.8-1.4.6-2.1-1.2-3-1.3-.6-2.4-1.3-2.6-1.4-.2-.2.4-1.7 1.3-3.4 1.4-2.8 1.4-3.2.1-3.7-1.2-.4-1.3-1.1-.6-2.4.9-1.7 2.4-1.1 18.1 6.2 9.5 4.5 17.9 8.1 18.8 8.2.9.1 3.3.7 5.4 1.5 3.3 1.1 4.3 1.1 7.2-.4 1.9-.9 3.5-2 3.5-2.5 0-2.6-1.9-4.4-7.4-7.3-4.8-2.5-5.6-3.2-3.9-3.5 1.2-.2 3.2.2 4.4.8 1.7 1 2.3.9 3-.1 1.3-2.1 1.1-2.6-1.9-3.8-2.6-1.1-11.2-11.1-11.2-13.1 0-.9-2.8-2.3-9.7-5l-2.2-.9 2.1-5.1c1.5-3.7 2.5-4.9 3.6-4.5.9.3 1.9.1 2.2-.6.6-.8 1.3-.8 3 .1 1.2.6 2.8.9 3.6.6 2.3-.9 1.6-3.6-1.1-4.6-1.4-.5-2.5-1.6-2.5-2.4 0-.8-.7-1.9-1.5-2.4-1.3-.6-1.3-1.4-.5-3.9l1.1-3.1 8.5 2.8 8.4 2.9-1.7-3.2c-1.4-2.8-1.7-3-2.6-1.5-1 1.5-1.5 1.5-6.1-.4-6.2-2.4-5.9-2.2-5.1-4.7.7-2.5 5.2-3.5 9-2.1 3.1 1.2 3 1.2 3.9-1.7.6-1.8.1-2.3-2.9-3.3-2.4-.8-3.5-1.7-3.1-2.6.3-.7 0-1.7-.7-2.1-3.1-2-4.9-5.7-6.8-14.3-2-9.4-1.8-15 .6-15 1.7 0 2.6-3.7 1.8-8.3-.4-2.8-1.1-3.9-2.9-4.3-1.3-.3-2.4-.9-2.4-1.3 0-.3 1.7-3.1 3.8-6.1 2-3 6.2-10.4 9.3-16.5 5.1-10 5.8-11 8.1-10.7 2.2.3 2.6-.2 3.2-3.3.4-2 2.1-5.8 3.7-8.5 3.4-5.5 5.8-15.9 3.9-17-.8-.5.2-4.8 3.5-15.1 5.7-17.8 11.2-38.6 12.1-45.9.6-5.1 2-8.2 9.2-20.8 1.3-2.3 2-4.2 1.5-4.2s-2.6 3.2-4.7 7c-3.9 7.3-4.9 8.5-4.2 4.7.3-1.2.8-4.3 1.1-7l.6-4.7h-21.3c-17.7 0-21.7-.3-23.6-1.6-2.9-2-3-6.4-.2-6.4 3.1 0 4.7-4.3 3.1-8.5-.7-1.9-.9-4-.6-4.6.4-.5-.1-1.9-1-2.9-2.1-2.4-1.3-8.8 1.3-9.7.9-.4 2.2-1.2 2.9-1.9.6-.6 6.2-1.7 12.3-2.4 8.9-1 11-1.6 10.6-2.7-.4-.8-.6-1.9-.6-2.4 0-1.1-8.7 0-12.5 1.7-4.2 1.8-10.7 2.2-11.3.6-.2-.6-.1-1.2.2-1.2 1.9 0 21.1-3.1 21.4-3.5.3-.2.2-1.2-.2-2.1-.7-1.8-4.2-1.6-16.5.6-7.7 1.4-8.3.9-7.9-7.3.2-3.7-.1-5.7-.8-5.7-.6 0-1.7-.7-2.4-1.5-.8-1-3.1-1.5-7.1-1.5-6.4 0-8.3-1.6-7.2-5.8.6-2.5 1.5-2.7 4.4-1.1 3.5 1.9 5.2-.6 4.4-6.6l-.6-5.2 11.3-2.3c6.2-1.2 13.1-2.4 15.3-2.5 6.6-.4 14.5-1.7 15-2.5.3-.5.2-2.1-.1-3.8-.6-2.9-.6-2.9-5.2-2.1-8 1.5-8.9 1.8-9.4 3.7-.4 1.6-2.6 2.1-13.3 3.6-7 .9-13 1.5-13.2 1.3-.2-.3-.6-2-.9-3.9l-.6-3.4 13.2-3.2c7.3-1.8 13.6-3 14.1-2.7.4.3 3.8 0 7.4-.6 6.8-1.3 7.2-1.7 5.9-6.7-.4-1.5-1.2-2.1-2.3-1.8-.9.3-4.2 1-7.4 1.6-4.3.9-5.7 1.5-5.3 2.6.6 1.6.5 1.6-14.9 4.3-11.6 2-12.4 1.9-12.5-2.4 0-1.1-.3-2.9-.6-4.1-.5-1.8.1-2.3 3.8-3.3 2.4-.6 5.4-1 6.8-.9 1.4.1 4 .1 5.8 0 2.7-.2 3.2-.6 3.2-2.8 0-2.6-.1-2.7-4.7-2-2.6.3-4.9 1-5.2 1.5-.4.5-3 1.2-5.9 1.6-4.9.6-5.4.5-5-1.1.2-1 1.7-2.1 3.5-2.6 2.5-.7 3.2-1.3 3-3-.2-1.8.4-2.1 4.3-2.3 7.2-.4 8.8-1.1 8.2-4.1-.4-2.3-.8-2.6-3.8-2.1-6 1-2.7-2 3.7-3.3 3.3-.7 5.7-1.5 5.5-1.7-.2-.3-2.9 0-6 .7-4.1.8-6 .8-7.6 0-2-1.1-2-1.3-.5-2.4 1.1-.8 1.4-2 1-3.7-.5-2-1.1-2.5-2.9-2.2-3 .6-4.5-2.6-2.1-4.3 1.5-1.1 1.5-1.8-.3-8.5-2.1-7.6-2.1-8.9.4-8.9 1.6 0 1.8-1.8.5-3.9-.6-.9-1.8-1.1-3.9-.6-2.3.5-3.3.2-4.1-1.2-.8-1.5-.5-2 2.3-3.3 2.9-1.3 3.3-1.8 2.6-3.7-.8-1.9-1.2-2-5-1.1-2.2.6-4.2.9-4.3.7-3.8-6.8-5.6-10.9-4.8-10.9.6 0 1.1-.5 1.1-1 0-.6-.6-1-1.4-1-1.8 0-2.9-3.1-1.9-5.5.5-1.4.3-1.7-1-1.2-1.2.4-2.1-.2-3.2-2.3-.8-1.6-1.5-3.3-1.5-3.7 0-1 11.8-5.3 14.6-5.3 3.4 0 12.4-4.1 12.4-5.7 0-2.5-2.8-2.5-9.2.2-15.4 6.5-18.6 7.5-19.8 6-.6-.8-.9-1.8-.6-2.3.7-1.2 12.5-5.6 13.2-4.9 1.1 1 11.9-4.1 12.2-5.8.5-2.2-2.6-1.6-11.2 2.4-12.4 5.8-17.3 6.2-19.4 1.6-1-2.1-.7-2.4 5.5-5 3.6-1.6 7.3-2.8 8.2-2.8 2.6.2 11.1-3 11.1-4.1-.1-.6-1.1-2.4-2.4-3.9l-2.2-2.8-11.3 4.2c-8.9 3.2-11.5 3.8-12.2 2.8-.4-.7-.6-1.6-.4-1.9.2-.4 5.1-2.7 10.9-5.1 5.8-2.4 10.7-5.1 11-5.9.8-2.3 3-5.4 4.4-6.3.7-.5 1-1.2.7-1.7-.7-1.1 3.4-8 4.6-8 .6 0 .5-.8-.1-1.9-.6-1.2-.6-2.2-.1-2.6 1.4-.8-2.9-10.4-5.2-11.6-1.9-1.1-7.2-.8-11.4.6-1.8.6-2.5.1-4.2-3.3-1.4-2.7-1.7-4.2-.9-5 1.4-1.4-9.1-21.4-10.9-20.8-.6.3-1.9-.6-2.7-2-.9-1.3-2.3-2.4-3.1-2.4-.8 0-1.5-.5-1.5-1 0-.6-.7-1-1.6-1-.9 0-2.2-.7-2.8-1.6-1-1.3-2.8-.6-14 6-7 4.2-13.2 7.4-13.7 7-.5-.3-1.6-1.9-2.5-3.7-1.6-2.9-1.6-3.2.5-4.8 1.1-.9 2.1-2.2 2.1-2.8 0-.6 1.1-1.7 2.5-2.3 1.4-.6 2.5-1.7 2.5-2.4 0-.8 1.1-2.1 2.5-3 1.4-.9 2.5-2.4 2.5-3.3 0-.9.7-2.9 1.5-4.5.8-1.5 1.5-2.9 1.5-3.1 0-1.1-10.6-.2-12.5 1.1-2.3 1.5-2.4 1.4-8.3-7.2l-6-8.8 2.1-1.6c1.2-.9 9.8-7 19-13.4 11.9-8.4 16.7-12.3 16.3-13.3-.4-.8.3-2.2 1.5-3.2l2-1.6-2-2.7-2.1-2.6 2.6-2.1c2.7-2.1 2.7-2.1.9-5.4-1.8-3.5-5-7.3-7.8-9.6-1.4-1.1-2.1-1.1-4.3.3-2.4 1.7-2.6 1.6-4.6-.9-1.9-2.4-2.2-2.5-3.8-1-1.2 1.1-2 1.3-2.5.6-.3-.6-1-1.1-1.4-1.1-.5 0-7 4.9-14.6 11-7.6 6-14.2 11-14.7 11-.6 0-2.7 1.3-4.8 3-3.6 2.8-3.8 2.9-5.4 1.2-1.2-1.4-1.3-2.1-.3-3.1.6-.6 1.2-1.8 1.2-2.5s4.2-4.8 9.3-9c8.1-6.9 9.2-8.1 9.2-11 0-3.3-1.9-5.6-6.8-8.4-2-1.1-2.7-1.1-4.2.3-1.6 1.5-1.9 1.4-3.8-.9-2.5-3.2-3.3-3.2-6.2-.1-1.3 1.4-2.8 2.5-3.4 2.5-.6 0-.5-.5.2-1.2s1.2-1.5 1.2-2c0-1.3-6.2-7.8-7.4-7.8-.7 0-2.7-1.6-4.6-3.5l-3.4-3.5-2.3 2.2c-1.3 1.2-2.6 1.8-3 1.4-.4-.3-2.5 1.2-4.8 3.4l-4.1 4.1-1.9-2.1c-1.8-2-1.8-2.1 3.5-7.5 5.3-5.3 5.3-5.5 3.5-7.5-1-1.1-1.4-2-1-2 .4 0 0-.9-1-2s-2.4-2-3-2c-.7 0-1.8-.7-2.5-1.5-1.2-1.4-1.6-1.3-3.6.6-2.3 2.2-2.4 2.2-4.5.3-1.2-1-3-1.9-4.2-1.9-1.1 0-2.2-.5-2.4-1.1-.2-.7 5.5-7.5 12.7-15.2 7.1-7.7 13-14.3 13-14.8 0-.4 1.1-2.2 2.5-4 2.7-3.5 3.4-9.5 1.3-11.2-1.9-1.4-4.8 0-9.3 4.7-2.1 2.3-4.3 4.1-4.7 4.1-1.5 0-.8-2.7 1.2-4.5 1.1-1 2-2.4 2-3.1 0-2.5-2.2-2.6-4.8-.2-1.5 1.4-5.8 3.5-9.7 4.8-5.5 1.8-7.9 3.3-11.2 6.9l-4.3 4.5-3.7-3.4c-2.1-1.9-3.9-3.6-4.1-3.7-.2-.1 0-.8.4-1.5.5-.7.7-2 .6-2.9-.2-.9.4-2.2 1.3-2.9 2-1.6 1.9-3.6-.1-4.4-1.1-.4-2.2.1-3.1 1.4-.9 1.2-2.1 1.9-2.9 1.6-.8-.3-2.4 0-3.4.6-1.7 1.1-2.3.9-4.1-.9l-2.2-2.1 5.2-6.5c2.8-3.6 5.1-6.7 5.1-7 0-.5-2.9 0-6 1-1.3.4-1.2.6.2 1.4 1.6.9 1.5 1.4-1.5 5.4-3.3 4.6-4.8 5.3-6.4 3.2-2.1-2.6-2-5.5.2-8.3 1.7-2.1 2-3.3 1.3-4.2-1.6-1.9-3.6-1.4-5.4 1.4-1 1.5-2.3 2.3-3.2 1.9-.8-.3-2.1 0-2.8.6-.8.6-1.4.8-1.4.4s-.7-.2-1.5.5c-1.2 1-3.9 1.1-10.7.6-10-.8-15.8-2.8-15.8-5.5 0-1.8-3.4-4-6-3.9-.8 0-2.2-.2-3-.6-1-.4-2.1.3-3.1 2l-1.6 2.5-5.8-7.3c-3.3-4-9.3-10.5-13.4-14.5-7-6.7-7.4-7.3-6.4-9.6 1.1-2.3.9-2.6-1.5-3.6-1.5-.6-4.7-3.4-7-6.1-4.7-5.4-13.8-10.8-15.4-9.2-.6.6-4.1-1.4-9.6-5.6-12.1-9.1-34.4-23.8-42.2-27.7-4.4-2.3-8.8-5.7-13.9-10.9-4-4.2-7.5-7.5-7.7-7.3-.2.2 2.1 3.1 5.2 6.5l5.5 6.2-6.6-3.1c-3.6-1.7-6.8-3-6.9-2.8-.2.2-3.2 9.2-6.6 19.9-3.5 10.7-7 20.3-7.8 21.3-2.3 2.6-6.8 1.9-6.5-.9.3-3-2.8-5.5-7-5.7-2-.2-3.9-.6-4.3-1-.4-.4-2.4-.4-4.6-.1-4.2.7-7.8-1.4-7.8-4.6 0-.9-.4-2-.9-2.5-.6-.6-.2-4.8.9-10.5 2.4-12.2 2.4-13 .1-13-2.8 0-3.2 1-3.6 9.7-.5 9-1.3 13.3-2.6 13.3s-1.1-3.2.6-13c.8-4.7 1.5-8.6 1.5-8.8 0-.1-1.1-.2-2.4-.2-2.5 0-3.6 2.8-3.6 9.1 0 1.5-.5 5.1-1.1 7.9-.9 4.3-1.4 5-3.5 5-1.3 0-4.2-.7-6.5-1.7-3.9-1.5-4.3-1.5-5.4 0-.7 1-1.7 1.7-2.3 1.7-.6 0-1.9 2.5-2.7 5.5-1.7 5.6-3.6 7.2-7.5 6-2.4-.8-2.5-1.8-.3-5.6 2.1-3.6 1.1-4.8-4.6-5.6-2.3-.3-4.4-1-4.7-1.5-.8-1.2 1.4-19.6 3.1-26.8.7-3 1.6-7.6 2-10.2.6-4.6.5-4.6-2.5-5.3-1.7-.4-3.4-.5-3.6-.2-.3.3-.9 3.3-1.4 6.8-.8 5.4-.7 6.6.7 7.6 1.7 1.3 1.7 1.8-1.4 18.6l-1.6 8.7-3.6-.6c-2-.4-3.7-.8-3.9-.9-.7-.6 2-27 2.7-27.5.5-.3 1-3.7 1.2-7.5l.4-7-3.2-.3c-3.5-.3-3.2-.9-4.8 10.5-.4 3.6-.2 4.3 1.1 4.3s1.5.7 1.1 3.7c-.3 2.1-1.1 8.2-1.8 13.7l-1.3 9.8-3.5-.6c-2-.3-4.4-.6-5.3-.6-1.5 0-1.8-.9-1.8-5.4 0-3 .4-5.6 1-5.8.5-.2 1.3-2.4 1.6-5.1.7-4.6.6-4.7-2-4.7-2.3 0-2.6.4-2.8 3.7V41c.1.8-.1 3.6-.4 6.2-.5 3.9-1 4.8-2.5 4.8-1.7 0-1.9-.6-1.7-3.8.3-3.2 0-3.7-1.9-4-2.5-.4-2.9-1.2-1.4-2.8.5-.5 1.1-3.2 1.3-5.9.3-4.8.2-5-2.2-5-2 0-2.6.6-2.8 2.7-.2 1.6-.8 2.8-1.4 2.8-.7 0-.9-3.3-.5-10.3.3-6.9.2-8.6-.3-5.2-.5 2.7-.9 6.8-.9 9.1-.1 2.6-.8 4.7-1.9 5.7-2.3 2.1-3.2 2.1-3.2.2 0-1-1-1.5-3-1.5-2.3 0-3 .4-3 2 0 1.5-.7 2-2.5 2s-2.5-.5-2.5-2c0-1.8-.7-2-8-2-7.9 0-8 0-8-2.5 0-2-.5-2.5-2.4-2.5-2.1 0-2.5.6-2.8 3.2-.2 2.5-.8 3.4-2.5 3.6-2 .3-2.3-.1-2.3-2.7 0-2.8-.3-3.1-3-3.1-1.6 0-2.9.3-2.9.7.1.5.1 2.2 0 3.9-.1 2.9-.5 3.2-5.6 4.4-4.4 1.1-5.7 1.1-7 0-1-.8-1.5-.9-1.5-.1 0 1.5-6 1.4-6.1-.2 0-.6-.4-.2-.9 1-.7 1.8-1.7 2.3-4.4 2.3h-3.4l-.8-6.7c-.4-3.7-.3-7.3.2-8.2.5-.9.8-4.4.6-7.9-.4-5.8-.6-6.3-2.5-6-2.1.3-2.2.7-1.8 7.3.3 3.8.5 10.4.5 14.5.1 7.1 0 7.5-2.3 7.8-2.3.4-2.3.3-2.1-9 .5-15.7.2-18.8-1.6-18.8-1.5 0-1.6 1.4-1 13.2.7 14.5.3 16.1-4.6 17.3-2.5.6-2.5.6-3.1-7.2-.3-4.2-.2-8 .3-8.3.5-.3.6-3.2.3-6.4-.5-5.3-.8-5.7-2.7-5.1-1.2.4-3 .9-4.1 1.1-1.9.5-2 1.2-1.6 13 .3 11.8.2 12.4-1.7 12.4-1.8 0-2-.9-2.7-11.4-.6-9.4-1-11.8-2.6-13.2-1-.9-1.9-2.1-1.9-2.6 0-.9-3.7-4.8-4.5-4.8-1 0-5.5-4.9-5.5-6 0-.5-.9-1-2-1s-2-.5-2-1c0-1-1-1-8.3-.3zm36.6 35c.5 6.3.3 8.3-.7 7.2-1-1-1.8-13.9-.9-13.9.6 0 1.3 3 1.6 6.7zm241.1-1.5c-.3.5-1.4.2-2.5-.8-2.7-2.5-2.3-3.7.6-1.8 1.4.9 2.2 2 1.9 2.6zm-1.9 4.8c-.9 3.3-1 3.4-3.4 2-2.4-1.2-2.5-1.8-1.1-5.6 1-2.6 1.1-2.6 3.1-.8 1.5 1.3 1.8 2.5 1.4 4.4zm7.9-2.7c1.3 1 1.6 2 1.1 3.6l-.7 2.3-2.5-2.5c-3.6-3.5-1.8-6.3 2.1-3.4zm9.3 9.8c-1.4 3.5-1.7 3.6-4.5.6-2-2.1-2.1-2.7-1.1-5.6l1.1-3.2 2.8 2.6c2.5 2.4 2.7 3 1.7 5.6zm-10.5-.2c-.8 2.2-.8 2.2-3.1.4-1.8-1.5-2.1-2.4-1.5-4.7l.7-2.8 2.4 2.4c1.8 1.9 2.2 2.9 1.5 4.7zm-10.1-3.3c1.4 1.3 1.5 2.1.7 4.5-1.2 3.4-1.9 3.6-4.2 1-1.3-1.4-1.4-2.4-.7-4.5 1.2-3 1.8-3.2 4.2-1zm28 2.2c1.3 1.1 1.8 2.1 1.2 2.5-.6.4-2.1-.5-3.3-1.8-2.7-2.9-1.3-3.3 2.1-.7zM851 53.5c0 .1-.5 1.6-1.1 3.3-1 3-1.1 3.1-3.5 1.6-2.7-1.8-2.8-2.2-1.4-5.9.9-2.5 1.1-2.5 3.5-.9 1.4.9 2.5 1.7 2.5 1.9zm9 2.7c0 2.3-.9 2.2-3.7-.1-1.5-1.3-2-2.5-1.6-4l.6-2.2 2.3 2.2c1.3 1.2 2.4 3.1 2.4 4.1zm8.4-4.4c1.3 1.6 1.4 2.4.5 5.1l-1.2 3.3-2.4-2.4c-2.1-2.2-2.3-2.8-1.2-5.1 1.4-3.2 2-3.3 4.3-.9zm9.6 2.5c0 .7-.5 1.9-1 2.7-1.4 2.3-4.4-1-3.5-3.9.5-1.7 1-1.9 2.6-1.1 1 .6 1.9 1.6 1.9 2.3zm-38.6 0c1.4 1 1.5 1.7.7 4-.9 2.3-1.5 2.7-3.4 2.1-2.9-.9-2.9-.7-1.6-4.2 1.2-3.6 1.7-3.8 4.3-1.9zm45 4.7c-.3.8-.9 2.3-1.1 3.3-.6 2-2.2 1.8-3.7-.5-.7-1.1-.6-2.4.2-4.2 1-2.3 1.4-2.5 3.2-1.4 1.2.8 1.8 1.9 1.4 2.8zm-28.2-1.3c2.1 1.9 2.3 4.2.6 6.6-1.2 1.5-1.5 1.5-3.6-.1-2-1.6-2.1-2.1-1.1-5 1.3-3.7 1.6-3.8 4.1-1.5zm10 5.9c-.6 1.1-1.6 3.4-2.2 5.1-1.4 3.8-2.1 4-4.3 1.5-1.4-1.5-1.5-2.3-.5-5 1.3-3.3 2.2-3.9 3.3-2.2.3.5 1.1 1 1.7 1 .6 0 .2-1-.9-2.3-3-3.3-1.7-5.6 1.4-2.4 2 1.9 2.3 2.8 1.5 4.3zm8.3-4.9c.9 1.2 1 2.3.2 4-1.2 2.6-2 2.9-3.6.9-.8-.9-.8-2.1-.1-4 1.1-3 1.8-3.2 3.5-.9zm-27 3.9c0 1.3-.6 1.8-2 1.6-2.9-.5-3.8-1.7-3-4.2.6-1.9.9-2 2.8-.7 1.2.8 2.2 2.3 2.2 3.3zm42.4-1.2c.8 1 .7 2.3-.5 5.2l-1.6 3.9-1.9-2.4c-1.7-2.1-1.7-2.5-.4-5.2 1.7-3.2 2.7-3.6 4.4-1.5zm-9.4 6.5c-.7 3.3-2.1 3.6-3.8 1-.5-.8-.4-2.5.3-4.3 1-2.7 1.2-2.8 2.6-1.4 1.2 1.1 1.4 2.5.9 4.7zm16.5-1.6c0 .4-.9 2.6-2.1 4.8-2 3.9-2.1 4-3.9 2.4-1.5-1.3-1.7-2.2-1-3.6.6-1 1.4-2.9 2-4.4.9-2.2 1.2-2.4 3-1.3 1.1.7 2 1.6 2 2.1zm-43.5-.3c1 1.1 1.5 2 1.1 2-1.4 0-4.6-2.1-4.6-3 0-1.6 1.6-1.1 3.5 1zm18.5 2.4c-.5.5-1 1.7-1 2.6 0 .9-.6 2.4-1.3 3.3-1 1.5-1.5 1.6-3 .4-1.6-1.1-1.7-1.6-.6-4 1-2.1 1.7-2.6 3.3-2.1 2 .6 2 .6.3-1.3-2.2-2.5-1-3.9 1.5-1.6 1.3 1.1 1.5 2 .8 2.7zm28.4 6.8c-2.1 4.1-2.8 4.7-4 3.8-1.8-1.6-1.8-2.6.6-7.9 2-4.2 2.1-4.3 4-2.6 1.9 1.7 1.9 1.8-.6 6.7zM886 70c.8 1.5.7 2.7-.3 4.5-1.3 2.5-1.3 2.6-3 .7-1.5-1.6-1.6-2.4-.6-4.6 1.5-3.1 2.5-3.3 3.9-.6zm-9 1.5c2 2.4.6 2.8-1.5.5-1-1.1-1.3-2-.8-2 .6 0 1.6.7 2.3 1.5zm31 2.3c-.1.4-1.3 3.1-2.8 6-2.6 5-2.9 5.2-4.4 3.5-1.5-1.7-1.4-2.2.8-7.1 2.1-4.8 2.5-5.2 4.4-4.2 1.1.6 2 1.4 2 1.8zm-32 .7c1.2 1.4.5 5.5-.9 5.5-1.7 0-3.2-3-2.6-5 .8-2.4 1.8-2.5 3.5-.5zm15.1 5.1c-1.1 2.5-1.3 2.6-3.1.9-1.5-1.4-1.7-2.2-.8-4.7l1.1-3 2 2.1c1.8 1.7 1.9 2.4.8 4.7zm-8.6-2.6c1 1.1 1.6 2 1.3 2-.3 0-1.3-.9-2.3-2-1-1.1-1.6-2-1.3-2 .3 0 1.3.9 2.3 2zm-.3 5.2c-1.7 1.7-4.5-1.2-3.6-3.6.6-1.6.8-1.6 2.8.3 1.6 1.6 1.8 2.3.8 3.3zm13.7-1.8c.8 1 .8 2.1.1 4.1-1 2.6-1.1 2.7-3 1-1.5-1.4-1.7-2.1-.8-4.1 1.3-2.7 2.1-3 3.7-1zM870.3 88c7.9 4.5 8.6 5.4 6.5 8.3-1.1 1.5-1.8 1.6-4.5.5-1.7-.6-3.4-1.9-3.6-2.7-.2-.9-3.5-2.7-7.5-4.1-4-1.3-7.2-2.7-7.2-3.1 0-.3.5-2 1.1-3.8l1.1-3.1 3.2 1.8c1.7 1 6.6 3.8 10.9 6.2zm16.5-4.8c.7.7 1.2 1.8 1.2 2.5 0 1.1-.5 1.1-2 .3-1.1-.6-2-1.7-2-2.5 0-1.8 1.2-1.9 2.8-.3zm13.5 4.7c-.2 4.2-.9 4.9-3 2.8-1.4-1.3-1.5-2.1-.5-4.2 1.6-3.5 3.7-2.6 3.5 1.4zm-8.3.6c1.4 1.6 1 1.8-1.4.9-.9-.3-1.6-1-1.6-1.5 0-1.4 1.6-1.1 3 .6zm50 14.5c0 1.3-1.9 2.2-3 1.5-1.4-.9 0-3.4 1.6-2.8.8.3 1.4.9 1.4 1.3zm2.9 4.7c-1.5 1.8-3.4.1-2.5-2.2.5-1.4.9-1.5 2.1-.5 1.2 1 1.3 1.6.4 2.7zm-7.3 3.1c-1.6 3.2-3.4 4.8-4.2 3.9-.3-.3.4-2.4 1.6-4.7 1.5-2.8 2.5-3.9 3.2-3.2.6.6.4 2-.6 4zm10.4-1.4c0 .8-.4 1.8-1 2.1-.5.3-1-.3-1-1.4 0-1.2.5-2.1 1-2.1.6 0 1 .6 1 1.4zm-5.6.5c.8 1.3-2.6 7.1-4.1 7.1-1.8 0-1.6-1.7.4-5.1 1.8-3 2.8-3.5 3.7-2zm9.6 1.9c-.1 1.7-1.9 3.4-2.9 2.8-.8-.5-.8-1.3-.1-2.7 1-1.8 3-1.8 3-.1zm-7.7 4.9c-1.6 2.4-3.3 3.1-3.3 1.3 0-.6.7-2.2 1.7-3.6 1.1-1.8 1.8-2.2 2.4-1.3.4.7 0 2.3-.8 3.6zm9.7.3c-.8 1.5-1.5 1.9-2.2 1.2-.6-.6-.5-1.7.3-3.1 1.8-2.7 3.5-1 1.9 1.9zm-5.7-.4c.8.9-1.5 4.4-3 4.4-1 0-1-.6-.1-2.5 1.1-2.5 1.9-3 3.1-1.9zm8.5 3.3c-1.4 2.2-2.8 2.8-2.8 1.1 0-1.9 2.4-5 3.3-4.1.5.5.3 1.8-.5 3zM701 121.4c104.1 11.4 199.1 52.4 277.5 119.7 15.4 13.2 41.3 39.2 53.9 53.9 70.4 82.4 112 182.5 120.6 290.5 2.3 28.5 1.2 72.7-2.6 103-16.6 134.2-88.6 257.9-197.9 340-76.1 57.2-160.5 89.8-258 99.7-16.9 1.7-74.6 1.7-91.5 0-123.1-12.6-228.9-62.7-314.2-148.9-38.9-39.3-68-79.7-92.4-128.5-37.3-74.5-55-153.7-53.1-237.8 1.2-53.7 9.1-99.2 25.6-148.7 46.2-138.4 150.6-250.4 286-307 51-21.3 98.3-32.2 163.1-37.7 11.2-.9 69.3.3 83 1.8zm-380.6 13.7c1.1 1.8 1.4 2.9.9 2.6-.6-.4-2.3-1.1-3.8-1.7-2.3-.9-2.5-1.3-1.5-2.5 1.8-2.1 2.3-1.9 4.4 1.6zm-22.2 9.9c-5.4 9.6-8.3 13.2-9.7 12-1.1-.9-.8-2.2 1.5-7.3 1.5-3.4 3.3-8.6 4-11.5l1.2-5.2 2.8 3.7 2.8 3.8-2.6 4.5zm702.2-10.9c4.3 0 5.5.3 4.1.9-4 1.7-19.5.7-19.5-1.3 0-.6 1.8-.7 4.6-.3 2.6.3 7.4.6 10.8.7zM289.9 146c-2 5.3-3.5 7.8-4.1 7.2-.6-.6-.1-2.7 1.5-5.8 1.3-2.7 3-6.7 3.8-8.9.7-2.3 1.4-3.3 1.7-2.4.1.9-1.1 5.4-2.9 9.9zm32.9-6.3c1.4.6 1.6 1.9.3 2.8-.6.3-.8 2-.6 3.7.2 1.8-.1 3.8-.7 4.5-.8 1.1-1.6.6-3.5-1.9-3.4-4.4-5.4-9.3-4.7-11.2.5-1.4 1-1.4 4.2 0 2.1.9 4.3 1.8 5 2.1zm683.1-1.7c-.5.8-1.7 2.6-2.7 3.9-1.8 2.3-2.2 2.3-6.8 1.2-12.5-3-15.6-4.2-14.5-5.4.7-.9 4.7-1.2 12.9-1.2 10.4 0 11.9.2 11.1 1.5zm-13.1 5.7c7.1 1.7 9.5 3.3 4.7 3.3-1.3 0-5.8-.7-9.9-1.6-5.7-1.3-7.3-2-6.9-3.1.4-.9 1.4-1.3 2.7-.9 1.1.3 5.4 1.3 9.4 2.3zm-690.3 1.2c-.3.9-2.4 4.8-4.7 8.8-3 5.3-4.4 6.9-5.2 6-.9-.8 0-3.1 3.8-9.3 2.8-4.5 5.5-7.9 5.9-7.7.5.3.6 1.2.2 2.2zm5.9 6.3c2.2 3.2 3.2 5.4 2.5 5.7-.6.2-1.5-.3-2-1-.4-.7-1.1-1-1.5-.6-.4.4-1.3.2-2.1-.4-1-.9-1.9-.7-3.8.5-1.4.9-2.5 1.2-2.5.6 0-1.5 4.3-10 5.1-10 .3 0 2.3 2.4 4.3 5.2zm688.8-2.5c.9.5-6.2 10.3-7.4 10.3-.5 0-.7-1.7-.4-3.8.3-2.8-.1-4.3-1.7-6.1l-2.2-2.3 5.5.7c3 .4 5.8.9 6.2 1.2zm12.3 12.2c-.9 5.7-1.3 6.5-3 5.1-.9-.8-2.1-.6-4.3.7-2.4 1.4-3.4 1.5-4.3.6-2.3-2.3 8.6-13.3 11.4-11.6.5.3.6 2.6.2 5.2zm4.3-3.7c.7.9.5 2-.9 3.7l-1.9 2.3v-3.6c0-3.7 1-4.5 2.8-2.4zm-749.4 19.1c1.5 2.4-.3 3.5-2 1.3-.8-1.1-1.4-2.4-1.4-2.9 0-1.3 2.2-.3 3.4 1.6zm-4.4 1.2c.7.9 1 1.8.7 2.2-.8.7-3.7-1.5-3.7-2.8 0-1.4 1.6-1.1 3 .6zm-3.1 1.9c.9 1 .8 1.5-.3 1.9-1.4.5-3.6-1-3.6-2.5 0-1.3 2.7-.9 3.9.6zm-4.3 3.4c-.9.9-3.7-.8-3.1-1.8.5-.8 1.1-.7 2.1.1.8.6 1.2 1.4 1 1.7zm-4 .3c.3.6.1 1.6-.5 2.2-.9.9-1.4.8-2.1-.3-.9-1.5-.4-3 1-3 .5 0 1.2.5 1.6 1.1zm12.2 2c.7 1.2 1.1 2.3.8 2.7-.7.6-4.6-2.7-4.6-4 0-1.6 2.5-.8 3.8 1.3zm-16.3.8c.7 1.2-1.2 2.4-2.5 1.6-1.1-.7-.4-2.5 1-2.5.5 0 1.1.4 1.5.9zm12.9 1c1.2 1.3 1.4 2.1.6 2.6-1.1.7-5-2.1-5-3.7 0-1.5 2.7-.8 4.4 1.1zm-4 2c1.9 2 2.4 3.1 1.6 3.6-1.3.8-7.2-4.4-6.4-5.7.9-1.4 1.9-.9 4.8 2.1zm-3.5 2.7c3.6 4.5 2.5 6.2-1.4 2.4-1.9-1.9-3.5-3.8-3.5-4.2 0-1.8 3-.7 4.9 1.8zm-40 20.8c4.3 4.4 4.3 4.4 2.1 5.6-2 1.1-2.7.7-6.6-3.1-4.1-4-4.3-4.5-2.7-5.6 2.4-1.8 2.4-1.8 7.2 3.1zm-5.5 3.5 3.9 4-2.7.7c-2.2.5-3.4.1-6.1-2.6-2.7-2.6-3.2-3.7-2.4-4.7 1.8-2.1 3.2-1.6 7.3 2.6zm-6.8 2.7c3.9 3 4.2 3.9 1.4 5.4-1.6.8-2.6.4-5.6-2.2-3.3-3-3.5-3.3-1.8-4.5 2.3-1.7 2-1.7 6 1.3zm20 1.5c1.6 1.7 1.6 2.2.4 2.9-2.1 1.3-2.5 1.3-4.6-1.1-1.6-1.7-1.6-2.2-.4-2.9 2.1-1.3 2.5-1.3 4.6 1.1zm-23.1 4.9c.3.5-.4 1.4-1.5 2-1.6.9-2.6.6-5-1.1-2.8-2.1-2.9-2.4-1.4-4.1 1.6-1.7 1.8-1.7 4.5.3 1.6 1.1 3.1 2.4 3.4 2.9zm16.8-2.6c2.2 1.7 2.2 3.2-.2 3.9-2.4.6-7.1-3.8-4.9-4.6 2.1-.9 3.2-.7 5.1.7zm-5.9 3.5c1.7 1.9 1.7 2-.4 3.1-1.9 1-2.6.9-4.4-.9-1.8-1.9-1.9-2.3-.6-3.1 2.2-1.4 3.5-1.2 5.4.9zm-19.6 1.4 2.2 2.4-2.4 1.1c-2 .9-2.7.7-4.6-1.3-2.1-2.2-2.1-2.4-.3-3.4 2.5-1.4 2.7-1.4 5.1 1.2zm12.8 1.8c1.6 1.7 1.6 2.2.4 2.9-2.2 1.4-3.5 1.2-5.4-.9-1.7-1.8-1.7-2 .1-3 2.5-1.4 2.7-1.4 4.9 1zm16.1-.4c-.9.9-2 1.3-2.4.9-.4-.4-.1-1.1.7-1.6 2.5-1.6 3.5-1.1 1.7.7zm-35.6 2.9c1 1.3 1 1.7-.2 2.5-3.2 2-6.1 0-3.9-2.6 1.6-1.9 2.4-1.9 4.1.1zm31.7-.4c-.6 1.7-3.6 3.4-4.5 2.4-.4-.4.1-1.4 1.1-2.2 2.4-1.7 3.9-1.8 3.4-.2zm-18.5 1.6c1.5 1.6 1.5 1.9-.4 3.1-1.8 1-2.4 1-4.2-.6-1.2-1-2.4-1.9-2.7-2.1-.7-.5 2.4-2.2 4.1-2.2.9 0 2.3.8 3.2 1.8zm9.7-.3c0 .2-1 .9-2.2 1.5-2.2 1.1-2.2 1-.4-.4 2.1-1.7 2.6-1.9 2.6-1.1zm-16.4 4.7c.4.6-.1 1.7-1.1 2.4-1.6 1.2-2.2 1.1-4.2-.8-2.2-2.1-2.3-2.3-.7-3.5 1.8-1.3 4.6-.4 6 1.9zm19.8-2.3c.3.4-.3 1.6-1.3 2.5-1.7 1.5-1.9 1.5-3.1 0-1.2-1.3-1.1-1.7.1-2.5 1.8-1.1 3.6-1.1 4.3 0zm-32.9 1.1c.3.6-.6 1.5-2 2-3.7 1.4-4 1.3-2-1 2-2.2 3.1-2.5 4-1zm21.9 1.5c-1 .8-2.3 1.4-2.9 1.4-.5 0-.1-.6.9-1.4 1.1-.8 2.4-1.5 3-1.5.5 0 .1.7-1 1.5zm-17.6 2.1c2.9 2 2.8 2.8-.4 4.3-2.3 1-3 .9-5.1-1.1l-2.4-2.2 2.3-1.3c2.9-1.6 2.9-1.6 5.6.3zm22.3-.5c1.6.8 1.8 1.3.8 2.5-1.5 1.8-3.3 1.8-4.9-.1-2.3-2.8.4-4.4 4.1-2.4zm-11.5 2.4c-2.3 1.7-3.6 1.9-3.6.6 0-1.1 1.8-1.9 4-2 1.1 0 1 .3-.4 1.4zm-18.8 2.4c2.8 2.4 2.8 2.6-.8 4.1-2.5 1.1-3.4 1-5.7-.5l-2.7-1.8 2.3-1.8c2.9-2.3 4-2.3 6.9 0zm24.6-.1c1.5 1.8 1.5 2-.2 3.5-1.7 1.6-2 1.5-4.3-.9-2-2.1-2.1-2.7-.9-3.4 2.2-1.4 3.5-1.2 5.4.8zm23.1.2c1.7 1.9 1.7 2-.7 4.8-1.3 1.6-2.9 2.7-3.5 2.5-.7-.3-3.3 2.3-5.9 5.6-2.6 3.4-5 6.1-5.4 6.1-.5 0-1.8-.9-3.1-2l-2.4-2 8.9-8.5c5-4.7 9.3-8.5 9.6-8.5.4 0 1.5.9 2.5 2zm-36.4 2.2c-2.2 1.7-4.1 1.7-4.1-.1 0-1.1 4.3-3 5.4-2.3.5.3-.1 1.3-1.3 2.4zm6.8 2.2c2.3 2.4 2.3 2.4.3 3.5-2.7 1.5-3.3 1.4-6.1-1-2.3-1.9-2.3-2-.5-3.4 2.7-2 3.7-1.9 6.3.9zm-13 0c.9 1 .6 1.7-1.4 3s-2.8 1.4-4.5.4c-1.9-1.2-1.8-1.3 1.3-3 1.7-.9 3.3-1.7 3.3-1.8.1 0 .7.6 1.3 1.4zm-14.1.8c1.7 1.7 1.5 2.3-1.5 3.7-3.6 1.6-5.3-.1-2.8-2.9 2.1-2.3 2.7-2.4 4.3-.8zm19.8 3.7 2.5 1.9-2.3 1.6c-1.2.9-2.7 1.6-3.3 1.6-1.2-.1-6-3.9-5.4-4.4 1-.8 4.5-2.5 5.2-2.6.5 0 2 .9 3.3 1.9zm-14.3.6c1.8 1.3 1.7 1.4-.6 3-2 1.3-3 1.4-4.6.5-2.7-1.4-2.6-2.4.2-3.8 2.9-1.4 2.9-1.4 5 .3zm-12.9 1.4c.3.4-.6 1.3-2 2-3.5 1.6-4 1.4-1.9-.9 2-2.2 3.1-2.5 3.9-1.1zm6.6 5c0 .3-.9 1.2-2.1 1.9-1.7 1.1-2.5 1.1-4.5-.3-3-1.9-3-2.9-.1-4.2 1.6-.7 2.8-.6 4.5.5 1.2.8 2.2 1.7 2.2 2.1zm11.8-2.3c2.8 1.9 2.8 2.8-.2 4.4-2.1 1.1-2.8 1-5-.8l-2.6-2 2.3-1.5c2.8-2 2.8-2 5.5-.1zm11.2.9c-.7.8-2 1.5-2.9 1.5-1.2 0-1-.5.9-2 2.8-2.1 3.9-1.8 2 .5zm-17.2 6.3c.2.6-.6 1.6-1.8 2.2-1.7.9-2.5.7-4.6-.9l-2.5-1.9 2.3-1.6c1.9-1.3 2.5-1.4 4.2-.3 1.1.8 2.2 1.9 2.4 2.5zm12.1-2.5c.8 1.1.6 1.8-.8 3.1-1.6 1.5-2.3 1.6-4.2.5l-2.3-1.2 2.3-1.8c2.8-2.3 3.5-2.3 5-.6zm-7.4 5.3c2 1.3 2.2 1.9 1.2 3.5-1.5 2.4-2.5 2.4-5.7-.1-2.5-1.9-2.5-1.9-.5-3.4 2.5-1.9 2.1-1.9 5 0zM1198 399.9c0 1-12.1 6.4-12.8 5.6-.8-.7-.3-1 6.3-3.9 7.1-3 6.5-2.8 6.5-1.7zM79.2 484.1c4.9 1 8.8 2.9 6.1 2.9-2.3 0-11.8-2.4-12.7-3.2-1.3-1.1.2-1 6.6.3zM1251 626.5c0 .2-.5 1.6-1.2 3-.9 2-1.7 2.5-3.2 2.1-1.2-.3-2.4-.6-2.8-.6-.5 0-.8-1.1-.8-2.5 0-2.3.4-2.5 4-2.5 2.2 0 4 .2 4 .5zm8-.1c0 .3-.4 1.6-1 3-.7 2-1.6 2.6-4 2.6-3.2 0-3.6-.9-2-4.1.7-1.2 2.1-1.9 4-1.9 1.7 0 3 .2 3 .4zm8 .7c0 2.7-2.2 4.9-5 4.9-3.4 0-3.4.1-2-3.4.7-2 1.6-2.6 4-2.6 1.6 0 3 .5 3 1.1zm3 1.1c0 1.9-1.8 4.3-2.5 3.6-.4-.3-.2-1.6.5-2.7 1.2-2.4 2-2.7 2-.9zm-22 6.3c0 .2-.5 1.6-1.2 3-1.5 3.2-4.8 3.4-4.8.2 0-1.3.3-2.7.7-3 .7-.8 5.3-1 5.3-.2zm8 .5c-.1 3.7-1.4 5-5.1 5h-4l1.6-3c1.3-2.5 2.1-3 4.5-2.8 1.7.1 3 .5 3 .8zm7 .8c0 1.5-3.2 5.2-4.5 5.2-1.9 0-2.5-1.3-1.8-3.8.4-1.6 1.3-2.2 3.4-2.2 1.6 0 2.9.3 2.9.8zm5 .6c0 2.8-1.2 4.6-3.1 4.6-2.1 0-2.4-1.2-.9-4.1 1.2-2.2 4-2.6 4-.5zm-24.5 8.8c-.4 1.3-1.2 2.7-1.8 3.3-.7.7-.8.4-.3-.8.3-1 .6-2.5.6-3.3 0-.8.5-1.4 1.1-1.4.6 0 .8.9.4 2.2zm9.5-1.7c0 .4-.6 1.9-1.4 3.4-1.2 2.3-2 2.7-4.5 2.3-3.3-.5-3.7-1.2-2.1-4.3.8-1.3 2.1-1.9 4.5-1.9 1.9 0 3.5.2 3.5.5zm6 .1c0 1.8-3.7 6.4-5.2 6.4s-1.6-.4-.7-2.6c.5-1.5 1.2-3.1 1.5-3.5.6-1 4.4-1.2 4.4-.3zm8 1c0 .2-.5 1.5-1.2 2.9-.9 2-1.8 2.5-4.9 2.5h-3.8l1.9-3.3c1.7-2.9 2.4-3.3 5-2.9 1.6.2 3 .6 3 .8zm-18.3 10.4c-1.1 3-3.2 3.7-6.8 2.2-1.2-.5-1.4-1.3-.8-3 .7-1.8 1.6-2.2 4.8-2.2h3.9l-1.1 3zm5.3-2.5c0 1.6-2.5 5.5-3.6 5.5-1 0-1.1-.7-.3-3 .6-1.7 1.7-3 2.5-3s1.4.2 1.4.5zm-24 2.4c0 1.8-3.6 20.6-4.4 22.7-.2.6-1.8.9-3.4.6-2.9-.4-3-.6-2.5-4.1.4-2 1-3.9 1.5-4.2.6-.3 1.2-4.3 1.5-8.8l.6-8.1h3.3c2.7 0 3.4.4 3.4 1.9zm31.2 1.1c-1 1.7-2.3 2.8-3 2.5-.8-.3-2.2-.5-3.3-.5-1.6 0-1.7-.3-.7-2.5.9-2 1.8-2.5 4.9-2.5h3.8l-1.7 3zm2.9 2.3c-1.8 1.8-2.3.1-.9-2.9 1.3-2.8 1.3-2.8 1.6-.5.2 1.3-.1 2.8-.7 3.4zm-18.1 2.6c0 2.6-1.5 4.1-3.9 4.1-3.4 0-4-.6-3.4-3.1.4-1.4 1.4-1.9 3.9-1.9 1.9 0 3.4.4 3.4.9zm3 2.1c-.6 1.1-1.5 2-2.1 2-.6 0-.6-.7.1-2 .6-1.1 1.5-2 2.1-2 .6 0 .6.7-.1 2zm9-1.4c0 2-2.4 4.4-4.5 4.4-2.8 0-3.8-1.2-2.9-3.4.4-1 1.8-1.6 4-1.6 1.9 0 3.4.3 3.4.6zm5.3 2.4c-.3 1.3-1.4 2-2.9 2-2.6 0-2.7-.1-1.8-2.4.3-.9 1.6-1.6 2.9-1.6 1.8 0 2.2.4 1.8 2zm-21.5 3.8c2 1.3.3 4.2-2.4 4.2-1.7 0-2.4-.6-2.4-1.8 0-3.1 2.1-4.1 4.8-2.4zm3.6 2.6c-.3.9-1 1.6-1.5 1.6-.6 0-.5-.9.1-2.1 1.3-2.4 2.4-2 1.4.5zm8-1.5c1.3 2.1-.7 4.1-4 4.1-3.7 0-3.9-.2-2.4-3.1 1.1-1.9 5.4-2.6 6.4-1zm8.2 1.7c-.3.9-.6 2-.6 2.5s-1.6.9-3.5.9c-3.8 0-4-.2-2.5-3.1 1.4-2.5 7.6-2.8 6.6-.3zm-22 6.1c-.3.8-.6 1.7-.6 1.9 0 .2-.7.4-1.5.4-1.5 0-2.1-3.1-.9-4.3 1.1-1.1 3.5.5 3 2zm2.4.3c-.6 1.1-1.3 2-1.6 2-.2 0 0-.9.6-2s1.3-2 1.6-2c.2 0 0 .9-.6 2zm7.4-1.4c2.5 1-.3 4.4-3.6 4.4-2.9 0-3.3-.6-2.2-3.4.6-1.6 3-2.1 5.8-1zm9.8 1c.3.3.4 1.4.1 2.5-.4 1.4-1.4 1.9-4.2 1.9-4.6 0-5.3-.6-3.8-3.1 1.1-1.8 6.6-2.7 7.9-1.3zm-22.4 6.9c-1.3 2.9-2.8 3.3-2.8.7 0-2.2.8-3.2 2.6-3.2 1.1 0 1.1.5.2 2.5zm10.2-.7c0 2.4-2.7 4.3-5.3 3.7-2.2-.6-2.5-1-1.6-2.6 1-1.9 6.9-2.8 6.9-1.1zm10.8.8c.2.1.1 1.2-.3 2.4-.6 2-1.2 2.2-5.3 1.6-5.5-.7-5.7-.9-4.3-3.4.9-1.7 1.8-1.9 5.3-1.5 2.4.3 4.5.7 4.6.9zm-23.9 6.5c-1.3 2.6-2.3 1.8-1.4-1 .3-1.2 1.1-1.9 1.6-1.6.5.4.5 1.4-.2 2.6zm9.4-1.5c1.1 1.2-1.8 4.4-4 4.4-2.8 0-3.8-1.7-2.3-3.5 1.2-1.5 5.1-2 6.3-.9zm12.4 1.8c.1.1 0 1.2-.4 2.4-.5 2-1 2.2-4.2 1.7-8.2-1.4-8.2-1.3-6.8-3.6 1-1.8 1.8-2 6.2-1.4 2.7.3 5.1.7 5.2.9zm-15.7 4.5c0 3.6-2.8 5.1-5.8 3.3-2.2-1.4-.2-4.2 2.9-4.2 1.6 0 2.9.4 2.9.9zm13.8 1.6c.2.2.1 1.3-.3 2.4-.5 1.8-1.2 2-4.8 1.5-8.6-1.1-8.9-1.2-7.6-3.6 1-1.8 1.7-2 6.7-1.4 3.1.4 5.8.8 6 1.1zm-22.9 42c.1.2 0 .9-.4 1.5-.9 1.4-6.5.3-8.5-1.7-1.3-1.4-1-1.4 3.5-.8 2.8.4 5.2.8 5.4 1zm5.1 2c0 .8-.7 1.5-1.5 1.5s-1.5-.7-1.5-1.5.7-1.5 1.5-1.5 1.5.7 1.5 1.5zm-6.7 2.5c1.5 1.3-1.3 2.2-4.9 1.6-2.1-.4-3.4-1.3-3.4-2.2 0-1.2.8-1.4 3.8-.8 2 .3 4.1 1 4.5 1.4zm5.1.8c.2.4.1 1.4-.3 2-1 1.7-4.1.4-3.4-1.4.6-1.5 2.9-1.9 3.7-.6zm-9 2.8c2.2.9 2 2.4-.3 2.4-2.6 0-5.1-1-5.1-2.1 0-1 3.1-1.2 5.4-.3zm6.6 2.4c0 .5-.7 1-1.5 1s-1.5-.5-1.5-1c0-.6.7-1 1.5-1s1.5.4 1.5 1zm-8.1 1.9c.7.5.9 1.1.4 1.4-1.3.8-5.3-.3-5.3-1.4 0-1.1 3.1-1.1 4.9 0zm6.9 2.2c-.2.6-.7 1-1.1 1-.4-.1-1.4-.1-2.3-.1-.8 0-1.2-.5-.9-1 .8-1.3 4.8-1.3 4.3.1zm-3.4 2.5c2.2.9 2 2.4-.3 2.4-2.1 0-3.4-1.3-2.4-2.4.8-.7.8-.7 2.7 0zm-1.1 4c1.2 1.3-.3 2.1-2.8 1.7-1.3-.3-2.2-.9-1.9-1.4.6-1 3.8-1.2 4.7-.3zM89.6 785.5c.4.9 1.1 1.5 1.8 1.4 3.7-.4 5.6.2 5.6 2 0 2.5-10.9 5.7-14 4.1-1.1-.6-2-1.3-2-1.5 0-.9 6.3-7.5 7.1-7.5.5 0 1.2.7 1.5 1.5zm-7.2 1.7c-1 1.3-2 2.5-2.2 2.8-.3.5-2.2-2.1-2.2-3.2 0-.6 1.8-1.1 5.4-1.7.5 0 .1.9-1 2.1zm1129.9 13.5c.4 5.3.5 9.9.2 10.1-.9 1-2.4-4.9-3.1-12.2-.6-6.4-.4-7.6.8-7.6 1.2 0 1.6 2.1 2.1 9.7zm4.7-9c.1 3.2 3.2 14.9 4.9 18.2 2.4 4.6 2.4 4.6-3.1 2.9-4.4-1.3-4.4-1.4-5.3-13.6-.5-7.8-.4-8.2 1.5-8.2 1.1 0 2 .3 2 .7zm5.3 9.3c.8 4.1 1.8 8.4 2.2 9.5.6 1.6.5 1.7-.4.5-1.6-2.2-5.1-13.7-5.1-16.8 0-4.6 1.7-1 3.3 6.8zm-13.9 2.1c.4 2.8.5 5.3.2 5.6-.6.7-11.6-2.9-11.6-3.8 0-.4 1.8-1 3.9-1.4 3-.5 4.1-1.2 4.5-3.1 1-3.9 2.3-2.8 3 2.7zM99 801.5c0 .8-.7 1.5-1.6 1.5-.8 0-1.3.4-.9.9.3.6-.2 1.4-1 1.9-1.3.6-1.4 1.4-.6 3.5.6 1.4.7 2.9.2 3.1-1 .7-8.4-7.4-7.6-8.3.6-.6 9.3-3.9 10.8-4 .4-.1.7.6.7 1.4zm-7.8 9.7c5.3 5.8 6.6 8.3 4.2 8.3-1 0-12.4-12.9-12.4-14 0-1.9 3.2.4 8.2 5.7zm-5.7 0c2.5 2.8 5.5 6.4 6.6 8 1.8 2.5 1.9 2.9.5 3.4-1 .4-3.1-.7-5.6-3-2.2-1.9-6.5-5.2-9.6-7.3l-5.6-3.7 3.9-1.2c2.1-.7 4.1-1.2 4.5-1.3.3-.1 2.7 2.2 5.3 5.1zm-7.2 3.2c6 4 11.7 9.6 9.7 9.6-.7 0-3.4-1.9-5.9-4.3-2.5-2.3-5.9-5.2-7.6-6.4-4.8-3.5-1.9-2.6 3.8 1.1zm1122.5 2.7c4.3 1.9 6.2 4.3 4.6 5.9-.5.5-3.1 1.2-5.8 1.6-4.5.6-4.9.5-4.2-1.1.5-1.3-.1-2.5-1.9-4.1-1.6-1.4-2.3-2.7-1.9-3.8.7-1.8 1.8-1.6 9.2 1.5zm5.5 9.8c-.4 1.7-.9 1.8-3.5.9-2.2-.8-2.6-1.3-1.6-1.9.7-.5 2.3-.9 3.5-.9 1.6 0 2 .5 1.6 1.9zM106 851.8c0 .5-1.1 1.4-2.5 2-2 .9-2.5.9-2.5-.2 0-1.4 1.4-2.4 3.8-2.5.6-.1 1.2.3 1.2.7zm-1.5 5.9c-2.4 1.7-3.5 1.7-3.5-.1 0-.8.8-1.6 1.8-1.9 2.7-.6 3.7.5 1.7 2zm8.5.1c0 .5-1.1 1.4-2.5 2-2 .9-2.5.9-2.5-.2 0-1.4 1.4-2.4 3.8-2.5.6-.1 1.2.3 1.2.7zm-7 2.7c0 .8-.2 1.5-.4 1.5s-1.1.3-2 .6c-1 .4-1.6.1-1.6-.9 0-1.4 1.3-2.4 3.3-2.6.4-.1.7.6.7 1.4zm6.7 3.2c-1.2.7-2.8 1.2-3.4 1.3-2.2 0-1.4-1.9 1.4-3.4 3.5-1.8 5.4.2 2 2.1zm-6.7 1.2c0 1.2-2 2.5-2.7 1.8-.7-.7.6-2.7 1.8-2.7.5 0 .9.4.9.9zm7.4 3.4c-3.3 1.7-5.4 1.6-5.4-.3 0-.4 1.7-1.5 3.8-2.3 5.1-2 6.5.1 1.6 2.6zm-6.4 1.1c0 1.6-1.8 3.1-2.7 2.2-.8-.8.5-3.6 1.7-3.6.5 0 1 .6 1 1.4zm12 .4c0 .4-1.7 1.4-3.7 2.2-2.1.8-4.1 1.6-4.5 1.8-.5.2-.8-.3-.8-1.1 0-.9 1.2-2 2.8-2.5 3.4-1.3 6.2-1.5 6.2-.4zm-11.2 4.9c-.5 2.5-2.8 2.8-2.8.4 0-1.2.6-2.1 1.6-2.1.9 0 1.4.7 1.2 1.7zm26.2 36.9c0 .9-4.1 3.4-5.5 3.4-.3 0-.5-1.1-.5-2.3 0-2.7 4-5.2 5.2-3.3.4.6.8 1.6.8 2.2zm-7 2.6c0 1.7-1.3 3-5.1 5.1-5.5 3.1-5.4 3.1-6.3.2-.5-1.6.3-2.5 4.2-4.6 5.9-3.3 7.2-3.5 7.2-.7zm11.3 3.1c-.7 1.1-2.3-1.2-2.3-3.3.1-1.2.4-1.1 1.5.4.8 1 1.2 2.3.8 2.9zm-4-.3c.5 1.9-2.4 5-4.5 5-1.6 0-.8-4.9 1-5.9 2.4-1.5 2.9-1.4 3.5.9zm23.2 3c.9 1.7 1.3 3.5 1 4-.4.6 1.4 4 3.9 7.6 2.5 3.6 4.6 6.6 4.6 6.8 0 .1-1.4 1.2-3 2.5l-3.1 2.2-4.9-10.6c-2.8-5.8-5-11.2-5-12 0-1.3 2.6-3.4 4.2-3.5.4 0 1.5 1.4 2.3 3zm-29.5 1.7c0 1.1-8.8 6.8-9.5 6.1-.1-.1-.5-1.2-.9-2.3-.5-1.6.3-2.5 4.2-4.5 4.5-2.5 6.1-2.3 6.2.7zm12.5-.7c.7 2.3-.2 4.3-1.6 3.5-1.2-.8-1.2-5.5 0-5.5.5 0 1.2.9 1.6 2zm-5.5 1.9c0 .5.2 1.6.5 2.3.5 1.2-3 3.8-5 3.8-1.4 0-.2-5 1.3-5.9 2.2-1.3 3.2-1.4 3.2-.2zm-6.1 6.6c.1 1-7.8 6-8.4 5.3-.2-.2-.5-1.3-.7-2.6-.2-1.8.6-2.8 3.7-4.5 4-2.3 5.2-1.9 5.4 1.8zm14-1.6c.8 1.5.7 2-.5 2.5-2.1.8-2.1.8-2.7-1.3-.9-3.4 1.6-4.3 3.2-1.2zm-6.9 2c0 .5.2 1.5.5 2.3.3.8-.7 2.1-2.5 3.1l-3 1.8v-2.7c0-1.5.8-3.3 1.8-4 2-1.6 3.2-1.8 3.2-.5zm10.3 4.1c.3 1.3-.3 2.4-1.8 3.4-2.2 1.5-2.4 1.4-3.1-.6-.4-1.5-.1-2.6 1.2-3.5 2.4-1.8 3.1-1.6 3.7.7zm-16.9.6c1 2.7.7 3.3-2.5 4.9-3.4 1.8-3.4 1.8-4.3-1-.4-1.5.1-2.4 2.2-3.7 3.5-2.1 3.9-2.1 4.6-.2zm10.8 2.9c.3 1.4.1 2.5-.3 2.5-.5 0-.9-1.1-.9-2.5s.2-2.5.4-2.5.6 1.1.8 2.5zm-2.2 1.6c0 2.2-2.5 4.8-4.7 4.9-1.9 0-1.5-4.8.5-5.9 2.7-1.6 4.2-1.3 4.2 1zm11.4 1.6c.7 1.8-3 5.5-4.9 4.9-2.1-.6-1.6-4.2.7-5.4 3.2-1.5 3.5-1.4 4.2.5zm-18.4 2.8c0 1.5-.8 2.9-2.2 3.6-1.8 1-2.4.8-3.5-.7-1.2-1.6-1.1-2.1.9-3.6 3.2-2.4 4.8-2.2 4.8.7zm11 2.1c0 1.4-.4 2.3-1 1.9-.5-.3-1-1.5-1-2.6 0-1 .5-1.9 1-1.9.6 0 1 1.2 1 2.6zm-3 1.7c0 2.3-3.4 5.2-5 4.2-1.8-1.1-1-4.2 1.3-5.3 3.2-1.6 3.7-1.4 3.7 1.1zm12.8 1.8c.2 1.8-.5 2.9-2.7 4.2l-3 1.8-.7-2.7c-.5-2.1-.2-3.1 1.7-4.5 3-2.3 4.3-2 4.7 1.2zm-19.8 2.3c0 3.3-2 4.4-3.7 2-1.2-1.6-1.1-2 .4-3.1 2.5-1.9 3.3-1.6 3.3 1.1zm12.2 2.1c.3 1.4.1 2.8-.4 3.1-1.2.8-1.4.5-2.2-2.9-.5-2-.3-2.7.8-2.7.7 0 1.6 1.1 1.8 2.5zm-3.7 2.2c.5 2.1.1 3.1-1.7 4.5-3.1 2.4-3.5 2.3-4.1-1-.4-2-.1-3.2 1.5-4.5 2.8-2.3 3.5-2.2 4.3 1zm16.5 2c0 .7-.4 1.3-1 1.3-.5 0-1-.6-1-1.4 0-.8-.3-2.3-.6-3.3-.5-1.6-.4-1.6 1 .1.9 1.1 1.6 2.6 1.6 3.3zm-3 .9c0 1.2-1.1 2.9-2.6 3.9-3 1.9-3 1.9-3.8-2-.6-2.6-.2-3.3 2.1-4.7 3-1.8 4.3-1 4.3 2.8zm-20.8 1.4c.5 3.4-.7 4.1-1.7 1-.5-1.7 0-4 .9-4 .2 0 .6 1.3.8 3zm13.3 2.1c.5 2.2.3 3.4-.6 4-2.4 1.5-2.9 1-2.9-2.4 0-5.5 2.4-6.6 3.5-1.6zm14.6 1.1c1 1.8.8 2.4-.6 3.4-2.3 1.7-3.5.9-3.5-2 0-4.1 2.3-4.8 4.1-1.4zM142 966c0 1.8-.8 3.4-2.2 4.4-2.5 1.8-3.3 1.3-4.2-2.6-.5-2.3-.2-3 2.1-4.2 3.4-1.8 4.3-1.3 4.3 2.4zm14-.6c0 .8.2 2 .5 2.8.3.8-.7 2.1-2.5 3.1l-2.9 1.8-.7-2.7c-.6-2.1-.2-3.1 1.6-4.6 2.7-2.2 4-2.3 4-.4zm10 6.7c0 .4-1.3 1.7-2.9 2.8l-2.9 2.1-.7-2.7c-.5-2.1-.1-3.1 1.7-4.5 2.1-1.6 2.4-1.6 3.6-.1.6.9 1.2 2 1.2 2.4zm-16.7-.4c.5 2.5-1.3 5.2-3.4 5.3-1.3 0-2-5.2-.8-6.6 1.8-2.2 3.6-1.6 4.2 1.3zm-6.5 7.4c-.9.6-1.7 0-2.7-1.8-1.2-2.4-1.1-2.8.5-4 1.7-1.2 2-1.1 2.7 1.8.6 2.3.5 3.4-.5 4zm15.6-3.9c.4 1.6 0 2.8-1.5 4-2.8 2.3-3.5 2.3-4.3-.5-.4-1.5 0-2.7 1.5-4 2.8-2.2 3.5-2.2 4.3.5zm-6.4 6c0 1.6-3.5 4.8-5.2 4.8-1.9 0-.7-5.8 1.5-7.3 2.4-1.6 3.7-.7 3.7 2.5zm-7 4.6-.1 2.7-1.3-2.5c-1.5-2.5-1.2-4.5.5-3.5.5.4.9 1.8.9 3.3zm887 91.2c0 .8-2-.8-4.5-3.5-2.4-2.8-4.4-5.7-4.5-6.5 0-.8 2 .8 4.5 3.5 2.4 2.8 4.4 5.7 4.5 6.5zm-688 40.5c0 .4-5.7 10.2-6.7 11.4-.2.2-.6.2-.9-.2-.7-.7 5.7-11.7 6.8-11.7.5 0 .8.2.8.5zm455.9 65.7c.6 1.7 1 3.2.9 3.3-.6.6-17.5 2.5-21.3 2.5-3.5 0-4.4-.4-4.8-2.2-.3-1.2-.4-2.5-.2-2.8.8-1.3 6.8-2.1 7.5-.9.5.7 2.7.4 7.1-.9 8.8-2.8 9.5-2.7 10.8 1zm32 10.9c1.4 4.1 1.5 3.9-1.4 3.9-1.8 0-2.8-.7-3.5-2.6-1.2-3-.6-4.4 2-4.4 1.1 0 2.2 1.2 2.9 3.1zm-7.9 1.6c0 .8-1.3 1.3-3 1.3-1.6 0-3-.5-3-1 0-.6 0-1.3-.1-1.8 0-.4 1-1 2.3-1.3 2.3-.5 3.8.5 3.8 2.8zm-9 .3c0 1.2-1.7 1.2-4.5 0-1.7-.7-1.5-.9 1.3-.9 1.7-.1 3.2.3 3.2.9zm-17 2.2c0 .7.3 2.3.6 3.5.5 1.9.2 2.3-1.9 2.3-1.9 0-2.6-.6-3-2.7-.3-1.6-.3-3.1 0-3.5.7-1.3 4.3-.9 4.3.4zm8.9 1.9c1.6 4.6 1.4 5-1.6 4.3-3.5-.8-3.2-.6-4.3-4.3-.8-3-.7-3.1 2-3.1 2.2 0 3 .6 3.9 3.1zm-16.5-.5c1 2.7.7 3.4-1.8 3.4-1.7 0-2.5-.7-2.8-2.5-.4-2.1-.1-2.5 1.7-2.5 1.3 0 2.6.7 2.9 1.6zm25.6 1c1.5 3.8 1.3 4.4-1.9 4.4-3.3 0-3.5-.2-4.5-4.3-.6-2.5-.4-2.7 2.4-2.7 2.4 0 3.3.6 4 2.6zm9.9 1.5c1 2.8.9 2.9-2.5 2.9-2 0-3.4-.5-3.4-1.3 0-.6-.3-2.1-.6-3.3-.5-1.8-.2-2 2.5-1.6 2.2.3 3.2 1.2 4 3.3zm-56.4-2.1c.4.6-.6 1-2.2.9-2.5 0-2.6-.1-.8-.9 1.1-.5 2.1-.9 2.2-.9.1-.1.5.3.8.9zm7.3.7c.2.8-.6 1.3-2.2 1.3-2.6 0-4-1.2-2.9-2.4 1.1-1.1 4.6-.2 5.1 1.1zm6.2-1.3c0 .2.3 1.1.6 2 .4 1.1 0 1.6-1.4 1.6-2.1 0-4.6-2.3-3.5-3.3.7-.8 4.3-1 4.3-.3zm51 1.5c1.8 3.4 1.2 5.2-1.5 4.8-2.9-.4-3-.5-3.9-4-.6-2.4-.4-2.7 1.8-2.7 1.5 0 3 .8 3.6 1.9zm-198 5c0 4.2-.5 6.5-1.9 8.2l-1.8 2.3-2.7-4.6c-3.1-5.3-3.3-6.8-.7-6.8 1.2 0 2.1-.9 2.5-2.5.4-1.6 1.3-2.5 2.6-2.5 1.8 0 2 .7 2 5.9zm12-2.9c0 1.1.5 2 1 2 .6 0 1 .7 1 1.5 0 1 1 1.5 3 1.5 1.7 0 3 .4 3 .8 0 .7-8.2 5.2-9.5 5.2-.3 0-.5-2.9-.5-6.5 0-3.7.4-6.5 1-6.5s1 .9 1 2zm115.6.4c.1 0 .4 1.3.8 2.8.4 2 .2 2.8-.6 2.8-2.2 0-3.6-1.4-4.4-4.4-.6-2.6-.5-2.8 1.7-2.1 1.3.4 2.4.8 2.5.9zm7.2 4c.3 2.4 0 2.7-2 2.4-1.8-.2-2.4-1-2.6-3.5-.3-3-.2-3.2 2-2.4 1.5.5 2.4 1.8 2.6 3.5zm-50.9 3.8c0 1-.6 1.8-1.4 1.8-1.1 0-1.5-1.1-1.5-3.8 0-7 2.4-5.3 2.9 2zm63.4-6.5c-.7.2-1.9.2-2.5 0-.7-.3-.2-.5 1.2-.5s1.9.2 1.3.5zm-77.1 3.3c.3 2 0 3-.9 3-1.3 0-1.8-4.1-.6-5.3 1-1 1-.9 1.5 2.3zm9 .7c.6 4.4.4 4.8-1.7 4-2-.8-2.1-7.7-.1-7.7.8 0 1.6 1.4 1.8 3.7zm62.1-3c.2.5.7 2 1.1 3.5.6 2.5.4 2.6-2.1 1.9-1.8-.5-2.9-1.6-3.4-3.4-.6-2.4-.4-2.7 1.6-2.7 1.3 0 2.6.3 2.8.7zm14 0c-.7.2-2.1.2-3 0-1-.3-.4-.5 1.2-.5 1.7 0 2.4.2 1.8.5zm8.2.3c.4.6-.5 1-1.9 1s-2.6-.5-2.6-1c0-.6.9-1 1.9-1 1.1 0 2.3.4 2.6 1zm-88.7 3.3c.2 1.9-.1 2.7-1.2 2.7-1.1 0-1.6-1-1.6-3.1 0-3.8 2.4-3.5 2.8.4zm73.5-2.6c.2.5.7 2 1.1 3.5.7 3.2-1.2 3.8-3.8 1.2-2.3-2.2-2.1-5.4.3-5.4 1.1 0 2.2.3 2.4.7zm24.7.8c0 1.7-.4 1.8-3.7.9-3.3-.9-2.8-2.4.7-2.4 2 0 3 .5 3 1.5zm9 .4c1.5 2.9 1.3 3.1-2.2 2.4-5.3-1-6.6-4.3-1.8-4.3 1.9 0 3.3.7 4 1.9zm-27.4-.3c1.5.4 2.3 1.6 2.6 3.5.4 2.7.2 3-2.1 2.7-2-.2-2.7-1-3.2-3.6-.7-3.4-.6-3.5 2.7-2.6zm37.7 2c.4 2.3.2 2.5-2.6 2.2-2-.2-3.2-1-3.8-2.6-.8-2-.5-2.2 2.5-2.2 2.8 0 3.4.4 3.9 2.6zm8.6.6c.6 1.7 1 3.2.9 3.4-.2.1-1.5 0-3-.3-1.8-.3-3-1.4-3.7-3.4-.9-2.8-.9-2.9 1.9-2.9 2.3 0 3 .6 3.9 3.2zm-172.9 1c0 .5-.5.8-1.1.8-.6 0-4.4 1.3-8.6 3-8.5 3.4-8.3 3.4-8.3 1.9 0-.6 3.7-2.7 8.3-4.8 7.7-3.6 9.6-3.8 9.7-.9zm137.1 1.1c.6 2.4.4 2.7-1.6 2.7-2.3 0-3.5-1.7-3.5-5 0-2.9 4.2-1 5.1 2.3zm-35.7-.8c.3.8.8 3.8 1.2 6.6.7 5.1.7 5.1-1.7 4.4-1.3-.4-2.5-.8-2.5-.9-.1 0-.6-2.7-1.1-5.9-1-5.5-.9-5.7 1.2-5.7 1.3 0 2.5.7 2.9 1.5zm44.6 1.1c1.4 3.6 1.3 4.4-.9 4.4-2.5 0-5.1-2.6-5.1-5.1 0-3.1 4.8-2.6 6 .7zm-180 4.2c-2.3.8-3.7-.7-3.2-3.3l.5-2.6 1.8 2.8c1.1 1.6 1.4 2.9.9 3.1zm68.2-3.3c.4 1.7.1 2.5-.8 2.5-.8 0-1.4-1.1-1.4-2.5s.4-2.5.9-2.5 1.1 1.1 1.3 2.5zm72.5-1.7c1.4.9 3.4 9.8 2.5 10.7-1.6 1.6-4.1.3-4.6-2.5-.3-1.7-.9-4.4-1.2-6-.6-3.1.7-3.9 3.3-2.2zm49 .7c.2.1.6 1.6.9 3.5.7 3.3.7 3.3-2.6 2.6-4.1-.8-3.8-.5-4.6-4.4-.6-3.2-.6-3.2 2.7-2.6 1.9.4 3.5.8 3.6.9zm-116.9 2.3c.2 1.5-.2 2.2-1.2 2.2-1.1 0-1.6-.9-1.6-2.6 0-3.1 2.3-2.8 2.8.4zm76.6.1c1.6 5.9 1.7 8.1.3 8.1-2.1 0-4.7-2.7-4.7-4.8 0-.9-.3-2.7-.6-3.8-.5-1.9-.2-2.1 2-1.7 1.4.3 2.7 1.3 3 2.2zm-114.4-.1c0 1.1-1.6 2.6-4.4 3.9-2.4 1.2-5.9 3.4-7.7 5-7.4 6.2-7.1 6.2-6.7.9l.3-4.8 8-3.4c9.3-3.9 10.5-4.1 10.5-1.6zm41.8 1.1c.3 1.6-.1 2.2-1 1.9-.7-.3-1.5-1.5-1.6-2.7-.3-1.6.1-2.2 1-1.9.7.3 1.5 1.5 1.6 2.7zm121-2.3c3.3.9 2.8 3.4-.8 3.4-1.6 0-3-.2-3-.4s-.3-1.1-.6-2c-.7-1.7.6-2 4.4-1zm-116.8 3c0 .8-.4 1.4-1 1.4-.5 0-1-.9-1-2.1 0-1.1.5-1.7 1-1.4.6.3 1 1.3 1 2.1zm75.4-1.4c1.8 5.8 1.7 6.8-.9 6.8-1.9 0-2.6-.6-3.1-2.8-.3-1.5-.7-3.3-1-4-.2-.7.6-1.2 2.2-1.2 1.3 0 2.6.6 2.8 1.2zm-70.4 1.9c0 2.4-2.3 2.1-2.8-.4-.2-1 .3-1.7 1.2-1.7 1 0 1.6.9 1.6 2.1zm77.8-.9c2 2 1.5 5.8-.7 5.8s-2.6-.4-3.5-4.3c-.5-2.2-.3-2.7 1.2-2.7 1 0 2.3.5 3 1.2zm43.2-.2c-2 1.3-4 1.3-4 0 0-.6 1.2-1 2.8-1 2.1 0 2.4.2 1.2 1zm-116 1.5c0 .8-.7 1.5-1.5 1.5s-1.5-.7-1.5-1.5.7-1.5 1.5-1.5 1.5.7 1.5 1.5zm79.4-.5c3.4 1.2 3.4 4 .1 4-1.4 0-2.5-.4-2.5-.9s-.3-1.6-.6-2.5c-.7-1.9-.4-1.9 3-.6zm-135.4 2.3c0 .8-1.9 2.2-4.2 3.3-2.2 1-5.7 3-7.7 4.4-5.8 4.2-6.9 4.4-2.6.5 3.1-2.8 12.9-9.4 14.3-9.5.1 0 .2.6.2 1.3zm146-.3c1.1.7.7 1-1.7 1-1.8 0-3.3-.5-3.3-1 0-1.3 3-1.3 5 0z"/>
  <path d="M1240.8 491.7c.7.3 1.6.2 1.9-.1.4-.3-.2-.6-1.3-.5-1.1 0-1.4.3-.6.6zM959 1149c.6 1.1 1.3 2 1.6 2 .2 0 0-.9-.6-2s-1.3-2-1.6-2c-.2 0 0 .9.6 2z"/>
</svg>
