<svg viewBox="0 0 911 897" fill="none" xmlns="http://www.w3.org/2000/svg">
    <path
        d="M383.57 4.15617C383.57 1.8336 385.404 0 387.727 0C390.05 0 391.883 1.8336 391.883 4.15617C391.883 6.47873 390.05 8.31235 387.727 8.31235C385.404 8.31235 383.57 6.35649 383.57 4.15617ZM436.993 15.5245L443.472 17.4804L445.794 23.8369C446.039 24.6926 446.895 25.1815 447.628 25.1815C447.873 25.1815 448.117 25.1815 448.362 25.0593C448.973 24.8148 449.34 24.4481 449.584 23.8369L451.54 17.3581L457.897 15.0356C458.386 14.7911 458.753 14.4244 458.997 14.0576C459.242 13.5687 459.242 13.0797 458.997 12.5908C458.753 11.9796 458.386 11.6128 457.775 11.3684L451.296 9.41251L448.973 3.05601C448.606 2.07809 447.384 1.46688 446.406 1.83361C445.794 2.07809 445.428 2.44481 445.183 3.05601L443.227 9.53475L436.87 11.8573C436.381 12.1018 436.015 12.4685 435.77 12.8352C435.526 13.3242 435.526 13.8132 435.77 14.3021C436.015 14.9133 436.381 15.4023 436.993 15.5245ZM293.352 39.8504L309.855 39.1169L320.124 52.0744C320.491 52.4411 320.98 52.6856 321.469 52.8078H321.591C322.08 52.8078 322.447 52.6856 322.813 52.3189C323.302 51.9522 323.547 51.341 323.547 50.7298L322.813 34.2273L335.772 23.9591C336.138 23.5924 336.383 23.1034 336.505 22.6145C336.505 22.1255 336.383 21.6366 336.016 21.1476C335.649 20.6586 335.038 20.4141 334.427 20.4141L317.924 21.1476L307.655 8.1901C306.921 7.33442 305.699 7.21218 304.843 7.94563C304.354 8.31235 304.11 8.92355 304.11 9.53475L304.843 26.0372L291.885 36.3054C291.518 36.6721 291.274 37.1611 291.151 37.65C291.151 38.139 291.274 38.628 291.64 39.1169C292.129 39.6059 292.741 39.8504 293.352 39.8504ZM559.729 25.3038L565.475 28.8487L565.964 35.5719C565.964 36.0609 566.208 36.5499 566.697 36.9166C567.064 37.1611 567.553 37.4056 567.92 37.4056H568.042C568.653 37.4056 569.142 37.0388 569.509 36.5499L573.054 30.8046L579.778 30.3156C580.878 30.1934 581.611 29.2154 581.611 28.2375C581.611 27.6263 581.245 27.1374 580.756 26.7706L575.01 23.2257L574.521 16.5025C574.521 16.0135 574.276 15.5245 573.787 15.1578C573.421 14.7911 572.932 14.6688 572.32 14.6688C571.709 14.6688 571.22 15.0356 570.853 15.5245L567.308 21.2698L560.585 21.7588C560.096 21.7588 559.607 22.0033 559.24 22.4922C558.873 22.9812 558.751 23.3479 558.751 23.9591C558.873 24.3258 559.24 24.937 559.729 25.3038ZM878.184 620.37C877.572 621.715 875.861 621.837 871.215 620.615C863.025 618.536 857.035 621.47 852.512 629.905C852.023 630.883 851.289 631.372 850.556 631.494C849.7 631.616 848.844 631.249 847.988 630.516C847.255 629.783 846.888 628.805 847.133 627.827C847.255 627.216 847.499 626.604 847.744 625.993C848.111 625.015 848.477 623.915 848.477 623.059C847.866 624.159 847.499 625.504 847.01 626.727C846.521 628.071 846.033 629.416 845.421 630.516C814.37 690.169 771.828 738.577 719.14 774.515C694.935 791.018 664.251 807.52 627.943 823.534C567.308 850.182 503.373 861.306 437.971 856.538C436.626 856.416 436.259 856.783 436.259 856.783C436.259 856.783 436.137 857.15 436.748 858.372L437.848 860.695C439.071 863.017 440.904 864.484 443.349 865.218L450.929 867.296C451.662 867.54 452.274 868.029 452.64 868.64C453.251 869.74 453.129 870.718 452.885 871.33C452.396 872.552 451.296 873.285 449.951 873.041C438.582 871.941 436.504 877.197 433.203 885.998C432.958 886.732 432.592 887.465 432.347 888.321C431.858 889.421 431.002 890.155 429.78 890.155H429.658C428.68 890.155 427.824 889.666 427.213 888.932C426.724 888.321 426.479 887.465 426.479 886.365C426.846 878.297 423.423 873.408 415.722 871.085C414.132 870.596 412.665 870.107 411.198 869.374C410.098 868.885 409.487 867.907 409.365 866.807C409.242 866.196 409.365 865.584 409.731 864.973C410.22 863.995 411.321 863.384 412.421 863.506C419.389 864.606 424.523 862.406 428.069 856.783C428.069 856.661 428.191 856.661 428.191 856.538C428.191 856.172 427.946 855.927 427.58 855.927C377.58 851.282 329.537 837.102 284.55 813.877C283.817 813.51 282.839 814.121 281.983 814.61C281.494 814.977 280.883 815.099 280.394 815.099C279.171 814.977 278.315 813.754 278.438 812.532C278.56 811.921 278.438 811.432 278.071 810.943C277.704 810.454 277.337 810.087 276.848 809.843C198.732 766.57 139.931 703.616 102.157 622.57C101.912 621.959 101.912 621.47 102.279 620.981C102.035 620.737 101.912 620.492 101.79 620.126C100.079 615.48 98.245 610.835 96.4113 606.312C95.4333 603.99 94.4553 601.178 93.3551 598.122C91.7659 593.722 90.0544 588.588 88.0984 584.554C83.942 575.997 81.4971 566.218 79.0521 556.805C78.4409 554.482 77.8297 552.16 77.2184 549.837C76.8517 548.615 76.7294 547.27 76.6072 545.803C76.4849 544.214 76.2404 542.625 75.8737 541.28C69.6391 542.87 65.6049 545.07 64.0157 547.881C61.8152 551.549 60.9595 554.727 61.5707 557.172C62.7932 562.428 62.7932 564.506 61.3263 565.117C59.8593 565.729 58.3923 564.384 55.4584 559.861C50.2017 551.671 47.3901 548.248 37.2435 550.937C37.1213 550.937 36.8768 551.06 36.7545 551.06C36.021 551.06 35.4098 550.937 34.9208 550.449C34.4318 549.96 34.0651 549.348 34.0651 548.737L33.9428 548.004C33.8206 546.17 34.9208 544.581 36.6323 544.092C44.2116 542.014 48.1235 537.124 48.368 529.301C48.368 528.69 48.2458 527.956 48.1235 527.223C48.0013 526.245 47.7568 525.267 47.879 524.289C47.879 523.067 48.4903 522.211 49.5905 521.722C50.324 521.355 51.1797 521.233 51.791 521.478C52.5244 521.722 53.1357 522.333 53.5024 523.311C58.0256 533.702 60.3483 537.98 72.9398 536.758C73.3065 536.758 73.7955 536.635 74.04 536.391C74.2845 536.146 74.2845 535.657 74.1622 535.291C72.4508 522.211 70.7393 508.765 69.1501 495.563C65.8494 467.57 65.8494 436.032 69.1501 396.303C69.1501 396.181 69.1501 396.181 70.1281 392.514C70.8616 389.702 69.1501 388.847 65.1159 387.502C62.7932 386.769 60.5928 386.035 59.6148 384.324C59.0036 383.346 59.0036 382.123 59.6148 381.146C60.226 380.29 61.204 379.801 62.182 379.923C64.7492 380.412 67.1941 380.412 69.6391 379.923C70.7393 379.679 71.3506 378.701 71.2283 377.601C70.6171 373.933 71.4728 371 72.3285 368.188C72.9398 366.232 73.4288 364.521 73.6733 362.321C73.6733 361.709 73.7955 361.098 73.7955 360.487C73.9177 358.898 73.9177 357.186 74.2845 355.597C85.409 302.545 105.947 253.649 135.53 210.009C164.87 166.614 202.522 129.453 247.509 99.3814C248.12 99.0147 248.854 99.0147 249.343 99.3814H249.465L249.832 99.8704C250.199 100.359 250.199 100.848 250.076 101.215C250.076 101.582 249.832 101.948 249.343 102.315C163.281 159.524 104.724 244.725 80.3969 348.385C79.4189 352.541 78.8076 357.186 78.1964 361.709C77.5852 366.11 77.0962 370.511 76.1182 374.789C76.1182 374.911 75.9959 375.156 75.9959 375.278C76.1182 375.156 76.1182 375.034 76.2404 374.911C77.5852 373.078 78.8076 370.511 79.9079 367.21V367.088C80.3969 365.743 81.8638 365.132 83.0863 365.499L84.6755 365.988C86.1425 366.477 86.9982 367.944 86.7537 369.411C85.0423 379.434 89.1987 381.268 96.0445 384.202C97.5115 384.813 98.9785 385.424 100.445 386.157C101.301 386.524 101.668 387.135 101.79 387.624C101.912 387.991 102.035 388.724 101.546 389.58C100.69 391.169 99.1007 392.025 97.267 391.78C88.0984 390.803 82.8418 394.47 81.3748 402.904C81.1303 404.127 80.2746 404.982 79.0521 405.105C78.0742 405.227 77.2184 404.982 76.6072 404.494C76.1182 404.127 75.8737 403.638 75.7515 403.027C75.7515 403.149 75.7515 403.393 75.7515 403.516C73.6732 421.24 72.573 432.731 72.4508 437.743C71.9618 454.612 74.1622 476.982 78.9299 504.364C82.5973 503.142 84.1865 500.697 84.0643 496.663C84.0643 495.929 84.3088 495.44 84.5533 495.196C84.7978 494.951 85.2868 494.707 86.0202 494.707C86.2647 494.707 86.387 494.707 86.6315 494.707C87.4872 494.585 88.3429 495.196 88.4652 496.052C89.4432 499.963 91.7659 501.43 95.6778 500.941C96.4113 500.819 98.245 500.574 98.9785 501.797C99.712 503.019 98.4895 504.486 98.1227 505.097C96.6558 506.931 94.6998 508.031 92.3771 508.642C92.1326 508.642 91.8881 508.887 91.8881 509.131L91.3991 513.899C91.2769 514.632 90.9101 515.243 90.2989 515.61C89.8099 515.854 89.1987 515.977 88.5874 515.854C87.9762 515.732 87.6095 515.366 87.2427 514.877L85.1645 510.843C84.5533 509.742 83.8198 509.254 82.5973 509.254H80.7636C80.0301 509.254 79.6634 509.376 79.5411 509.498C79.4189 509.62 79.4189 509.987 79.5411 510.72C87.9762 544.459 95.1888 566.462 105.947 591.644C106.069 592.01 106.313 592.377 106.558 592.621C107.291 593.355 107.658 594.211 107.78 595.189C108.392 600.323 110.959 604.234 113.404 607.901C114.626 609.735 115.849 611.569 116.827 613.402C117.56 614.991 118.416 616.458 119.149 617.925C120.739 620.859 122.328 623.793 123.672 627.216C126.362 634.183 130.029 640.662 134.43 646.53C136.264 648.974 137.975 651.297 139.809 653.742C158.88 679.045 176.85 703.005 197.877 720.974C229.905 748.356 255.211 767.548 289.44 784.661C289.562 784.783 289.807 784.661 289.929 784.539C291.64 782.95 293.352 780.749 295.063 778.305C296.286 776.471 297.875 776.104 298.975 776.227C300.075 776.227 300.564 776.716 300.809 777.082C301.053 777.449 301.298 778.182 300.931 779.16L298.12 787.35C297.875 788.084 298.242 788.94 298.975 789.306C331.371 804.342 365.722 815.099 401.052 821.333C401.419 821.456 401.663 821.333 401.908 821.089C403.008 819.989 403.864 818.644 404.475 816.81C404.842 815.588 405.819 814.855 407.164 814.732C408.02 814.61 408.631 814.977 408.876 815.221C409.242 815.466 409.609 815.955 409.609 816.933V820.722C409.609 821.822 410.465 822.678 411.443 822.922C427.824 825.367 444.45 826.712 461.075 826.956C460.953 825.734 460.342 823.9 456.797 823.045C455.207 822.556 454.229 821.456 454.107 819.744C454.107 818.277 454.963 817.299 456.43 817.299C459.731 817.177 461.198 815.588 461.32 812.287C461.32 811.065 461.32 808.987 462.787 808.62C464.254 808.254 465.354 810.209 465.843 811.187C466.454 812.288 466.943 813.877 467.31 815.832C467.432 816.199 467.554 816.321 467.921 816.444L470.366 817.177C472.078 817.666 474.034 818.522 474.034 820.111C474.156 821.7 472.2 822.678 470.611 823.411C470.122 823.534 469.388 823.9 468.288 824.267C467.065 824.634 466.454 825.245 466.943 827.079C499.216 827.201 531.368 823.289 562.663 815.466C556.917 805.32 555.817 804.22 543.837 803.975C542.859 803.975 542.37 803.608 542.003 803.242C541.759 802.875 541.392 802.264 541.514 801.286C541.759 800.063 542.37 799.208 543.592 798.597C553.861 793.096 553.617 790.651 552.883 780.383C552.883 779.649 552.761 778.794 552.761 777.938C552.761 776.96 553.25 776.227 554.106 775.982C554.228 775.982 554.472 775.86 554.595 775.86C555.45 775.615 556.184 775.982 556.673 776.716L557.284 777.938C561.44 786.373 564.13 791.873 572.932 790.529C576.355 790.04 578.555 789.917 579.044 791.507C579.533 793.096 577.944 794.44 575.01 796.274C567.675 800.919 565.475 806.42 567.92 814.366C630.388 797.619 686.255 767.059 733.932 723.541C734.665 722.93 734.787 721.83 734.298 721.096L729.042 712.784C727.697 710.583 726.964 709.117 728.064 708.139C729.042 707.161 730.631 707.772 732.709 709.117L740.777 714.128C742 714.862 743.467 714.617 744.445 713.639C769.75 688.213 791.755 659.731 809.847 628.927C808.869 629.049 807.525 630.027 806.18 631.738C805.569 632.472 804.957 632.716 804.468 632.716C803.979 632.716 803.368 632.594 802.757 631.738C802.39 631.372 802.146 630.638 802.39 629.538C802.757 628.193 803.001 626.849 803.124 625.504C803.124 625.137 803.001 624.771 802.757 624.404L799.701 620.981C798.967 620.248 797.623 618.659 798.356 617.314C799.212 615.969 801.168 616.581 802.268 616.825L805.569 617.803C805.813 617.925 805.935 617.803 806.18 617.681C807.402 616.947 808.503 615.969 809.358 614.747C809.97 614.014 810.825 613.525 811.803 613.647C812.537 613.769 813.148 614.014 813.515 614.625C814.004 615.114 814.126 615.847 814.126 616.581L813.515 621.47C813.637 621.47 813.881 621.226 814.004 620.859C831.73 588.588 841.265 560.595 851.9 523.067C852.023 522.578 852.023 522.211 851.778 521.844C849.944 517.81 850.922 514.51 854.345 512.187C854.712 511.943 854.834 511.698 854.957 511.332C859.602 482.361 861.925 462.435 862.047 452.167C862.169 438.354 861.069 420.874 858.746 400.337C857.035 386.157 855.323 375.4 853.612 368.433C853.245 367.21 852.756 365.743 852.023 364.154C851.289 362.443 850.556 360.609 850.067 358.898C843.221 331.76 835.764 310.246 827.206 293.132C825.495 289.832 823.05 287.387 820.361 284.82C818.894 283.353 817.304 281.886 815.96 280.297C814.859 279.075 813.392 278.341 811.803 278.219C807.525 278.097 803.368 278.83 799.334 280.542C798.478 280.908 797.745 280.786 797.378 280.542C797.011 280.297 796.522 279.931 796.156 279.075C796.033 278.586 796.033 278.219 796.156 277.73C796.278 277.241 796.522 276.752 797.011 276.386C797.745 275.652 798.601 275.041 799.334 274.43C803.857 270.762 807.647 267.584 806.669 261.228C805.569 254.138 802.268 246.559 797.134 238.736C781.853 215.632 767.55 198.763 747.868 177.249L747.746 177.126C747.257 176.515 747.379 175.659 747.99 175.17L748.357 174.804C749.09 174.193 750.068 174.193 750.68 174.804C774.029 198.763 794.444 225.289 811.681 253.893C814.982 259.394 818.527 260.372 822.928 259.883V259.761C805.08 222.478 781.364 188.617 752.269 159.157L751.78 158.913V158.424C751.657 157.935 751.78 157.446 752.146 157.079L752.635 156.59C753.002 156.223 753.491 156.101 753.736 156.101C753.98 156.101 754.469 156.223 754.958 156.59C784.664 186.172 808.992 220.399 826.962 258.416C827.084 258.661 827.084 258.905 827.084 259.027C827.573 258.905 828.184 258.783 828.673 258.661C829.774 258.416 830.996 258.049 832.218 257.805C832.707 257.683 833.319 257.805 833.685 258.049C834.786 258.661 835.152 260.005 834.541 261.105C833.197 263.55 831.607 265.628 829.774 267.462C830.752 267.34 831.73 267.829 832.218 268.807C841.143 289.465 848.722 310.98 854.712 332.738C857.279 342.273 859.48 353.764 861.191 366.843C861.558 370.022 862.047 373.322 862.536 376.623C864.247 388.602 865.959 401.071 866.57 412.806C868.037 440.432 868.893 472.826 864.125 503.264C863.514 506.809 863.269 510.72 863.025 514.388C862.78 518.299 862.414 521.844 861.925 525.267C857.646 551.06 850.556 576.364 841.02 600.689C840.776 601.301 840.776 601.79 840.898 601.912C841.02 602.034 841.387 602.278 841.998 602.278L848.966 603.134C850.556 603.379 851.534 602.767 852.145 601.301C914.98 449.233 881.729 282.253 765.349 165.636C760.948 161.235 755.814 156.957 750.313 152.434C746.034 148.889 741.511 145.222 737.477 141.432C737.11 141.065 736.743 140.821 736.499 140.821C736.254 140.821 735.888 141.188 735.643 141.554C734.665 142.899 733.443 143.755 731.853 143.999C731.487 144.121 730.998 143.999 730.631 143.877C730.142 143.632 729.653 143.266 729.531 142.655C729.286 142.166 729.286 141.554 729.531 140.943L731.487 136.42C731.487 136.298 731.487 136.298 731.487 136.298C731.487 136.298 731.487 136.298 731.364 136.176C725.374 132.02 722.074 129.208 715.961 123.341C713.272 120.774 709.849 118.94 706.548 117.229C704.592 116.251 702.636 115.273 700.925 114.05C696.891 111.239 692.856 108.427 688.822 105.616C686.989 104.271 684.91 103.538 682.71 102.804C680.143 101.948 677.331 100.971 675.008 98.7702C670.73 94.7363 665.351 92.7805 660.461 91.0691C658.505 90.3357 656.793 89.7245 655.204 88.991C583.567 55.9861 503.128 44.3733 428.802 56.3528C428.313 56.4751 427.946 56.5973 427.58 56.964C424.89 59.1643 422.201 60.6312 419.878 61.8536C414.01 65.1541 410.343 67.11 411.198 78.4783C411.321 79.9452 410.465 81.0454 408.998 81.2899L408.264 81.4121C407.286 81.5343 406.308 80.9231 406.064 79.823C404.719 73.5887 402.397 69.5548 398.851 67.4767C393.35 64.1762 385.037 65.8876 376.847 68.3324C352.52 75.5446 328.804 84.9571 306.188 96.3254C303.865 97.5478 302.52 99.2592 302.276 101.826C302.154 102.437 301.909 102.926 301.542 103.415C299.709 105.249 299.464 107.205 300.564 109.65C301.787 112.217 302.154 113.806 301.053 114.661C299.953 115.517 298.486 114.539 296.286 112.706L293.107 109.894C292.741 109.527 292.374 109.405 291.763 109.283C285.773 108.183 283.572 108.794 282.839 109.283C270.492 116.74 258.389 125.174 246.898 134.22C249.098 137.643 252.032 138.376 255.822 136.176C256.555 135.809 257.167 135.809 257.533 135.931C257.9 136.054 258.389 136.298 258.756 137.031C259.245 138.009 259.123 139.354 258.267 140.087C257.167 141.188 256.311 142.532 255.822 143.999C255.7 144.488 255.7 144.855 255.944 145.222L258.022 149.744C258.389 150.356 258.267 151.089 257.9 151.7C257.289 152.678 255.944 152.923 255.088 152.189C253.132 150.967 251.421 149.5 249.954 147.789C249.71 147.544 249.71 147.544 249.343 147.666L244.697 150.111C244.086 150.478 243.23 150.356 242.619 149.867L242.008 149.378C241.397 148.889 241.274 148.278 241.274 147.911C241.274 147.544 241.397 146.933 242.008 146.322C245.186 143.388 245.675 140.332 243.23 136.787C243.23 136.787 243.108 136.665 242.986 136.787C218.414 156.468 195.921 178.96 176.361 203.652C175.628 204.508 175.383 205.242 175.505 205.731C175.628 206.22 176.361 206.586 177.461 206.953L182.962 208.542C184.674 209.031 186.508 208.787 188.097 207.809L196.41 202.43C196.899 202.063 197.632 201.941 198.243 202.186C199.344 202.552 199.955 203.775 199.588 204.875C198.977 206.586 198.243 208.175 197.388 209.765C195.309 213.798 193.72 217.099 197.265 221.377C199.588 224.189 201.055 226.145 201.666 227.367C202.644 229.567 203.133 231.157 202.033 232.012C200.933 232.868 199.466 232.257 197.51 230.79C189.197 224.922 185.041 226.267 177.584 232.746C176.85 233.479 175.628 233.601 174.65 233.112C174.038 232.746 173.549 232.257 173.305 231.523C173.06 230.79 173.183 230.179 173.427 229.445C177.339 221.255 178.195 215.999 171.349 209.765C158.635 227.245 147.144 245.948 136.997 265.017C135.653 267.462 134.308 270.518 132.719 273.696C130.396 278.464 127.829 283.964 125.139 288.61C127.951 288.976 130.152 290.321 131.619 292.644C132.352 293.744 132.474 294.966 132.108 296.188C131.496 298.511 129.051 299.856 126.606 299.245L122.083 297.9C121.839 297.9 121.716 297.9 121.594 298.144C110.836 324.548 103.013 352.052 98.245 380.168C98.0005 381.39 97.1448 381.757 96.4113 381.757H96.1668C95.1888 381.512 94.5776 380.779 94.6998 379.679C99.5897 349.485 107.291 322.103 117.438 298.144C118.416 295.944 119.761 292.032 121.716 286.776C125.506 276.019 134.186 259.394 147.511 237.391C150.078 233.112 155.09 225.534 162.18 214.899C182.351 184.827 210.59 155.49 243.964 129.942C244.208 129.819 249.221 125.663 259 117.84C267.435 111.117 276.604 105.371 286.506 100.726C287.484 100.237 288.217 99.6259 288.34 99.0147C288.584 98.4035 288.34 97.5478 287.851 96.5699C287.484 95.9587 287.362 95.2253 287.362 94.6141C287.362 94.1251 287.606 93.5139 287.973 93.1472C288.34 92.7805 288.829 92.6582 289.318 92.6582C289.807 92.6582 290.296 92.9027 290.662 93.2694C291.763 94.3696 293.107 95.2253 294.574 95.8365C294.941 95.9587 295.308 95.9587 295.675 95.7142C324.647 79.5785 355.698 67.2322 387.849 58.9199C398.485 56.2306 401.908 50.6075 399.34 40.2171C399.096 39.4836 399.463 38.9947 399.585 38.7502C399.707 38.5057 400.196 38.139 400.93 38.139H404.108C405.086 38.139 405.819 38.8724 405.819 39.8504C406.064 43.1509 408.02 49.1406 411.198 51.5854C412.421 52.4411 413.521 52.8079 414.866 52.5634C495.305 37.2833 581.611 47.9182 657.894 82.5123C660.216 83.6124 662.417 84.9571 664.74 86.424C667.673 88.2576 670.607 90.0912 673.786 91.3136C678.676 93.1472 682.832 96.081 686.866 98.7702C691.634 102.071 696.157 105.127 701.903 106.716C704.225 107.327 706.548 109.527 709.238 112.094C711.683 114.417 714.494 117.106 717.428 118.329C722.196 120.407 725.986 123.341 729.653 126.152C731.242 127.374 732.831 128.597 734.421 129.819C734.787 125.419 732.709 122.729 730.264 119.673C729.286 118.451 728.186 117.106 727.33 115.762C726.841 114.906 725.863 113.195 726.841 112.094C727.819 110.994 729.653 111.728 730.509 112.217L731.487 112.706C742.733 117.718 744.2 118.451 754.102 110.505C754.714 110.016 756.425 108.672 757.77 109.405C758.992 110.139 758.87 111.85 758.626 113.317C758.381 114.661 757.648 116.373 756.181 118.573C751.535 126.03 755.325 131.775 760.826 138.376C761.071 138.743 761.315 139.232 761.437 139.721C761.56 141.065 760.582 142.288 759.237 142.532C757.77 142.655 755.936 141.554 753.491 140.087C750.802 138.498 747.501 136.543 745.056 136.543C744.2 136.543 743.711 136.665 743.467 136.787C743.589 137.031 743.956 137.398 744.689 138.009C836.253 213.554 887.719 322.837 889.919 445.811C889.919 447.033 890.653 447.4 892.364 448.011C893.342 448.378 894.442 448.744 895.176 449.6C896.154 450.578 897.01 452.412 895.787 454.979C895.298 455.957 894.442 456.69 893.465 456.935C890.653 457.668 889.553 458.89 889.43 461.702C887.597 506.32 878.428 549.96 862.414 591.399C862.78 591.032 863.392 591.032 863.881 591.155L864.614 591.277C865.959 591.644 866.815 592.988 866.57 594.333C864.859 604.357 864.492 608.635 873.294 614.747C877.695 617.681 878.795 619.025 878.184 620.37ZM846.521 610.835L840.287 605.946C838.942 604.968 838.086 605.212 837.475 606.679C819.26 652.397 791.755 694.692 758.014 730.631C756.914 731.853 756.67 733.076 757.525 734.543L757.892 735.154C758.503 736.254 759.237 736.376 760.093 735.521C796.889 700.682 825.984 660.343 847.499 614.503C848.111 613.28 847.744 611.691 846.521 610.835ZM707.648 777.816C725.252 766.203 741.511 753.123 756.792 738.577C757.77 737.721 757.525 737.11 756.303 736.743L755.325 736.376C754.225 736.009 753.247 736.254 752.269 737.11C737.477 750.923 722.074 764.247 706.181 776.96C706.059 777.082 706.059 777.204 706.181 777.327L706.915 777.816C707.282 778.06 707.404 778.06 707.648 777.816ZM623.298 820.233C669.752 801.653 711.805 770.848 747.99 735.643C748.479 735.154 748.724 734.787 748.968 734.42C749.09 734.298 749.09 734.176 749.09 733.931C749.09 733.809 749.09 733.687 749.09 733.687C749.09 733.565 749.09 733.565 749.09 733.442C749.09 733.32 748.968 733.32 748.968 733.198C748.968 733.076 748.968 733.076 748.846 732.953L748.724 732.831C748.601 732.709 748.601 732.709 748.479 732.587C748.357 732.464 748.235 732.464 747.99 732.464C742.122 731.609 737.232 733.198 733.076 737.232C732.831 737.476 732.465 737.476 732.22 737.354C731.976 737.232 731.731 737.11 731.487 736.987C731.242 736.865 731.12 736.621 731.12 736.376L731.242 734.054C731.242 733.076 730.875 732.831 730.142 733.565C642.368 809.231 527.822 845.17 411.932 828.423C409.609 828.056 407.286 829.401 406.553 831.724L406.186 832.702C406.186 832.824 406.064 832.946 406.064 833.068C406.064 833.191 406.064 833.191 406.064 833.313C406.064 833.435 406.064 833.435 406.064 833.557C406.064 833.68 406.064 833.68 406.064 833.802C406.064 833.924 406.064 833.924 406.064 834.046C406.064 834.168 406.064 834.168 406.186 834.291C406.186 834.413 406.186 834.413 406.308 834.535C406.308 834.657 406.431 834.657 406.431 834.78C406.431 834.902 406.553 834.902 406.553 835.024C406.553 835.146 406.675 835.146 406.675 835.146L406.797 835.269L406.92 835.391C406.92 835.391 407.042 835.513 407.164 835.513L407.286 835.635C407.409 835.635 407.409 835.758 407.531 835.758C407.653 835.758 407.775 835.88 407.898 835.88C433.57 840.403 460.464 844.314 486.747 843.948C495.794 843.826 505.084 843.581 514.375 843.214H514.497C514.62 843.214 514.742 843.092 514.864 843.092C514.864 843.092 514.864 843.092 514.986 843.092C515.109 842.97 515.353 842.848 515.475 842.725C515.598 842.603 515.72 842.481 515.72 842.236C515.72 842.236 515.72 842.236 515.72 842.114C515.72 841.992 515.842 841.747 515.842 841.503C515.842 841.381 515.842 841.381 515.842 841.258C515.231 837.713 516.942 833.68 521.343 835.024C522.077 835.269 522.688 835.758 522.932 836.491L524.766 841.258C524.888 841.503 524.888 841.747 524.888 841.87C524.888 841.992 524.888 841.992 524.888 842.114V842.236V842.359C524.888 842.481 524.766 842.725 524.644 842.848C524.522 842.97 524.399 843.092 524.277 843.214L524.155 843.337H524.033C523.91 843.337 523.91 843.459 523.788 843.459C523.544 843.581 523.299 843.581 523.177 843.581C518.043 843.459 512.541 844.681 508.385 844.926C456.185 847.37 400.196 839.18 349.83 820.233C349.83 820.233 349.83 820.233 349.83 820.111C349.83 820.111 349.83 819.989 349.952 820.111L399.829 834.535C402.03 835.146 403.008 834.291 403.008 832.09V831.113C403.008 828.79 401.908 827.445 399.707 827.079C371.346 821.456 344.207 813.999 318.29 804.709C313.4 802.997 308.144 800.308 302.765 796.641C302.276 796.274 301.542 796.396 301.176 796.885L300.809 797.374V797.496L307.044 802.997C307.166 803.119 307.288 803.242 307.288 803.364V803.486C307.288 803.608 307.41 803.731 307.41 803.853V803.975C307.41 804.097 307.41 804.22 307.41 804.342C307.41 804.464 307.288 804.464 307.288 804.586C307.288 804.709 307.166 804.709 307.166 804.831C307.044 804.953 306.921 805.075 306.799 805.075C306.799 805.075 306.799 805.075 306.677 805.075C306.555 805.075 306.432 805.198 306.31 805.198H306.188C306.066 805.198 305.821 805.198 305.699 805.198C299.097 803.119 292.618 801.53 287.239 807.398C287.239 807.52 287.117 807.52 287.117 807.642C287.117 807.642 287.117 807.642 287.117 807.765C287.117 807.887 287.117 807.887 287.117 808.009C287.117 808.131 287.117 808.131 287.117 808.254C287.117 808.376 287.117 808.376 287.117 808.498C287.117 808.62 287.117 808.62 287.117 808.743C287.117 808.865 287.117 808.865 287.239 808.865C287.239 808.987 287.362 808.987 287.362 808.987C287.484 809.109 287.484 809.109 287.606 809.231C329.782 830.624 374.402 844.07 421.712 849.693C425.624 850.182 429.291 850.182 432.592 849.571C433.325 849.449 433.936 849.571 434.67 849.815C436.87 850.671 438.337 851.16 439.193 851.16C468.288 853.727 496.038 851.649 518.043 849.326C531.245 847.859 545.671 845.048 561.196 840.647C563.152 840.158 564.986 839.669 566.819 839.18C568.775 838.691 570.731 837.958 572.443 836.98C574.643 835.758 576.355 834.902 577.822 834.535C597.748 829.034 612.907 824.267 623.298 820.233ZM79.9079 537.613C81.9861 540.303 82.2306 543.236 82.4751 545.803C82.5973 547.026 82.7196 548.126 82.964 549.104C85.409 558.639 88.3429 568.173 91.5214 577.464C92.3771 580.031 93.4773 583.209 94.4553 586.509C97.1448 595.188 100.568 605.823 104.602 614.503C105.091 615.603 105.213 616.825 105.091 618.17C105.091 618.047 105.213 618.047 105.213 617.925C106.313 616.581 107.658 615.48 109.247 614.747C109.981 614.38 110.714 614.503 111.325 614.991L112.915 616.092C112.792 615.725 112.548 615.358 112.181 615.114C111.57 614.503 111.081 613.891 110.714 613.158C109.003 609.246 106.802 605.334 104.724 601.667C102.157 597.022 99.4675 592.255 97.6337 587.487L96.4113 584.431C91.3991 571.107 86.1425 557.416 83.0863 543.725C82.7196 542.258 82.2306 541.036 81.6193 539.691C80.8859 538.102 80.1524 536.513 79.9079 534.68C79.6634 532.968 79.5411 531.257 79.2966 529.545L79.5411 536.758C79.6634 537.124 79.6634 537.369 79.9079 537.613ZM107.414 622.081C112.548 630.883 117.56 639.806 122.572 648.608C160.347 715.106 213.158 767.181 279.66 803.608C280.394 803.975 280.76 804.097 280.883 804.097C280.883 803.975 281.005 803.486 280.883 802.753L280.271 798.597C279.905 795.663 278.315 793.707 275.748 792.485C274.037 791.751 272.814 790.529 272.081 788.94C271.836 788.328 271.714 787.595 271.959 786.984C272.203 786.25 272.692 785.761 273.303 785.395C273.915 785.028 274.648 785.028 275.381 785.272L279.66 786.739C279.416 786.373 279.171 786.25 279.049 786.128C224.282 757.768 174.038 713.028 137.609 660.098C135.041 656.431 132.108 651.419 128.685 645.185C127.462 642.984 126.117 640.662 124.773 638.462C122.205 634.061 119.516 629.538 117.438 624.648C116.827 623.182 115.971 621.715 114.871 620.492C114.626 620.615 114.382 620.737 114.137 620.737L107.414 622.081ZM759.481 705.083C757.403 707.283 757.036 708.994 757.036 711.928C757.036 712.662 756.792 713.395 756.425 714.006C753.98 717.673 752.88 721.83 753.002 726.352C753.002 727.575 753.613 728.186 754.591 728.186C755.08 728.186 755.569 727.942 755.936 727.575C806.669 672.811 839.92 608.879 855.812 535.78C856.301 533.579 856.546 531.379 856.668 529.179C856.668 528.568 857.035 527.956 857.524 527.467C858.257 526.856 858.502 526.489 858.502 526.123C858.379 522.944 857.524 522.7 855.935 525.389C855.446 526.245 854.957 527.59 854.468 529.545C837.964 596.411 806.302 654.964 759.481 705.083ZM827.94 269.296C824.395 272.474 823.661 275.163 825.373 278.586C838.209 304.379 848.355 331.76 855.446 359.753C855.69 360.609 855.812 361.098 855.812 361.343C855.935 356.208 855.079 350.952 853.367 345.818C852.634 343.74 852.023 341.784 851.534 339.706C845.666 315.869 837.72 292.399 828.062 269.907C828.062 269.662 827.94 269.418 827.94 269.296ZM603.86 51.8299C607.039 51.8299 609.484 49.2629 609.484 46.2069C609.484 43.1509 606.916 40.5838 603.86 40.5838C600.804 40.5838 598.237 43.1509 598.237 46.2069C598.237 49.2629 600.804 51.8299 603.86 51.8299ZM648.603 57.6975L647.747 64.4207C647.625 65.5209 648.358 66.4988 649.459 66.621C649.581 66.621 649.581 66.621 649.703 66.621C650.314 66.621 650.803 66.3765 651.17 66.0098L655.815 60.998L662.539 61.8536C663.639 61.9759 664.617 61.2424 664.74 60.1423C664.862 59.5311 664.617 58.9199 664.128 58.4309L659.116 53.7858L659.972 47.0626C660.094 45.9624 659.361 44.9845 658.26 44.8622C657.649 44.74 657.038 44.9845 656.549 45.4734L651.904 50.4853L645.18 49.6296C644.691 49.5074 644.202 49.7518 643.713 49.9963C643.346 50.363 642.98 50.7298 642.98 51.341C642.857 51.9522 643.102 52.5634 643.591 53.0523L648.603 57.6975ZM229.905 96.6921C230.394 97.0589 230.883 97.1811 231.495 97.0589L246.409 93.6361L258.022 103.66C258.389 103.904 258.756 104.149 259.245 104.149C259.367 104.149 259.367 104.149 259.489 104.149C259.978 104.149 260.467 103.904 260.712 103.415C261.079 102.926 261.201 102.437 261.079 101.826L257.656 86.9129L267.68 75.3001C268.047 74.9334 268.169 74.4444 268.047 73.9554C268.047 73.4665 267.802 72.9775 267.313 72.733C266.824 72.3663 266.335 72.2441 265.724 72.3663L250.81 75.789L239.196 65.7653C238.83 65.3986 238.341 65.2764 237.852 65.3986C237.363 65.3986 236.874 65.6431 236.629 66.132C236.262 66.621 236.14 67.11 236.262 67.7212L239.685 82.6345L229.661 94.2473C229.294 94.6141 229.172 95.103 229.294 95.592C229.294 95.8365 229.539 96.3254 229.905 96.6921ZM511.93 75.9113C511.93 72.9775 509.485 70.5327 506.551 70.5327C503.617 70.5327 501.172 72.9775 501.172 75.9113C501.172 78.845 503.617 81.2899 506.551 81.2899C509.485 81.2899 511.93 78.845 511.93 75.9113ZM604.961 89.1132C604.349 89.1132 603.738 89.3577 603.371 89.8467L594.325 101.215L579.9 100.237C578.922 100.115 577.944 100.971 577.944 101.948C577.944 102.56 578.188 103.171 578.677 103.538L590.046 112.583L589.068 127.008C588.946 127.986 589.802 128.964 590.78 128.964H590.902C591.513 128.964 592.002 128.719 592.369 128.23L601.415 116.862L615.841 117.84C616.941 117.962 617.797 117.106 617.797 116.128C617.797 115.517 617.552 114.906 617.063 114.539L605.694 105.493L606.672 91.0691C606.794 90.0912 606.061 89.1132 604.961 89.1132ZM653.982 104.516C654.104 104.516 654.104 104.516 654.226 104.516C655.082 104.516 655.816 104.149 656.305 103.538C659.361 103.049 661.072 101.215 661.194 98.2813C661.317 96.9366 660.828 95.7142 659.972 94.8585C659.116 93.8806 657.894 93.3917 656.671 93.2694H654.471C653.248 93.2694 652.27 93.7584 651.659 94.8585C649.825 97.7923 649.948 100.604 651.781 103.171C652.515 104.271 653.371 104.516 653.982 104.516ZM423.912 106.349C423.179 106.594 421.345 107.205 421.345 108.672C421.345 110.139 423.179 110.75 423.912 110.994L427.091 112.094C427.457 112.217 427.824 112.583 427.946 112.95L429.046 116.251C429.658 117.962 430.391 119.673 431.736 119.673C431.736 119.673 431.736 119.673 431.858 119.673C433.325 119.551 433.814 117.962 434.303 116.251C434.425 115.884 434.425 115.395 434.181 113.684C434.181 113.195 434.181 112.95 434.548 112.583C435.159 111.85 435.892 111.361 436.748 110.994C438.093 110.505 440.049 109.772 440.049 108.183C440.049 106.471 438.093 105.493 436.259 104.76C433.936 103.904 432.836 102.193 432.714 99.3814C432.592 98.159 431.614 97.1811 430.269 97.3033C430.024 97.3033 429.78 97.4256 429.535 97.4256L428.68 97.7923C427.824 98.159 427.457 98.8925 427.58 99.7482C428.191 103.171 426.968 105.249 423.912 106.349ZM325.992 120.529C326.114 120.529 326.359 120.529 326.481 120.529C327.459 120.407 328.315 119.673 328.804 118.695C329.293 117.84 329.415 116.74 329.293 115.639C329.17 114.539 328.559 113.561 327.826 112.95C326.97 112.217 325.992 111.85 325.014 112.094C324.036 112.217 323.18 112.95 322.691 113.928C322.202 114.784 322.08 115.884 322.202 116.984C322.324 118.084 322.936 119.062 323.669 119.673C324.28 120.162 325.136 120.529 325.992 120.529ZM192.987 166.125C135.897 220.033 97.5115 286.165 78.6854 362.565C78.4409 363.543 78.8076 364.154 79.0521 364.399C79.2966 364.643 79.7856 365.01 80.6414 365.01C80.7636 365.01 80.7636 365.01 80.8858 365.01L81.7416 364.888C82.3528 364.765 82.8418 364.399 83.0863 363.665C99.4675 295.577 132.108 235.313 180.029 184.461C187.241 176.76 194.698 169.058 202.033 161.602H202.278C202.644 161.48 203.011 161.357 203.256 161.113L230.272 138.621C231.372 137.643 230.883 136.787 230.761 136.543C230.517 136.176 230.15 135.931 229.783 135.931C229.416 135.931 229.05 135.931 228.683 136.176C218.659 143.021 209.246 150.845 200.811 159.524C200.444 159.524 200.077 159.524 199.466 159.157C199.099 158.913 198.732 158.546 198.61 158.179C197.51 155.245 194.943 154.512 192.987 155.001C190.664 155.49 188.586 157.812 188.83 161.113C188.953 162.091 189.442 162.946 190.175 163.558C190.909 164.169 191.764 164.658 192.742 164.902C192.864 164.902 193.109 165.147 193.109 165.269C193.231 165.391 193.231 165.636 193.109 165.88C193.109 166.002 192.987 166.125 192.987 166.125ZM707.037 136.665C706.67 136.42 706.181 136.176 705.692 136.298C705.203 136.298 704.837 136.543 704.47 136.909C704.103 137.276 703.981 137.765 704.103 138.254C704.225 138.743 704.348 139.11 704.714 139.476L738.699 167.714C739.066 167.958 739.433 168.081 739.799 168.081H739.922C740.411 168.081 740.777 167.836 741.144 167.469C741.511 167.103 741.633 166.614 741.511 166.125C741.511 165.636 741.266 165.269 740.9 164.902L707.037 136.665ZM695.424 138.621C694.568 138.132 693.468 138.376 692.734 138.987L688.822 142.288H688.7L684.055 140.087C682.832 139.476 681.243 139.965 680.632 141.188C680.143 142.043 680.387 143.144 680.998 143.877L684.421 147.911L682.221 152.556C681.976 153.167 681.854 153.901 682.099 154.512C682.343 155.123 682.71 155.612 683.321 155.979C683.688 156.101 684.055 156.223 684.421 156.223C685.033 156.223 685.522 155.979 686.011 155.612L690.045 152.189L694.69 154.39C695.301 154.634 696.035 154.756 696.646 154.512C697.257 154.267 697.746 153.778 698.113 153.289C698.602 152.434 698.358 151.334 697.746 150.6L694.323 146.566L696.524 141.921C697.257 140.699 696.768 139.232 695.424 138.621ZM147.633 148.644L144.21 155.001C143.966 155.49 143.843 155.979 143.966 156.468C144.088 156.957 144.455 157.323 144.821 157.69C145.188 157.812 145.432 157.935 145.799 157.935C146.166 157.935 146.533 157.812 146.777 157.69L153.012 154.023L159.369 157.446C159.858 157.69 160.347 157.812 160.836 157.69C161.325 157.568 161.691 157.201 162.058 156.834C162.425 156.223 162.425 155.49 162.058 154.879L158.391 148.644L161.814 142.288C162.058 141.799 162.18 141.31 162.058 140.821C161.936 140.332 161.569 139.965 161.202 139.599C160.591 139.232 159.858 139.232 159.246 139.599L153.012 143.266L146.655 139.843C146.166 139.599 145.677 139.476 145.188 139.599C144.699 139.721 144.332 140.087 143.966 140.454C143.599 141.065 143.599 141.799 143.966 142.41L147.633 148.644ZM797.867 187.517C798.356 187.884 798.967 187.883 799.578 187.761L815.104 182.016L828.796 191.306C829.162 191.551 829.529 191.673 829.896 191.673C830.507 191.673 831.118 191.306 831.485 190.817C831.852 190.328 831.852 189.717 831.73 189.106L825.984 173.581L835.275 159.89C835.519 159.401 835.641 158.913 835.519 158.424C835.397 157.935 835.152 157.446 834.663 157.201C834.174 156.834 833.563 156.834 832.952 156.957L817.427 162.702L803.735 153.412C802.879 152.8 801.657 153.045 801.045 154.023C800.679 154.512 800.679 155.123 800.801 155.734L806.547 171.259L797.256 184.827C796.645 185.805 796.889 187.028 797.867 187.517ZM746.279 185.439C747.012 185.439 747.746 185.072 748.235 184.339C748.724 183.605 748.724 182.749 748.235 182.016L745.301 176.76L748.357 171.503C748.724 171.014 748.724 170.403 748.601 169.792C748.479 169.181 748.112 168.692 747.623 168.447C746.89 167.958 746.034 167.958 745.301 168.447L740.044 171.381L734.787 168.325C733.687 167.714 732.342 167.958 731.731 169.058C731.242 169.792 731.242 170.648 731.731 171.381L734.665 176.637L731.609 181.894C731.242 182.383 731.242 182.994 731.364 183.605C731.487 184.216 731.853 184.705 732.342 184.95C733.076 185.439 733.932 185.439 734.665 184.95L739.922 182.016L745.178 185.072C745.545 185.316 745.912 185.439 746.279 185.439ZM128.44 198.763C131.496 198.763 134.063 196.196 134.063 193.14C134.063 190.084 131.496 187.517 128.44 187.517C125.384 187.517 122.817 190.084 122.817 193.14C122.817 196.196 125.262 198.763 128.44 198.763ZM736.743 206.464C735.765 206.831 734.91 207.564 734.421 208.42C733.809 209.398 733.809 210.498 734.176 211.476C734.543 212.454 735.399 213.187 736.377 213.432C736.743 213.554 737.232 213.676 737.721 213.676C738.332 213.676 738.944 213.554 739.555 213.309C740.533 212.943 741.389 212.209 741.878 211.354C742.489 210.376 742.489 209.276 742.122 208.298C741.389 206.464 738.944 205.608 736.743 206.464ZM93.5996 220.155L91.6436 227.123C91.3991 228.101 92.0104 229.201 92.9883 229.445C93.1106 229.445 93.3551 229.445 93.4773 229.445C93.9663 229.445 94.4553 229.323 94.822 228.956L100.079 224.067L107.047 226.023C108.025 226.267 109.125 225.656 109.37 224.678C109.492 224.067 109.369 223.455 108.88 222.967L103.991 217.71L105.947 210.742C106.191 209.765 105.58 208.664 104.602 208.42C103.991 208.298 103.379 208.42 102.89 208.909L97.6337 213.798L90.6656 211.72C89.6877 211.476 88.5874 212.087 88.3429 213.065C88.2207 213.676 88.3429 214.287 88.8319 214.776L93.5996 220.155ZM863.758 238.736C866.081 238.736 868.037 236.78 868.037 234.457C868.037 232.135 866.081 230.179 863.758 230.179C861.436 230.179 859.48 232.135 859.48 234.457C859.48 236.78 861.313 238.736 863.758 238.736ZM862.78 295.944C861.925 296.555 861.802 297.778 862.414 298.756C862.78 299.245 863.392 299.611 864.125 299.489L871.215 299.122L875.616 304.745C875.983 305.112 876.35 305.479 876.961 305.479C877.083 305.479 877.083 305.479 877.206 305.479C877.572 305.479 878.061 305.357 878.428 305.112C878.917 304.745 879.284 304.012 879.162 303.401L878.795 296.311L884.418 291.91C885.274 291.299 885.396 290.076 884.785 289.099C884.418 288.61 883.807 288.243 883.073 288.365L875.983 288.732L871.582 283.109C870.971 282.253 869.748 282.131 868.771 282.742C868.282 283.109 867.915 283.842 868.037 284.453L868.404 291.543L862.78 295.944ZM768.161 310.368C767.427 311.224 767.427 312.446 768.161 313.302C768.65 313.791 769.506 314.036 770.239 313.791L774.762 312.08C775.007 311.958 775.373 312.08 775.618 312.202L779.408 316.114C779.774 316.48 780.63 317.336 781.486 317.336C781.73 317.336 781.975 317.336 782.097 317.214C783.32 316.603 783.075 315.014 783.075 314.402L782.586 310.613C782.586 310.368 782.708 310.002 782.831 309.879L787.476 305.479C788.087 304.99 788.332 304.134 787.965 303.401L787.598 302.423C787.354 301.812 786.865 301.445 786.498 301.445C786.131 301.323 785.642 301.323 785.031 301.689C783.32 302.789 781.853 303.278 780.63 303.034C779.53 302.789 778.43 301.934 777.574 300.589C776.84 299.367 775.251 299.122 774.029 299.856C773.173 300.345 772.806 301.323 772.806 302.178L773.051 304.99C773.051 305.479 772.929 305.723 772.684 306.09L768.161 310.368ZM38.2215 330.538L43.8449 334.45L44.0894 341.295C44.0894 341.784 44.3339 342.273 44.7006 342.64C45.0673 343.007 45.5563 343.129 46.0453 343.129C46.0453 343.129 46.0453 343.129 46.1676 343.129C46.7788 343.129 47.39 342.762 47.7568 342.273L51.6687 336.65L58.5146 336.406C59.0036 336.406 59.4925 336.161 59.8593 335.794C60.226 335.428 60.3483 334.939 60.3483 334.327C60.3483 333.716 59.9815 333.105 59.4925 332.738L53.8692 328.827L53.6247 321.981C53.6247 321.492 53.3802 321.003 53.0134 320.637C52.6467 320.27 52.1577 320.148 51.5465 320.148C50.9352 320.148 50.324 320.514 49.9572 321.003L46.0453 326.626L39.1995 326.871C38.7105 326.871 38.2215 327.115 37.8548 327.482C37.488 327.849 37.3658 328.338 37.3658 328.949C37.3658 329.682 37.7325 330.171 38.2215 330.538ZM829.285 374.056C830.14 374.545 831.118 374.789 832.096 374.789C832.585 374.789 832.952 374.789 833.441 374.667C834.908 374.3 836.13 373.567 836.986 372.344C837.842 371.122 838.086 369.777 837.842 368.433C837.475 367.088 836.619 365.988 835.397 365.254C834.175 364.521 832.708 364.399 831.241 364.765C828.184 365.499 826.228 368.31 826.84 371C827.206 372.222 828.062 373.322 829.285 374.056ZM132.23 386.035H132.352C133.33 386.035 134.186 385.546 134.675 384.691C136.631 381.268 139.198 379.923 142.988 380.779C143.966 380.901 144.943 380.29 145.066 379.312V379.067V378.212C145.066 377.356 144.577 376.745 143.599 376.5C139.442 375.767 137.609 373.444 137.731 369.411C137.731 368.677 137.364 368.066 136.753 367.821C136.508 367.699 136.386 367.577 136.142 367.577C135.653 367.332 135.164 367.332 134.675 367.455C134.186 367.577 133.819 367.944 133.574 368.433L133.452 368.555C131.985 372.222 129.54 373.444 125.506 372.344C125.017 372.222 124.406 372.222 123.917 372.589C123.428 372.833 123.061 373.322 122.939 373.811C122.817 374.422 122.939 375.156 123.306 375.645C123.917 376.5 124.773 377.112 125.628 377.478C128.929 378.823 130.029 379.801 129.785 383.346C129.907 384.935 130.763 385.913 132.23 386.035ZM21.7181 389.947C24.0408 389.947 25.9968 387.991 25.9968 385.668C25.9968 383.346 24.0408 381.39 21.7181 381.39C19.3954 381.39 17.4394 383.346 17.4394 385.668C17.4394 387.991 19.3954 389.947 21.7181 389.947ZM910.946 413.295C910.579 411.828 908.623 411.706 907.767 411.583C904.1 411.339 902.022 409.383 901.411 405.594C901.166 404.127 899.821 403.027 898.232 403.149L897.499 403.271C897.01 403.271 896.521 403.516 896.154 404.005C895.787 404.493 895.665 404.982 895.665 405.471V405.716C896.032 407.794 895.787 409.383 895.054 410.483C894.32 411.461 893.098 412.072 891.264 412.439C890.408 412.561 889.919 413.173 889.675 413.906C889.675 414.028 889.553 414.15 889.553 414.395C889.186 415.495 889.797 416.718 890.897 417.084C894.687 418.429 897.132 420.874 898.232 424.663C898.354 425.274 898.843 425.763 899.332 426.008C899.699 426.252 900.066 426.252 900.433 426.252C900.677 426.252 900.922 426.252 901.044 426.13C901.411 426.008 901.655 425.886 901.9 425.641C902.511 425.03 902.878 424.296 902.755 423.441C902.633 422.341 902.633 418.429 906.178 417.451C907.523 417.084 908.379 416.718 908.99 416.229C909.723 415.862 911.313 414.762 910.946 413.295ZM47.2678 463.78C47.5123 463.291 47.5123 462.802 47.3901 462.313C47.1456 461.702 46.6566 461.213 46.0453 461.091L30.3977 456.568L24.652 441.41C24.5298 440.921 24.163 440.554 23.674 440.31C23.1851 440.065 22.6961 440.065 22.2071 440.188C21.5958 440.432 21.1069 440.921 20.9846 441.532L16.4615 457.179L1.30276 462.924C0.813775 463.047 0.44704 463.413 0.202545 463.902C-0.0419498 464.391 -0.041948 464.88 0.0802994 465.369C0.324794 465.98 0.813782 466.469 1.42502 466.592L17.0727 471.115L22.8183 486.272C22.9406 486.761 23.3073 487.128 23.7963 487.372C24.0408 487.495 24.4075 487.617 24.652 487.617C24.8965 487.617 25.141 487.617 25.2633 487.495C25.8745 487.25 26.3635 486.761 26.4857 486.15L31.0089 470.503L46.1676 464.758C46.6566 464.636 47.0233 464.269 47.2678 463.78ZM809.358 463.536C808.38 463.78 807.647 464.88 808.014 465.858C808.136 466.469 808.625 466.958 809.236 467.203L822.439 472.215L825.984 485.906C826.228 486.761 826.962 487.372 827.818 487.372C827.94 487.372 828.184 487.372 828.307 487.372C828.918 487.25 829.407 486.761 829.651 486.15L834.663 472.948L848.355 469.403C848.844 469.281 849.333 468.914 849.578 468.547C849.822 468.058 849.944 467.57 849.822 467.081C849.7 466.469 849.211 465.98 848.6 465.736L835.397 460.724L831.852 447.033C831.607 446.055 830.507 445.322 829.529 445.688C828.918 445.811 828.429 446.3 828.184 446.911L823.172 460.113L809.358 463.536ZM109.003 483.339C111.203 483.339 112.915 481.627 112.915 479.427C112.915 477.227 111.203 475.515 109.003 475.515C106.802 475.515 105.091 477.227 105.091 479.427C105.091 481.627 106.802 483.339 109.003 483.339ZM907.645 503.753C907.401 502.53 906.423 501.552 905.2 501.186C901.533 500.452 900.066 498.252 900.555 494.34C900.677 493.24 899.944 492.14 898.843 491.895C897.132 491.529 896.398 492.629 896.276 492.873C894.198 497.152 893.709 498.252 889.43 499.963C888.697 500.33 886.741 501.063 886.741 502.775C886.741 504.364 888.819 505.097 889.553 505.342C892.731 506.442 893.709 508.52 892.853 511.943C892.609 512.798 892.853 513.41 893.098 513.776C893.342 514.143 893.831 514.51 894.809 514.51H895.787C897.132 514.51 898.354 513.532 898.599 512.187C899.455 508.398 901.655 506.686 905.567 507.053C906.667 507.175 907.278 506.809 907.523 506.442C908.012 505.953 908.134 505.22 908.012 504.364L907.645 503.753ZM100.323 561.695C100.201 562.184 100.445 562.673 100.69 563.162C101.057 563.651 101.668 563.895 102.157 563.895L108.636 564.017L112.548 569.151C112.915 569.64 113.526 569.885 114.137 569.885C114.504 569.885 114.993 569.763 115.36 569.518C115.849 569.151 116.093 568.54 116.093 568.051L116.215 561.572L121.35 557.661C121.716 557.294 121.961 556.927 122.083 556.316C122.205 555.827 121.961 555.338 121.716 554.849C121.35 554.36 120.739 554.116 120.25 554.116L113.77 553.994L109.858 548.859C109.247 548.004 108.025 547.881 107.169 548.493C106.68 548.859 106.436 549.471 106.436 549.96L106.313 556.438L101.179 560.35C100.69 560.717 100.445 561.206 100.323 561.695ZM817.916 575.997C818.527 575.997 819.016 575.752 819.383 575.263L823.294 570.374H829.651C830.752 570.374 831.607 569.396 831.607 568.296C831.607 567.684 831.363 567.195 830.874 566.829L825.984 562.917V556.561C825.984 555.46 825.128 554.605 824.028 554.605C823.417 554.605 822.928 554.849 822.561 555.338L818.649 560.228H812.292C811.803 560.228 811.314 560.472 810.947 560.839C810.581 561.206 810.336 561.695 810.458 562.306C810.458 562.917 810.703 563.406 811.192 563.773L816.082 567.684V574.041C815.96 575.141 816.938 575.997 817.916 575.997ZM145.921 655.086C146.41 655.453 147.022 655.698 147.633 655.453L161.447 651.541L172.327 660.832C172.694 661.076 173.06 661.321 173.549 661.321H173.672C174.161 661.321 174.65 661.076 175.016 660.709C175.383 660.22 175.628 659.609 175.383 658.998L171.471 645.185L180.762 634.305C181.129 633.939 181.251 633.45 181.251 632.961C181.251 632.472 181.006 631.983 180.64 631.616C180.151 631.249 179.54 631.005 178.928 631.249L165.114 635.161L154.234 625.871C153.379 625.137 152.278 625.26 151.545 626.115C151.178 626.604 150.934 627.216 151.178 627.827L155.09 641.64L145.799 652.519C145.066 653.13 145.066 654.353 145.921 655.086ZM776.351 627.216C774.151 627.216 772.44 628.927 772.44 631.127C772.44 633.327 774.151 635.039 776.351 635.039C778.552 635.039 780.263 633.327 780.263 631.127C780.263 628.927 778.552 627.216 776.351 627.216ZM94.3331 648.485C93.7218 648.119 92.9883 648.119 92.3771 648.485C90.4211 649.83 88.5874 649.952 86.5092 648.73C86.1425 648.485 85.898 648.241 85.7757 647.874C85.2868 646.407 84.5533 645.185 83.5753 644.207C83.0863 643.718 81.9861 642.74 81.0081 643.473C80.0301 644.207 80.5191 645.429 80.7636 646.163L83.6975 653.13V653.497L84.3088 653.864C84.92 654.231 85.409 653.986 85.6535 653.864C85.7757 653.864 85.898 653.742 86.0202 653.619C87.1205 653.986 88.2207 654.108 89.0764 654.108C92.0104 654.108 93.8441 652.519 94.9443 651.052C95.4333 650.074 95.1888 648.974 94.3331 648.485ZM85.0423 655.82C84.5533 655.331 84.0643 654.842 83.5753 654.353V653.986C83.5753 653.008 83.2085 652.519 82.7196 652.275C82.3528 652.03 81.7416 651.908 80.8858 652.397C78.9299 653.497 77.4629 655.086 76.3627 657.042C75.8737 658.142 76.2404 659.487 77.3407 659.976C77.5852 660.098 77.9519 660.22 78.3186 660.22C78.4409 660.22 78.4409 660.22 78.5632 660.22L83.6975 659.731C84.3088 659.609 84.7978 659.365 85.1645 658.876C85.5312 658.387 85.6535 657.776 85.6535 657.164C85.6535 656.675 85.409 656.186 85.0423 655.82ZM845.91 692.003L850.556 676.112C850.8 675.012 850.311 674.034 849.211 673.667C848.6 673.545 847.866 673.667 847.377 674.034L834.419 684.424L818.527 679.779C818.038 679.657 817.549 679.657 817.06 679.901C816.571 680.146 816.204 680.512 816.082 681.124C815.96 681.735 816.082 682.468 816.449 682.957L826.84 695.915L822.194 711.806C822.072 712.295 822.072 712.784 822.316 713.273C822.561 713.762 822.928 714.128 823.539 714.251C823.783 714.251 823.906 714.373 824.15 714.373C824.639 714.373 825.006 714.251 825.373 713.884L838.331 703.494L854.223 708.139C855.201 708.505 856.301 707.894 856.668 706.794C856.79 706.183 856.668 705.449 856.301 704.96L845.91 692.003ZM121.35 685.035C118.294 685.035 115.726 687.602 115.726 690.658C115.726 693.714 118.294 696.281 121.35 696.281C124.406 696.281 126.973 693.714 126.973 690.658C126.973 687.602 124.406 685.035 121.35 685.035ZM703.247 694.937C703.492 694.448 703.492 693.837 703.247 693.348C703.003 692.859 702.636 692.37 702.147 692.247C701.536 692.003 700.925 692.003 700.314 692.37L696.768 694.325C696.402 694.57 696.035 694.57 695.668 694.325L690.778 690.903C690.045 690.414 689.067 690.414 688.456 691.147L688.089 691.514C687.233 692.37 687.233 693.714 688.089 694.57C691.023 697.504 691.145 700.071 688.333 703.005C687.967 703.494 687.722 703.982 687.844 704.594C687.844 704.716 687.844 704.96 687.844 705.083C687.844 705.572 688.089 706.183 688.456 706.55C688.822 706.916 689.311 707.161 689.923 707.161C690.412 707.161 690.9 707.039 691.267 706.672C693.957 704.471 696.402 704.471 698.847 706.672C699.947 707.65 701.047 708.505 702.147 708.505C702.514 708.505 702.759 708.383 703.125 708.261C704.348 707.527 704.103 705.816 703.614 704.105C703.492 703.86 703.492 703.616 702.27 702.271C701.414 701.171 701.169 700.193 701.781 698.848L703.247 694.937ZM145.677 718.407C145.066 718.04 144.332 717.918 143.721 718.285L137.12 721.463L131.007 717.184C130.152 716.573 128.929 716.818 128.318 717.673C127.951 718.285 127.829 718.896 128.196 719.629L131.374 726.352L127.095 732.464C126.484 733.32 126.729 734.543 127.584 735.154C128.196 735.521 128.929 735.643 129.54 735.276L136.264 732.098L142.376 736.376C142.743 736.621 143.11 736.743 143.477 736.743C143.599 736.743 143.721 736.743 143.843 736.743C144.332 736.621 144.821 736.376 145.066 735.887C145.432 735.276 145.555 734.543 145.188 733.931L142.01 727.208L146.288 721.096C146.777 720.24 146.533 719.018 145.677 718.407ZM222.693 723.785C222.693 720.852 220.248 718.407 217.314 718.407C214.38 718.407 211.935 720.852 211.935 723.785C211.935 726.719 214.38 729.164 217.314 729.164C220.248 729.164 222.693 726.719 222.693 723.785ZM304.354 734.909C304.476 734.42 304.599 734.054 304.354 733.565L304.11 732.953C303.865 732.098 303.254 731.731 302.887 731.731C302.52 731.609 301.909 731.731 301.298 732.342C301.053 732.587 300.809 732.831 300.687 733.076C299.342 734.543 297.142 737.11 295.552 737.354C294.085 737.599 293.719 737.354 293.719 737.354C291.763 736.254 290.051 735.398 289.073 736.498C288.095 737.599 289.195 739.188 290.54 740.899L293.23 744.322C293.352 744.444 293.352 744.566 293.23 744.689L290.662 749.578C290.173 750.434 290.54 751.412 291.274 751.778C291.518 751.901 291.64 752.023 291.763 752.145C292.007 752.267 292.374 752.39 292.741 752.39C293.23 752.39 293.719 752.145 294.085 751.901L298.731 747.5C298.975 747.256 299.464 747.133 299.831 747.256L301.909 747.867C303.498 748.356 305.21 748.722 305.943 747.5C306.799 746.278 305.821 744.933 304.843 743.588L302.276 740.41C302.154 740.166 302.154 740.043 302.154 739.799L304.354 734.909ZM791.877 753.857H791.755C790.043 754.59 788.821 755.812 788.087 757.524C787.72 758.502 787.598 759.357 787.965 760.091C788.332 760.824 788.943 761.435 789.921 761.68C790.777 762.047 791.51 762.169 792.366 762.169C792.733 762.169 792.977 762.169 793.344 762.047C794.566 761.924 795.544 760.947 795.789 759.602C796.033 758.135 795.789 756.668 795.3 755.323C794.566 753.979 793.099 753.368 791.877 753.857ZM649.459 773.415C650.437 774.515 651.659 775.249 653.126 775.493C653.371 775.493 653.615 775.493 653.86 775.493C655.082 775.493 656.182 775.126 657.038 774.393C658.138 773.537 658.749 772.193 658.749 770.726C658.749 769.259 658.26 767.914 657.282 766.814C655.327 764.491 651.904 764.003 649.703 765.836C647.625 767.547 647.503 770.97 649.459 773.415ZM747.379 777.938C746.89 777.571 746.156 777.449 745.545 777.693L738.822 780.505L732.831 776.227C731.976 775.615 730.753 775.86 730.142 776.716C729.775 777.204 729.653 777.938 729.897 778.549L732.709 785.272L728.43 791.262C728.186 791.629 728.064 792.24 728.064 792.729C728.186 793.218 728.43 793.707 728.797 793.951C729.286 794.318 730.02 794.44 730.631 794.196L737.355 791.384L743.345 795.663C743.711 795.907 744.078 796.03 744.445 796.03C745.056 796.03 745.667 795.785 746.034 795.174C746.401 794.685 746.523 793.951 746.279 793.34L743.467 786.617L747.746 780.627C747.99 780.261 748.112 779.649 748.112 779.16C748.112 778.671 747.746 778.182 747.379 777.938ZM388.827 801.53C390.05 801.53 390.905 800.552 391.028 799.452L391.15 795.418C391.15 794.196 390.172 793.218 388.949 793.218H388.338C385.893 793.218 383.815 794.929 383.693 797.007V797.496C383.693 798.474 384.059 799.33 384.671 800.063C385.526 800.919 386.749 801.408 388.094 801.53H388.827ZM233.94 808.131L236.018 801.286C236.385 800.308 235.773 799.208 234.795 798.841C234.184 798.597 233.451 798.841 232.962 799.208L227.46 803.853L220.615 801.775C219.637 801.408 218.536 802.019 218.17 802.997C217.925 803.608 218.17 804.342 218.536 804.831L223.182 810.332L221.104 817.177C220.981 817.666 220.981 818.155 221.226 818.644C221.47 819.133 221.837 819.5 222.326 819.622C222.571 819.744 222.693 819.744 222.937 819.744C223.426 819.744 223.915 819.622 224.16 819.255L229.661 814.61L236.507 816.688C237.485 817.055 238.585 816.444 238.952 815.466C239.196 814.855 238.952 814.121 238.585 813.632L233.94 808.131ZM640.535 842.114L633.689 842.603L629.288 837.347C628.921 836.98 628.432 836.736 627.943 836.613C627.454 836.613 626.965 836.736 626.476 837.102C625.987 837.469 625.743 838.08 625.743 838.691L626.232 845.537L620.975 849.937C620.119 850.671 620.119 851.893 620.73 852.627C621.097 853.116 621.708 853.36 622.32 853.36L629.166 852.871L633.566 858.128C633.933 858.617 634.544 858.861 635.033 858.861C635.522 858.861 635.889 858.739 636.256 858.372C636.745 858.005 636.989 857.394 636.989 856.783L636.5 849.937L641.757 845.537C642.613 844.803 642.613 843.581 642.002 842.848C641.757 842.236 641.146 841.992 640.535 842.114ZM592.369 845.659C589.313 845.659 586.746 848.226 586.746 851.282C586.746 854.338 589.313 856.905 592.369 856.905C595.425 856.905 597.992 854.338 597.992 851.282C597.992 848.226 595.425 845.659 592.369 845.659ZM271.47 847.615C269.147 847.615 267.313 849.449 267.313 851.771C267.313 854.094 269.147 855.927 271.47 855.927C273.792 855.927 275.626 854.094 275.626 851.771C275.626 849.449 273.792 847.615 271.47 847.615ZM368.656 878.42L354.965 869.252L354.353 852.749C354.353 852.26 354.109 851.771 353.742 851.404C353.375 851.038 352.886 850.915 352.397 850.915C351.786 850.915 351.297 851.282 350.93 851.771L341.762 865.462L325.258 866.073C324.769 866.073 324.28 866.318 323.914 866.684C323.547 867.051 323.425 867.54 323.425 868.029C323.425 868.64 323.791 869.129 324.28 869.496L337.972 878.664L338.583 895.166C338.583 895.655 338.828 896.144 339.195 896.511C339.561 896.878 340.05 897 340.417 897H340.539C341.151 897 341.64 896.633 342.006 896.144L351.175 882.453L367.678 881.842C368.167 881.842 368.656 881.598 369.023 881.231C369.39 880.864 369.512 880.375 369.512 879.764C369.512 879.275 369.145 878.786 368.656 878.42ZM558.507 868.885C558.262 868.274 557.895 867.907 557.651 867.785C557.406 867.662 556.917 867.54 556.306 867.785C553.617 868.763 551.661 868.885 550.316 868.151C549.216 867.54 548.604 866.44 548.115 864.729C547.504 862.039 545.548 861.917 544.693 862.039C543.226 862.284 542.492 863.262 542.492 864.729C542.737 869.007 541.025 871.33 536.869 872.063C535.646 872.308 534.791 873.53 534.913 874.752L535.035 875.608C535.157 876.83 536.013 877.442 537.235 877.442L543.715 876.83C544.204 878.786 545.182 880.498 546.526 881.964C546.771 882.209 547.504 883.065 548.36 883.065C548.482 883.065 548.727 883.065 548.849 882.942C549.949 882.576 550.071 881.109 550.071 880.742L550.316 876.097C550.316 875.608 550.56 875.241 551.049 875.119L558.018 872.063C558.873 871.696 559.24 870.841 558.995 869.985L558.507 868.885Z"
        fill="black" />
</svg>