<svg xmlns="http://www.w3.org/2000/svg"  version="1.0" viewBox="0 0 1260 1280"><path d="M605 110c-72.3 4.6-155.8 27.1-219.5 59.1-19 9.6-30.1 15.7-45.2 24.8-5 3.1-11.3 6.8-14 8.4-10 5.7-34.4 23.1-42.6 30.4-2.7 2.3-7.6 6.3-11 8.9-8.3 6.2-46.1 41.8-50.4 47.4-1.9 2.5-7.7 8.8-12.8 14.1-5.2 5.4-11.8 12.8-14.6 16.5-2.9 3.8-6.7 8.4-8.4 10.2-1.7 1.8-4.2 5.1-5.6 7.3-1.3 2.3-4.9 7.3-8 11.2-3.1 4-8.6 11.7-12.2 17.2-3.7 5.5-7.6 11.3-8.7 13-15.5 22.5-43.7 83.6-57 123.5-4.8 14.4-10.9 38.3-14.4 56.5-1.5 7.7-3.3 17.1-4.1 21-.8 3.8-1.9 11.7-2.4 17.5-.6 5.8-1.5 14.3-2.2 19-.7 5.3-1.1 24-1.2 49.5 0 37.1.2 42.5 2.2 57 1.2 8.8 2.6 19.1 3.1 23 1.2 9 3.7 22.9 5 28 .5 2.2 3 12.1 5.5 22 6.3 25.7 17.8 59.2 26.9 79.1 1.5 3.3 4.1 9.3 5.7 13.4 1.6 4.1 5.2 11.3 7.9 16 2.7 4.7 7 12.7 9.5 17.8 2.4 5.1 6.8 12.9 9.6 17.5 2.9 4.5 6.7 10.7 8.6 13.7 17.4 27.9 17.4 27.9 38.7 53.5 19 22.9 56.9 60.5 73.6 72.9 3 2.3 10.4 8.1 16.5 12.9 30.8 24.7 83.4 54.7 122.5 70 34.8 13.6 46.3 17.3 77.5 25.1 17.1 4.2 31.2 7.1 42.5 8.6 4.7.6 10.8 1.5 13.5 2 2.8.5 9.7 1.4 15.5 2 5.7.7 10.7 1.3 11 1.5.3.2 6.8.6 14.5 1 7.7.3 19.4 1 26 1.5 12.1.9 47.2.6 60-.5 22.4-1.9 39.4-3.8 49.5-5.6 15-2.7 35.1-6.7 42-8.4 24.1-5.9 50.5-13.6 60-17.5 3-1.2 8.7-3.3 12.5-4.5 9.4-3.1 19.4-7.4 35.8-15.6 5.5-2.7 10.3-4.9 10.9-4.9.5 0 6.1-2.5 12.4-5.5 13-6.1 34.5-18.9 52.7-31.3 6.7-4.5 14.1-9.5 16.5-11 6.1-3.8 22.3-16.4 31.2-24.2 4.1-3.6 10.9-9.1 15-12.2 14.1-10.7 56.6-54.7 68-70.5 1.9-2.6 6.9-9.1 11-14.4 8.9-11.4 26.8-37.3 32.7-47.3 16.2-27.6 35.1-64.7 40.2-79.1 2.2-6.1 5.8-15.2 8-20.3 4.6-10.3 9.6-26.5 13.1-41.7 1.2-5.5 3.8-16.3 5.6-24 1.9-7.7 3.4-14.9 3.4-16 0-1.1 1.1-8.5 2.4-16.5 5.3-31.4 6.1-42.4 6.1-87.5-.1-27-.5-44.9-1.2-50-.7-4.4-2-14.5-2.9-22.5-1.7-15.7-9.1-53.5-12.9-66.5-4.4-15.1-16.7-50-22.6-64.5-10.5-25.5-25.3-53.7-39.5-75-12.9-19.6-29.6-43.1-34.8-49.3-1.1-1.4-5.2-6.4-9.1-11.1-3.8-4.7-17.5-18.9-30.3-31.6-36.2-35.7-51-47.8-92-75.3-13.9-9.3-34.7-21-45.7-25.7-6.6-2.8-17.4-8-24-11.5-6.6-3.5-18.9-9.1-27.4-12.5-19.7-7.8-55.7-19.4-68.4-22-5.3-1.1-15.2-3.4-22-5-12.2-3-43.3-8.3-58.2-10-23-2.6-32.4-3.2-58-3.5-15.4-.2-34.1 0-41.5.5zm67.5 7c12.1.5 26.5 1.6 32 2.4 5.5.9 16.3 2.5 24 3.7 20.9 3.2 54.8 11 74.5 17.1 15.8 4.9 25.5 8.2 27.9 9.4 1.4.8 3.1 1.4 3.6 1.4.6 0 4.4 1.4 8.5 3.1 4.1 1.7 15.8 6.4 26 10.5 10.1 4.2 19.8 8.4 21.5 9.4 1.6 1 7.3 3.7 12.5 6.1 19.6 8.8 79.7 48.7 98.7 65.6 20.9 18.6 53.6 51.1 62.2 61.8 3 3.8 7 8.4 8.7 10.2 3.9 3.8 14.5 17.4 19.4 24.7 1.9 2.8 6 8.5 9.1 12.6 3.1 4.1 6.6 9.4 7.8 11.8 1.2 2.3 4.2 7.4 6.7 11.3 4.6 7 15.8 28 23.4 43.4 12.6 26 22.2 51.6 28.5 76.4 1.9 7.5 4.8 18.3 6.5 24.1 3.7 12.7 8.1 38.1 11 62.5 2.1 17.9 4.1 51.3 3.4 57-.2 1.6-.9 15.4-1.4 30.5-1.2 29.2-1.6 34.2-4.9 57-3.4 23.3-7.2 40.6-13.2 59.5-2.1 6.6-5 16.3-6.5 21.5-1.4 5.2-3.8 12.2-5.2 15.5-1.3 3.3-4 10.4-5.8 15.8-1.8 5.3-5.6 14.4-8.4 20.1-2.7 5.8-5 10.7-5 11 0 .9-9.4 19.5-16.5 32.6-7.9 14.5-19.6 33.9-23.5 39-1.5 1.9-5.6 7.7-9.1 12.9-9.1 13.3-8.3 12.3-20.3 27.1-17.8 22-51.5 57.1-68.5 71.4-25.4 21.4-54.3 42.8-71.1 52.5-4.1 2.4-10.9 6.7-15 9.6-7.4 5.1-27.3 15.7-38.5 20.5-3.2 1.4-8.2 3.8-10.9 5.3-9.5 5.2-19.1 9.5-28.1 12.5-52.2 17.7-63.3 21.3-69.8 22.6-4.2.9-12 2.7-17.4 4-5.4 1.4-12 2.8-14.8 3.1-2.7.4-7.5 1.3-10.5 2s-8.2 1.6-11.5 2c-3.3.3-10.5 1.2-16 2s-20.8 1.9-34 2.5c-13.2.6-25.1 1.2-26.5 1.5-3 .5-35.3-1.1-62.5-3.1-49.7-3.6-116.2-19.4-163.5-38.7-16.8-6.9-30.4-12.8-31.4-13.6-.6-.5-8.7-4.8-18.1-9.6-9.3-4.8-22.8-12.4-29.8-16.9-7.1-4.4-14.4-9-16.2-10.1-20.4-12.3-53-39.3-82.3-68-17.8-17.4-30.9-32.1-51.3-57.5-7-8.7-22.5-31.3-24.1-35.1-.3-.8-3.5-6.5-7-12.5-14.6-24.7-22.5-40.2-32.4-63.6-4.4-10.5-17.3-49.4-21-63.8-2-7.4-4.4-16.7-5.4-20.6-1-3.9-2.6-11.4-3.5-16.5-.8-5.2-2.2-13-3-17.4-3.9-22-5.3-37.5-6.1-67.5-.6-24.7 1-61.2 3.5-80.7 5-38.1 9.5-60 18.6-89.3 1.2-4.1 3.1-10.4 4-14 2.7-9.6 16.3-42.4 27.6-66.6 5.4-11.6 9.9-21.5 9.9-22s1.4-2.7 3-4.8c1.7-2.2 3-4.2 3-4.6 0-1.1 15.7-26.9 18.8-30.8 1.6-2 5.2-7.1 8-11.3 2.8-4.2 5.7-8.3 6.4-9 .7-.8 3.3-4.1 5.7-7.4 23.6-31.8 62.4-71.6 97.6-100.1 4.5-3.6 14.3-10.8 32.3-23.6 3.7-2.6 7.2-4.8 7.8-4.8.6 0 3-1.8 5.5-4 5.3-4.9 12.6-9.6 23.4-14.9 4.4-2.2 9.1-4.7 10.5-5.6 1.4-.8 7.2-3.8 13-6.5 5.8-2.8 12.8-6.5 15.5-8.2 2.8-1.7 8.6-4.4 13-6 8.2-3.1 19.9-7.8 31.5-12.9 3.6-1.5 13.1-4.8 21-7.4 8-2.5 19.2-6.1 25-8 5.8-1.9 16.8-4.9 24.5-6.6 16-3.6 16.6-3.7 37.5-7.3 8.5-1.5 18.8-3.3 22.8-4.1 4-.8 9.8-1.5 13-1.5 3.1 0 8.4-.4 11.7-1 3.3-.5 14.6-1.2 25-1.5 10.5-.4 19.2-.9 19.5-1.1.2-.3 3.4-.2 7 .1 3.6.3 16.4 1 28.5 1.5z"/><path d="M638.4 120.7c-.3 1-1.4 4-2.4 6.8-1 2.7-4.3 12.4-7.5 21.5-7.6 22.1-8.1 23.5-9.1 23.5-1.2 0-11.6-29.1-15.1-41.9l-2.7-9.9-6.4.6c-3.6.4-6.7.8-6.9 1.1-.2.2 1.4 4.4 3.5 9.2 2.2 4.9 5 11.8 6.2 15.4 1.3 3.6 2.8 7.7 3.6 9.1 1.2 2.4 10.4 27 11.8 31.6.7 2.1-12.1 42.3-17.8 56-1.4 3.5-2.6 6.7-2.6 7.3 0 1.3 6.6 1.3 9.1 0 1-.6 1.9-2 1.9-3.1 0-2.4 3.9-15.9 5-17.4.5-.6 1.8-4.8 3.1-9.5 1.2-4.7 2.8-9.2 3.6-10.1.7-.8 1.3-3.2 1.3-5.2 0-2.3.5-3.7 1.3-3.7 1 0 4.3 8.2 15.5 39l2.8 7.5 5.3.3c4.1.2 5.2 0 4.9-1-8.6-22.7-15.4-40.5-17.3-44.8-3.1-7.2-4.9-14.4-4.2-17.2.8-3.7 14-40.2 19.1-53.1 2.6-6.4 4.4-12.2 4.1-12.7-.3-.6-2.6-1-5.1-1-3.4 0-4.6.4-5 1.7zM659.7 121.4c-1.3 3.2-2.5 26.3-4.2 79.1-.6 16.4-2.4 40.2-3.4 44.7-.5 2-.6 3.9-.3 4.2.3.4 3.1.6 6.2.6h5.7l.7-19.3c.3-10.5 1.1-32.5 1.6-48.7.6-16.2 1.7-36.2 2.6-44.3.9-8.1 1.3-15.5 1-16.3-.7-1.9-9.2-1.9-9.9 0zM682.1 133.2c0 6.8-.4 17-1 22.8-.6 5.8-1.5 17.7-2.1 26.5-2.3 36.2-4.1 61.2-4.6 64.6-.5 3.2-.3 3.7 1.7 4.2 4.2 1.2 7.7.8 8.3-.9.3-.9.6-4.1.6-7.2 0-3.1.4-10.6 1-16.6 1.7-20.2 3.3-43 3.5-51.6.2-7.6.9-16.7 3.4-44 .5-5.8.4-8.7-.3-9.2-.6-.4-3.2-.8-5.8-.8h-4.7v12.2zM391.8 177.2c-2.7 1.1-4.8 2.5-4.8 3 0 .6.9 2.3 2 3.8 1.2 1.6 6 10 10.9 18.7 4.8 8.7 10.6 18.9 12.8 22.8 7 12.3 28 54.1 30.3 60.4 3.4 9.1 4 9.3 12.8 3.6.1-.1-4.1-8.3-9.3-18.3-5.2-10-9.5-18.5-9.5-19 0-.4-1.3-2.9-3-5.5-6.1-9.6-15.2-27.2-24-46.4-10.1-22-11.5-24.7-12.7-24.9-.4-.1-2.9.7-5.5 1.8zM373.8 186.1c-2.1 1.1-3.8 2.2-3.8 2.4 0 1.6 7.4 37.1 9.5 45.5 1.4 5.7 2.3 10.5 2.1 10.8-.9.8-2-.1-32.8-26.6-2.7-2.3-6.7-5.4-8.8-6.8l-3.9-2.6-2.8 2c-3.3 2.3-6.8 6.1-6.2 6.6.2.2 4.2 2.9 8.9 5.9 16.3 10.8 21 14.3 30.5 22.7 5.3 4.6 10.7 9.1 12 10 4 2.6 6.2 6.3 6.9 11.5.3 2.7 1.7 10.2 3 16.5 3.2 15.4 5.4 27.4 6.2 33.8.8 6 1.5 6.8 4.6 5.1 5.6-2.9 5.6-3 3.3-14.1-4.6-21.6-7.8-38.8-7.2-39.4.3-.4 2.1.7 3.9 2.4 5.1 4.6 12.7 11.1 20.8 17.7 4 3.3 8.7 7.2 10.4 8.6l3 2.6 4.8-2c2.6-1.1 4.8-2.3 4.8-2.7 0-.4-5.7-5.2-12.7-10.6-7-5.5-16.5-13.1-21-16.9-4.6-3.9-10.3-8.6-12.7-10.5-3.5-2.7-4.8-4.6-5.9-8.5-1.8-6.4-10.4-51.2-11.3-58.8-.3-3.1-.9-5.9-1.3-6.1-.3-.2-2.3.5-4.3 1.5zM906.8 189.7c-1.8 4.2-10.3 18.7-22.8 39.3-6.2 10.2-13 21.4-15 25-7.5 13.3-12.9 21.8-23.4 37-3.6 5.2-6.6 9.8-6.6 10.2 0 1.2 10.1 6 11.5 5.4.7-.2 3.5-4.9 6.3-10.3 2.7-5.4 7.1-13.6 9.7-18.3 2.6-4.7 6.2-11.2 8-14.5 3-5.8 13.7-22.7 23.4-36.8 2.5-3.7 6.8-10.5 9.4-15 2.7-4.5 6.4-10.2 8.3-12.6 1.9-2.4 3.4-4.9 3.4-5.5 0-1-8.9-6.6-10.4-6.6-.4 0-1.2 1.2-1.8 2.7zM612 256.1c-3.6.4-12.1 1.2-19 1.9-12.6 1.1-41.7 5.8-53.4 8.5-7.8 1.8-54.1 17.1-65.1 21.5-10.9 4.4-37.5 17.2-46 22.2-3.8 2.2-11.3 6.9-16.5 10.3-5.2 3.4-11.3 7.3-13.5 8.6-6.4 3.8-31.1 23.4-44 35-13.9 12.4-19.8 19-50 56.3-17.3 21.4-34.9 50.7-48 80.1-9.3 20.8-20.2 52.7-22.5 65.5-.6 3.6-1.7 8.7-2.5 11.5-2.2 8-6.4 31.2-7.4 41.5-2.9 27.3-2 73.5 1.8 94.5 9.1 50 15 71.6 26.6 96 1.3 2.7 4.2 9.5 6.5 15s4.9 11.1 5.7 12.4c.9 1.4 3.9 6.8 6.8 12 15.9 29.3 31.7 51.2 51 71.1 5.6 5.8 11.6 12.3 13.4 14.4 7.3 8.7 32.7 29.9 55.8 46.5 16 11.5 59 35 71.8 39.1 2.2.7 6.3 2.4 9 3.7 6.9 3.4 39.6 14.1 47.3 15.5l6.2 1.1v7.7c0 7.3 1.2 11 4.4 13.2 3.7 2.6 7.8-1.1 10.3-8.9 1.4-4.4 2.1-5.3 4-5.3 1.2 0 11.2 1.2 22 2.6 17.9 2.4 22.9 2.6 51.3 2.6 51.6-.1 76.5-2.7 111.6-11.7 7.1-1.9 16.1-4.6 20-6 3.8-1.5 13.5-4.9 21.5-7.5 8-2.7 17-6 20-7.3 3-1.4 8.6-3.9 12.4-5.6 8-3.5 29.1-14.1 38-19.1 3.3-1.8 14.1-8.7 24-15.3 25.4-17 49.6-37.6 62.2-52.9 2.1-2.6 9.4-11 16.3-18.8 6.9-7.8 14.1-16.4 16-19 9.8-13.6 14.8-20.9 17-24.5 1.3-2.2 4.3-6.6 6.6-9.7 4.2-5.7 14.8-25 23.2-42.3 3.9-7.9 14.2-34.3 14.2-36.3 0-.4 2.5-7.5 5.6-15.7 3.1-8.3 5.8-16.3 6-17.8.2-1.5 1-5.1 1.8-8 .8-2.9 2-8.6 2.5-12.7.6-4.1 1.5-9.1 2.1-11 1.4-4.6 3-16 4-28.5.5-5.5 1.4-15.9 2-23 1.1-12.8.7-32-1-47.5-2.5-22.5-6-42.9-9.3-55-4.7-17.2-10-34.7-11.1-36.9-.8-1.4-3-7.3-5.1-13.1-5.8-16.3-17.6-38.7-33.5-63.5-3.1-5-6.6-10.4-7.6-12.1-3.6-6-16.9-22.9-23.9-30.4-3.9-4.1-9.6-10.7-12.7-14.5-7.2-9-33.6-33.8-42.9-40.3-1.2-.8-3-2.3-3.8-3.1-6.2-6.2-37.6-26.5-59-38.1-14.4-7.8-32-16-34.5-16-.6 0-3.6-1.2-6.4-2.6-2.9-1.4-9.4-3.9-14.5-5.4-5.1-1.5-14.4-4.6-20.7-6.9-24.5-9-60.3-16-92.5-18.1-16.5-1.1-43-1.1-54.5.1zm56 7.4c15.8 1.3 41.5 4.9 50 7 3 .8 8.4 2.1 12 3 21.1 5.2 27.8 7.1 39.5 11 15.9 5.2 25.2 8.8 30.2 11.5 2.1 1.1 4.2 2 4.7 2 3.4 0 37.6 17.6 48.7 25.1 3.2 2.1 8.1 5 11 6.4 12.8 6 30 19.5 48.4 38.1 6.1 6 13.1 12.7 15.7 14.8 5 4 18.5 19.6 30.7 35.5 13.5 17.7 21 29.1 28.4 43.1 1.9 3.6 5.4 10.1 7.8 14.5 5.7 10.8 11.9 23.3 11.9 24.2 0 .4 1.8 4.4 4 8.8 2.1 4.5 4.4 10.3 5.1 13.1.7 2.7 2.7 9.6 4.5 15.4 8.8 27.9 11.8 43.2 14.2 73.5 2 24.4 2.1 57 .2 69.7-.5 3.7-1 8.9-1 11.7 0 2.7-1.1 10.3-2.4 16.8-1.4 6.5-3 14.5-3.7 17.8-.6 3.3-2 8.7-3 12-1 3.3-2.7 9.6-3.8 14-1.1 4.4-2.8 10-3.7 12.5-.8 2.5-3.6 10.3-6 17.5-7.2 20.9-14.9 38.5-18.9 42.8-1.1 1.2-6.1 9.1-11.2 17.7-12.4 21-15.2 25.3-21.7 33.5-3.1 3.8-5.6 7.4-5.6 7.8 0 3.2-30.7 39-40.6 47.2-3.3 2.8-9.2 8-13.2 11.7-4.1 3.7-12.6 10.7-19 15.4-6.4 4.8-12.4 9.5-13.2 10.4-2.5 2.7-37.7 24-49.7 30-4 2-7.8 4.2-8.6 4.8-.8.7-4 2.1-7.2 3.2s-6.4 2.5-7 3c-1.4 1.1-22.6 9.5-28.4 11.2-1.9.5-6.2 2.2-9.5 3.8-7.9 3.5-10.6 4.4-13.1 4.2-1.1-.2-7.8 1.3-15 3.3-15.4 4.2-19.2 5.1-30.5 7.1-10.5 1.9-40.8 5.4-51.5 6.1-13.7.8-48.8.9-53 .2-2.2-.4-9.8-1.3-17-1.9-12.1-1-32.5-5.4-32.5-7 0-.3.6-1.4 1.3-2.3 1.1-1.7 1.8-1.6 10.7.2 5.2 1.1 14 2.4 19.5 3 5.5.6 12.5 1.6 15.5 2.1 7.1 1.3 34.7 3 47.5 3 16.6 0 62.7-7 83-12.5 2.8-.8 10.2-2.6 16.5-4 14.7-3.2 25.5-7.1 51-18.2 22.5-9.8 37.9-17.9 48.3-25.4 3.8-2.7 10-6.6 13.9-8.7 3.8-2 10.9-6.9 15.6-10.9 4.8-3.9 13.7-11 19.7-15.7 18.1-13.9 47.3-43.7 57.4-58.6 1.3-1.9 2.9-4 3.5-4.5 6.2-5.4 32-45.2 44.8-69 3.5-6.5 16.4-42.5 25.8-72 1.8-5.5 3.8-11.6 4.5-13.5.7-1.9 1.8-12.7 2.4-24 1.3-23.2 2.6-42 4.2-62.7 1-13 .9-15.3-1-27-1.2-7-3.1-16.5-4.2-21.1-1.2-4.6-2.9-12.7-3.9-18-6.8-36.3-13.1-58.3-20.8-72.5-6.2-11.4-12.7-23.6-24.4-46.2-11.9-22.9-13.1-24.7-22.9-35-3.6-3.9-10.4-11.3-15-16.5-4.6-5.2-16.1-17.3-25.6-26.8S895 362.5 895 362.1c0-.4-3.5-2.7-7.8-5s-11.5-6.8-16-9.9c-4.5-3.1-11.2-7.5-14.8-9.7-3.6-2.2-10.9-6.8-16.2-10.2-5.4-3.4-14.3-8.7-19.8-11.8-5.6-3-10.7-6.2-11.4-7-.7-.8-5.8-2.9-11.4-4.6-5.5-1.7-11.7-3.7-13.6-4.4-9.7-3.6-20.8-6.9-32.9-10.1-7.4-1.9-18.5-5-24.7-7-17.7-5.5-25-6.3-67.9-7.4-21.4-.6-42.1-1.5-45.8-2-5.8-.9-8-.7-14.5.9-10.8 2.7-23.1 5.4-41.7 9.1-8.8 1.7-23.1 4.9-31.8 7.1-8.6 2.1-16.4 3.9-17.2 3.9-.9 0-9.3 3.9-18.8 8.6-9.5 4.7-21.1 10.4-25.9 12.5-4.8 2.1-10.4 4.9-12.5 6.2-2.1 1.3-11.4 6.3-20.6 11.1-14.7 7.6-27.4 15.7-29.2 18.6-.3.5-7.7 6.9-16.3 14.2-8.6 7.3-21.3 18.7-28.2 25.3-6.9 6.6-14.9 14.1-17.8 16.7-3.4 3-8.4 9.6-14.4 19-5 7.8-12.5 18.7-16.6 24.1-4.1 5.5-9.6 13.3-12.2 17.6-2.6 4.2-7.4 11.7-10.6 16.6-3.3 5-6.7 10.8-7.6 13-8 18.7-24.7 66.7-29.8 86-1.2 4.3-2.5 8.4-3 9-.4.5-1.1 8.2-1.4 17-.4 8.8-1.1 21.2-1.7 27.5-3.7 42.4-3.7 51.9.1 73.5 3.8 22.4 3.8 22.3 7.1 35 1.5 6 3.4 14.7 4.3 19.1 3.2 17.2 11.9 39.4 22.9 58.9 1.8 3.3 4.9 8.7 6.7 12 1.8 3.3 5.1 8.8 7.2 12.3 2.1 3.5 7 12.5 10.8 20.1 4.9 9.8 8.9 16.1 13.7 21.8 14.1 16.5 35.8 39.6 46.1 48.9 5.9 5.3 11.4 10.5 12.2 11.4 2.7 3.1 34.9 24.5 52.6 35.1 7.9 4.7 29.7 15.9 30.9 15.9.4 0 2.2 1.2 4 2.6 4 3 20.3 9.9 28.3 11.9 8.3 2 22 6.1 27.2 8 2.5.9 6.3 2 8.5 2.3 3.4.6 4 1.2 4.3 3.5.2 1.7-.2 2.9-1.1 3.3-2.5.9-22.1-4.5-37.7-10.4-7.6-2.9-18.2-6.6-26.1-9.1-3.1-1-10.9-4.7-17.5-8.3-6.5-3.5-15.9-8.4-20.9-10.8-8.9-4.3-23.7-13.9-32.5-21-2.5-2-7.4-5.7-11-8.2-3.6-2.5-9.5-7.2-13.2-10.4-3.6-3.3-9.6-8.5-13.2-11.6-20.2-17.4-46.4-48-63.3-73.8-1.9-3-4.1-6-4.8-6.5-.7-.6-2.7-3.9-4.5-7.5-1.8-3.6-4.3-7.9-5.7-9.6-1.3-1.7-4.1-7.4-6.3-12.5-2.2-5.2-4.9-11-5.9-12.9-2.7-4.9-12.6-30.1-15.2-38.5-1.2-3.9-3.6-12.6-5.4-19.5-1.8-6.9-4-15-4.9-18-1.4-4.6-3.5-18.4-6.1-39-.3-2.5-1.1-7.7-1.6-11.5-1.3-8.8-1.3-61.8 0-70.5.5-3.6 1.5-10.1 2.1-14.5 1.9-14 7.4-39 11.5-53 1.3-4.4 2.8-9.6 3.3-11.5 2.3-8.9 12.5-35 17.4-44.5 1.1-2.2 2.8-6.3 3.8-9 1-2.8 5.4-11.1 9.9-18.5s9.1-15.2 10.4-17.3c8.8-15 25.2-37.9 34.6-48.2 7.5-8.3 11.1-12.6 11.1-13.4 0-1.5 31.9-31.5 37-34.9 1.4-.9 6.7-5.2 11.8-9.5 5.2-4.2 10.6-8.4 12-9.1 1.5-.8 3.6-2.4 4.7-3.6 2.1-2.4 14-11 15.1-11 .4 0 5.9-2.9 12.3-6.4 36.1-19.8 52-27.4 65.1-30.9 3-.8 13.4-3.8 23-6.7 9.6-2.8 20.4-6 23.8-7 12.4-3.7 50.9-9.3 75.1-11 11.8-.8 40.6-.5 53.1.5zM175.1 364.5c-1.7 2-3.1 3.8-3.1 4.2 0 .3 1.9 2.7 4.3 5.2 2.3 2.6 8.3 9.4 13.2 15.1 5 5.8 11.4 13 14.3 16.2 2.9 3.1 5 5.8 4.5 6.1-.4.3-4.2-.4-8.3-1.5-4.1-1.1-15.6-3.7-25.5-5.7-9.9-2.1-18.6-4-19.4-4.2-1.9-.6-8.4 10.1-7.1 11.7.6.6 4.5 1.7 8.8 2.4 4.2.7 10.2 1.8 13.2 2.6 3 .7 10 2 15.5 2.8 14.8 2.2 31.5 5.6 34.6 6.9 3.6 1.6 25.7 25.1 34.9 37.2 7.1 9.2 7.4 9.5 9.1 7.8 1-1 2.1-3 2.4-4.5.6-2.3-.2-3.6-5.7-9.5-3.4-3.7-9.2-10.4-12.8-14.7-3.6-4.4-7.8-9.3-9.3-10.9-1.5-1.6-2.6-3.2-2.3-3.4.3-.3 4.5.2 9.3 1.2 19.5 3.8 35.2 6.5 37.7 6.5 1.6 0 2.9-1.2 4.5-4l2.2-3.9-2.3-.5c-1.3-.2-5.7-1.1-9.8-2-4.1-.9-8.7-1.6-10.1-1.6-3.3 0-22.4-4.2-35.3-7.7l-9.9-2.8-11-13.5c-6.1-7.4-13.9-16.7-17.3-20.7-3.5-4-8.2-9.7-10.5-12.8-2.3-3-4.5-5.5-4.9-5.5-.4 0-2.2 1.6-3.9 3.5zM1092 373.6c-3.6 2.5-9.9 6.3-14 8.5s-8.8 4.8-10.5 5.8c-1.6 1-5.6 3.4-8.7 5.2-3.1 1.9-12.3 7.4-20.5 12.2-22.8 13.6-38.2 22.1-44.5 24.6-3.2 1.3-6.2 2.9-6.9 3.7-1.5 1.8-.6 5.1 2.4 9.2l2.5 3.3 2.8-2.4c1.6-1.3 6.3-4.1 10.4-6.2 4.1-2.1 11.8-6.3 17-9.2 5.2-3 10.2-5.8 11-6.3.8-.4 5.8-3.3 11-6.3 11.1-6.3 16-9.1 29-16.2 12.2-6.6 14.4-7.9 15-8.5.3-.3 5.1-2.8 10.7-5.5 6.1-3 10.2-5.6 10.2-6.5 0-.8-.9-3.3-2.2-5.5-3.2-5.7-6.3-5.7-14.7.1zM1114 395.2c-5.7 3.6-33.4 18.6-49.5 26.8-17.9 9.2-27.7 14.4-36.5 19.5-3.6 2-11.6 6.1-17.7 9-6.2 3-11.3 5.6-11.3 6 0 1 2.1 4.9 3.7 6.7 1.4 1.5 3.5.7 27.7-11.6 14.4-7.2 28.5-14 31.2-15 2.7-1.1 5.4-2.2 5.9-2.6 1-.8 9.8-5.4 40-21 8.8-4.5 16.2-8.4 16.4-8.6.3-.2-5.8-11.4-6.2-11.4-.1 0-1.8 1-3.7 2.2zM84.2 615.2c-.6 2.9-.7 5.7-.3 6.1 1.5 1.5 47.2 16.7 50.2 16.7 4.9 0 2.3 2.5-4.4 4.2-20 4.9-48.5 14.5-47.9 16.1.1.4.2 2.7.2 5.2 0 3.6.3 4.5 1.8 4.5 2 0 18.3-5 29.7-9.1 7.8-2.8 13.4-4.4 32.5-9.4l9.4-2.4 10.1 4c26.1 10.6 49.8 17.9 51.1 15.7.3-.5.3-2.4 0-4.3-.6-3.1-1.1-3.5-6.4-5-3.1-.9-10.6-3.9-16.7-6.5-6-2.7-13.6-5.6-16.7-6.6-3.2-1-5.8-2.1-5.8-2.5 0-1.1 9.1-4.6 15.5-5.9 3.3-.7 9.4-2.5 13.5-4 4.1-1.6 10-3.7 13-4.8l5.5-1.9.3-4.7c.2-2.5-.1-4.6-.5-4.6s-6.2 1.8-12.8 4c-16.8 5.5-37.9 11.9-45 13.5-5.8 1.4-6.3 1.3-15.4-1.6-5.2-1.6-13.6-4.8-18.6-6.9-5.1-2.2-14.1-5.6-20.1-7.6-6-2-12.6-4.5-14.6-5.5-5.6-2.9-6.4-2.5-7.6 3.3zM1131.5 620.2c-7.7.4-28.6 1-46.5 1.3-17.9.3-33.5.8-34.7 1-2.1.5-2.3 1.1-2.3 6.5v5.9l16.3-.5c8.9-.3 27.1-.9 40.3-1.4 13.3-.6 32.2-1 42-1 9.9 0 22.3-.3 27.7-.7l9.8-.6-.3-5.6-.3-5.6-19-.1c-10.4 0-25.3.3-33 .8zM1047.8 650.7c-.2 3.2-.3 6.1-.1 6.5.2.4 16.6.7 36.6.7 19.9.1 50.5.2 68 .4l31.7.3V646l-8.2-.1c-4.6 0-35.1-.2-68-.5l-59.6-.5-.4 5.8zM1047.8 673.2c-.3 4-.1 6.6.6 7 .6.4 6.1.8 12.1.9 12.5 0 19.3.3 53.5 1.9 13.4.6 24.7 1.3 25 1.5 1.5.9 41.8 1.6 42.4.7 1.2-2 1.9-12.9.8-13.6-.5-.3-17.8-.8-38.3-1.1-42.8-.5-91.7-2.1-94.1-3-1.3-.5-1.6.4-2 5.7zM199.7 671.7c-.6.5-97.1 4.1-115.9 4.3-1.5 0-1.8 1-1.8 6v6h6.3c3.4 0 13.6-.5 22.7-1s25.1-1.2 35.5-1.5c10.5-.3 26.4-1 35.5-1.5 9.1-.6 20.7-1 25.8-1h9.2v-12.2l-8.6.4c-4.7.2-8.6.4-8.7.5zM233.2 802.5c-3.3 2.5-8.2 6.5-10.9 8.8-2.6 2.3-8.6 7.4-13.3 11.2-4.7 3.8-11.4 9.6-15 12.9-7.7 7.1-20.9 18.3-32.8 27.8-4.7 3.7-10.1 8.4-12 10.3-2 1.9-6.4 5.6-9.9 8.2-3.5 2.5-6.3 4.9-6.3 5.2 0 .4.7 1.6 1.5 2.8 1.2 1.8 2.2 2.1 5.3 1.6 4.8-.6 30.3-7.7 41.2-11.4 4.7-1.5 14.8-4.7 22.5-7 14.3-4.1 40.4-12.4 44-13.8 1.9-.8 7.4-2.1 15.3-3.6 1.7-.4 3.2-.8 3.2-1.1 0-1.5-4.6-9.4-5.5-9.4-.7 0-5.2 1.4-10.1 3-4.9 1.7-15.5 4.8-23.6 7-8 2.2-19.1 5.5-24.5 7.4-5.4 1.9-15.2 4.8-21.8 6.6-6.6 1.8-12.4 3.7-12.9 4.1-1.5 1.3-2.6 1.1-2.6-.6 0-.8.4-1.5.9-1.5s4.6-2.8 9-6.3c4.5-3.4 12-9.1 16.8-12.7 4.9-3.6 11.5-8.8 14.8-11.5 3.3-2.8 9.2-7.5 13-10.5 9.4-7.2 22.3-18.8 23.6-21.3 1.3-2.4-.7-10.7-2.6-10.7-.7 0-4 2-7.3 4.5zM1006.1 823.6c-1.2 1.9-2.1 4.1-2.1 4.8 0 .7 3.5 2.9 7.8 4.9 32.1 14.8 39.6 18.3 46.4 21.7 4.2 2.2 9.8 4.7 12.5 5.6 2.6.8 7.8 3.3 11.4 5.5 3.6 2.1 6.9 3.9 7.3 3.9.5 0 8.2 3.6 17.3 8 9 4.4 16.8 7.8 17.4 7.5.5-.4 1.8-2.4 3-4.6l2-4-6.6-3c-3.7-1.6-12.8-5.9-20.3-9.5-7.6-3.6-17.5-8.2-22.2-10.1-4.7-1.9-11-5-14.1-6.9-3.1-1.9-5.9-3.4-6.2-3.4-.3 0-7.7-3.4-16.4-7.6-29.6-14.3-34.1-16.4-34.6-16.4-.3 0-1.4 1.6-2.6 3.6zM996.2 844.7l-3 4.6 8.6 4.5c4.8 2.4 11.2 5.9 14.2 7.7 3 1.8 12 6.6 20 10.6 13.5 6.8 24.9 12.9 44.5 24.1 4.4 2.5 12.9 7.1 19 10.2l11 5.6 1.7-2.2c2.2-2.8 3.2-6.3 2.3-7.8-.4-.6-9.3-5.4-19.8-10.6-10.6-5.2-27.3-13.9-37.2-19.4-9.9-5.4-23.6-12.8-30.5-16.4-6.9-3.6-14.5-7.7-17-9.2-2.5-1.4-5.9-3.4-7.7-4.4l-3.2-1.9-2.9 4.6zM251.5 871c-26.9 16.8-30 18.7-39.5 24.8-11 7.1-33.4 20.8-38.5 23.7-14.4 8.1-17.5 10-17.5 10.8 0 1.3 4.9 9.7 5.6 9.7 1.5 0 27.3-16 48.4-29.9 12.9-8.6 27.7-18.1 32.8-21.1 23-13.7 33.2-20.2 33.2-21.1 0-.9-4.8-9-5.3-8.8-.1 0-8.7 5.4-19.2 11.9zM983.3 863.5c-2.9 4.4-2.9 4.9.5 6.6 1.5.7 6.9 4 12 7.2 5 3.1 10.4 6.2 12 6.8 1.5.6 3.8 2 5.2 3.3 1.4 1.2 5.4 3.9 9 6.1 3.6 2.1 14.6 9 24.5 15.3 9.9 6.3 19.6 12.5 21.5 13.7 11.2 7 25.8 15.5 26.8 15.5.4 0 2-2.1 3.6-4.7l3-4.6-3.2-2.6c-1.7-1.4-7.7-5-13.4-8s-13.4-7.2-17.3-9.5c-3.8-2.3-8.7-5-10.7-6.1-5.3-2.8-20.1-12-28.3-17.5-3.8-2.6-12.4-7.8-19-11.6-6.6-3.7-14.2-8.3-16.9-10.1-2.6-1.8-5.3-3.3-6-3.3-.6 0-2.1 1.6-3.3 3.5zM278.3 878.4c-1.1 1.9-8.1 7.1-24.5 18.1-7.9 5.3-25.1 17-38.3 26.1-13.2 9-28.4 19.3-33.7 22.9-5.3 3.6-10 7-10.3 7.5-.7 1.1 2.6 7 5 9 1.2 1 2.3.3 6.2-3.7 4.8-4.8 10.2-8.6 48.3-33.9 11.3-7.5 25.5-17.3 31.5-21.9 8.8-6.6 22.6-16.3 24.3-17.2.2 0-.9-2-2.4-4.2-2.8-4.2-4.7-5.1-6.1-2.7zM970.1 882.8c-2.1 2.9-2.9 4.8-2.2 5 2 .7 35.7 23.1 51.6 34.3 3.3 2.4 12.8 8.8 21 14.4 8.3 5.6 19 13.3 23.9 17 12.5 9.4 13.3 9.7 16.2 6 3.5-4.3 4.1-7.3 1.8-9-1.1-.7-6.6-4.2-12.4-7.6-5.8-3.5-13.4-8.4-17-11-3.6-2.6-12.1-8.2-19-12.4-6.9-4.3-14.5-9.4-17-11.5-2.5-2-7.6-5.8-11.5-8.3-12-8.1-22.9-15.7-26.7-18.7-2-1.7-4-3-4.5-2.9-.4 0-2.3 2.1-4.2 4.7zM289.5 897c-2.2 2.2-4.4 4-5 4-1.1 0-15.1 10.3-24.3 17.8-2.3 1.9-6.9 5.3-10.2 7.6-10.3 7.1-30.7 21.7-43.3 31.1-6.7 5-14.3 10.6-16.9 12.3-2.7 1.8-4.8 3.6-4.8 4.1 0 .4 1.5 2.5 3.4 4.6 3.9 4.6 2.6 5.2 18.8-7.7 16.2-12.8 21.6-16.9 29.3-22.2 3.8-2.6 9.3-6.7 12-9.1 2.8-2.3 6.8-5.3 9-6.7 2.2-1.4 4.9-3.5 6-4.8 1.1-1.2 3.6-3.1 5.5-4.1 1.9-1.1 6.4-3.9 10-6.4 13.4-9.3 17.3-12 19.3-13.6l2-1.6-2.1-3.5c-3.8-6.1-4.4-6.2-8.7-1.8zM370.5 976.2c-1.3 5.8-18.1 55.6-24.8 73.3-1.9 4.9-5.5 15.3-8.1 23-2.6 7.7-6.1 17.7-7.8 22.2-5.5 14.9-2.2 15 13.8.6 6.6-5.8 17.8-16.1 24.9-22.8 7.2-6.7 18-16.6 24-22 11.8-10.6 40.5-38.6 40.5-39.5 0-.3-1.9-1.3-4.2-2.2l-4.1-1.8-8.6 7.8c-4.7 4.2-16 14.9-25.1 23.7-26.9 26-42.1 39.8-42.8 39.1-.3-.4 0-1.7.7-2.9 1.4-2.1 5-12.5 18.8-53.7 4.1-12.4 9-25.8 10.9-29.9 1.9-4.1 3.4-8 3.4-8.7 0-1.1-6.4-6.9-9.7-8.8-.7-.4-1.4.6-1.8 2.6zM862.7 986.4c-2 1.2-4 2.5-4.3 2.8-.3.3 1.1 5.1 3 10.6s4.9 15.4 6.6 21.9c6.1 23.1 9.2 34 14.6 50.9 3 9.4 5.4 17.6 5.4 18.3 0 2.2-1.5.9-8.6-7.4-3.8-4.4-11.9-13-18-19-15.1-15.1-31-32-39.5-42l-7.1-8.4-6.3 3.1-6.2 3.1 26.6 26.6c14.6 14.6 28.3 28.6 30.5 31.1 2.1 2.5 11.7 12.5 21.4 22.2 16.8 17.1 20.5 19.8 21.8 16.3.7-1.7-8.1-37.5-13.1-53.5-1.8-5.8-4-13.9-4.9-18-1.7-7.3-2.3-9.6-6.6-23.2-1.1-3.6-3.8-13.5-5.9-21.9-2.1-8.4-4.2-15.4-4.7-15.6-.5-.1-2.6.8-4.7 2.1zM435.5 1022.2c-2.2 4.5-5 9.7-6.3 11.6-1.3 1.9-4.7 8-7.6 13.6-15.4 29.4-18.1 34.3-21.8 40.5-2.3 3.6-6.7 11.5-9.8 17.6-3.1 6-7.7 13.9-10.3 17.5-2.6 3.5-4.7 6.9-4.7 7.5 0 1.4 9.6 6.8 11 6.3.5-.2 3.6-5.5 6.7-11.8 7-14 49.4-93.6 53.4-100.3 1.6-2.7 2.9-5.4 2.9-6.1 0-1.1-7-4.6-9.1-4.6-.3 0-2.3 3.7-4.4 8.2z"/><path d="M459.7 1026.2c-.6 1.8-8.5 17.9-17.6 35.8-9 17.9-17.5 34.7-18.8 37.5-1.3 2.7-3 6.1-3.8 7.5-.9 1.4-3.3 5.9-5.4 10-2.1 4.1-6.1 11.5-9 16.3-2.8 4.9-5.1 9-5.1 9.2 0 .6 10.5 5.5 11.6 5.5 1.1 0 3.8-5.4 22.1-44 8-16.8 16.7-35.1 19.4-40.7 4.5-9.5 12.7-24.8 17.1-32l1.9-3.2-5-2.6c-2.8-1.4-5.3-2.5-5.7-2.5-.3 0-1.1 1.5-1.7 3.2zM581.8 1056.6c-.3.3.8 4.9 2.4 10.2 2.7 8.8 5.5 20.9 9.2 39.2.7 3.6 2.7 11.9 4.3 18.5 1.7 6.6 3.8 16.9 4.7 23 1.8 10.9 3.3 18.2 6.3 30.3 3.2 12.5 6.3 10.5 11.8-7.6 1.9-6.4 5.7-18.7 8.5-27.2 2.7-8.5 7.9-25.6 11.6-38 3.6-12.4 7.7-25.4 8.9-29 3.7-10 5.8-18 5.2-18.6-1.2-1.2-9.4-1.6-10.1-.6-.3.6-1.7 5.2-3.1 10.4-1.3 5.1-4.1 14.7-6 21.3-11 36.7-19.3 65.8-19.5 68.2 0 .2-.5.3-1 .3-1.6 0-2.9-4.3-5.1-16-1.1-5.8-3.3-16.4-4.9-23.5-1.7-7.2-3.9-18.2-4.9-24.5-1.1-6.3-2.7-14.8-3.6-18.8-.8-4-1.5-8.4-1.5-9.8 0-1.4-.7-3.8-1.5-5.4-1.4-2.7-2-3-6.4-3-2.6 0-5 .2-5.3.6zM658.7 1065.7c.7 8.7.8 117 .1 120.4-.4 1.7 7.1 3.4 10.7 2.5l2.7-.7-.6-27.2c-.3-15-.8-44.6-1.2-66l-.7-38.7h-11.9l.9 9.7z"/></svg>