<svg xmlns="http://www.w3.org/2000/svg" class="sign-illustration" viewBox="0 0 97.45 136.88">
  <g data-name="Layer 2">
    <g data-name="Layer 1">
      <path d="M56.19 31.89a2.36 2.36 0 1 1-2.36-2.35 2.35 2.35 0 0 1 2.36 2.35Zm-40.9 47.16a2.36 2.36 0 1 1-2.36-2.36 2.36 2.36 0 0 1 2.36 2.36Zm-8.22 3.14a2.36 2.36 0 1 1-2.35-2.35 2.35 2.35 0 0 1 2.35 2.35Z" class="cls-1"/>
      <circle cx="47.15" cy="76.69" r="2.36"/>
      <path d="M34.43 134.52a2.36 2.36 0 1 1-2.36-2.36 2.36 2.36 0 0 1 2.36 2.36Z" class="cls-1"/>
      <circle cx="36.79" cy="113.5" r="2.36"/>
      <path d="M73.88 118.21a2.36 2.36 0 1 1-2.36-2.35 2.36 2.36 0 0 1 2.36 2.35Zm-10.22-7.07a2.36 2.36 0 1 1-2.36-2.36 2.36 2.36 0 0 1 2.36 2.36ZM4.72 91a2.36 2.36 0 1 1-2.36-2.36A2.36 2.36 0 0 1 4.72 91Zm12.14-34.48a3.93 3.93 0 1 1-3.93-3.93 3.93 3.93 0 0 1 3.93 3.93ZM97.45 3.93A3.93 3.93 0 1 1 93.52 0a3.93 3.93 0 0 1 3.93 3.93Zm-9 124.3a3.93 3.93 0 1 1-3.93-3.93 3.93 3.93 0 0 1 3.93 3.93Zm-9.86-57.96a3.93 3.93 0 1 1-3.93-3.93 3.93 3.93 0 0 1 3.93 3.93Z" class="cls-1"/>
      <path d="M32.26 135.49 1.93 91.04l2.46-9.14 8.15-3.12V55.83l34.68 20.44 27.35-6.38.18.77-27.66 6.45-.14-.08-33.63-19.82v22.11l-8.28 3.17-2.26 8.41 29.11 42.65 4.58-20.42 24.94-2.4 10.33 7.16 13.02 10.03-.48.62-13-10.01-10.08-6.98-24.09 2.31-4.85 21.63z"/>
      <path d="m13.13 56.86-.4-.68 40.9-24.62L93.3 3.61l.45.64-39.69 27.97-40.93 24.64z"/>
    </g>
  </g>
</svg>
