<svg xmlns="http://www.w3.org/2000/svg" viewBox="0 0 156.91 65.53">
  <g data-name="Layer 2">
    <path d="M4 27.77 43.41 4.93 39.78 4l12.46 22.82a2.69 2.69 0 0 0 3.63.95L93.24 4.93 89.62 4 100 26.82a2.66 2.66 0 0 0 3.62.95L141 4.93 137.37 4l14.54 22.84c1.82 2.87 6.41.22 4.57-2.67L142 1.31a2.7 2.7 0 0 0-3.63-.95L101 23.2l3.62.95L94.19 1.31a2.66 2.66 0 0 0-3.62-.95L53.19 23.2l3.63.95Q50.58 12.74 44.36 1.31a2.69 2.69 0 0 0-3.63-.95L1.28 23.2C-1.67 24.91 1 29.49 4 27.77Zm0 37.38 39.41-22.84-3.63-1Q46 52.78 52.24 64.2a2.69 2.69 0 0 0 3.63 1l37.37-22.89-3.62-1L100 64.2a2.66 2.66 0 0 0 3.62 1L141 42.31l-3.63-1 14.54 22.89c1.82 2.87 6.41.21 4.57-2.67Q149.22 50.1 142 38.69a2.7 2.7 0 0 0-3.63-.95L101 60.58l3.62 1-10.43-22.89a2.66 2.66 0 0 0-3.62-.95L53.19 60.58l3.63 1-12.46-22.89a2.68 2.68 0 0 0-3.63-.95L1.28 60.58C-1.67 62.28 1 66.86 4 65.15Z" class="cls-1" data-name="Aquarius Mono"/>
  </g>
</svg>
