<svg xmlns="http://www.w3.org/2000/svg" viewBox="0 0 98.03 88.24">
  <g data-name="Layer 2">
    <g data-name="Aries Mono">
      <path d="M4 27.62C2.45 18.41 5.16 7.54 15 4.45a18.83 18.83 0 0 1 16.69 2.77c8 6 10.82 17.21 12.57 26.49 3.33 17.59 1.24 35.16 2.93 52.78.22 2.32 3.88 2.35 3.65 0-2.22-23.23 2.09-47.49-7.7-69.59C38.92 7.4 31.4-.17 20.42 0 4.73.24-1.87 14.57.45 28.6c.39 2.31 3.91 1.33 3.53-1Z" class="cls-1"/>
      <path d="M97.57 28.6C99.9 14.54 93.28.27 77.61 0c-11-.18-18.52 7.41-22.72 16.9-9.79 22.1-5.49 46.35-7.7 69.59-.23 2.34 3.43 2.33 3.65 0 1.68-17.62-.41-35.19 2.92-52.78 1.71-9 4.42-19.71 11.75-25.86a18.27 18.27 0 0 1 15.56-3.76c11.14 2.24 14.67 13.3 13 23.53-.39 2.3 3.14 3.29 3.52 1Z" class="cls-1"/>
    </g>
  </g>
</svg>
