<svg xmlns="http://www.w3.org/2000/svg" class="sign-illustration" viewBox="0 0 125.75 119.2">
  <g data-name="Layer 2">
    <g data-name="Layer 1">
      <path d="M36.15 44a2.36 2.36 0 1 1-2.36-2.36A2.36 2.36 0 0 1 36.15 44Zm8.25 17.51a2.36 2.36 0 1 1-2.35-2.36 2.36 2.36 0 0 1 2.35 2.36Zm-.78 53.76a3.93 3.93 0 1 1-3.93-3.93 3.93 3.93 0 0 1 3.93 3.93Zm82.13-24.63a3.93 3.93 0 1 1-3.93-3.93 3.93 3.93 0 0 1 3.93 3.93ZM7.86 3.93A3.93 3.93 0 1 1 3.93 0a3.93 3.93 0 0 1 3.93 3.93Z" class="cls-1"/>
      <path d="m40.08 115.28-.78-.03 2.35-53.66-8.21-17.41L3.61 4.16l.64-.47 29.86 40.09 8.33 17.65v.1l-2.36 53.75z"/>
      <path d="m41.919 61.879.27-.743 79.77 29.128-.272.742z"/>
    </g>
  </g>
</svg>
