<svg xmlns="http://www.w3.org/2000/svg" viewBox="0 0 117.63 113.58">
  <g data-name="Layer 2">
    <path d="M2.49 4.2C37.73-.93 29.56 63.64 29.56 84.8h4c-1.12-21.57-1.21-46.28 6.57-66.65C42.72 11.29 49.47 1 57.45 4.62c9.24 4.23 11.6 21 13.08 29.35 3.41 19.24-2.35 58.62 20.25 68.43 21.34 9.27 34.91-20.31 21.53-35.54-11.18-12.72-29.48-3.52-34.79 9.74-2.76 6.87-2 13.34-3 20.41-1.84 13.09-15.07 13.24-25.81 12.27-2.55-.23-2.53 3.74 0 4 11.6 1 26.13.35 29.32-13.23 1.15-4.91.36-10 1.24-15 2-11.26 10.42-22.93 23.37-19.61 14.91 3.82 14.67 30.2.07 34.21-15.41 4.23-22.3-13.58-24.36-25.29-2.09-11.88-1.43-24.15-3.15-36.12C73.64 27.3 71.49 13 63.53 4.47c-10.05-10.81-22.42.7-26.71 11.21-8.53 21-8.42 46.81-7.26 69.12.13 2.53 4 2.57 4 0C33.53 61.36 42.37-5.59 1.44.37-1.08.74 0 4.57 2.49 4.2Z" class="cls-1" data-name="Capricorn Mono"/>
  </g>
</svg>
