<svg xmlns="http://www.w3.org/2000/svg" class="sign-illustration" viewBox="0 0 146.18 132.95">
  <g data-name="Layer 2">
    <g data-name="Layer 1">
      <circle cx="136.75" cy="21.68" r="2.36"/>
      <circle cx="91.69" cy="130.59" r="2.36"/>
      <path d="M123.91 118.21a2.36 2.36 0 1 1-2.36-2.35 2.35 2.35 0 0 1 2.36 2.35Z" class="cls-1"/>
      <circle cx="56.32" cy="130.59" r="2.36"/>
      <circle cx="28.42" cy="122.14" r="2.36"/>
      <circle cx="16.24" cy="107.73" r="2.36"/>
      <path d="M69.68 84.55a2.36 2.36 0 1 1-2.35-2.36 2.36 2.36 0 0 1 2.35 2.36Zm76.5-80.62A3.93 3.93 0 1 1 142.25 0a3.93 3.93 0 0 1 3.93 3.93ZM7.86 118.21a3.93 3.93 0 1 1-3.93-3.93 3.93 3.93 0 0 1 3.93 3.93Zm113.69 10.02a3.93 3.93 0 1 1-3.93-3.93 3.93 3.93 0 0 1 3.93 3.93ZM43.75 94.9a3.93 3.93 0 1 1-3.93-3.9 3.93 3.93 0 0 1 3.93 3.9Z" class="cls-1"/>
      <path d="M91.71 131h-35.5l-27.9-8.45L3 118.47l13-11.08 23.63-12.84 27.49-10.34 70.19-63.57-15.39 97.72-4 10.24Zm-35.33-.78h35.29l25.68-2.34 3.82-9.75 15-95.39-68.64 62.15h-.07L40 95.27l-23.53 12.79L4.83 118l23.66 3.79Z"/>
      <path d="m136.377 21.565 5.516-17.743.754.235-5.516 17.742z"/>
    </g>
  </g>
</svg>
