<svg xmlns="http://www.w3.org/2000/svg" viewBox="0 0 71.78 99.08">
  <g data-name="Layer 2">
    <g data-name="Leo Mono">
      <g data-name="Leo Symbol">
        <path d="M32.44 69.56c-1 18.55-29 18.73-29 0s28-18.57 29 0c.11 2.21 3.56 2.22 3.44 0-.52-9.74-7.78-17.94-17.94-17.94a17.93 17.93 0 0 0-.88 35.83c10.5.51 18.28-7.79 18.82-17.89.12-2.22-3.33-2.21-3.44 0Z" class="cls-1"/>
        <path d="M34 61.73c-1.3-7.79-6.3-14.06-8.8-21.39-2.88-8.47-4-19.52.79-27.5C32.71 1.77 50.17.29 56.73 12.16c6.16 11.16 1.09 23.43-2.88 34.3-4.62 12.64-19 38.85-4.27 49.66 13 9.58 28.08-6 19.85-19.32-1.16-1.88-4.15-.15-3 1.74C71.6 86.85 64.87 98.28 54.8 95c-7.77-2.5-8.58-10-7.45-16.8 1.78-10.62 6.15-20.81 9.82-30.87C62.26 33.45 68.8 11.59 51.9 2.42 37.7-5.28 21.82 6.59 19.73 21a44.46 44.46 0 0 0 2.15 20.3c2.48 7.34 7.5 13.63 8.83 21.39.37 2.19 3.7 1.26 3.32-.91Z" class="cls-1"/>
      </g>
    </g>
  </g>
</svg>
