<svg xmlns="http://www.w3.org/2000/svg" class="sign-illustration" viewBox="0 0 109.55 146.44">
  <g data-name="Layer 2">
    <g data-name="Layer 1">
      <path d="M79.77 128a2.36 2.36 0 1 1-2.36-2.36 2.36 2.36 0 0 1 2.36 2.36Zm9.04 16.08a2.36 2.36 0 1 1-2.36-2.35 2.36 2.36 0 0 1 2.36 2.35Z" class="cls-1"/>
      <circle cx="2.36" cy="91.43" r="2.36"/>
      <path d="M16.11 73.09a2.36 2.36 0 1 1-2.36-2.36 2.36 2.36 0 0 1 2.36 2.36ZM27.9 56.85a2.36 2.36 0 1 1-2.36-2.36 2.36 2.36 0 0 1 2.36 2.36Zm81.65 28.55a3.93 3.93 0 1 1-3.93-3.93 3.92 3.92 0 0 1 3.93 3.93ZM90.38 19.39a3.93 3.93 0 1 1-3.93-3.93 3.93 3.93 0 0 1 3.93 3.93ZM25.54 3.93A3.93 3.93 0 1 1 21.61 0a3.93 3.93 0 0 1 3.93 3.93Z" class="cls-1"/>
      <path d="m86.11 144.28-9.16-16.33 28.25-42.61-19.06-65.63-64.1-15.27 3.91 52.52-11.88 16.36L2.69 91.63l-.67-.41 11.4-18.34 11.72-16.15-3.96-53.31 65.58 15.64 19.29 66.41-.1.15-28.08 42.37 8.92 15.9-.68.39z"/>
      <path d="M105.35 85.69 21.34 4.21l.55-.56 84.01 81.47-.55.57z"/>
    </g>
  </g>
</svg>
