<svg xmlns="http://www.w3.org/2000/svg" class="sign-illustration" viewBox="0 0 168.97 141.86">
  <g data-name="Layer 2">
    <g data-name="Layer 1">
      <path d="M128.89 88.55a2.36 2.36 0 1 1-2.36-2.36 2.36 2.36 0 0 1 2.36 2.36Z" class="cls-1"/>
      <circle cx="166.61" cy="42.05" r="2.36"/>
      <path d="M124.17 57.76a2.36 2.36 0 1 1-2.35-2.35 2.35 2.35 0 0 1 2.35 2.35Zm-8.64-20.43a2.36 2.36 0 1 1-2.36-2.33 2.36 2.36 0 0 1 2.36 2.33Zm-38.9-27.11a2.36 2.36 0 1 1-2.36-2.36 2.36 2.36 0 0 1 2.36 2.36ZM92 46a2.36 2.36 0 1 1-2.36-2.36A2.35 2.35 0 0 1 92 46Z" class="cls-1"/>
      <circle cx="71.91" cy="60.12" r="2.36"/>
      <circle cx="64.05" cy="51.48" r="2.36"/>
      <path d="M9.43 64.84a2.36 2.36 0 1 1-2.36-2.36 2.36 2.36 0 0 1 2.36 2.36Zm-4.71 8.64a2.36 2.36 0 1 1-2.36-2.36 2.36 2.36 0 0 1 2.36 2.36Zm35.36 58.16a2.36 2.36 0 1 1-2.36-2.36 2.36 2.36 0 0 1 2.36 2.36Zm23.97-10.54a2.36 2.36 0 1 1-2.36-2.36 2.35 2.35 0 0 1 2.36 2.36ZM27.9 108.72a2.36 2.36 0 1 1-2.36-2.36 2.36 2.36 0 0 1 2.36 2.36ZM66.41 16.9a2.36 2.36 0 1 1-2.36-2.36 2.36 2.36 0 0 1 2.36 2.36Zm-12.18-2.36a2.36 2.36 0 1 1-2.36-2.36 2.36 2.36 0 0 1 2.36 2.36ZM35.76 2.36A2.36 2.36 0 1 1 33.4 0a2.36 2.36 0 0 1 2.36 2.36ZM121 79.77a3.93 3.93 0 1 1-3.93-3.93 3.93 3.93 0 0 1 3.93 3.93Zm22.82-22.01a3.93 3.93 0 1 1-3.93-3.93 3.93 3.93 0 0 1 3.93 3.93ZM128.89 6.29A3.93 3.93 0 1 1 125 2.36a3.93 3.93 0 0 1 3.89 3.93ZM82.13 42.05a3.93 3.93 0 1 1-3.93-3.93 3.93 3.93 0 0 1 3.93 3.93Zm-7.86 95.88a3.93 3.93 0 1 1-3.93-3.93 3.93 3.93 0 0 1 3.93 3.93ZM32.62 42.05a3.93 3.93 0 1 1-3.93-3.93 3.93 3.93 0 0 1 3.93 3.93Z" class="cls-1"/>
      <path d="m126.26 88.83-9.59-8.92 4.83-22.54h18.28l26.63-15.66.4.67L140 58.16h-17.87l-4.6 21.47 9.27 8.63-.54.57zM89.6 46.39l-11.67-4.02-.07-.13L63.8 17.25l-12.15-2.38L33.19 2.69l.43-.66 18.4 12.14 12.28 2.38.09.15 14.08 25.02 11.12 3.84 23.28-8.54 11.72-30.87.74.28-11.86 31.21-23.87 8.75z"/>
      <path d="m63.831 16.566 10.225-6.673.432.661-10.225 6.673zM121.45 57.92l-8.64-20.44.72-.3 8.65 20.43-.73.31zm-51.19 80.39-32.79-6.32L25.2 108.9 1.9 73.5l4.89-8.93 21.77-22.96.23.06 35.47 9.46 7.69 8.46 17.4-13.92.49.61-17.97 14.38-8.03-8.83-35.03-9.34L7.39 65.07l-4.57 8.39 23.05 35.04 12.11 22.79 32.43 6.25-.15.77z"/>
      <path d="m37.562 131.272 23.98-10.531.318.723-23.98 10.531z"/>
    </g>
  </g>
</svg>
