<svg xmlns="http://www.w3.org/2000/svg" viewBox="0 0 94.96 93.18">
  <g data-name="Layer 2">
    <g data-name="Sag Mono">
      <path d="M46.91 4.16c13.15 2.19 26.88 6 40.18 6.7-2.5-.14-.56-3.19-1.26-.48-.28 1.06.4 3 .54 4.14q.83 6.36 1.63 12.72 1.31 10.08 2.63 20.18c.35 2.69 4.63 2.72 4.28 0l-5-38.61a2.19 2.19 0 0 0-1.57-2.06L48.05 0c-2.69-.44-3.85 3.68-1.14 4.13Z" class="cls-1"/>
      <path d="m3.68 92.57 85.6-82.24c2-1.92-1-4.94-3-3L.65 89.54c-2 1.91 1 4.94 3 3Z" class="cls-1"/>
      <path d="M10.72 38.86 56 84.18c2 1.95 5-1.08 3-3L13.75 35.83c-1.95-1.95-5 1.08-3 3Z" class="cls-1"/>
    </g>
  </g>
</svg>
