<svg xmlns="http://www.w3.org/2000/svg" viewBox="0 0 83.13 99.33">
  <g data-name="Layer 2">
    <g data-name="Scorpio Mono">
      <path d="M.72 3.46c10.17 8.21 5.94 31.31 5.94 42.64v41.17c0 2.7 4.19 2.7 4.19 0V40.11C10.85 28 14.46 9.2 3.67.5c-2.07-1.68-5 1.27-2.95 3Z" class="cls-1"/>
      <path d="M10.24 16.58c2.82-3.13 6.21-7.11 9.94-9.08 6.56-3.5 11.52 3.27 12.73 9.32s0 13.39 0 19.42v51c0 2.7 4.18 2.7 4.18 0V23c0-7.18-1.4-15.7-8-20.16-7.8-5.26-16.9 5.39-21.79 10.82-1.8 2 1.15 5 3 3Z" class="cls-1"/>
      <path d="M79.45 90.72c-4 3.21-13 8.23-15.8.9-.57-1.49-.26-2.92-.31-4.42-.13-3.64 0-7.31 0-11V31c0-9.76 1-17.21-5.47-25.42-7.93-10.11-18.2 1.22-24.35 8.04-1.8 2 1.15 5 3 3 4.92-5.46 12.82-15.14 19.07-7 3.1 4 3.6 7.13 3.6 11.71V65c0 8.24-1 17.22.05 25.42 1.79 13.48 15.64 9.31 23.21 3.3 2.11-1.67-.87-4.61-3-3Z" class="cls-1"/>
    </g>
  </g>
</svg>
