<svg xmlns="http://www.w3.org/2000/svg" class="sign-illustration" viewBox="0 0 130.85 133.21">
  <g data-name="Layer 2">
    <g data-name="Layer 1">
      <path d="M94.41 37.33a3.93 3.93 0 1 1-3.93-3.93 3.93 3.93 0 0 1 3.93 3.93ZM4.72 117.1a2.36 2.36 0 1 1-2.36-2.36 2.36 2.36 0 0 1 2.36 2.36Zm4.71-7.47a2.36 2.36 0 1 1-2.36-2.35 2.35 2.35 0 0 1 2.36 2.35Zm16.11-10.47a2.36 2.36 0 1 1-2.36-2.36 2.35 2.35 0 0 1 2.36 2.36Zm-6.29-.79a3.93 3.93 0 1 1-3.92-3.93 3.92 3.92 0 0 1 3.92 3.93Zm-1.57 32.48a2.36 2.36 0 1 1-2.35-2.35 2.35 2.35 0 0 1 2.35 2.35Zm25.94 0a2.36 2.36 0 1 1-2.36-2.35 2.36 2.36 0 0 1 2.36 2.35Z" class="cls-1"/>
      <circle cx="60.08" cy="124.96" r="2.36"/>
      <path d="M64.8 101.51a2.36 2.36 0 1 1-2.36-2.35 2.36 2.36 0 0 1 2.36 2.35Zm2.35-20.95a2.36 2.36 0 1 1-2.35-2.36 2.35 2.35 0 0 1 2.35 2.36Zm17.34-32.23A2.36 2.36 0 1 1 82.13 46a2.36 2.36 0 0 1 2.36 2.33ZM103 33.4a2.36 2.36 0 1 1-2.4-2.4 2.36 2.36 0 0 1 2.4 2.4Zm23.14-31.04A2.36 2.36 0 1 1 123.78 0a2.36 2.36 0 0 1 2.36 2.36Zm4.71 17.16a2.36 2.36 0 1 1-2.35-2.36 2.35 2.35 0 0 1 2.35 2.36Zm0 20.17a2.36 2.36 0 1 1-2.35-2.36 2.36 2.36 0 0 1 2.35 2.36Z" class="cls-1"/>
      <path d="M41.32 131.25H15.16l-13.3-14.1 4.88-7.73 8.4-11.46 8.08.81-.08.78-7.63-.77-8.12 11.09-4.54 7.18 12.64 13.41H41.2l18.52-5.8 2.33-23.19 2.4-21.1 17.33-32.22L90.23 37l10.34-4.01.11.03 27.9 6.28-.17.77-27.78-6.26-9.91 3.85-8.28 10.91-17.26 32.1-2.35 20.89-2.38 23.7-19.13 5.99z"/>
      <path d="m99.29 34.49 24.18-32.37.62.47-22.19 29.72 26.42-13.14.35.7-29.38 14.62z"/>
    </g>
  </g>
</svg>
