<svg xmlns="http://www.w3.org/2000/svg" viewBox="0 0 1003 1008">
  <g transform="translate(66.62 14.33)">
    <circle cx="289.06" cy="540.46" r="7.25" />
    <circle cx="395.54" cy="684.99" r="7.25" />
    <circle cx="388.28" cy="986.06" r="7.25" />
    <circle cx="72.43" cy="200.8" r="7.25" />
    <circle cx="625.48" cy="297.27" r="7.25" />
    <circle cx="720.5" cy="557.57" r="7.25" />
    <circle cx="689.88" cy="486.48" r="7.25" />
    <circle cx="710.74" cy="859.87" r="7.25" />
    <circle cx="514.15" cy="460.11" r="7.25" />
    <circle cx="686.87" cy="722.34" r="7.25" />
    <circle cx="218.57" cy="786.57" r="7.25" />
    <circle cx="7.25" cy="564.82" r="7.25" />
    <circle cx="292.78" cy="135.23" r="7.25" />
    <circle cx="200.04" cy="186.3" r="7.25" />
    <circle cx="357.07" cy="7.25" r="7.25" />
    <circle cx="727.76" cy="158.39" r="7.25" />
  </g>
  <g transform="translate(59.17 19.7)">
    <circle cx="296.51" cy="465.71" r="3.72" />
    <circle cx="253.82" cy="552.2" r="3.72" />
    <circle cx="233.27" cy="484.65" r="3.72" />
    <circle cx="113.44" cy="350.63" r="3.72" />
    <circle cx="54.23" cy="291.9" r="3.72" />
    <circle cx="399.27" cy="122.61" r="3.72" />
    <circle cx="289.26" cy="20.62" r="3.72" />
    <circle cx="353.55" cy="213.37" r="3.72" />
    <circle cx="206.94" cy="122.61" r="3.72" />
    <circle cx="514.35" cy="34.4" r="3.72" />
    <circle cx="591.58" cy="3.72" r="3.72" />
    <circle cx="897.22" cy="461.99" r="3.72" />
    <circle cx="917.87" cy="587.42" r="3.72" />
    <circle cx="815.97" cy="385" r="3.72" />
    <circle cx="783.88" cy="343.22" r="3.72" />
    <circle cx="808.53" cy="328.21" r="3.72" />
    <circle cx="845.7" cy="217.09" r="3.72" />
    <circle cx="707.1" cy="672.18" r="3.72" />
    <circle cx="606.91" cy="423.39" r="3.72" />
    <circle cx="608.79" cy="365.31" r="3.72" />
    <circle cx="708.07" cy="288.18" r="3.72" />
    <circle cx="591.58" cy="473.86" r="3.72" />
    <circle cx="661.92" cy="518.5" r="3.72" />
    <circle cx="744.3" cy="618.7" r="3.72" />
    <circle cx="711.79" cy="628.88" r="3.72" />
    <circle cx="864.1" cy="742.35" r="3.72" />
    <circle cx="554.14" cy="579.41" r="3.72" />
    <circle cx="606.91" cy="706.79" r="3.72" />
    <circle cx="342.42" cy="679.62" r="3.72" />
    <circle cx="170.79" cy="727.61" r="3.72" />
    <circle cx="113.44" cy="858.18" r="3.72" />
    <circle cx="342.42" cy="924.82" r="3.72" />
    <circle cx="490.8" cy="902.72" r="3.72" />
    <circle cx="371.77" cy="797.66" r="3.72" />
    <circle cx="643.91" cy="910.16" r="3.72" />
    <circle cx="518.07" cy="786.73" r="3.72" />
    <circle cx="514.35" cy="731.33" r="3.72" />
    <circle cx="656.39" cy="786.73" r="3.72" />
    <circle cx="521.6" cy="641.57" r="3.72" />
    <circle cx="595.3" cy="910.16" r="3.72" />
    <circle cx="461.19" cy="942.34" r="3.72" />
    <circle cx="131.71" cy="627.99" r="3.72" />
    <circle cx="54.23" cy="679.62" r="3.72" />
    <circle cx="177.69" cy="299.15" r="3.72" />
    <circle cx="133.55" cy="102.88" r="3.72" />
    <circle cx="104.19" cy="263.43" r="3.72" />
    <circle cx="57.95" cy="388.72" r="3.72" />
    <circle cx="167.07" cy="488.37" r="3.72" />
    <circle cx="3.72" cy="410.27" r="3.72" />
    <circle cx="831.81" cy="723.88" r="3.72" />
    <circle cx="656.39" cy="747.87" r="3.72" />
    <circle cx="849.42" cy="624.26" r="3.72" />
    <circle cx="427.01" cy="577.53" r="3.72" />
    <circle cx="528.86" cy="238.94" r="3.72" />
    <circle cx="434.42" cy="381.27" r="3.72" />
    <circle cx="371.77" cy="322.65" r="3.72" />
    <circle cx="577.07" cy="246.34" r="3.72" />
    <circle cx="625.68" cy="54.18" r="3.72" />
    <circle cx="577.07" cy="182.77" r="3.72" />
    <circle cx="701.54" cy="137.11" r="3.72" />
    <circle cx="487.08" cy="369.03" r="3.72" />
  </g>
  <circle cx="397.87" cy="456.15" r="1.84" />
  <circle cx="416.44" cy="457.99" r="1.84" />
  <circle cx="423.69" cy="519.15" r="1.84" />
  <circle cx="338.67" cy="322.57" r="1.84" />
  <circle cx="442.38" cy="413.98" r="1.84" />
  <circle cx="446.07" cy="338.63" r="1.84" />
  <circle cx="444.22" cy="442.36" r="1.84" />
  <circle cx="531.85" cy="477.97" r="1.84" />
  <circle cx="377.5" cy="376.78" r="1.84" />
  <circle cx="205.13" cy="562.15" r="1.84" />
  <circle cx="533.69" cy="765.73" r="1.84" />
  <circle cx="542.53" cy="651.41" r="1.84" />
  <circle cx="542.53" cy="513.63" r="1.84" />
  <circle cx="407.15" cy="608.96" r="1.84" />
  <circle cx="669.8" cy="532.79" r="1.84" />
  <circle cx="781.05" cy="385.01" r="1.84" />
  <circle cx="779.21" cy="429.97" r="1.84" />
  <circle cx="822.55" cy="222.39" r="1.84" />
  <circle cx="799.79" cy="283.13" r="1.84" />
  <circle cx="837.49" cy="474.44" r="1.84" />
  <circle cx="904.87" cy="540.05" r="1.84" />
  <circle cx="969.63" cy="549.09" r="1.84" />
  <circle cx="862.13" cy="562.15" r="1.84" />
  <circle cx="894.7" cy="404.7" r="1.84" />
  <circle cx="816.25" cy="481.69" r="1.84" />
  <circle cx="1000.39" cy="515.47" r="1.84" />
  <circle cx="926.96" cy="603.4" r="1.84" />
  <circle cx="980.76" cy="467.19" r="1.84" />
  <circle cx="977.04" cy="640.24" r="1.84" />
  <circle cx="928.8" cy="695.6" r="1.84" />
  <circle cx="878.86" cy="720.93" r="1.84" />
  <circle cx="942.57" cy="429.97" r="1.84" />
  <circle cx="971.48" cy="372.17" r="1.84" />
  <circle cx="925.12" cy="383.17" r="1.84" />
  <circle cx="980.76" cy="355.32" r="1.84" />
  <circle cx="998.55" cy="469.03" r="1.84" />
  <circle cx="875.14" cy="467.19" r="1.84" />
  <circle cx="860.29" cy="441.75" r="1.84" />
  <circle cx="719.25" cy="827.41" r="1.84" />
  <circle cx="726.5" cy="915.47" r="1.84" />
  <circle cx="741.4" cy="783.92" r="1.84" />
  <circle cx="801.63" cy="763.89" r="1.84" />
  <circle cx="833.81" cy="827.41" r="1.84" />
  <circle cx="871.42" cy="841.62" r="1.84" />
  <circle cx="801.63" cy="822.41" r="1.84" />
  <circle cx="671.64" cy="663.12" r="1.84" />
  <circle cx="627.77" cy="730.21" r="1.84" />
  <circle cx="693.95" cy="666.8" r="1.84" />
  <circle cx="693.95" cy="613.52" r="1.84" />
  <circle cx="671.64" cy="876.04" r="1.84" />
  <circle cx="627.77" cy="962.04" r="1.84" />
  <circle cx="643.49" cy="856.76" r="1.84" />
  <circle cx="366.66" cy="600.95" r="1.84" />
  <circle cx="352.15" cy="804.58" r="1.84" />
  <circle cx="271.67" cy="858.61" r="1.84" />
  <circle cx="229.96" cy="854.92" r="1.84" />
  <circle cx="352.15" cy="617.2" r="1.84" />
  <circle cx="340.51" cy="706.58" r="1.84" />
  <circle cx="277.94" cy="739.86" r="1.84" />
  <circle cx="271.67" cy="615.36" r="1.84" />
  <circle cx="627.77" cy="620.89" r="1.84" />
  <circle cx="589.91" cy="560.31" r="1.84" />
  <circle cx="489.9" cy="511.79" r="1.84" />
  <circle cx="835.65" cy="619.04" r="1.84" />
  <circle cx="846.78" cy="657.55" r="1.84" />
  <circle cx="807.15" cy="663.12" r="1.84" />
  <circle cx="756.99" cy="609.49" r="1.84" />
  <circle cx="833.81" cy="793.65" r="1.84" />
  <circle cx="871.42" cy="791.81" r="1.84" />
  <circle cx="858.45" cy="853.08" r="1.84" />
  <circle cx="309.31" cy="412.14" r="1.84" />
  <circle cx="323.88" cy="519.15" r="1.84" />
  <circle cx="139.5" cy="429.97" r="1.84" />
  <circle cx="233.14" cy="467.19" r="1.84" />
  <circle cx="305.62" cy="355.32" r="1.84" />
  <circle cx="236.86" cy="392.45" r="1.84" />
  <circle cx="233.14" cy="181.81" r="1.84" />
  <circle cx="292.44" cy="193.37" r="1.84" />
  <circle cx="303.78" cy="149.56" r="1.84" />
  <circle cx="338.67" cy="304.34" r="1.84" />
  <circle cx="312.99" cy="292.46" r="1.84" />
  <circle cx="382.25" cy="342.35" r="1.84" />
  <circle cx="482.46" cy="825.57" r="1.84" />
  <circle cx="384.1" cy="767.57" r="1.84" />
  <circle cx="201.44" cy="800.9" r="1.84" />
  <circle cx="486.18" cy="940.8" r="1.84" />
  <circle cx="438.7" cy="918.7" r="1.84" />
  <circle cx="446.07" cy="944.52" r="1.84" />
  <circle cx="427.22" cy="926.14" r="1.84" />
  <circle cx="447.65" cy="879.72" r="1.84" />
  <circle cx="407.15" cy="890.27" r="1.84" />
  <circle cx="524.08" cy="874.16" r="1.84" />
  <circle cx="542.53" cy="799.06" r="1.84" />
  <circle cx="591.75" cy="965.76" r="1.84" />
  <circle cx="497.31" cy="763.89" r="1.84" />
  <circle cx="553.69" cy="586.41" r="1.84" />
  <circle cx="348.43" cy="841.62" r="1.84" />
  <circle cx="269.83" cy="944.52" r="1.84" />
  <circle cx="359.4" cy="960.2" r="1.84" />
  <circle cx="165.2" cy="802.74" r="1.84" />
  <circle cx="224.4" cy="691.88" r="1.84" />
  <circle cx="137.2" cy="769.42" r="1.84" />
  <circle cx="336.82" cy="888.43" r="1.84" />
  <circle cx="1.84" cy="543.73" r="1.84" />
  <circle cx="86.65" cy="640.24" r="1.84" />
  <circle cx="176.33" cy="684.2" r="1.84" />
  <circle cx="29.36" cy="456.15" r="1.84" />
  <circle cx="49.56" cy="517.31" r="1.84" />
  <circle cx="220.72" cy="877.88" r="1.84" />
  <circle cx="549.97" cy="324.41" r="1.84" />
  <circle cx="625.93" cy="383.17" r="1.84" />
  <circle cx="692.1" cy="364.77" r="1.84" />
  <circle cx="625.93" cy="508.07" r="1.84" />
  <circle cx="782.89" cy="296.15" r="1.84" />
  <circle cx="805.31" cy="220.55" r="1.84" />
  <circle cx="746.92" cy="242.32" r="1.84" />
  <circle cx="666.08" cy="170.88" r="1.84" />
  <circle cx="743.24" cy="140.43" r="1.84" />
  <circle cx="664.24" cy="138.59" r="1.84" />
  <circle cx="540.69" cy="446.81" r="1.84" />
  <circle cx="513.34" cy="262.36" r="1.84" />
  <circle cx="509.66" cy="81.94" r="1.84" />
  <circle cx="530.01" cy="122.58" r="1.84" />
  <circle cx="542.53" cy="253.07" r="1.84" />
  <circle cx="491.75" cy="200.63" r="1.84" />
  <circle cx="511.5" cy="326.25" r="1.84" />
  <circle cx="480.62" cy="286.82" r="1.84" />
  <circle cx="591.75" cy="179.97" r="1.84" />
  <circle cx="912.31" cy="315.13" r="1.84" />
  <circle cx="818.09" cy="316.97" r="1.84" />
  <circle cx="803.47" cy="362.92" r="1.84" />
  <circle cx="914.15" cy="294.31" r="1.84" />
  <circle cx="930.64" cy="290.62" r="1.84" />
  <circle cx="863.98" cy="172.72" r="1.84" />
  <circle cx="862.13" cy="269.76" r="1.84" />
  <circle cx="835.65" cy="165.44" r="1.84" />
  <circle cx="684.85" cy="264.2" r="1.84" />
  <circle cx="615.16" cy="322.57" r="1.84" />
  <circle cx="692.1" cy="238.63" r="1.84" />
  <circle cx="516.63" cy="21.58" r="1.84" />
  <circle cx="641.65" cy="92.24" r="1.84" />
  <circle cx="609.59" cy="19.7" r="1.84" />
  <circle cx="615.16" cy="70.15" r="1.84" />
  <circle cx="717.4" cy="92.24" r="1.84" />
  <circle cx="717.4" cy="117.02" r="1.84" />
  <circle cx="203.28" cy="251.23" r="1.84" />
  <circle cx="148.14" cy="366.61" r="1.84" />
  <circle cx="146.3" cy="251.23" r="1.84" />
  <circle cx="201.44" cy="97.76" r="1.84" />
  <circle cx="307.47" cy="94.08" r="1.84" />
  <circle cx="285.19" cy="73.88" r="1.84" />
  <circle cx="440.54" cy="262.36" r="1.84" />
  <circle cx="190.88" cy="446.81" r="1.84" />
  <circle cx="122.68" cy="284.97" r="1.84" />
  <circle cx="102.09" cy="222.39" r="1.84" />
  <circle cx="49.56" cy="688.16" r="1.84" />
  <circle cx="82.96" cy="664.96" r="1.84" />
  <circle cx="167.04" cy="493.56" r="1.84" />
  <circle cx="82.96" cy="465.34" r="1.84" />
  <circle cx="124.53" cy="547.25" r="1.84" />
  <circle cx="33.04" cy="315.13" r="1.84" />
  <circle cx="120.84" cy="497.28" r="1.84" />
  <circle cx="33.04" cy="351.63" r="1.84" />
  <circle cx="489.9" cy="240.47" r="1.84" />
  <circle cx="835.65" cy="253.07" r="1.84" />
  <circle cx="833.81" cy="138.59" r="1.84" />
  <circle cx="782.89" cy="113.34" r="1.84" />
  <circle cx="405.31" cy="75.72" r="1.84" />
  <circle cx="491.75" cy="1.84" r="1.84" />
</svg>