<svg xmlns="http://www.w3.org/2000/svg" class="sign-illustration" viewBox="0 0 144.08 117.94">
  <g data-name="Layer 2">
    <g data-name="Layer 1">
      <path d="M4.72 39.3a2.36 2.36 0 1 1-2.36-2.36 2.36 2.36 0 0 1 2.36 2.36Z" class="cls-1"/>
      <circle cx="56.59" cy="73.14" r="2.36"/>
      <path d="M140.94 108a2.36 2.36 0 1 1-2.36-2.35 2.36 2.36 0 0 1 2.36 2.35Zm3.14 7.58a2.36 2.36 0 1 1-2.35-2.36 2.36 2.36 0 0 1 2.35 2.36ZM68.11 76.29a2.36 2.36 0 1 1-2.36-2.36 2.35 2.35 0 0 1 2.36 2.36Zm11.79 1.57a2.36 2.36 0 1 1-2.36-2.36 2.35 2.35 0 0 1 2.36 2.36Z" class="cls-1"/>
      <circle cx="74.4" cy="65.28" r="2.36"/>
      <path d="M68.11 66.07a2.36 2.36 0 1 1-2.36-2.36 2.36 2.36 0 0 1 2.36 2.36Zm-.78-8.52A2.36 2.36 0 1 1 65 55.2a2.36 2.36 0 0 1 2.33 2.35ZM25.44 3.93A3.93 3.93 0 1 1 21.51 0a3.93 3.93 0 0 1 3.93 3.93Zm31.15 33.01A3.93 3.93 0 1 1 52.66 33a3.93 3.93 0 0 1 3.93 3.94Zm42.96 53.49a3.93 3.93 0 1 1-3.93-3.93 3.93 3.93 0 0 1 3.93 3.93Z" class="cls-1"/>
      <path d="m141.36 115.73-3.08-7.45-42.89-17.53L77.4 78.23l-11.7-1.55-9.32-3.21L2.15 39.63l.42-.67 54.19 33.82 9.12 3.13 11.81 1.57.08.05 18.04 12.55 43.07 17.6 3.21 7.75-.73.3z"/>
      <path d="M77.16 77.95 74.1 65.7l-8.7.8-.81-8.82-12.25-20.5L21.23 4.2l.57-.54 31.19 33.08 12.36 20.69.76 8.21 8.59-.78 3.22 12.9-.76.19z"/>
    </g>
  </g>
</svg>
