<svg xmlns="http://www.w3.org/2000/svg" viewBox="0 0 109.27 98.18">
  <g data-name="Layer 2">
    <g data-name="Taurus Mono">
      <path d="M81.28 66.2c-.75 14.89-12 27.52-27.52 27.52A27.45 27.45 0 0 1 51.06 39c16.55-1.64 29.41 11.09 30.22 27.2.14 2.86 4.61 2.88 4.46 0-.88-17.38-13.92-32-32-32-17.34 0-32 14.57-32 32a32.33 32.33 0 0 0 32 32c18.05 0 31.1-14.6 32-32 .15-2.87-4.32-2.86-4.46 0Z" class="cls-1"/>
      <path d="M2.14 4.56c14.92-1.22 21.8 8.22 29.59 19.28C38.1 32.9 45 38.21 56.39 38.68c2.87.12 2.86-4.34 0-4.46-18.68-.78-20.15-18.35-32.55-27.9A32.34 32.34 0 0 0 2.14.1c-2.84.23-2.87 4.7 0 4.46Z" class="cls-1"/>
      <path d="M107.13.1a32.39 32.39 0 0 0-21.7 6.22C73 15.87 71.54 33.44 52.89 34.22c-2.86.12-2.88 4.58 0 4.46C64.3 38.21 71.14 33 77.55 23.84c7.76-11 14.61-20.5 29.58-19.28 2.87.24 2.87-4.23 0-4.46Z" class="cls-1"/>
    </g>
  </g>
</svg>
