<svg xmlns="http://www.w3.org/2000/svg" class="sign-illustration" viewBox="0 0 150.07 115.53">
  <g data-name="Layer 2">
    <g data-name="Layer 1">
      <circle cx="42.86" cy="101.97" r="2.36"/>
      <path d="M53.21 110a2.36 2.36 0 1 1-2.36-2.36 2.36 2.36 0 0 1 2.36 2.36Z" class="cls-1"/>
      <circle cx="89.95" cy="69.33" r="2.36"/>
      <path d="M128.26 30.45a2.36 2.36 0 1 1-2.36-2.35 2.36 2.36 0 0 1 2.36 2.35ZM109 40.08a2.36 2.36 0 1 1-2.35-2.36 2.36 2.36 0 0 1 2.35 2.36ZM66 61.1a2.36 2.36 0 1 1-2.36-2.35A2.36 2.36 0 0 1 66 61.1Zm-16.07 2.36a2.36 2.36 0 1 1-2.36-2.36 2.36 2.36 0 0 1 2.36 2.36Zm-8.71 0a2.36 2.36 0 1 1-2.36-2.36 2.36 2.36 0 0 1 2.36 2.36ZM7.86 80.36a3.93 3.93 0 1 1-3.93-3.93 3.93 3.93 0 0 1 3.93 3.93ZM71.48 7a3.93 3.93 0 1 1-3.93-3.93A3.93 3.93 0 0 1 71.48 7Zm78.59-3.07A3.93 3.93 0 1 1 146.14 0a3.93 3.93 0 0 1 3.93 3.93ZM90 32a3.93 3.93 0 1 1-4-3.9 3.93 3.93 0 0 1 4 3.9Zm2.3 64.86a3.93 3.93 0 1 1-3.93-3.93 3.93 3.93 0 0 1 3.93 3.93ZM23.58 111.6a3.93 3.93 0 1 1-3.93-3.93 3.93 3.93 0 0 1 3.93 3.93Z" class="cls-1"/>
      <path d="m19.8 111.96-.3-.72 23.45-9.73 8 8.06L88 96.58l1.56-27.37.05-.08 16.75-29.35.11-.05 19.17-9.59 20.19-26.45.62.48-20.29 26.6-19.23 9.61-16.6 29.06-1.58 27.71-38.01 13.33-7.97-8.04-22.97 9.52zM4.1 80.71 3.76 80l35.01-16.93h8.8l15.84-2.33 22.12-28.72-18.3-24.78.63-.47 18.65 25.26-22.68 29.44-.15.02-16.05 2.36h-8.68L4.1 80.71z"/>
      <path d="m63.29 61.322.65-.45 24.757 35.755-.65.45zm22.586-28.934.287-.736 20.633 8.057-.287.736z"/>
    </g>
  </g>
</svg>
