<svg xmlns="http://www.w3.org/2000/svg" viewBox="0 0 92.74 110.82">
  <g data-name="Layer 2">
    <g data-name="Virgo Mono">
      <path d="M.8 3.86C12.15 13 7.43 38.79 7.43 51.43v45.94c0 3 4.67 3 4.67 0V44.75c0-13.47 4-34.48-8-44.19C1.78-1.31-1.54 2 .8 3.86Z" class="cls-1"/>
      <path d="M11.42 18.5c3.15-3.49 6.93-7.93 11.1-10.14 7.31-3.87 12.84 3.64 14.19 10.4s0 14.94 0 21.67v56.94c0 3 4.67 3 4.67 0V25.61c0-8-1.57-17.52-9-22.49-8.7-5.86-18.85 6-24.31 12.08-2 2.22 1.28 5.53 3.3 3.3Z" class="cls-1"/>
      <path d="M88.64 101.2c-4.53 3.59-14.55 9.19-17.63 1-.63-1.67-.29-3.26-.35-4.94-.14-4.06 0-8.15 0-12.21V34.54c0-10.89 1.11-19.2-6.1-28.36-8.85-11.24-20.31 1.41-27.16 9-2 2.22 1.28 5.53 3.3 3.3C46.18 12.41 55 1.61 62 10.64c3.46 4.48 4 7.94 4 13.05v48.77c0 9.19-1.15 19.22.06 28.36 2 15 17.45 10.38 25.89 3.69 2.35-1.87-1-5.15-3.3-3.31Z" class="cls-1"/>
      <path d="M70.34 36.78c2.27-3.06 7.26-10.65 11.16-11.38 3.45-.66 2.84-.43 4 3.41 2.19 7.09 2.3 15.11 1.71 22.43-2.15 26.92-19.12 46.2-45.15 53-2.91.77-1.67 5.27 1.24 4.51 31-8.14 49.53-33.45 48.8-65.4-.1-5.47 0-18.35-5.1-22.27-7.22-5.56-17.21 8.61-20.71 13.35-1.79 2.41 2.26 4.74 4 2.35Z" class="cls-1"/>
    </g>
  </g>
</svg>
