<svg viewBox="0 0 64 64">
    <defs id="defs6738" />
    <g id="layer1" />
    <path
        d="m 11.902344,13.175781 c -1.166667,0 -2.3184378,0.594504 -3.1484378,1.701172 -0.8299999,1.106668 -1.3515623,2.715492 -1.3515624,4.798828 h 1 c 0,-1.91667 0.4803904,-3.305884 1.1503906,-4.199219 0.6700006,-0.893334 1.5162766,-1.300781 2.3496096,-1.300781 0.833333,0 1.681562,0.407447 2.351562,1.300781 0.67,0.893335 1.148438,2.282549 1.148438,4.199219 v 24.5 h 32.861328 l 8.333984,-25 H 23.902344 v 1 h 31.308594 l -7.667969,23 H 16.402344 v -23.5 c 0,-2.083336 -0.51961,-3.69216 -1.34961,-4.798828 -0.829999,-1.106668 -1.983723,-1.701172 -3.15039,-1.701172 z"
        id="path4506"
    />
    <path
        d="m 19.902344,44.529297 c -1.732388,0 -3.146485,1.414096 -3.146485,3.146484 0,1.732388 1.414097,3.148438 3.146485,3.148438 1.732388,0 3.148437,-1.41605 3.148437,-3.148438 0,-1.732388 -1.416049,-3.146484 -3.148437,-3.146484 z m 0,1 c 1.191948,0 2.148437,0.954536 2.148437,2.146484 0,1.191948 -0.956489,2.148438 -2.148437,2.148438 -1.191948,0 -2.146485,-0.95649 -2.146485,-2.148438 0,-1.191948 0.954537,-2.146484 2.146485,-2.146484 z"
        id="path4508"
    />
    <path
        d="m 43.921875,44.529297 c -1.732388,0 -3.148437,1.414096 -3.148437,3.146484 0,1.732388 1.416049,3.148438 3.148437,3.148438 1.732388,0 3.146484,-1.41605 3.146484,-3.148438 0,-1.732388 -1.414096,-3.146484 -3.146484,-3.146484 z m 0,1 c 1.191948,0 2.146484,0.954536 2.146484,2.146484 0,1.191948 -0.954536,2.148438 -2.146484,2.148438 -1.191948,0 -2.148437,-0.95649 -2.148437,-2.148438 0,-1.191948 0.956489,-2.146484 2.148437,-2.146484 z"
        id="circle4510"
    />
    <path d="m 17.402344,34.675781 v 7.5 h 6.5 v -1 h -5.5 v -6.5 z" id="path4512"
    />
</svg>