<svg viewBox="0 0 32 32" xml:space="preserve" xmlns="http://www.w3.org/2000/svg"
    xmlns:xlink="http://www.w3.org/1999/xlink"><defs><path d="M21.5 1.5h-17v29h23v-23" id="reuse-0"/><path d="m21.5 1.5 5.98 6H21.5V4M14.5 18.5a1.5 1.5 0 1 1 3 0M20.75 15.5c0 .41.34.75.75.75s.75-.34.75-.75-.34-.75-.75-.75-.75.34-.75.75zM11.25 15.5c0 .41-.34.75-.75.75s-.75-.34-.75-.75.34-.75.75-.75.75.34.75.75z" id="reuse-1"/></defs><g fill="#263238"><path d="M21.5 14.75c.41 0 .75.34.75.75s-.34.75-.75.75-.75-.34-.75-.75.34-.75.75-.75zM10.5 14.75c.41 0 .75.34.75.75s-.34.75-.75.75-.75-.34-.75-.75.34-.75.75-.75z"/></g><g fill="none" stroke-linecap="round" stroke-linejoin="round" stroke-miterlimit="10"><g stroke="#455A64"><use xlink:href="#reuse-0"/><use xlink:href="#reuse-1"/></g><g stroke="#263238"><use xlink:href="#reuse-0"/><use xlink:href="#reuse-1"/></g></g></svg>