<svg xmlns="http://www.w3.org/2000/svg" xmlns:xlink="http://www.w3.org/1999/xlink" x="0px" y="0px" viewBox="0 0 111.16 122.88" style="enable-background:new 0 0 111.16 122.88" xml:space="preserve"><style type="text/css">.st0{fill-rule:evenodd;clip-rule:evenodd;}</style><g><path class="st0" d="M43.96,0h25.2c2.15,0,3.91,1.76,3.91,3.91v40.44c0,0.34-0.04,0.66-0.12,0.98h33.53c2.58,0,4.69,2.11,4.69,4.69 v6.64c0,2.58-2.11,4.69-4.69,4.69H4.69C2.11,61.34,0,59.23,0,56.65v-6.64c0-2.58,2.11-4.69,4.69-4.69h35.49 c-0.08-0.32-0.13-0.65-0.13-0.98l0-40.44C40.05,1.76,41.81,0,43.96,0L43.96,0z M10.55,67.45h91.43l7.43,55.43H88.53l-9.6-25.37 v25.37H57.27l-9.6-25.37v25.37H27.94V97.51l-9.6,25.37H3.13L10.55,67.45L10.55,67.45L10.55,67.45z M49.82,7.42H63.3 c1.5,0,2.74,1.23,2.74,2.73v3.91c0,1.51-1.23,2.74-2.74,2.74H49.82c-1.51,0-2.73-1.23-2.73-2.74v-3.91 C47.08,8.65,48.31,7.42,49.82,7.42L49.82,7.42z"/></g></svg>