<svg viewBox="0 0 108 116" fill="none" xmlns="http://www.w3.org/2000/svg">
    <path fill-rule="evenodd" clip-rule="evenodd"
        d="M60.1793 27.7693C59.1482 34.9488 58.5935 43.5513 58.5147 53.5776C58.4634 60.2973 58.6998 67.665 59.227 75.6773C58.6037 76.1466 57.9308 76.6241 57.2078 77.1063C56.1511 77.8123 55.1081 78.4256 54.0788 78.9468C53.0483 79.4686 52.0716 79.8476 51.1468 80.0831C50.2238 80.3186 49.4966 80.305 48.9683 80.0441C48.0709 79.5737 47.702 77.9546 47.8596 75.188C48.0178 73.9856 48.0447 72.9154 47.939 71.9757C47.8339 71.036 47.3849 70.4363 46.5921 70.176C45.7998 69.8608 45.1001 70.0438 44.4923 70.7232C43.8852 71.402 43.1066 72.3671 42.1562 73.6202C41.8917 73.9354 41.5884 74.338 41.2439 74.8362C40.9006 75.3308 40.5316 75.8148 40.1352 76.2859C39.7394 76.7551 39.3698 77.1595 39.0265 77.4983C38.6838 77.8371 38.4068 78.0077 38.1943 78.0077C37.9835 77.8501 37.7722 77.5384 37.5614 77.068C37.4032 76.6501 37.2307 76.0486 37.0462 75.2665C36.8623 74.4844 36.7154 73.4142 36.6104 72.056C36.3465 68.9742 36.0032 66.8729 35.5811 65.7502C35.1578 64.6257 34.4987 64.013 33.5995 63.9079C33.3357 63.9079 32.993 64.013 32.5703 64.2231C32.1482 64.4315 31.6729 65.1882 31.1446 66.4939C30.6162 67.7996 30.0347 69.862 29.4012 72.6829C28.7678 75.5002 28.1081 79.5223 27.4203 84.7438C27.3152 85.1623 27.3946 85.5006 27.6585 85.7615C27.923 86.0224 28.2663 86.2053 28.6884 86.3098H28.8466C29.1636 86.3098 29.4538 86.2048 29.7183 85.9982C29.9821 85.788 30.1672 85.4752 30.2723 85.0567C30.4837 83.5426 30.7081 81.9885 30.9464 80.3965C31.1834 78.8034 31.4473 77.264 31.7386 75.7741C32.0288 74.2872 32.3189 72.916 32.6103 71.6629C32.9004 70.4098 33.1774 69.3396 33.4419 68.4524L33.9172 72.2113C34.181 74.9778 34.5912 77.0149 35.1453 78.3205C35.6999 79.6262 36.4521 80.4083 37.4032 80.671C38.0892 80.8793 38.7364 80.854 39.3447 80.5931C39.9507 80.3304 40.5454 79.9261 41.1269 79.3771C41.7072 78.8299 42.275 78.1901 42.8302 77.4587C43.3842 76.7292 43.9526 75.9701 44.5335 75.188L45.167 74.2465V75.0304C44.85 78.9993 45.6953 81.4531 47.7026 82.3946C48.8638 82.9671 50.1713 83.0852 51.6238 82.747C53.0764 82.4064 54.489 81.8834 55.8627 81.1792C57.1989 80.4933 58.3989 79.7567 59.461 78.971C60.3518 90.9983 60.6909 100.92 64.7328 106.355C69.4583 112.711 78.7182 112.739 91.774 99.8288C101.398 90.3142 107.35 77.1713 107.35 62.656C107.35 48.1407 101.398 34.9978 91.774 25.4832C89.1984 22.9368 86.3601 20.6507 83.3016 18.6668C83.298 19.7547 83.2777 20.8419 83.2383 21.9286C85.59 23.5713 87.7906 25.4077 89.8199 27.4146C98.9431 36.4339 104.587 48.8939 104.587 62.6548C104.587 76.4157 98.9437 88.8751 89.8199 97.895C80.8938 106.722 73.9127 108.507 69.9048 106.844C64.0062 104.397 63.3369 93.8499 62.479 82.1254C62.3489 80.3764 62.2324 78.6151 62.1297 76.8425C64.5208 73.5848 65.9901 71.121 67.5484 68.224C68.8947 65.7177 70.3466 62.7138 71.9055 59.2159C73.4643 55.7174 74.9163 51.8411 76.2626 47.5846C77.6089 43.3288 78.7325 38.7465 79.6298 33.8379C80.4143 29.546 80.8561 25.0742 80.9552 20.4228C80.969 19.7547 80.9755 19.0835 80.9755 18.4077C80.9755 18.0104 80.972 17.6196 80.9654 17.2342C80.8866 13.2676 80.4 9.95146 79.5098 7.28522C78.5337 4.36162 77.1737 2.42908 75.4304 1.48937C73.7933 0.706083 72.1025 0.863095 70.361 1.9604C68.4893 3.17872 66.7573 5.47841 65.1615 8.85947C66.1173 9.05012 67.0642 9.26439 68.0045 9.50286C69.306 6.88148 70.6213 5.14963 71.9455 4.30849C72.3688 3.89117 72.8428 3.68281 73.3724 3.68281C73.6876 3.68281 73.9527 3.7867 74.1635 3.99624C75.1139 4.4661 76.013 5.84969 76.8572 8.14701C77.5235 9.95855 77.9277 12.469 78.068 15.6771C78.1056 16.5371 78.1247 17.4473 78.1247 18.4077C78.1247 18.5346 78.1229 18.6615 78.1229 18.7878C78.1056 22.987 77.8041 27.051 77.2137 30.9792C76.6059 35.0255 75.8142 38.8776 74.8363 42.5314C73.8584 46.1869 72.7503 49.5939 71.5085 52.753C70.2684 55.9128 69.0523 58.772 67.8642 61.3302C66.6773 63.8891 65.5418 66.1339 64.4594 68.0664C63.3751 69.9983 62.4915 71.5124 61.805 72.6097C61.2229 61.7487 61.1441 52.2584 61.5667 44.1381C61.9894 36.0189 62.7298 29.1653 63.7847 23.5772C64.288 20.9187 64.8361 18.5346 65.4289 16.4249C64.494 16.2042 63.5519 16.01 62.6014 15.8435C61.6408 19.2411 60.8342 23.216 60.1816 27.7687L60.1793 27.7693ZM54.1749 112.498C55.8395 112.498 57.4855 112.416 59.1076 112.26C60.1697 112.159 61.2211 112.025 62.2587 111.857C63.1614 112.707 64.1596 113.452 65.254 114.067C65.2624 114.073 65.2695 114.075 65.2761 114.081C65.1286 114.111 64.9817 114.142 64.8343 114.172C63.2587 114.489 61.6593 114.736 60.0354 114.912C58.1105 115.123 56.1547 115.229 54.1743 115.229C39.4934 115.229 26.1988 109.343 16.5759 99.8288C6.95297 90.3142 1 77.1707 1 62.656C1 48.1413 6.95297 34.9978 16.5765 25.4832C26.1994 15.9687 39.4934 10.0831 54.1749 10.0831C55.9254 10.0831 57.6532 10.1663 59.3589 10.3304C65.1185 10.8805 70.6093 12.3421 75.6823 14.5638C75.7545 15.6204 75.7832 16.6628 75.7921 17.6202C70.5037 15.1328 64.7041 13.5303 58.5971 13.0043C57.138 12.8792 55.6651 12.8154 54.1749 12.8154C40.2558 12.8154 27.6531 18.3958 18.5299 27.4152C9.40735 36.4345 3.76305 48.895 3.76305 62.6566C3.76305 76.4181 9.40735 88.8769 18.5299 97.8968C27.6531 106.917 40.2558 112.498 54.1749 112.498Z"
        fill="#1B2437" stroke="black" stroke-width="0.6" />
</svg>