<svg xmlns="http://www.w3.org/2000/svg" fill="#a0afb8" color="#a0afb8" viewBox="0 0 1123 1123"><path d="M502 966.9a548.4 548.4 0 0 1-145.5-27.3C199.6 887.2 79.3 768.5 27 614.6a510.3 510.3 0 0 1-25.1-115 658.5 658.5 0 0 1-.5-91 463 463 0 0 1 46.8-165.5c22-44 48.9-81.3 83.7-116.1 48.8-48.7 106-84 170.6-105.2a416.8 416.8 0 0 1 89-19.9 623 623 0 0 1 88.5-.5 385.1 385.1 0 0 1 202.5 84 445.3 445.3 0 0 1 48.4 47.8c58 69.4 88.7 160 83.5 246.8a302.1 302.1 0 0 1-50.3 153.1 284.7 284.7 0 0 1-191.3 125.5A248 248 0 0 1 416.6 635a212 212 0 0 1-94.1-95.5c-25.9-53.9-26.8-117.5-2.3-166.4 22.6-44.9 63.5-75 109.6-80.6 19.5-2.4 43.9 3.2 71.4 16.3 50.2 23.8 67.8 74.3 43.3 124.3-12.9 26.4-34.3 40.5-61.5 40.5a63.6 63.6 0 0 1-38.8-12.4c-2.7-2.1-5.1-3.5-5.4-3.3-.9 1 4.8 25.1 7.1 30.4 3 6.4 13.3 17.5 22.3 23.9 36.6 26.3 95.9 22.1 143.8-10.1a162 162 0 0 0 32.4-30.2c25.9-33 38.4-72.8 36.8-117.8-2.9-83.9-53.1-158.8-131.2-196.1-56.7-27-120.8-32.2-186.5-15.3a302.7 302.7 0 0 0-169.6 116.4c-52.8 73.8-72.4 167.3-54.9 262a380.7 380.7 0 0 0 113.9 208.4A397.4 397.4 0 0 0 470.5 831c29.9 4.1 77 4.6 106 1.1 138.5-16.7 257.7-89.6 332.3-203 44-67 69.9-141.7 78.9-227.5 2-19.5 1.7-76.5-.5-97-2.8-25-7.3-50.2-13-72.5-4.9-18.8-5.2-20.7-5.2-32.5a48 48 0 0 1 2.9-20.9 68 68 0 0 1 45.2-42.8 79.4 79.4 0 0 1 36.9.5 68.7 68.7 0 0 1 42.2 38.5c6 14.7 17.3 67 21.2 98.2 4.2 33.2 4.6 41.2 4.6 84 0 43.8-.8 56.8-5.6 89.5a622 622 0 0 1-138 311.1 742.2 742.2 0 0 1-59.9 61.1 582.7 582.7 0 0 1-127.1 85.9A588.3 588.3 0 0 1 563 966.6c-13.7.9-48.8 1.1-61 .3Z" fill="#A0AFB8" transform="translate(0 77) matrix(1 0 0 -1 .5 968.6)" fill-rule="nonzero" stroke="none" stroke-width="1"/></svg>