<svg xmlns="http://www.w3.org/2000/svg" viewBox="0 0 30 30"><path d="M1.008 17.492C2.758 11.672 6.82 6.77 11.91 3.66c2.524-1.543 5.082-2.562 7.797-3.117l9.969 9.809a20.819 20.819 0 0 1-2.781 7.609c-3.364 5.598-8.973 9.207-14.36 10.871Zm9.043 1.442 1.222-1.204-.691-.683a.743.743 0 0 1 0-1.055.774.774 0 0 1 1.074 0l.692.68 1.222-1.203-.691-.68a.74.74 0 0 1 0-1.059.774.774 0 0 1 1.074 0l.692.684 1.222-1.203-.695-.68a.747.747 0 0 1 0-1.058.774.774 0 0 1 1.074 0l.692.683 1.222-1.207-.691-.676a.747.747 0 0 1 0-1.058.774.774 0 0 1 1.074 0l.691.68 1.223-1.2-.691-.68a.747.747 0 0 1 0-1.058.774.774 0 0 1 1.074 0l2.61 2.566a.74.74 0 0 1 0 1.059.774.774 0 0 1-1.075 0l-.793-.781-1.223 1.203.793.781a.736.736 0 0 1 0 1.055.766.766 0 0 1-1.074 0l-.793-.777-1.223 1.203.793.777a.747.747 0 0 1 0 1.059.766.766 0 0 1-1.074 0l-.793-.778-1.222 1.203.793.778c.293.289.293.77 0 1.058a.774.774 0 0 1-1.075 0l-.793-.781-1.222 1.203.789.781a.736.736 0 0 1 0 1.055.766.766 0 0 1-1.074 0l-.79-.777-1.226 1.203.793.781a.736.736 0 0 1 0 1.055.774.774 0 0 1-1.074 0l-2.606-2.57a.747.747 0 0 1 0-1.06.774.774 0 0 1 1.074 0ZM23.285.082a25.873 25.873 0 0 1 2.277-.039c1.778.035 2.836.25 3.47.871.644.629.85 1.68.929 3.379.039.816.05 1.61.035 2.39ZM9.277 29.605c-3.023.528-6.847.692-8.289-1.054-1.242-1.5-1.11-5.059-.703-7.79Zm0 0" style="stroke:none;fill-rule:evenodd;fill-opacity:1"/></svg>