<svg xmlns="http://www.w3.org/2000/svg" viewBox="0 0 121.16 122.88" style="enable-background:new 0 0 121.16 122.88" xml:space="preserve"><style type="text/css">.st0{fill-rule:evenodd;clip-rule:evenodd;}</style><g><path class="st0" d="M4.07,71.67c7.07-23.9,23.48-44.02,44.04-56.79C58.29,8.55,68.63,4.36,79.58,2.08l40.28,40.28 c-1.7,10.75-5.19,21-11.24,31.24c-13.59,22.98-36.24,37.79-57.99,44.63L4.07,71.67L4.07,71.67z M40.59,77.59l4.94-4.94l-2.79-2.8 c-1.19-1.19-1.19-3.15,0-4.34l0,0c1.19-1.19,3.15-1.19,4.34,0l2.79,2.79l4.94-4.94l-2.8-2.79c-1.19-1.19-1.19-3.15,0-4.34l0,0 c1.19-1.19,3.15-1.19,4.34,0l2.79,2.8l4.94-4.94l-2.8-2.79c-1.19-1.19-1.19-3.15,0-4.34l0,0c1.19-1.19,3.15-1.19,4.34,0l2.79,2.8 l4.94-4.94l-2.8-2.79c-1.19-1.19-1.19-3.15,0-4.34h0c1.19-1.19,3.15-1.19,4.34,0l2.79,2.8l4.94-4.94l-2.79-2.79 c-1.19-1.19-1.19-3.15,0-4.34l0,0c1.19-1.19,3.15-1.19,4.34,0l10.54,10.54c1.19,1.19,1.19,3.15,0,4.34l0,0 c-1.19,1.19-3.15,1.19-4.34,0l-3.2-3.2l-4.94,4.94l3.2,3.2c1.19,1.19,1.19,3.15,0,4.34l0,0c-1.19,1.19-3.15,1.19-4.34,0l-3.2-3.2 l-4.94,4.94l3.2,3.2c1.19,1.19,1.19,3.15,0,4.34l0,0c-1.19,1.19-3.15,1.19-4.34,0l-3.2-3.2l-4.94,4.94l3.2,3.2 c1.19,1.19,1.19,3.15,0,4.34h0c-1.19,1.19-3.15,1.19-4.34,0l-3.2-3.2l-4.94,4.94l3.2,3.2c1.19,1.19,1.19,3.15,0,4.34l0,0 c-1.19,1.19-3.15,1.19-4.34,0l-3.2-3.2l-4.94,4.94l3.2,3.2c1.19,1.19,1.19,3.15,0,4.34l0,0c-1.19,1.19-3.15,1.19-4.34,0 L33.45,79.14c-1.19-1.19-1.19-3.15,0-4.34l0,0c1.19-1.19,3.15-1.19,4.34,0L40.59,77.59L40.59,77.59z M94.04,0.19 c3.01-0.18,6.07-0.23,9.2-0.16c7.17,0.15,11.45,1.03,14.01,3.58c2.61,2.58,3.44,6.89,3.76,13.88c0.15,3.34,0.2,6.6,0.13,9.81 L94.04,0.19L94.04,0.19z M37.46,121.4c-12.2,2.16-27.65,2.84-33.47-4.32c-5.01-6.16-4.48-20.78-2.83-31.98L37.46,121.4L37.46,121.4 z"/></g></svg>