<svg xmlns="http://www.w3.org/2000/svg" viewBox="0 0 30 30">
    <path
        d="M25.582 4.371c-5.871-5.848-15.367-5.824-21.21.047-5.849 5.871-5.825 15.367.046 21.21 5.871 5.849 15.371 5.825 21.215-.046 5.844-5.871 5.824-15.367-.051-21.21Zm0 0"
        style="stroke:none;fill-rule:nonzero;fill-opacity:1" />
    <path
        d="m12.473 22.434-1.657 4.89c2.407.778 5.004.828 7.442.156l-.625-5.082a7.893 7.893 0 0 1-5.16.036ZM7.62 12.32l-5.297-.808c-.699 2.511-.625 5.175.211 7.644l5.156-1.289a7.885 7.885 0 0 1-.07-5.547Zm19.383-1.68-4.664 1.57a7.866 7.866 0 0 1-.23 6.126l5.023.629a13.005 13.005 0 0 0-.13-8.324ZM10.695 2.708l.957 5.188a7.883 7.883 0 0 1 6.047-.27l1.488-4.82a13.02 13.02 0 0 0-8.492-.098ZM20.746 15a5.745 5.745 0 0 1-11.488 0 5.744 5.744 0 0 1 11.488 0Zm0 0"
        style="stroke:none;fill-rule:nonzero;fill-opacity:1" />
</svg>