<svg xmlns="http://www.w3.org/2000/svg" viewBox="0 0 30 30"><path d="m25.406 24.11-.129-8.188-7.984 3.887a6.204 6.204 0 0 1-2.125.398 6.247 6.247 0 0 1-2.2-.398l-7.624-3.926v8.3c.218 4.31 7.558 5.63 9.812 5.81 1.805.148 8.938-1.442 9.875-3.919.203-.543.328-1.195.375-1.965Zm3.235-14.079v10.004h.187c.129 0 .235.176.235.39v2.692c0 .211-.106.395-.235.395h-.187v.941c.238.074.422.43.422.852 0 .472-.235.867-.516.867h-.918c-.285 0-.516-.39-.516-.867 0-.422.18-.778.418-.852v-.941h-.187c-.125 0-.23-.176-.23-.395v-2.691c0-.215.1-.39.23-.39h.187v-9.419l-9.715 5.086c-1.757.703-3.52.754-5.277 0L1.813 10.31l-.97-.485c-1.206-.832-.905-2.785.22-3.234L13.19.488c1.25-.601 2.5-.695 3.754 0l11.91 6.028c1.293.53 1.547 2.55.043 3.379Zm0 0" style="stroke:none;fill-rule:evenodd;fill-opacity:1"/></svg>