<svg xmlns="http://www.w3.org/2000/svg" viewBox="0 0 30 30"><path d="M29.496 13.656 24.95 9.11V3.86a1.72 1.72 0 1 0-3.437 0v1.813l-3.387-3.387C16.453.613 13.543.617 11.871 2.29L.504 13.656a1.721 1.721 0 0 0 2.433 2.434L14.306 4.719c.367-.367 1.023-.367 1.39 0l11.367 11.37c.325.321.762.505 1.22.5.437 0 .878-.163 1.214-.5a1.721 1.721 0 0 0 0-2.433Zm0 0" style="stroke:none;fill-rule:nonzero;fill-opacity:1"/><path d="M15.598 7.984a.842.842 0 0 0-1.196 0l-10 9.996a.86.86 0 0 0-.246.598v7.293a3.097 3.097 0 0 0 3.098 3.098h4.95V21.3h5.589v7.668h4.953a3.097 3.097 0 0 0 3.098-3.098v-7.293a.852.852 0 0 0-.246-.598Zm0 0" style="stroke:none;fill-rule:nonzero;fill-opacity:1"/></svg>