<svg xmlns="http://www.w3.org/2000/svg" viewBox="0 0 30 30"><path d="M11.977.309A15.037 15.037 0 0 1 15.152 0a.536.536 0 0 1 .532.54.54.54 0 0 1-.348.495 9.965 9.965 0 0 0-5.117 4.547 9.939 9.939 0 0 0-.996 6.754v.02a9.963 9.963 0 0 0 4.293 6.324 9.969 9.969 0 0 0 7.504 1.445h.015a9.99 9.99 0 0 0 4.953-2.633 10.065 10.065 0 0 0 2.77-4.922.531.531 0 0 1 .637-.402c.218.05.375.227.41.437a14.962 14.962 0 0 1-2.457 10.915 14.936 14.936 0 0 1-9.32 6.171 14.95 14.95 0 0 1-11.274-2.16 14.958 14.958 0 0 1-6.441-9.508A14.953 14.953 0 0 1 2.328 6.977a14.972 14.972 0 0 1 9.383-6.61h.004Zm0 0" style="stroke:none;fill-rule:nonzero;fill-opacity:1"/></svg>