<svg xmlns="http://www.w3.org/2000/svg" viewBox="0 0 30 30"><path d="M7.352 29.855c1.441 0 2.617-1.156 2.617-2.574 0-.508-.153-.98-.41-1.379h.07c-1.149-1.382-1.027-2.507.187-2.906h4.028c.453 0 .824-.406.824-.906v-3.922c.285-2.68 1.324-1.887 2.555-1.055 2.96 2.004 4.933-2.746 2.539-4.367-1.883-1.277-2.696.914-4.075.688-.53-.086-.902-.72-1.019-1.68V7.875c0-.5-.371-.91-.824-.91h-3.528c-1.668-.23-1.984-1.461-.691-3.012h-.07c.261-.402.41-.875.41-1.379C9.969 1.152 8.797 0 7.352 0 5.91 0 4.738 1.152 4.738 2.574c0 .504.149.977.41 1.38h-.02c1.294 1.55.981 2.784-.69 3.01H.897c-.453 0-.828.411-.828.911v4.043c.266 1.668 1.36 1.937 2.72.57v.02a2.042 2.042 0 0 1 1.257-.453c1.293 0 2.344 1.285 2.344 2.87 0 1.587-1.051 2.872-2.344 2.872-.461 0-.89-.164-1.258-.45v.079c-1.36-1.371-2.453-1.094-2.719.57v4.098c0 .5.375.906.828.906h4.04c1.218.395 1.343 1.523.19 2.902h.017c-.258.403-.41.875-.41 1.383.003 1.418 1.175 2.57 2.617 2.57ZM22.648 30h-.003c-1.446 0-2.618-1.152-2.618-2.574 0-.504.149-.977.41-1.38h-.015c1.148-1.378 1.027-2.507-.192-2.901h-4.039c-.457 0-.828-.407-.828-.907v-4.09c.196-.62.442-.84.735-.847.132 0 .273.039.425.11.422.19.918.593 1.457.823 2.082.88 3.868-1.343 3.747-3.629-.028-.507-.211-1.011-.489-1.476-1.062-1.781-2.633-1.95-4.152-.934-.77.524-1.387.914-1.738-.308l.02-3.867c.003-.5.37-.91.823-.91h3.54c1.667-.231 1.984-1.465.69-3.012h.02a2.52 2.52 0 0 1-.41-1.383c0-1.418 1.168-2.57 2.614-2.57h.007c1.442 0 2.618 1.152 2.618 2.57 0 .508-.153.98-.41 1.383h.015c-1.293 1.547-.98 2.785.691 3.011h3.54c.453 0 .824.41.824.91v4.043c-.262 1.668-1.356 1.938-2.72.57v.02a2 2 0 0 0-1.253-.453c-1.293 0-2.344 1.285-2.344 2.871s1.051 2.875 2.344 2.875c.461 0 .89-.168 1.254-.453v.078c1.363-1.367 2.457-1.093 2.719.57v4.094c0 .496-.371.907-.825.907h-4.043c-1.214.394-1.34 1.523-.187 2.902h-.02c.258.398.41.871.41 1.379C25.263 28.848 24.09 30 22.649 30Zm0 0" style="stroke:none;fill-rule:evenodd;fill-opacity:1"/></svg>