<svg xmlns="http://www.w3.org/2000/svg" viewBox="0 0 30 30"><path d="M15 0c3.89 0 7.434 1.48 10.098 3.91-.438.356-.848.742-1.243 1.152-2.433 2.555-3.94 6.086-3.94 9.977h-.009v.012h.008c0 3.894 1.508 7.426 3.945 9.98.371.39.77.762 1.184 1.106A14.922 14.922 0 0 1 15 30c-3.863 0-7.387-1.46-10.043-3.863.414-.344.813-.715 1.184-1.11 2.437-2.554 3.945-6.086 3.945-9.98h.012v-.008h-.012c0-3.89-1.508-7.422-3.941-9.976-.395-.41-.81-.797-1.243-1.153A14.933 14.933 0 0 1 15 0Zm12.027 6.04A14.923 14.923 0 0 1 30 15c0 3.383-1.121 6.504-3.012 9.016a12.25 12.25 0 0 1-1.047-.965c-1.949-2.047-3.156-4.88-3.156-8.004h.004v-.008h-.004c0-3.121 1.207-5.953 3.156-7.996.34-.36.704-.695 1.086-1.004ZM3.012 24.015A14.938 14.938 0 0 1 0 15c0-3.36 1.105-6.46 2.973-8.957.382.309.75.64 1.086 1 1.949 2.047 3.156 4.875 3.156 7.996H7.21v.012h.004c0 3.12-1.207 5.953-3.156 8-.329.34-.68.664-1.047.965Zm0 0" style="stroke:none;fill-rule:evenodd;fill-opacity:1"/></svg>