<svg xmlns="http://www.w3.org/2000/svg" viewBox="0 0 30 30"><path d="M19.605 4.387C14.145.12 6.441.567 2.406 5.395c-4.035 4.828-2.875 12.207 2.586 16.484A13.84 13.84 0 0 0 10 24.363l14.07-13.61c-.742-2.382-2.246-4.628-4.465-6.366ZM26.293.004c-2.05 0-3.711 1.605-3.711 3.59 0 1.984 1.66 3.59 3.711 3.59 2.047 0 3.71-1.606 3.71-3.59C30 1.609 28.34.004 26.294.004ZM13.117 24.8c.508.012 1.012-.008 1.512-.055 2.191-.215 3.715-1.137 5.937-.14 1.887.847 2.797 2.632 4.497 4.515.824.914.957 1.067 2.195.664 1.633-.531 2.363-1.617 2.52-3.05.136-1.25-.337-1.325-1.344-2.032-1.551-1.098-2.82-1.933-3.641-2.898-2.012-2.36-.313-4.617-.211-7.2a9.845 9.845 0 0 0 0-.898Zm0 0" style="stroke:none;fill-rule:evenodd;fill-opacity:1"/></svg>