<svg xmlns="http://www.w3.org/2000/svg" viewBox="0 0 30 30"><path d="M24.332 11.133c.918-.246 1.738-.637 2.406-1.133 1.094-.816 1.766-1.922 1.766-3.133 0-.676-.207-1.316-.582-1.894a4.532 4.532 0 0 0-.598-.73 11.577 11.577 0 0 1-1.183 4.241c-.477.961-1.09 1.852-1.809 2.649Zm-8.984 11.11.77 1.929 2.288.058-1.816 1.25.648 1.97-1.89-1.16-1.895 1.16.645-1.97-1.813-1.25 2.29-.058Zm-9.735-2.497h19.469V29.95H5.613Zm10.91-5.078v1.594h.133v1.113h-3.379v-1.113h.133v-1.606a11.363 11.363 0 0 1-5.48-2.332l-.18.45c-2.121-.032-4.04-.684-5.43-1.723C.887 9.984 0 8.504 0 6.867c0-.926.285-1.8.797-2.59H.793c.52-.797 1.27-1.492 2.187-2.039l.829-.492h-.961V.051h24.109v1.695h-.766l.829.492c.914.547 1.664 1.242 2.183 2.04h.004c.508.78.793 1.656.793 2.59 0 1.636-.887 3.112-2.324 4.187-1.39 1.035-3.309 1.691-5.43 1.722l-.18-.453a11.33 11.33 0 0 1-5.543 2.344Zm-5.05 3.824h6.992v1.113h-6.992Zm1.066-1.117h4.86v1.113h-4.86ZM3.262 10c.668.5 1.488.887 2.41 1.133A11.68 11.68 0 0 1 3.859 8.48a11.535 11.535 0 0 1-1.183-4.242 4.865 4.865 0 0 0-.598.735 3.425 3.425 0 0 0-.582 1.894c0 1.211.672 2.317 1.766 3.133Zm0 0" style="stroke:none;fill-rule:evenodd;fill-opacity:1"/></svg>