<svg viewBox="0 0 69 27" fill="none" xmlns="http://www.w3.org/2000/svg">
    <rect width="69" height="27" fill="black" />
    <path
        d="M21.6818 18H21.392L24.5114 9.27273H24.8864L28.0057 18H27.7159L24.7159 9.61364H24.6818L21.6818 18ZM22.6705 14.7784H26.7273V15.0511H22.6705V14.7784ZM29.7582 18V9.27273H32.4854C32.9741 9.27273 33.3917 9.36222 33.7383 9.54119C34.0877 9.71733 34.3548 9.97159 34.5394 10.304C34.7269 10.6335 34.8207 11.0284 34.8207 11.4886C34.8207 11.8295 34.7681 12.1435 34.663 12.4304C34.5607 12.7173 34.4102 12.9588 34.2113 13.1548C34.0124 13.348 33.7724 13.4801 33.4911 13.5511V13.5852C33.8065 13.6108 34.0906 13.7202 34.3434 13.9134C34.5962 14.1065 34.7951 14.3622 34.94 14.6804C35.0877 14.9986 35.1616 15.3608 35.1616 15.767C35.1616 16.2159 35.0664 16.608 34.8761 16.9432C34.6886 17.2784 34.4158 17.5384 34.0579 17.723C33.7028 17.9077 33.2752 18 32.7752 18H29.7582ZM30.0309 17.7273H32.7752C33.4144 17.7273 33.9258 17.5483 34.3093 17.1903C34.6957 16.8295 34.8888 16.3551 34.8888 15.767C34.8888 15.3636 34.7979 15.0071 34.6161 14.6974C34.4343 14.3878 34.1843 14.1449 33.8661 13.9688C33.5508 13.7926 33.1871 13.7045 32.7752 13.7045H30.0309V17.7273ZM30.0309 13.4318H32.7752C33.1729 13.4318 33.5025 13.3423 33.7638 13.1634C34.0252 12.9844 34.2212 12.7472 34.3519 12.4517C34.4826 12.1562 34.5479 11.8352 34.5479 11.4886C34.5479 10.8693 34.3633 10.3906 33.994 10.0526C33.6246 9.71449 33.1218 9.54545 32.4854 9.54545H30.0309V13.4318ZM43.9059 12H43.6161C43.5621 11.7102 43.457 11.4148 43.3008 11.1136C43.1445 10.8125 42.9371 10.5341 42.6786 10.2784C42.4201 10.0227 42.1147 9.81676 41.7624 9.66051C41.4102 9.50426 41.011 9.42614 40.565 9.42614C39.9684 9.42614 39.4158 9.58949 38.9073 9.91619C38.4016 10.2401 37.994 10.7159 37.6843 11.3438C37.3775 11.9688 37.2241 12.733 37.2241 13.6364C37.2241 14.5511 37.3775 15.321 37.6843 15.946C37.994 16.571 38.4016 17.044 38.9073 17.3651C39.4158 17.6861 39.9684 17.8466 40.565 17.8466C41.011 17.8466 41.4102 17.7699 41.7624 17.6165C42.1147 17.4602 42.4201 17.2557 42.6786 17.0028C42.9371 16.7472 43.1445 16.4687 43.3008 16.1676C43.457 15.8636 43.5621 15.5653 43.6161 15.2727H43.9059C43.8519 15.5795 43.744 15.8991 43.582 16.2315C43.4201 16.5611 43.2013 16.8693 42.9258 17.1562C42.6502 17.4432 42.3164 17.6761 41.9244 17.8551C41.5323 18.0312 41.0792 18.1193 40.565 18.1193C39.8491 18.1193 39.2198 17.9318 38.6772 17.5568C38.1346 17.1818 37.7113 16.6577 37.4073 15.9844C37.1033 15.3111 36.9513 14.5284 36.9513 13.6364C36.9513 12.7443 37.1033 11.9616 37.4073 11.2884C37.7113 10.6151 38.1346 10.0909 38.6772 9.71591C39.2198 9.34091 39.8491 9.15341 40.565 9.15341C41.0792 9.15341 41.5323 9.24148 41.9244 9.41761C42.3164 9.59375 42.6502 9.82528 42.9258 10.1122C43.2013 10.3963 43.4201 10.7045 43.582 11.0369C43.744 11.3665 43.8519 11.6875 43.9059 12ZM48.4016 18H46.1175V9.27273H48.6232C49.4272 9.27273 50.1147 9.44602 50.6857 9.79261C51.2596 10.1364 51.6985 10.6307 52.0025 11.2756C52.3093 11.9205 52.4613 12.696 52.4585 13.6023C52.4556 14.5312 52.2937 15.3239 51.9727 15.9801C51.6545 16.6335 51.1928 17.1335 50.5877 17.4801C49.9854 17.8267 49.2567 18 48.4016 18ZM46.3903 17.7273H48.4016C49.2085 17.7273 49.8945 17.5639 50.4599 17.2372C51.0252 16.9077 51.4542 16.4347 51.7468 15.8182C52.0423 15.2017 52.1886 14.4631 52.1857 13.6023C52.1829 12.7528 52.0408 12.0256 51.7596 11.4205C51.4812 10.8153 51.0778 10.3523 50.5494 10.0312C50.021 9.70739 49.3789 9.54545 48.6232 9.54545H46.3903V17.7273Z"
        fill="white" />
    <path
        d="M19.5483 18H17.2812L20.2259 9.27273H23.0341L25.9787 18H23.7116L21.6619 11.4716H21.5938L19.5483 18ZM19.2457 14.5653H23.9844V16.1676H19.2457V14.5653ZM26.9183 18V9.27273H30.5575C31.2109 9.27273 31.7578 9.36506 32.1982 9.54972C32.6413 9.73437 32.9737 9.9929 33.1953 10.3253C33.4197 10.6577 33.532 11.0426 33.532 11.4801C33.532 11.8125 33.4624 12.1094 33.3232 12.3707C33.1839 12.6293 32.9922 12.8437 32.7479 13.0142C32.5036 13.1847 32.2209 13.304 31.8999 13.3722V13.4574C32.2521 13.4744 32.5774 13.5696 32.8757 13.7429C33.1768 13.9162 33.4183 14.1577 33.6001 14.4673C33.782 14.7741 33.8729 15.1378 33.8729 15.5582C33.8729 16.027 33.7536 16.446 33.5149 16.8153C33.2763 17.1818 32.9311 17.4716 32.4794 17.6847C32.0277 17.8949 31.4794 18 30.8345 18H26.9183ZM29.0277 16.2997H30.3317C30.7891 16.2997 31.1257 16.2131 31.3416 16.0398C31.5604 15.8665 31.6697 15.625 31.6697 15.3153C31.6697 15.0909 31.6172 14.8977 31.5121 14.7358C31.407 14.571 31.2578 14.4446 31.0646 14.3565C30.8714 14.2656 30.6399 14.2202 30.37 14.2202H29.0277V16.2997ZM29.0277 12.8608H30.1953C30.4254 12.8608 30.63 12.8224 30.8089 12.7457C30.9879 12.669 31.1271 12.5582 31.2266 12.4134C31.3288 12.2685 31.38 12.0937 31.38 11.8892C31.38 11.5966 31.2763 11.3665 31.0689 11.1989C30.8615 11.0312 30.5817 10.9474 30.2294 10.9474H29.0277V12.8608ZM42.8089 12.4347H40.6783C40.6499 12.2159 40.5916 12.0185 40.5036 11.8423C40.4155 11.6662 40.299 11.5156 40.1541 11.3906C40.0092 11.2656 39.8374 11.1705 39.6385 11.1051C39.4425 11.0369 39.2251 11.0028 38.9865 11.0028C38.5632 11.0028 38.1982 11.1065 37.8913 11.3139C37.5874 11.5213 37.353 11.821 37.1882 12.2131C37.0263 12.6051 36.9453 13.0795 36.9453 13.6364C36.9453 14.2159 37.0277 14.7017 37.1925 15.0938C37.3601 15.483 37.5945 15.777 37.8956 15.9759C38.1996 16.1719 38.5589 16.2699 38.9737 16.2699C39.2067 16.2699 39.4183 16.2401 39.6087 16.1804C39.8018 16.1207 39.9709 16.0341 40.1158 15.9205C40.2635 15.804 40.3842 15.6634 40.478 15.4986C40.5746 15.331 40.6413 15.142 40.6783 14.9318L42.8089 14.9446C42.772 15.331 42.6598 15.7116 42.4723 16.0866C42.2876 16.4616 42.0334 16.804 41.7095 17.1136C41.3857 17.4205 40.9908 17.6648 40.5249 17.8466C40.0618 18.0284 39.5305 18.1193 38.9311 18.1193C38.1413 18.1193 37.4339 17.946 36.8089 17.5994C36.1868 17.25 35.6953 16.7415 35.3345 16.0739C34.9737 15.4062 34.7933 14.5937 34.7933 13.6364C34.7933 12.6761 34.9766 11.8622 35.343 11.1946C35.7095 10.527 36.2053 10.0199 36.8303 9.6733C37.4553 9.3267 38.1555 9.15341 38.9311 9.15341C39.4595 9.15341 39.9482 9.22727 40.397 9.375C40.8459 9.51989 41.2408 9.73295 41.5817 10.0142C41.9226 10.2926 42.1996 10.6349 42.4126 11.0412C42.6257 11.4474 42.7578 11.9119 42.8089 12.4347ZM47.2418 18H44.016V9.27273H47.2376C48.1268 9.27273 48.8924 9.44744 49.5344 9.79688C50.1793 10.1435 50.6765 10.6435 51.0259 11.2969C51.3754 11.9474 51.5501 12.7259 51.5501 13.6321C51.5501 14.5412 51.3754 15.3224 51.0259 15.9759C50.6793 16.6293 50.1836 17.1307 49.5387 17.4801C48.8938 17.8267 48.1282 18 47.2418 18ZM46.1254 16.2017H47.1609C47.6495 16.2017 48.0629 16.1193 48.4009 15.9545C48.7418 15.7869 48.9989 15.5156 49.1722 15.1406C49.3484 14.7628 49.4364 14.2599 49.4364 13.6321C49.4364 13.0043 49.3484 12.5043 49.1722 12.1321C48.9961 11.7571 48.7362 11.4872 48.3924 11.3224C48.0515 11.1548 47.631 11.071 47.131 11.071H46.1254V16.2017Z"
        fill="white" />
</svg>