<svg viewBox="0 0 26 26" fill="none" xmlns="http://www.w3.org/2000/svg">
    <path
        d="M15.9351 3.51172L17.055 2.39174C18.9106 0.536088 21.9193 0.536088 23.7749 2.39174C25.6305 4.24737 25.6305 7.25597 23.7749 9.11162L22.6549 10.2316M15.9351 3.51172C15.9351 3.51172 16.075 5.89167 18.175 7.99164C20.275 10.0916 22.6549 10.2316 22.6549 10.2316M15.9351 3.51172L13.0833 6.36346M22.6549 10.2316L16.2983 16.5882L12.5532 20.3333L12.3585 20.5281C11.661 21.2254 11.3124 21.5742 10.9279 21.8741C10.4743 22.2279 9.98358 22.5312 9.46435 22.7786C9.02418 22.9884 8.55634 23.1443 7.62068 23.4562L3.65582 24.7778M3.65582 24.7778L2.68664 25.1009C2.22619 25.2544 1.71855 25.1345 1.37534 24.7914C1.03214 24.4481 0.91231 23.9405 1.06579 23.4801L1.38885 22.5109M3.65582 24.7778L1.38885 22.5109M1.38885 22.5109L2.71047 18.546C3.02236 17.6104 3.1783 17.1425 3.38808 16.7023C3.63554 16.1831 3.93882 15.6924 4.29259 15.2388C4.59247 14.8543 4.94117 14.5057 5.63857 13.8082L8.85417 10.5926"
        stroke-width="1.5" stroke-linecap="round" />
</svg>