<svg viewBox="0 0 21 26" fill="none" xmlns="http://www.w3.org/2000/svg">
    <path
        d="M11.25 7.04839C11.0061 7.01657 10.7556 7 10.5 7C8.01465 7 6 8.56701 6 10.5C6 12.433 8.01465 14 10.5 14C12.9854 14 15 12.433 15 10.5C15 10.3012 14.9787 10.1064 14.9377 9.91667"
        stroke-width="1.5" stroke-linecap="round" />
    <path
        d="M2.1875 16.8593C1.41864 14.8747 1 12.7616 1 10.772C1 5.37506 5.25329 1 10.5 1C15.7467 1 20 5.37506 20 10.772C20 16.1266 16.968 22.3749 12.2372 24.6093C11.1345 25.1302 9.86552 25.1302 8.76281 24.6093C7.25188 23.8957 5.91424 22.7727 4.79333 21.4"
        stroke-width="1.5" stroke-linecap="round" />
</svg>