<svg viewBox="0 0 28 29" fill="none" xmlns="http://www.w3.org/2000/svg">
    <path
        d="M1 6.7835C1 3.91161 3.32812 1.5835 6.2 1.5835C9.07188 1.5835 11.4 3.91161 11.4 6.7835V22.3835C11.4 25.2553 9.07188 27.5835 6.2 27.5835C3.32812 27.5835 1 25.2553 1 22.3835V6.7835Z"
        stroke-width="1.5" />
    <path
        d="M11.3997 9.69897L15.7075 5.39121C17.7383 3.36048 21.0306 3.36048 23.0614 5.39121C25.0921 7.42194 25.0921 10.7144 23.0614 12.7452L10.498 25.3085"
        stroke-width="1.5" />
    <path
        d="M6.19922 27.5836H21.7992C24.671 27.5836 26.9992 25.2554 26.9992 22.3836C26.9992 19.5118 24.671 17.1836 21.7992 17.1836H18.5492"
        stroke-width="1.5" />
    <path
        d="M7.50039 22.3835C7.50039 23.1015 6.91835 23.6835 6.20039 23.6835C5.48243 23.6835 4.90039 23.1015 4.90039 22.3835C4.90039 21.6655 5.48243 21.0835 6.20039 21.0835C6.91835 21.0835 7.50039 21.6655 7.50039 22.3835Z"
        stroke-width="1.5" />
</svg>