<svg xmlns="http://www.w3.org/2000/svg" viewBox="0 0 510 650"><path d="m125.9 199-.4 1.9-.1.2-.2.4c0 .3-.2.5-.3.8l-1 1.7-.7 1.9-2.2 6.5c-2.1 5.3-4 10-5.9 14.2l-5.5 12.2a99 99 0 0 1-6.3 11.8c-2.5 4-5.7 8-10.2 11.6-4 3.4-8 6-12 8.7-3.9 2.6-7.7 5-11.2 8-1.8 1.4-3.5 2.9-5 4.5l-4.9 4.8c-3.2 3.4-6.4 7-9.7 10.8-3.9 5.4-24.5 31-35.2 41.6l-2.6 2.4-1.1 1-.6.6-.4.4c-1.4 1-2.7 1.6-3.4 2-.7.4-1 .6-.6.5.4-.2 1.5-.5 3.2-1.4-1.5.8-3 1.3-4 2-1.2.6-2 1.3-2.5 2.1-.6.8-.9 1.6-1 2.3a16.1 16.1 0 0 0-.5 1.8c-.4 2.3-.5 4.4-.5 10.2l-.3-4v3l-.2 3.2c-.1 2.2-.3 4.5.1 7.2a9 9 0 0 0 3 5.3c1.3 1.3 3 2 4.5 2.7a30.2 30.2 0 0 0 13 2.2c.7 0 1.4 0 2.1-.2a5 5 0 0 0 2.3-.7l1-.8.8-.9.4-.6v-.7c0-.5-.2-.9-.3-1.3-.3-.9-1-1.7-1.8-2-.8-.5-1.7-.7-2.5-.8-1.7-.3-3.5-.4-4.7-1.6.8.8 1.6 1 2 1.2a18.9 18.9 0 0 1-.9-.2c-1-.4-1.9-1.4-2.5-2.2-.7-.8-1-1.3-1-1l-1.2-2.4-.9-1.6-.7-1.4c-.4-1-.4-1.9-.4-2.3 0-.5 0-.4.1.3 0-1.7.5-3.7 1.9-4.4l-.7-.4c.5 2.5 0 5.1.1 7.6 0 1.3.2 2.6.7 3.7a9.3 9.3 0 0 0 2 3 9.3 9.3 0 0 0 11 1.7c1.3-.8 2.5-2 3.3-3.4.7-2 1-3.9 1.4-5.7l1-5.2a16.4 16.4 0 0 1 6-8.2l.8-.7c4-2.8 11.7-7.3 15.4-9.3 11-6.5 24.7-15 35.9-21.9a95.6 95.6 0 0 0 8.5-5.5l7.1-5.7c3-2.3 6.8-5.7 10-9.2 3.3-3.5 6-7 7.4-8.8l-4 5.1a61.9 61.9 0 0 1-11.4 11.8c1.7-1.2-1.8 1.9-5 4.2-3.2 2.4-5.8 4.3-1.7 1.6a107.5 107.5 0 0 0 24-24.2l10.1-13.8 9.4-12.6A55.6 55.6 0 0 0 156 249v-.2a3 3 0 0 0-.5-1c-.2-.3-.7-.5-1.1-.4-.8.2-1.3.8-1.8 1.3-.9 1-1.6 2.2-2.2 3.3a51.3 51.3 0 0 0-2.7 5.7l-.4.5a33.9 33.9 0 0 0-2.6 10.3c-.2 3.8-.2 8 .7 13.9 1.6 13.8 3.2 27.5 4.3 39.3.8 8.6 1.9 18 3 26.3 1.1 8.2 2.7 15 3.9 18.6-2.5-10.3-3.5-20.6-4.6-30.1a562 562 0 0 1-2.6-26.3c1.5 14.6 1.8 15.6 3.3 26.8l-.5-6 .6 5c-.1-2.6.7 3.8.8 3l-2-17.5c1 9.4 0 3.2-.4.5l-1-9c.2 2 .8 7.7 0 1l-1.5-12.4 1.2 7.1c-1.5-11-1.8-19.4-3.3-30.4l.1-3.3V270c0-1.7.3-3.3.6-4.9v1.1a38.7 38.7 0 0 1 4-11.3 25 25 0 0 1 3-5l.4-.4c0-.1.1 0 0-.1v-.3c-.2-.6 0-.6-.2-.3l-.2.2-.2.1v.1l.2.3v-1c-1.7 4.2-4 7.9-5.1 9.4 1-1.7 2-3.4 2.8-5.2a60.3 60.3 0 0 1-2.8 4.7c1-1.6.5-.6-.5 1l-2.8 4-6.2 8-4.1 5.2-7.2 10c-2.1 2.8-3.7 4.9-3.7 5.2a104.2 104.2 0 0 1-33 29 429 429 0 0 1-5.3 3.4c-14.6 8.4-21 12.5-36 21.5l1.1-.8-8 5.1a30.8 30.8 0 0 0-7.3 5.3c-1 1-1.8 2.1-2.4 3.3l-.9 1.8-.7 1.9c-.6 2.5-.9 4.9-1.5 7.6a24.3 24.3 0 0 1-.8 3l-.5.7c-.8 1-2 2-3.6 2.4a7 7 0 0 1-6.5-1 7.5 7.5 0 0 1-2.9-4.6c-.3-1.6-.1-3.4 0-5 0-1.6 0-3.1-.4-4.6l-.4-1.6-1.4.8a5 5 0 0 0-2 2.5c-.4.9-.5 1.7-.5 2.5 0 1 .1 2.2.5 3.4l.9 1.5.8 1.4 1.7 2.9a7.5 7.5 0 0 0 5.7 4.1l3 .5 1 .5.7.8v.3l.1.3.1.2v.5l-.2.3c.1-.2.3-.3.2-.5v-.3l-.2-.4a2 2 0 0 0-1-1.1c.6.3.9.8 1 1.6v.3l-.1.2-.4.4-.4.4-1 .6-1.4.2a36.8 36.8 0 0 1-12.2-1.6l-3.2-1.2c-1-.5-2.2-1.2-3-2.3a7 7 0 0 1-1.2-2.5c-.2-.8-.3-1.7-.3-2.5-.2-1.6-.1-3 0-4.2l-.1-5.4-.2-3.3v-4.3c.3-1.4.6-2.9 1.3-4 .8-1 2-1.8 3.2-2.3 1.3-.6 2.8-1.1 4-2l1-.7.9-.8 1.6-1.4-.3.2 7.6-8c2.6-2.7 6.5-6.8 14.3-16.3l-1 .7c5.6-6.3 7.4-9.4 14.2-17.6 1.7-2 5.2-6 9.2-10.2l3-3.2a114.1 114.1 0 0 1 8.8-8.6c3.6-2.9 7-5.1 10.1-7.2 3.1-2.1 6-4 8.6-6a60 60 0 0 0 20.7-25.3c1.4-2.9 2.3-4.9 2.9-5.6l-.8 1.6 2-3-.2-.6c1.3-2.6 2.9-5.8 4.3-9l3.7-8.5 2.2-6.4 1-3.2c.4-1 .7-2.1 1.2-3.1l-1 2.3-1 2.5-1.9 5.1.2-.3c-.6 1.6-1.6 4.5-2.8 7.3a122 122 0 0 1-3.4 7.5l2-4.4c-2.4 5-.6.7 0-.7 2.2-5.2 2.9-7.1 3.4-8.7l2.4-7 1.3-3.1c.5-1 .9-1.4.5-.8l1-2 .3-.5v-.3l.2-.3c0-.5.2-1 .3-1.4l.1-.8.2-.4.1-.3a85.4 85.4 0 0 1 1.7-4.4c.7-1.9 1.6-3.5 2.2-4.8l1.1-2.2.6-.8a37.2 37.2 0 0 0-4.4 6.1l-1 2-1 2.4-.6 1.2-.1.3-.2.6-.2.6Z"/><path d="M158.6 379.4c2 4.7 4 8.9 5.5 12.6a56.4 56.4 0 0 1 2.8 13.9c.2 4.4 0 8.6.6 12.9a28.2 28.2 0 0 0 3.1 9.6c.6 1 1.5 2 2.4 3 1.9 1.6 4.2 2.8 6.7 3.7 2.5.9 5.2 1.5 8.2 1.6 1.4 0 2.7 0 4-.3 1.3-.2 2.6-.6 3.9-1.5l.8-.7.4-.5.2-.3.4-.6.2-.6v-.8l-.3-.4-.3-.3c-.2-.3-.4-.3-.5-.4l-.4-.1h-.4c-.8-.2-1.4-.1-2 0l-1.8.3c-2.3.4-4.4 1-6.5 1.7-2.1.6-4.1 1.4-6.1 2.2-4 1.5-8 3.2-11.9 5.3l-6 3.2c-1.9 1.2-4 2.3-6 3.7-2.4 2-10.2 7.5-17.8 14.7a103 103 0 0 0-18.4 22.7c-2.5 4.2-4 7.7-4.4 9.3-.5 1.5-.3 1 1.3-2.3l-1.7 4-1 2.8-1.3 3.9-.4 1.6-.4 1.9a21 21 0 0 0-.3 2.5l-.1 1.7v2l-.1-2v-1.9c-.5 3.7-.6 8 .8 12.8l1 2.6c.4.8 1 1.6 1.3 2.4 1.5 3 3.4 5.5 5.3 7.6a50.6 50.6 0 0 0 13.6 9.4 79.6 79.6 0 0 0 7.7 2.9l3.3.9 1.4.2c1 .4 3.7 1 5.7 1.4 2 .3 3.5.5 2 .4 6 .8 11.9.9 17 1.7 5.1.8 9.6 1.5 13 2.2l4.5.4c7.5.8 13.6 1.5 20.6 1.9l1-.1h8.8l8.3.3h2.3l2.4.1c.7.1 1.4.4 2 1 .5.4.9 1.1 1.1 1.9.5 1.5.6 3.2.6 4.9l-.3 5.1v2.6l.4 2.6.9 5c.6 3.4 1.2 6.7 1.9 9.7 1.3 6.2 2 7.8 2.5 9.3l1 2.7 2.4 5.3 1.2 2.6c.5 1 1 1.8 1.8 2.5 1.5 1.5 3.7 2.5 5.8 3l1.6.2h1.5l1.5-.3 1.6-.2c.5 0 1.1.1 1.5.3l1 .4 2 .2-1.7-.1c-.6 0-1-.2-1.5-.4-.5-.3-1.1-.3-1.6-.2l-1.3.2-2.3.4c-.7 0-1.5 0-2.2-.2-1.4-.2-2.8-.6-4.3-1.5a9.5 9.5 0 0 1-2.3-1.8c-.7-.7-1.2-1.8-1.8-3 .8 1.8-1.3-2-2.7-5.6l-1.5-4 .6 2c.7 1.9 1.4 3.8 2.3 5.7l1.4 2.8c.5 1 1.1 2 2 2.7 1.5 1.5 3.6 2.4 5.7 3a14.6 14.6 0 0 0 3.3.3c1 0 2.2-.4 3.2-.5.6 0 1 0 1.6.3l1.6.4a15.4 15.4 0 0 0 5-.2l1.6-.4a5 5 0 0 0 2.5-2.1 5 5 0 0 0 .6-3.2 9 9 0 0 0-1-3c-.5-1-1.3-1.8-1.8-2.7a6 6 0 0 1-.5-3v-.1l-1-12.3c.3.7 0-5-.4-12l-.6-8v-2.7c0-3.4.2-6.4.6-8.4l.2-.5c.7-3.4 1.9-6.2 4-9 1-1.5 2.3-3 2.8-5.2.5-2.1 1.1-4.5 1.3-7.3.3-3.3-.2-6.8-2-9.7-.4-.6-.8-1.4-1.5-1.9a40.8 40.8 0 0 0-6.5-3.2c-3-1.2-6.2-1.7-9.2-1.5-3 0-6 .6-8.7 1a58.3 58.3 0 0 1-24.8-2c-3.7-1.1-7-2.6-10-3.7-2.9-1-5.3-1.9-7-2.1 2.4.5 4.7 1.6 7 2.5 2.3 1 4.5 2 6.8 2.8a50.5 50.5 0 0 0 27 3.2c4.2-.6 8.2-1.3 11.8-.9-3.4-.1-6 .3-8.3.7l-5.6.8a57.1 57.1 0 0 1-11.8.2 50.7 50.7 0 0 0 1 .4c1.3.2.3.2-.9.1-1.2 0-2.6-.2-2.2 0a53.8 53.8 0 0 0 12.5.2l4.2-.8c2.9-.4 5.7-.9 8.5-1l-3.5.2 2.5-.4c1.7-.1 3.6-.2 5.6 0 2 .3 3.9 1 5.7 1.7l-3.2-1-3.2-.3c1.2 0 2.4.3 3.5.6a32.5 32.5 0 0 1 7.7 3.6l.5.4.4.6c1.2 1.7 1.8 3.7 2 5.8a26 26 0 0 1-.4 7l-1 3-.2.6-.2.5c0 .3-.2.6-.4.9l-1.2 1.9a30.6 30.6 0 0 0-4.8 9.3l-.3 1.6c-.2.5-.2 1-.3 1.6l-.4 3-.1 4.1.1 2.5c0 1.2.2 1.7.3 2.3l.8 11.8-.6-5.8.2 5.4c-.1-3.7.5 4.4.6 5.7l.6 9c0 1.6 0 2.5.2 4.7 0 .5-.1 1.5.2 2.7.2.7.4 1.3.9 2l.8 1.1c.5.7 1 1.5 1.2 2.2.5 1.5.2 2.7-.6 3.5-.3.4-.8.6-1.2.8l-1.5.3-1.7.3h-2.3c-.4 0-.6-.1-1-.3l-.6-.2-1-.3a5 5 0 0 0-1 0h-.5l-.4.1-1.3.3-1.2.1h-1c-3.2-.5-6.2-2-7.5-4.5a136 136 0 0 1-8-25.2l-1.6-10.5-.3-2.2v-2l.4-4.5c0-1.6 0-3.2-.3-4.9-.2-.9-.5-1.8-1-2.7a5.6 5.6 0 0 0-4.2-2.7H227l-5.8-.1h1.3-11.3a646.1 646.1 0 0 1-6-.3l-7-.4c-4.5-.3-9.3-.8-16.4-2l-10.1-1.6c-3-.5-5.5-.8-7.7-1l-10-.4a61.3 61.3 0 0 1-22.4-7l2 1 2 .8a53.3 53.3 0 0 1-13.1-8.5c-.6-.4-1-1-1.6-1.6-.6-.5-1.1-1.2-1.8-2-.6-.6-1.2-1.5-1.9-2.5l-2-3.6a31.6 31.6 0 0 1-2.4-9l-.2-3v-5.1c.1-1 .1-2.3.5-4.1a68.8 68.8 0 0 1 6.5-15.2l-.2.3c2.3-4.3 3.3-6 5.4-8.8l1.9-2.5 2.6-3.2 3.7-4.3c1.5-1.6 3.2-3.5 5.3-5.5l-1 .6c.8-.7 1.5-1.3 2-2l2-1.6 1.6-1.5 1.8-1.5c.5-.6 1.1-1 1.8-1.6l2-1.7 5.2-4 4.5-2.9c2-1.1 4.2-2.5 6.7-3.8 4.8-2.6 10.3-5 14.3-6.8 2-.7 4-1.5 6-2 1.8-.7 3.6-1.2 5.3-1.6 1.7-.4 3.4-.9 5-.9.3 0 .7.2.7.3l-.2.4-.2.2-.2.3c-.3.6-1 1-1.7 1.4-1.4.6-3 .9-4.5 1a23.7 23.7 0 0 1-14.4-4c-1-.7-1.8-1.4-2.4-2.3a9.4 9.4 0 0 1-.8-1.3c-.3-.5-.6-.9-.7-1.3-.9-1.8-1.4-3.5-1.7-5-.6-3-.6-5-.5-5.9v1.6c.2-1.1.2-2.2.3-3.4l-.3-.4-.1-9.4a55 55 0 0 0-1.4-8.8c-1.4-4-3.2-8-5.1-11.8 1.3 2.8 2.6 6 3.8 9.4v-.4c.5 1.6 1.4 4.3 1.9 7.2a41.1 41.1 0 0 1 .3 3.2c.2 2.7.1 3 0 2.3l-.3-2.8c-.3-2.7-.7-4.4-1-5.8l-1-2.9-2.6-6.4-1.5-3.8c-1-2.2-2.7-6.2-4-9.9-.6-1.8-1-3.5-1.3-4.8l-.7-2.2-.2-1a33.7 33.7 0 0 0 1.3 9.3l1.5 4.7Z"/><path d="m192.5 508.3-4.3.8-1.1.2-.4.1-.2.1-.5.2-1.9.6-1.6.4h-.3v-.4l.2-.8c.4-1.4.3-2.7.1-4a8 8 0 0 0-1.6-3.5l-.8-.8-1-.6-1-.4h-1.2c-1.5 0-2.6.7-3.6 1.3l-.3.2-.2.3a3 3 0 0 0-.3 1v.8l.3.5.3.4c.3.5.6.7.9 1l1.7 1a32.6 32.6 0 0 0 15.9 2.7c1-.1 2.1-.3 3.2-.7l2.8-1 11.7-4.8c4.2-1.7 8.7-3.4 13.7-5a49 49 0 0 1 15.7-1.9c5.1.1 10 .5 15 .7 4.8.1 9.9 0 15-1.2 5-1.2 9.9-3.5 14.7-6.5l8.2-6 3-2 3.3-2.4c1.1-.9 2.2-1.8 3.2-2.9 1-1 2-2.3 3-3.2 1-1 2-1.5 3.3-1.4h.5l.5.2 1.2.2 1.2.2h1.3c3-.4 6-.1 8.9-.1 5.8 0 11.2-.4 15.2-.7 5.5-.3 9.8 0 11.6 0 1.8 0 1.2-.2-3-.6 3.8.3 6.4.7 8.4 1 1 .2 1.8.3 2.6.2a8.3 8.3 0 0 0 5.2-3.6 10 10 0 0 0 1.4-2.9c.2-.7.3-1.4.2-2.2 0-.4 0-.7-.3-1-.2-.4-.7-.6-1.1-.5.4-.1.8 0 1.1.3.3.3.4.7.5 1 .1.9 0 1.8-.3 2.8.5-1.4.7-3 0-4-.2-.3-.6-.5-.9-.5l-1 .2-1 .4-1 .6c-.4.2-.7.7-1 1-.3.2-.4.6-.6 1-.2.3-.3.8-.3 1.2l.1 1.2a8 8 0 0 0 2.4 3.8c.7.6 1.5 1.2 2.4 1.7.3.1.5.3.8.3l.4.2h.4l1.4.3.5.1c1.8.6 3.4 1.3 5 2a1608.5 1608.5 0 0 1 6.6 3.1l.2.2h.1l.2-.1.2-.4.1-.2.1-.4.1-.2-.5-.2-1-.5c-1.5-.6-3-1.2-4.5-1.5l-1.3-.2c-.5 0-.9.2-1.3.3-.8.2-1.6.7-2.3 1.3-.6.6-1 1.3-1.5 2l-1.4 2c-1.8 3.1-2.6 6.7-3.8 10.7 3.2-10.3-1.2 4.7-.6 3.7-.8 2.3-3.6 12-2.7 8.6-3.9 13.4-6.9 26-9.5 33.5a144 144 0 0 1-3.6 10.7l-2.5 5.3c-.8 1.8-1.6 3.6-1.9 5.5-.3 2-.2 4 .3 6l.6 1a16.8 16.8 0 0 0 15.3 11c7-.2 14.8-1.7 22.6-.3a51.6 51.6 0 0 1 17 4.4l2.6 1c.8.4 1.8.5 2.6.5 1.8 0 3.3-.4 4.4-.7a68.4 68.4 0 0 1 3-.6c.3 0 .5.1.5.3l.3.5.4.8a16.2 16.2 0 0 0 2.9 3.8l.8.8 1.1 1c.8.4 2 .4 3.6.1h.8l-.4.2c.1-.1.2-.3.4-.3h1c.3 0 .5-.2.8-.4.5-.4 1-1.1 1.5-1.8 1-1.3 1.8-2.8 2.7-4.4l1.5-2.1.7-1 .4-.6v-.2l.2-.2c.7-1.4 1.2-3 1.5-4.3.6-2.8.5-5.3 0-6.7.3.9.5 1.8.5 2.6a16.9 16.9 0 0 1-1.8 8.8l-.5.7a528.3 528.3 0 0 0-5.2 8.2c-.5.6-1 1.3-1.7 1.7l.3-.2c-.1.1-.3.3-.7.4h-.6c-.2 0-.4 0-.5.2l-2.1.2c-.8 0-1.6 0-2.4-.3-.7-.4-1.2-1-1.8-1.5a16.4 16.4 0 0 1-2.2-2.6l-.3-.5s.3.8 1.5 2.3l1.4 1.4c.4.5 1 1 1.7 1.2 1.4.4 2.8 0 4.1 0h.1l.1-.1c.1-.1.1-.2.3-.1h.7c.5 0 .9-.4 1.2-.7a54.4 54.4 0 0 0 4.2-6.3l2-2.9c.8-.9 1.3-2 1.7-3.2.8-2.3 1.2-4.7 1-7.1-.1-2.5-1.4-4.7-3-6.5a30.7 30.7 0 0 0-11.7-7.9c-2.1-.8-4.3-1.6-6.4-2.2-4.3-1.3-8.2-3-12-4.3a55.1 55.1 0 0 0-7.8-2.3c-.9-.2-1.8-.4-2.2-1.2-.2-.4-.2-.9-.3-1.3 0-.5 0-1 .3-1.4 1.4-3.7 4-7.2 6.6-10.1 2.6-3 5-5.4 6.7-7.1l.5-.3a71.5 71.5 0 0 0 15.5-21.8 311.9 311.9 0 0 0 13.5-30.3c1-3.3 1.7-6.6 2.6-9.7.2-1.2.6-2.4.7-3.6 0-1.3-.1-2.5-.3-3.8l-1-7.3c-.2-2.4-.6-4.9-1.2-7.2-.6-2.4-1.6-4.6-3-6.5-1.4-1.8-3-3.3-4.6-4.7l-4.5-3.6a38.7 38.7 0 0 0-7.4-4.2c2.6 1.3 5 2.8 7.3 4.6a74 74 0 0 1 6.3 5.5 18.1 18.1 0 0 1 4.5 6.7c1 2.5 1.4 5.2 1.8 7.8l1 7.7.4 3.7c0 1.2-.1 2.3-.4 3.5l-1.7 6.9c-.5 2.2-1.2 4.3-2 6.3 1.3-3.8 2-6.8 2.5-9.3.6-2.5 1.2-4.5 1.3-6.3 0-1.8-.4-3.5-.7-5.6l-1.2-7.5.7 6.5-.7-5.3c0 1.4-.1.3-.4-1-.3-1.2-.6-2.7-.6-2.3l1.3 9.5.6 4.7-.1 2-.5 2.3c.7-2.5.7-3.6.7-4.4v-.4l.2 2-.3 2.4-1.2 4.9a67.1 67.1 0 0 1-.6 3.6 81 81 0 0 1-4.8 12.8c1-2.5 1.9-5 2.6-7.4-1.9 5.7-4.3 10.4-6.7 15.2l-7.6 14.8-2.1 3a73 73 0 0 1-6.5 9l.7-1c-2.8 3.5-6 6.6-9.3 10-2.6 2.6-4 4.3-4.9 5.5l-1.5 2.2c-.9 1.2-1.7 2.5-2.4 3.8l-1 1.8-.8 2v2.5a3.9 3.9 0 0 0 3 3l1.2.3c-.6-.1-1.3-.2-2-.6a4 4 0 0 1-2-2c-.4-.9-.5-1.6-.5-2.3v-.8l.3-.7.3-.8-.3.8-.3.5v.8c-.1.7-.1 1.3.1 2.2.3.8.9 1.7 1.7 2.2a6 6 0 0 0 2 .8 6.6 6.6 0 0 1-1.2-.4c-.2 0-.2 0 0 0l1.1.3 1.4.3c1.9.3 4.4 1 5.1 1.1 3.2 1 5.3 2 6.9 2.6l3.5 1.3 2.5 1 4.3 1.5c2 .7 4.3 1.5 6.1 2.5l.7.4.3.1.3.3 1.3.9a39 39 0 0 1 5.5 5l1.1 1.4a8.2 8.2 0 0 1 .8 2.7v1a15.3 15.3 0 0 1-1.4 6.8l-.3.5-.1.3-2.7 3.8-.7 1.1-.6 1a38.7 38.7 0 0 1-2.6 3.7l-.1.1h-1.1a2.5 2.5 0 0 0-1.2.8l1.3-.6-2.5.2c-.7 0-1-.2-1.2-.4a16 16 0 0 1-3.7-4.7l-.2-.5-.3-.5c0-.3-.2-.4-.3-.6l-.7-.9-1-.4h-1.3l-1 .2c-1.8.5-3.3 1-4.8 1-1 .2-1.8.1-2.4-.1l-3.3-1.2a62.3 62.3 0 0 0-11.9-4c-1.9-.4-3.7-.6-5.4-.8a80 80 0 0 0-5.1-.5c-3.6-.2-7 .1-10.8.4-3.9.3-7.8 1.2-11.8-.4l1.3.3a14.6 14.6 0 0 1-7.7-5.1 14.2 14.2 0 0 1-2-4l-.6-2-.2-2c-.1-2.4.6-4.7 1.7-7 1-2.3 2.3-4.8 3.4-7.8a426 426 0 0 0 11.6-41.2l3.9-13.6 2-6.7 1.4-2.8.8-1.3.8-1.2-1.3 2-1 2.2c.4-.9.9-1.8 1.5-2.6l1.8-2.5c.8-.9 1.5-1.2 2.4-1.4.6-.1 1.5.1 2.3.4l2.4.8 1 .5.6.3.3.1.4.2h.7c1.7-.5.3-3.2.6-2.2a.8.8 0 0 0-.1 0l-.1-.2h-.2l-.2-.1-.2-.2-.6-.3-1.2-.5-2.8-1.3a118.6 118.6 0 0 0-6.6-2.7l-.7-.2-.4-.1h-.5.2l-.8-.2-.5-.2H363.4l-.6-.3a8.8 8.8 0 0 1-1.2-.9 10.3 10.3 0 0 1-1.9-1.9c-.4-.6-.7-1.3-.8-1.8 0-.5.1-.9.3-1.3.3-.5.7-.6 1.1-.9h.6l.1.5v1.2l-.2.4-.3.8c-.5 1-1.1 2.3-2.7 3.4a5.5 5.5 0 0 1-4.3.5A108.4 108.4 0 0 0 339 469h.4l-12 .8h-14.9l-1 .2h-.8l-2-.4c-.7-.1-1.7-.2-2.5 0-1 0-1.8.5-2.5 1.1l1.2-.5c-1 .5-1.8 1.3-2.5 2l-2 2.2a35.6 35.6 0 0 1-3.8 3.5l-4.7 3.4-6.1 4.3c-2.4 1.5-7.3 4.8-13.2 7-3 1-6.2 1.7-9.3 2-3 .4-6 .4-8.5.5-5.1-.2-9.6-.6-13.7-.7-4.1-.2-7.9 0-11.5.5l-2.6.5-2.6.6a106 106 0 0 0-5.2 1.8l-11.3 4.3c-5 1.8-9.1 3.6-12.4 4.8a12.6 12.6 0 0 1-6.7 1h1.9l-4-.5-.4.2a34 34 0 0 1-9.5-2.7c-.5-.2-1-.5-1.4-.9l-.6-.5c-.1-.2-.2-.4-.1-.5v.1l.8-.5.9-.3c.6-.1 1.2-.2 1.7 0l.7.5c.2.2.4.3.5.6l.4.6.3.7a7 7 0 0 1 .6 3.4c0 .6-.2 1-.3 1.7-.2.7-.4 1.4-.1 2 .2.7 1 1 1.7.9a8 8 0 0 0 1.9-.3l3.5-1.2-2.7.8c-1 .3-1.9.5-2.8.5-.5 0-1-.1-1.3-.6-.2-.4-.2-1 0-1.4l.3-1.5.2-.7v-.8.4c0-1.1-.1-3-1.2-4.5a3.2 3.2 0 0 0-2.5-1.5c-1 0-2 .5-2.8 1-.1.3 0 .6.2.8l.7.6 1.5.9a26 26 0 0 0-2.1-1.2c1.2 1 2 1.3 2.3 1.5.3.2.2.1-.1 0-.7-.3-2.3-1-2.9-2-.1-.2 0-.6 0-.8h.1c1.3-1 2.6-1.4 3.8-1a4 4 0 0 1 2.2 1.6 8 8 0 0 1 1.2 3.4c0 .9 0 1.9-.3 3-.2.6-.3 1-.2 1.7 0 .3.4.5.7.5h1.2a33 33 0 0 0 4.5-1c1.4-.5 3.3-.7 5.4-1l1.6-.3a9 9 0 0 1 1.8-.1c1.2 0 2.3.2 3.4.3a71.2 71.2 0 0 0 5.7.7c1.5.3 2.5.6 2.7.5l1 .4c-.8-.5-2.7-1.4-5.6-2l-4.6-1c-1 0-1.8-.3-3-.3h-1.6l-1.6.2Z"/><path d="m407.6 417.3-1.6-.8-1.5-.6-2.9-1.2-5.2-2.2a521.7 521.7 0 0 0-32.3-13.9 119 119 0 0 0-12.7-4l-11.7-2.9-2.6-.8-2.7-.8c-1-.3-2.1-.5-3.3-.3-1.1.2-2.2.8-3 1.4-1.6 1.4-2.6 3.1-3.5 4.7l-2.8 4.7-5.8 10 1.1.2v.1h.2l.1-.1h.2l.2-.1h.2v-.2a55.4 55.4 0 0 1 2.3-6.9l5.2-11.1c1.8-4.2 3.7-8.6 4.8-13a40.8 40.8 0 0 0 .4-17.2 28 28 0 0 0-.7-3.3c-.4-1.4-.4-.9 0 2.3l-1-6.3-.8-3.4a82 82 0 0 0-2-8.1l1 3c-.7-3-1.5-6.5-2.7-10.5l-1.5-4.4a134.5 134.5 0 0 1-3.2-30c0 8-.3-3.8-.5-2.9V292c-.3-10.6-1.4-20.3-1.1-26.3l-.3-3.8c0-1.7 0-3.3-.2-4.8 0-1.5-.2-3-.3-4.4l-.3-4.3-.1-2.2-.4-2.3-.4-.8c-.5-2-1.6-4.6-2.9-7l-3.4-6.4c-1.3-2.3-2.7-4.7-4-7.4-1.1-2.6-2.2-5.3-3.6-8a8.3 8.3 0 0 0-.6-1c0-.2-.2-.4-.4-.5h-.3l-.2.2v.3c-.2.8 0 1.5 0 2.3.1 1.5.6 3 1 4.3 1.1 2.8 3 5 5.4 6.4 2.3 1.5 4 2 5.1 2.4l2.6.7c1.4.4 2.6.7 7.2 2.5l5 1.8c1.8.6 3.8 1 5.7 1.4l9.3 2.1c-4.3-.9-6.7-1.3-9.2-1.7-2.4-.5-5-.8-9.3-2.5 1.6.7-2-.7-5-1.8-3.1-1.2-5.7-2-1.9-.5 4.1 1.4 8.4 3.4 13 4.4l14.2 3.1 26.5 5.7c-.6 0 4.2 1.3 10.2 2.2 3 .4 6.3.6 9.3.5 3-.1 5.6-.6 7.3-1h.4a41 41 0 0 0 8.3-3c2.8-1.2 6-3 10-5.7 4.7-3.3 9.2-6.8 13.7-10s9.1-5.7 13.1-8.5c3-2 6-4.5 8.5-7.3a58.7 58.7 0 0 0 3.6-4.2l3.3-4a8.3 8.3 0 0 1 4-2.5c1.4-.5 3-.5 4.2-.5 2.7.2 5 .6 6.4.8a42 42 0 0 0-6.4-1.1H463c-1 .2-2.1.5-3 1-2 1.2-3.3 2.9-4.6 4.5a62.6 62.6 0 0 1-21 17.7c5.1-3.2 7.7-5 10-6.9 2.1-1.8 4-3.5 7-7a55.5 55.5 0 0 1-3.5 3.4 56 56 0 0 0 3-3.6 59 59 0 0 1-9.4 8.1l3-2.1c.5-.4.5-.3.3-.1l-2.6 2.4c-2 1.4-4 2.8-6.2 4 1.5-.8 5.4-3.2 1-.2-2.7 1.6-6 3.9-8.8 5.8l4.8-3.8c-7.6 5.4-13.3 9.4-20.8 14.4l-2.5 1.1c-1.2.8-2.5 1.4-3.7 2-1.3.6-2.5 1.3-3.8 1.7l.8-.4c-3 1.2-6.3 2.1-9.5 2.5-2.6.4-4.2.4-5.2.5l-2 .1c-4.1-.1-8.2-.8-9.9-1.2l5 .6a77.8 77.8 0 0 1-5.4-.9l-4-.7c-10.2-2.2-7.2-1.6-13.6-3.1-6.6-1.4-14.6-3.4-15-3.2l-9.2-2.1-4.5-1-4.3-1.4c-2.9-1-5.8-2.3-8.7-3.4-3-1-5.8-1.9-8-3.2a11 11 0 0 1-3.5-2.7c-1-1.2-1.5-2.5-1.9-3.8 0-.4-.2-.7-.3-1 0-.4 0-.7-.2-1v-.9l-.2-1v-1h-.1a5 5 0 0 1-.4-.2h-.4l-.4-.2-.2-.1-.8 1h-.2v.1l.1.3.4.8 1.6 3.4c1 2.4 2 4.8 3.4 7.4l4.8 8.3-.7-1a57 57 0 0 1 3.7 6.8c1 2.4 1.5 4.5 1.7 6.5l.6 6 .2 3 .2 3.3.2 8.1a303.4 303.4 0 0 0 1.7 24.1c.4 6.6.2 14.9.5 20.8l-.3-3.9v5c.4 4.3.6 6.6 1 9.1.4 2.6.9 5.5 2.3 11 1.9 7.3 3 10.3 3.6 12.4.8 2 1.2 2.9 2.1 6 1 4.7 2 9.5 2.1 14.2v-.3c.6 4.2.5 5.9.3 9-.3 1.5-.4 3.4-1.2 6-.8 2.7-2.1 6.1-4.1 10.8l.6-.8-3.6 7.8-4 9.2-.5 1.7c-.1.3-.3.6-.3 1v1.1l.6.3h.1l.2-.2 5.4-9 2.8-4.9c1-1.6 1.7-3 2.7-4.2.6-.6 1.3-1.2 2-1.5.8-.3 1.7-.4 2.5-.3 1.6.2 3 .9 4.6 1.3 3 .9 5.7 1.5 8.4 2 5.3 1.2 10.4 2.2 16.7 4.6a587 587 0 0 1 13.9 6.1l-1.3-.6 2.5 1.6.4-.1c4.4 2 10.7 4.8 14.4 6.7l10.4 4.1c-2.6-1-5.3-2.3-8-3.6l.2.2-12.2-5.5 3.8 1.6c-4.2-2-.7-.5.5 0 8.4 3.9 6.3 2.6 12.7 5.4l3.2 1.6a137.9 137.9 0 0 1 3.7 1.8l4.4 2.5c2.9 1.7 5.4 3.1 5.6 3l.7.5c-1-1.1-4.7-4-9.8-7.4Z"/><path d="M484.2 199.6c3-.8 6.1-1 9.2-1.6a28.3 28.3 0 0 0 8.6-3c1.6-1 3.1-2 4.5-3.3a9.8 9.8 0 0 0 3-5c.5-1.7.5-3.5.2-5.2s-.7-3.2-1.3-4.7a38.2 38.2 0 0 0-4.3-7.7c-1.6-2.3-3.4-4.4-5-6.5l-.7-.7-.5-.8-1-1.7-2-3.6-.2-.5-.2-.3-.2-.3-.3-.3a1.5 1.5 0 0 0-.8-.2c-.3 0-.5 0-.8.2-.3.2-.6.6-.7 1v.5l.1.3v.2l.2.4.3.5 1.2 2 2.6 3.6 2.6 3.7c.5.6 1 1.2 1.3 1.8l1.4 2.2c1 1.4 2.2 2.6 3 3.9 1 1.3 1.5 2.8 1.9 4.5.6 3 .4 6-.4 8.7-.2.6-.4 1-.8 1.4-.4.5-1 1-1.6 1.4l-.4.3a2.9 2.9 0 0 1-2.6.7 2 2 0 0 1-.6-.2l-.6-.5-.7-.7-.4-.5-.4-.3-3-2.9-1-1.5-.5-1-.3-.5c0-.1-.1-.3 0-.4 0-.1 0-.2.2-.3l1.4-.8 7-4.3.6-.4.6-.6.2-.2v-.2l.1-.4c0-.3 0-.6-.2-.8l-.8-.5h-.4c-.4 0-.4.1-.6.2l-.5.2-2 1a41 41 0 0 0-3.6 2.4l-.5.4-.4.3-.8.6c-.5.4-1 .7-1.6.9-1.2.4-2.2.4-3-.2a3.3 3.3 0 0 1-1.2-3c0-1 .6-2.3 1.5-3.3.5-.7 1.4-1.6 2.8-2.5 1.3-.9 3.2-2 5.2-3v-.1l.3-.3c.1 0 .2 0 .3-.3a.7.7 0 0 0 .1-.3v-.6a1 1 0 0 0-.4-.5h-.3c-.5-.2-.5-.1-.7-.1h-.3a11 11 0 0 0-3.4 1.5l-.2.2-.5.4-.8.7a36.1 36.1 0 0 0-3.3 3.4c-.5.6-1 1.2-1.5 1.5-1 .7-2.4.4-3.2-.6-.5-.5-.7-1.1-.8-1.8a5 5 0 0 1 .1-2.1c.5-1.5 1.4-2.9 2.4-4 2.2-2.5 5.2-4 8.2-4.6H493.3l.5-.3.1-.2c.2 0 .2-.2.3-.3 0 0 .2-.5.1-.8a1 1 0 0 0 0-.4c-.2 0-.2-.2-.3-.3-.5-.3-.7-.3-.9-.3H491a13.8 13.8 0 0 0-6.6 4.6 8 8 0 0 1-1.4 1.5c-.5.3-1 .4-1.4.4-.7 0-1.3-1.2-1.4-2.2a5 5 0 0 1 1.2-3.6l1.5-1.4c.7-.6 1-1.5.8-2.3 0-.4-.3-.7-.5-1l-.6-.6-.8-1-1.3-1.5v-.1h-.1l-.4-.3H479.3c-.3.2-.2.5-.2.5v.3l.2.1.2.2-.1-.2-.1-.2a.5.5 0 0 1-.1-.3l.1-.2.3-.2h.1l.2.1.4.3a87 87 0 0 0 0 .1l-.5-.3h-.2s-.2 0-.2.2v.3l.2.2.6.6a27.8 27.8 0 0 0 3 2.3c.7.4 1.4.8 2 .8a7.2 7.2 0 0 0 5.7-1.9c.3-.3.8-.8 1-1.5.1-.6 0-1.3-.5-1.9-.4-.6-1-1-1.6-1.4-1.3-.8-2.7-1.8-4.8-2.8 1.6.6 3 1.4 4.5 2.3-2-1.4-4.2-2.9-7-3.6a11 11 0 0 0-4.5-.3c-1.6.3-3.3 1-4.5 2.3-1 1-1.6 2-2.2 2.9l-2 2.9a584 584 0 0 0-7.2 9.3c-1.1 1.5-2.1 2.8-3.5 3.8a68.3 68.3 0 0 1-14.2 6.7c-3.6 1.1-7.5 2.4-11.9 4l3-1 1-.3-2.1.9c-2.6 1-6.3 2.7-5.6 2.5-1.4.5-4.6 2-7 3.1-2.5 1.2-4.1 2-2.4 1-7.1 3.6-13.7 7.4-19.6 10.6a103.8 103.8 0 0 1-20.9 9.1 22.9 22.9 0 0 1-13.4-.8l-6-2.3-6.2-2.6-1.2-.3a530 530 0 0 1-55.9-25.6c-3.8-2-7.7-4-11.5-5.4a29.6 29.6 0 0 0-8.3-1.9h-4l-3.6.6a77 77 0 0 0-15 4.3l-2 .7c-.6.4-1.2.8-2 1.1-1.3.8-3 1.1-4.5 1.1a4 4 0 0 1-2.4-.6c-.7-.4-1.2-1-1.6-1.6l-1.3-1.7c-.4-.6-.6-1.4-.5-2.1 0-1.4.6-2.5 1.2-3.4a13 13 0 0 1 1.6-2.1c-1.1 1.2-2 2.5-2.4 3.8l-.3 2c0 .7.3 1.3.7 1.8.6 1 1.2 1.8 2 2.5a4 4 0 0 0 2.7 1.1c1 0 2-.1 3-.4 1-.3 1.9-.8 2.8-1.4 1-.6 2.2-1 3.5-1.5l4.3-1.6c-2.5.8 3-1.2 7.8-2.2 2.4-.5 4.7-.6 5.5-.7.9 0 .4-.2-2.7 0a55.2 55.2 0 0 0-14.3 4c-1.6.6-3.3 1.2-4.7 2.1-.8.4-1.6.8-2.4 1-.8.3-1.6.3-2.5.3-.9.1-1.7-.2-2.3-.7-.7-.6-1.3-1.2-1.8-2-.5-.7-1-1.4-1-2.2 0-.9.2-1.7.5-2.5.7-1.6 1.8-3 3-4.2l7.3-7.5c2.4-2.5 4.7-5 7.2-7.3a14 14 0 0 0 2.7-4.1l1-2.3c0-.4.2-.7.3-1.1l.2-1.2c.3-.8.4-1.6.4-2.3l.2-2.4.3-4.5.1-2.4.2-.7c0-.8.3-1.9.3-3.3.2-3-.6-7.2-2.7-11.2-.5-1-1.1-2.2-2.2-2.8a4.8 4.8 0 0 0-3.6-.2c-1.2.4-2.3 1-3 2a4 4 0 0 0-.7 3.3c.2 1.1.6 2.2 1 3.1.3 1 .7 2 .7 2.8 0 .4-.3.8-.6 1-.4.3-.7.5-1.1.5-.8.2-1.6.2-2.2.2l-.6-.2c-1.1-.2-2-.7-2.6-1.5-.6-.9-.9-2-.9-3 0-2 .4-4.1 1.3-6.2a9.7 9.7 0 0 1 4.9-5.3c1.2-.6 2.6-1.1 4.1-1.5 1.5-.4 3.2-.3 4.9.3 1 .4 1.9 1 2.7 1.7.9.6 1.4 1.5 1.8 2.5.8 2 1.4 4 1.8 6.1l.6 3.1a55.3 55.3 0 0 1-1.2 15.4c-.5 2-1.1 3.9-1.8 5.7-.8 1.8-1.7 3.5-3 4.8a6.2 6.2 0 0 1-7 1l-1.7-1.5a5.5 5.5 0 0 0-2.2-1 10 10 0 0 0-2.4-.4 4.8 4.8 0 0 0-4.2 2.4c-.4.8-.7 1.6-.7 2.5-.1.9.3 1.8.8 2.4a8 8 0 0 0 4.1 2.5l2.4.3a16.5 16.5 0 0 0 10.6-2.4c1-.4 2-1.1 2.8-1.7l1.2-.8 1.3-.8 2.4-1.5 2.1-1.7 3.6-3c1.2-.7 2.1-1.5 2.8-2.2-1.2 1.2-2.7 2-4 3l-4 3-1 .8-1 .6-2.3 1.3c-1.4.8-2.7 1.9-4.1 2.5h-.1l-1.6.8-.4.2-.3.2-.8.3a15.1 15.1 0 0 1-6.7.8c-1.1 0-2.2-.2-3.2-.5-1-.4-2-1-2.8-1.6-.7-.8-1.3-1.7-1.1-2.8.1-1 .6-2 1.3-2.7a4 4 0 0 1 2.7-1.2c1 0 2 .2 3 .5s1.7 1 2.4 1.6a4.8 4.8 0 0 0 3 1.3c1 0 2 0 3-.3 2-.6 3.5-2.3 4.5-4a28.7 28.7 0 0 0-.2.6 8.5 8.5 0 0 1-3.8 3.5c-1.5.6-3 .6-4.2.4-.7-.1-1.3-.4-1.9-.7l-1.3-1.1c-.8-.7-1.6-1-2.6-1.2-1-.2-2-.2-3 .1-.9.3-1.7 1.1-2 2.3-.3.5-.4 1.2-.3 1.7.1.5.5 1 1 1.6l-.8-1.2c-.2-.4-.2-.8 0-1.3.1-1 .7-1.9 1.5-2.4-.6.5-1 1.1-1.3 2l-.2 1 .3.9c-.2-.5-.1-.5 0-.4 0 .2.3.5.8 1 .8.7 2.3 1.2 2 1l-1.9-1.2c-.4-.5-.7-1-.7-1.3 0-.5.2-1.2.5-1.7s.8-.9 1.3-1.1c.5-.2 1.2-.3 1.9-.2a23.3 23.3 0 0 1 2 .5c.6.3 1 .8 2 1.6.4.3 1 .7 1.6.9l1.7.3c-.8 0-1.7-.3-2.5-.7-.7-.4-1.2-.9-1.5-1.2a6 6 0 0 0-1.2-1l-.3-.2c.4 0 .9.3 1.7 1l1.5 1c.6.3 1.2.5 1.7.5 1.1.2 2.2.1 3.3 0a8 8 0 0 0 3-1.5 13 13 0 0 0 2.2-2.7l-.8 1.1a28 28 0 0 1-1 1c.3-.4 1.3-1.3 2.2-3.2a40.2 40.2 0 0 0 4-15.4 50.4 50.4 0 0 1-.4 4.6 36.6 36.6 0 0 1 .2-.6 55.9 55.9 0 0 0 .6-11.9l-.1-1.2-.2-1.2-1-4.6c-.5-1.5-1-3-1.9-4.7l-.5-.6-.5-.6a12.2 12.2 0 0 0-3.4-2.2c-1.8-.7-3.9-1-5.8-.5a21.4 21.4 0 0 0-4.5 1 11.2 11.2 0 0 0-5.6 5 18 18 0 0 0-2.2 6.9l.2-1.7c-.3 1.4-.5 3-.3 4.6.1.8.4 1.6.8 2.4.4.8 1.1 1.6 2 2.2 1.6 1 3.4 1.1 5 1 .7 0 1.5-.1 2.7-.8 1.1-.6 1.8-1.9 1.7-3.2 0-1-.2-1.5-.3-2l-.5-1.4c-.3-.8-.6-1.4-.7-2-.3-1-.3-1.6-.2-1.9.2-.6.6-1 1-1.4l1.7-.6 1.5.1c.4.2.6.4 1 .9.3.5.6 1 .8 1.7l.5.9.3.7a19.6 19.6 0 0 1 1.2 3.9l-1.1-3.4-.8-1.5-.8-1.6.7 1.5.4.8.2.7 1 3-.2-1a18.2 18.2 0 0 1 .7 3.7l.1 1.8v2.4l-.3 4.3v-.2a495.1 495.1 0 0 0-.4 5.9l-.2 1.7-.3 1.2c0 .5-.2 1-.3 1.4l-.4 1-.8 1.9-.5 1-.7 1.1c-.6 1-1.2 1.6-2.2 2.5l-2.9 2.9-5 5.3a76.2 76.2 0 0 0-8 8.7c-.6 1.1-1.3 2.3-1.6 3.9-.1.8-.1 1.7.2 2.6l.3.6c0 .3.2.5.3.6l.5.8c.8 1 1.5 2.1 3.1 3 .9.4 1.9.6 2.6.5l2-.1c1.5-.2 2.9-.9 4-1.5l1.4-.7 1.5-.6 3.3-1.2c4.3-1.6 8.7-2.7 13.1-3.1 4.4-.4 8.6 0 12.6 1.4 2.3.7 4.6 1.7 7 2.8 4.4 2.3 8.3 4.7 12 6.7a503.2 503.2 0 0 0 34.7 16l-1.6-.6c3.6 1.5 7.3 3 11 4.3l10 4c3 1.2 5.6 2.3 8.6 3.3 2.9 1 6.1 1.7 9.9 1.5 3.7-.2 7.8-1.3 12.2-3.1a103.1 103.1 0 0 0 12.1-6c3.4-1.7 6.3-3.3 8.7-4.7l11.2-6.5a133 133 0 0 1 14.5-6.6c5-2 10.1-3.4 14.3-4.9l-5.4 2c2.3-.7 4.7-1.4 7-2.3 3.1-1.1 5.4-2.2 7.3-3.2 1.9-1.1 3.5-2.1 5-3.7l2-2.5 2.1-2.8 6-8 2-2.7c.7-.8 1.3-1.5 2-2a7 7 0 0 1 4-1c2.5 0 4.3.8 5.7 1.4l3.4 1.9 1.3.8.4.6c.1.2.2.4.1.7 0 .3-.2.5-.5.9l-1.2 1a6.3 6.3 0 0 1-3.9.7 14.9 14.9 0 0 1-4.4-3l-.4-.5c-.2 0-.3.2-.4.3h-.2v.3l-.2.2v.2l.2.2-.2-.2 1.6 2 .8 1c.1.3.3.5.3.8 0 .2-.1.5-.3.6l-.3.3-.5.4-1 1c-.4.3-.6.8-.9 1.2l.4-.5a6.6 6.6 0 0 0-1 3.5c.1 1 .4 2 1 2.8.2.4.5.8 1 1 .4.2 1 .3 1.4.3.9 0 1.6-.4 2.3-1l1.6-1.7a11.6 11.6 0 0 1 4.4-3.3c.5-.2 1.1-.5 1.6-.5a4.5 4.5 0 0 1 1 0h.1l.1-.2.1-.2h-.1l-.2-.2h-.2.1a16 16 0 0 0-10.5 6.9c-.5.8-1 1.6-1.3 2.6-.3 1-.4 2-.2 3.2l.1-1.5c0 1 .1 2.2.6 3.1.6 1 1.4 1.7 2.3 2 1 .3 2 .3 2.9-.2.8-.4 1.4-1 2-1.7a32.3 32.3 0 0 1 4.5-4.7l.5-.4.6-.3a13.6 13.6 0 0 1 2.4-.8v-.2a.9.9 0 0 1-.1-.1l-.2.1c-1.5 1-3.2 1.8-5 3-.8.4-1.7 1-2.6 1.7a9 9 0 0 0-2.4 3.3c-.6 1.4-.8 3.3.1 5a4.3 4.3 0 0 0 5 2c1.8-.4 3.4-1.7 4.8-2.8a44.6 44.6 0 0 1 5.6-3.3v-.4l-.4-.2-.2.2-.4.3-2.2 1.4-3.9 2.4-1.9 1.1-1 .6c-.3.2-.6.5-.7.9-.3.8.3 1.6.7 2.1l.9 1.8c1.5 2.3 3.6 3.6 5.1 5.3l1.4 1.1c.6.3 1.2.4 1.8.4 1.3 0 2.4-.5 3.2-1.3.8-.7 1.7-1.3 2.4-2.2.3-.4.5-1 .7-1.5l.4-1.5c.4-2 .4-4 .2-6.1-.2-2-.8-4-1.8-6-1-1.8-2.7-3.3-4-5.1l-1.9-3-2-2.9c-1.8-2.4-3.5-4.7-4.7-6.9l-.4-.8v-.3l.2.1.2.4.8 1.5 1.5 2.8 1.4 2.3 1.4 1.7c.8 1 1.3 1.9 1.6 2.4L499 165l2.3 3.8.6.2c2 3 4.4 6.7 5.5 10.8.5 2 .7 4.1.2 6a7.8 7.8 0 0 1-2.6 4.2c-1.9 1.9-4.2 3.4-6.8 4.5-2.5 1-5.3 1.6-8 2 2-.3 4.1-.6 6.3-1.2s4.2-1.5 6.1-2.8l-.4.2c1-.6 2.1-1.4 3.3-2.6a8.4 8.4 0 0 0 2.5-4.7c.3-1.9 0-3.8-.4-5.5a27.4 27.4 0 0 0 .4 1.3l-.7-3a16.8 16.8 0 0 1 1.1 3.8c.2 1.7 0 3.2-.3 4.5a8.7 8.7 0 0 1-1.5 2.9 21.5 21.5 0 0 1-11.3 6.8c-2.3.5-6.9 1-5.2.7-1.6.2-3.8.4-6.1 1-2.4.4-5 1.2-7.5 1.5-2.5.3-4.8.1-6.5.2a31.3 31.3 0 0 0-4.1.4h2.3l4 .4c1.6.2 3.5.3 5.6 0 2 0 4.2-.6 6.4-1Z"/><path d="M273.5 139.3c4.4-3.1 8.3-6.2 11.5-9.3l3-3.2 2.6-3a77.7 77.7 0 0 0 4.5-6.1c2.6-4 4.7-8.2 6.1-12.4 1.5-4.3 2.5-8.7 3.4-13.5l1.3-7.4c.4-2.7 1-5.4 1.3-8.4a39.8 39.8 0 0 0-1.1-15.3c-1.3-4.7-2.8-8.9-4.3-13.1-1.5-4.3-3.3-8.5-5.4-12.6s-4.8-8.3-8.2-12.3c-1.4-1-3.7-3.5-7.1-6.2a73 73 0 0 0-28.6-13.7A81 81 0 0 0 227.8 0c-1.7.2-1.1.2 2.8.3-7 0-9.7.5-12 .7l-3.7.6c-1.5.4-3.5.8-6.3 1.9 1.2-.6 2.5-1 3.8-1.5-3.8 1-8 2.3-12.4 5l-4.8 3.3A280.1 280.1 0 0 0 164.5 31c4-3 3-2.2 1.4-.8a27 27 0 0 0-3.7 3.4c-1 .7-3 2.6-4.7 4l-1.5 1.5a72.1 72.1 0 0 0-16.9 27c-.4 1.5-.8 3-1 4.6-.8 4-1.1 7.6-1.1 11.2 0 3.5.3 7 1.2 10.6l.5 1c.7 2.3 2 5.5 3.6 8.5 1.7 3 3.9 5.5 4.8 7.4.7 1.3 1.2 2.9 1.1 4.5-.1 1.6-.8 3.2-1.7 4.6-1.9 3-4.9 5.3-6.6 8.6a8.5 8.5 0 0 0-1 5.4 5.2 5.2 0 0 0 3.2 4.1c1.7.7 3.6.8 5 2 .6.6 1 1.4 1.5 2a5 5 0 0 0 2.1 1.3c1.2.4 2.4.2 3.3-.1 1-.4 1.6-.9 2-1.3l.8-.7.4-.7.2-1.3c0-.7-.1-1.3-.5-1.9a3.2 3.2 0 0 0-.7-.8l-.3-.1h-.1v-.2c0-.1-.1-.1 0-.1h.1l.1.4v-.1c.4.4 1 1 1.2 2 .1.5.2 1 0 1.6 0 .6-.3 1.2-.7 1.7-.6.8-1.6 1.6-2.8 1.8-1.2.2-2.4.2-3.6.1-1.1 0-2.4 0-3 .6l-.1.7-.2.8-.3 1.7c0 2.3.4 4.6 1.1 6.3.8 1.8 1.8 3 2.6 3.7-1-.8-1.6-1.7-2.1-2.5a14.9 14.9 0 0 1-1.6-9.5c0-.5 0-.9.2-1.3 0-.4.5-.6 1-.7.8-.3 1.8-.3 3-.2 1 0 2.3 0 3.6-.4-.5.2-.6.1-.3 0s.8-.3 1.4-.8c.6-.6 1.2-1.4 1.3-2.5 0-1-.5-2-1.2-2.8-.1-.2-.2-.4-.1-.7 0-.2.2-.3.3-.2h.4l.8.8c.5.6.6 1 .7 1.3 0 .2.1.2 0-.1 0-.4-.2-1.2-1.3-2l-.4-.2c-.1 0-.4-.1-.6.1-.2.3-.2.5-.1.7v.4h.1c.8.9 1.3 1.9 1.2 3-.2 1-1 2-2 2.6a7 7 0 0 1-3.5.5c-1.2 0-2.4-.1-3.7.3-.2 0-.3.2-.4.3h-.3v.3l-.3 1a13 13 0 0 0-.3 5.6c.4 2.5 1.3 5 3.1 6.8.5.5 1 1 1.5 1.3l1.8.7a46.6 46.6 0 0 0 9.2 1.7c.6 0 1.2 0 1.8-.4.3-.1.5-.5.5-.8v-.4l-.2-.1-.4-.2-1.8-.2a43.2 43.2 0 0 0-3.6 0 33.7 33.7 0 0 0-6 .8c-.3 0-.6.3-.6.6a3 3 0 0 0 0 1.8c.2.6.5 1.1.9 1.6.7.9 1.7 1.5 2.7 2.1-.3 0 .3.5 1.8 1.2a17.5 17.5 0 0 0 6.3 1.6V167.8l-.1.6a27.7 27.7 0 0 0-.1 4.9c.2 2.2.8 4.6 2.3 6.3a9.1 9.1 0 0 0 5.4 3c1.9.3 3.6.2 4.8-.1h.6c1.8-.6 3.4-1.3 5-2l2.3-1.4c.7-.5 1.4-1.2 1.8-2.1 1-1.8 1-4 0-6.2s-2.9-4-5.4-5.5c-3.1-1.8-6.5-2.8-9.4-4.6-1.5-.8-2.9-1.9-4-3.2a14 14 0 0 1-2.3-4.4 53.5 53.5 0 0 1 1.3-28.5c.3-.5.4-1 .6-1.6l.3-.8.3-.7.2-.6c0-.2 0-.6.4-.4l.6.1.8.1a20.7 20.7 0 0 0 9.7-1.6c3.8-1.6 6.9-4.2 9.2-6.4 2.4-2.2 4.2-4.3 5.5-5.6-3.8 3.7-7.6 7.4-12 10a23.7 23.7 0 0 1-10.5 3h-1.8l-1-.2-1-.2h-.2v.3l-.3.4-.3 1-.6 1.7a76.2 76.2 0 0 0-2.5 10 70.2 70.2 0 0 0-.7 3.7 69.1 69.1 0 0 1 2.8-14.3l.2-.8.2-.5.2-.6.5-1.3.1-.3h.4l.7.2-1-.3h-.1v.2l-.2.2-.2.5-.7 1.9-1 2.9.7-2.4.2-.6c0-.2 0-.4.2-.7l.7-1.8c-.4.9-.5 1-.4.6l.3-1 .1-.2h1.1c.4.2 1 .3 1.5.3h1.2l-1-.1h-.3l-.5-.1-1-.2-1-.2h-.2v.2l-.2.4-.7 1.9-.3.7-.2.5-.3 1-.7 2.3a57.7 57.7 0 0 0-.8 4l-.5 4.5a58.8 58.8 0 0 0-.5 9.2l.1-3.9v2.8c.1 3.7.5 8.7 2 12.8-1.1-2.4-1.6-4.9-2-7.3.3 2.8.9 5.6 2 8a14.4 14.4 0 0 0 5.2 6.2c4.3 3 9.4 4 13 7.4a8.5 8.5 0 0 1 1.5 2.5c.6 1.2.8 2.6.5 3.8a4.7 4.7 0 0 1-2.4 2.8l.2-.2.2-.1.3-.3a35.9 35.9 0 0 1-7.8 3.2h-2.6a9 9 0 0 1-3.2-1l-1.5-1.2c-.7-.7-1-1.1-1.2-1.5-.8-1.6-1-3.5-1-5.2l.1-2.5.1-1 .1-1 .2-1.8-3-.1h3v2l-.2 1a17.6 17.6 0 0 0 0 3v-2l.2-1v-1l.3-2.2H163h1.8-3.5c-1.6-.3-3.7-1.1-4.3-1.4-2-1-3.2-2-3.7-2.8l-.3-1v-.1h.2a12 12 0 0 1 1.4-.2 37.3 37.3 0 0 1 8.2 0h.2s0 .1 0 0v-.3l.3-.6.4-.6c-.6.2 1.6-.3-1.4.4l.3-.1h.4a.3.3 0 0 1-.1-.1l-.2-.2-.1-.3-.2-.2-.9.1h-1.3l-2.6-.5c-3.3-.7-5.9-1.6-5.8-1.5l-.5-.3-.6-.6a9.5 9.5 0 0 1-1-1.2c-.6-1-1-2-1.4-3a12.8 12.8 0 0 1-.4-3.5v-1.7l.2-.9.2-.6.1-.1c.4 0 1-.1 1.6 0 1.2 0 2.7.1 4.5-.4.9-.2 1.8-.7 2.5-1.4a6 6 0 0 0 1.5-2.4 5 5 0 0 0 0-3.1 6 6 0 0 0-.6-1.3 5.4 5.4 0 0 0-.4-.6l-.2-.2-.1-.2.2.5h-.2l-.8.2h-.6c-.1 0 0 0 0 0l-.4 1.1-.2.4c.2.1.4.4.4.7.2.5.2 1-.1 1.6-.1.1 0 0 0 0l-.2.2-.5.5-1 .7c-.7.3-1.4.4-2 .3-.4 0-.7-.1-1-.3-.3 0-.7-.3-.8-.5a5 5 0 0 1-.8-.9c-.3-.4-.8-1.1-1.4-1.6-1.2-.9-2.5-1.2-3.4-1.5-1-.3-1.7-.5-2.1-.8-1-.7-1.4-2-1.4-3.2-.1-2.6 1.6-4.9 3.6-7.2 2-2.2 4.5-4.7 5.5-8.7a9.1 9.1 0 0 0-.8-6.4c-1-2-2.3-3.6-3.5-5.4l.8 1c-1.9-2.4-3.5-5-4.7-7.8a41.8 41.8 0 0 1-3-15 46.4 46.4 0 0 1 2.7-16.9c2.7-7.5 6-12.5 8.6-16.2 2.6-3.7 4.6-6.1 6.3-8.2 2.6-3 6-6 9.3-8.7a154 154 0 0 1 6.2-4.5l5-3.3c4.2-2.9 6.5-4.3 9.1-6l11.4-7a779.8 779.8 0 0 0 5-3l3.9-1.9 1.5-.7 1.3-.5 2-.8c1.2-.4 2-.8 3.2-1.1a47 47 0 0 1 1.7-.6l2.5-.5a72 72 0 0 1 17.4-.2l-.4-.1A54.9 54.9 0 0 1 246.2 3a90.2 90.2 0 0 1 20.5 6.6l-.9-.6c3.7 1.8 6.3 3.2 9.1 4.9a53.2 53.2 0 0 1 17.9 18.2c3 5 5.4 10.9 7 15.1 3 8.9 5.6 15.5 6 22.1.3 3.3 0 6.5-.4 10-.5 3.3-1 6.9-1.8 10.8-1 4.8-2 8.8-2.9 11.9-1 3-1.8 5-2.3 5.8l.6-1.6a43.6 43.6 0 0 1-1.8 3.1l.1.5a64.1 64.1 0 0 1-11 15.5 53.2 53.2 0 0 1-9.8 9.4c2.7-2 5.7-4.2 8.2-6.9l-.3.2a115.5 115.5 0 0 0 10-12.6 73.6 73.6 0 0 1-2.7 4c3.3-4.5.7-.6-.2.7-3.5 4.5-4.9 6-6 7.3a32 32 0 0 1-5.3 5.2 231.3 231.3 0 0 1-12.6 9c-3.4 2.2-6.3 4-6.4 4.3l-.8.5c1.7-.5 6.8-3.2 13.1-7Z"/></svg>