<svg xmlns="http://www.w3.org/2000/svg" viewBox="0 0 1418 2698"><path d="M1015 173.7c2.3 1.3 15-2.2 30.2-9.5a126.2 126.2 0 0 0 33.5-23.5c-3-3.7-4.8-4.1-6.3-4.5-17.3-4.2-39.9 14-50.9 27.2-6 7.2-6.5 9.6-6.4 10.3zm-610-31.4v.7c0 4 7 14.6 70.1 26.5 13.6 2.6 27.5 4.8 40.2 6.6-32.5-26.7-61-38-92-36.4a104 104 0 0 0-18.3 2.6zM616.6 186c13 .5 26.7.4 41.9-.4a629 629 0 0 0 122.4-19.4c35.4-9.4 61.8-20.4 68.7-28.6 1-1.3 1.6-2.3 1.5-3.2-.1-1-1.5-2.5-3.7-3.9-16.4-10.2-82.9-17.9-146 4.5-28.1 10-67.9 30-84.8 51zm665.7-126.9c-5.3 0-9.4 1.3-12.5 3.8-14.7 12.2-1.5 52.6 4.8 72 8.8 27 21.8 48.7 26.8 52.5-.1-2.2-1.1-6.4-2-10.2-3.6-15-10.3-42.9-3-75.4 1.8-7.8 3.9-13.6 5.7-18.7 2.4-7 4.2-12 3.8-18.4a67 67 0 0 0-23.6-5.6zM1239 344.4l4.9 1.6c5.1 1.6 10.3 3.3 15.8 4.6 18.9-18.3 26.3-42.9 30.8-57.6a148 148 0 0 0-7.2-110.1c-1-2-10.2-20.2-27-38.3-21.8-23.2-46.3-36.3-73-39a134 134 0 0 0-58.2 8.3c-.5 12.7.5 26.2 1.7 42.3 1.4 19.3 5.4 44.1 16.4 53 7 5.5 13.3 5.9 22 6.4 4.8.2 10 .5 16.2 1.7 18.1 3.5 38 13.4 53.1 26.6 17.2 15 27 33 27.6 50.4.6 18.6-9.5 36.4-23 50.1zm26.6 7.4c6 1 12.5 1.4 19.7.8 39.2-3.5 66.6-36.7 83-56.4 17.4-21.1 53.6-65 42.8-122.6-10.6-56.5-59.2-84.5-77.5-95-8.2-4.8-15.8-8.7-22.7-11.7 0 6.2-1.8 11.4-4.1 18-1.8 5-3.8 10.6-5.5 18-7 31.5-.8 57.6 3 73.2 2.3 10.1 3.6 15.2-.6 16.7-.7.3-2 .4-3.6-.4-7.6-3.7-21.7-29.8-30.2-55.9-7.2-22-20.6-63-3.3-77.3 9.3-7.7 24.3-5.3 38.4-.1-5.6-23-30-35.6-40.6-41.1-8.9-4.6-36-18.7-66.8-10.5-41.6 11.1-58.7 53.8-64.4 67.9-4.5 11.4-6.8 22-7.7 33a140 140 0 0 1 58.3-7.8c66.1 6.7 100.3 72.6 104 80 16.8 34.2 19.4 74.6 7.5 113.9-4.4 14.5-11.7 38.5-29.7 57.3zm-50.5-6.9c-5.2 0-10.7 1-16.6 3.2-11 4.2-15.4 9.8-21.3 17.7l-3.1 4a55 55 0 0 1 4-.7c7-1 20-2.9 33.6-10.2 5-2.7 11.1-6.8 17.4-12.1a58.3 58.3 0 0 0-14-1.9zm-32.9 28.7c11.9 2 36 2.7 58.9-9.4a79.5 79.5 0 0 0 14.2-9.6c-4.6-1.1-8.9-2.5-13-3.9l-7.4-2.3a98 98 0 0 1-52.7 25.2zm-651-190.3c28.3 25.6 58.9 60.7 96.3 103.8 30.7 35.2 53.6 62.1 69 88 17.9 29.8 23.3 54.5 17 77.7a69.3 69.3 0 0 1-1.1 3.9c44.2-14.6 84-31.2 111.7-42.8a971.5 971.5 0 0 0 153.5-81.3c37.1-24.3 56.5-41.3 61.3-47.5-4.4 1.2-13.9 5.3-24.5 9.8-24.9 10.7-66.5 28.5-122.6 45.7-84.4 25.8-169.6 39.8-178.4 34.8a3.3 3.3 0 0 1-1.7-2c-1-4 3-5.2 20.2-10.8 20.5-6.7 54.8-17.9 93.5-38.6 82.3-44 143.2-110.3 147.6-130.3.3-1.5.2-2.3 0-2.5-2.1-1.3-15.3 6.5-26 12.8-33.3 19.9-95.3 56.7-177.3 60.2-36 1.6-76.6-3.4-108.4-13.4-35-10.9-55.5-26-57.6-42.7-.8-5.9.7-11.7 3.8-17.4a1220.5 1220.5 0 0 1-76.3-7.5zM286 534c4 1.8 9 5 11.1 10.8 2.7 7 .2 14.3-3.7 20.1l4.3-1.7c9.3-3.7 15.8-7 22-10.4 8.4-4.4 17-9 32.1-14.1a267.7 267.7 0 0 1 9.1-3l-7-1.4a224 224 0 0 0-11.3-1.5 216 216 0 0 0-24.4-1c-7.6.1-18.8.2-32.2 2.2zm-38.4 42.2c2.8 0 6.1-.2 10-.5 8.5-1.2 17.6-4 25.9-7 5.4-4.7 12-14.1 9-22-2.5-6.4-10-9-12.3-9.6-4.6-1.2-7.9-.3-17.6 2.4l-2.8.7a816 816 0 0 1-5.4 1.5l-3.2 1.4c-3.5 1.6-6.6 3-13.6 4.2l-2.7.4c.2 1.7-1 3.2-2 4.3-1 1.3-2.4 2.9-3 5-1.3 5 1.5 11.3 5.2 15 3.2 2.6 7.5 4 12.5 4.2zm479.7 14.4c2.6 1.3 11.5 3.3 29.5 3.1 13.5-.1 133.7-3.8 196.9-82.9a140 140 0 0 0 23.3-42.5c5.6-14.8 10.4-27.5 29.2-40.6 24.1-16.9 49-18.8 73-20.6 8.9-.7 17.6-1.4 26.3-2.8.4-31.6-6.1-60.6-15.1-73.6-3-4.2-6-6.7-9.2-7.1-7.2-1.2-14.6 9.2-23.9 22.3l-7.7 10.7c-15.8 21.2-24.6 27.4-57.7 50.6a3387.7 3387.7 0 0 0-106.7 77.9 5622 5622 0 0 0-36.2 27.6 629.8 629.8 0 0 1-72 50.5c-17.7 10.5-30.2 17-38.5 21.2-5 2.6-9.5 4.9-11.2 6.2zM79.7 896c6.3 0 14.8 1.5 26.8 6.3a136.4 136.4 0 0 1 29 16l-4.7-5.6c-8.1-9.7-20.4-24.3-34-43.3v-.1c-8-11.2-17.1-22-27-32-10.1-10.1-17.2-15.6-23-17.3l-2.1 2.4a50.6 50.6 0 0 0-8.6 11.7c-8.3 15.8-10.4 30.6-5.9 41.9 2 5 4.9 8 7.6 10.9 3.5 3.7 7.1 7.5 8.2 15 .7 4.6.2 8.8-.6 12.5 2.2-2.7 5-5.7 8.6-8.4 6.3-5 11.9-7.3 15.5-8.5 2.5-.8 5.8-1.5 10.2-1.5zm-41.1 38.3c.3 3 0 6-1.5 8.8-1.4 2.6-3.2 4-5 5.3-1.9 1.3-3.9 2.8-6.2 6-1.8 2.4-5.9 8-5.8 15.2 0 8.6 5.7 18 11.5 18.8 3.1.5 5.4-1.7 9.8-6.4 3.2-3.4 7.2-7.7 13-11.8 8.2-5.8 13.9-6.9 21.7-8.4 5.5-1.1 12.3-2.5 22.3-6 21.8-7.4 39.2-17.8 42.5-21.8-2-.3-6.4 0-10.4.2l-5.2.2c-22.4 1-36-1-47-2.7-12.4-1.8-20.6-3-34.4 1l-5.3 1.6zm355.5-405c22 0 39.6 10.6 59.5 22.5 20.2 12.2 43.1 26 76.6 32.8 12.5 2.6 22.4 3.4 31.1 4C576.8 590 588 591 599 602c17.6 17.8 22.8 49.3 10.7 64.8-9.8 12.7-28.7 12.9-35.8 13h-.6c-65.3.8-177.6 40-231 80.4-34.7 26.4-53.4 70.9-90.6 159.5-38.7 92-82.5 196.1-45.6 231.2 3.9 3.6 10.3 9.8 122.5-.7 126.5-11.8 159.3-23.4 173.4-28.4 41.7-14.7 64.6-22.8 89.2-43 47.1-39 67.3-94.7 82.1-135.5 11-30.5 18.4-50.7 32.1-49.6 5.6.5 8.5 4.4 11.6 8.5 3.3 4.4 7 9.5 15.5 12.6 13.9 5 25.8-.6 52-12.8l14.2-6.5c27.5-12.6 43.3-18.3 53.7-22a90.8 90.8 0 0 0 29.8-15.3 185 185 0 0 0 45.8-51.8c14.9-23.5 60.8-103.2 28.7-144-15.6-19.9-44.9-24.9-56.8-26.1a71 71 0 0 0-27.4 2.4c-5 1.2-10.8 2.5-18.5 3.5-32.2 4.2-56-3.3-75-9.3-17.1-5.3-29.4-9.2-39.3-1.6-6.2 4.7-6.8 10.5-7.7 19.1-.8 7.3-1.8 16.4-6.5 27.8-16.7 41.3-62.6 67.5-88.3 72.3-6 1-14 1.5-17.8-2.5-5.2-5.6.8-14.3 9.8-27.5 13.7-20 34.5-50 36-92.8.7-18-2.4-28.7-5.3-39-3.3-11.4-6.4-22.1-3.6-40.8 4.2-28.4 17-43.6 29.6-58.2 6.7-8 13-15.5 17.8-24.8-21.4 6.8-43.6 13-65.8 17.8a406.8 406.8 0 0 1-85.3 10.2c-45.8 0-81.6-11-107-33.2-5.3-4.5-10.5-10-16-15.6-18.6-19.2-39.7-41-74.4-46.1-25.6-3.8-49.1 2.8-61.8 6.3-8 2.3-11 3.1-11.9 0-.2-.7-.2-1.7.6-2.9 3.3-4.7 27.7-16.6 55.6-18.4 20.1-1.3 42.6 3.6 68.8 14.9a263 263 0 0 1 55.6 32.4 632.4 632.4 0 0 0-89.5-69.6 68.1 68.1 0 0 0-32.2-11c-8.3-.5-14.3 1-38 9.8-26 9.6-51 19.6-73.3 36-4.1 3-8.8 6.9-12 13.1-2.7 5.6-2.6 9.9-2.6 17.8v10.5c-.4 10.6-1.4 18.4-2.1 23.5l-.3 1.7 1.6-2.8c3.2-5.8 7.5-13.8 14-21.7 17.4-21.4 41.9-32.4 50.2-32.3 1.8 0 3.2.6 4 1.7 2.5 3.2-1 6.7-8.7 14.2-11.5 11.3-33 32.4-45.3 64.8-10.3 27.5-11.9 47.8-4 54.2 4.5 3.8 10.6 1.8 22.9-2.6 9.4-3.4 22.3-8 39.4-10.6 28.3-4.2 53.8-.6 68.7 2.4l5.9 1c8.3 1.6 9 2.2 9.6 2.8 3.9-1 7.5-1.8 10.5-2.4 4.6-.8 9-1.2 13.3-1.2zm767.6 65.4c-1.5.4-4.8 6.9-7.4 12.1-3.7 7.3-8.8 17.3-16 27-20 26.4-42.8 32.3-64.9 38-17.9 4.7-36.4 9.4-54.1 25-22.1 19.4-25.3 39.5-29 62.8-3.8 24.8-8.3 53-37.5 85-10 11-19.1 18.3-27.2 24.8-13.6 11-23.4 18.9-28.9 37-4.8 15.6-2 25.3 1.6 37.6 3.3 11.2 7 23.9 6.5 44.3-.3 14.2-2.3 19.9-11.9 47-5.3 15-13.4 37.6-24.9 72.4-5.3 16.2-17 51.8-18.5 62.4 1.3-1.5 3.4-4.2 6.5-9.2 3-11.6 7-24.1 12-37.5 11.4-30.7 30.6-82 74.4-132.8 10-11.5 19.4-21 27-28.5 11.2-11.2 20-20 18-24-3-6-25.7-2.4-39.3-.2-16.6 2.6-23.5 3.5-24.8-1-1.7-5.3 8.8-11.1 46-28.3a5212.6 5212.6 0 0 1 59.3-27c22.8-10 26.9-12 34.2-17.3 36.3-27 52.5-68.2 52.7-83.2 0-3.5-.8-4.2-.8-4.2-1.4-.4-7.2 4-11.9 7.4-11.6 8.7-31 23.3-59.9 31-17.2 4.7-54 10.6-58.3-.8-2.8-7.5 8.4-15.1 38.4-35.5 12-8 26.9-18.2 44.5-30.8 74.4-53.1 85.6-71 91.8-87.5 9.6-25.6 8.8-54.6 3.9-64-.8-1.5-1.4-2-1.5-2zm-733 952.6c-17.6 0-49.7 6-87.7 23.4a302.8 302.8 0 0 0-111 85.5c-45.2 57.1-53.7 123.7-68.5 268.8-24.2 235.4-5.3 265.3 4 267.3 8 1.6 15.8-18.6 26.7-46.6 18.3-47 49-125.7 118-198.7 48.7-51.6 92.7-75.2 128.1-94l6.7-3.7c-22-3.4-40.5-10-48.4-28.6-3.8-9-3-15.9-2-26.2 1-9.8 2.5-23 .6-44.9-2-23.4-5.8-36-9.3-47.2-2.7-9-5.1-16.7-5.7-27.9-2.2-44.6 28.4-77.7 48.7-99.6 9.5-10.3 18.5-20 16.2-23.6-.5-.8-2.8-3.4-12.8-3.9h-3.5zm132.5 512c-17.5 98.6-35.1 209 28.7 292.9A516.9 516.9 0 0 0 789.3 2507c83 35.5 155.9 36.8 205.1 3.7 59.3-39.8 71.4-121.8 71.2-183.6-.4-95-27.8-182-36.1-206.5-8.8-25.6-29.4-85.6-64.2-140-43-67.3-93.4-104.4-149.7-110.3-59.3-6.2-119.2 22.4-178.1 85a563 563 0 0 0-76.3 104.2zM1221 2698h-.4a2.5 2.5 0 0 1-2-2.9 2783 2783 0 0 0 19.3-148.5c9.6-94.4 12.5-168.6 13.3-204.5 1.8-82.5 3.3-147.6-8-236.2-4-32-10.3-80.2-27.3-142.3-20.4-74.8-45.2-128-67.1-175a1492 1492 0 0 0-99.8-181c-66.4-101.5-99.7-152.4-135.8-194.3l-1.3-1.6c-12-13.9-32.2-37.2-44.5-73.2-7.9-23.1-10-44.2-14.1-82.6-3-28.3-4.6-43.9-2.7-64.5.5-5.6 1.4-11.5 2.7-17.8-2.8 3-4.7 3.8-6.5 3-3.2-1.4-3-5.6.5-18.9 2.8-10.4 7.8-26.2 16-51.5 11.6-34.8 19.7-57.5 25-72.5 9.4-26.5 11.4-32 11.6-45.4.4-19.7-3.1-32-6.3-42.8-3.6-12.6-6.8-23.4-1.6-40.5 6-19.6 16.8-28.3 30.6-39.4 8-6.3 17-13.6 26.6-24.3 28.2-31 32.5-58.3 36.3-82.4 3.7-23.2 7.1-45.2 30.6-65.7 18.6-16.4 37.7-21.3 56.2-26.1 22.2-5.7 43.2-11.2 62-36.2 7-9.3 11.8-18.7 15.6-26.2 5-10 8-15.9 13-14.7 1.8.4 3.4 1.8 4.7 4.2 5.4 10.2 6.7 41.1-3.6 68.4-6.7 17.8-17.8 35.7-93.5 89.8a2092.6 2092.6 0 0 1-44.6 30.9c-21.2 14.3-38 25.7-36.5 29.5 1.8 4.8 26.8 4.7 52.3-2.2 27.9-7.5 46.1-21.1 58.2-30.2 9-6.7 14-10.4 18-7.3 1.8 1.4 2.7 4.2 2.7 8.2-.2 15.8-17 59-54.7 87-7.8 5.8-12 7.7-35.1 18a5318.5 5318.5 0 0 0-59.3 27c-14.3 6.6-37.4 17.2-42.4 22 3.5.1 11.6-1.2 18.3-2.3 18.7-3 39.8-6.3 44.6 2.9 3.7 7.2-4.4 15.2-19 29.9a506.4 506.4 0 0 0-26.7 28.2c-43.2 50-62.2 100.8-73.5 131.2-3.3 8.8-6.2 17.3-8.6 25.3 12.7-15.2 41.7-48.5 91-105.1 50.4-58 74.1-82 89.8-97.8 15-15.2 22-22 37.3-44a585 585 0 0 0 73.7-140c18.3-52.6 23.7-95.3 27.2-123.5 6.6-52.5 6.6-102 0-143.3-1.5-9.8-4.8-30.1-9.4-47.5-7.5-27.8-13.8-31-16.2-31-4.8 0-7.8 12-11.6 27.3-6.7 27.4-17 68.8-49.8 105.1-45.6 50.6-109.5 62.7-134.8 65.5-23.6 2.6-54.7 1.7-61.7-3.9a4.4 4.4 0 0 1-1.8-3c-.5-4.7 5.7-5.9 20.7-8.7 23.5-4.3 62.9-11.7 100.4-37 11.3-7.6 68.4-49.3 83-123a199 199 0 0 0 3.4-31.3c-8.6 1.4-17.2 2-25.8 2.7-23.3 1.8-47.4 3.7-70.4 19.8-17.6 12.2-22 23.7-27.5 38.3-4.6 12.3-9.9 26.2-24 43.9-34.6 43.3-86.8 64.1-124.5 74-46.6 12.2-86.2 12-101.5 9-6-1.1-8.9-2.8-9.6-5.2-1.2-4 2.7-6 14.2-11.8 8.2-4.3 20.7-10.7 38.2-21 27.3-16.3 41.2-27 71.6-50.3a3397.7 3397.7 0 0 1 143-105.6c33.4-23.4 41.3-29 56.6-49.5l7.6-10.6c10.8-15.1 18.5-26 28.8-24.4 4.5.7 8.7 3.8 12.4 9.3 10.6 15 16.4 44.8 16 75.5 16-3.1 31.6-9.2 46.9-22.9 7.4-6.6 12-12.5 15.9-17.8 6.2-8.1 11.1-14.6 23.5-19.3a55.4 55.4 0 0 1 36.8-.6c12.7-12 24.2-29 23.6-48.3-1.1-34.2-41.3-65.6-76.7-72.3-5.8-1-10.9-1.4-15.4-1.6-9-.6-16.8-1-25-7.6-10-8-16-26.9-18.2-56.4-1.2-15.3-2.1-28.3-1.8-40.5-6.6 3-13.2 6.8-19.5 11.7-5.3 4-9.7 8.2-14.3 12.7l-1 .9c6.4 10.2 15.4 31.5 29.5 77 11.8 38.2 17.4 65.8 28.7 120.8 5.4 26.4 6 30.8 2 32.8-5.7 2.8-11.5-7-25.4-31-20.7-35.6-55.4-95.3-111.4-146-53.9-49-120.1-83.3-196.8-102.1-67-16.4-120.5-13.3-177.3-10a639 639 0 0 0-164 31.2c-25.4 7.7-49.6 15-60.1 22a111 111 0 0 1 12.7-1.3c32.6-1.7 62.3 10 96.2 38.1l5.2 4.4a1234.6 1234.6 0 0 0 32.4 4c17.8 1.9 35 3.7 53.7 4.6 18.4-25.6 67.2-47.7 89.2-55.5 60-21.3 130.2-16.5 150.3-4 3.6 2.3 5.6 4.8 6 7.6.2 2.2-.6 4.6-2.6 7-15.8 18.5-108.7 45.2-194.7 49.7-16.7 1-31.6.9-45.7.3a25 25 0 0 0-4.5 16.4c1.9 14.4 21.6 28.5 54.2 38.7a332 332 0 0 0 106.7 13.1c80.8-3.4 142-39.9 175-59.4 19-11.3 28.5-17 32.5-11.6 1.2 1.6 1.5 3.8.9 6.6-4.7 21.3-65.3 88.2-150.1 133.6-39.1 21-73.7 32.2-94.3 39-4.7 1.4-9.2 3-12.5 4.1 19.6-.3 88.5-11 169.3-35.7 55.9-17 97.4-34.8 122.1-45.5 24.3-10.4 30-12.8 32.3-8.8.4.7.7 1.7.1 3.3-2.5 7.4-30.1 29.6-65.5 52.7a978.8 978.8 0 0 1-153.3 81c-28.6 12-70 29.3-115.9 44.2-5 11.9-12.6 20.8-20.5 30.1-12 14.2-24.5 28.8-28.5 55.8-2.6 17.5.2 27.3 3.5 38.7 3 10.1 6.2 21.7 5.5 40.5-1.6 44.2-22.8 75-36.8 95.4-6.9 10-12.8 18.6-10.3 21.3 1.3 1.4 5.5 2.4 13.2 1 24.7-4.6 68.6-29.7 84.6-69.3 4.4-10.8 5.3-19.4 6-26.4 1.1-9.2 1.9-16.5 9.8-22.6 11.9-9.2 26-4.8 43.7.9 18.6 5.8 41.8 13.1 73 9 7.4-.9 13-2.2 18-3.4 8.8-2 16.3-3.8 29-2.5 12.5 1.3 43.5 6.6 60.2 28 15.6 19.7 16.4 49.5 2.4 88.3a318.5 318.5 0 0 1-30.7 61.5c-7.5 11.8-21.4 33.7-47.1 53.1a94.6 94.6 0 0 1-31 16c-10.4 3.7-26.1 9.4-53.5 21.8l-14 6.5c-26.7 12.5-40.1 18.7-56 13-9.8-3.6-14.2-9.6-17.7-14.3-3-4-4.8-6.2-8-6.5-9.9-.8-17.5 20-27 46.3-15 41.3-35.4 97.9-83.6 137.6-25.3 20.8-48.5 29-90.8 44-14.2 5-47.4 16.7-174.5 28.6-114.5 10.7-121.1 4.4-126.4-.7-39.4-37.4 3.2-138.8 44.4-236.7 37.6-89.5 56.4-134.4 92.2-161.5 26.5-20.1 67.9-40.7 113.6-56.5 45-15.5 89-24.6 120.3-25h.6c6.5-.1 23.6-.3 32-11 10.5-13.6 5.4-42.4-10.3-58.3-9.6-9.7-19-10.4-34.5-11.6-8.4-.7-18.9-1.5-31.7-4.2-34.3-7-57.6-21-78.2-33.4-23.8-14.3-42.6-25.5-69.3-20.6-6 1.1-17 4-28.3 7.8-14.8 5-22.8 9.3-31.3 13.8a212 212 0 0 1-22.5 10.7L286 573l-.3.3c-7.2 5.6-14.4 6.2-26.3 7.1l-.8.1c-4 .6-8 .8-11.6.6a21.2 21.2 0 0 1-16-6.4 25 25 0 0 1-5.7-24.3c-3.6.8-8.4 1.8-13.6 1.8-13 0-24.1-6-26.5-9.1-.9-1.2-.9-2.2-.7-2.8.9-3 3.8-2.2 8.5-1a113 113 0 0 0 27.1 4.2c-12.6-11.3-3.5-42 3-59.4 12.7-33.5 34.7-55.1 46.5-66.7 2.8-2.7 5.7-5.5 7-7.3-6.6.8-28.8 10.3-45.2 30.5-6.1 7.5-10.4 15.3-13.4 21-3.8 6.8-5.6 10.2-9 9-3-1-2.6-4.3-1.7-11 .7-5 1.7-12.7 2-23 .2-4 .1-7.4.1-10.4 0-8 0-13.4 3.2-20a40.6 40.6 0 0 1 13.4-14.9c22.8-16.8 49.3-27.3 74.6-36.7 24.5-9 30.8-10.6 40-10.1 14.6.8 25.6 6.3 34.5 11.7 42.5 25.6 112.8 87.6 113.9 96 .1 1-.2 1.9-.8 2.5-1.9 2-4.5 0-5.6-.8l-5.3-4.5c-11.3-10-35-30.8-72.8-47.1-25.5-11-47.3-15.8-66.5-14.5a124 124 0 0 0-41.8 10.3c13.6-3.7 35.7-8.8 59.6-5.3 36.4 5.4 59 28.8 77.3 47.6 5.4 5.6 10.6 11 15.6 15.4 59 51.3 166.7 32 257.7 2.7.9-2.2 1.6-4.6 2.3-7 13-48.7-32.4-100.8-85-161.2C584 244.6 552 207.8 522.5 182c-14.6-2-31.7-4.6-48.2-7.7-65-12.2-73.8-23.4-74.2-30.8-37.4 10.6-73 42.4-133.8 96.7a535 535 0 0 0-81 91.6c-13 17.6-23.6 34-32.4 56.1-4.4 11-8.9 22.6-11.1 37.8-3.5 23.5.8 39 5 54 4 14.7 8 28.6 4 48.4-3.1 15.2-10.2 25.2-24.5 45.3a164 164 0 0 1-26.4 29c-6 5.7-13.7 12.9-24.2 23.3C62.6 639 48 657.4 19 694.3c-6.4 8-15.9 20-13.5 33.7 1 6 3.9 10.2 9.8 17.5 9 11 18.4 21.8 25.6 29.4-13.3-17.2-33.1-44-24-59.1 4.7-8 15.4-9.8 20-10.6 9.5-1.5 15.6 1 28 6.1 4.6 2 10.4 4.4 17.6 7 26.5 9.9 31.6 8.5 32.6 7.4 1.6-1.8.5-5.7-.6-9.2-1.2-4.1-2.4-8.3.6-10.7 1.6-1.3 3.9-1.6 7-.9 9 2.2 26.7 14.6 35.5 34.1 3.1 7.1 10.6 23.7 2.1 37.4-8.6 13.9-29.3 17-43.6 12-6.7-2.4-11-6.6-19.8-14.9-5.8-5.5-9.8-10.2-12.9-14-5.1-6-8-9.4-13.7-10.7-5-1.2-11.4-.7-12.9 1.8-1 1.7.6 4.4 3.3 8.7 3.4 5.4 8 12.7 7.7 22.1-.2 6.7-3.3 12.1-9 21.9a108 108 0 0 1-8.4 12.7 78.2 78.2 0 0 1 23 18 264.7 264.7 0 0 1 27.5 32.5h.1c13.5 19 25.7 33.5 33.7 43.1 10.8 12.9 13.3 16 10.7 18.5-2.2 2.1-4.6.4-9.5-3.2-6-4.4-16-11.8-31.2-17.9-19-7.6-28.3-6.3-33.6-4.6-3.2 1-8.2 3.1-14 7.6-6 4.8-9.8 10.3-12.1 13.6-2.1 3-3.6 5.2-6 4-2.7-1.2-1.7-4-.6-7 1.5-4 3.9-10.7 2.8-17.9-1-5.9-3.6-8.7-7-12.3-2.8-3-6.1-6.5-8.5-12.4-5.1-12.7-3-29 6-46.1a54.3 54.3 0 0 1 8.6-12.1c-1.4.3-3.1 1-6.4 3.8-4.5 4-15.4 15-17.8 33-3 23 9.5 47.7 14.8 58.3l1.4 2.8c2 3.8 4 7.8 5.3 11.8l5-1.6c14.9-4.2 24-2.9 36.6-1 10.7 1.6 24 3.5 46 2.6l5.2-.2c9.8-.5 14.8-.8 16 3 2.9 9.3-36.4 25-46.3 28.4-10.3 3.6-17.3 5-23 6-7.7 1.6-12.3 2.5-19.7 7.7-5.4 3.8-9.2 7.9-12.3 11.1-4.6 5-8.3 8.9-14.2 8-9-1.4-15.7-13.7-15.7-23.8 0-8.8 4.9-15.6 6.8-18.2 2.7-3.7 5.2-5.5 7.2-7 1.6-1.2 2.7-2 3.6-3.6.7-1.4 1-3 1-4.6-11.6 4.8-19 11.2-22.2 19a45.2 45.2 0 0 0-2.4 11 49 49 0 0 0 3.8 22.5c4.2 11.3 7.9 17 10.9 21.5 2.8 4.3 5 7.7 5.9 13.7 1.3 9.3-2 15.3-6 23-1.8 3.2-3.7 6.8-5.5 11a110.2 110.2 0 0 0-5 67 96 96 0 0 0 52.6 62.8c11.2 4.8 20.5 5.5 79.8-.2 21.3-2 37.3-3.8 50.1-5.1 31.8-3.5 42.6-4.6 61.4-2.4 19.4 2.3 48.7 5.7 76 24.4 35 24 48.2 59.8 56.1 81.2l.4 1c25.5 69.5 39.5 94.6 50.7 114.7 12.5 22.5 22.4 40.3 42 105.7 43.8 146.2 65.8 219.5 48 265.6-14.9 38.3-39 56.5-69.4 73.7l10.2 1c25.8 2.5 52.4 5 73.1 18.3 45.2 28.8 34 98.4 19.6 179.5 13.7-22.8 37.8-59 70-93.3a323.6 323.6 0 0 1 81.1-64.5 173.7 173.7 0 0 1 101.2-22c57.9 6 109.5 43.9 153.4 112.5 35.1 55 55.8 115.3 64.7 141 8.4 24.7 36 112.3 36.4 208.2a328 328 0 0 1-15.6 108.5c-12.3 35-31.7 61.8-57.8 79.3-50.7 34-125.3 32.9-209.9-3.4A522 522 0 0 1 586 2355.3c-29.8-39.2-44.8-87.8-45.8-148.4-.7-44.5 6.2-90.8 13.6-133.4-18 35.9-37.6 97.3-50.3 301.5-6.6 105.4-9 212-7.1 316.5a2.5 2.5 0 0 1-5 0c-1.9-104.6.5-211.2 7.1-316.9 13.6-218 34.3-272.7 54.3-310l3.8-6.8 1.2-7c14.7-82.1 27.3-153-16.1-180.9-19.8-12.6-45.8-15.1-71-17.5l-17.2-1.8a1506 1506 0 0 1-12.7 6.8c-35.1 18.8-78.7 42-127 93.1-68.2 72.3-98.6 150.5-116.8 197.2-13.1 33.6-20.3 52-32.4 49.5-9-1.8-14.7-15.1-17.5-40.6a596.3 596.3 0 0 1-1.7-82c2-60.8 8.7-125.6 11.2-150 14-135.9 21.6-210.7 69.5-271.4a308 308 0 0 1 112.9-87c41.5-19 76.4-24.6 93.7-23.7 8.8.5 14.4 2.6 16.7 6.2 4.4 6.9-4 16-16.7 29.7-19.7 21.3-49.5 53.4-47.4 96 .5 10.5 2.8 18 5.5 26.7 3.4 10.8 7.5 24.2 9.5 48.2 1.9 22.3.5 35.9-.6 45.8-1 10-1.6 16 1.6 23.7 7.7 18.3 27.1 23.6 51.2 26.6 33.4-18.3 58-35.1 73.2-74.5 17.2-44.5-4.6-117.3-48-262.4-19.5-64.9-29.3-82.5-41.7-104.7-11.3-20.3-25.3-45.5-51-115.4l-.4-1c-7.6-20.8-20.5-55.7-54.2-78.8-26.3-18-54.9-21.3-73.8-23.5-18.3-2.2-28-1.1-60.3 2.3-12.8 1.4-28.8 3.1-50.2 5.2-60.8 5.8-69.8 5.1-82.2-.2a101.2 101.2 0 0 1-55.4-66.2c-2.2-8.6-8.2-39 5.2-70.2 1.9-4.4 3.9-8 5.6-11.3 4-7.5 6.6-12.4 5.5-20-.6-4.9-2.4-7.6-5.1-11.7-3-4.5-7-10.7-11.4-22.5-2.6-7-5-15-4.1-24.7 0-.7.7-7 2.8-12.4 3.7-9.3 12.4-16.7 26-22.1a73.2 73.2 0 0 0-5.2-11.4l-1.4-2.8c-5.5-11-18.4-36.6-15.2-61a58.5 58.5 0 0 1 19.5-36.3c4-3.4 6.4-4.4 8.3-4.9a16.4 16.4 0 0 1 6-.4 98 98 0 0 0 9.5-13.7c5.6-9.8 8.2-14.3 8.3-19.5.2-8-3.7-14.3-6.9-19.4-3-4.8-6-9.5-3.4-13.8 3.5-5.9 13.5-5.3 18.4-4.2 7.3 1.7 11.1 6.2 16.3 12.5 3.1 3.6 7 8.2 12.5 13.5 8.2 7.8 12.4 11.8 18.1 13.8 12.5 4.4 30.6 1.4 37.7-10 7-11.3.6-25.7-2.5-32.6a60.4 60.4 0 0 0-31.5-31.2c-2-.5-3-.4-3.3-.3-.2.9.6 3.7 1.1 5.4 1.4 4.6 3 10.2-.5 14-2.7 3-8 5.2-38-6-7.4-2.7-13.2-5.1-18-7-11.7-5-17-7.1-25-5.8-4 .6-13 2.1-16.7 8.1-7.7 13 14 40.8 25.5 55.8 8.5 10.8 10.7 13.8 8 16.1a3 3 0 0 1-2.2.8c-7-.6-40.7-42-41-42.4-6-7.3-9.6-12.3-10.9-19.8-2.7-15.8 8-29.5 14.5-37.6 29.2-37 43.9-55.6 57.2-69 10.6-10.4 18.2-17.6 24.3-23.4 11.4-10.6 17.1-16 25.8-28.2 13.8-19.5 20.7-29.3 23.5-43.4 3.8-18.6 0-32-3.9-46.1a121.2 121.2 0 0 1-5-56c2.2-15.8 7.1-28.1 11.4-39a244 244 0 0 1 33-57.2 539.3 539.3 0 0 1 81.6-92.3C325.6 180.5 362 148 401.4 138c5.7-9.5 28.7-16.9 67.6-28.6 41.8-12.7 89.1-27 165.3-31.5 57-3.3 111-6.5 178.6 10.1 77.6 19 144.5 53.8 199 103.2 56.6 51.3 91.5 111.4 112.4 147.3 7.6 13 15.3 26.3 18.6 28.6.3-3.6-2.3-16.4-4.4-26.9-11.2-54.8-16.9-82.4-28.6-120.4-14-45-22.6-65.4-28.4-75-8.5 8-18.2 16.1-34.1 23.9-11.8 5.7-32.1 14.3-36.5 7.8-2.8-4.1 2-10.6 6.8-16.3 10.1-12.2 34.8-34 55.8-28.9 2.4.6 5 1.3 8.8 6l.4-.5c4.8-4.5 9.3-8.9 14.7-13a106 106 0 0 1 22.9-13.3c.8-12.3 3.1-24 8.3-37 5.9-14.6 23.7-59 67.7-70.8 32.7-8.7 61 6 70.4 10.9 11.2 5.8 37.5 19.4 43.3 45l.5 2.6c10.8 4.5 20.4 10 25.6 13 18.9 11 68.9 39.7 79.9 98.4 11.2 60-27.4 106.8-43.9 126.7-16.8 20.4-45 54.6-86.3 58.3a83 83 0 0 1-24.5-1.5 85 85 0 0 1-17.9 12.5c-30 15.8-64.1 11.1-70.8 7.5a4 4 0 0 1-2-2 105.2 105.2 0 0 1-10 10.2 100.3 100.3 0 0 1-50.2 24.2 207 207 0 0 1-3.7 33c-14.9 75.7-73.4 118.5-85 126.3-38.4 25.9-80 33.6-102.3 37.7-6.4 1.2-13 2.4-15.7 3.5 5.7 2.8 30 5.3 57 2.2 24.8-2.7 87.3-14.5 131.7-63.8 32-35.4 42-76 48.7-103 4.9-19.6 7.8-31.5 16.6-31.2 12 .4 21.3 26 30.4 82.8a526 526 0 0 1 0 144.7c-3.6 28.4-9 71.4-27.5 124.5-9.1 26.3-31 79.6-74.3 141.3a275.6 275.6 0 0 1-37.8 44.6 1819.7 1819.7 0 0 0-89.6 97.6c-61 70-94.6 108.6-97.8 113.6l-.1.3-.3.4a194.5 194.5 0 0 0-5.2 28.9c-1.8 19.3-.5 33.4 2.7 63.5 4 38 6.1 58.9 13.8 81.4 12 35.2 31.8 58 43.5 71.7l1.4 1.5c36.3 42.2 69.7 93.2 136.1 194.9 20.2 30.8 60 95.4 100.2 181.6 22 47.1 46.9 100.5 67.4 175.7a977.2 977.2 0 0 1 27.4 143c11.4 89 10 154.3 8 237-.8 36-3.6 110.3-13.3 205a2793.2 2793.2 0 0 1-19.3 148.7 2.5 2.5 0 0 1-2.5 2.1z" fill="#1B1A19" fill-rule="evenodd"/></svg>