<svg xmlns="http://www.w3.org/2000/svg" viewBox="0 0 1050 3483"><path d="M674.7 15c-1.6 7.5-3.4 19.2-5.4 31.4-8.2 51-21.8 135.9-52.9 211.9 8.7-14 17.6-25.2 26-35.6 28.5-36 51-64.4 37.8-170.3-1-7.6-3.3-26.4-5.5-37.4zm-82 292.7C560.8 364 515.8 408.5 451.3 419c-91.2 14.7-111.3 32.5-112.2 44.7-2.7 39.7 178.3 98.8 271.5 127.7-28.9-59-47-118.3-40.6-176.8 5-45.9 13-80.2 22.7-107zM463 1131l2.3 6.6c-.5-2.5-.8-5-1-7.5a4 4 0 0 0-1.3 1zm197.7 168.3a47.4 47.4 0 0 1 47.6 47.7v169.8c0 111 60 193.3 129.5 288.5 28.2 38.6 57.7 79.1 85.7 124.4 9-186.2-37.7-343.3-59.3-416.2-3.6-12-6.4-21.4-8-28.1-11.2-44.6-2.5-101.7 5.1-152 3-19.4 5.7-37.6 7.3-54.1 3.8-40.7 8-82 11.9-122 7.3-73.7 14.8-149.8 21-224.8a996 996 0 0 1 6.6-54.2c11.6-83.3 24.7-177.7-54.8-227.6-37.5-23.4-85.3-27.3-131.6-31-32.2-2.5-62.5-5-90-13.4l-5.5-1.6c23 43.9 51.2 87.8 79.1 131 87.2 135.2 177.3 275 106.4 413.4-63.6 124-151.7 125-198.5 114.5-59.5-13.2-113.6-57.6-136.9-98.5 53 120.8 129.2 134.7 183.8 134.1h.6zM472.3 2609.6l-4 17c-74.3 329 9 751.1 35.3 846.2.6 2.3 2.7 2.3 3.3 2.2.6-.1 2.6-.6 2.7-3 0-6.2 5.3-436.2-37.3-862.4zm34.1 873.4c-5 0-9.2-3.2-10.5-8.1-26.5-95.5-110.1-519.5-35.4-850.1a732.9 732.9 0 0 1 9.5-37.7c-18.9-181.4-46.6-360.8-87.3-505-90-319-54.2-406.6-19.6-491.4 20.4-50 39.6-97.1 32.4-190.3a4 4 0 0 1 3.7-4.3 4 4 0 0 1 4.3 3.7c7.3 95-12.3 143-33 193.9-34 83.6-69.3 170 19.9 486.2 39.4 139.6 66.7 312 85.5 487.3 56.4-179 164-252.8 260-318.7C822.4 2189 897 2137.8 914.4 2022c4-26.5 6.7-52.6 8.3-78.2a1796.3 1796.3 0 0 0-91.3-133.8c-70.3-96.3-131-179.6-131-293.2V1347a39.4 39.4 0 0 0-40.2-39.7H657c-96.5 0-160.7-55.4-201.7-174-1-2.9 0-6 2.4-8.2 2.6-2.5 7-4.2 10.7-2.7 2.3 1 3.7 3 3.8 5.6 1.5 43.5 67.6 111 142.7 127.8 77 17.3 144.4-22 189.7-110.4 68.8-134.3-20-272-106-405.3-29.5-45.8-59.4-92.2-83.1-138.8-204.1-63.5-286.7-103.7-284.4-138.1 1.6-22.7 39.4-39.2 119-52.1 156.7-25.5 195-264 211.3-366C667.6 6.4 668.8-.1 674.8 0c5.2 0 7.3 2.6 13.4 51.4 13.6 109.2-9.9 138.8-39.6 176.2-27.3 34.4-58.3 73.4-70.7 187.8-6.4 58.9 13 119.1 43.2 179.3l12.9 4c26.7 8.2 56.6 10.6 88.3 13 47.3 3.9 96.1 7.7 135.2 32.3 84 52.6 70.5 149.7 58.5 235.4-2.6 19-5 36.8-6.5 53.8-6.2 75-13.8 151.2-21 224.9-4 40-8.1 81.2-12 122-1.5 16.7-4.3 35-7.3 54.4-7.5 49.7-16 106-5.3 149 1.6 6.4 4.4 15.8 8 27.7 22.2 74.8 70.7 237.9 59 430.6a844.6 844.6 0 0 1 108.1 281c37 191.7-26.7 508.3-86.8 740.2-65 251-139.6 459.5-140.3 461.6a4 4 0 0 1-5.1 2.4 4 4 0 0 1-2.4-5.1c3-8.3 297.1-833.2 226.8-1197.5a834.3 834.3 0 0 0-101.3-268.5 926.7 926.7 0 0 1-7.6 67.3c-17.8 119.2-93.9 171.4-181.9 231.9-98 67.3-208.3 143-262.3 332.8 45 433.5 39.6 878 39.5 884.2-.1 5.7-4.1 10-9.7 10.8l-1.5.1z" fill-rule="evenodd"/></svg>