<svg xmlns="http://www.w3.org/2000/svg" viewBox="0 0 4182 2851"><path d="M3696.3 446c-9.1 0-18.5 1.8-28.7 5.6-22.5 8.5-53.5 28.7-52.1 47 1 14 21.4 27.2 39.7 30.6 18.2 3.3 39.3-2.5 58.2-16a93.1 93.1 0 0 0 36.5-51.4c-19.9-9.6-36.3-15.8-53.6-15.8zm390.2 141.1a102 102 0 0 0-33.4 5.6c-16.6 5.8-28.2 15.1-31.8 25.6-4 11.7 1.6 27.6 15.4 43.5a131.3 131.3 0 0 0 51.5 36c33.2 12.3 49.3 7.4 57 1.1 18.5-15.2 15-58.5-.4-85.5a53.7 53.7 0 0 0-9.8-12.5l-1.7-1.1a87.5 87.5 0 0 0-46.8-12.7zm-964.6 553a141.7 141.7 0 0 0-19.7 34.9 642.4 642.4 0 0 0-31.5 91.9c-14.3 53.2-36.8 160-26.5 277 .2 3.3.6 6.7 1 10.1a829 829 0 0 0 69-217.4c6.1-37.3 10.4-84.2 11.6-125.5 1.2-43.4-1.5-63.8-3.9-71zM1564 2147.9c39.4 0 77.6 4.6 114.5 13.7 78.4 19.2 111.7 48.7 153.8 86 32 28.4 68.3 60.6 133.9 96.3 94 51.2 218.5 82.7 403.8 102.1 131 13.8 284.6 21.4 494 28.8 0-5.4.4-10.9 1.1-16.4 10-72.9 67.8-146.6 163-207.7 92.5-59.4 213.9-103 353-127.3a259.4 259.4 0 0 1-88.7-45.4c-42.4-32-84.6-79-122-136a889.3 889.3 0 0 1-92.4-188 890 890 0 0 1-40.2-156.5 925.8 925.8 0 0 1-73.5 117.1 765.8 765.8 0 0 1-143 149.3c-55.3 43.2-113 73.7-171.5 90.7a353.9 353.9 0 0 1-138.4 12.6 448 448 0 0 1-130.3-35.7c-84.7-36.2-166-93.7-252-154.6-179.8-127.2-365.7-258.7-617.4-227.3-135.4 16.9-266.3 78-389.2 181.4l-8.4-10c124.9-105 258.1-167.1 396-184.3 114.9-14.3 227.2 4 343.4 56 102.2 45.6 194.1 110.7 283 173.6 167 118 324.6 229.6 509.7 175.8 165.4-48 304.2-198.7 388.5-366.3a713.8 713.8 0 0 1-3.4-30.7c-9.5-109 8.1-208.4 24.6-272.6 19.3-75.5 44.5-130 58.3-142.8 3.6-3.2 7-4.6 10.5-4 7 1 10.8 9 12.8 27.1 1.4 12.8 2 30.8 1.5 52-.8 42.8-5.3 94.1-11.8 134a847.3 847.3 0 0 1-79.2 238.8 894.2 894.2 0 0 0 133.3 357.3c75.7 115.4 164.6 181.3 244.3 181.5l3-.5v.4h.3c36.6-.7 75.5-16 115.5-45.6 38.7-28.5 76.4-68.7 112-119.4 120.5-171.6 213.3-465 132.4-703.5-26.1-77.2-73.5-150.8-111.6-210-49.2-76.4-84.8-131.7-58.4-162 17.3-19.7 51.4-16.2 98.5-11.2 65.7 6.8 155.6 16.2 261.3-27a584.5 584.5 0 0 0 88.2-50.5l4.9-3.4c53.8-37.4 87.4-60.7 95.5-95.7a45 45 0 0 1-13.7 21c-15 12.4-38.4 12.7-69.7 1.2a145 145 0 0 1-56.9-39.8c-17-19.8-23.4-39.7-17.8-56.2 5-14.3 19.4-26.6 39.8-33.7 12-4.1 24.8-6.2 37.4-6.2-38.6-14.9-89.4-27-133.6-37.7-23-5.5-44.7-10.7-62.7-15.7-53-15-89.8-33.7-119.5-48.7l-8.6-4.4c-6 21.2-20.8 41.6-40.8 56-21.7 15.6-46.5 22.3-68.1 18.3-19.9-3.7-48.6-19.3-50.4-42.5-2.1-28.6 38.7-51.8 60.5-60 32.8-12.4 58.6-5.3 88.8 8.8.9-26.1-14.6-48-25.1-63l-4.2-6c-8.6-12.8-22.5-28.6-79.4-56.4-47.5-23.1-77.7-31.5-99.8-37.6-24.2-6.7-40.2-11.2-58.3-29.4a78.5 78.5 0 0 1-12.6-16c-18.3-31.5-33.3-108.4-33.9-111.7-4.7-26.9-16.6-57-31.8-80.7-14-21.7-29.4-35.3-39.2-34.5-22.2 1.9-50.5 75.2-50.1 150.5.1 31.3 5.5 55.1 10.3 76.2 6.9 30.2 12.3 54-3.8 80.8-15.6 25.7-48.3 50.1-80.7 47-26-2.6-39-20.9-55.4-44-10-14-21.3-29.8-37.8-45.6a272.4 272.4 0 0 0-101-59.2c-37-11.7-67.7-11.2-84.2 1.2-6.1 4.6-12 12.2-13.5 36.7-1.8 29.8 3.4 78 16 147 17.9 99 34 147.3 44.7 179.3 10.3 31 16.6 49.7 15 85.4a303 303 0 0 1-24 103 427 427 0 0 1-50.8 88c-39.3 53.2-86.5 96.4-121 127.9-74.6 68.2-145.4 104-187.6 125.3-104.6 52.8-192 72.5-262.2 88.3-54.7 12.3-145.2 29.5-299 36.7-91.7 4.3-142.2 2.1-243-2.2-36.3-1.5-77.6-3.3-129.8-5.2-332.4-11.7-460.2-4-579.7 14.6-119.6 18.5-187.6 40-250.7 79.5-108.6 67.8-163.4 160.4-184 195.2-44.8 75.5-56.8 131.8-68.4 186.2-13.1 61.6-25.6 119.8-80.8 201.6-30 44.4-64 94.8-128.2 140.6a579.6 579.6 0 0 1-148.5 77.5c-32.3 12.2-60.3 22.8-89.5 46.5-49 39.8-77.6 101.6-87.6 188.8a551.3 551.3 0 0 0-1.6 16.2c43.8-.9 99.4 14.8 160 31.8 124.7 35 266 74.7 375.8 1.3 41.6-27.8 70.4-67 91.5-95.6 21.8-29.6 37.6-51 56-44 22.1 8.6 17.9 48.1 12 102.8-3.3 31.2-7 65.9-6.2 99.2l3.1-1.7c70-38 167.8-81.5 320.6-148.7 89.9-62.9 177.3-109.3 260-138a612.3 612.3 0 0 1 200.5-36zm-1487.4 243a69.3 69.3 0 0 0-44.3 21c-32.9 36.3-18.5 110.1 5.9 167 8.6 20.1 18.6 38.7 28.3 52.3 10.1 14.3 16.4 18.4 18.6 19 .8-1.3 2.7-6.2 2.3-23.5-.3-14.7-2.2-34.5-4.3-57.4-4.5-49-10.4-113.4-6.5-178.4zm2801.3 97.4c4 33.4 21.8 63.6 38 85a313.8 313.8 0 0 0 100.2 85c56.5 29.7 158.5 47.6 208.2-6 23.2-25.1 37.6-70.3 21.3-102.3-25.8-50.9-118.6-53.7-158.3-55-75.6-2.3-145.1-4.5-209.4-6.7zm-2109.9 5.6c-58.1 33.7-85.7 59.9-88.6 83.8-4 32.4 7.2 70 32.5 108.8a388.4 388.4 0 0 0 94 97.1c61.8 45.3 123.5 64.7 157.2 49.3 21.7-9.8 39.3-37.3 47.2-73.4 9.6-44.4 2-89-19.6-113.8-20.8-24-49-24.3-81.6-24.7-31.2-.4-66.6-.9-96.4-25.7-25.8-21.5-40.4-54.7-44.7-101.4zM936 2851c-37.8 0-87.4-20.1-137.7-57a402 402 0 0 1-97.3-100.5c-27-41.4-38.9-82-34.5-117.5 3.6-29.4 33.9-58.7 100.6-96.6-1.6-36.2 2.4-74 6-107.7 4.5-41.4 9-84.2-3.9-89.2-9-3.5-23.7 16.4-40.7 39.5-21.7 29.4-51.3 69.7-94.8 98.7-51.3 34.3-113.7 48-190.7 42-66.5-5.3-135.2-24.6-195.8-41.6-60.5-17-115.7-32.5-157.5-31.3-4 64.6 1.9 129.3 6.4 178.2 5.6 61.3 8.4 92.1-8.6 95l-1.9.2c-15.6 0-34.4-30-44.5-48.5a353.6 353.6 0 0 1-38.2-108.5c-7.3-45.2-.4-80.8 19.8-103.2 13.9-15.3 32.5-23 54.9-25.4a569.4 569.4 0 0 1 1.8-18.5 388 388 0 0 1 27.2-108.9 228.6 228.6 0 0 1 65.1-88.5c30.9-25 59.7-36 93-48.6a568.3 568.3 0 0 0 145.7-76c62.3-44.4 95.6-93.7 125-137.2 53.8-79.7 66-136.7 78.8-197 11.8-55.4 24-112.8 69.9-190.1 21-35.6 77-130.2 188.3-199.6 64.8-40.5 134-62.5 255.6-81.3 120.3-18.7 248.7-26.5 582.1-14.7 52.3 1.8 93.6 3.6 130 5.1 100.3 4.3 150.7 6.4 241.8 2.2 152.7-7.2 242.5-24.2 296.8-36.4 69.5-15.7 156-35.1 259.1-87.2 41.7-21 111.4-56.3 184.7-123.3 69.2-63.3 185.1-169.2 191.5-309.9 1.6-33.3-4-50.1-14.3-80.7-10.7-32.3-27-81.2-45.1-181-28.7-158-14.5-183.7 2.4-196.4 20.3-15.3 54.4-16.4 96-3.3a282 282 0 0 1 106 62.2c17.5 16.6 29.2 33 39.5 47.5 15.7 22 26 36.5 46 38.5 26.8 2.6 55.2-19 68.3-40.8 13.5-22.2 9-41.7 2.3-71.2-4.7-20.5-10.5-46.2-10.6-78.9C3304 90.4 3331 3 3366.4.1c20.9-1.7 41 24.6 51.2 40.4 16 25 28.7 56.9 33.7 85.3.5 2.6 15.3 78.3 32.3 107.6 2.6 4.4 6 8.7 10.6 13.3 15.7 15.8 28.8 19.5 52.6 26 22.5 6.3 53.4 14.9 102 38.6 59.8 29.1 75 46.6 84.5 60.7l4 5.8c12.3 17.4 30.8 43.6 27.1 76.6l12 6a604.8 604.8 0 0 0 117 47.8c17.8 5 39.4 10.2 62.2 15.7 72.4 17.3 153.7 36.8 187.3 66.7 32.1 22.3 42.4 63.5 38.2 93-6.2 44-44.4 70.6-102.1 110.7l-4.9 3.3a599 599 0 0 1-90.3 51.8l-.4.1C3874.7 894 3783 884.4 3716 877.4c-43.3-4.5-74.5-7.8-87.4 7-20 22.8 15 77.3 59.5 146.3 38.5 59.7 86.4 134 113 212.8 36.8 108.3 40.5 238.3 11 376-26.6 123.3-78.1 243.8-145.1 339.2-36.4 51.9-75 93-114.9 122.4-42.2 31.1-83.6 47.3-123 48.1h-2.6c-155.6 22.1-290.9 67.9-391.4 132.4-91.9 59-147.7 129.4-157 198.5a106.6 106.6 0 0 0-1 15c64.6 2.3 134.5 4.5 210.7 6.8 41.9 1.3 140 4.4 169.4 62 19.5 38.6 2.5 89.1-23.4 117.1-30.6 33-75.7 39.2-108.2 38.5-38.9-.8-81-11.7-115.5-29.8a327.4 327.4 0 0 1-104.5-88.7c-17.6-23.2-37-56.3-40.8-93.3-210.4-7.4-364.5-15-496.2-28.9-93-9.7-169.5-22.3-234-38.3-68-17-125-38.3-174.6-65.3a663.8 663.8 0 0 1-136.3-98c-40.8-36-73-64.6-148.3-83.1-166-40.8-356.2 12.6-565 158.8l-.5.4-.6.2C956.4 2400.7 858.6 2444.2 789 2482l-8.6 4.7.4 4.4c3.7 44 16.8 74.7 40.1 94.1 26.3 21.9 57.8 22.3 88.2 22.7 32.8.4 66.7.9 91.3 29.2a114.6 114.6 0 0 1 24.8 57.8 185 185 0 0 1-2.3 67.3c-8.8 40.1-29.1 71-54.5 82.5a78 78 0 0 1-32.4 6.3z" fill-rule="evenodd"/></svg>