<svg xmlns="http://www.w3.org/2000/svg" viewBox="0 0 238 594"><g fill="none"><path d="M78 7.7a76.8 76.8 0 0 0-10.7 8.8l-6.2 6.8a83.8 83.8 0 0 0-5.6 7L54.3 32l-.6.9-.5 1c-.8 1.3-1.3 2.7-2 4.2 0 1-1 4-2 7.1-1.3 3.1-2.7 6.6-3 9-.8 3-.7 4.8 0 2.5l-.8 3.6c-.2.7-.3 1.4-.3 3.2l-.2-1.2c-.2 1.2-.3 2.6 0 4.2l.6 1.7c.3 2.2 1 3.8 1.4 5.4.5 1.6 1.1 3.3 1 5.5v-1c.1 0 .2.2.2.6 0 .6 0 1.6.1 1.5l-.6 1.7c-.3.6-.6 1-.4.5-.8 1.6-2.2 2.9-3.5 3.9-1.4 1-2.6 1.7-3.7 2.2l-1 1c-1 1-1.7 1.8-2.3 2.8-.5.9-1 2-.9 3.3l.2.3c.1.8.6 1.8 1.3 2.6l1.6 2.1c.6.8 1 1.7 1.2 2.7 0 .5 0 1-.3 1.4-.2.4-.6.8-1 1l-1.5 1c-.4.3-.9.7-1 1.3-.3 1 .2 2.2 1 2.7 3.3 2.4 2 1 5.2 3l.3.2.2.2h.2l.2.4c.1.3 0 .6-.2.8l-.4.2h-.7c-.7 0-1.5 0-2 .2-.4.2-.6.7-.8 1.3l-.4 1.4c.3-1.6.4-2.5 1-3 .4-.3.9-.4 1.4-.4h1.5c.1 0 .2-.1.2-.3l-.2-.2c1 .8-4.9-3-2.5-1.2l2.2 1.3.2.1H41c-.5.1-1 .2-1.4.5-.4.2-.6.7-.8 1.1-.3.9-.4 1.8-.5 2.7 0 .4-.2 1 0 1.4 0 .2 0 .4.2.6l.5.4 2.6.7 2.2 1.1c.6.5 1.1 1.1 1.4 1.8-.2-.1.5 1.6.4 3.9 0 2.2-.3 4.8-.3 6.1v.2c-.1 1.2 0 2.2.5 3.3a24.7 24.7 0 0 0 7.1 7.9c1.8 1.2 3.5 2.2 5.5 2.4 1.4.1 2.9-.4 4.1-1 1.3-.7 2.4-1.6 3.3-2.5 1.9-1.7 3.3-3.4 4.2-4.2-2.8 1.9-4.9 4.3-7.4 5.8a7.4 7.4 0 0 1-3.9 1.3 6 6 0 0 1-3.4-1.3c2 1 3 1 4 .9 1-.2 1.8-.6 3.1-1.6l-1.5.7 1.1-.7c-.6.2.8-.8.5-.9a7.4 7.4 0 0 1-4 1.5c1 0 1.2 0 1 .2 0 0-.6.3-1 .3-.7 0-1.5-.2-2.2-.6l.4.3.5.2-.8-.1c-.9-.4-2.2-1-3-1.9.6.4 1.2.6 1.9.9a11 11 0 0 1-3.6-2.7l-2.9-3.3-.2-1c-.5-.7-1-1.6-1.2-2.3l.2.2a9 9 0 0 1-.1-3.2c0-2 0-2.4-.2-2.7v-4.2l.3 2.1v-2c0 .8 0 .4-.2-.3 0-.6-.4-1.6-.5-1.8a7 7 0 0 0-2.4-3.4l-.8-.5-1.4-.7-1-.3-.6-.2h-.5v-.9a13 13 0 0 1 .4-2l.1-.1h2.1c.6 0 1.4-.4 1.7-1a2 2 0 0 0-.5-2.8l-.2-.1-.4-.3-.7-.4-1.4-1a1213.4 1213.4 0 0 1-3.3-2.3v-.4l.5-.4 1.4-.7a5 5 0 0 0 1.6-1.6c.5-.7.7-1.5.7-2.3 0-.7-.2-1.4-.5-2-.2-.7-.6-1.3-1-2L39.4 98l.3.3c-.7-.7-1.3-1.3-1.7-1.9-.5-1.3-.3-2.3.3-3.4a8 8 0 0 1 3.2-3.3c2.1-1.2 3.8-2.3 4.9-3.4a7 7 0 0 0 2-3.1c.5-1.2 1-2.8 1-4.2 0-1.5-.1-2.9-.3-4l.4 1.5c0-.7-.2-1.3-.3-2l-.9-3.3-1-3.9c-.3-1.3-.4-2.2-.4-3l-.2-1.5c-.2-.8-.4-1.1-.4-2.3.4-1.8.8-3.5 1.4-5.2v.1c.1-1.6.3-2.2.6-3.3l2.3-6.2-.4.2c1.1-2.3 1-3.5 2.2-6.6.2-.7.9-2.2 1.7-3.8l2.5-4.4 4.3-5.6c1.2-1.6 2.4-3.2 4.2-5 2.2-2 3.4-3.7 4.1-3.8l-.4.4 1.1-.4v-.3c1.3-1.2 3.2-2.9 4.6-3.6l1.5-1.4 1.6-1.4-2.7 1.9h.1l-3.8 3 1-1c-1.3 1-.3 0 0-.3 2.8-2 1.9-1.7 4-3.3A48.7 48.7 0 0 1 78.7 9l1.7-1 1.5-.6.7-.4.3-.1c-.3-.2-1-.2-1.8-.1l-1.5.3-1.7.5Z" fill="#1D1D1B"/><path d="M160.6 123c1.5-1.3 2.7-2.7 3.7-3.9 3-3 4.7-5.6 6.4-8.3 1.7-2.6 3.4-5.3 6-8.6a69.6 69.6 0 0 0 8.5-18.7c-.3-1.3.6-4.8 1-8.7.4-4 .4-8.3-.1-11-.5-3.7-1.2-5.5-1-2.8l-.5-4.2c0-.8-.1-1.6-.7-3.6l.6 1.3c-.3-1.3-.5-2.9-1-4.6a32 32 0 0 0-1-1.9 45.7 45.7 0 0 0-2.2-6l-3-6.1c1.4 3.2-.9-1.4-1-.9a35.7 35.7 0 0 0-1.2-2.7c-2.2-4-5-7.1-6.3-9.5l-1.1-1.2c-1.9-2.1-3.2-4-4.9-6l-.3-.2-4.5-4.6a26.7 26.7 0 0 0-6.1-4.3c-2.4-1.2-4.9-2-7.2-2.5-2.2-.6-2.9-.6-3.5-.6l-3.3-.2c-2.6-.5-7.2-.8-8.8-1.2 3.7.4 4.2 0 8.1.6-.7-.2 1 0 2.3.1s2.6.4.9 0c-7.5-.9-16.9-2-23.8-1.7.2-.2-2-.4-4.5-.3-2.6 0-5.7.4-7.2.6l-.2-.1c-2.6.2-4.6.4-8.6 1.4-4.9 1-9.7 2-13.7 3.3a18.5 18.5 0 0 0-8 5.2c-2.1 2-3.5 4.2-4.2 5.3 2.5-2.8 5-5.5 7.7-7.5a18.4 18.4 0 0 1 8.6-3.4c-2.5.7-3.8 1.2-4.9 1.7-1 .6-2 1.2-3.5 2.4l1.8-1-1.3 1c.8-.4-1 1-.6 1 1.5-1.2 3.2-2.2 5-2.9-1.4.5-1.7.6-1.5.4l1.2-.8 3-1a35.2 35.2 0 0 1 3.8-1.2l-2.3 1C90.9 4.9 94 5 97.8 3.9l1.2.2 3.6-.6-.4.2 4.4-.5c2.4-.2 2.7-.4 3.1-.5a42 42 0 0 1 4.4-.2l-2.2.3h2c-1.3 0 1.6-.1 2.1-.2l3.6.1c.6 0 1 0 2.3.3 3 0 6.4.5 6.6.3l8 1a69.8 69.8 0 0 1 9.6 1.8 33.6 33.6 0 0 1 12 7.4l-.5-.3 2.5 2.2 3.8 4.2 3.8 4.9 3.8 5.4a41 41 0 0 0 2.3 2.9 50 50 0 0 1 4 7.9l-.8-1.5.8 2c1.5 3.3 1.5 3.5 3.2 7.9.9 3 1.3 4.4 1.7 5.2.3.8.6 1.2 1 2.6.3 2 .5 4 .6 6.1V63c.4 1.8.5 2.5.6 3.8 0 1.4.1 3.3-.2 7.7l.2-.4c-.5 2.9-.2 4.2-1 7.9a28.7 28.7 0 0 1-1.4 4.7l-1 2.9-1 2.6c-1.4 3-2.6 5.2-3.7 7.3-1.2 2-2.4 3.9-4.1 6.2-2.2 2.7-3.3 5-4 5.2l.4-.5-1.1.8.1.3c-1.3 1.6-3 4-4.4 5.1a46.5 46.5 0 0 1-3 3.9l2.7-2.8h-.1l3.6-4.3-1 1.4c1.3-1.5.4-.1.1.4l-2.1 2.5c-.4.5-.7 1-1.7 2-.5.6-1.5 1.5-1.2 1l-1.4 1.3-1.7 1.3c-1.2.8-2.3 1.4-2.3 1.6l-.4.1c.7.2 3-.3 5.4-1.8ZM130 432.5c3.7 0 7-.4 9.9-.7l5.5-.1a65.8 65.8 0 0 0 14.2-2.4c5.7-1.6 11.3-3.8 19-6l5-1.2a68.3 68.3 0 0 0 29.3-15.7c.6-1 2.1-2.7 3.8-5a60.5 60.5 0 0 0 9.6-19.3 53.8 53.8 0 0 0 2.7-16.5c0-1.2-.1-.8-.4 1.8a46.8 46.8 0 0 0-.5-10.6 25 25 0 0 0-1.4-4.2l.6 1.2.6 1.2c-.7-2.5-1.7-5.4-3.7-8.3l-2.4-3a42 42 0 0 0-8.7-8.8c-3-2.3-6.3-4.4-10.6-7.2 5.6 3.7-2.6-1.4-2.1-.8-1.3-.9-6.6-4-4.7-3-7.5-4.4-14.3-8.4-18-11.6a92 92 0 0 1-2.7-1.8c-4.4-3-7.7-5.8-11.5-9l-.6-.3a797.8 797.8 0 0 0-20-17c-3.7-3.1-7.6-6.3-10.8-9.3l-4.8-5c-.8-.8-1.7-1.4-4-4.7a68 68 0 0 1-7.4-15.4c1.2 3.4 2 5.2 3 7 1 1.8 2 3.7 4 6.9-.7-1.3 1 1.4 2.6 3.5a55.8 55.8 0 0 1-11.4-30.5c0-1.8.2-3.7.5-5.4l.2-1.3.4-1.2c0-.5.2-.9.3-1.3l.4-1.2c0 .6 1.4-3.3 4.2-7.3 2.7-4.1 6.7-8.3 8.7-10.4l.4-.1c3.5-3.5 6.3-5.9 12-11.4 1.6-1.7 3.3-3.4 4.7-5.2 1.4-1.9 2.5-4 3.3-6 1.5-4.4 1.9-8.7 2.2-12.7.4-5.8 1-12.2 2-17.7.9-5.5 2-10 2.7-12.5a87.7 87.7 0 0 0-4.5 20.1l-.8 9.3c-.2 3-.5 5.8-1.1 8.4.4-2.4.6-4.3.7-5.9l.2-4c0-2.4.1-4.5.4-8.3-.2 1.3-.3 2.7-.6 4l.3-3.3c-.4 1.7 0-2.7-.2-2.2-.5 4-.9 8-1 12 .4-6.4.4-2.2.5-.3l-.6 6c.3-1.3.7-5 .4-.7-.3 2.4-.9 5.6-2 8 .5-1.5.8-3 1-4.6-.6 3.6-1.9 6.5-3.8 9-2 2.4-4.3 4.6-6.9 7.2l-2 1.3-5 4.9.4-.7-6.2 6c-3.1 3.5-3.4 4.2-3.8 5a59.5 59.5 0 0 0-5 7l1-1.9 1.1-1.8-1 1.6-1.1 1.7c.7-1.1.3-.4-.3.7-.6 1.2-1.3 2.8-1.4 3.3-1.7 4.2-1.8 5.8-2 7-.3 1.1-.5 1.8-.7 4.7a44.6 44.6 0 0 0 2.3 12.9 60.7 60.7 0 0 0 19.3 29.2c4.1 4 7.3 6.6 10.4 9.4l11 9.2-.8-.5 5.1 4c3.4 2.9 5.9 4.8 8.5 6.7l9.6 7.2a93 93 0 0 0 17 10.1 129.2 129.2 0 0 1 11.6 7.4 105.4 105.4 0 0 1 11.3 9.5 43.5 43.5 0 0 1 7 9.7l1.4 3.1 1 2c.2.8.5 1.6.7 2.9.5 3.8.3 7.7-.5 11.5l.2-.2a37 37 0 0 1-1.3 7.2 84.9 84.9 0 0 1-5 13.6l.5-.6-3.3 6.2a38.2 38.2 0 0 1-11.6 12.7 80.3 80.3 0 0 1-9.6 5.8c-5.7 2.6-10.2 4-14.5 5.3-4.3 1.2-8.3 2.6-13.5 4.2-6.2 1.8-10.6 3.4-12 3.2l1.2-.2-2.5.1-.2.3a39.9 39.9 0 0 1-12.8 1c-3 .4-6 .8-9 1l7.1-.3h-.2l5.3-.3c2 0 4.1-.3 5.5-.4l-1.6.2-1.7.2c3.8-.2.7.2-.4.3-7.6.2-5.5.4-11.2.8h-3a72 72 0 0 1-7.5 0c-2.7-.2-5-.5-5.2-.4h-.7c1 .6 5 1.6 10 2Z" fill="#1D1D1B"/><path d="M64 263.6c1 6.5 2.2 12.5 3.3 17.6A267.4 267.4 0 0 0 81 331.7l2 4.2c0 .3.2.7.4 1l.4 1 .6 2.1c.3 1.5.4 3.1.5 4.9.2 1.7.3 3.6 1 5.5a17 17 0 0 0 5.8 8.2 13.4 13.4 0 0 0 9 3c3 0 6-.8 8.7-2 2.6-1.2 5.1-2.6 7.4-4 4.7-3 9-6.4 13.9-9.1 2.3-1.4 4.8-2.7 7.5-3.5 2.7-.9 5.5-1.3 8.4-1l4.3.7c2 .4 4.4.5 6.8.9a42.5 42.5 0 0 0 6.5.7h2.7c1.1-.2 2.2-.4 3-.7.4-.2.8-.4 1-.7l.4-.5v-.7c-.3-.7-1-1.3-1.9-1.8l-1.6-.8-.8-.3-.8-.3c-3.3-1.2-7-1.4-10.6-.8-3.5.5-6.8 1.7-9.8 3-3 1.2-5.9 2.6-8.5 3.8l-7 3.6c-11.1 5.6-17 9-8.4 4.8l-13 6.7c-2.6 1.2-4.8 2.4-11 6l4-2.7c-4.1 2.2-8.8 4.6-14.1 7.8a141.4 141.4 0 0 0-15.2 11.1 35.2 35.2 0 0 0-3.5 4l-1.5 2.3-1 2.5c-1.1 3.4-1.4 7-1.2 10.8.1 3.8.7 7.9 1.3 12.4-1.5-12 1 5.5 1 4.1A76 76 0 0 1 68 428c-.6 15.7-.6 30.1-1.3 39v5.8l-.2 3.6v1.7l-.4 1.6c-.6 2.1-1.7 4-3.2 5.6-3 3-6.8 4.8-11 6.5l-1 .6c-1.4.6-3 1.3-5 1.9-1.8.5-3.9.6-6 .7-4 .2-8 0-10.7.1a82 82 0 0 0-17.6 2.3c-2 .7-4 1.4-5.8 2.4-.7.3-1 1-1.1 1.6l-.1 1.7c0 .6-.3 1-.6 1.6-.4.5-.6 1-.8 1.6-.8 2.3-.4 4.7-.1 7 .7 4.6 1.6 9.1 3.8 12.8 1 1.8 2 3 3.1 3.9l.8.6.7.4 1.4.7 3.4 2.1 3.1 2 1.2.5.7.2.8.1h4.4c2.3 0 5-.4 7.8-1 2.9-.4 5.9-1 8.8-1.2 1.5-.2 3-.2 4.4-.2h9.8l-8 .2a49.6 49.6 0 0 0-11.8 1.2c-2.3.4-4.9 1-8.2 1.3a33.2 33.2 0 0 1-8 .2c-1.2-.3-2.2-1-3-1.4l-1.9-1.2c-.7-.5-.4-.1 2.2 1.6.7.4 1.4.8 2.2 1 .4.2 1 .3 1.3.3h1.3c1.7 0 3.4 0 5-.2 3.5-.3 7-1 10.4-1.6a66 66 0 0 1 10.6-.7c3.6 0 7.2 0 10.8-.2 7.1-.2 14.3-1 20.8-3a26 26 0 0 0 8.7-4.7c2.5-2 4.2-4.8 5.2-7.6 0 .4.6-1 1.3-3.9.7-2.7 1.3-6.8 3-11 .8-2 2-4 3.2-6a200 200 0 0 0 5-8.7l1.3-2.6c1-1.7 1.6-3.2 2.2-4.3l.4-.6a104 104 0 0 0 7.3-19.3c.7-2.6 1.3-5.7 2-9.2l1.6-6.2.9-3c0-.6.3-1.1.3-1.7l.1-1.6c0-2-.2-4.2-1.1-6.1-1-2-2.2-3.6-3.7-5a20.8 20.8 0 0 0-7.8-4.6c-1-.3-2-.6-3-.5h-.2l-.2.4c0 .3.2.3.3.4l.6.5 1.3.6a36.5 36.5 0 0 0 8 2.5 91.3 91.3 0 0 0 54.8-5.8c-12 4.7-24.7 7-36.4 7a83.2 83.2 0 0 1-24.5-3.6 15 15 0 0 1-3.3-1.6v-.1H108c-.2.1-.2 0 0 .2v.2h.8l1.7.5-1.5-.4H108.1v-.1l-.2-.3h.1l.3-.2.3.2.6.3 1.2.6c1.6.7 3.1 1.1 4.5 1.5 2.7.7 5 1 7 1.4 4.3.6 8 1 15 .8a91.9 91.9 0 0 1-1.4-.3c-1.5 0-.3-.1 1.1-.2a87.6 87.6 0 0 1-18.4-2l5.3 1c.8.2.8.3.4.2a59.9 59.9 0 0 1-13-2.9l-1.3-.4a5.2 5.2 0 0 1-.2-.1l1 .5 2.1.8.2.1c-.4-.1-1.5-.4-3.2-1.1l-.7-.4-.3-.2-.2.2h-.2v.2h-.2l.2.4v.3h.4l.8.1a18.7 18.7 0 0 1 9.5 5.6c-1.9-2-4.4-3.4-7-4.4 3 1.1 5.5 3 7.4 5.2 1.8 2.2 2.8 4.8 2.8 7.5v2c0 .7-.3 1.4-.5 2l-.2 1-.4 1.2-.6 2.2c-.9 3-1.6 6.2-2.3 9.5l-1.3 4c-1 4-2.3 8-3.9 12l.4-1.4c-1.8 4.7-4 9.3-6.4 13.8-3.9 7.3-4.5 8.4-5 9.7l-2.5 4.1c-.3.7-.8 1.4-1 2.1l-1 2c-1 2.6-1.5 4.9-1.8 6.2.5-2.5 1.1-5 2.2-7.5-1 2.2-1.8 4.5-2.4 6.8.7-2.4.3-.9-.2 1.4l-1.1 5.9c-1 3.5-2.4 5.4-3.5 6.7l-1.6 1.5-1.2 1c-1.5 1-2.5 1.7-6.8 3.2a48.7 48.7 0 0 1-14.3 2.8l-7.7.5H45c-5 .3-9.7 1.3-14.2 2a43.1 43.1 0 0 1-8.3.3H22l-.5-.1-2.6-1.5-2.7-2-1.5-1-.9-.5-.5-.2-.3-.2a10 10 0 0 1-4-3.7 21.8 21.8 0 0 1-2.8-6.5A57.7 57.7 0 0 1 4.7 509c0-.8.1-1.4.3-2a4.2 4.2 0 0 1 .6-1.2l.2-.2c0-.2.2-.3.3-.5.6-1.3.5-2.4.6-3a2.8 2.8 0 0 1 0-.4.1.1 0 0 1 .1-.1 184 184 0 0 0 1.4-.7l1.5-.6 1.5-.5 1.6-.5c2.1-.6 4.3-1 6.7-1.4 4.7-.7 10-.9 16.4-1l-1.7.2 6-.3c1.9-.1 4-.3 6-.8a67 67 0 0 0 10.2-4c2.9-1.4 5.5-3 7.7-5.4 2.2-2.4 4-5.6 4.1-9.5l.5-12a547 547 0 0 0 .5-43.8c-.2-2.7-.6-5.4-1-8l-.9-7.9a57.1 57.1 0 0 1 0-1.4v-3.6c0-1.2 0-2.3.2-3.5.2-3 .8-5.2 1.7-7 .3-.9.9-1.6 1.3-2.3l.8-1.1.9-1c2.4-2.8 5.4-5.8 12.3-10.2 4.7-2.9 8.3-4.8 10.9-6.3l5.6-3.4c2.7-1.7 4-2.6 8.1-5l19.3-9.5-.4.1c5.6-3 7.8-4 12-6 2-1 4.7-2.3 8.5-3.8 2-.7 4.2-1.5 7-2 2.7-.4 6-.6 9.5.4l-1.3-.5 3.2 1c.8.3 1.5.6 2.2 1.1l.3.5c0 .2 0 .4-.3.5a13.6 13.6 0 0 1-3.3.7c-1.9 0-4 0-6.4-.4-2.3-.5-5-.6-8.3-1.2l-1.3-.3-1.6-.4c-1.1-.3-2.5-.3-4-.4-3 0-6.4.9-9.7 2.4a63.5 63.5 0 0 0-9.4 5.4l-8 5.4a70.1 70.1 0 0 1-7 4 20.6 20.6 0 0 1-13.2 2c-2-.5-3.8-1.7-5.2-3a17.6 17.6 0 0 1-3.7-4.8 16 16 0 0 1-1.6-5.8c-.2-2.1-.3-4.3-.8-6.5-.2-1-.6-2.1-1-3.2-.6-1-1-2.2-1.5-3.3l-.9-2-.7-2-1.4-3.6-2.2-6.4c-1.1-3.7-1.9-6.2-2-7.4l.6 2-.8-4.3-.4-.4c-1.7-7-4-17-5-23L67 269.7l2.3 12.9v-.5l1.9 9.5 2.2 9.9a233.7 233.7 0 0 1-1.9-6.5l-1.5-7.4-.8-3.9c-.5-2-1-3.7-1.8-8.9a423.8 423.8 0 0 1-2.8-18.7c-.7-4.9-1.2-9-1.4-9.3v-1.2c-.4 2 0 9 .9 18ZM16.4 138.8l-1.1-5-.8-5.6-.4-2.2v-.6l.2-.2.1-.3c.3-.4.4-.5 1.1-.7.7-.1 1.8-.2 2.8-.7l.7-.4.4-.3.3-.2 1-.7c.7-.5 1.6-1 2.2-1H24c.5.2 1 .2 1.4.2h1.8l1-.5.2-.2.1-.1h.1l.5-.3c.4-.2.9-.7 1-1.2l-.3-.2h.2l.1.2.1-.1.2-.1a5 5 0 0 1 1.8-.5l1.9.1 1 .4.5.4.2.4.2.5.3.5.1.5a3 3 0 0 1 .1 2l-.2 1c-.2.5-.6 1.5-.5 2.4 0 1 .4 2 .8 2.8l1.5 2.6 3.4 5c1 1.5 1.9 2.9 2.4 4 .5 1.6.4 2.9.4 3.4v.3c.1-.1.3-.5.4-1.1 0 .6-.2 1-.3 1.5l-.4 1c0 .3-.3.4-.5.6l-.5.4c-.6.5-1 1.1-2.7 2.2l1-1-1.8.9c-.7.2-1.3.3-2.2.3h-2c-2.3-.5-4.3-.7-6.3-.6l.3 1.4c1.7-.8 3.8-1.1 6.3 0l-1.1-.5.6.1c.8.2 1.9.7 1.8.5l1.8 1.2c.6.5 1 .8.5.5a35 35 0 0 1 8 8l1.3 1.2c2.2 1.9 4 3.5 6.6 4.5l.4-.1c.8.3 2.1.3 3.3.5.6.1 1 .3 1.4.7.3.3.4.8.3 1.1 0 .6-.3 1.3-.4 2l-.6 2.3-1 4.7h.3c0-2 .4-4 1.2-5.7l1.4-2 .6-1c.3-.6.5-1.2 2.1-2.7 2.1-1.9 5.9-4.7 7.3-5.5-3 2.2-3.2 2.8-6.4 5.3.7-.4-.6.7-1.6 1.7-.9 1.1-1.6 2-.4.8 2.4-3 6-5.3 9.5-7.8a38 38 0 0 0 8.4-8.4c0 .4 1.4-1.3 3-3.4l4.5-5.7h.2c1.8-2 3-3.4 6.1-6.4 1.9-1.7 3.8-3.3 5.9-4.5 2-1.1 4.3-1.6 6.4-2l4.8-.8a17 17 0 0 1 4.6-.2c1.4 0 2.8.3 4 .7l2.6 1c-1.7-1-3.5-1.9-5.3-2.2-1.9-.3-3.7-.3-5.5 0-3.4.6-6.6 1-9.4 1.7 2.6-.8 4-1 5.2-1.3 1.3-.3 2.3-.7 4.4-1.1l-2.2.2a65 65 0 0 1 2-.7c.5-.1 1-.2.9-.3l-3.3.5-3.2.7c3.5-.6 1.3 0 .3.4l-3.3.8c.8-.2 2.8-.6.5.1-1.3.3-3 1-4.4 1.8.7-.6 1.5-1.1 2.3-1.5a34.8 34.8 0 0 0-9.4 6.5l-1.2.6c-1 .9-1.9 1.8-2.7 2.8l.2-.4a72.3 72.3 0 0 0-3.1 3.5c-1.5 2-1.6 2.3-1.8 2.8l-2.7 3.5 1.1-1.9-1.3 1.6c1-1-.9 1.4-1.1 1.8l-2.4 2.7-1.7 1.6-3.1 2.8c-1 .7-1.8 1.3-1.7 1.4-2.2 1.5-4.6 3-6.8 4.9-2.3 1.8-4.3 4-5.7 6.6a15 15 0 0 0-.8 2.4c-.6 1.5-1 3-1 4.3l-.1 15.1 3.7-14.6 1.2-5 .6-2.8.2-.8a4.8 4.8 0 0 0 0-1.3c0-1-.6-2-1.5-2.5l.7.5c-.4-.4-.8-.7-1.3-.9l-1.2-.2-1.8-.2c-2-.3-3.3-1-4.7-1.8-1.4-.8-2.7-2-4.4-4-2-2.2-3.3-3.9-4.7-5a14.5 14.5 0 0 0-3.2-2.3c-1.3-.8-2.7-1.7-4.3-2.3-1.6-.7-3.3-1-4.8-.9a11 11 0 0 1 2-.1l-1.3-.1h-1.2c-1 .2-1.7.5-2.2.7l-6.5 2.4h7l2.6.1 4 .5c1.7.3 3.2.2 4.2-.2 1-.3 1.5-.8 2-1.1l1.9-2.3.5-.6.3-.3c.1-.1.3-.2.3-.4l.7-1.6a8 8 0 0 0 .3-3.5v.2c-.3-1-.7-1.6-1-2.2a33.6 33.6 0 0 0-2.3-4l-2.9-4.1v.4l-1.8-3.1-.4-.8-.3-1c-.2-.6 0-1.3.4-2.1.2-.4.6-1.1.7-2 .1-1-.2-2-.5-3l-.4-.8a3.7 3.7 0 0 0-.4-.8c-.4-.5-1-.8-1.5-1a21.5 21.5 0 0 0-1.6-.4h-1.4a7 7 0 0 0-2.5.5c-.3.1-.7.3-1 .7l-.4.5-.1.3c-.2 0-.6.2-.9.5l-.2.1-.1.2-.4.1c-.5.2-1 .2-1.7.2l-1.8-.1a4 4 0 0 0-1.7.4c-1.2.5-2.1 1.4-3.4 2.2-1.5.8-3.2.5-4.1 1.1-.5.3-.8.7-1 1l-.6.6.3-.6a3 3 0 0 0-.9 1.2l.3.2c-.1 1.1.2 2.4.3 3.6l.3 3.4 1.3 4.7-.6-3.8v.1l-1-5.7.5 1.7c-.3-2 .1-.3.2.2.6 4 .7 2.9 1.2 6 .1.6.3 2 .1 1.5.4 1.8 1 6.6 1.2 6.7v.3c.5-.6.7-2.8.7-5.4Z" fill="#1D1D1B"/><path d="M138.4 163.1c-.9 3-2.7 5.7-4 8.1l-6 8.3a30.8 30.8 0 0 1-5.6 6.2 39.8 39.8 0 0 1-7.6 4.2 435.8 435.8 0 0 1-9.6 4.3 519 519 0 0 0-17 8.2l-8 4c-2.8 1.4-5.5 3-8.5 4.3a19.4 19.4 0 0 1-14.6 3c-3.4-.8-6.7-2.5-10-4l-4.5-2-2-.8-.6-.2-.7-.3-.3-.1-.4.1-.6.3c-.2 0-.4.2-.5.3-.2 0-.3.2-.5.3l-.7.6-.9 1.5a4.9 4.9 0 0 0-.3 2.8l.6 2.8.8-2.6c.4-1.4.3-2.2.2-2.3 0 0 0 .7-.6 2.1l-.5 1.3V211.8v1.6l.5-1.2c.8-2.2.4-3.9.1-5a16 16 0 0 0-1-2.6c-.6-1.4-1.2-2.6-3.7-5.6l1.8 2-5.1-7a80.7 80.7 0 0 1-2.4-3c-2.4-3.9-4-7-5.4-10.4a40.9 40.9 0 0 1-2.8-11c-.2-1.3-.4-3.5-.5-3.1 0-1.6-.3-7.6-.1-5.5-.2-4.2-.5-8.3-1-11.9-.5-3.6-1.2-6.6-1.8-9l-.3-.8-.6-1.6-.2 1.6-.3 2.2c-.9 5.2-2.2 9.2-3.8 13.8v.7a69.8 69.8 0 0 1-4.6 11A43.3 43.3 0 0 0 1 180.3c-.4 4.8.5 9.6 1.4 13.9.8 4.2 1.2 5.4 1.5 6.5.3 1 .7 2 1.3 6 .3 2.5.4 6 .5 9 .2 3.2.8 6 1.3 7.4a25 25 0 0 1-1.6-7.2l-.5-7.7c0 1.4-.3-1.7-.8-4.3a55.9 55.9 0 0 1 .8 9.4c.1 2 .2 4 .5 5.8.3 2 .8 3.9 1.6 5.6.8 1.8 1.8 3.4 2.8 5 1 1.6 2 3.2 3.2 4.6a8.7 8.7 0 0 0 4.4 3c1.7.5 3.4.4 5 .2-1 .5 16-1.4 21.6-2h.3l7-.6 2-.2 2-.4c.8-.2 1.6-.5 2.2-1.3a6 6 0 0 0 1-2.5c1.1-5 1.5-10 1.4-14.9h-.3c.2 4 .6 7.7.9 11.2.5 5.8 1.4 12 2.2 17.4l1.8 12.5c-.4-7-1.4-13.8-2.2-20.1-.8-6.3-1.5-12.2-1.6-17.4.3 4.9.7 7.4 1 9.7l1.3 8-.3-4 .5 3.3c0-1.7.6 2.5.7 2l-1.5-11.6c.7 6.3 0 2.2-.4.4l-.6-6c0 1.4.4 5.1-.2.8l-.5-6.2h-1.9v2l-.2-2H61l.4 2.6-.3-2.7-2.5.2a48 48 0 0 1-1.2 12.5c-.3 1.4-.5 3-1 3.7-.4.3-.7.3-1.2.4l-3.1.4-3.5.4.8-.2-8.3.8c-4.5.5-5.1.7-5.9 1l-8.1.8 4-.7-3.8.3c2.6-.1-3 .5-4 .7-4 .4-5 0-5.8-.3l-1-.6a24.6 24.6 0 0 1-4-4.8 68.7 68.7 0 0 1-2-3.3c-1.1-2-1.7-3.4-2-3.5-1.6-4.1-1.3-9-1.6-14.3-.4-5.2-1.6-10.2-2.5-14.7l-.9-4c-.7-5.3-.7-9.1.1-13a68 68 0 0 1 4.6-12.8l-.3.8a142.2 142.2 0 0 0 7.5-25.7l-2.7.3.5 1.8c1.4 5 1.7 9 2 12 .4 3 .6 5 1 6.8l.6 8.5c.2 3 .7 5.8 1.3 8.2-.4-1-.6-2-.8-3l.7 3.9c1 3.4 1.8 5 2.7 7 1 1.9 2 4 4.6 7.7 3.4 5.1 5.3 7 6.4 8.2 1.1 1.3 1.9 1.8 3.2 3.9 1.1 2.2 1.6 4.8.7 7H37c0-1 .3-2 1-2.8l-.1.1.6-.7.6-.5h.6l.7.3 3 1.3 4.6 2.1 3.6 1.7c1.4.6 3 1.2 5.1 1.7l-.7-.4c2.7.9 4.8 1 7 .7 2.1-.3 4.5-1 7.7-2.3l8.2-4 9.8-5c11.3-5.3 16.5-8.4 26.2-12.7 3-1.2 5.4-2.4 7.2-3.5l3.4-2.3-.9.7 2.1-1.3v-.4c2.8-2.7 5.8-7.4 8-10 1.5-2.5 3-5 4.3-7.8-1 2-2.4 4-3.7 6l.2-.1c-1.3 1.9-4.4 6.6-6.2 8.6l1.8-2.6c-2.2 3-.5.4 0-.5a60.6 60.6 0 0 0 6-9.3c.8-1 2-3.1 1.6-2.3.3-.7.9-1.8 1.3-3l1-3.8c.3-2.6.4-5 .3-5v-.7l-1 3.3c-.4 1.7-1 3.7-1.9 5.7Z" fill="#1D1D1B"/><path d="m22.5 143 .2.2v.4s0 .2 0 0c.1.8 0-.2 0 .4v.6-.7.3c0-.3 0 .2 0 0v.4-.2c0-.1 0 .4 0 0 0 .2 0 0 0 0v.1h-.1v.3l-.1.5V144.4v.3V144.4c0-.1 0-.1 0 0v-.2c0-.1 0-.1 0 0l-.1.4v.6l-.1.3v.2l-.1.6v-.6.1-.3s.1 0 0 0v1.2-.4h.1v.3-.2.3-.2l.1.2v-.2c0 .3.1 0 .2 0v-.2c0 .2 0-.3 0 0v-.6c.1-.2.1.1.1.1V146.1s0 .1.1 0v-.7.3c0-.5 0-.2.1-.2v-.3c0 .3 0-.1 0 0 0 0 0 .3 0 0 .1.3 0-.5 0-.4 0 .2 0-.3.1.1v.4-.3l.1.3v-.5c0 .1 0 .2-.1 0v-.3l-.1-.2v.2-.1l-.4-1.4Z" fill="#1D1D1B"/><g opacity=".8" fill="#373735"><path d="m43.4 113.3-.2-.5v.3l.2.2Zm-.5-1zm-.4-.8Zm.3.7-.1-.2v.2Zm0 0Zm-.8.2v-.3l-.7-1c-.2-.2 0-.6-.2-.7-.3-.4-1-1.2-.7-.6l1.3 2.1 1.2 1.9.3.5c0-.3-.2-.5-.3-.8-.1-.3-.6-.6-1-1.1Zm3.4 4.3-.2-.2-.7-1v.2c.1.2.2.2.1 0 .2.4.5.9.9 1.2v-.2Zm.3.3-.2-.1.2.1Z"/><path d="M41.3 109.9c-.6-1.1-1.1-2.2-1.8-3.1l-.3-.2v-.3c-.2 0-.3-.2-.4-.3l-.2-.1c-.1 0 0 0 0 0v.2-.2a.6.6 0 0 0-.3-.2H38h.4l.3.2-.5-.3h-.6a.8.8 0 0 0-.2 0 2 2 0 0 1-.7.2l-.2.1-.9.5-.3.5H35l-.1.4.4-.2c.2 0 .1-.5.4-.5-.3 0-.2.4-.4.5l-.4.2-.5.8c0-.3.2-.6.5-.8v-.3l.3-.1c0-.2.2-.4.3-.5l-1.1 1.4a5.6 5.6 0 0 0-.5 3.2v.2s0 .1 0 0l-.6-.1h-.8c-.6 0-1.2 0-1.8.2-.6.2-1.2.4-1.8.8-.2 0-.3.2-.4.3l-.4.5-.5.6c-1.6 1.2-3.7 1.9-5.2 3.6l-.5.8c0 .2-.2.3-.3.5v.3h-.3a1.6 1.6 0 0 1-.1 0v-.1H20a6.1 6.1 0 0 0-2.6 1.3c-.4.4-.8.9-1 1.4-.2.5-.3 1.1-.3 1.6v.2s-.1.1 0 0l.2.1.4.1.2.1-.1-.9h-.2l-.3.1-.4.2-.4.5c-.3.5-.2.8-.2 1l.2.6.4.8 1.3 2.2V128.8l.1.7c.2.5.5.9.9 1.1l.5.4.5.2h.5c.3-.1.4-.5.4-.5 0-.4-.1-.8-.3-1l-.4-.4-.2-.2a.7.7 0 0 1 0-.4v-.5c0-.6-.2-1.3-.4-1.9.3 1 0 .6-.4 0l-.7-1.2c-.2-.4-.5-.9-.4-1.1v-.1h-.5V124.2c.2.1.2.2.2.4h.2l.6-.3.2-.3.1-.2.1-.4v-.6l.5-1.2.6-.4.8-.4.7-.2h.3l.5.2h.9c.4-.2.5-.7.8-1v-.4l.1-.2.2-.4.3-.5a11 11 0 0 1 2.2-1.7c1-.6 2-1.1 2.9-2.1l.3-.5.3-.4.3-.2a4 4 0 0 1 1.1-.5l1.4-.2h.5l.9.2 2 .7.3.1c-.3-1-1-2.7-1-3.4v-1.4a3 3 0 0 1 1-1.5c.5-.4 1-.7 1.7-.8-.7 0-1.2.3-1.7.8-.4.3 0-.5.4-.7h.5l.5-.2h.2l.2-.1.1.2h.2l.3.2c.2 0 .4.2.4.4a12 12 0 0 1 .7 1l.2.3v-.2c.2.1.2.3.3.5l-.2-.5-.1.2 1.5 2c-.2-.4-.5-.8-.6-1.3 0 .2 0 .2-.1 0v-.2c.2.3.5.7.6 1.1l.2.2v.5l-.2-1Z"/><path d="m38.3 105.7.3.1a1 1 0 0 0-.5-.2h-.5l.7.1Z"/></g><path d="M157.5 144.3c.3-1.3.5-2.5.5-3.8 0-1.3-.2-2.4-.5-3.4-.5-2.8-1.7-5.3-3.4-7-1.8-1.8-4-2.7-6-3.3l-2.9-.7-3-.8c-2.1-.6-4.4-1.1-6.9-2a46.6 46.6 0 0 1-8.6-3.6 11 11 0 0 1-2.1-1.7c-1.3-1.3-2.4-3-3.4-4.6l-1.6-2.8-1-2.7c-.3-.6-.7-2-.9-3.8V102l.1-.5c.1-.2.2-.6.5-.7.3 0 .5.2.9.5a31 31 0 0 0 6.3 3.6 7 7 0 0 0 3.9.4c.6-.1 1.3-.5 1.7-.9.5-.4.8-1 1-1.4.6-1.2.6-2.3.7-3.2a9 9 0 0 0-.2-1.9c-.2-.7-.2-.5-.3 1.3l-.2-3.5-.2-1.9c-.3-1.2-1-2.1-3-3.7l1.6 1-2.1-2c-.7-.6-1.5-1.3-2-2-.6-.5-.8-1-.7-1.6.3-.8 1.3-1.4 2.1-1.8l2.6-1.4 2.6-1.5 1.2-1.1c.4-.4.8-1 .8-1.8a8 8 0 0 0-1.4-4.2 10 10 0 0 1 .7 1.4l-.5-.7c-.5-1-1.6-2-1.5-1.8-.3-.4-1.2-1.4-2-2-.7-.6-1.3-1-.7-.7a6 6 0 0 0-2-.9c-.8-.1-1.6 0-2.3.2a6.3 6.3 0 0 0-3.1 2.6c-.7 1.2-.9 2.3-1.2 3.3-.3 1-.6 1.9-1 2.5l-.4.9-.2.2-.4.1c-.4 0-.8 0-1-.2-.2-.3-.2-.7-.2-1 0-.8.2-1.6.5-2.3.5-1.5 1.2-2.8 2-4.2l.2-.5c.5-.9 1.3-2.2 2.4-3.2 1.1-1 2.5-1.5 3.4-1.7 2.6-.7 6-.4 8.5 1.8 2.5 2 3.9 5.2 4.5 8l.7 4.6c.1.7.3 1.4.3 4.1-.2 3.4-.7 9.3-1.3 11.3.3-2.4.4-3.7.4-5l.4-5.3c-.2 1 0-1.2-.1-3a77.1 77.1 0 0 1-1.4 14.2c-.5 2.6-1.6 5-2.3 7.3l-.9 3.5a7 7 0 0 1-1.4 3.1c0-.2-.4.3-1.3.7-1 .5-2.4.8-4 .6-1.6-.1-3.3-.6-4.8-1l-1.2-.2a.8.8 0 0 0-.4 0l-.2.4.2.5.5.8.4.7v.3c.8 1.5 1.7 2.6 3 3.8 1.3 1 3 2.1 5.4 3.1 3 1.2 6 2 8.9 2.6 3 .5 5.7 1 8.2 1.7 1.9.6 4 1 6.1.7 2.1-.4 4-1.3 5.5-2.6 1.4-1.2 2.5-2.5 3.3-3.7l2-3c-1.6 1.9-3 3.8-4.6 5.3a12.3 12.3 0 0 1-5.6 3.2c-2 .4-4.1.2-6-.3l-5.5-1.5 4 .8 2.5.5c1.5.2 2.9.4 5.1-.2-.8 0-1.6.2-2.4.1h1l1-.3c-.6 0-.2 0 .2-.3l.8-.4c-1 .3-2.2.5-3.3.5l-1.7-.2-.9-.2-.4-.1-.5-.1 1.2.3.6.2c.2 0 .2.1.1.1l-1.8-.1-4.1-1c1 .3 3.4.9.4.4-1.6-.3-3.8-.5-5.5-1l3.2.2c-2.5-.3-4.5-.7-6.5-1.4l-6.1-2.4-1-1a15 15 0 0 1-3.3-2.6l.4.2c-.6-.5-1-1.2-1.5-1.8l-.5-1-.4-.9-.4-.5-.5.2-.6.3h-.6l.2.6v1.2h.5l1 .3h1.2c1.2.4 2.4.6 3.5.6h2.7a11 11 0 0 1-3.2.3h3c-1 0-.4 0 .6-.3a7.3 7.3 0 0 0 1.6-.6 6 6 0 0 0 1-.8c.7-.5 1.2-1.2 1.6-1.7l.7-1.4.5-1.7c.2-.8.2-1.1.8-2.7l1.8-5.2a62.4 62.4 0 0 0 1.5-23.7l-.8-3a13 13 0 0 0-6.4-8.1c-1.4-.8-3.1-1.2-5-1.2-1.7 0-3.7.5-5.7 1.7l.6-.5-2 1.6a21.5 21.5 0 0 0-5.5 10.5l-.1 1c0 .5 0 1 .3 1.6.3.6 1 1.2 1.7 1.3h1.3l.5-.1c.6-.2.8-.5 1-.8l.6-.7.6-1.3 1.4-4.5.1-.3a1 1 0 0 1 .2-.2 5 5 0 0 1 1.4-1.4c1.4-.8 2.3-.6 3.4-.3 1.2.6 2.4 1.8 3.4 3 .9 1.3 1.5 2.9 1.4 4l-.3.6c.2-.3.2-.4.2-.7v-.4.4a.8.8 0 0 1-.3.4l-.4.4c-.7.6-1.5 1-2.1 1.4l-1.9 1-2.2 1.1-1.4 1.1-.8 1c-.3.4-.5 1-.5 1.6l.1 1.1.4 1 .4.6.5.5c.6.7 1.1 1.1 1.6 1.5l2 1.3 1.1.8c.4.3.8.6 1 1.3.5 2.5.7 5.2 0 7.4l.1-.1c-.1 1-.4 1.6-.8 2-.5.4-1 .7-1.7.7-.8 0-1.7-.2-3-.8a22 22 0 0 1-2.4-1.2l-1.4-.9-.7-.5-1-.6.4.5c-.8-.6-1.5-1.4-2.4-1.3-.5 0-.8.4-1 .7l-.4 1.3v2.5l.3 3.1c0 .6.2 1.5.5 2.5l.6 1.7 1 1.7a24.5 24.5 0 0 0 6.5 8.2l2.3 1.4c1.5.7 3 1.2 4.4 1.7 2.9.9 5.6 1.4 9 2.4 2.1.7 4 1.2 5.3 1.5 1.4.4 2.3.7 2.6 1l-.7-.2 1.3 1 .3-.2c1.1.6 2.4 1.5 3.3 2.7 1 1.2 1.5 2.6 1.7 3.6.8 1.8 1.3 3.8 1.2 5.8.1-1.5 0-3.1-.3-4.7v.1c-.2-.7-.6-2-1.3-3.2-.6-1.2-1.5-2.3-2.2-3l1.5 1.6c-.7-1-.8-1-.5-.9l1 1 1.2 2.5.5 1.4c.2.8.5 1.3.7 3.3 0 1-.3 2.6-.3 2-.2 2.3-2.2 8-1.9 8.2v.5l1.2-2 1.7-4Z" fill="#1D1D1B"/><path d="m130.9 457.6 3.2-.5 3-.6 5.5-1.3c9.1-2 15.7-4.6 22.4-7.2 6.6-2.6 13.1-5.5 22-9.2a1044.9 1044.9 0 0 0 21-9.7c3.2-1.7 6.3-3.7 9.2-6.1 3-2.5 5.6-5.5 7.9-9 .5-1.4 1.8-3.8 3.1-7s2.7-7.3 3.8-11.6c2.2-8.6 3.8-18.2 4.1-24.3.8-8.1.6-12.6 0-6.4.7-11.2 1-8.3 1-17.8l.2 3.2.1-5v-5.6l-.5-4.6a170.7 170.7 0 0 0-1.2-14.5l-1-7-1.2-8.1c.5 4 .3 3 0 1.3-.4-1.8-.9-4.4-1-4 0-1.8-1.6-9-1-6.5-2-10.2-5-19.2-6.3-24.9l-1.3-3.6-2.8-8.5-2.8-8-.5-.8-2.8-6.9-2.6-6.6a315.5 315.5 0 0 0-22.9-43.7c-2.9-5.3-8.5-14.2-10.3-17.5 4.5 7.2 5.4 8 9.8 15.7-.7-1.5 1.2 1.7 2.8 4.5 1.6 2.7 2.9 5 1 1.5a866 866 0 0 0-14.1-23.6c-5-8-10.5-15.4-15.7-21.3a194.7 194.7 0 0 0-6.7-7.7c-1-1-2-2.2-3.3-3.2l-3.3-3-3.2-2.4a88.4 88.4 0 0 1-2.6-1.9l-.3-.3c-1.2-.9-2.3-1.7-3.5-2.4l-3.8-2.2-4.4-2.1-2.8-1-3.1-1.2-4-1c-.8-.3-1.4-.4-2.1-.5l-2.1-.3-2-.4-2.1-.1c-.7 0-1.4-.2-2-.1h-2a49.2 49.2 0 0 0-25 7.2c-3.2 1.8-6 3.9-8.8 6-5.2 4-9.2 8-11.3 10.2A134 134 0 0 1 84 131c3.3-2 6.6-3.7 10-4.9 3.3-1.2 6.6-2 9.7-2.2-.7 0-1.4.2-2 .3l-1.9.4-1.6.4-1.4.4-4.4 1.7a63 63 0 0 0-8.5 4.7l2-1.1 2.2-1c-1.2.5-2.3 1.2-3.4 1.9 1.8-.9-2.5 1.8-1.9 1.7 4-2.5 8-4.7 12.4-6.2-3.5 1.2-4 1.5-3.6 1.2.5-.4 2.1-1 3-1.6l3.5-1 3.5-1c-1.7.4-6 1.4-1 0l1.2-.2 1.1-.2 2.5-.4 2.6-.2h2.5c-1.9 0-3.8.3-5.6.7 4.3-.7 8.1-.5 11.9.2 1.9.4 3.8.6 5.7 1.2l2.9.8 3 1 2.3 1.3 3.7 1.8 1.9 1 1.7 1-.8-.4 2.1 1.3 2 1.4c1.4 1 2.8 1.8 4 2.9 1.1.8 2 1.4 2.6 2l1.6 1.2a77.1 77.1 0 0 1 8.5 8l-1.7-1.7-1.8-1.6 1.6 1.6 1.5 1.6.6.6 1.6 1.7 1.1 1.2c3.3 3.8 4.3 5.3 5.1 6.3l3 4.4c4 5.1 8.1 12 8.5 12.2a623.6 623.6 0 0 1 24.4 43.8l3.4 6.9c2.1 4.5 4.2 9 7 15.5l-.5-1 3 7 4.5 12a398 398 0 0 1 2 6c.8 2 1.5 4.5 2.4 7.5 3.5 12.7 5 18.4 6.3 22.5 1.6 6.3 2.6 14.3 3.3 20-.1-1.3-.4-2.5-.6-3.7l.5 4.7c.6 4.1.7 6.3 1 8.8l.8 10.6c.3 14.8.7 12.5.8 18.8l-.5 7-.8 7.1.1-.3c0 2-.2 3.5-.3 4.8a2877 2877 0 0 1-1.4 10c-.6 2.7-1.2 6.3-2.3 11l.4-.7-2.3 8a48.5 48.5 0 0 1-6 12.8 38.2 38.2 0 0 1-4.2 5c-3.2 3.2-7.5 6-10.7 7.8-3.3 1.8-6.3 3.1-9 4.4l-7.7 3.6c-4.8 2.3-9.4 4.4-15.4 6.9l-9 3.6c-2.5 1-4.1 1.6-4.9 1.6l1.3-.5-2.8.6-.2.4c-4.5 1.5-10.9 3.6-14.8 4.3-3.5 1-7 2-10.5 2.8l4-.8c1.5-.3 3-.5 4.4-1h-.3c2.7-.5 9.3-2.5 12.4-3.5l-3.7 1.3c4.4-1.3.8 0-.4.4a364.2 364.2 0 0 0-7.3 2c-1.3.4-2.3.8-5.7 1.5a66.8 66.8 0 0 1-12.4 1.4c-3.3.3-6 0-6.2.2h-.9a23.3 23.3 0 0 0 7.9 1.1h4.3ZM23.4 115.5c.3 0 .5.2.7.3 1 .7 1.7.7 2.8 1.2 1 .4 2 .5 3 .6.2-.2.7-.2 1.3-.3.6-.1 1.3-.3 1.6-.7.4-.3.5-.6.2-.4.5-.5.5-.3.9-.8v.3c0-.2.3-.3.4-.6v-.3c.5-.7.3-1.2.3-2 0 .5-.1-.2-.3-.2v-.4c-.1-.7-.7-1-.8-1.4l-.3-.2-1-.5-.7-.2.5.6h.1c.3 0 .6.4.7.6l1.5 1.5c.2.6.3.2.6.8 0 .4.2 1.2 0 1.4l-.2-1.2-.2-.3c0-.2-.2-.3-.1 0 .3.4.4 1 .2 1.5a3 3 0 0 1-.9 1.4l-.6.1-1 .2a9.3 9.3 0 0 0-1.2 0h-2c-.5-.2-1 0-1.4 0l-.8.6c1-.3 2-.6 2.7-.3-.7 0-.7 0-1.3.2h.3l-.2.1c.1 0-.2.2-.1.3l.8-.1c-.4 0-.2-.2 0-.2h.4c-.1 0-.4 0 0-.1h.6l-.4.2c.6-.1 1 .2 1.6 0l.1.3H32.5c.3 0 .4-.2.5-.3l.7-.2-.3.2h.3c-.2 0 .3-.2.3-.3l.6-.4.4-.3c.3-.5.6-1.1.5-1.2.1-.5.2-1 0-1.5a5 5 0 0 0-.4-1.3l-.3-.2c-.5-.9-.9-1.1-1.5-1.7l-.4-.3-.2-.2-.6 1.2c.3 0 .6 0 .9.5l.8.9c.2.3.2.8.1 1v-.1l-.1.2-.2 1c-.4.6-.2.7-.4 1l-.7.4c-.3.4-.2.3-1.3.7-.4 0-.5.2-1 .3l-1.5-.2c-1-.3-1.4-.1-2.2-.5-.4-.3-.8-.3-.8-.5h.1v-.2l-.1.1c-.3-.2-.7-.3-.8-.6l-.7-.2.5.3.6.4h-.2c.2.1 0 0 0 0-.5-.3-.5-.1-.9-.4l-.1-.1c-.2-.2-.7-.6-.8-.5-.2.2 0 .6.1 1Zm24-37.4c.3.2.5.5.9.6.2.4.4.6.7.8l.9.4c.6.2 1.1.3 1.8.7 1.3.4 2.3.4 3.5.6.3-.4.8-.3 1.5-.4.7 0 1.5 0 1.9-.5.5-.3.7-.7.2-.7.7-.3.7.1 1.2-.3v.3l.7-.1.2-.4c.8 0 1-.8 1.8-1-.6 0 .1-.2 0-.4.1 0 .6-.2.5 0l.8-.6a1 1 0 0 1 .2 0l.1-.1v-.3l-.2-.2h-.4v.3a1 1 0 0 1-.6.4 3 3 0 0 1-.5.1v.2c-.2.2-.7.4-1 .3-.7.2-1.3.9-2 1.4-.7.1-.2.4-.8.8-.4 0-1 .5-1.3.4.5-.2.4-.7 1-.8-.2 0 1-.6.3-.6-1 .8-2.4 1-3.4 1.6 0-.2-.3-.2-.7-.2h-1v-.2l-1.3-.4c-.7-.3-1.4-.7-1.7-1.3-.6-.8-1.7-1.2-2.3-1.3.7 1.1 1.9 1.4 2.2 2.5-.6-.6-.7-.5-1.4-.8l.2.4-.3-.1c0 .2-.4 0-.4.2l.8.7c-.4-.5 0-.4.3-.4l.4.3c-.1-.1-.3-.4 0-.2.2.1.5.2.6.5h-.5c.3 0 .5.3.7.6.2.2.5.5.9.5v.4l.8.3h-.1l1 .4c.5 0 .6-.2.7-.3h.9a2 2 0 0 1-.5.2h.5c-.3 0 .3-.1.4-.2h1.2c.4-.3 1.1-.3 1-.6 1-.1 1.8-.5 2.5-.8l.3-.3c1-.2 1.2-.6 2-1v.1l.4-.4h.3l.4-.3.4-.3.8-.6.2-.1h.1l.2-.3.2-.3.1-.2v-.3c.1-.4 0-.9-.3-1.1a1.5 1.5 0 0 0-1-.5H63.8l-.5.2a1.4 1.4 0 0 0-.7 1c-.3.4-.9.4-1.3.6l.2-.3h-.3l-1.2.7c-1 .3-.6.8-.9 1.2h-1c-.3.6-.3.4-1.5.6v.3c-.4-.3-.5.1-1.1.1-.3 0-1.1-.4-1.7-.2-.9-.4-1.5 0-2.4-.4-.4-.3-1-.2-.8-.6h.1V78l-.1.2c-.2-.3-.6-.5-.6-.9-.3 0-.6 0-.8-.2l.3.5c.2 0 .6.3.7.5h-.3c.2.2 0 .1-.2.1-.3-.6-.4-.2-.8-.6 0 0-.2-.3 0-.3-.3-.1-.5-1-.8-.8v-.1c-.4.4-.6 1-.7 1.7Z" fill="#1D1D1B"/><path d="M140.8 512.3c0 2.8 0 5.4.4 7.6a30.8 30.8 0 0 0 3 11.3 107.6 107.6 0 0 1 1.3 3c.8 1.9 1.4 4 2.2 6.4.4 1.1.8 2.4 1.4 3.6.2.7.6 1.4.9 2l.7 1.8a51.3 51.3 0 0 1 2.5 13.7c0 2.2-.3 4-1.4 5.9l-2 2.8c-.7 1-1.3 1.9-2.2 2.7a21.7 21.7 0 0 1-9.5 6.6c-2.5 1-5.3 1.5-7.9 2.2-2.5.6-5 1-6.8 1.5-5 1-7.7 1.7-3.8 1.3-7 1.1-5.2.3-11 1.4l2-.6c-2 .2-4.3.6-6.7 1.7l-2.5 1.6a26 26 0 0 1-8.2 3c-2.6.4-5.6.3-9.2-.6 2.4.6 1.9.5.8.3-1.1-.1-2.7-.6-2.5-.4-1.1-.3-5.4-2-3.9-1.5-3-1.1-5.9-2.1-8.2-3.5a12 12 0 0 1-5-4.6c-.5-.5-.9-1.2-1.2-1.9a8.2 8.2 0 0 1-.8-5.2 9 9 0 0 1 2.4-4.5l.2-.5a22 22 0 0 1 7.7-4.5c3-1 6.4-2.2 9.8-3.6a51.9 51.9 0 0 0 12.4-6.7l1.2-1 3-3.5a19 19 0 0 0 3.7-5.5c1-2.2 1.1-4.3 1.2-5.4a14.9 14.9 0 0 1-3.8 10.4c.7-.8-.7 1.1-2 2.5-1.5 1.4-2.8 2.5-.8 1 2-1.9 3.8-4 5.3-6.6a13 13 0 0 0 1.7-8.5c-.1-.8-.3-1.5-.6-2.2-.2-.7-.6-1.3-1-2-.7-1.2-1.6-2.3-2.4-3.5-.7-1.1-1.4-2.3-1.9-3.5l-1.4-3.6c.2.2 0-.5-.3-1.6s-.6-2.8-.4-4.6c.5-3.6 1.5-7.8 2.1-9.9l.2-.2c1.2-3.5 2-6 4.2-11.5 1.4-3.3 2.9-6.4 4.5-9.3 1.7-3 3.4-5.7 5-8.2a44 44 0 0 0 4.7-12.5 1170 1170 0 0 1 1.9-9.4c-1.1 2.5-1.6 5.1-2.1 7.6a45.3 45.3 0 0 1-8.2 18.8 69.7 69.7 0 0 0 5.8-12.1l-1.3 2.6.9-2.2c-.6 1 .3-2 0-1.6-.9 2.6-2 5.3-3.5 7.8 2.3-4 1-1.3.6 0l-2.3 4c.6-.9 2-3.3.5-.4L107 486l1.5-3.4-3.8 6.9a54.5 54.5 0 0 0-3.2 7l-1 1.5c-.7 1.7-1.3 3.3-1.8 5v-.6l-2 6.2c-.8 3.4-.7 4-.7 4.6a55.4 55.4 0 0 0-.7 3.2 13.7 13.7 0 0 0-.2 3.3c0-1.2 0-.5.2.6l.8 2.7 1.3 3.3.5 1.5c.3 1 .5 1.6 1.6 3.4 1.2 1.8 2.5 3.6 3.2 5a8 8 0 0 1 .5 1.7l.3.8c.3 3.1-1.2 6.4-3.4 9.2a33 33 0 0 1-7.9 7l-2.5 1.6c-3.6 1.7-6.5 2.7-9.4 3.8l-4.5 1.6c-1.7.6-3.5 1.3-5.6 2.3l.6-.4c-1.5.8-3 1.7-4.3 2.8-3 2-4.5 4.6-5 7.4-.2 1.4-.1 2.9.3 4.5a14.6 14.6 0 0 0 6.9 8.8 33.3 33.3 0 0 0 9 3.4l6.2 2c2.2.5 4.4.9 6.3 1l-2.5-.1a20 20 0 0 0 11.6-1.5l3.6-2a28.8 28.8 0 0 1 7-2.7l3.8-1 8.8-1-.2-.1a72 72 0 0 1 9.2-2c1.7-.5 3.9-1 6.9-2h-.7a18 18 0 0 0 4.9-2.2c1.4-.8 2.9-2 5-3.7.4-.4 1.2-1 2-2 .9-1 1.6-2 2.5-3.3a10.6 10.6 0 0 0 2.8-8 33.3 33.3 0 0 0-1.8-11.4c-.4-1.6-1-3.2-1.7-4.8l-1.2-2.3-1-2.7-1.7-5.9c-.5-1.5-1-2.5-1-3l.4.8-.4-1.8-.3-.1-1.6-4.7c-.5-1.6-.8-3.3-.8-4.5-.6-2.2-.9-4.4-1-6.7 0 1.7 0 3.5.2 5.4v-.2l.8 3.8c.3 1.5.8 3 1.1 4l-.8-2.3c.7 2.7-.1.5-.4-.2-.6-2.8-.7-3.8-1-4.7l-.5-3.7c0-1 .1-2.8.2-2.2-.1-2.5.8-9.2.6-9.5v-.5c-.6.9-1.5 3.6-2.2 7.4Z" fill="#1D1D1B"/></g></svg>