<svg xmlns="http://www.w3.org/2000/svg" viewBox="0 0 514 186"><g fill="none"><path d="M30.6 132.4c-.6-2-1-4-1-5.5a6 6 0 0 1 .9-2.5c.4-.9 1-1.6 1.5-2.4 1.2-1.6 2.4-3.1 3.3-5 1.9-3.8 2-7.9 2.4-12.9l.1-1.4.1-.5c.2-.3.6-.2.8 0l.2.2c.2 0 .3.2.5.3l.4.5.6.5c1.5 1.3 3.2 1.9 4.8 2.5 1.6.6 3 1.1 4.2 2 1.2 1 2.3 2.3 3.4 3.8 1.2.9 3.6 4.3 6.4 8l3.9 5.8a11 11 0 0 1 1.6 5c0 2-.5 3.6-.5 4.3 0 .8.1.6.6-1-.7 2.9-1.2 3.9-1.6 4.7l-.8 1.4c-.3.6-.6 1.3-1.4 2.2l.7-1.4a6.8 6.8 0 0 1-3.8 2.8c-.6.2-1.3.4-2 .3a7 7 0 0 1-3-2 9.4 9.4 0 0 1-1.7-2.8 7.6 7.6 0 0 1-.5-3.4c.1-1.2.5-2.6 1.5-3.6l-.9 1 .4-.7.8-1c.3-.3.6-.5.4-.5.4-.3 1.5-.8 2.4-1h.8c1.3 0 2.6.1 3.6.6 1.1.5 2 1.4 2.6 2.3 1.3 1.8 1.5 4 1 5.3 0 .7 0 1.3-.3 1.9a5.6 5.6 0 0 1-3.2 3 8 8 0 0 1-4.3.4l-.4.1c-1-.1-2.4-.6-3.4-1.6l-1.3-1.6a4 4 0 0 0-1.5-1 4.4 4.4 0 0 0-4.3 1c-.6.5-1 1.3-1 2.2-.1.8.2 1.6.6 2.3.5.7 1.1 1.2 1.9 1.5a3 3 0 0 0 2.3 0 3 3 0 0 0 1.6-1.4c.3-.7.4-1.4.4-2a3 3 0 0 0-.4-1.7c-.3-.3-.6-.6-.9-.7a2 2 0 0 0-1.2-.3c-.4 0-.7.2-1.1.4-.5.2-1.2.5-1.7 1.4-.2.3-.3.7-.3 1 0 .4 0 .8.2 1.3s.3 1.2 0 1.8c-.1.7-.7 1.1-1.3 1.4-2.4.8-4.3-.5-5-1 .9.5 1.8.9 2.6 1 .8 0 1.5 0 2.2-.3.6-.3 1.2-.8 1.2-1.7 0-.4 0-.8-.2-1.3-.1-.4-.3-1-.1-1.5-.1.4-.2.1 0-.4.1-.6.7-1.4 1.4-1.9.8-.5 1.6-.6 1.9-.6.3 0 .1-.2-1 0a3.9 3.9 0 0 0-2.5 2.5c-.2.7-.1 1.3 0 1.9.2.6.4 1.1.2 1.7-.2.5-.7.9-1.2 1-.6.2-1.2.2-1.8 0-.6 0-1.2-.2-1.7-.5l-1.6-1c-.9-.8-1.6-2-1.6-3.1 0-1.2.6-2.4 1.7-2.8 1-.4 2.3 0 3.2.6 1 .6 1.7 1.4 2.3 2.3-.2-.1 0 .4.3 1.3v1.7c-.2.6-.5 1.3-1 1.8-.6.4-1.4.7-2.1.5-.7-.2-1.4-.7-1.9-1.2l-1.4-1.6-1.2-1.1-.2-.3c-.6-.4-1.4-.8-2.2-.7-.9 0-1.6.6-2 1.4-.4.7-.6 1.7-.3 2.7.3 1 1 2 2.2 2.6a3 3 0 0 0 2.3 0c.8-.2 1.4-.7 1.8-1.3.4-.7.6-1.5.3-2.2-.2-.8-.7-1.4-1.3-1.8-.6-.4-1.3-.6-2-.7a22.2 22.2 0 0 0-4 .8h-.8l-.9-.3c-.3-.1-.6-.4-.8-.8l-.1-.6-.1-.6c0-.8.2-1.7.6-2.5l.8-.8 1.3-.3c.9-.1 1.7-.1 2.1.5.5.5.5 1.4.5 2.2 0 .8-.2 1.5-.6 2-.8 1.1-2 1.5-2.8 1.8 1.1-.2 2.3-.6 3-1.6.9-1 1-2.2 1-3.3-.1-.6-.3-1.2-.7-1.7-.4-.4-1-.6-1.6-.6l-1.6.1-.8.2-.7.6c-.7.8-1 1.8-1.2 2.9v.8l.2.7c.1.5.3 1 .8 1.3.5.3 1 .4 1.4.5l.8.2h.2l.1-.1.4-.1c.8-.2 1.6-.4 2.4-.4-.7 0-1.3.3-2 .4l-.3.1-.3.1-.2.1H31v.1h-.8l-.7-.2c-.3 0-.6-.2-.8-.3a2 2 0 0 1-1-1c-.2-.2-.2-.5-.3-.7l-.1-.5a4 4 0 0 1-.1-1.4l.3-1.5c.2-.5.4-1.1 1-1.7l-1 1.2-.5 1.4a6 6 0 0 1 1-2.3c-.3.3-.4.3-.3.1l.5-.7c.5-.7 1.6-1 1.3-1-.5.1-1 .4-1.5.8a5 5 0 0 0-.9 1.1 7.1 7.1 0 0 0-.8 2.3v1.4c0 .6 0 .7.2 1.1.1.6.3 1.1.7 1.5a3 3 0 0 1-.2-.4 3.4 3.4 0 0 1-.4-1.1v-.2l.6 1.1c.3.5.9.8 1.3 1l1.2.4.7.1H31.3l.3-.2.5-.1a28.5 28.5 0 0 1-.8 0h.2l.2-.1.8-.3c.7-.2 1.5-.4 2.3-.4.7 0 1.4.3 1.8.7-.6-.4-1.4-.5-2-.3.7-.1 1.5.2 2 .7.2.2.3.5.3.8l-.1.6a2 2 0 0 1-1.4 1c-.4 0-1-.2-1.5-.7-.1-.3-.2-.6-.1-1-.2-.3-.2-.7 0-1 0-.4.2-.5.3-.5h.1l.5.2c.4.2 1 .7 1.3 1.3a11 11 0 0 0 2.3 2.2l1.4.6c.8.3 1.7.5 2.6.3.8-.2 1.5-.7 2-1.2 1-1 1.3-2 1.5-2.7a5.2 5.2 0 0 1-1.8 3.4c1-.8 1.7-1.8 2-3l-.2.5.2-1.2c.2-1.3-.4-2.6-.6-3-.7-1.6-1.5-2.3-2-2.9a9 9 0 0 0-1.5-1l-1.3-.7-1-.2h-1.8a4.5 4.5 0 0 0-3 3.2c-.5 1.3-.3 2.6.2 3.7.4 1 1 1.7 1.5 2.1.5.5.8.6.9.6a10.3 10.3 0 0 0 1.8 1.1l.7.4c1 .3 2 .5 3.3.3a4.6 4.6 0 0 0 2-.8 3.5 3.5 0 0 0 1.3-3.2 4 4 0 0 0-.1-.5v-.4l-.3-.9v-.3l.4-.4a2 2 0 0 1 1-.5l.7.1.4.7c0 .5 0 1-.2 1.4-.3.4-.5.6-.8.6-.3 0-.6 0-1-.2-.6-.4-1-1.2-1-1.8 0-.5.3-1 1.2-1.4.4-.2.9-.2 1.3-.1.2 0 .4 0 .6.2l.6.6-.3-.3c.3.3.8 1 1.5 1.5l1 .8 1 .5c1.6.8 3 1 4.3 1 1.3 0 2.5-.4 3.6-.9a8.6 8.6 0 0 0 3.1-2.4c1-1.1 1.7-2.7 1.9-4.6.1-2-.4-3.8-1.2-5.2a8.1 8.1 0 0 0-2.8-3 6.7 6.7 0 0 0-5-.8c-2 .2-4 1-5.5 2.7a8.2 8.2 0 0 0-1.8 5.4v-2.2l-.3 2.8a10 10 0 0 0 3.6 7c.8.6 2 1.3 3.7 1.5 2.4.3 4-.6 5-1.4 1-.8 1.3-1.5 1.6-2 .6-1 .7-1.7 1.3-3.3a29.7 29.7 0 0 0 2.3-7.3v.2a14 14 0 0 0-.7-4.9c-.3-.8-.7-1.7-1.5-3l-3.5-5v.6c-1.8-3-3-4-5.7-7.6l-1.4-2c-.6-.8-1.3-1.8-2.3-2.7-.9-.9-2-1.6-3.2-2.1-1.1-.5-2.2-.9-3.2-1.1a12 12 0 0 1-4.1-2.7l-1-.8a5 5 0 0 0-1-.6c-.4-.1-.8-.2-1.1-.1-.4 0-.7.3-1 .6-.3.7-.2 1.6-.3 2.3v2.2c-.1 1.5-.2 3.1-.5 4.9-.3 2-.8 3.7-1.3 5-.5 1.2-1 2-1.4 2.2l.4-.6-1.2 1 .2.4c-1.6 1.9-3.9 4.6-4.8 6.7-.4 2 0 4 .5 5.9-.3-1.4-.4-3-.2-4.5l-.1.1c0-.4 0-.9.3-1.4.1-.6.4-1.2.7-1.8l2-2.8-1 1.7c1.4-1.9.3-.2 0 .4l-1.3 2.2c-.2.5-.2.9-.2 1.3v3l.2 1.7c.1 1 .6 3 1.2 4.5.6 1.6 1.4 2.8 1.6 2.8 0 .1 0 .2.2.3 0-.8-.7-3-1-5.9Zm352.3 20.8c-3 .8-6 1.5-8.9 1.8a23.8 23.8 0 0 1-8.7-.6l-.5-.2-.5-.2a218.2 218.2 0 0 1-6.3-3 111.9 111.9 0 0 0-11.9-5l-2-.5-.5-.1h-.6l-.6-.2c0-.1.1 0 .2 0a.4.4 0 0 0 .2-.2l.2-.4.2-.7c.2-.5.2-1 .2-1.4v-2.3l-.2-2v-2c0-1.6 0-3.3-.6-4.8a14.4 14.4 0 0 0-2.3-4.4l-3-3.6-1.6-1.9-.7-.9-.4-.4v-.2h-.4l-.6.2h-.2v1c-.1.1 0 0 0 .1l.3.1 1 .6a35.2 35.2 0 0 1 4.2 3l2.5 1.6c.7.5 1.4.8 2.2 1.2l1 .5.7.5c.4.3.7.8.8 1.3.2.4.1 1 0 1.5l-.8 2c-.3 1.1-.2 2 0 2.8.1 1.5.2 2.6-.3 3.7a9.8 9.8 0 0 1-2 3.2l-.6.7-.7.7-.3.2-.2.1H340.6l-.4-.2a18 18 0 0 0-2.2-.6l-1-.2-4.1-.6c-2.7-.5-5.4-1-8-1.3-1.4-.3-2.9-.4-4-.7-1-.4-1.5-.9-1.8-2.1l-.5-2-.4-2-.8-4.3-1.5-8.8a68.8 68.8 0 0 1-.4-27c.9-4 2.2-8.1 4.2-11.8l.1-.3v-.3l-.1-.6c-.1-.2 0-.4-.4-.9l-.4-.3a1.3 1.3 0 0 0-1.2 0l-.3.2-.5.6-.9 1.8-1.1 3.6a85.1 85.1 0 0 0-3 18.9 23.2 23.2 0 0 0 1.1 8.1l1.3 4.8c.6 2 .6 1.3-.5-3.3a62.5 62.5 0 0 1 2.7 14.1c0 1.4 0 2.7-.3 4.5-.3 1.7-.8 4.1-3 6.8l.7-1 .5-1c.4-.6.6-1.4.9-2-.3.4-.4 1-.7 1.5l-1 1.4-1.1 1.4-1.4 1.2a21 21 0 0 1-10.4 4.3c-1 .2-2.2.2-3.4.3-17-.6-26.6-.1-45-.5 12 .3-5.4 0-4.1.3-2.8-.1-13.9-.3-10.1-.3l-5.8-.1h-2.7l-.6-.2-.2-.2-.2.1s-.1 0 0 0v.1l.2.2.3-.2h.7c1.8-.3 3.6-.4 5.3-.5a180.5 180.5 0 0 1 22 .4l5.7.1c9.8.2 17.5.8 26.4 1.5h1.3c3 0 7.1.4 11.3 0 2-.2 4-.6 5.8-1.2 1.7-.7 3.2-1.5 4.3-2.1 1.7-1 3.4-2 5.4-2.6 1.9-.6 4-.5 6 0a162.4 162.4 0 0 1 12.6 3.4c8.5 2.5 16.8 5.8 24 9.2 7.3 3.6 9.6 3.8 11.6 4 .5.2 1 .1 1.6.2h2c1.6-.2 3.9-.4 7.3-1.4 2.2-.7 4.7-1.6 7.3-2.8l8-3.8a62.4 62.4 0 0 1 13.3-4.5 42 42 0 0 0-7.6 2.2 1660.2 1660.2 0 0 0-10.7 5.2 71.9 71.9 0 0 1-8.7 3.8c-1.6.6-4.2 1.3-6.6 1.6-1.2.2-2.3.1-3.3.2l-2.2-.1c-.8-.1-.3.1 2.7.3 3.3 0 6.6-.8 9.8-2 3.3-1.1 6.4-2.6 9.5-4.2 3.2-1.5 6.4-3 9.7-4.3a56 56 0 0 1 10.3-2.7c3.5-.7 7-1.3 10.4-2.3 3.3-1 6.4-2.8 9-4.8a38 38 0 0 0 9.6-11c.5-.6.8-1.3 1.2-2l1-2c0 .2.1 0 .5-.6l.7-1.2c.2-.5.6-1 .8-1.7l2-4.7.9-2.9.8-3.1c.5-2.2 1-4.5 1.3-6.8 0-1.1.2-2.3.4-3.4v-3.4c.2-2.2 0-4.2 0-6l-.1-1.4-.2-1.3-.2-2.2V85l-.2-1.7-.3-1.6-.6-3.1-.8-3-1-3.3L448 69l-.7-1.8-1-1.8c-.2-.7-.5-1.3-.9-2l-.4-1-.6-1-2.6-4.3a62.3 62.3 0 0 0-17.8-17.6c-3.4-2.2-7-4-10.7-5.2l-2.8-.8-2.7-.6-2.8-.4c-1 0-1.8-.3-2.7-.3A66.5 66.5 0 0 0 359 46l-4 3.5-3.3 2.5 3.9-2.8 3.7-3c1.3-1 2.6-1.9 4-2.7l2-1.2 2-1.1a72.5 72.5 0 0 1 16.8-6.5c5.7-1.4 11.3-2 16.7-1.9l2 .1 2 .2 1.9.3 1.8.3 1.9.5 1.7.5 3.4 1.3c-2-.9-4-1.3-5.6-1.8-1.7-.3-3.2-.7-4.7-.8l-3.8-.3h-3.3l-3.1.3-3.3.4c-1.1.1-2.3.4-3.7.7l-4.4 1 3.5-.7 3.5-.6-2.8.6-2.9.7c1.5-.3.3 0-1 .4-1.4.5-3 1-2.6 1a71 71 0 0 1 10.3-2.2c1.7-.2 3.5-.5 5.2-.5h5.2l-3.3-.2a168 168 0 0 0-2.4 0l2.3-.3h3c3.5.1 7.1.6 10.5 1.7l-2.2-.7-2.1-.4a33 33 0 0 0 1 0l2.2.5c4.2 1 9.6 3.6 13.5 6.4a51 51 0 0 0-7.7-3.9 43.6 43.6 0 0 1 13.4 8.7l1.5 1.6 1.6 1.5.7.8.7.8 2.9 3.5 2.6 3.7 2.5 4.1c.7 1.2 1 2.5 1.5 3.8.5 1 1 1.8 1.3 2.8l1.1 3 .6 1.4.4 1.5 1 3-.6-1.4c.8 2.4 1.1 4.9 1.6 7.3l.5 3.7.2 1.8.1 2c.3 4 .1 6.2.1 7.7v2.9l-.3 2.3c0 .8-.2 1.5-.3 2.2l-.9 4.1-1.7 5.8 1-3.5.4-1.8.3-1.7-.3 1.6-.5 1.6-1 3.1.3-1c0 .4-.3 1.3-.7 2.3-.8 2-1.8 4.7-2.2 5.4l-2.3 4.2a46.9 46.9 0 0 1-1.8 2.8 39.3 39.3 0 0 1-8 8.5A26.5 26.5 0 0 1 420 143c-4.1.8-7.4 1.4-7.6 1.6a56.5 56.5 0 0 0-13.6 4.2c-4.3 1.9-8.4 4-12.6 5.7a29 29 0 0 1-12.5 2.6c-4.2-.2-8.1-2-12-3.8a264.4 264.4 0 0 0-30.9-11.8l-5.6-1.5c-2-.4-4.2-.8-6.6-.4-2.5.3-4.7 1.5-6.7 2.7l-3 1.7a18.2 18.2 0 0 1-2 .7c-3.2 1.3-7 1.6-10.8 1.6-4-.2-7.3-.6-10.5-.7l-9-.5-21.4-.9a237 237 0 0 0-26.1.4c-.2 0-.4 0-.7.2l-.4.2a.7.7 0 0 0-.2.1l-.2.3-.2.3-.1.6c0 .6.4 1 .5 1.1l.3.2h.1l.6.3.7.2h2.2l5.5-.2c9.7-.1 22 .3 30.7.4l-5.7.1 7.3.2c12.5.1 13.2.3 29.6.3 3 0 5.5-.5 7.6-1.2 2-.8 3.7-1.7 5-2.7l1.6-1.5.6-.6.6-.7 1-1.3.6-1.2c.4-.7.6-1.5.8-2.1a22.9 22.9 0 0 0 .7-7.5c-.2-7.3-3-14.2-3.7-21v.4c-.4-2.7-.3-4.7-.2-6.4a59.1 59.1 0 0 1 1.9-11.7 77.3 77.3 0 0 1 2.9-8.9l.1-.1a.6.6 0 0 1-.1-.3h-.1l-.1.1-.1.1v.2l.1.4v-.4a48 48 0 0 0-3.5 9.5l.6-1.3a47 47 0 0 0-2.1 12.6c-.2 4 0 8.3.7 14.8.3 3.2 1.2 9.6 2.6 16.6l.5 2.6.6 2.7c.2.4.3 1 .6 1.3.3.5.7.8 1.2 1 .8.6 1.8.8 2.6 1l9.6 1.3 4 .7a793.1 793.1 0 0 1 3.8.9l.9.3 1 .2c.8 0 1.4-.7 1.8-1 .9-1 1.7-1.8 2.4-2.8.6-1 1.2-2 1.4-3.1a9 9 0 0 0 0-3.3l-.1-1.6.3-1.4c.4-.9.8-2 .7-3 0-1-.6-2-1.3-2.8-.8-.7-1.8-1-2.7-1.5l-2.6-1.4c-.9-.5-1.7-1.2-2.5-1.8a49.8 49.8 0 0 0-4-2.6 7 7 0 0 0-.8-.3c-.2 0-.6-.2-.5 0 .2.6.5 1 .9 1.5l1 1.3 2.4 2.7c1.4 1.8 2.8 3.5 3.4 5.4.8 1.9.9 3.8.8 5.5-.1 1.7.1 3.2.2 4.5 0 1.3 0 2.6-.6 3.4-.7 1-1.8 1-2.4 1 .7 0 1.4-.2 1.9-.8-.7.6-1.6.9-2.3.9H337.8c0 .4.4.5.6.7l.9.2c.8.4 1.8.4 2.8.6l.8.2.8.1 1.4.4c2 .6 4 1.3 5.9 2.2 3.8 1.6 7.4 3.5 10 5l4 1.5c1.3.4 2.7.6 4 .7a34.2 34.2 0 0 0 2-.2c-2.2 0-4.5-.3-6.5-1.1l.4.2c-2-.7-5.3-2.3-8.7-4a98 98 0 0 0-3.7-1.9c-6.3-2.7-1-.6.8.1l10.3 4.9c1 .4 1.8.7 3.1 1 1.3.2 3 .4 5.6.3 2.3 0 6.7-.8 5-.4a65.7 65.7 0 0 0 17.2-5.8l.4-.4c.1-.2-.1-.3-.2-.5a55.1 55.1 0 0 0-2.3-1.6l.9 1 .5.7v.2l-.2.2-.5.2h-.2l-.3.2-1.2.4a58 58 0 0 1-8.5 2.5Z" fill="#000"/><path d="m353.5 48.1-2.6 2.4c-4.5 3.2-6 5.8-10.3 9.4-3.8 3.4-6.2 6-9.9 9.1-.5 1.7-7 6.2-9.3 9-1 .9-1.2 1.3-1.5 1.6-.2.4-.1.5.5 0l-1.2 1c-.3.2-.5.4-.6 0l-.3-.6-.2-.4-.3-.6.5.4-.1-.4V77l-.1-1.3a25 25 0 0 1 1.7-3.6c.7-1 1.5-2.1 2.9-3.3-1.8 1.5.6-.8.3-.8.5-.3 2-1.7 1.6-1.2 2.3-2 4.1-4 5.7-4.8l.8-.7c1.5-1.3 2.8-2 4.3-3v-.2a60 60 0 0 0 7.6-5.3l2-1.6 2.1-1.5c.7-.4 1.2-.5 1.6-.3.3.2.3.4.4.6l.2.5-.2 1.6a27.2 27.2 0 0 1-1.5 3.4c-.6 1-1.1 1.9-1.6 2.3.7-1 1-1.8 1.3-2.5l1-2.6.3-1.3v-1l-.2.7c-.1 1.8-1.6 4.6-3.2 6.8l-1.3 1.5-1.5 1.4-2.7 2.5c0-.5-4.5 3.6-6 5l-.2-.1c-1.4 1-2.4 1.9-4.4 3.8-2.5 2.2-5 4.4-7.2 6l-2.5 1.9c-.8.6-1.7 1-2.7 1.1-1.8.4-3.5.3-4.4.3 1.2.3 2.4.5 3.7.4 1.2 0 2.5-.4 3.5-1l2.6-2a20 20 0 0 1 2.5-1.7c-1.4 1-2 1.7-2.7 2.2-.6.6-1 1.2-2.2 2.1l1.3-.8-1 .9c.4-.2.2 0 0 .3-.3.2-.7.5-.5.5.8-.4 1.4-.9 2-1.3l1.7-1.4c-1.8 1.3-.8.2-.4-.3l1.6-1.4c-.4.3-1.4 1.1-.3 0 .7-.5 1.5-1.4 2.3-1.9l-1.1 1.4c1.8-2 3.8-2.7 5.6-4.6l.9-.3 1.8-1.6-.1.2 2.3-1.9c1.2-1 1.3-1.3 1.4-1.6l2.2-2-1 1.2 1.1-.8c-.7.5.8-.8 1-1.1 2.3-2 1.6-1.4 3.2-2.5l1-1c.6-.4 1-.8 1.3-1.2.6-.7 1-1.2.9-1.4a24.3 24.3 0 0 0 2.7-4.3l.5-1.1c.3-.8.6-1.6.7-2.4a4 4 0 0 0-.2-1.8c-.1-.5-.5-1-1-1.3-.5-.3-1-.3-1.5-.3-.7 0-1.3.6-2 1l-3.2 2-.3.2-.3.1-.4.4-1 .6-4 3 .2-.3-1.7 1.5c-2.7 1.7-3.4 2.7-6.5 4.7a16.5 16.5 0 0 0-5 5l-2.3 2.1-2.2 2.1.7-1-1.1 1-1.6 2.4c-.3.7-.8 1.5-1.2 3.3a6.5 6.5 0 0 0-.1 2.8v.5l.2.5.4.7c.2.4.5.5.7.8l.9.8.1.3c.1.2.2 0 .3 0l.4-.3 1-.7 1-.7.6-.4.4-.3c1.5-2 1.3-1.4 5.6-5.3h-.4c1.7-1.2 2-2 4-3.7.8-.9 3.9-3.2 5.3-4.9C340 63 341 61 344 58.5c1.8-1.4 2.8-2.8 3.4-2.8l-.4.3 1-.2-.2-.3c1.2-.8 2.6-2.2 3.7-2.7l2.2-2.4-2 1.6h.1l-3 2.4.9-.9c-1 .8-.3 0 0-.2 2-1.6 1.3-1.4 2.9-2.7.4-.3 1-.8.9-.5.9-.8 3.6-2.5 3.5-2.8l.2-.1c-.6-.1-2 .3-3.7 1ZM68 30.1c-.7.5-1.3 1-1.8 1.6-3.4 1.9-4.3 3.8-7.5 6.1-1.4 1.1-2.4 2.2-3.5 3.2l-3.4 3.2c0 .3-.4.8-.8 1.3l-.8.9-1 1a16.8 16.8 0 0 0-3 4c-.8 1.4-1 2.4-.2 1.4-1.3 2-1.2 1.3-2.1 3V55c-.4.4-.9 1-1.2 1.8l-.2 1c-1.4 1.8-1.4 3.3-2.6 5.4.9-1.4-.1.8.2.7-.3.3-1 1.6-.8 1.1-1 2-1.3 3.9-2.1 4.8l-.2.7c-.4 1.3-1 2.2-1.6 3.2l.1.3c-.2.7-.8 2-1.2 2.7-.8 2-1.1 4.6-1.2 6.8-.3 1-.2 1.3-.1 1.6 0 .3.2.6.2 1.5 0 1.2.4 3.3.3 4L33 89a5 5 0 0 1-.2-2c0 .4-.2-.3-.2-1 0-.6 0-1.2-.2-.4.1 3.6.8 7.8 1.9 10.9-.5-.2.7 3.9 1 5.2l-.1.1.6 4c.2 2.2 0 4.5-.8 6.3-1 2.5-2.6 5.5-3 6.7a18.5 18.5 0 0 0 3.6-6.4c0-.3.2-.6.4-1 0-.3.2-.6.4-1-.3 1.3-.6 1.9-.6 2.5l-.6 2 .6-.8-.3.8c.3-.3 0 .7.2.7.4-1 .9-2 1.1-3-.6 1.6-.4.5-.4 0l.4-1.6c-.1.4-.4 1.3-.3.2l.4-2.2.2 1.3.1-1.4.2-1.3V105l.2-.6-.2-1.8.1.1-.3-2c-.3-1.2-.5-1.3-.7-1.5l-.5-2 .5 1-.2-1c.1.7-.3-.7-.4-.9-.4-2-.3-1.4-.4-2.7-.4-1.2-.4-2.8-.7-2.8-.2-2.4-.3-4.7 0-6.9V83c.7-2.5.8-3.7 1.7-6.3v.2l.3-1.5c1-1.9 1-2.8 2.2-5a10 10 0 0 0 1.5-4.6c.3-1.2 1.2-2.6 1.7-3.7l-.2.8.6-.8c.6-1.6.8-1.6 1.6-3.6 1.6-2.5.9-2.4 1.3-3.6l2-2.1h-.2c.3-.9.5-1.1.8-1.6l2.3-2.7h-.3c1-.9 1.2-1.6 2.4-2.8.5-.7 2.7-2.2 3.6-3.4 1.2-1 2-1.8 2.7-2.6a19 19 0 0 1 2.5-2.4c1.3-.8 2-1.8 2.5-1.7l-.2.2h.7l-.1-.3C65 35 66 34 67 33.9l1.5-1.7-1.5 1h.1c-.5.3-1.5 1.2-2.1 1.5l.6-.5c-.8.4-.3-.1-.1-.3 1.5-1 1-1 2.1-1.8.3-.1.8-.5.7-.3.6-.5 2.5-1.6 2.4-1.8h.2c-.5-.4-1.6-.3-2.9 0Z" fill="#000"/><g opacity=".8" fill="#1D1D1D"><path d="m28 129 .2 1.5v-.7l-.1-.7Zm.3 2.7v.3l.1.2v-.5Zm.6 2.4Zm-.4-2c0 .2 0 .3 0 0l.1.8v-.7Zm0 0v-.4.5Zm.9.5c0 .3-.2.2 0 .7l1 2.9.4 1.6 1 2c.4.5.6.7.2 0a34 34 0 0 1-2.3-6 23.8 23.8 0 0 1-1-5.2v-1.5l-.1 2 .3 1.6.5 2Zm1.8-13-.4.7c-.7.8-1.2 1.7-1.6 2.8l.3-.4c.3-.6.2-.7 0-.2l2-3.1-.3.2Zm.7-.9-.4.7.4-.7Z"/><path d="M30.7 138.8c1.3 2.9 2.7 5.5 4.7 7.7l.5.4.5.6 1 .8.4.2c.2.1.1 0 0 0a5.5 5.5 0 0 1-.3-.4l.3.3.6.4a14.3 14.3 0 0 0-.7-.3h-.2a10.3 10.3 0 0 0 3.3 1.3l1.8.4h.5-.1l.2.1h2.2l1.4-.2h.5l.8-.2h-1c-.6 0-1.1.3-1.7.2.6.1 1.1-.2 1.6-.2h1.1l-.8.2h-.5l-1.4.2c1.4 0 2.9-.2 4.3-.6A35.6 35.6 0 0 0 67.5 139c.8-1 1.6-1.8 2.5-2.6.8-.7 1.8-1.3 3-1.5 1.1-.2 2.4.1 3.5.6a9 9 0 0 1 2.8 2.4c1.6 1.9 2.6 4.2 3.8 6.4 1.2 2.3 2.8 4.3 4.5 6.1a50 50 0 0 0 5.7 4.7c3.9 2.9 8 5.4 11.4 9 1.2 1.4 3 3.4 4.3 5.6 1.3 2.3 2 4.7 2.1 6.4l.2 1.4v.9l.4.6c.3 0 .6-.7.7-.8.5-1.5.5-3 .1-4.8-.4-1.8-1.2-3.9-2.9-6.7 1.1 2 .6 1.3-.5-.2s-3-3.7-4.4-5.3c-4-4.6-12-8-16.6-13.3a25 25 0 0 1-3.3-4.5c-1.2-2.4-2.4-5-4.5-7.3-2-2.2-5.4-3.8-8.8-2.6a9.7 9.7 0 0 0-3.8 2.7l-2.7 3.1a33.8 33.8 0 0 1-6.6 5.1c-2.5 1.6-4.9 2.8-7.3 3.7a22 22 0 0 1-5.2 1 15.2 15.2 0 0 1-.1.1c1.6-.2-1.1.4-2.2.3l-1.6-.3c-1-.1-1.9-.3-2.8-.7-.5-.1-.3-.3-.5-.4l-1.7-1a5 5 0 0 1-1.2-1c-.5-.4-.8-1-1.2-1.5l-.7-1-.4-.7v.5l-.7-1.2.7 1.2v-.5a28.6 28.6 0 0 1-3.1-5.5l.7 1.7.7 1.8c-.2-.5-.2-.5.1 0l.2.5-.8-1.4-.6-1.5-.3-.7c-.1-.3 0-.3 0-.4l-.3-.7.3 1.3.3.8Z"/><path d="m38.4 148.8-.5-.2 2.2 1-.8-.3-.9-.5Z"/></g><path d="M12.4 132c1.7 2.4 3.4 4.6 5 6.4 3.9 5.1 7.8 8.3 12 11 4 2.6 8.4 4.8 14 8 5.3 2.8 9.9 4.7 14.4 6.5 4.6 1.9 9 3.6 14.3 5.5 1.9.2 7 2 12.6 4l8.5 3c2.8 1 5.4 1.6 7.5 2 5.4 1.2 8.4 1.4 4.3.4 3.8.8 5.2 1 6.4 1.4 1.2.3 2.3.6 5.5 1h-2.2c2 .3 4.3.9 7 1.2h3.2c7.5 1.3 12 1 20.1 1.7-5.3-.5 2.5 0 2-.3 1.2.2 6.1.4 4.4.4 7 .3 13.5-.3 17.4 0l2.6-.2c4.4-.4 7.8-.4 11.9-.8l.5-.2c2.6-.4 7.5-1 9.7-2a4 4 0 0 0 1.4-.8h-.1c3-1.6 5.5-4.6 7.4-7.7 2-3.2 3.4-6.6 4.4-9.8 1.1-3.4 1.1-4.5 1.2-5.4 0-1 .2-1.8.2-5 .1-2-.2-4.7-1.2-7s-2.5-4.2-3.1-5.3c1.6 2.3 2.6 3.6 3.4 5 .7 1.5 1.3 3.1 1.4 6.2 0-1.2.3 1.3 0 3.5-.1 2.2-.4 4 .1 1.3.3-2.9.4-6-.5-9.1-.8-3.2-3-5.7-4.7-8.3l-2.5-4-2.6-3.9c-1.8-2.4-3.5-4.8-5.2-6.8.2 0-.2-.5-1-1.6l-1.3-1.8-1.7-2.2c-2.5-3.1-5.6-6.6-7.2-8.4l-.1-.3c-2.6-3-4.6-5.3-9-9.8l-15.2-15.5c-6.6-6.8-15.3-14-18.6-16.4 8.4 7.9 16.8 15 22.4 21.5-5.6-5.7-6.2-6-10.8-10l2.3 2.3-2-1.7c.8 1-1.8-1.3-1.6-.9l7 6.6c-3.7-3.7-1.1-1.4.1-.5l3.5 3.5c-.7-.9-2.9-3-.2-.6 1.4 1.4 3.3 3.2 4.8 4.9l-3-2.6c4.4 4.1 7.2 7.8 11.5 12l1 1.7 3.8 4.2-.5-.4 4.5 5.1c2.5 2.8 3 3 3.5 3.5l4.2 5.2-2.3-2.4 2 2.4.4.4c.7.7 1.4 1.8 1.7 2.1l2.2 3a1075.8 1075.8 0 0 1 3 4.5l1 1.3 1 1.5 1.7 2.7 1.3 2 .7.9c1.2 1.7 2.3 3.4 3.2 5 .7 1.6 1.1 3.5 1.2 5.4.3 3.8-.5 7.7-1.6 11.2l-1 3.1a45.1 45.1 0 0 1-7 11.1c-.9 1-2 1.9-3.2 2.6l-.3.5-.1-.1h-.1l-.3.2-.8.3-2 .6.7-.2a46.1 46.1 0 0 1-13.5 2c-2.6.3-5.4.5-9.6.5-8.9 0-13 .2-15.9.6-4.3 0-9.8-.5-13.7-.8h2.6l-3.2-.4c-5.6-.3-6-.5-13.2-1.1-5-.7-7-1-8.5-1-1.4-.1-2 0-4.2-.3l-9.3-2.3.2.1a40.2 40.2 0 0 1-9.8-2.5l-7.2-2.6.5.5c-4.2-1.8-6.2-2-11.7-4-2.7-.9-10.8-4.2-15.5-5.8-9.4-4.1-14.1-5.8-21.7-10.2-4.5-2.8-7.8-4.6-8.4-5.6l.8.6-1.4-1.5H28l-2-1.6-2-1.9a27.5 27.5 0 0 1-3.4-3.8 65.7 65.7 0 0 1-4.9-5.4l3.5 4.6v-.2l1.2 1.4 1.6 1.8 3.2 3.2-2-1.8c2.2 2.2.2.5-.4 0l-3.5-3.8c-.7-.7-1.2-1.2-2.7-3.1a78.7 78.7 0 0 1-4.5-7.2c-1.1-1.9-2-3.5-2.2-3.5l-.3-.5c0 1 1.1 4 3 7.7Z" fill="#000"/><path d="m142.5 73.3 5.1 5.3c7.5 9.1 12 13 20 22.2l9.6 10.9c3 3.3 5.9 6.8 9 11 1.4 1 4.4 5 7.7 9.5s6.9 9.4 9.6 12.2a22 22 0 0 0 4 3.9c.4.2.6.3.4 0l-1.3-1.2 1.4 1.2.8.4c.2 0 .5 0 .6-.2l.2-.5-.2.3c1-.3 1.4-.7 1.9-1a22.2 22.2 0 0 0 4.6-3.8l-1.2 1.6c1.5-1.3 3.1-2.7 4.9-4.6l1.8-2.3c5.3-4.8 7.6-8.1 13.4-13-3.8 3 1.6-1.7 1-1.5 1-.7 4.7-3.6 3.5-2.5a43.9 43.9 0 0 1 14-8l2-1c3.7-1.8 6.8-2.9 10.2-4.4l.4-.3 8.4-3.8a90 90 0 0 0 9.3-5.2l.6-.4.6-.2 1.3-.5.3-.1v-.1l-.2.1-.5.4-1.1.8-4.6 2.7c-6 3-3.1 2-8.5 5-3.4 1.6-9.3 4.8-11.5 5.6 4.8-2.4 5.3-3.1 10.3-5.6-2 .9 8.4-4.5 3.8-2.4-4.7 2.7-10 5.4-15.4 8l-7.8 4c-1.3.6-2.6 1.1-3.7 1.8l-1.8 1a181 181 0 0 1-7.2 4.2 74 74 0 0 0-7.8 6.7h-.2a77.6 77.6 0 0 0-8.4 9.3c-2.3 2.8-4.4 5.6-6.4 8.3l-5.8 7.8a30.4 30.4 0 0 0-3.2 6.1 18 18 0 0 0-1.4 6.6 11.2 11.2 0 0 0 4 8.7c-1.9-2-3-4.5-3.3-7-.2-2.5.2-5 1-7.3a36 36 0 0 1 7-11.3c-2.2 3-3.3 4.6-4.1 6.2-.8 1.5-1.5 3-2.4 5.6l.6-1.3.7-1.3-.8 2.2c.2-.6.1 0 0 .5-.1.6-.2 1.2 0 1 .7-2.6 2-5.2 3.6-7.6-1.3 2-1.5 2.3-1.5 2l1-2c.7-1.4 1.6-2.6 2.5-3.8-.7.8-2.3 3-.5.3 1.1-1.5 2.5-3.6 3.8-5.2l-1.9 3.2c3.1-4.7 6.2-7.7 9.6-12.2l1.4-1 1.7-2 1.8-1.9-.3.5 4.5-4.3c2.5-2.3 2.8-2.8 3.2-3.2 2-1.7 4-3.2 5-3.7l-2.4 2 2.3-1.6c-1.6 1 1.9-1.4 2.4-1.8 2.7-1.6 3.8-2 4.5-2.3l3.1-1.4c3.7-1.9 8.4-4 8.5-4.3 7-3.2 14.1-7 20.5-10.4l2.8-1.7 2.7-1.4 1.3-.9.2-.2c.1 0 .2 0 .4-.4l.2-.3.1-.3c.2-.6 0-1.4-.7-2l-.3-.1-.2-.1h-.3v-.1h-.9l-.8.3-1.3.5s-.3 0-.4.2l-.3.2-.6.3-2 1.2c-2.7 1.5-5.4 3.1-9.4 5l.6-.4-4.3 2.3c-6.2 2.6-8.4 3.9-15.7 6.9l-5 2.3a27.7 27.7 0 0 0-7.8 5.7c-3.1 2.6-7.1 5.9-9.8 8.4l1.7-1.7-2.3 2c-3.8 3.7-4 3.8-8.8 8.8a80.3 80.3 0 0 0-5.5 5.7c-.8 1-1.1 1.6-2.6 3l-2.3 1.3h-.1l-.4.5.2.2a.6.6 0 0 1 0-.3l-.3-.4a9.8 9.8 0 0 1-1-1 41.2 41.2 0 0 1-2-2.2l.1.2a37.4 37.4 0 0 1-3.7-4.1l-6.6-8.8.1.6c-2.3-3.5-3.7-4.8-7-9l-4.2-5.7c-1.8-2.3-4-4.8-5.6-6.4-6.1-7.4-9.7-10.4-15-16.6-3.2-3.8-5.8-6.2-6.1-7.1l.5.6-.9-1.6h-.3c-1.9-2.3-4.8-5.4-6.2-7.5l-5-4.9 3.6 4.1v-.2l5.3 6.2-1.7-1.8c1.9 2.2.2.5-.4 0-3.6-4.5-2.8-3-5.7-6.3-.7-.8-1.9-2.2-1.4-1.8-1.7-1.9-6-7.1-6.4-7.1l-.3-.4c.2 1 1.7 3.5 3.8 6.6Z" fill="#000"/><path d="M209.3 177.7c2 1.3 4 2.2 5.7 2.8a28.7 28.7 0 0 0 9.4 2.6h2.9l5.7-.1 6.7-.2c8.8-.3 15-1 23.5-1.8.7-.3 2-.5 3.8-.8l6.1-.8 6.9-1a53.6 53.6 0 0 0 8.8-2.2c5.7-1.1 4.3-.4 9-1.5l-1.5.6c1.6-.2 3.4-.4 5.4-.9l2.3-.7c5.7-.9 8.8-2.1 15-3.2-4 .6 1.8-.6 1.3-.7 1-.1 4.7-.9 3.4-.5 5.2-1.1 10-2.4 13-2.4l2-.4c3.2-.7 5.8-.9 8.9-1.3l.4-.2 7.4-1.5c1.2-.3 2.6-.7 3.9-1.3.6-.3 1.3-.7 1.9-1.3.3-.3.5-.6.5-1v-.7l-.2-.5c-.4-.7-.5-1.4-.1-2.1a4 4 0 0 1 1.5-1.6c1.3-.8 2.8-1.3 4.1-1.6 2.7-.5 3.5-.6 4.2-.9.7-.2 1.3-.4 3.7-.7 3.2-.2 8.6-.8 10.5-.6-4.3.2-5 .7-9.5 1 .9 0-1 .2-2.7.4-1.6.3-3 .5-.9.4 4.4-.8 9.3-1 14.1-1.3 2.5-.2 4.9-.3 7.2-.7.5-.1 1.1-.2 1.6-.6.1 0 .1-.3 0-.4a.9.9 0 0 0-.2-.3l-.6-.6a119 119 0 0 1-2-2.5c.3.1-1.1-1.9-2.7-4.5a53.5 53.5 0 0 1-3.9-7.4v-.2l-1.3-4.2c-.3-1.5-.8-3.2-1-5.6v-2.2a10 10 0 0 0-.1-1.4.5.5 0 0 0 0-.1s-.2-.3-.4-.2l-.2.4v.3c-.2 1.4-.1 2.8 0 4.2a60 60 0 0 0 1.1 7.9c.8 3.5 2.4 7.3 4.5 10.1a20 20 0 0 0 5.7 5.4 27.9 27.9 0 0 1-7.5-9.9 27.9 27.9 0 0 1-2.7-10.5 29.5 29.5 0 0 0 3.4 10.5l-.8-2.3.8 1.8c-.3-1 1 1.3 1 1-1-2.1-1.9-4.3-2.5-6.6 1 3.6 0 1.3-.4.3l-.8-3.6c.1.8.5 3-.1.5-.3-1.5-.6-3.5-.6-5.1.1 1 .4 1.9.6 2.9-.4-2.2-.5-4.3-.2-6.1v-.4l-.2-.1-.7-.2a1 1 0 0 1-.2-.2h-.1s0-.1 0 0h-.2c-.1.2-.3.2-.5.3l-.6.2v.1a9.7 9.7 0 0 1 0 .9v2.1l.2 1.8-.1 1.5c.2 1.5.6 3 1 4.5l-.2-.5.8 2.7 1 2.5 1.5 2.5.6.8c1.1 2 2.4 3.8 2.8 4.6l-1.6-2.1 1.2 2c-.8-1.4 1.3 1.7 1.7 2l2.6 3.5.3.3.2.3.3-.3v-.1l.2-.2.4-.2.2-.1-.4-.5-.4-.6v-.2l-.7.2c-1.5.3-3.4.4-4.9.5-1.4 0-2.5.1-2.6.3-6.2.2-12.9.4-19 1.7a25.1 25.1 0 0 0-6.5 3 4.3 4.3 0 0 0-1.2 3.2v.6a5.5 5.5 0 0 0 .4 1v.2c-.3.3-.9.7-1.6 1-1.4.6-3.1 1-5.3 1.6l.6-.2-3.8 1c-5.4.8-7.4 1.5-13.8 2.2a69.5 69.5 0 0 0-11.9 2.8c-3.2.9-7.3 1.5-10.2 2l1.8-.5-2.4.4c-4.2 1-4.5.9-9.9 2.1-7.5 1.3-6.3 1.7-9.4 2.5l-7.3 1h.2c-4.2 1.2-3.3.8-13.4 2.4l.5.2c-3.4.2-4.9.7-9.3 1.3l-5.6.5c-2.5.2-5 .3-7 .7-3.9.1-6.7.4-9.5.7a83 83 0 0 1-8.7.5c-4-.2-6.9.2-7.6-.2h.7l-1.5-.5-.2.3a35 35 0 0 1-4-.8c-1.3-.4-2.6-.9-3.5-1.4-1.8-.5-3.6-1.1-5.3-1.9l4 2-.1-.2c1.3.6 4.7 1.7 6.3 2l-2-.3c2.3.6.4.3-.3.1l-3.7-1.2c-.7-.2-1.3-.3-2.9-1.1-.7-.4-2-1.2-1.5-1-1-.5-2.6-1.6-3.8-2.8-1.3-1.1-2-2.4-2.2-2.4l-.2-.4c0 .4.1 1.3.7 2.4.6.9 1.5 2.1 2.7 3.3Z" fill="#000"/><path d="m508.2 90.8-2.2 3.3-2 2.9-2.8 3.2-2.5 2.8-2.4 2.6-1.1 1.3-1.2 1.2-2.4 2.4-2.6 2.5c-1.8 1.7-4 3.3-6.4 5.2-2.2 1.6-4.2 3.1-6.3 4.4l-3 2-3 1.8c-1.9 1.2-4 2.2-6 3.3l-3.4 1.6-3.5 1.5a26 26 0 0 1-4.3 2c-1 .5-2.1.9-3.4 1.3l-1.9.7-2 .5c-5.4 1.7-11.6 2.8-15.3 3.9-5.2 1.1-8 2-4 1.4l-6 1.1c-1.3.2-2.3.4-5.3 1.2l2-.8c-2 .4-4.2.8-6.7 1.7-1 .3-1.9.7-2.8 1.2-3.5 1-6.2 2.2-8.8 3.6-2.6 1.3-5.2 2.9-8.7 4.4 4.7-2-2 1.2-1.5 1.1l-3 1-1 .3c-6.4 2-12.4 3.2-16.3 3.3l-2.4.4c-4.1.6-7.4.7-11.3 1.1l-.5.3c-2.5.4-7 1.2-9.3 1.4-6.6 1.2-14.6 3.4-21.3 5.1-6.8 1.3-3.8 1.1-9.8 2.5-3.9.7-10.6 2.2-13 2.3 5.4-1 6-1.5 11.8-2.5-2.2.3 9.5-2.2 4.4-1.3-10.8 2.6-24.4 4.6-34.4 6.3.7-.5-12.6 1.5-17 2l-.3-.1-12.7 1.3c-7.2.7-14.4 1.3-20.6 1.4-9 .3-19.8 1.3-23.7 1.8 11.1 0 21.5-1.3 29.7-1.2-7.6.4-8.1.6-14 1.2h3l-2.4.2c1.3 0-2 .4-1.7.5l9.2-.5c-5 .2-1.7-.2-.2-.5l4.7-.2c-1.1 0-4 0-.6-.2l6.6-.5-3.8.7c5.8-.7 10.2-.4 16-1.2l1.8.2 5.4-.6-.6.2 6.6-.7c3.5-.5 4-.7 4.7-.9l6.4-.8-3.1.6 3-.3c-2.1.2 2.3-.5 3-.6 6.6-.9 4.6-.7 8.8-1.1 4.2-.8 9.4-1.4 9.6-1.8 7.7-1.1 16-2.8 23.2-4.4l3.1-.8c8.6-1.7 12.4-3 21.3-4.6l-.7.2 4.9-1c6.8-.9 9.4-1.4 17.4-2.1 8.6-1 12.4-2.4 15-3.6 4-1.4 8.8-3.6 12.2-5.3l-2.1 1.2 2.8-1.3a69 69 0 0 1 5-2.4l6.4-2.6 7.8-2.4c1.2-.4 1.8-.8 3.8-1.4l9-1.5h-.2c2.6-.8 3.6-1 5.6-1.5l3.9-.8c1.7-.4 4-1 7.1-2h-.6l2.8-.7 2.4-.9 5.9-2.4 2.7-1 4-1.7 4-2 2-1.1 1.6-1 3-1.7c1-.5 1.8-1.2 2.6-1.7l2.4-1.6 2-1.6c1.4-1.1 2.8-2.1 4.1-3.3 1.4-1.2 2.9-2.3 4.4-3.7 1-.8 2-1.5 2.7-2.2l2-2c1.2-1.2 2-2 2.5-2.2l-.6.7 1.6-1v-.4a120.5 120.5 0 0 0 6.9-7.3l2-2.9 2-3c-1 1.5-2.3 3-3.5 4.4h.2l-2.6 3c-1 1.3-2.1 2.6-3 3.3l1.7-2c-2 2.2-.5.3 0-.4 4-4.3 2.7-3.3 5.4-6.9.7-.7 1.8-2.3 1.4-1.6l3.4-4.8 2-3.4.3-.5c-.5.3-1.2 1-2.1 2-1 .9-2 2.2-3.3 3.5Z" fill="#000"/><path d="m209.3 180.7-2.7.4c-4.3-.2-6.5.8-11 .7-4 .1-6.9.4-10.7.2-1.2 1-7.5 0-10.3.6-2 .1-3 .5-1.5.6-2.7 0-2-.3-4.2-.1l.7-.4c-.7 0-1.5-.2-2.5-.1l-1 .3c-2.7-.3-4.2.3-7 0 1.8.3-.9.3-.7.5-.4-.1-2.1-.2-1.5-.3-2.5 0-4.7.5-6 0l-1 .2c-1.4.2-2.7 0-4 0h-.2c-1 .2-2.6.2-3.4 0-2.5 0-5.5.3-8 .5-2.5-.2-1.4.3-3.7.4-1.4 0-3.9.2-4.7 0 2-.1 2.2-.6 4.3-.5-.8-.1 3.6-.1 1.7-.4-2 .2-4.3.2-6.5.3-2.2 0-4.3-.5-6.1-.8.2-.2-1-.5-2.2-1a8.2 8.2 0 0 1-3-2v-.2c-.4-.6-.4-1-.5-1.8a45.4 45.4 0 0 0-3-9.7c-.6-1.6-1.8-3-3-4.1a9.4 9.4 0 0 0-3.1-1.9c1.6 1.2 3 2.5 4.1 3.9 1 1.4 1.9 3 2.1 4.4a11 11 0 0 0-2.7-4.1l.5 1-.6-.7c.2.4-.6-.4-.7-.2.7.8 1.2 1.7 1.7 2.6-.7-1.5 0-.7.4-.3l.7 1.5c0-.4-.5-1.4.1-.3l.9 2.1-.8-1c1 1.7.8 3.4 1.4 5.2l-.2.7.1.9v.7l.1.3-.1-.3v.4l.1.6c0 .3.3.6.4 1l.5.7.6.6c.7.6 1.1.8 1.4.9h.6c1 .6 2 1 2.4 1.1l-1.3-.2 1 .5c-.3-.2 0-.1.3 0l1 .2c2.5.7 1.8.4 3.3 1l2.5.2h1l.3-.1c2.9.2 5.9.2 8.6.2l1.1-.2c3.2.2 4.7 0 8-.1h-.3l1.8-.2c2.5.2 3.5-.2 6.4 0 3.1.1 4.5-.2 5.5-.6 1.5-.2 3.4 0 4.8.1l-.9.1 1.1.2 4.6-.2c3.5.2 3-.4 4.5-.7l3.3.4v-.1c1.9-.5 1.4-.2 6.1-.3l-.2-.2c1.6.2 2.2-.2 4.3-.2 1 0 4 .3 5.7 0 3.6.2 5.3-.6 8.3-.6 1.9.1 3.2-.4 3.5 0h-.3l.7.4v-.3c1.2.1 2.7 0 3.7.3l2.5-.7-2 .1c-.6.1-2.2.2-3 .1h1c-1.1-.1-.2-.3 0-.3 2.2 0 1.6-.2 3.2-.3h.8c1 0 3.5.1 3.6-.2h.2c-.4-.5-1.5-1-2.9-1.4Z" fill="#000"/><g opacity=".8" fill="#373735"><path d="m358.4 127.7.2.3a.4.4 0 0 1 0-.2h-.2Zm1 1-.3-.2.3.2Zm-.4-.4s0 .1 0 0l.1.2a1 1 0 0 1 0-.2Zm0 0v-.1.1Zm.6-.4c.1 0 0 .1 0 .2l.7.2.3.3c.3 0 1 0 .6-.2-.5 0-.9-.2-1.3-.4l-1-.7-.2-.3.2.4c0 .2.5.3.8.5ZM358 125v.2c-.2.3-.1.6 0 .9v-.2c0-.1 0-.1 0 0l.1-1-.1.1Z"/><path d="M358.2 124.9v.2-.2Zm2.4 4.2c.8.3 1.6.3 2.3.2h.4l.3-.1h.1v-.2a.5.5 0 0 1-.1 0H364.2h-.3l-.2.1a9.8 9.8 0 0 0 .8-.2l.5-.2h.1c.2 0 .4-.2.5-.3l.3-.3h.1l.2-.1h-.4c-.1 0-.1.3-.3.2.2.1.2-.3.3-.2h.4c0-.2.3-.3.5-.3-.1.2-.3.3-.5.3l-.2.2a2.2 2.2 0 0 0-.1 0l-.3.2 1-.5c2.1-1.3 3.6-3.2 5-5.2.8-1 1.6-2 2.6-2.6l1.5-.6 1.6-.1h1.8l.7.2.6.4 1.2 1c.4.3.7.7.8 1 .3.2.5.2.8.2.3 0 .5-.2.5-.2.4-.5.3-1 0-1.4l-1.1-1.6c.4.5.1.4-.3.1l-.8-.5-.8-.7c-.3-.3-.8-.5-1.3-.6h-2.9a7 7 0 0 0-1.8.4c-.6.1-1 .5-1.6.8a9.4 9.4 0 0 0-3.1 3.4c-.7 1.2-1.4 2.3-2.4 3.2l-1.3 1.6-1.1.6-1.3.8 1.2-.7c.4-.2 0 .4-.3.5 0 .1-.3 0-.4 0l-.6.5s-.1-.1-.2 0c-.3 0-.5.4-.7.4h-.5a1.3 1.3 0 0 0-.3 0h-.2v.2h-.2.3v-.2a3 3 0 0 1-1.6 0c.3 0 .5.2.8.4l.1-.1h.1c-.3.1-.6 0-.8-.1h-.2v-.2a3.3 3.3 0 0 0-.2 0l.4.3Z"/><path d="m363.9 129-.1.1.5-.1c0-.1-.2 0-.4 0Z"/></g><path d="m45.9 57.8 3-6.1c3-4.5 5.4-7.8 8.1-10.8 1.4-1.6 2.8-3 4.6-4.3 1.8-1.4 3.9-2.5 6.4-4 4.3-2.7 8-4.5 12-6s8-2.5 12.8-3.4a45 45 0 0 1 11.3-2c5.2-.5 11-.6 14.5-1a84 84 0 0 0 5-.1c.9 0 .6-.2-1.2-.4 3.3.1 4.6.3 5.7.5l4.8.5-1.9.1a130.3 130.3 0 0 1 6.2 1l2.7.2 8.4 2 4 1 4.5 1.7c-2.1-1-1.6-.7-.6-.4 1 .3 2.5.8 2.3.6 1 .5 5 2.4 3.5 1.8 5.5 2.7 10.7 5 13.4 7.2l2 1c3.4 2 5.9 3.8 8.8 5.7l.5.1 7.3 4.7c2.5 1.7 5.5 3.4 8.6 5 3.2 1.6 6.3 3.2 9.3 4.4 5.6 2.8 3.3 1.2 8.6 3.3 1.6.8 4 1.6 6.1 2.4l3 1 2.1.9-5.1-1.6c-1.4-.4-2.9-.8-5.3-1.8 1.8.9-8.4-3.3-4-1.3 2.3.9 4.8 2 7.4 2.8l4 1.5 4 1.3c1.3.4 2.6 1 4 1.3l3.8 1.1 7.3 2a97 97 0 0 0 15.3 3.8l.2.1a136.2 136.2 0 0 0 11.6 2.2c6.6 1.3 13.1 2.2 18.7 3.4 8.2 1.6 18 2.4 21.7 2.6-10-1.8-19.7-2.5-27-4.5 7 1.3 7.4 1.2 12.9 1.8l-2.9-.6 2.4.2c-1.2-.3 1.9 0 1.6-.2l-8.4-1.2c4.5.8 1.5.5.1.5l-4.3-.8c1 .3 3.7.8.5.4-1.7-.4-4-.6-6-1l3.5.2c-5.3-.6-9.1-2-14.4-2.7l-1.5-.6-5-1h.6l-5.8-1.3c-3.2-.6-3.7-.6-4.3-.6-2.5-.6-4.8-1-5.8-1.4l2.9.5-2.6-.7c1.8.5-2.2-.4-2.9-.5-5.7-1.7-4-1.1-7.6-2.4a83.8 83.8 0 0 1-8.6-2.5l-5-1.9-5.1-2-5-2-4.7-2.2-2.7-1c-7-3.9-10.3-5.5-17.4-9.9l.6.3-4-2.3c-5.2-3.5-7.5-4.5-13.7-8.6a52 52 0 0 0-12.7-6.1c-3.6-1.5-8-3.4-11.4-4.5l2.2.6-2.7-1c-2.4-.8-3.7-1-5.2-1.5l-2.5-.5c-1-.3-2.2-.5-3.8-.7-4.4-1-6.3-1-7.6-1-1.2 0-1.8.2-3.7.2l-4.3-.5-2-.2h-2.2.2c-2.5.2-3.5.3-5.3.3-1.8 0-4.5 0-10.4.7l.5.2c-2 0-3.4.2-5 .5l-5.7 1-6.5 1.3c-2.7.6-5.7 1.5-7.7 2.4-4.3 1.4-7.3 3-10 4.7l-4 2.6-4.5 2.9c-4 2.5-5.8 5.3-6.7 5.7l.6-.6-1.5 1v.3c-1.9 2-4.1 5.4-5.6 7.3l-2.9 5.9c.8-1.4 1.6-3 2.6-4.5l-.2.1c.9-1.4 3-4.9 4.4-6.3l-1.3 2c1.6-2.2.4-.3 0 .3-1.6 2.2-2 3-2.4 3.8l-1.6 3c-.5.9-1.4 2.4-1.2 1.8l-2.5 4.7c-.8 1.7-1.5 3.2-1.4 3.4l-.3.4 1.8-2 2.7-3.7Z" fill="#1D1D1B"/><path d="M309.5 46.8a23.5 23.5 0 0 0-16.6 0 34.3 34.3 0 0 0-6.1 3l-1.3.9-1.2.9c-1.6 1.2-3 2.4-4.3 2.9l-1.2.4-1 .2h-2.7c-1.8.1-3.5 0-5.2-.2-1.7-.3-3.4-1-4.8-2a16.5 16.5 0 0 1-4-4.2l-.7-1.3-.4-.8-.3-.6c-.3-1-.4-2.1-.5-3.2 0-1 .4-2.1 1.1-2.7.6-.6 1.7-.7 2.4-.4l.5.4.5.5.3.7.1.5.1.5.6 1.6.4 1 .4 1 .3.6.2.3.5.5 1-3.6a13.8 13.8 0 0 1 1.4-3.3l.2-.3.3-.4.3-.1h.4l1.1.1c.4.1.6.3.9.6l.4.4.3.5.5 1.1c0 .7 0 2.4-.2 3.1-.3 1.1-.7 2.1-1.2 3a21.4 21.4 0 0 1-8 6.7c-.5.4-1.1.8-2.3.9a39.5 39.5 0 0 1-7.3-.3h-.8l-.3-.1h-.3l-1.5-.5-3.1-.8-3.3-.7-6.8-1.5a125.9 125.9 0 0 1-17.2-6l-2.7-1.3-2.2-1.2-3-1.5c-1.3-.6-1-.3 1.8 1.4a98 98 0 0 1-8.4-5.3l-7-4.8 2.9 1.6c-2.6-1.9-5.5-4-9-6.3l-4.2-2.4c-4.8-3.2-8.8-5.4-13-7.5l-6.6-3-7.9-3.5c7.6 3.3-3.5-1.2-2.8-.7-1.7-.8-8.9-3.4-6.4-2.6-10-3.6-19.9-5-25.8-6.5l-3.9-.4-2.4-.3-2.3-.2-4.5-.5c-1.5 0-3-.2-4.4-.3h-2.2l-2.3-.1-.8.2a101.4 101.4 0 0 0-48.5 11c-5 2.3-6.3 3.2-7.5 4l-2 1.4-4.3 2.9c-1.3.8-2.8 2-4.3 3.1L35 25.1l-2.3 2-2.2 1.9-2 1.8a85.4 85.4 0 0 1 1-1c1-1.2 2-2 2.8-2.8l3-2.8a179 179 0 0 1 5.2-4l3.9-2.5 1-.7.9-.6 1.2-.7-1.6.8c-2 1.1-3.8 2.5-5.7 3.8l-5.7 4.3c-1.8 1.6-3.7 3.1-5.4 4.8L26.4 32l-1.3 1.3-1.2 1.3A84 84 0 0 0 8.7 57.4c0-.4-.5.6-1.4 2.4L6 63l-.7 2-.4 1-.3 1-1.3 4.6c-.3.7-.4 1.5-.6 2.3L2.3 76a59.4 59.4 0 0 0-1 7.5v.4L1 88.4V93a82.5 82.5 0 0 0 14.5 41.8 61.2 61.2 0 0 0 23.9 20.2l3.4 1.4 2.7 1A64.6 64.6 0 0 1 11.3 126 63.3 63.3 0 0 0 25 143.6l-1.7-1.8-1.6-1.8 2.8 2.8c-.6-.8 0-.2.7.4.8.6 1.7 1.3 1.5 1a67.7 67.7 0 0 1-9.6-10.6l2.3 3.2-2.4-2.6c-.8-1-1.4-2.1-2.1-3.1l-2-3.2c.8 1.5 3.2 5.5.3.9a69 69 0 0 1-4.7-9.3l2.9 5.2a57 57 0 0 1-4.8-11.5c-1.2-3.9-2.1-7.8-3-12.2v-2.8c-.3-2.9-.5-5.7-.5-8.6l.1 1c0-3.4.2-6.8.6-10.2.7-5.5 1-6.3 1-7.3l1.6-5.8c.5-1.7 1.1-3 1.4-3.9l-1.4 4.8c.4-1.5 1-2.9 1.6-4.3a286 286 0 0 0 1.7-4.7c2.1-4.7 3.1-6.2 3.8-7.4.7-1.1 1-1.9 3-4.5 1.7-2.9 4.1-5.7 6-8l3.4-4c1-1.2 2.2-2.2 3.3-3.3l1.7-1.6 1.7-1.5 3.6-3L40 23c1.2-1 2.6-1.8 3.8-2.6a921.3 921.3 0 0 1 7.8-4.7l4-2c.8-.4 1.5-.9 2.3-1.2l2.3-1.1c3.2-1.4 6-2.3 8.6-3.2 1.3-.5 2.6-.7 3.9-1.1 1.2-.4 2.4-.8 3.6-1l3.8-1 2-.3 2-.4 4.4-.7 5-.6-1 .2 1.9-.2 2-.2 3.9-.3h7.1l6 .2 6.4.5 3.8.6 4.3.7 4.7.9 4 .9L143 8l2.6.7 2.2.5 3.7 1c6.3 1.8 14 5.3 19.3 7.9l-3.6-1.5 2.3 1 2.2 1.2c3.8 1.8 5.8 3 8 4.1 2.3 1.3 4.8 2.7 9.6 5.7 6.3 4.2 9 6 11 7l5.6 3.3c4 2.8 8.1 5.5 12.4 7.9l-.2-.3 8.5 3.6c3 1.1 7.4 3 17.5 5l-.9-.5a124.4 124.4 0 0 0 8.4 2l1 .3 1.2.1 2.3.2c1.6.2 3.5.2 5.7.1.8 0 2-.1 3.1-.8a26.2 26.2 0 0 0 3.8-2.2 19.4 19.4 0 0 0 5.2-5.8l1-2.5.2-2v-2a6 6 0 0 0-2.5-3.4c-.8-.5-1.7-.6-2.5-.6-.4 0-.9 0-1.2.2-.4.2-.7.6-1 1l-.5.7-.4.8-.6 1.5-.2.7v.1s0 .1 0 0l-.1-.1-.1-.4c-.2-.4-.2-1-.3-1.4a4.3 4.3 0 0 0-1.9-2.5c-1-.7-2.4-.7-3.4-.2-1.1.4-1.9 1.4-2.3 2.4-.2.5-.3 1-.3 1.7l.2 1.6a10 10 0 0 0 1 3.3c1 2 2.4 4 4.4 5.8 1.5 1.4 3.2 2.3 4.8 2.7 1.6.5 3.2.6 4.5.7 2.6.1 4.4 0 5.2.2h-1.4c1 .1 2 .4 3 .1l.3-.3 1.9-.7 1.7-1.1 3.5-2.6c2.3-1.6 4.9-2.7 6.8-3.4a21 21 0 0 1 10.9-1.3c-2.7-.5-5.8-.6-8.8.1h.3c-1.4.3-3.8 1.3-6 2.4-2.3 1.2-4.4 2.9-5.8 3.8 1-.8 2.1-1.7 3.2-2.4-3.8 2.6-.7.2.3-.5 2-1.3 3.6-2 4.7-2.4l1.4-.6 1.1-.4 2.2-.6 1.7-.2 1-.1h1.3c1.7 0 4.7.7 3.6.6a23.8 23.8 0 0 1 8.7 3.4c3 1.8 5 3.9 5.2 3.9l.6.6-1-1.4c-.5-.6-1-1.4-1.9-2.1-1.6-1.6-4-3.4-7-4.8Z" fill="#1D1D1B"/></g></svg>