<svg xmlns="http://www.w3.org/2000/svg" viewBox="0 0 4053 4180"><path d="m403.3 551 .4.4c16.6 22.2 60.8 81.1 112.5 74.6 22.2-2.8 50-18 62-45.4 8-18.5 10.7-45.1-.2-58.1-7.2-8.7-40.1-29.4-174.7 28.4zm2781 666.8c30 69.9 94 187.1 142.7 178.3 12.5-2.3 25.4-13.1 35.3-29.7 14.8-24.8 19.7-55.5 12.3-78.3-11-34-48.7-51.4-78.4-60a319.2 319.2 0 0 0-112-10.3zM3580.6 4180c-53.3 0-100-10.7-139.1-31.9-51.3-27.8-87-73-112.3-142.6-23.1-63.4-36.7-143.4-52.5-236-5.5-32.1-11.1-65.4-17.6-100.5-33.6-182.7-84.5-458.9-169-707.3-46.5-136.7-98-248.2-153-331.5-64.4-97.5-135.3-159-210.7-182.9-84-26.5-137.6 4.2-234.7 60-92.3 53-218.7 125.5-442 190.8-225.2 65.9-374.5 73-483.5 78.2-116.9 5.6-187.4 9-256.7 81.2-128.2 133.8-94.8 339.5-62.4 538.4 16.3 100.3 33.1 204.1 28.4 296.3-2.5 50-11 92.7-26 130.7a288 288 0 0 1-74.6 109.4c-41 37.6-96.2 67.7-159.8 86.9-59.7 18-123 25.6-183 22-83.6-5.1-149.6-31.3-185.8-73.7-43.1-50.5-39.1-117.7-37.4-146.3v-1.5c12.5-211-34-409.4-87.9-639-76-324-162-691-100-1197 47.4-386.2 70.6-573.5 80.8-609.8 5.4-19.5 11.4-39.5 17.1-59 33.1-112 67.4-227.9 20.9-265.5-17-13.8-37.7-10.9-68.9-6.5-33.4 4.7-79.3 11.2-143.1-1.1-67.5-13-114.4-43.7-164-76l-8.5-5.6C54.5 894.6 3.8 861.7.2 812c-1.4-19.8 5-38.5 19.9-57.3 13.5-17.2 34.7-35.2 64.7-54.8 57.3-37.5 142-78.8 259.2-136a1316 1316 0 0 1 39.2-18.3c-30.6-43.7-47.3-98.9-48.5-160.3A362.7 362.7 0 0 1 377 208.5a313.4 313.4 0 0 1 65.2-83c22.8-20.7 49.5-39 79.6-54.5C578 42 637.3 27 676.6 17.3a659 659 0 0 1 334.6 9c45.8 13.3 164.9 55.7 280.2 162.6 77.4 72 113.9 136.7 174.4 244l14.8 26.2c98.6 174.3 145.4 245.3 176.3 292.2 27.6 41.8 44.2 67 74.6 129 66.8 136.5 136 277.6 174.4 419.3 20.8 76.9 30.7 146.3 30 212a526 526 0 0 1-43.2 206.9 593.9 593.9 0 0 1-152.6 205.7c-75.4 65.3-163.6 107-255.3 120.4a486.5 486.5 0 0 1-246.7-29 515.4 515.4 0 0 1-116.1-61.7 483 483 0 0 1-134.3-150.5c-30.3-52.5-47-103-56.1-130.2-39.5-119-25.5-236.7-.3-450.6 20.8-175.4 48.3-306.8 84.2-401.5 33.2-87.8 69.2-130.3 96.8-157.5 38.2-37.7 77.2-61.6 119.2-73.2 112.8-31.2 216.6 27.8 256 54.6l-7.3 10.7c-37.9-25.8-137.7-82.5-245.3-52.8-39.7 11-76.9 33.9-113.5 70-62.7 61.8-132.8 175.6-177.2 551.3-26.9 228-37.3 333.4-.3 444.9 19.8 59.5 61 183.4 185.7 274.3 26.8 19.5 169.5 115.4 353.4 88.4 203.8-30 341.7-190.3 397.8-318.5 115.3-263.3-31.5-563-161-827.3a947.7 947.7 0 0 0-73.7-127.5c-31-47.1-78-118.3-176.8-293l-14.9-26.3c-59.8-106.1-96-170.2-171.9-240.7-113.2-105.1-230-146.7-275-159.7a645.5 645.5 0 0 0-327.8-9c-82.7 20.8-221.3 55.6-291.3 185-57 105.2-53.7 240.5 7 325.5 58.8-25.6 105.9-39.4 140.2-41.3 25.2-1.4 42.8 3.7 52.4 15.1 16.1 19.3 10 53.4 2.1 71.7a94 94 0 0 1-82 53.7c-54.6 0-98-57.8-114.8-80.3l-2.2-2.9c-13 5.7-26.7 12.1-41.4 19.3C233 632.6 148.5 673.8 92 710.8c-28.8 18.8-49 35.8-61.6 51.9-12.7 16.2-18.3 32-17.1 48.4 3.1 43.2 52 75 149.2 138.2l8.4 5.5c48.6 31.7 94.4 61.6 159.4 74.2 61.8 12 104.5 6 139 1 33.2-4.7 57.3-8 78.7 9.3 13.1 10.5 21.6 26.4 25.3 47 3.3 18 3 39.8-.6 66.6-6.7 49-24.3 108.4-41.2 165.8-5.8 19.3-11.7 39.3-17.1 58.7-10 35.4-33.1 222.3-80.4 607.9-61.8 503.7 24 869.5 99.8 1192.3 26.6 113.4 51.7 220.4 68.7 326.1 19 118.8 25.3 219.4 19.6 316.7l-.1 1.5c-1.6 27.1-5.4 90.6 34.3 137.2 33.9 39.7 96.6 64.2 176.7 69 124.6 7.6 255.4-33.8 333.3-105.4 133.4-122.7 101.6-318 68-524.7-16.2-100.3-33-203.9-29.2-298.2a457 457 0 0 1 24-135 317.4 317.4 0 0 1 71.2-116.3 234.6 234.6 0 0 1 115.8-69c42.2-11 89.6-13.3 149.6-16.2 108.4-5.2 256.8-12.2 480.5-77.7 221.8-64.9 347.4-137 439.1-189.6 97-55.7 155.6-89.3 245.1-61a327.6 327.6 0 0 1 117.7 69.3 600.8 600.8 0 0 1 100 118.8c55.5 84.2 107.5 196.7 154.4 334.4 84.9 249.3 135.8 526 169.5 709.2 6.5 35.2 12.2 68.5 17.6 100.7 15.7 92 29.2 171.3 52 233.7 24.4 67.2 57.2 109 106.2 135.6 73.4 39.8 178 40.6 286.9 2.3 109.7-38.7 204.3-110.5 259.6-197 75-117.7 47-217.1-9-415.1-36.5-129-86.4-305.4-126.3-556.5-41.2-259.3-48.8-441.8-54.9-588.5-9.2-221-14.8-354.3-132-528-79.2-117.3-119.8-183.3-140.3-227.8-22.8-49.4-21.7-75-12.7-100.4 14.5-40.6 50-53 99.3-70 51-17.7 121-42 198-111.8l9.7-8.6c29.2-25.4 78-68 93.5-129.2 17.4-68.5-7.5-158.7-66.7-241.2-75.5-105.5-188.2-173.8-301.3-182.7-108.4-8.6-229.7 36.3-316.6 117-62.2 57.9-97.6 127-97.2 189.9.3 38.6 13.8 77.7 40.3 116.2 40.2-4.2 85.4-.4 121.8 10.2 47 13.7 77 37.4 87.2 68.6 8.4 26.2 3.1 61.1-13.5 89-12 20-27.8 32.8-44.2 35.8-31.2 5.6-67-24-106.6-88.3a835.5 835.5 0 0 1-51.9-101.3c-74.4 10.2-117 49.6-166.1 95.1-32.8 30.3-69.8 64.6-121 93.7a488.8 488.8 0 0 1-156 55.6c-72.4 13-153.8 12.7-242-1l2-13c154.6 24.2 285.7 6.4 389.6-52.9 49.8-28.3 84.7-60.7 118.5-92 49.6-45.8 92.8-85.8 167.8-97.6-25.6-39-38.6-78.6-38.9-118-.2-34.3 9-69.6 27.4-104.8a355.2 355.2 0 0 1 74-94.7 468 468 0 0 1 149.3-92.7 408 408 0 0 1 177.1-27.8 386.6 386.6 0 0 1 177.7 61.5 487 487 0 0 1 133.2 126.6c61.3 85.6 87 179.8 68.7 252-16.5 65.2-69.2 111.1-97.5 135.8l-9.6 8.5c-79 71.5-150.4 96.3-202.5 114.4-47.5 16.5-78.9 27.4-91.2 62-8.2 23-8.8 45.1 12.2 90.7 20.2 43.8 60.5 109.2 139.2 225.8 119.4 177 125 311.6 134.3 534.8 6 146.4 13.7 328.6 54.8 587.1 39.7 250.3 89.5 426.4 125.9 555 57 201.7 85.6 303 7.4 425.5-56.8 89-153.8 162.7-266.2 202.3a483.3 483.3 0 0 1-158 28.8h-.3z" fill-rule="evenodd"/></svg>