<svg xmlns="http://www.w3.org/2000/svg" viewBox="0 0 2311 965"><path d="M13.6 731.6a4.6 4.6 0 0 1 6.1-2 4.6 4.6 0 0 1 2 6.1c-25 49.6-10.6 105.3 26.8 146.6 19 21 44 38.2 72.8 49a194.4 194.4 0 0 0 95.6 10.5c73.7-10.2 155-63 222.6-184.7a250.6 250.6 0 0 1-22.5-16.3c-44.8-36.5-77.8-88.5-87.7-144.6a136.4 136.4 0 0 1-1.7-13.2c-8.3-106 102-242.3 238.9-356.3C703 113 866.3 21 964.8 3.5c6.8-1.2 13.4-2 19.7-2.6 20.6-1.6 45.4-1.1 68.3 1.4a203 203 0 0 1 54.4 12.2c45.7 19.6 78.6 44.4 103 73.8l.2.2c24.3 29.5 40 63.6 51.4 101.8 7.5 25.3 9.3 35 3.3 36.8-4 1.2-8-2.4-14.5-8-13.2-11.5-38.5-33.5-74.2-35.3-31.4-1.5-67.7 4.7-105.6 15.7-2 6-5.3 12.4-9.6 18.7-28.7 41.7-73 90.1-118.8 135.2-64.9 63.9-132.6 121-162.7 142a623.5 623.5 0 0 1-74.7 41.8 1724.7 1724.7 0 0 1-31 14.9c93.5-1.8 189.4-9.5 275.3-35.8 103.8-31.7 193.2-90.6 246.8-198.9 15.1-30.4 20.5-55.3 24.2-72 2.4-11.2 4.1-19 7.6-23.3 5.8-7.1 13.2-5.4 27.8 6.4 2.2 1.7 4 4 5.3 6.7 7 14.3 2.6 45.3-10.5 81.4a439.8 439.8 0 0 1-60.6 111.5 261.4 261.4 0 0 1-67.7 64.8c14.8-3.9 30.6-7.7 47.5-11.7l10.2-2.3c138.8-32.4 352.7-82.3 485.5-18.3 60.3 29 102.5 64.8 127.7 103.4a86.1 86.1 0 0 0-21-38.5c-29.6-34-86.2-66.3-154.4-86a4.6 4.6 0 0 1 1.6-9c92.4 5.5 155.9 22.4 199 50.8 43.7 28.6 66.5 68.8 77.3 120.7a215 215 0 0 1-8.4 124.5c-3 8.2-6.2 14.2-8.6 18.8-5 9.5-5.7 10.9 12.2 23.9 100 72.7 195.5 67.4 269.2 20.1 53.3-34.2 95.3-90.3 119.4-154.6 24-64.4 30.1-137.1 11.6-204.3-29.4-107.1-121.5-200.6-303-225.5a4.6 4.6 0 0 1-3.8-5.2 4.6 4.6 0 0 1 5.1-3.9c185.8 25.5 280.2 121.8 310.6 232.2 19 69.1 12.8 143.7-12 209.9-24.7 66.1-68 123.9-123 159.1-76.6 49.2-175.9 55-279.4-20.4-24.3-17.7-23.2-19.9-15-35.6 2.3-4.2 5.1-9.7 8-17.7h.1a205.9 205.9 0 0 0 13-64.2c.8-20-1.4-38.5-5-55.2-10.3-49.6-32-87.8-73.3-115-35.7-23.5-86.2-38.8-156.8-46.2 53.5 20.2 97.3 47.8 122.6 76.8 13.7 15.8 22 32 23.8 48 .5 4.4.5 8.7-.1 13a179.3 179.3 0 0 1 3.8 7.8 158.2 158.2 0 0 1 11.2 99.8c11.5 8.6 22 18 30.4 28a39.4 39.4 0 0 1 4.5 6.5c8 14.6 5 31.5-3.7 47.7a153.6 153.6 0 0 1-35.2 41.8c-7.7 6.5-15.4 12-22.1 15.7-78.7 43.5-265.1 100.3-450.2 124.9-137.3 18.2-274 18.9-366-16.6-69.3-26.7-106.2-60.5-125-101.8-17.7-39.2-18.9-84.7-15.8-137.2A1503.2 1503.2 0 0 1 684 763c-41.3 15-81.6 26.5-113.5 29-43.4 3.5-86-8.2-123.2-30.2-69.3 124.5-153 178.4-229.2 189-35.7 5-69.9.4-100-11a197 197 0 0 1-76.4-51.5c-39.9-44-55.1-103.6-28.1-156.8zM443.9 749a751 751 0 0 0 29.5-61.8c-.6-2.3-1.3-4.3-2.1-6-13.4-6.2-124-62-87.7-200.1 21.6-82.2 115.9-185.7 227.7-268.4 110.1-81.5 237.6-143 329.6-144.2 35.5-.4 61.3 4.1 79.7 12 21.8 9.3 33.4 23.3 38.2 39.3 4.6 15.2 2.9 32-1.9 48l3.1.6c5.1 1.3 8.7 4 10.8 8 2 3.6 2.7 8 2.3 13 37-10.4 72.6-16.3 103.7-14.7 39 2 65.8 25.3 79.9 37.5 4 3.6 4.9 6.4 5.8 6.2 1.5-.5-3.9-6.6-9.5-25.6-11-37-26.2-70-49.7-98.4l-.2-.3c-23.4-28.3-55.2-52.1-99.5-71.2a194 194 0 0 0-51.7-11.5c-22.4-2.4-46.6-2.9-66.7-1.3-6 .4-12.3 1.3-18.9 2.5-97 17.2-258.6 108.3-394 221-135 112.5-243.6 246-235.6 348.7.4 4.1.9 8.3 1.6 12.4 9.6 53.8 41.3 103.9 84.5 139a241.4 241.4 0 0 0 21 15.3zm34.4-73.7a896 896 0 0 0 5.3-13.2A569.3 569.3 0 0 1 585 496.4C633.9 439.8 699.6 382 787.9 325a1361 1361 0 0 1 187.8-100.4 32 32 0 0 1 1.8-8.7c5.2-15.2 23.1-33.4 61.8-45.5 2.8-.9 5.4-1.5 7.9-2l.5-1.7c4.6-15 6.4-30.5 2.3-44.2-4-13.5-14-25.4-33-33.5-17.3-7.4-41.9-11.7-76-11.2-90 1-215.5 61.8-324.3 142.3-110.3 81.7-203.2 183.3-224.3 263.4-36 137 80.1 188.4 83.8 190h.1a4.5 4.5 0 0 1 1.9 1.7l.1.2zm13.8-9.9a892.4 892.4 0 0 1-9.2 22.8c.8 4.4 1.3 9.3 1.9 14.6 1.2 11.5 2.5 24.6 7.8 35.8 16.4 35.3 73 53.6 291.7-48.3 57.7-26.9 77.5-51 97-75 29-35.5 57.5-70.4 201-111.6 7-3.9 14.4-7.6 22-11.3 28.9-14.2 55.6-39.9 78.3-69.8 26-34.5 46.8-74.5 59.3-109 12.3-34 16.8-62.3 11-74.4a9.3 9.3 0 0 0-2.7-3.4l-.2-.1c-9.4-7.7-13.4-9.8-15-7.9a62.7 62.7 0 0 0-5.8 19.5 298.5 298.5 0 0 1-24.9 74.2C1149.4 432.4 1058 492.6 952 525c-93.3 28.6-197.8 35.5-298.4 36.5a2508 2508 0 0 1-68.3 30c-19 8-32.2 9-39.4 6.5-5.7-2-8.4-6.1-8.2-11.2.2-4.2 2.6-9 7.2-13.4 10.6-10.4 34.3-21 69.8-20.9l36.8-.1c16.8-7.7 33.6-15.6 49.4-23.4a615 615 0 0 0 73.5-41c29.8-21 97-77.6 161.6-141.1 45.3-44.7 89.3-92.8 117.7-134 2.3-3.3 4.3-6.8 6-10a676.2 676.2 0 0 0-21.8 7c-5.3 8.8-10.4 16-14.3 21-10.3 13-21.4 17.4-30.3 16.4a19.2 19.2 0 0 1-15.2-10.6 21.6 21.6 0 0 1-1.1-2.8 1353.3 1353.3 0 0 0-184.1 98.6C705.4 389.2 640.4 446.3 592 502.4a560.1 560.1 0 0 0-100 163zm-16.3 39.2a740.7 740.7 0 0 1-24.1 49.2 200.4 200.4 0 0 0 118 29.2c31.1-2.5 70.6-13.7 111.1-28.5a1513.9 1513.9 0 0 0 157-69.2 4.6 4.6 0 0 1 6.6 4.4c-3.6 54.6-3.4 101.4 14.5 140.8 17.7 39.2 53.2 71.4 120 97.1 90.3 34.8 225.5 34.1 361.4 16 184-24.5 369-80.7 447-123.8 6.1-3.5 13.3-8.5 20.6-14.7a144.1 144.1 0 0 0 33-39.1c7.3-13.7 10.1-27.6 3.8-39a30.2 30.2 0 0 0-3.4-5 174.2 174.2 0 0 0-26-24.2 174 174 0 0 1-10.6 27.8c-24 49.8-73.6 95.6-146.6 129.1a747.9 747.9 0 0 1-111.5 39c-40.8 11.3-86 20.9-132.5 27.8a1759 1759 0 0 1-155.1 15.4c-65 3.7-124.4 4-167.4 3a346 346 0 0 1-75.4-8.9 162 162 0 0 1-52.5-22.5 110.1 110.1 0 0 1-31.6-30.2c-6.4-10-9-20-8.5-29.9a56 56 0 0 1 10.4-28.3 148.6 148.6 0 0 1 43-38.6 526.5 526.5 0 0 1 77.5-40.1 94.1 94.1 0 0 1-30.4-23.4 120.2 120.2 0 0 1-26.5-65c-5-44 4-75.6 23.3-100.6a154 154 0 0 1 32-30.2c-113.3 36.2-138.7 67.3-164.6 99-20.1 24.7-40.6 49.7-100.1 77.5-225.7 105.1-285.6 83.1-304 43.8a117.6 117.6 0 0 1-8.4-37.9zm509.9-484.3a929.4 929.4 0 0 1 23.2-9.4 810.6 810.6 0 0 1 22.8-8.4c4.2-7.2 8.3-15.3 11.8-23.9l-1.5.5c-35.3 11-51.4 26.8-55.9 39.7l-.4 1.5zm26.5-.9a926.3 926.3 0 0 0-26.8 10.9c.2.8.5 1.5.9 2.2 1.6 3.2 4.5 5.3 8 5.7 6 .7 14-2.9 22.1-13 2.2-2.7 4.7-6.2 7.4-10.2a814.2 814.2 0 0 0-11.6 4.4zm32.3-21.3a645.9 645.9 0 0 1 19-6l.4-3.4c.3-3.2 0-5.9-1-7.9-1-1.7-2.7-2.9-5-3.5-1.2-.3-2.5-.4-4-.4a185 185 0 0 1-9.4 21.2zm763 493.8a263.6 263.6 0 0 0-89.2-41.6c-12.1 3.8-25.6 7.1-40.6 10-31.1 6-69.7 14.3-112.4 23.4-167.2 35.6-396 84.4-483.6 66.7-5.4-1.1-10.5-2.5-15.2-4.1a534.8 534.8 0 0 0-84.6 42.9 140 140 0 0 0-40.3 36 47.1 47.1 0 0 0-8.9 23.7c-.4 8 1.8 16.1 7.1 24.5 5.8 9 15.3 18.2 29 27.5 13.4 9.1 29.6 16.2 49.6 21.2 20.3 5.1 44.4 8 73.4 8.7 42.7 1 101.9.6 166.7-3 49.7-3 102.8-7.7 154.3-15.4 46.3-6.8 91-16.4 131.4-27.4 42.7-11.7 80.5-25 110-38.6 71-32.6 119.2-76.8 142.3-124.8 4.7-9.8 8.4-19.7 11-29.7zm-18.5-22.6a279.3 279.3 0 0 1 20.7 13 145.5 145.5 0 0 0 2.6-25.2c.3-21.1-4-42.3-13.2-63-2.8 6.7-7 13.2-12.9 19.4-11.2 11.8-28.5 22.6-52.5 31.6a288 288 0 0 1 55.3 24.2zm-74.8-29.2 3.8.8c29.3-9.3 49.4-20.8 61.6-33.7 7.5-8 12-16.4 13.6-25.1-22.7-42.2-66.2-81.7-131.8-113.3-129.9-62.5-341.8-13.1-479.5 19l-10.1 2.4c-32.6 7.5-61 14.9-86 22-23.9 13.3-43.7 27.7-57.6 45.8-18 23.1-26.3 52.6-21.5 94 2.4 21 9.5 42.9 24.3 60a86.4 86.4 0 0 0 35.3 24.5c72.2-29.4 159.8-52.6 248-69.5 163.7-31.4 329.4-41 400-27zm-16.8 6.5c-76.3-10-229.5.2-381.4 29.4-83.4 16-166.3 37.6-235.7 64.7l3.2.7c85.6 17.4 313.5-31.2 480-66.7 42.6-9 81.2-17.3 112.5-23.4a433 433 0 0 0 21.4-4.7zM581.7 583a2514.3 2514.3 0 0 0 49.3-21.3h-16.3c-32.7-.1-54 9.2-63.4 18.2-2.9 2.8-4.4 5.4-4.5 7.2 0 1 .7 1.7 2.2 2.3 5.3 1.9 16 .6 32.7-6.4z" fill="#1A1919" fill-rule="evenodd"/></svg>