<svg xmlns="http://www.w3.org/2000/svg" viewBox="0 0 136 283"><path d="M31 248.1c-.1-4 1-8.1 2-12.2l1.4-5.6a739.8 739.8 0 0 1 4-19.1 123.9 123.9 0 0 1-7.3 37zm26.8-93.3.3 8.7a155.7 155.7 0 0 1-19 83.9c-1.5 2.6-2.9 5.3-4.2 7.9-4.5 8.7-9.1 17.7-16 25 2.8-15.5 3.6-30.9 2.4-44.6A357 357 0 0 0 16 202c-2.8-15.2-5.8-31-5.8-46.5 0-5.3.5-10 1.1-15.2l.6-5c.5-5.2.5-9.6.1-13.3 9 15.7 20.7 36.6 24 46.7a88.1 88.1 0 0 1 3.2 33.8c-2.2 8.9-4 18-6 27.7l-1.2 5.5c-1.3 4.9-2.7 10-1.9 14.8a.6.6 0 0 0 .7.4.6.6 0 0 0 .3-.1.4.4 0 0 0 0-.1l.1-.1c5.7-11.6 7.2-26.3 8.4-39.2a824.5 824.5 0 0 1 .8-8.8 269.8 269.8 0 0 1 2-7.5c1.3-4.7 2.5-9.6 3.6-14.3 2.6-10.6 5.3-21.6 9.7-31.5a79.7 79.7 0 0 1 1.9-4l.2 9.6zm-49-41-5.8-10c2.2 2.1 5.1 5.5 6.8 11.8l-1-1.7zm31.5-36.5c-21.5-8-27-20-28.3-24.8a79 79 0 0 1-2-20.3l-.2-6.4c0-.7 0-1.6-.2-2.7C9.2 18 8.5 9.1 11.7 6c.8-.8 1.8-1.2 3-1.2a6.6 6.6 0 0 1 .5 0c8.5.5 18.2 12.4 22 17.2.2 4.2.5 8.6 1 13 .5 4.8.3 9.7.1 14.5-.1 4.6-.3 9.4.2 14.1.4 4.3 1.3 9.6 4.9 11.5.8.5 1.6.7 2.4.7a24 24 0 0 1-5.5 1.6zM38.3 7l.3-4.7c5.8 8.1 12 17.9 16 29.2 5.6 15.8 5.8 27.5.8 36a20 20 0 0 1-5.5 5.9 12.3 12.3 0 0 0 1.5-2.3c3.4-6.8 2.9-16-1.5-27.8a75.6 75.6 0 0 0-11.6-21.9V7zm8.3 67.4c-.9.3-1.8.1-2.7-.4-3.4-2-4-8.2-4.3-10.6-.4-4.6-.3-9.4-.1-14 .2-4.8.3-9.7-.2-14.6a204 204 0 0 1-.9-11.4c4 5.2 7.2 11.6 10.4 20.3 4.3 11.6 4.8 20.4 1.5 26.8-1 2-2.3 3.5-3.7 3.9zm88.5 9.2a.6.6 0 0 0-.6-.4 66 66 0 0 0-33.4 14.3c-20 14.4-34 28.7-42.5 43.5-1-28-3.5-55.7-16.4-62.8 5.9-1.4 11-5 14.2-10.2 5.2-8.7 5-20.7-.7-36.9A125 125 0 0 0 38.6.2.6.6 0 0 0 38 0a.6.6 0 0 0-.5.6l-.3 6.3a174 174 0 0 0 0 13C30.7 12.3 22.8 4 15.1 3.5 13.6 3.4 12 4 11 5.1 7.3 8.7 8 17.8 8.5 23.2l.2 2.6.1 6.4c0 6.8.2 13.9 2 20.6 1.4 4.8 6.7 16.6 27 24.8a24.6 24.6 0 0 1-12.5-2.4C14 69.7 9.7 57 7.5 47.7c-3.4-14-3.5-28-3.1-41h.3c.5.3 1.1.6 1.8.8a.6.6 0 1 0 .3-1.1l-1.6-.7c-.7-.3-1.3-.6-1.7-.2-.5.3-.3 1-.3 1.3-.4 13-.3 27 3.2 41.2 2.3 9.4 6.7 22.5 18.4 28.3a26 26 0 0 0 15.6 2.3c13.6 5.6 16.1 36 17 64.3a81.2 81.2 0 0 0-2.8 5.8c-4.5 10-7.1 21-9.7 31.7-1.1 4.7-2.3 9.6-3.6 14.3l-.6 2.2c.3-11.1-.9-20.4-3.6-28.7-3.5-10.7-16.3-33.4-25.5-49.4a27.1 27.1 0 0 0-8.8-16.9c-.7-.6-1.3-1.1-1.4-1.5a.6.6 0 0 0-1.1.3 97 97 0 0 0 7.5 13.7l2.8 4.9c.6 4.2.8 9.3.1 15.8l-.5 5c-.6 5.1-1.2 10-1.2 15.3 0 15.7 3 31.5 5.9 46.7 2 11 4.2 22.5 5.2 33.7 1.3 14.1.3 30.1-2.8 46.2a.6.6 0 0 0 .6.7.6.6 0 0 0 .4-.2c7.8-7.6 12.8-17.3 17.6-26.7l4.1-7.9a157 157 0 0 0 19.2-84.4l-.2-8.7a1708.5 1708.5 0 0 0-.3-11.6c8.3-15.2 22.5-30 43-44.8a67 67 0 0 1 30.7-13.8 145.7 145.7 0 0 1-3.3 2.1c-2.8 1.9-5.8 3.8-8.4 6.3a109.8 109.8 0 0 0-19.5 24.2c-6.7 11.6-8.3 25.3-10 38.5l-.1 1.4c-2.8 23.3-8 40.3-25.6 58.8a.6.6 0 0 0 0 .8c.2.2.6.2.8 0 18-18.7 23-36 26-59.4l.1-1.5c1.6-13 3.3-26.6 9.8-38 4.8-8.3 11.6-16.8 19.3-24 2.5-2.4 5.4-4.3 8.3-6l5.1-3.5a.6.6 0 0 0 .2-.7z" fill="#231F20" fill-rule="evenodd"/></svg>