<svg xmlns="http://www.w3.org/2000/svg" viewBox="0 0 707 1322"><path d="M609.8 5a87 87 0 0 0-22 14.8c-4.6 4.3-4.7 4.3-7.2 2.6-3.9-2.5-10.2-1.4-17.2 2.9-5.9 3.6-22 18.4-21.1 19.4.3.2 3.9-2.9 8.1-6.9C558.5 30.1 570.2 23 575 23c1.5 0 3.9 1.1 5.5 2.6l2.8 2.6-.5 18.1a171 171 0 0 1-2.2 25.2L577.1 87a312 312 0 0 1-17.4 53.5 512.6 512.6 0 0 1-18.8 43c-.4.6-4.6 9.6-9.4 20a992.7 992.7 0 0 1-17.3 35.5c-4.8 9.1-11.3 21.9-14.6 28.5-10.7 21.9-34.5 59.7-37.4 59.5a17 17 0 0 1-3.5-3.8l-5.8-7.7a213.4 213.4 0 0 1-17.5-30.2 486.7 486.7 0 0 1-18.6-55.8c-6.1-28-8.4-55.9-5.4-67.5.9-3.6 2.5-7.4 3.6-8.4 1.7-1.7 2.3-1.8 6-.7 7.1 2.1 17 13.1 22 24.5a331.6 331.6 0 0 1 13.1 46.2l2.2 6.9 1.3-3c.7-1.7 1.3-4.1 1.4-5.5 0-1.4 1.4-7.9 3.1-14.5L469 188a509.5 509.5 0 0 1 16.4-48.8c5-12.3 15.6-33 25.6-50.2 10-17.3 12.5-22 10.1-19-7.3 8.8-31.7 53.1-40.3 73a477.5 477.5 0 0 0-21.2 69l-2.3 10.5-.8-5c-2.9-20-9.8-40.1-17.9-52.3-6.8-10.2-13.8-15.2-21.4-15.2-3.1 0-4.1.6-5.8 3.3-4 6-4.7 11.4-4.1 30.4.5 17.1 1.3 23 6.2 46.3a437.5 437.5 0 0 0 19.5 57.5c9.9 21 26.8 44.4 31.3 43.3a63.4 63.4 0 0 0 14.5-17.6c2-3.4 4.1-6.2 4.7-6.2 1.3 0 16.2-15.9 26.7-28.5a844.6 844.6 0 0 0 36.9-49.5 1305 1305 0 0 0 30.4-48c5.9-10.5 6-10.6 5.2-9.9-.4.3-3.9 5.7-7.7 11.9a635.1 635.1 0 0 1-13.8 20.9c-3.7 5.2-7.8 11.3-9.2 13.6l-8.5 12.3-9.2 12.8-6.3 8.4-8.6 11.6a245.2 245.2 0 0 1-24 28.5c-.5.9-3.1 4-5.8 7-5.2 5.8-4.9 4.7 2.1-7 2.5-4.1 7.4-13.1 11-20l11.8-22.6c2.9-5.5 10.5-21.3 16.8-35 6.3-13.8 14.9-32.1 19.1-40.9 4.2-8.7 8.7-18.8 10-22.5l4.7-12.1A291.3 291.3 0 0 0 584 71a196 196 0 0 0 1.9-38.2l-.8-7.3 4.7-4.4a72.3 72.3 0 0 1 30.3-17.6c4.1-.6 4.7-.4 6.1 1.7 3.8 5.8 2.7 25.2-2.3 43.4a398.6 398.6 0 0 1-37 94.7 26.5 26.5 0 0 0-3.7 7.9c.3.7 2.7-2.6 5.5-7.3a482 482 0 0 0 19.8-35.2A396.1 396.1 0 0 0 624 60.6c3-7.9 7.2-27.3 7.7-35.2.7-11.8-.2-17.6-3.3-21.4-3.7-4.3-8.7-4.1-18.6 1Z"/><path d="M378.5 91.7c-6.1 1.5-9.9 10.8-9.8 24.3a193.6 193.6 0 0 0 17.3 72.6c0 1 7.6 17.6 14.5 31.9l10.4 21.7c2.2 4.9 4.3 8.8 4.5 8.8.6 0-1.4-4.9-5.8-13.7-2-4-3.6-7.5-3.6-7.8 0-.3-2.3-5.2-5.1-10.8a357.7 357.7 0 0 1-23.3-58.7 123 123 0 0 1-6-40c-.1-13.6.1-14.8 2.3-18.5 4.8-7.9 6.9-8.2 13.8-2.1 4.3 3.9 9 10.5 23.1 32.4 1.9 2.9 3.6 5.1 3.9 4.9.9-1-6.5-15.3-12.9-25.2-6.7-10.2-13.8-17.8-18.4-19.5-1.4-.6-2.6-.9-2.7-.9l-2.2.6ZM585 165.1c-.7 1.1-1 2.3-.7 2.5.2.2.9-.7 1.5-2.1 1.4-3 .7-3.3-.8-.4ZM295.4 300c-5.4 1.1-20.2 6.3-25.5 9.1a127.5 127.5 0 0 0-26.4 26.5 74 74 0 0 1-4.1 6.9c-6.2 8.5-11.1 31.5-10.1 46.8.3 4.2.1 7.5-.3 7.2-.5-.3-5.1-1-10.2-1.4-8.1-.8-10.1-.7-15.3 1.1-21.6 7.1-41.1 29-44.4 49.8-1.4 8.8-1.4 20 0 20 .6 0 .8-.7.5-1.6-.3-.8-.2-1.2.4-.9.6.4 1-1.1 1-3.8 0-9.3 3.7-20.3 11.7-35.2a64.2 64.2 0 0 1 29.7-24.4 44.1 44.1 0 0 1 43.7 10.9 98.9 98.9 0 0 1 18 27.7c1.2 3.3 2.3 9.7 2.6 14.6a36 36 0 0 1-8.7 29 53.5 53.5 0 0 1-21.7 17.5l-8.2 4.2-11.3-.1c-15.2-.1-15.7-.3-17.8-6.6-4-12.4-21-26.5-35.2-29.1a39.6 39.6 0 0 0-21.8 2.1 53.5 53.5 0 0 0-18.7 16.8c-8.3 12.7-10.6 27-5.7 36.7 1.4 2.9 3 5.2 3.5 5.2s0-1.9-1.2-4.2c-1.9-3.6-2.1-5.3-1.6-12.3.3-4.4 1.3-10.3 2.1-13.1 2.5-8 9.9-17 19-23.1 7.8-5.2 8.1-5.3 15.2-5.3 8.3 0 18.3 3.2 24.3 7.8a69 69 0 0 1 17.1 18.5 34 34 0 0 1 0 23.1c-2 4.8-8.4 14-11.6 16.7-3.6 3.1-11 6.8-17.4 8.8-10.9 3.4-16.4 2.5-21.3-3.5-3.5-4.2-10-8.7-14.9-10.3-2.1-.7-7.1-1.2-11.2-1.3-5.9 0-8.3.5-11.3 2.2a31 31 0 0 0-12.9 16.8c-.9 3.1-2.4 7.1-3.4 8.8-4.7 8.3-7.5 27-6.7 44.4.6 10.5 3.1 23 4.4 21.7.3-.3 0-2.1-.6-4-1.5-4.5-1.6-26.9-.1-38.2 1.1-8.8 3.5-19 5-21 .4-.6 1.7-4.2 2.9-8.2 2.3-7.9 7-14.4 13-18 2.8-1.8 5.1-2.3 10.7-2.3 6.1 0 8.1.5 13 3.1 8 4.1 10.3 6.6 15.1 15.7 6.6 12.5 8.8 32.1 4.8 42.8-2 5.2-6.3 12.4-7.4 12.4-.4 0-2.1 2-3.9 4.5-7.2 10.3-16.1 11.3-27.6 3.1-1.5-1-2.9-1.6-3.3-1.3-.8.8 6.7 7.7 8.3 7.7 2.1 0 2.7 1.9 1.5 4.8-1.1 2.6-1.4 2.7-8.4 2.5-7.8-.3-14.8 1-21.4 3.8-9.2 3.9-26 24.9-30.5 38.1a81.8 81.8 0 0 0-1.8 32.6c2.3 10.4 8.1 21 16.3 29.9 2.3 2.5 4.4 6.1 5.2 9 4.2 14.9 12 31.3 30 62.8a247.8 247.8 0 0 0 33 44c6.1 6.1 12.4 12 14 13.3l3 2.2-2.8-1a394 394 0 0 1-28.2-14c-3.2-1.9-17.4-12-31.5-22.5-14-10.5-30.9-22.9-37.5-27.6-21.3-15.3-36.7-22.2-52-23.3l-8-.6 8.5 1.9a127.3 127.3 0 0 1 46.2 22.3l21.9 15.9c7.4 5.4 17.8 13.1 23.2 17.3 8.9 6.8 9.5 7.4 6.4 6.9-4.5-.7-13.9 1.7-30.7 7.8-15.3 5.6-18 6.7-16.3 6.8.7.1 5.6-1.5 11-3.5 16.7-6.1 28.5-9.4 34.2-9.4 4.5 0 6.7.7 12.9 4.1a232 232 0 0 1 13.6 8.3 92 92 0 0 0 13.1 7.1c3.9 1.6 8.6 4.1 10.5 5.5 3.5 2.7 22.3 10.2 31.5 12.5 12.1 3.1 35.3 4.9 62.5 4.7 14.5-.1 44.1-3.2 73.5-7.6 36-5.5 47.7-6.5 83-7.1 31.3-.6 89.6 2.8 112 6.6 8.1 1.3 25 5.4 30.4 7.4 4.4 1.5 6.4 1.3 4.5-.4-2.4-2.4-32.2-10.1-44.6-11.6l-5.8-.6-.1-5.7c-.3-13 .1-25 1.3-39a681 681 0 0 0 1.4-41.2c0-14.6.1-27.1.2-27.7.1-.8 2.9.5 7 3.1 7.5 4.8 12.4 7 8.6 3.9l-7.8-6.1c-9.7-7.5-9-2.2-8.9-63 0-33.3.5-60.4 1.2-71.2l1.6-21c.1-1.9.7-6.7 1.3-10.5l2.3-17a43.5 43.5 0 0 1 19.2-33.8l7.7-5.5c1.6-1.1 1.9-.3 4.4 10.2a232.8 232.8 0 0 0 16.6 43.9c2.1 3.8 5 7.1 8.3 9.7a50 50 0 0 0 19.4 8c2.2 0 8.4 10.6 10.6 18.1.8 3 2 13 2.7 22.4.6 9.3 1.6 19 2.1 21.5.6 2.5 1.4 11 1.9 19a826 826 0 0 0 4.9 50.5c.6 3.8 1.5 16.7 2.1 28.5.6 11.8 1.8 28.7 2.6 37.5s1.9 23.2 2.4 32c2.3 39.8 3.1 51.6 4 59.5.5 4.7 1 21.6 1.1 37.6l.1 29.1-2.8 6.4c-1.5 3.5-4.7 9.6-7.1 13.6a56.2 56.2 0 0 0-4.3 7.8c0 1.3-18.2 26.2-24.7 34-9.1 10.6-56 57.3-64.7 64.3-3.7 3-10.3 7.8-14.5 10.6-4.2 2.9-15 10.8-24 17.6a428.2 428.2 0 0 1-44.1 29.9 623.4 623.4 0 0 0-25 16.5 975.3 975.3 0 0 1-30 20 133 133 0 0 0-32.6 25.6c-8.6 9.6-8.1 9.8 1.6.4 11.1-10.6 11.7-11 32.2-23.4 8.6-5.2 22.3-14 30.4-19.4 8.2-5.4 19.1-12.4 24.4-15.6a418.2 418.2 0 0 0 37.8-25.1l11-8.4 12.2-9.1c5.2-3.9 10.6-7.7 11.9-8.4 9.2-4.8 53-46.7 70.1-67 3.5-4.1 6.9-8 7.6-8.6 1.7-1.4 20.2-28.6 23.8-34.9l5.9-10.7c1.7-3.1 3.4-5.5 3.8-5.3 1.1.8 2.8-5 4-14.1a674 674 0 0 0-2.5-95.9l-1.5-24.9c-.6-9.4-1.7-23.8-2.6-32a780.5 780.5 0 0 1-3-45.6c-.3-7.4-1-16.9-1.5-21-2.4-18.4-5.6-49.5-6.4-60.3-.6-7.7-.6-7.7 1.6-6.6 5.6 3 15.8 14.6 24.3 27.7 3.6 5.4 20.1 42.3 27.3 60.7l7.6 19.6c2.5 6.4 8.1 22.8 12.6 36.5s8.6 26 9.2 27.4a86.1 86.1 0 0 1 4.6 19.2 53 53 0 0 0 2.5 10.6c3.7 11.4 7.7 35.1 7.7 45.3 0 4.7-.8 11.8-1.9 16.4-3 12.4-6 28.2-7.1 36.8a110.7 110.7 0 0 1-13.8 38.2c-3.5 6.6-7.3 13.1-8.2 14.5-1 1.4-3.8 6.1-6.2 10.5a669 669 0 0 1-11 18.5 1394 1394 0 0 0-13.7 22.9 730.5 730.5 0 0 1-33.7 51.9c-8 11.1-15.9 24-15.2 24.8.3.3 2.5-2.6 4.8-6.3 2.4-3.7 6.6-9.7 9.5-13.3 11.7-14.5 31-42.6 38.5-56 2-3.6 7.4-12.6 12-20 4.5-7.4 9.9-16.4 11.9-20l6.2-10.5c12.7-20 21.2-40.9 22.9-55.8.6-5.1 1.5-10.8 2-12.7.5-1.9 1.6-7.1 2.4-11.5l3.1-16.3c1.5-7.6 1.5-9.3 0-22.5a366 366 0 0 0-17.6-76.2L677.8 803c-2.2-6.9-5.6-16.6-7.6-21.5l-5.7-15-4.9-12.8c-1.4-3.7-4.9-11.8-7.7-18l-9.6-21.7c-4.6-10.6-9-18.2-14.7-25.4a81.4 81.4 0 0 0-18.6-18.2c-2.2-1-4.2-2.6-4.4-3.4-.3-.8-1-8.9-1.6-18-1.3-19.1-3.5-28.8-8.5-36.6-3.2-5-3.5-6.1-3.5-12.9 0-6.5-3.3-26.2-8.6-51a575.7 575.7 0 0 0-17.2-59.7c-2.5-6.3-2.9-6.8-5.8-6.8-4.9 0-13.5 2.9-19 6.6l-5.2 3.3-.1 8.8c0 4.8.4 11.7.9 15.3 2.4 15.4 2.5 14.3-1.2 16.7a90.1 90.1 0 0 0-16 12.5 59.8 59.8 0 0 0-10.8 19.6c0 2.9-1.8-.6-3.1-6.3a297.6 297.6 0 0 0-15.4-37.5c-9-18-28.4-44.6-42.7-58.8a171.2 171.2 0 0 0-29.9-23.4l-3.6-2-.6-9.7a70.8 70.8 0 0 0-3.5-18.1 274 274 0 0 1-5.2-18c-6.9-29-10-37.2-18.3-48.2a114.2 114.2 0 0 0-55.2-41.3 47.7 47.7 0 0 0-19.3-2.4c-6.4.1-13.6.5-15.8.9Zm30.9 3.6a108.8 108.8 0 0 1 41.9 23.4 98.1 98.1 0 0 1 25.9 37.3c1.1 2.1 3.5 10.5 5.4 18.8 1.9 8.3 5.1 20.1 7.2 26.3a48.8 48.8 0 0 1 3.8 21.1c0 8.7-.3 10.5-2.4 14-2.3 3.9-2.3 4-.1 2a21 21 0 0 0 3.6-4.7l1.4-2.7 6 3.8a166 166 0 0 1 29.2 24c8.5 9.1 24.9 30.8 30.5 40.6a423.2 423.2 0 0 1 24.8 54.4c2.7 8.2 2.7 8.6 1.6 18.5l-2.1 21.9a95.5 95.5 0 0 1-1.4 12.5c-1.1 1.8-2.1 56.6-1.6 92.2.7 57 .6 100.1-.2 112-1.8 25.2-2 36.5-.8 43.3.7 3.7 1 7 .8 7.2-.2.2-4.4 0-9.3-.5-18.3-1.9-59.6-4-77.5-4-28 0-57.5 2-80 5.5-24.1 3.7-30.8 4.6-50.5 7.1a190.3 190.3 0 0 1-39 1.9c-33.5-1.1-38.8-1.6-52.3-4.6-15.1-3.4-20.4-5.5-24.7-9.7-1.6-1.6-5.9-5.3-9.5-8.3a157.9 157.9 0 0 1-32.8-38c-16.2-24.4-15.5-23.3-25.7-43.4-8.6-17-13.4-28.6-15-36.5-1.1-5.3-3.4-9.2-5.1-8.6-1.8.7-8.6-8.5-12.4-16.9a57.1 57.1 0 0 1 4.3-54.7c4.7-7.1 6.2-8.2 3.6-2.8a34.5 34.5 0 0 0-2.4 12.3c-.2 4.5-.2 6.8.1 5.2 2-14.1 4.4-19.5 12-27.5 5.4-5.6 7.5-9.2 3.2-5.3-1.3 1.1-3 2.3-3.8 2.8-2.5 1.2 6.3-6.4 9.2-8 7.9-4.4 19.3-6 28.3-4.1 14.1 3 19.2 10.1 20.2 28.4 1 19.2-2.3 30.1-12.8 42.3a112 112 0 0 0-6.9 8.5c0 .3 3.6-2.7 7.9-6.6a48 48 0 0 0 9.9-11.3c6.4-13.9 7.2-36.5 1.6-48.6a17 17 0 0 1-1.9-11.1c1.4-12.8 2.6-16 8.6-23.3 3.2-3.9 7.2-10 8.9-13.6l4.1-8.1c2.2-3.6 8.9-18.3 8.5-18.7-.5-.5-4.5 6.1-7.2 11.9-2.3 5-3.4 4.8-3.4-.6 0-6.9-2.9-21.7-5-25.9l-2-4.2c0-.2 2.2-.1 4.9.2 3.6.4 6.8-.1 13-2.1a43.2 43.2 0 0 0 24.2-16.7 70 70 0 0 1 23.3-19.4c3.6-2.2 6.4-4.1 6.1-4.3-.5-.6-11.9 5.8-17.9 10.2a23.7 23.7 0 0 1-5.3 3.2c-.2-.2.1-1.5.7-3 .5-1.5 1-5.2 1-8.2 0-5 .2-5.5 1.9-4.9 1.1.3 7.7.7 14.8.7l12.8.2 8.3-4.1a56.7 56.7 0 0 0 27.5-26.7l2.3-4.7 3.2 4.7c1.8 2.5 3.6 4.3 3.9 4 .3-.3-.1-1.4-.9-2.3-3.5-4-5.1-8.8-4.9-14.3.1-3 .4-5.6.5-5.7.2-.2 4.7-.6 10-.9 9.1-.4 26.6-4.7 25.3-6.1-.3-.3-3.4.5-6.9 1.7a81.4 81.4 0 0 1-25.8 3.4c-2.6-.6-2.8-1-3.3-7-.8-8-3.8-15.4-11-27a54.4 54.4 0 0 0-20.5-20.8c-4.7-2.4-5.1-2.9-5.7-7-.8-5.4.2-22.4 1.7-28.1 4-15.8 11-29.3 20.5-39.7 7.7-8.4 13.7-12.8 17.4-12.8 1.4 0 3.4-.8 4.3-1.9.9-1 5-3.1 9-4.5a79.6 79.6 0 0 1 40.9-3Zm237.3 188.9a296 296 0 0 1 5.9 20l6 22.5c5.3 20 11.5 53.9 11.5 62.9 0 6-.8 6.3-8 3.4-13.2-5.3-16.4-9.1-25.4-31a162.1 162.1 0 0 1-11.9-41.3c-1.4-3.7-2.7-15.5-2.7-24.8v-10.1l3.2-3c2.2-2 5.4-3.6 9.3-4.5 9-2.2 9.3-2.1 12.1 5.9ZM139.5 620.7c-.4 1-1.1 4.3-1.7 7.3-1.7 8.7-1.6 8.6-4.1 6.3-2.9-2.7-6.1-4.3-8.6-4.3-1.7 0-2-.6-1.9-3.4.1-3.4.2-3.4 4.5-3.4a16 16 0 0 0 7.6-2c4-2.6 5.1-2.7 4.2-.5Z"/><path d="M416 449.8a61 61 0 0 1-7.1 21.7c-3.3 5.7-20 23.9-47.4 51.5-10.7 10.8-17.5 18.7-17.5 20.5 0 .5 2-1.2 4.5-3.8 2.4-2.6 8.2-8.3 12.9-12.5 4.6-4.2 10.5-10.4 12.9-13.7 2.5-3.3 8.5-9.9 13.4-14.7 19.5-18.9 27-31.2 29.8-49.1.4-2.3.2-3.7-.5-3.7-.5 0-1 1.7-1 3.8Zm-55.5 14.3c-2.2 1-3.4 1.9-2.7 1.9 1.5 0 7.2-2.8 7.2-3.5 0-.6.3-.7-4.5 1.6ZM277.1 482c-8.3 3.4-13.7 6.7-12.8 7.7.2.2 2.4-.8 4.8-2.1a52.1 52.1 0 0 1 28.2-7.6c5.5 0 9.8-.2 9.6-.4-.2-.2-4.9-.6-10.5-.9-9.9-.5-10.2-.4-19.3 3.3Zm-15.2 19.1c-10.9 2.5-29.3 11.5-48.9 23.8a160.3 160.3 0 0 0-33.8 26.5c-13 13.5-11.6 14.2 1.8.8 12.5-12.4 20-18 41.7-31a203 203 0 0 1 33.8-16.4c4.4-1.7 8.4-3.4 9-3.9.5-.5.7-.9.5-.8l-4.1 1Zm77.4 50.2c-1.3 1.7-5.2 6.6-8.8 10.7a78 78 0 0 0-9.5 13.1c-1.6 3.1-4.2 7.6-5.9 10a64 64 0 0 0-8.1 23.5c-.6 3.8-2.6 13.2-4.5 20.9a125.1 125.1 0 0 0-5.5 38.9c0 22.3 3.4 47.5 7.5 55.6a72 72 0 0 1 2.9 7.4c2.7 7.9 18.9 32.7 28.1 43.1a307.5 307.5 0 0 0 43.5 41.4 474.5 474.5 0 0 0 51.8 33.4 108 108 0 0 0 21 6.2c.2-.1-2.7-1.3-6.5-2.5-13.2-4.4-18-7.2-63.2-38a285.2 285.2 0 0 1-54.9-56.3c-13.6-20.3-19.3-32.4-23.2-49.2a154 154 0 0 1-3.6-32.1c.4-1.2 1.9-1.5 6.4-1.2 3.7.1 7.3-.3 9.8-1.3a68 68 0 0 1 18.4-5c4.1-.6 13.6-3.3 21-5.9 7.4-2.7 15.1-5.1 17-5.5 4.7-1 7.9-2.7 18-9.6a61.6 61.6 0 0 0 18.7-17.6 137 137 0 0 1 7.3-9.5l4.5-5.3-4.2 3.3a40.3 40.3 0 0 0-7 7.4c-8.2 12-28.4 27.8-37.6 29.3-2.3.4-10.1 2.9-17.3 5.6a97.7 97.7 0 0 1-15.5 4.9 129.1 129.1 0 0 0-24.6 5.8c-1.2.7-5.1 1.2-8.7 1.2H300v-9a99 99 0 0 1 4.5-28.5c.8-2.2 2.4-9 3.5-15 5.6-28.8 5.7-28.9 10.8-38.1 5.1-9.1 9.1-14.7 18.7-26.8 3-3.7 5.5-7.2 5.5-7.7 0-1.8-1.5-.8-3.7 2.4Zm100.4 38.9a66.1 66.1 0 0 0-7.5 11.8 407 407 0 0 0 12.2-16.8c.4-.7.5-1.2.2-1.2s-2.5 2.8-4.9 6.2Zm1.2-203.3c-.6 2.2-.9 4.7-.5 5.7 1.1 2.7 3.4-.2 4.2-5.4.5-3.4.4-4.2-.9-4.2-1 0-2.1 1.5-2.8 3.9Zm200.9-1.2a28 28 0 0 0-2.7 4c-.6 1.3-1.8 2.3-2.6 2.3-3 0-4.7 7.4-2.3 9.8 1.7 1.7 5.9 1.5 8.5-.3 2.5-1.8 5.6-10.2 5.1-14.2-.4-3.4-3.7-4.3-6-1.6Zm-145.3 2.7c-2.9 2.9-4.3 9-2.5 11.1 1.8 2.2 4.7 1.8 6.4-.8 4.8-7.4 1.7-15.9-3.9-10.3Zm19.4-.3c-1.4 1.4-1.9 2.8-1.5 4.2.3 1.2.6 2.8.6 3.4 0 .7 1.1 1.3 2.4 1.3 4.3 0 7.3-6.9 4.4-9.8-1.7-1.7-3.5-1.5-5.9.9Zm-45.3 39c-1.7 2.5-1.1 4.9 1.4 4.9 2.9 0 4.3-2.5 2.8-4.9-1.6-2.6-2.3-2.6-4.2 0Zm26.4 1.1c-2.4 2.6-2.6 6.3-.5 7.2 1.7.6 4.5-.2 4.5-1.4 0-.5.6-1.5 1.4-2.3 1.3-1.2 1.3-1.7 0-3.6-1.9-2.7-2.8-2.6-5.4.1Zm-6.9 49.5c-.7 1.8-1.1 3.9-.7 4.8.7 1.9 5.2 2 6 0 .7-2-.3-4.5-1.9-4.5-.8 0-1.5-.8-1.7-1.8-.2-1.2-.7-.8-1.7 1.5ZM65.5 768c-1.1.4-2.7 2-3.5 3.4-3.1 5.9 3.8 8.7 7.2 3 2.7-4.7.8-8.1-3.7-6.4Zm512.1 28.2c-3.3 4.6-1.2 9.8 3.8 9.8 4.2 0 7.4-7.8 4.4-10.8-2-2-6.5-1.4-8.2 1Zm-3.1 86.9c-3.8.4-13.5 1.3-21.5 1.8-21.1 1.6-49 6.9-74 14.2l-16 4.5c-9.8 2.6-22.8 7.3-28.9 10.3-3.2 1.7-6.1 2.8-6.3 2.5-.3-.2-1.3.5-2.3 1.6-2 2.2-3 13.3-3 34 0 11.3 2.5 24.5 5.7 30.4.7 1.2 1.2 3 1.2 4.1.1 1.5 1.5 2.4 6.6 3.9 5.6 1.7 9.5 1.9 28.3 1.8 12-.1 25.5-.6 30-1.2 20-2.7 50.5-9.8 66.2-15.5 1.1-.4-1.3 2.5-5.4 6.4a178.9 178.9 0 0 1-36.2 25c-5.2 2.7-12.1 6.5-15.2 8.4a242.7 242.7 0 0 1-48.5 16.6c-5.4 1-16.7 3.9-25.2 6.4a372.6 372.6 0 0 1-104.5 15.8c-8.2.1-25.3.4-38 .8-12.6.3-27.7.2-33.5-.2-5.8-.4-18.8-.6-29-.3l-41.5.9c-22.8.3-44.9 2.3-61 5.3a85.8 85.8 0 0 0-20.5 7.6c-6.9 3.3-15.9 7.4-20 9a110 110 0 0 0-26 13.9c-3.2 2.8-3.2 2.9-.5 1.1 3.4-2.2 19.7-9.6 23.5-10.6 5.3-1.5 16.8-6.1 24.5-9.7 4.4-2 9.8-4.2 12-4.8a406 406 0 0 1 76.6-6.3l5.7.7-20.7 21.3a1429 1429 0 0 1-50.9 51.6c-8 7.2-5.6 6.6 3.9-1a593 593 0 0 0 66.5-63.9l9.1-10h19.4c10.7 0 28.2.3 39.1.5 17.1.4 19.5.7 18.5 2a242.6 242.6 0 0 1-20.9 19.8c-7.8 6-7.9 7.3-.2 1.5 1.7-1.3 3.7-2.3 4.4-2.3 1.5 0 9.9-6.8 18.5-15.1l6-5.7 20.5-.6a413.1 413.1 0 0 0 119.5-17.6c7.7-2.3 19-5.3 25.1-6.6a263.9 263.9 0 0 0 50.4-17.3c3.6-2.1 10.6-6 15.5-8.6 5-2.6 13.6-7.9 19.2-11.7 10.2-7 24.3-20.4 24.3-23 0-.9 2.8-2.3 7.3-3.7a70.4 70.4 0 0 0 23.3-12.6c2.8-4.3 4.9-40 3.2-55.8a101 101 0 0 0-2.6-14.5l-1.7-5.6-6.5-.2c-3.6-.1-9.6.2-13.5.7Zm18.4 4.2c3.1 8 4.6 40.8 2.9 60.2-.7 7.5-1.2 9.3-3.1 10.9-11.2 9.3-61 23.7-99.7 28.7a272.5 272.5 0 0 1-53.6 0c-7.1-1.5-8.5-3.2-11.4-13.9a80.3 80.3 0 0 1-3.1-35c.7-7.5 1.7-14.5 2.2-15.4 1.5-2.8 15-8.5 32.4-13.8 44.4-13.4 68.3-18.6 100.4-21.5 9.1-.9 16.7-1.7 16.9-2 .3-.3 3.8-.5 7.9-.5 6.8 0 7.4.2 8.2 2.3Zm-415.9 199c0 .2-1 1.2-2.2 2.3l-2.3 1.9 1.9-2.3c1.8-2.1 2.6-2.7 2.6-1.9Zm95.7-166.6c-.4.3-.7 1.1-.7 1.7 0 .6.5.5 1.2-.2.6-.6.9-1.4.7-1.7-.3-.3-.9-.2-1.2.2Zm-16.4 8.5c-5.4 15.8-7.4 40.4-4 49.8 1 2.7 1.4 3.3 1.1 1.5a76.8 76.8 0 0 1 1.8-40.9c2.8-11.5 3.4-17.2 1.1-10.4Zm10.9 2.5a92.4 92.4 0 0 0-5.8 22.1c.4.3.6.2.6-.1a168.4 168.4 0 0 1 7.7-26.3c-.2-.3-1.4 1.7-2.5 4.3Z"/><path d="M275.5 932.2a17 17 0 0 1-1.5 4.3c-1.7 2.2-4 10.7-4.1 15.2a62 62 0 0 0 5.4 27.1c3.6 7.1 5.7 9.5 3.1 3.5a48.2 48.2 0 0 1-5.7-26.2c-.1-12.3 0-12.8 3.1-19.3 3.7-7.7 3.7-7.8 1.8-7.8-.8 0-1.7 1.4-2.1 3.2Zm-31.7 1.5a130.3 130.3 0 0 0-10.7 18.7c.2.2 3.2-4.3 6.5-10a123 123 0 0 0 5.9-10.4l-1.7 1.7Zm166.8 8.4c-1.5 7.6.1 25.9 3.1 34.9 1.8 5.4 7.5 18.2 7.9 17.7.2-.2-1.5-4.5-3.7-9.6a89 89 0 0 1-6.6-37.9c.3-4.5.4-8.2.2-8.2l-.9 3.1Zm-180.3 15.4c-.3.9-.3 1.8-.1 2.1.3.3.8-.4 1.1-1.6.6-2.3-.1-2.7-1-.5Zm-1.1 6.5c0 1.9.2 2.7.5 1.7.2-.9.2-2.5 0-3.5-.3-.9-.5-.1-.5 1.8Zm31.9 8c0 10.5 1.8 19.5 6.9 33 2.9 7.7 5.6 14 6.1 14 .4 0 .1-1.2-.7-2.8a14 14 0 0 1-1.4-4.3c0-1.9-3.4-12.1-5.6-16.7a72 72 0 0 1-3-14c-1.7-12-2.2-14.4-2.3-9.2Zm139-1.5c-.1 2.4 2 9.9 5.1 18.2 2.2 6 5.8 11.3 7.7 11.3.5 0-.4-1.4-1.9-3a25.2 25.2 0 0 1-4.5-8.3l-4-12.7c-1.3-4.1-2.4-6.6-2.4-5.5Zm154.4 97c-2.8 2.9-3.1 4.5-1.3 6.3 1.9 1.9 4.3 1.4 7.2-1.3 3-2.8 3.2-3.8 1-5.9-2.2-2.2-3.9-2-6.9.9Zm-127 47.5c-.7 1.2.2 3 1.6 3 1.2 0 1.2-2.7 0-3.5-.5-.3-1.2-.1-1.6.5ZM303 1135.9c-1.6 3.1-1.2 8.6.8 10.4 2.6 2.4 6.9 2.2 8.3-.4 1.3-2.4.6-8.3-1.2-10.5-1.7-2.1-6.6-1.8-7.9.5Zm-76.7 49.8c-1.5.5-1.7 2.9-.4 3.7 1.6 1 4.1-.5 4.1-2.5 0-1.9-1.2-2.3-3.7-1.2Zm.7 17.3c0 2 .5 3 1.5 3 1.7 0 1.8-.4.9-3.8-.9-3.2-2.4-2.7-2.4.8Zm-3.5 14c-2.1 2.3-1.3 5 1.4 5 2 0 3-2.2 2.3-5.3-.6-2.2-1.5-2.2-3.7.3Zm15.7 7.2c-1.5 1.5-1.5 6.9 0 10.3 1.5 3.3 5.3 4.3 7.8 2 2.8-2.5 2.5-6-.7-10.1-2.9-3.5-5.1-4.2-7.1-2.2Zm-35.5 30.5c-1.1 1-.8 4.1.5 4.9.6.4 2.6.9 4.4 1.1 2.9.3 3.3.1 2.7-1.4-1.4-4.2-5.6-6.7-7.6-4.6Zm68.7 57.9c-4 1.6-5.6 3.7-5.2 6.6.2 1.6 1.1 2.4 2.9 2.6 3.5.4 6.1-2.7 5.7-7-.3-3.4-.3-3.5-3.4-2.2Z"/></svg>