<svg xmlns="http://www.w3.org/2000/svg" viewBox="0 0 262 300"><path d="M243 115.7a199.3 199.3 0 0 1-18.8 23 373 373 0 0 0-10.3 11.6c-10.5 12.6-21.1 27.6-20.2 43.3.3 5.2 2.4 9.7 5.7 12.3 3.7 2.8 11.1 2.8 18.3 2.8 3.6 0 7.3 0 10.6.4a224 224 0 0 0 25.8-44.3c3.8-9 8.4-22.5 3.7-34.2-2.5-6.5-8-11.8-14.7-14.9zM130.3 210l.2.1c1 1 2.8 1.8 4.5 2h.1a7.5 7.5 0 0 0-2.8-2c-.6-.2-1.5-.2-2-.1zM103.5 256l1.5.4c4 1 8.4 1.1 12.4 0 1.1-.4 2.3-.8 3.3-1.4a11.8 11.8 0 0 0 1.5-1c.4-.4 1.1-.8 1.1-1.3s-.4-.7-.8-.9c-3.2-1.5-7.6-1.4-12 .4-2.3 1-4.6 2.2-7 3.8zM229.1 211c-4.8 6.5-9.8 13-14.8 19.4a4884 4884 0 0 0-49.4 63.9c13.2-9.3 67.4-55 72.7-74.5.8-2.8.5-4.7-.9-6a14 14 0 0 0-7.6-2.8zM9.8 290c-1.7 0-4 .4-5.7 2.4-1 1.1-2.5 3.2-1.7 4.3 2 3 15 1.2 27.6-1.7a142.9 142.9 0 0 1-7.4-1.9l-3.6-1c-2.6-1-5.3-1.8-8-2l-1.2-.2zm-1 9.9c-3.9 0-6.8-.6-7.8-2.2-1.1-1.6-.5-3.8 1.8-6.5 2-2.3 5-3.4 8.5-3 2.8.4 5.6 1.3 8.2 2.2l3.6 1c3.5 1 7.2 1.9 11 2.6a121 121 0 0 0 54-27.2l4-3.7.7-.7c2.4-2.2 4.7-4.1 7-5.8a37.6 37.6 0 0 1-12.3-8.3 48.2 48.2 0 0 1-13-37.9c.4-2.2 2.2-13.6 7.8-14.4 1.3-.3 3 .6 4.6 1.4.9.4 1.8.9 2.4 1 4.7 1.2 9 .1 13.6-1 2.6-.7 5.4-1.4 8.3-1.6 4.7-.4 9.3 1 13.8 2.2 3.8 1 7.9 2.2 11.9 2.2 1 0 3-.6 5-1.1 4-1.1 6.7-1.8 8.1-1 1.1.5 2.6 2 .9 5.7a17 17 0 0 1-12 9.7 31.1 31.1 0 0 0 9.7 5.7 56.2 56.2 0 0 0 20 3.2c1 0 1.3.7 1.4 1 .7 1.8-3.4 6-3.5 6-2 2-4.4 3.7-7.2 5.1a34 34 0 0 1-16.7 3.5c-8.1-.4-13.3-4.2-17.3-12.6a.9.9 0 0 1 1.5-.7c3.8 7.8 8.4 11.2 15.9 11.6 5.4.3 11-1 15.8-3.4 2.6-1.2 4.9-2.8 6.8-4.7.8-.7 2.6-3 3-4a57.8 57.8 0 0 1-20.3-3.3 32.9 32.9 0 0 1-8.8-4.7c-1-.7-1.7-1.6-2.5-2.5h-2c-2-.3-4.2-1.2-5.5-2.4-1.2-1-1-1.9-.7-2.3.7-1.3 3.3-1 4.3-.7 1.8.6 3.3 2.1 4.6 3.6 5-.5 9.5-3.8 11.9-8.8.9-1.9.8-3 0-3.5-1-.4-4.4.5-6.9 1.2-2.2.5-4.2 1.1-5.5 1.1-4.3 0-8.4-1.1-12.4-2.3a38.6 38.6 0 0 0-13.2-2c-2.7.1-5.4.8-8 1.5a29.5 29.5 0 0 1-14.4 1c-.8-.1-1.8-.6-2.8-1.1-1.2-.7-2.8-1.4-3.5-1.3-3.2.5-5.5 7-6.3 13A46.4 46.4 0 0 0 88.7 247c3.7 3.7 8 6.6 12.7 8.3 3-2 5.7-3.6 8.4-4.7 2.9-1.2 8.5-2.8 13.5-.3 1 .5 1.6 1.2 1.8 2 0 .5 0 1.2-.8 2-5 5.1-13.8 5.2-19.7 3.8a32.7 32.7 0 0 1-3-.9c-2.4 1.8-5 4-7.6 6.4l-.7.7a270.2 270.2 0 0 1-4 3.7A122.7 122.7 0 0 1 38 294.8a182 182 0 0 0 65-1.8c10.3-2 21.1-4.5 30.9-9.5a81 81 0 0 0 23-17.9 85.7 85.7 0 0 0 8-10.2 93 93 0 0 0 14.7-43.1c.5-6.7.7-13.6.8-20.3.2-9.6.4-19.6 2-29.4 2.2-14 6.9-25.5 14-34.4A44.2 44.2 0 0 1 229 111a33.8 33.8 0 0 1 13.4 2.5 84.9 84.9 0 0 0 3-5c8.5-15.3 20.7-45.7 7-75.5-8.4-18-25-30.2-42.6-31-13.9-.8-32.3 5.5-40 20.8-3.6 7.1-3.9 14.9-.7 21.3a22.2 22.2 0 0 0 20.2 12.4 22 22 0 0 0 17.2-9.3c2.4-3.6 3.2-7.4 2.3-10.1-.7-2-2.1-3.5-4-4.4a6.9 6.9 0 0 0-5.3-.2c-2.3.9-3.8 2.4-4 4.2 0 1 .4 1.8 1.2 2.2 1 .6 2.4.3 3.9-.8a.9.9 0 0 1 1 1.4c-2 1.5-4.2 1.9-5.8 1a4 4 0 0 1-2-4c.2-2.4 2-4.5 5-5.6 2.3-.9 4.6-.8 6.8.2s4 3 4.8 5.4c1.7 4.7-1.1 9.7-2.4 11.7-4 5.9-11.3 9.8-18.7 10A24 24 0 0 1 167.5 45c-3.4-7-3.1-15.3.7-23C176.2 6 195.5-.4 210 .3a53.3 53.3 0 0 1 44 32c10.5 22.7 8 50-7 77.2a85.8 85.8 0 0 1-2.8 4.8 30 30 0 0 1 15.4 15.8c4.8 12.3.2 26.1-3.8 35.5-6.7 16-15.6 30.2-25.5 44 3.2.4 5.9 1.4 7.7 3.1 4.8 4.5.4 14.2-13.3 29.8a412.6 412.6 0 0 1-54.8 50.5c-7.1 5.4-7.6 5-8.2 4.6-.8-.7 0-1.7.3-2 20-26.3 34.7-45.5 51-66.2 4.8-6.1 9.6-12.3 14.2-18.5-3-.3-6.2-.3-9.4-.3-7.8 0-15.2 0-19.4-3.3-3.7-2.9-6-7.8-6.4-13.5-.9-16.4 10-31.7 20.7-44.5 3.3-4 6.9-7.9 10.3-11.7 6.5-7 13.1-14.4 18.5-22.5a31.7 31.7 0 0 0-12.4-2.2c-11.3.2-23 6.4-31.1 16.5-7 8.6-11.6 20-13.7 33.6-1.5 9.6-1.7 19.5-2 29.2 0 6.6-.2 13.6-.8 20.3a94.8 94.8 0 0 1-15 44 87.2 87.2 0 0 1-8.1 10.4 82.8 82.8 0 0 1-23.5 18.2c-10 5.1-21 7.7-31.3 9.7-24.1 4.8-47.1 5.2-68.3 1.3l-1.2-.2c-8.5 2-18.4 4-25.3 4z" fill-rule="evenodd"/></svg>