<svg xmlns="http://www.w3.org/2000/svg" viewBox="0 0 1480 557"><g fill="#100F0D"><path d="M690.4 485.9c-9.4 1.1-19.2 2.1-28.8 2.1a92 92 0 0 1-23.9-2.7 51.7 51.7 0 0 1-33.6-27.4c-3.6-6.4-6.6-13.5-9.4-20.4-8-19.5-16-40-15.9-60 0-5.7.6-11.3 2-16.9.8-2.9 1.8-6.3 2.6-10a51.2 51.2 0 0 0 1.2-14.2 16.8 16.8 0 0 0-8.8-12.2c-1.6-.7-3.2-1.2-5-1.2a10 10 0 0 0-4.3 1l-2.7 1.5-1 .4-.6.2h-.2a.7.7 0 0 1-.3-.3 3 3 0 0 1-.6-1.3 11 11 0 0 1-.2-2.3v-.1a1231.7 1231.7 0 0 0-1-69.7c-1.5-41.9-4.4-83.7-7.3-125.4-2.5-36.2-4.3-72.4-6.3-108.7l-.8-15A2.3 2.3 0 0 0 541 3a231.4 231.4 0 0 0-6.7 50c0 10.4 1.3 21.3 6.5 30.8 1.2 2.3 2.6 4.4 3.6 6.5 1 2.1 1.7 4 1.7 6l-.1 1.2a4.6 4.6 0 0 1-1.4 2.8 2 2 0 0 1-1.4.5c-.7 0-1.6-.3-2.5-.8a7.2 7.2 0 0 1-2.1-2 12.2 12.2 0 0 1-1.7-6.9v-2.3c.5-4.4 1.8-9.2 4-13.3a24 24 0 0 1 9.1-9.8c1.1-.6 2.3-1 3-1 .5 0 .7 0 1 .2l.6.6c.3.3.5 1 .7 1.7l.4 2.6 1.4 18.7a42.8 42.8 0 0 1-.2 6.2c-.2.9-.5 1.7-1 2.3-.5.9-1.3 1.5-2.2 2-1.4.9-3.3 1.5-5.3 2.1-2 .7-4.3 1.5-6.3 3a11.2 11.2 0 0 0-2.8 3 17 17 0 0 0-2.1 5.4c-.5 1.9-.7 3.8-.8 5.5a5298.3 5298.3 0 0 0-13.6 196.9 63.8 63.8 0 0 0-.2 3.3c0 2.4.3 5 1.4 7.6a11.8 11.8 0 0 0 7.5 6.7c1.9.6 3.9.8 5.9.8 3.5 0 7.2-.6 10.9-1.2 3.6-.5 7.3-1 10.7-1 3.4 0 6.4.5 8.8 2 .8.3 1.5 1 1.9 1.5.4.6.6 1 .6 1.5v.1c0 .4-.1.6-.3.8a3 3 0 0 1-1.5 1c-.9.2-2 .4-3.1.4l-3-.3c-18.6-3.7-37-4.7-55-8.3a2.3 2.3 0 0 0-2.4 1 2.3 2.3 0 0 0-.1 2.5 58.4 58.4 0 0 1 7.6 30c0 20.3-8.4 42-18.6 60.8-.6 1-1.1 2.2-1.6 3.5-.4 1.2-.8 2.6-.8 4 0 .8.1 1.6.4 2.4a6.8 6.8 0 0 0 1.2 2.3 7 7 0 0 0 2 1.6c1.1.6 2.3 1 3.4 1.1 1 .2 2.1.2 3 .2a282.8 282.8 0 0 0 58.8-5.3c1.2-.4 2.4-1 3.5-2a9.3 9.3 0 0 0 2.1-2.5c.8-1.3 1.2-2.8 1.5-4.2.3-1.5.4-2.9.5-4.2a27.3 27.3 0 0 0 0-1.8c0-3-.4-6.4-1.2-10-2.2-10.7-7-22.8-10.6-30.1a2.1 2.1 0 0 0-.2-.3c-1.3-1.9-3-3.7-5.1-5.1a14.5 14.5 0 0 0-8-2.4 21 21 0 0 0-9.2 2.4 2.3 2.3 0 0 0-1.3 2c-2 52.6-23.7 108.3-47.7 155.6l2.1 1 2.2-.5c-.7-2.5-1-5.2-1-8 0-9 3.7-19.2 11.5-27.6a59.4 59.4 0 0 1 36.2-17.7c4-.5 8.2-1 12.4-1 4.3 0 8.6.5 12.8 1.7a34.7 34.7 0 0 1 17.5 12.2c5.4 6.7 10 16.6 13.3 31 .7 2.8 2.3 5.3 4.5 7.3 3.2 3 7.7 5 12.8 6.3a79.2 79.2 0 0 0 40.8-1.7 2.3 2.3 0 0 0 1.7-2.4c-.3-4.3-1.5-8.7-3.3-13a88.2 88.2 0 0 0-11.2-18.4c-4.4-5.8-9.2-11.2-13.2-15.7s-7.8-9.6-10.6-15a36 36 0 0 1-4.6-16.4c0-3.2.6-6.3 2-9.3l1.8-3.8a12 12 0 0 0 1.2-4.7 8 8 0 0 0-.4-2.4 7.6 7.6 0 0 0-2-3.2 9.9 9.9 0 0 0-4.4-2.4c-1.6-.4-3.3-.6-5-.6l-3.3.2c-38.7 4.4-77.5 6-116.4 10.5a9.8 9.8 0 0 1-1 0c-1.6 0-4.1-.2-6.6-.5l-6-.8a2.6 2.6 0 0 1-.8-.1l-.1-.1h-.1.1c0-.2 0-.5.2-.8.2-.5.7-1 1.2-1.5.5-.4 1-.5 1.4-.5.3 0 .5 0 .9.3.3.4.9 1 1.3 2.3l2.2-.8-2.3.5a84.4 84.4 0 0 1 2.6 20.5c0 18.6-6.5 36.1-19.4 50-17.5 19-43.2 29.3-69.1 33.1a272 272 0 0 1-37.3 2c-19 0-39.7-1-56.4-2.3-1.8-.2-3.6-.3-5.1-.7-1.6-.4-2.8-1-3.8-2a50.5 50.5 0 0 1-5.4-5.5c-.8-1-1.5-2.1-2-3a6 6 0 0 1-.6-2.6h-1.3 1.3-1.3 1.3v-.1l1.3-57.7c.1-6.4.3-12.8 1.3-19 1-6.2 2.6-12 5.6-17.1a36.5 36.5 0 0 1 30.4-16.4c5.8 0 12.2 1.3 19 5a29 29 0 0 1 10.2 9.5c2.7 4.1 4.8 8.9 5.8 13.3a192.4 192.4 0 0 1 4.9 43.1 192.4 192.4 0 0 1-6 46.7 12 12 0 0 1-2.3 4 11.5 11.5 0 0 1-4.4 2.7 29 29 0 0 1-5.7 1.5c-4 .7-9.5 1-15.6 1a187.4 187.4 0 0 1-36.9-4c-3.5-.8-6.5-1.8-8.9-2.8l-1 2 .8 2.3a83 83 0 0 1 17.4-3.7 180 180 0 0 1 37.5-.6c5 .5 9.3 1.2 12.8 2.2 3 .8 6 2.3 9.1 4.2 4.7 2.8 9.5 6.3 14.3 9.3 2.3 1.4 4.7 2.8 7.2 3.7 2.4 1 4.9 1.6 7.4 1.6 3 0 6.2-1 9-3 1.9-1.6 3.6-3 5.1-4.8 2.3-2.6 4-5.7 5-9.6 1-4 1.5-8.7 1.5-15 0-5.5-.4-12.4-1-20.9-1.9-21-7.2-41.3-8-61.7a124.2 124.2 0 0 1 0-4.9c0-9.4 1-19 3.7-27.9 2.7-8.9 6.8-17 13-23.8.5-.6.7-1.4.5-2.2a2.3 2.3 0 0 0-1.4-1.6 32.3 32.3 0 0 1-20.7-32.1 2.3 2.3 0 0 0-.7-1.8 2.3 2.3 0 0 0-1.8-.7c-20.9 1.4-46 2-70.8 2-22 0-43.8-.5-62.3-1.6a2.3 2.3 0 0 0-2.5 2.2c-.2 2.4-1.2 4.8-2.8 7.1a30.1 30.1 0 0 1-10.7 8.9c-4.3 2.2-9 3.5-13 3.5v1l.1-1v1-1h-.2a2.3 2.3 0 0 0-2.2 2.3 2.3 2.3 0 0 0 2 2.3 974.5 974.5 0 0 0 179.7 6.5l-.1-2.3-.2-2.4a2545.2 2545.2 0 0 1-148.3 7.1c-5.7 0-12.3-.3-18.3-1.5-3-.6-5.7-1.5-8.2-2.6a18.3 18.3 0 0 1-5.9-4l-1.7 1.5-.7 2.2c3.7 1.3 6.5 3.1 8.9 5.5 3.4 3.6 5.7 8.5 7.3 14 1.5 5.7 2.3 12 3 18.3.8 8.8 1.5 17.5 1.5 26.1 0 8-.6 16-2 23.8-3 16-4 32-4 48 0 11.3.5 22.5 1 33.6a2.3 2.3 0 0 0 2 2.2 2.3 2.3 0 0 0 2.5-1.5c5.6-15.1 7.6-31 7.6-47 0-7.4-.4-14.8-1-22.1a2.3 2.3 0 0 0-2.3-2.1c-32.3-2.2-58-4.4-90.5-6.6a2.3 2.3 0 0 0-2.4 1.8 115.5 115.5 0 0 0-4 30c0 2.1 0 4.4.2 6.6.2 3.4 1.4 7 3.3 9.8 1 1.5 2 2.8 3.3 3.8 1.4 1 3 1.7 4.7 1.7 1.5 0 3-.5 4.3-1.5a2.3 2.3 0 0 0 .8-2.7 34.4 34.4 0 0 0-11.8-14.4c-5-3.7-11-6.3-17-7.8s-12.4-2-18.6-2c-5.8 0-11.6.5-17.3.9a2.3 2.3 0 0 0-2 1.8l-7 33.6c-.3 1.3-.5 2.5-.9 3.6a7 7 0 0 1-1.4 2.5c-.7.8-1.8 1.3-3.1 1.7-1.3.4-3 .6-4.6 1-11.2 2.2-21 4-31 4-12.7 0-26-2.7-43.5-10.8a2.3 2.3 0 1 0-2 4.3c18 8.2 32.1 11.1 45.4 11.1 10.7 0 20.8-1.8 32-4 1.5-.4 3.3-.6 5-1.2 1.8-.5 3.7-1.3 5.2-3 1.2-1.2 1.9-2.6 2.4-4 .5-1.5.8-3 1-4.2l7-33.6-2.3-.5.2 2.3c5.6-.4 11.3-.8 17-.8 6 0 11.8.5 17.5 1.9a43.7 43.7 0 0 1 15.3 7c4.5 3.2 8 7.4 10.2 12.4l2.1-1-1.4-1.8c-.6.4-1 .5-1.5.5s-1-.2-1.8-.7c-1.2-.9-2.4-2.5-3.3-4.4-.8-1.8-1.4-4-1.5-5.8a108.3 108.3 0 0 1-.2-6.4c0-9.7 1.3-19.4 3.8-28.7l-2.3-.6-.1 2.3c32.4 2.2 58.1 4.4 90.5 6.5l.2-2.3-2.3.2c.6 7.2 1 14.5 1 21.7 0 15.6-1.9 31-7.3 45.4l2.2.8h2.4c-.6-11.2-1-22.4-1-33.4 0-16 .9-31.7 3.8-47.2a133 133 0 0 0 2.1-24.7c0-8.8-.6-17.7-1.5-26.5-.9-8.6-2-17.4-5.1-25a31.9 31.9 0 0 0-6.5-10.1 26 26 0 0 0-10.8-6.7 2.3 2.3 0 0 0-2.7 1 2.3 2.3 0 0 0 .3 2.8c2 2.2 4.6 3.9 7.4 5.2 4.3 2 9.1 3 14 3.7a112.3 112.3 0 0 0 18.8.7 2547 2547 0 0 0 144.3-7 2.3 2.3 0 0 0 2.1-2.5 2.3 2.3 0 0 0-2.4-2.2 970 970 0 0 1-178.8-6.4l-.3 2.3.1 2.4-.1-2.1v2h.1l-.1-2v2-1 1-1 1c3.3 0 6.7-.6 10-1.8 5.1-1.8 10-4.7 14-8.5 1.9-1.9 3.6-4 4.8-6.2a18 18 0 0 0 2.3-7.3l-2.4-.2-.1 2.4c18.6 1 40.5 1.6 62.6 1.6 25 0 50-.7 71-2v-2.4l-2.4-.2v2.5a37 37 0 0 0 23.7 34.4l.8-2.2-1.7-1.6a65.9 65.9 0 0 0-14 25.7A102.8 102.8 0 0 0 387 441c.8 21.1 6.2 41.5 7.9 62 .7 8.4 1 15 1 20.5 0 8-.8 13.1-2.3 16.7a17.5 17.5 0 0 1-3 4.7 30.5 30.5 0 0 1-4.5 4.1c-2 1.6-4 2.1-6 2.2-2.4 0-5-.8-8-2.2-4.2-2.1-8.8-5.5-13.7-8.7a54.6 54.6 0 0 0-15.2-7.8 85 85 0 0 0-13.5-2.3 169 169 0 0 0-38.6.5c-7 1-13.4 2.2-18.3 4a2.3 2.3 0 0 0-1.6 2 2.3 2.3 0 0 0 1.4 2.3 56 56 0 0 0 9.7 3.2 172.8 172.8 0 0 0 54.3 3c2.2-.3 4.5-.8 6.7-1.7 2.2-.9 4.4-2.1 6.1-4 1.5-1.6 2.5-3.5 3.3-5.4.7-2 1.1-3.9 1.6-5.7a197.1 197.1 0 0 0 4.6-42.7 197 197 0 0 0-5-44.1c-1.1-5-3.4-10.3-6.4-14.9-3.1-4.6-7.1-8.6-11.9-11.1a41.1 41.1 0 0 0-55.6 13.2 52 52 0 0 0-6.2 18.8c-1 6.5-1.2 13.2-1.4 19.6l-1.3 57.7h2.3l-2.3-.1v.3c0 1.6.5 3.1 1.1 4.5 1 2.1 2.5 4 4 5.7 1.5 1.7 3.1 3.2 4.4 4.4 1.7 1.6 3.8 2.5 5.8 3s4 .7 6 .8A752 752 0 0 0 349 546c14.3 0 27.7-.6 38-2 26.6-4 53.3-14.6 71.9-34.6a77.3 77.3 0 0 0 20.6-53.2 89 89 0 0 0-2.7-21.6l-.1-.3a9.9 9.9 0 0 0-2.7-4.1 6 6 0 0 0-4-1.5c-1 0-2 .3-2.9.7a8.6 8.6 0 0 0-3.1 2.8 7 7 0 0 0-1.4 4l.3 1.7a4.6 4.6 0 0 0 1.9 2.2c.8.5 1.7.8 2.8 1 1.3 0 3.6.4 6.1.7a66.5 66.5 0 0 0 8.6.5c38.7-4.4 77.5-6 116.4-10.4l2.9-.2c1.8 0 3.5.2 4.7.7.6.3 1 .6 1.4 1 .3.3.6.7.8 1.2l.1 1c0 .7-.3 1.7-.7 2.8l-1.8 3.7a26.5 26.5 0 0 0-2.5 11.3c0 6.4 2 12.7 5.1 18.5 3 5.9 7.1 11.3 11.4 16 5.3 6 11.8 13.4 17 21.1a71 71 0 0 1 6.5 11.7c1.7 4 2.7 7.8 2.9 11.5l2.3-.1-.7-2.3a74.6 74.6 0 0 1-22.7 3.4c-7.3 0-14.5-1-19.9-3.1-2.7-1-4.9-2.4-6.5-3.9a9.6 9.6 0 0 1-3-5 97.1 97.1 0 0 0-8.7-24.2 45 45 0 0 0-18.4-19.4 44.5 44.5 0 0 0-21.1-4.8c-4.5 0-9 .5-13 1.1a64 64 0 0 0-39 19.1 46.1 46.1 0 0 0-12.8 30.8c0 3.2.4 6.3 1.3 9.2a2.3 2.3 0 0 0 2 1.7c1 .1 1.8-.4 2.3-1.3 24-47.6 46.2-103.7 48.2-157.5h-2.4l1 2c3-1.4 5.3-2 7.2-2 2.2.1 4 .7 5.5 1.7s2.8 2.3 3.8 3.8l2-1.3-2.2 1a146.9 146.9 0 0 1 10.3 29 46 46 0 0 1 1 10.6c0 1.7-.2 3.3-.6 4.7a7.8 7.8 0 0 1-.7 1.7 4.6 4.6 0 0 1-1 1.3 6 6 0 0 1-2 1l-2.9.7a286.1 286.1 0 0 1-57.5 4.2 4.5 4.5 0 0 1-1.1-.4 2.4 2.4 0 0 1-.7-.6 2 2 0 0 1-.4-.7 3 3 0 0 1-.1-1c0-.6.2-1.5.5-2.4.3-1 .8-2 1.3-2.9 10.4-19 19.2-41.4 19.2-63a63 63 0 0 0-8.3-32.4l-2 1.2-.5 2.3c18.6 3.7 36.9 4.6 55 8.2a20.8 20.8 0 0 0 4 .4c2 0 4-.3 5.9-1.2a7 7 0 0 0 2.5-2 6.2 6.2 0 0 0 1.2-3.2v-.5a7 7 0 0 0-1.6-4.4c-1-1.1-2-2-3.2-2.7-3.5-2-7.4-2.6-11.2-2.6-3.9 0-7.7.5-11.4 1.1a72 72 0 0 1-10.2 1 13 13 0 0 1-5.7-1 6.7 6.7 0 0 1-2-1.3 8 8 0 0 1-1.4-2.4c-.8-1.6-1-3.5-1-5.6l.1-3A5297.2 5297.2 0 0 1 541 118.3c.2-2.2.5-4.5 1.1-6.3.3-1 .7-1.8 1.1-2.5a6.5 6.5 0 0 1 1.7-1.8c.8-.6 1.8-1.1 3-1.6 1.8-.7 4-1.2 6-2 1.1-.5 2.2-1 3.2-1.8a11 11 0 0 0 2.7-2.7c.9-1.3 1.4-2.7 1.7-4 .3-1.4.4-2.7.4-4l-.2-3.6-1.4-18.6c0-1.4-.2-3-.8-4.5-.3-.8-.6-1.6-1.2-2.3a6.5 6.5 0 0 0-2.2-2 6.6 6.6 0 0 0-3-.6c-2.1 0-3.9.7-5.4 1.6a28.6 28.6 0 0 0-10.9 11.6c-2.5 4.7-4 10-4.5 15.1a29.3 29.3 0 0 0 0 2.7c0 3.2.5 6.5 2.4 9.4.9 1.4 2.1 2.5 3.5 3.4 1.5.9 3.1 1.5 5 1.6a6.8 6.8 0 0 0 4.3-1.6 9.2 9.2 0 0 0 3-5.7h.1l.2-2c0-3-1-5.6-2.2-8-1.2-2.4-2.6-4.6-3.7-6.6a59.7 59.7 0 0 1-5.9-30.8c.3-15.7 3-31.3 6.6-46.8l-2.3-.5-2.3.1.8 15c2 36.2 3.7 72.5 6.3 108.7 2.8 41.8 5.7 83.5 7.2 125.3a1555.5 1555.5 0 0 1 1 69.4h2.4-2.3v.2c0 1.4 0 2.9.6 4.4.2.8.6 1.5 1.2 2.2a5.4 5.4 0 0 0 2.4 1.6l1.7.3c.8 0 1.5-.1 2.1-.3l2.4-1.2 1.8-1a5.3 5.3 0 0 1 2.3-.5c1 0 2 .2 3 .7 1.4.7 2.9 2 4 3.5 1.2 1.6 2 3.4 2.2 5.1l.2 2.8c0 3-.6 6.5-1.3 9.9l-2.5 9.8c-1.6 6-2.3 12-2.3 18 0 21.2 8.3 42.2 16.2 61.7a193 193 0 0 0 9.7 21 56.4 56.4 0 0 0 36.5 29.6c8 2.1 16.5 3 25.1 3 9.9 0 19.9-1.1 29.4-2.3a2.3 2.3 0 1 0-.6-4.6"/><path d="M689 487.4v.2c0 .5.1 1.1.4 1.6a3.6 3.6 0 0 0 1.7 1.7 4.5 4.5 0 0 0 1.9.4 5.6 5.6 0 0 0 3.2-1 4.7 4.7 0 0 0 1.3-1.4c.4-.6.6-1.4.6-2.2h-1.9l1.9.1v-.1h-1.9l1.9.1v-.2a5.6 5.6 0 0 0-.9-2.8c-.7-1.2-1.7-2-2.8-2.6a11.6 11.6 0 0 0-3.3-1.2c-1.4-.2-2.6-.3-3.6-.6-1-.2-1.7-.5-2.2-1a3 3 0 0 1-.6-.8c-.3-.6-.5-1.3-.7-2.2l-.1-2.8-.3-19.6h-2.3l-.4 2.3c2.2.3 4.6.5 7 .5 3 0 6-.3 8.9-1.4 1.4-.6 2.7-1.3 3.8-2.3a11.6 11.6 0 0 0 3-3.8c1-2.1 1.2-4.4 1.2-6.4 0-1.6-.1-3.1-.3-4.6l-1.8-17.9-.2-2.2c0-1 .2-1.7.5-2.2l.7-.8c.5-.4 1.2-.7 2-1a20 20 0 0 1 3-.5 249.7 249.7 0 0 1 45.5-1.4c1.2.1 2.6.4 3.5.9l.8.6.1.3v.1l2.3.2-.4-2.3a270.9 270.9 0 0 1-26.7 3.3l-4.1.2c-3.4 0-7-.3-10-1.2a15 15 0 0 1-4-1.7c-1-.7-1.9-1.6-2.4-2.5-.5-.8-.7-1.9-.7-3.2 0-1.4.2-3 .6-4.6l1-4.7c.6-3 .8-6.1 1.3-9a23 23 0 0 1 2.6-7.8c1.8-3.1 4.5-6 7.5-8a18.7 18.7 0 0 1 11-3c4.1.2 8 2 11.3 4.9 3.3 2.8 6 6.7 7.6 10.7a74.2 74.2 0 0 1 3.6 27.3 2.3 2.3 0 1 0 4.7 0c0-9.5-.2-19.6-4-29-1.9-4.8-5-9.2-8.8-12.6-4-3.4-8.8-5.7-14.2-6a20 20 0 0 0-1.1 0c-4.5 0-8.9 1.5-12.6 3.9a28.3 28.3 0 0 0-9 9.5c-1.8 3-2.7 6.2-3.2 9.3l-1.3 9-1 4.5a28 28 0 0 0-.7 5.6c0 1.8.3 3.8 1.4 5.6 1 1.6 2.3 3 3.9 4 2.3 1.5 5.1 2.4 8 3 2.8.5 5.7.6 8.5.6a63 63 0 0 0 4.5-.1 275.7 275.7 0 0 0 27.1-3.4 2.3 2.3 0 0 0 2-2 5.1 5.1 0 0 0-1.1-3.8 8 8 0 0 0-3.7-2.4 15 15 0 0 0-4-.8A254 254 0 0 0 708 408c-1.5.2-3.2.4-4.8 1a9.8 9.8 0 0 0-2.4 1.3 7.5 7.5 0 0 0-2 2.2 9 9 0 0 0-1 4.6l.1 2.7 1.9 18 .3 4c0 1.6-.3 3.1-.9 4.4a7 7 0 0 1-1.7 2.2 10 10 0 0 1-4.1 2 23 23 0 0 1-5.6.7c-2.1 0-4.3-.2-6.3-.5a2.3 2.3 0 0 0-1.9.6 2.3 2.3 0 0 0-.8 1.7l.3 19.6c0 1.4 0 3 .4 4.7.2.8.5 1.6 1 2.4.3.8.9 1.6 1.6 2.2a9.4 9.4 0 0 0 4.3 2c1.3.4 2.6.5 3.7.7.9.2 1.9.6 2.5 1l.6.7.1.5 2.4-.1-2.4-.2v.2h.5l-.4-.2v.2h.4l-.4-.2.2.1-.2-.2.2.2-.2-.2-.2.2h-.3l-.1.4.1-.3-.1.3.1-.3-.4 1 .9-.7a1 1 0 0 0-.5-.3l-.4 1 .9-.7-.9.6h1a1 1 0 0 0-.1-.6l-.9.6h1-1.5 1.6-1.6 1.6a2.3 2.3 0 1 0-4.7-.2"/><path d="M759 412.9a2.6 2.6 0 0 0 1 2l1.2.7 2.3.4c2.6.3 6.6.4 11.7.4 15.2 0 40-1 61-2.1 21-1 38.1-2.1 38.1-2.1a2.3 2.3 0 0 0 1.6-.8l.4-.6a2.5 2.5 0 0 0 0-2.2c-.4-.7-.8-.9-1-1a3.6 3.6 0 0 0-.7-.4 7.7 7.7 0 0 0-1.2-.2l-3-.3c-4.4-.3-12-.3-21-.4-13.5 0-30.5 0-45.2-.6-7.3-.3-14-.8-19.4-1.4-2.7-.3-5-.7-7-1.1-1.8-.5-3.3-1-4-1.4l-.6 1 1-.6-.4-.4-.6 1 1-.6h-.1.1-.1.1l-.3-.9-.6-4.2c-.5-5.6-.7-14.4-.7-24v-19a487 487 0 0 0-.5-21.2 9.4 9.4 0 0 0-1.6-4 6.6 6.6 0 0 0-2.4-1.8 6.6 6.6 0 0 0-2.9-.7c-.7 0-1.4.1-2.1.4a4.9 4.9 0 0 0-2 1.4l-1.5 2.5c-.3.8-.6 1.7-.6 2.5a4.5 4.5 0 0 0 .4 1.8 5 5 0 0 0 2 2.2c1.1.8 2.4 1.1 3.8 1.3a88 88 0 0 0 11.7 0l5.8-.5c26-1.4 52-2.3 78-4.4 1.7-.1 3.6-.3 5.4-.8 2-.5 3.8-1.2 5.5-2.7 1.4-1.3 2.4-2.9 3-4.5.6-1.7.8-3.5.8-5.2a28 28 0 0 0-1.3-8A71.8 71.8 0 0 0 829 266c-1.9-.6-3.8-1.2-5.3-1.9a9.2 9.2 0 0 1-3.7-2.7c-.5-.7-.9-1.5-1.2-2.5l-.7-3.2a116.1 116.1 0 0 1-1.8-26.7c0-1.3.4-2.7.8-3.6l.6-.8c.2-.2.3-.2.5-.2v-.3.3-.3.3c.2 0 .5 0 .9.3l1.2 1.2c2.8 3.4 4 7.8 4 12.6 0 3.5-.7 7.2-1.9 10.6a45.8 45.8 0 0 1-15 21.2c-3.4 2.5-7.1 4.7-10.9 7a42.4 42.4 0 0 0-20.4 24.7 93.4 93.4 0 0 0-4.2 24.1c0 1.9.1 3.8.7 5.7a13.3 13.3 0 0 0 10.2 9.7c2.8.8 5.7 1 8.4 1 2.5 0 5-.2 7-.3h1.2c3.5 0 7.2.6 11 1.2 3.7.7 7.5 1.3 11.5 1.3 1.8 0 3.6-.1 5.4-.4l-.4-2.3v2.3-2.3l-1.5 1.8c.3.3 1 .5 1.5.5v-2.3l-1.5 1.8 1.4-1.8-2 1.1.6.7 1.4-1.8-2 1.1 2-1-2.2.5.3.5 1.8-1-2 .5 1.3-.3h-1.4v.3l1.4-.3h-1.4.2-.2.2-.2V343.6a166.7 166.7 0 0 1-2 13.6v.1l-.8 3.8c-.5 2.1-1 4.4-1.7 6.1-.4.9-.8 1.6-1.3 2.1-.4.5-.8.7-1.2.9a2 2 0 0 1-.6 0 1.3 1.3 0 0 1-.5 0c-.3-.1-.7-.4-1-.8-.7-.7-1.3-1.9-1.8-3l-1.3-3.6a26 26 0 0 1-1.4-8.2c0-2.2.4-4.3 1.2-6 .8-1.6 1.9-2.8 3.7-3.7 1.1-.4 2.2-.6 3.5-.6 2 0 4.2.5 6.7 1 2.4.7 5 1.3 7.8 1.3h1.8l5-1.1c1.7-.4 3.2-.7 4.3-.6.7 0 1.2 0 1.6.2.4.2.7.4 1 .8.3.3.6.8.7 1.4.2.7.3 1.5.3 2.3.1 2 .3 4 .3 6.2 0 1.8-.1 3.6-.5 5.2-.3 1.6-.9 2.9-1.7 4a3 3 0 0 1-1 .7c-.2.2-.5.2-.7.2h-.2a1.8 1.8 0 0 1-.7-.3c-.4-.2-.9-.8-1.3-1.6-.6-1.1-1.1-2.9-1.4-4.7a36.4 36.4 0 0 1-.1-10.2c.3-1.8 1.1-3.6 2.2-5a7.4 7.4 0 0 1 4-2.8l6.7-1.5c2.5-.4 5.2-.7 7.5-.7 1.9 0 3.6.2 4.6.6l1.1.7.5.8c.4 1.4.7 3.5.9 6l.5 12.7c.1 2.1.3 4.2.6 6 .2 2 .5 3.6 1.1 5.1.9 2.3 1.4 4.6 2 6.5.4 1 .8 2 1.6 2.9.4.4.9.8 1.5 1.1a4.6 4.6 0 0 0 2 .4c1.3 0 2.6-.5 4-1.2 1.8-1 3.1-2.4 4.2-3.7 1.1-1.3 2-2.6 3-3.5 2.4-2.2 5.6-3.3 9-3.3 3.8 0 7.8 1.4 10.8 3.7 3 2.2 5.3 5.2 7.1 8.6 1.8 3.4 3.2 7.2 4.1 11a76.3 76.3 0 0 1 2.3 18.6c0 10.8-2.2 21.6-6.6 31.5l2 1 1-2.3h-.2v.1-.1.1-.2l.2-.7a3.8 3.8 0 0 1 1.1-1.4 2 2 0 0 1 1.3-.5 6 6 0 0 1 2 .5 18 18 0 0 1 3.3 2c1.2 1 2.4 2 3.9 2.8l1.8.6c.6.2 1.2.2 1.8.2a59 59 0 0 0 10.1-2l2-.7.7-.2-.2-1 .2 1-.2-1 .2 1-.4-2v2h.4l-.4-2v2-2.3l-1.5 1.8a6 6 0 0 1 1.9 2.6c.3 1 .5 2.2.5 3.5 0 1.8-.3 3.8-.6 6-.3 2-.6 4.4-.6 6.7v1a93 93 0 0 1 .1 4c0 7.9-1 15.2-1.2 23.7v1c0 1 0 2 .3 3 .2 1.1.8 2.3 1.8 3.2.9.9 2 1.3 3 1.6l2.7.3a152 152 0 0 0 24.6-.7 2.3 2.3 0 1 0-.5-4.7 141.4 141.4 0 0 1-25.7.5 2 2 0 0 1-1-.4c-.1-.2-.3-.4-.4-.9l-.2-1.8v-1c.3-8.1 1.3-15.5 1.3-23.8a92 92 0 0 0 0-4.1 16.2 16.2 0 0 1-.1-.9c0-1.9.3-4 .6-6.1.3-2.2.6-4.4.6-6.6 0-1.7-.2-3.4-.8-5.1a10.7 10.7 0 0 0-3.3-4.6 2.4 2.4 0 0 0-1.5-.5h-.5l-.4.1-2 .7c-1.3.4-3 1-4.8 1.3a21.7 21.7 0 0 1-5.6.7 1.3 1.3 0 0 1-.4-.2c-1.4-.8-3-2-4.7-3.3a18 18 0 0 0-2.9-1.6c-1-.5-2.2-.8-3.5-1a5 5 0 0 0-.4 0 6.3 6.3 0 0 0-3 .8 8.1 8.1 0 0 0-3 2.7 7 7 0 0 0-1.2 3.8c0 .9.2 1.8.7 2.7.6.8 1.4 1.4 2.4 1.8a2.3 2.3 0 0 0 3-1.2 82 82 0 0 0 4.6-53c-1-4.2-2.5-8.4-4.6-12.2-2-3.9-4.8-7.4-8.4-10.2-3.9-2.9-8.8-4.5-13.6-4.5-4.4 0-8.8 1.3-12.1 4.5-1.4 1.3-2.4 2.7-3.4 3.9-1 1.1-2 2-3 2.6-1 .6-1.7.7-1.8.7v.1-.1.1-.1.3-.3.3-.3.1h.1l-.4-.7a22 22 0 0 1-1-3l-1.3-4.4c-.5-1.2-.9-3.3-1.1-5.7-.4-3.7-.5-8.3-.7-12.5 0-2.2-.2-4.2-.3-6.1-.2-2-.5-3.6-.9-5a6.5 6.5 0 0 0-1.7-3 9 9 0 0 0-4.1-2 20 20 0 0 0-4.9-.6c-2.8 0-5.7.4-8.3.8-2.7.5-5.2 1.1-7 1.6a12 12 0 0 0-6.6 4.4c-1.6 2-2.6 4.5-3.1 7a35.3 35.3 0 0 0 .9 15.1c.4 1.7 1 3.2 2 4.5a7.9 7.9 0 0 0 1.8 1.7 6.5 6.5 0 0 0 3.6 1c1.1 0 2.1-.2 3-.7a7.7 7.7 0 0 0 2.3-2c1.4-1.7 2.2-3.8 2.7-5.8.4-2 .6-4.2.6-6.2 0-2.4-.2-4.6-.3-6.5 0-1-.2-2-.4-3a8.3 8.3 0 0 0-1.6-3.4 7.2 7.2 0 0 0-3-2.1 9 9 0 0 0-3.3-.6c-1.8 0-3.6.4-5.3.8l-4.5.9H834c-2 0-4.3-.5-6.8-1-2.4-.6-5-1.3-7.7-1.3a13 13 0 0 0-5.4 1 12 12 0 0 0-6 6 18.6 18.6 0 0 0-1.6 8c0 3.5.7 7 1.6 9.8l1 2.7c.6 1.6 1.4 3.4 2.6 5 .6.7 1.3 1.4 2.2 2a6 6 0 0 0 3.2.9 6.6 6.6 0 0 0 2-.4 7.1 7.1 0 0 0 2.4-1.3c1.2-1 2-2.3 2.7-3.6 1-2 1.5-4.2 2-6.3l1-4.8.1-.5.6-3.2a269.7 269.7 0 0 0 1.5-12.4v-.7l-.3-.8a2.4 2.4 0 0 0-.6-.7 2.4 2.4 0 0 0-1.5-.6h-.5c-1.4.3-3 .5-4.5.5-3.4 0-7-.6-10.8-1.3-3.8-.6-7.7-1.3-11.7-1.3H798c-2.1.1-4.5.3-6.8.3-2.5 0-5-.2-7.2-.8a10 10 0 0 1-5.1-3c-.9-1-1.5-2-1.8-3.4-.4-1.4-.6-2.9-.6-4.5s.2-3.3.4-5c.7-6 1.7-12 3.6-17.6a37.7 37.7 0 0 1 8.5-14.7c2.8-2.9 6.3-5.2 10-7.5 3.6-2.3 7.5-4.5 11.2-7.3a50.5 50.5 0 0 0 16.7-23.4 38 38 0 0 0 2-12.1c0-5.6-1.4-11.1-5-15.6-.6-.7-1.3-1.4-2.2-2-1-.7-2.1-1.2-3.5-1.2h-.2a5.4 5.4 0 0 0-3.2 1.2 8 8 0 0 0-2.4 3.8c-.5 1.4-.7 2.8-.8 4a120.8 120.8 0 0 0 1.9 27.8l.9 3.8c.4 1.3 1 2.6 1.9 3.9 1.5 2 3.5 3.2 5.4 4.1 2 1 4 1.6 5.8 2.2a67.2 67.2 0 0 1 42.1 43.1c.7 2.2 1.2 4.6 1.2 6.7 0 1.3-.2 2.6-.6 3.6-.4 1-1 1.9-1.7 2.6-1 .8-2 1.3-3.5 1.7-1.4.3-3 .5-4.7.6-25.8 2.1-51.9 3-77.9 4.4l-5.9.5c-2.2.2-4.6.4-6.8.4-2.1 0-4-.2-5.1-.6l-1-.4-.1.1h.2v-.1l-.2.1h.2-.1.1-.1.1l.2-.7c.1-.3.4-.9 1-1.5l-2-1.4 1.9 1.5v-.1a.8.8 0 0 1 .4 0c.2 0 .6 0 .8.2.3.1.6.3.7.5.4.5.7 1.1.8 2 .2.8.2 1.8.3 3 .2 4.9.2 10.9.2 17.2v19.1c0 8 0 15.4.4 21a59.7 59.7 0 0 0 1.4 9.6l.6 1.2c.3.3.6.7 1.2 1 1 .6 2.3 1 3.8 1.5 2.8.7 6.4 1.3 10.5 1.7 14.6 1.6 36.6 1.8 55 1.9l23.6.1a118.8 118.8 0 0 1 8.5.6h.1l.4-1.3-.7 1.1.3.2.4-1.3-.7 1.1 1.2-1.7-1.7 1.2.5.5 1.2-1.7-1.7 1.2 1.8-1.3h-2.2c0 .5.2 1 .4 1.3l1.8-1.3h-2.2 2.2l-2-.9-.2 1h2.2l-2-1 1.9.9-1.5-1.4c-.1 0-.3.2-.4.5l1.9.9-1.5-1.4 1.7 1.6-.2-2.4a3925.6 3925.6 0 0 1-46 2.5c-19 1-39.6 1.7-52.8 1.7a140.5 140.5 0 0 1-12.4-.5l-.2-.1-.5 1.2.8-1-.4-.2-.4 1.2.8-1-1.3 1.5 1.7-1a2 2 0 0 0-.4-.5l-1.3 1.5 1.7-1-1.8 1h2c0-.3 0-.7-.2-1l-1.8 1h2a2.3 2.3 0 0 0-4.6 0"/><path d="M974.8 498.4a40.2 40.2 0 0 1 3.7-.2c2 0 4 .2 5.7.7a10 10 0 0 1 4.3 2.5 6 6 0 0 1 1.6 4.2c0 1.3-.4 2.6-1 3.4-.2.4-.5.7-.9 1-.3.1-.7.3-1.1.3h-.4c-.9 0-1.5-.2-2.1-.8-1-.8-2-2.4-2.5-4.4-.7-2-1-4.3-1-6.3a5445.3 5445.3 0 0 1-1.3-97.4h-2.3l-1 2c1.3.7 2.3 1.6 3.2 2.8 1.2 1.7 2 4.1 2.5 6.8.4 2.7.5 5.6.5 8.4v3c0 14.9 1.6 29.8 4.8 44.5a2.3 2.3 0 0 0 1.1 1.5c.6.3 1.3.4 2 .2a6.2 6.2 0 0 0 2.6-1.9 9 9 0 0 0 1.8-3.7c.3-1.3.4-2.6.4-3.8a701.5 701.5 0 0 0-2.4-92.5l-2.4.2.6 2.2a307 307 0 0 1 69.2-8.8h.5c2 0 4.2.2 5.9.7a7 7 0 0 1 2 1c.6.5 1 1 1.3 1.6.4.8.6 1.8.6 3v2L1066 458c-.2 3-.4 6.1-1.1 8.8-.4 1.4-.8 2.6-1.4 3.7-.6 1.1-1.4 2-2.3 3-1 .8-2.6 1.4-4.3 1.4-1.5 0-3-.5-4-1.2-.6-.4-1-.8-1.2-1.2a2.7 2.7 0 0 1-.3-1.4v-.1l-2.3-.2.8 2.1a101.1 101.1 0 0 1 45.8-5.5 2.3 2.3 0 0 0 1.7-.6c.5-.4.8-1 .9-1.6a430.2 430.2 0 0 0-3.4-91 26 26 0 0 1-.3-3.7c0-1.2.2-2.2.5-3 .3-.8.7-1.4 1.3-1.8.4-.3 1-.4 1.7-.6l2.5-.1a422 422 0 0 1 55.8 3 2.3 2.3 0 1 0 .5-4.6 426.4 426.4 0 0 0-56.3-3l-3.2.1a8 8 0 0 0-6.7 5.3c-.6 1.6-.7 3.2-.7 4.7s.1 3 .3 4.3a425.6 425.6 0 0 1 3.3 90l2.4.2.2-2.3a104.7 104.7 0 0 0-11.5-.6c-12.4 0-24.8 2.2-36.4 6.5a2.3 2.3 0 0 0-1.6 2 6.9 6.9 0 0 0 0 .5 7.4 7.4 0 0 0 1 3.8c1 1.6 2.4 2.7 4 3.5 1.6.7 3.4 1.1 5.2 1.1a11 11 0 0 0 7.4-2.6c2.8-2.5 4.3-5.7 5.1-9 .8-3.2 1-6.6 1.3-9.7l4.6-87.4v-2.1c0-1.6-.1-3.4-1-5.2a8.8 8.8 0 0 0-2.6-3.2 13 13 0 0 0-5.3-2.2 28 28 0 0 0-5.5-.4h-.6c-23.6.3-47.2 3.3-70.2 9a2.3 2.3 0 0 0-1.8 2.4 696.6 696.6 0 0 1 2.5 92c0 1.2-.3 2.6-.6 3.6l-.6 1a1.5 1.5 0 0 1-.6.5l.8 2.2 2.2-.5a206 206 0 0 1-4.6-45.3v-1.2c0-3.9-.2-8.3-1.3-12.3-.6-2-1.4-3.9-2.7-5.6a13 13 0 0 0-4.9-4.2 2.3 2.3 0 0 0-2.2.1 2.3 2.3 0 0 0-1.1 2c.1 32.5.5 65 1.2 97.5 0 3.2.7 7 2.1 10 .8 1.6 1.7 3.1 3.1 4.2a7.9 7.9 0 0 0 5.1 1.9h.8a7.3 7.3 0 0 0 3.2-1.1 8.2 8.2 0 0 0 3-3.7c.7-1.4 1-3 1-4.6 0-2.6-.8-5.4-2.9-7.5-1.8-1.8-4-3-6.3-3.6a25 25 0 0 0-7-1l-4.2.3a2.3 2.3 0 1 0 .5 4.6"/><path d="M1158 368.2h.2a.6.6 0 0 1 .3.1c.2.1.6.4.8 1 .2.4.4 1 .4 1.6 0 .6-.2 1.2-.4 1.5a5 5 0 0 1-1.5 1.2c-.9.5-2 1-3.3 1.1a28 28 0 0 1-4 .4 206.8 206.8 0 0 1-42-3.3 2.3 2.3 0 0 0-2 .7 4.4 4.4 0 0 0-.9 1.3 3.8 3.8 0 0 0 0 3.1c.4.8.9 1.4 1.5 1.9a9.9 9.9 0 0 0 6.2 2.2h.1l39.9-1v-2.4l-2.4-.2a601.8 601.8 0 0 0-1.4 93.5 2.3 2.3 0 0 0 2.2 2.2l8.7.4.2-2.3-2.4.1 1.3 16.5a2.3 2.3 0 0 0 2.3 2.2l13.3.4V488l-2.2.4a49.5 49.5 0 0 1-4.4 30.6c-.6.9-1.2 1.5-1.9 1.9a3 3 0 0 1-2.6.1 1 1 0 0 1-.6-.5 1.1 1.1 0 0 1 0-.5c0-.2 0-.4.2-.7.3-.6.9-1.2 1.7-1.7a9.1 9.1 0 0 1 2.6-1.2 39 39 0 0 1 10.1-1.2c6.4 0 13 1 19.8 1.2h.6c1.6 0 3.9-.1 6.8-.4 9.9-1 26.7-3.3 41.7-6.5 7.5-1.6 14.5-3.4 20-5.3a47.9 47.9 0 0 0 9.6-4.6c.8-.6 1.4-1.3 2-2.1.1-.4.3-.9.3-1.5 0-.4-.1-.9-.3-1.3a2.9 2.9 0 0 0-.7-.8 3.3 3.3 0 0 0-1-.6l-1.5-.3h-1.5c-2.3 0-5.5.3-9.2.8l-18.6 2.6c-6.3.9-12.2 1.6-15.8 1.6l-2.6-.2h-.2l-.2.4.3-.4-.3.4.3-.4-.8 1 1.2-.6a1.4 1.4 0 0 0-.4-.4l-.8 1 1.2-.6-1.4.8h1.6a1.7 1.7 0 0 0-.2-.8l-1.4.8h1.6-2.2l2.1.5.1-.5h-2.2l2.1.5a2.5 2.5 0 0 0 .1-.4c.3-7.4 1-17.4 1.7-27.6a486.6 486.6 0 0 0 1.2-31.3c0-1.4 0-3-.3-4.7-.3-1.6-.8-3.3-1.9-4.9a15 15 0 0 0-2.5-2.7l-2.2-2a16.1 16.1 0 0 1-4.2-10.5c0-1.9.4-3.6 1.3-5.1 1.3-2.3 4-4.6 7-6.7 3-2.2 6.4-4.2 9.1-6.3 28.6-21.6 59.4-50 80.7-79 .4-.6.5-1.3.4-1.9a2.3 2.3 0 0 0-1.1-1.5 171.4 171.4 0 0 1-23.4-16.3 2.3 2.3 0 0 0-2-.5 2.3 2.3 0 0 0-1.6 1.2c-20.2 39.6-56 70.4-89.6 100.4l-5 4.2c-3 2.5-6.5 5.5-9.4 8.6-1.5 1.5-2.9 3-4 4.6-1 1.6-2 3-2.4 4.7a6.5 6.5 0 0 0-.2 1.7c0 1.2.3 2.4.8 3.4.8 2 2.1 3.8 3.7 5.5a37.7 37.7 0 0 0 13.2 8.7 13.7 13.7 0 0 0 4.8.9 2.3 2.3 0 0 0 1.6-.8 262.4 262.4 0 0 0 43.6-61c1-1.9 1.9-3.8 2.6-5.8s1.2-4.2 1.2-6.5c0-1.2 0-2.4-.4-3.6-.9-3-2.6-5.3-4-7.3a200146.7 200146.7 0 0 0-35.9-49.2c-.6-.9-1.4-1.9-2.4-2.8a7.5 7.5 0 0 0-1.8-1.1 5.9 5.9 0 0 0-2.3-.5v.7-.7.7-.7c-1.4 0-2.5.4-3.4 1-1 .5-1.6 1-2.2 1.6a119.8 119.8 0 0 0-16.6 18.1l-2 3c-.5 1.1-1 2.5-1 4v.2l2.4-.1h-2.3a7.7 7.7 0 0 0 .8 3.3c.7 1.4 1.8 2.6 2.9 3.5 1.1 1 2.3 1.8 3.4 2.4 39.5 23.6 83 39 124.3 58a20 20 0 0 1 3.9 2.2c.5.4 1 .8 1.2 1.2a3.9 3.9 0 0 1 .8 2.3c0 1-.4 2.2-1.2 3.4-.8 1.3-2 2.5-3 3.7l-8.7 8.7c-1.5 1.5-3 3-4.6 4-1.6 1-3.1 1.6-4.6 1.6h-.4c-1 0-2.1-.4-3.3-1a86.3 86.3 0 0 1-29-37.3 2.3 2.3 0 0 0-3-1.4 2.3 2.3 0 0 0-1.3 3l.6 1 1 1 2.4 1.5 3.8 2.1a42.3 42.3 0 0 1 2.4 1.4 50 50 0 0 1 8.4 8.5c5 6.3 8.4 13.8 10.4 21.6 2 7.8 2.7 16.1 2.7 24.6 0 11.4-1.2 23.1-1.4 34.4v.2c0 1.4.2 2.7.7 3.9a7.2 7.2 0 0 0 3.4 3.8c1.6.8 3.2 1 5 1l2.8-.1a46.7 46.7 0 0 0 19.4-7.6c1.6-1.1 3.3-2.2 5-3a10 10 0 0 1 4.2-1.4 3.4 3.4 0 0 1 3.2 2.1c.2.6.4 1.3.4 2a8 8 0 0 1-.7 3.1c-.5 1.3-1.3 2.5-2.3 3.8l-3.2 4a25.6 25.6 0 0 0-5.2 14.8c0 2 .3 3.8 1 5.7a16 16 0 0 0 9.8 9.6c2.5.9 5.2 1.2 7.9 1.2 3.5 0 7-.6 10.3-1.3 5.4-1.3 10.7-2.9 15.6-2.9 2.4 0 4.6.4 6.8 1.3 1.8.8 3.5 2 5.3 3.3 1.8 1.3 3.7 2.8 6 4 3.6 1.7 7.5 2.4 11.3 2.4a43 43 0 0 0 7.9-.8c8.4-1.6 23.5-4.9 38.4-9 7.4-2 14.8-4.3 21.2-6.7a73.4 73.4 0 0 0 15.7-7.5 2.3 2.3 0 0 0 .5-3.3 2.3 2.3 0 0 0-3.2-.5 69.8 69.8 0 0 1-14.6 7c-18.7 6.9-46.5 13-58.9 15.4-2.3.4-4.7.7-7 .7-3.3 0-6.5-.6-9.2-2-1.8-.8-3.5-2-5.4-3.4a32.2 32.2 0 0 0-6.2-3.9 21.6 21.6 0 0 0-8.6-1.7c-5.8 0-11.5 1.8-16.7 3-3 .7-6.2 1.2-9.2 1.2-2.3 0-4.5-.2-6.4-1-2-.6-3.6-1.6-4.9-3a10.2 10.2 0 0 1-2-3.6 13 13 0 0 1-.7-4.2c0-4 1.7-8.6 4.2-12l3.2-4c1-1.4 2.1-2.9 3-4.7a12.7 12.7 0 0 0 1-5 10 10 0 0 0-.8-3.7 8 8 0 0 0-2.4-3.3 8 8 0 0 0-5-1.7c-2.4 0-4.5.8-6.5 1.8s-3.8 2.2-5.4 3.3a42 42 0 0 1-17.5 6.8c-.8.2-1.5.2-2.1.2-.8 0-1.6 0-2.1-.2-.8-.3-1.3-.6-1.6-1.1-.4-.5-.7-1.3-.7-2.8v-.1c.2-11 1.3-22.8 1.3-34.5 0-8.7-.6-17.4-2.8-25.8a64.5 64.5 0 0 0-11.2-23.3 55.2 55.2 0 0 0-9.1-9.3l-1.2-.7a60.4 60.4 0 0 0-2.4-1.4l-3.9-2-1.3-1a2.4 2.4 0 0 1-.2-.2l-.9.7 1-.4v-.3l-1 .7 1-.4a2.3 2.3 0 1 0-4.3 1.7 91.1 91.1 0 0 0 31.1 39.8 11.7 11.7 0 0 0 13-.8c2.1-1.4 3.9-3 5.4-4.7l8.6-8.6a28 28 0 0 0 3.7-4.4c1.1-1.7 2-3.7 2-6 0-.7 0-1.5-.3-2.2a8.8 8.8 0 0 0-1.4-2.9c-1-1.2-2.2-2.1-3.3-2.9a31 31 0 0 0-3.6-1.9c-41.6-19.2-85-34.5-123.9-57.8-1.3-.8-2.6-1.7-3.5-2.6-.5-.5-.8-1-1-1.4a3 3 0 0 1-.4-1.3h-1.3 1.3-1.3 1.3c0-.6.2-1.2.6-2l1.4-2.2a115.2 115.2 0 0 1 16-17.4l1.4-1.1a2 2 0 0 1 1-.4v-1.5 1.5-1.5 1.5l.5.1c.3.2.7.4 1 .9.5.4 1 1 1.3 1.5l35.9 49.2c1.5 2 2.8 4 3.3 5.8l.3 2.4c0 1.6-.4 3.2-1 5-.6 1.6-1.4 3.4-2.3 5a257.3 257.3 0 0 1-42.9 60.1l1.7 1.6v-2.3h-.3c-1 0-2.8-.5-4.8-1.4-3-1.4-6.3-3.7-8.8-6.1a18.6 18.6 0 0 1-2.9-3.6c-.7-1.1-1-2.1-1-2.7l.1-.5a8 8 0 0 1 1-2c.7-1.3 2-3 3.5-4.6 2.3-2.4 5.2-5 8-7.3 2.6-2.4 5.2-4.4 6.9-6 33.6-30 69.9-61 90.7-101.7l-2-1-1.6 1.8a176.7 176.7 0 0 0 24 16.7l1.2-2-1.9-1.4a407.3 407.3 0 0 1-79.7 78.1c-2.4 1.9-5.8 3.9-9 6.1a28.4 28.4 0 0 0-8.3 8.2c-1.4 2.3-2 5-2 7.5 0 5 2.2 10 5.5 13.7.9 1 1.8 1.6 2.5 2.3.8.7 1.4 1.3 1.8 1.9.5.8.9 1.8 1 3 .3 1.2.3 2.6.4 4v2.5c0 8-.6 18.2-1.2 28.4l-1.8 27.7h2.4l-2.3-.4v.5a3 3 0 0 0 1 2.3c.4.4.9.7 1.3.8.7.3 1.4.4 2 .5h2.4a93 93 0 0 0 10.3-.7l18.9-2.7a300.3 300.3 0 0 1 14.4-1.6 7 7 0 0 1 1.4.1l.4-1.2-.9 1 .5.2.4-1.2-.9 1 1.3-1.5-1.7.8.4.6 1.3-1.4-1.7.8 1.8-.8h-2l.2.8 1.8-.8h-2 1.7l-1.4-.8c-.1.1-.3.4-.3.8h1.7l-1.4-.8c-.1.1-.4.5-1 .9-1 .8-3 1.8-5.4 2.7-4.3 1.7-10.2 3.4-16.9 5a395.2 395.2 0 0 1-52.7 8h-.4c-6.5-.2-13.2-1.2-20-1.3-3.7 0-7.5.4-11.3 1.4-1.8.5-3.7 1.4-5.2 2.7-.7.6-1.4 1.4-2 2.3-.5.9-.9 2-.8 3.1a5.8 5.8 0 0 0 .5 2.5 5.8 5.8 0 0 0 2.6 2.7c1 .5 2.2.7 3.3.7a7.7 7.7 0 0 0 4-1c1.4-.9 2.5-2 3.3-3.3.8-1.3 1.4-2.6 2-3.8a54.9 54.9 0 0 0 3-30.3 2.3 2.3 0 0 0-2.2-1.9l-13.3-.4v2.4l2.2-.2-1.2-16.5a2.3 2.3 0 0 0-2.2-2.2l-8.8-.4-.1 2.4 2.3-.2a597.1 597.1 0 0 1 1.5-92.8 2.3 2.3 0 0 0-2.4-2.5l-39.9 1v2.4-2.3c-.8 0-1.9-.3-2.6-.8l-.8-.5-.6.2h.6a.7.7 0 0 0 0-.3l-.6.3h.6-.8l.8.4a1 1 0 0 0 0-.4h-.8l.8.4-.5-.2.4.3v-.1l-.4-.2.4.3v-.1l-1.6-1.6-.5 2.3a211.5 211.5 0 0 0 42.9 3.3c2 0 4.2-.1 6.4-.7 1-.3 2.1-.7 3.2-1.3a9.7 9.7 0 0 0 2.7-2.5 7 7 0 0 0 1.4-4.3c0-1.7-.5-3.4-1.5-4.8a6.5 6.5 0 0 0-1.8-1.8 5.2 5.2 0 0 0-2.8-.8l-1.7.3a2.3 2.3 0 1 0 1.5 4.4"/></g></svg>