<svg xmlns="http://www.w3.org/2000/svg" viewBox="0 0 206 319"><path d="M192.5 218.4a47.8 47.8 0 0 0-1.3 0 41 41 0 0 1 12.6-2.7c-2.2 2.6-6.4 2.8-11.3 2.7zm-37.3 26a7503.8 7503.8 0 0 1-19.6 16c-9 7.3-18.5 10-26.2 12.3a39 39 0 0 0-13.1 5.3 104 104 0 0 1 4.3-8.5l1.5-2.6c4.6-8.3 8.9-16.2 14.2-24 13.5-19.5 38.3-22.7 53.1-22.7 2.5 0 4.7 0 6.5.2 3.2.2 6.4 0 9.4-.2-5.2 3.8-16 12.7-30 24.2zm-80.3 31c-2-.6-7.4-1.4-12.6-2.3-4.7-.7-9.5-1.5-11.5-2C35.3 267.9 20 262 13.1 243l-.4-1c-2.5-7-5.2-14.3-8.8-21 5 4.2 13.4 10.5 16.7 11.9 4.4 2 9.1 3.4 13.7 4.8 3.8 1.1 7.8 2.3 11.6 3.8 12.2 5 19 14.7 26.2 25 2.4 3.4 4.8 7 7.5 10.3l.3.3a21.2 21.2 0 0 0-5-1.8zm9-77.2c2.7-6 13.7-10.7 16.4-11.7 7-2.8 14.6-4 22-5.3a75.1 75.1 0 0 0-14.3 19.3c-5 9.8-9.9 18.2-15 26.3a90 90 0 0 0-3.8 6.6.7.7 0 0 0-.1.3 39 39 0 0 0-3.5 9.2c-1.3-14-2.2-29.1-1.8-44.7zm12.8-17.8c3.5-7 7.4-14.9 11.4-17.6 14-9.7 28.3-12 44.7-14.8l2.7-.4c2.8-.5 5.6-1.5 8.6-2.5 4.2-1.5 8.5-3 12.9-3 1.4 0 3 .1 4.4.5-8 1.7-12.1 8.6-15.9 14.7l-.8 1.3-.5.7c-3.5 1-7.2 2-10.8 3.2a82 82 0 0 0-29.3 17l-1.9.3c-7.5 1.2-15.3 2.5-22.5 5.4-1.6.6-4.4 1.9-7.4 3.5 1.4-2.2 2.8-5.1 4.4-8.3zm30-1.3a81.2 81.2 0 0 1 27.2-15.3c3-1 6-1.9 9.1-2.7a41.6 41.6 0 0 1-16.5 12.6 81 81 0 0 1-19.8 5.4zm53-19.6a30.8 30.8 0 0 0-3.6 4 148.9 148.9 0 0 0-8.2 13.8 46 46 0 0 1-14.3 18.3 137.5 137.5 0 0 1-28.2 14 75.4 75.4 0 0 0-29.7 15.6c4.6-7.4 9-15.1 13.6-24 4-7.8 9.2-14.6 15.4-20.4a89 89 0 0 0 22.4-5.9 42 42 0 0 0 18-14.4l.7-.2c5.9-1.6 12-3.3 18-5.9-.9 1.7-2.5 3.4-4.1 5.1zM34.4 191.2c-3.5-5.7-7.8-12.6-9.7-20.1-1.5-6-1.6-11.8-1.8-18 2 6.6 4.6 11 10.6 16.1 4.6 4 9.9 7.5 14.9 10.7a83 83 0 0 1 21.8 18 35 35 0 0 1 7.9 23c0 1.4-.3 2.9-.6 4.4-.6 2.9-1.1 5.8 0 8.6l.9 1.9c-13-4.3-40.7-39.2-44-44.7zm45.3-9.9a14 14 0 0 1-4.5-8.7 42 42 0 0 0-1.6-6.3l-2.9-7.9c-1.5-4-3-8-4.3-12.2l2.8 2c1.9 1.2 3.7 2.1 5.4 3 4.3 2.2 8.1 4 10.6 9.2l.1.1c-.5 3.5-1 7-1.3 10.4l-.9 12.5a12 12 0 0 0-3.4-2zm-6.6-2.2c-3-.8-5.7-1.6-7.5-2.6A50.7 50.7 0 0 1 48 161.2a71.2 71.2 0 0 1-8-25.4l-.5-3a135.4 135.4 0 0 0-7.6-31.2l3.3 1.3c3 1 5.7 2 7.8 4.2L45 109a49 49 0 0 0 9 22.6 202.2 202.2 0 0 1 2.7 3.5c2.5 3.4 4.9 6.6 7.8 9.4 1.5 5 3.3 9.7 5 14.4l2.9 7.9c.8 2.5 1.2 4.4 1.5 6 .5 2.7 1 4.7 3.2 7.5l-3.9-1.2zm-9.5-37.4a86 86 0 0 1-6-7.4l-2.6-3.6c-4.7-6-7-12.7-8.4-19.8a66 66 0 0 1 17 30.8zm-18.9-45c-.4-4-.8-8.2-1.4-12.2-1-5.5-2-9.8-3.5-13.4-.7-2-1.8-3.6-2.9-5.2l-1.3-2a268 268 0 0 1 28 26.7c10 11.5 15.6 29.2 18.4 41.9.8 4 .4 7.5 0 10.8-.4 3.5-.8 7 .2 10.8-2.1-1.7-4.5-3-7-4.2-1.7-.8-3.4-1.7-5.2-2.8-1.6-1-3-2.2-4.3-3.4l-.1-.3a74 74 0 0 0-19.4-35c-.6-3.9-1-7.8-1.5-11.8zm-24-12c2.7.5 5.9 8 7.4 11.8l.6 1.3c-3.2-3.1-7.9-10.1-8-13zm67.9 39.7-1.1-4.6a93 93 0 0 1-2.2-10.4c-1.3-9.6-2-19.7-2-30.1C83.3 62.8 89 46.2 101 27c2.5-3.8 4.4-7.9 6.2-11.8 2-4.2 4-8.6 6.7-12.5l.2 10.5c0 5.3 0 10.8.5 16.1 1 11.7 1 20.8.1 28.5-1 7.9-3.4 15-6 22.5l-1.3 3.5c-1.6 4.7-4.5 8.9-7.2 13-1.9 2.7-3.8 5.5-5.4 8.5a86 86 0 0 0-5.1 13.1 21.6 21.6 0 0 0-1.1 6zm6.6-1.3a226.3 226.3 0 0 1 38.2-45c12.5-11.9 27.9-21 40.9-27.4a19 19 0 0 0-3 3.1 78.5 78.5 0 0 0-4.7 7.9l-2.3 4A143.5 143.5 0 0 1 131 104a105.9 105.9 0 0 1-25.1 14.3 63 63 0 0 0-11.1 5.8l.5-.9zm5.7 16a82.3 82.3 0 0 1 18.7-17.8 65 65 0 0 1 26.7-11.8l10-1.4 17.8-2.6a64.9 64.9 0 0 0 23.4-9.6c-1.8 2.8-3.2 5.8-4.6 8.8-1.6 3.7-3.3 7.5-5.7 10.7a44 44 0 0 1-20.3 13.2 208.7 208.7 0 0 1-56.3 11.7 34 34 0 0 0-12.3 2 132.8 132.8 0 0 0 2.6-3.2zM205 214.7c-1.8-1.6-12.4 1.3-17 3.7a7.6 7.6 0 0 0-.4.2l-2.3.2c-3 .2-6.2.4-9.3.2-13-.8-44.7-.3-60.9 23.2-5.3 7.8-9.6 15.7-14.3 24l-1.4 2.6c-3.3 6-6.2 11.6-7.4 18.2l-1-5a343.2 343.2 0 0 1-3.6-23 952.8 952.8 0 0 1-.8-6.6 25.2 25.2 0 0 1-.1-1.6 13.8 13.8 0 0 0 0-1.1 31.8 31.8 0 0 1 4.3-16.3c8.6-14 25.8-19.5 35-22.5l3-1c8.5-3 17.3-8 25.6-13.1 6.8-4.2 11-12 14.7-18.9l1.4-2.5c1.9-3.4 4-6.8 6.8-11a30 30 0 0 1 3.4-4c2.2-2.2 4.5-4.6 5.1-7.1a.7.7 0 0 0-1-.8c-6 2.8-12.1 4.5-18.5 6.2l.4-.7c4.2-6.8 8.5-13.8 17.5-14.3a.7.7 0 0 0 .3-1.4c-7.1-3.4-14.1-1-20.9 1.4-3 1-5.7 2-8.4 2.5l-2.6.5c-16.6 2.7-31 5-45.3 14.9-4.3 3-8.3 11-11.8 18.1-2.6 5.2-5 10-6.7 11.2a.7.7 0 0 0-.2.2 22.7 22.7 0 0 0-4.7 4.3l.3-5.8c.7-1.6.8-3.1.2-4.4l1-14.2c.5-5.4 2.3-16.7 2.4-16.9.8-1.5 2.3-3 3.7-4.3.9-.7 1.6-1.4 2.2-2.1l.8-1a.7.7 0 0 0 .2 0c4-4.4 10-4.7 16-5a209.9 209.9 0 0 0 56.8-11.8c7.5-3 15.4-6.5 20.8-13.7 2.5-3.3 4.2-7.2 6-10.9 1.8-4.2 3.7-8.2 6.5-11.5a.7.7 0 0 0 0-1 .7.7 0 0 0-1 0c-7 4.5-16.2 9.9-26 11.3-5.9 1-11.9 1.8-17.7 2.6l-10 1.5a66.2 66.2 0 0 0-27.3 12 83.7 83.7 0 0 0-19 18 181 181 0 0 1-7.1 8.5l-2.1 2.1a39 39 0 0 0-2.3 2.3 166 166 0 0 0 1.7-14V136c.8-2.9 1.7-5.7 2.9-8.4a.7.7 0 0 0 0-.2c2.4-3.1 9.6-6.2 13.5-8l1.5-.6c10.5-4.7 18.3-9.2 23.9-13.8a145 145 0 0 0 33.7-38.6 154.3 154.3 0 0 0 2.3-4c1.5-2.6 3-5.3 4.7-7.8 2.7-3.7 7-6 11-8.2l.7-.3a.7.7 0 0 0-.6-1.3C169 51 148.5 61.8 132.5 77A227.6 227.6 0 0 0 94 122.4c-1.7 2.7-3 5.6-4 8.5v-2.6c0-3.1-.2-5.8 1-9.4a85 85 0 0 1 5-12.8 86 86 0 0 1 5.4-8.5c2.8-4.1 5.6-8.4 7.3-13.2l1.3-3.5a104 104 0 0 0 6-22.8c1-7.9 1-17 0-28.8a209 209 0 0 1-.5-16c0-4.1 0-8.4-.3-12.6a.7.7 0 0 0-1.2-.4c-3.4 4.5-5.7 9.5-8 14.4a104 104 0 0 1-6.1 11.6c-12.4 19.4-18 36.2-18 53 0 10.4.7 20.6 2 30.3.4 3.4 1.3 7 2.2 10.5a62.4 62.4 0 0 1 2.6 15.7c-1.5 6-2.1 12.5-2.7 18.7l-.3 3.8a17 17 0 0 0-1.4-2 .7.7 0 0 0 0-.1c-1.9-4.6-1.4-8.5-.9-12.7.4-3.5.9-7.1 0-11.3-3-13-8.5-30.8-18.8-42.5a285.3 285.3 0 0 0-30.7-29 .7.7 0 0 0-1 .7c.6 2 1.7 3.6 2.8 5.3 1 1.5 2.1 3.1 2.8 4.9 1.4 3.5 2.5 7.7 3.4 13.2l1.5 12c.3 3.2.6 6.5 1.1 9.8l-.5-.5a22.2 22.2 0 0 0-8.3-4.5c-1.6-.6-3.2-1.2-4.7-2l-.5-1-1.1-2.6c-2.2-5.4-5.5-13.4-9.4-12.6a.7.7 0 0 0-.6.5c-.9 4 7 14.6 10.1 16.5l.4.2c4.6 9.9 6.5 21.8 8.2 32.4l.5 3a72.4 72.4 0 0 0 8.2 26c3 5 9 10.1 18.1 15.6 2 1.2 4.8 2 7.8 2.9 4.4 1.2 9 2.5 10.3 5a478.5 478.5 0 0 0-.2 3.9 506.9 506.9 0 0 0-.3 7v1.5c-.8 1.8-1 3.7-.2 5.7v.1c-.1 13.6.7 26.8 2 39-1-2-2.3-3.8-3.3-5.4-1-1.6-1.9-3-2.3-4-.9-2.3-.3-5 .2-7.7.3-1.6.6-3.2.6-4.7.1-8.8-2.5-16.4-8.2-23.9a84 84 0 0 0-22.1-18.2c-5-3.3-10.2-6.6-14.8-10.6-7.7-6.7-9.5-12-11.6-21.6a.7.7 0 0 0-1.4.2l.1 5.8a82 82 0 0 0 1.8 18.8c2 7.7 6.4 14.8 9.9 20.5 4 6.4 33.5 43.4 46.3 45.6l.3.5c1.8 2.9 4.2 6.5 5 10.4l.3 2.7v.2a.7.7 0 0 0 0 .3l1 7.5a673.1 673.1 0 0 0 4.8 29.4c-2-3.6-7.7-9.5-8-10l-2.2-2.6c-2.6-3.3-5.1-6.8-7.5-10.3-7.3-10.4-14.2-20.3-26.8-25.4-3.8-1.5-7.8-2.7-11.7-3.9-4.5-1.3-9.2-2.8-13.6-4.7a124.9 124.9 0 0 1-19.6-14.5.7.7 0 0 0-1 .9c4.7 7.4 7.9 16.1 11 24.5l.3 1c7.1 19.7 23.6 25.7 38.7 29 2 .5 6.7 1.2 11.6 2 5.2.9 10.5 1.7 12.5 2.2 3 .7 5.8 2 8.3 4 3 3.8 6.3 8 8.4 12.3 0 .1 1 2 1.1 2.6a422.6 422.6 0 0 0 5.6 22 .7.7 0 0 0 1.4-.5c-1.8-6-5.2-20.5-5.6-21.8l-1-4.3c.3-3 1-6 1.8-8.7 2-4.5 7.8-6.1 15.1-8.3 7.9-2.2 17.6-5 26.7-12.5l19.7-16c16.2-13.3 28.1-23.1 32-25.5a65.1 65.1 0 0 1 4.4-.2c5.3 0 10.2-.2 12.7-3.7a.7.7 0 0 0 .1-.2 1 1 0 0 0-.3-1.2z" fill="#231F20" fill-rule="evenodd"/></svg>