<svg xmlns="http://www.w3.org/2000/svg" viewBox="0 0 371 432"><path d="M97.6 2.1c-5.8 4.5-7 13.3-4.1 30.5L95.3 45c.3 3 .4 2.9.5-1 .1-2.5-.5-8.6-1.3-13.5C91.8 14.2 93 7.2 99.1 2.7c2.3-1.7 3.1-1.8 6.3-.7 4.5 1.5 10.6 8.3 15.8 17.8 4.3 7.8 6.4 9.4 2.7 2A72.6 72.6 0 0 0 110 3c-4.6-3.3-9-3.6-12.4-.9Zm71.5 10.4c-1.7 2-3.1 4.4-3.1 5.5 0 2.6 1 5 2.1 5 .6 0 .5-.9-.1-2.1-1.4-2.6.3-7.3 3.4-9.4 5.7-4.1 14.8-.2 56.6 24.5 60.2 35.5 81.6 52.7 99.1 79.5 3.3 4.9 5.9 8.4 5.9 7.7 0-2.8-11.9-18.9-20.8-28.3-19.8-20.8-46.1-39-105.1-72.4C186.6 10.9 182.4 9 176.9 9c-4.1 0-5.1.4-7.8 3.5ZM142.8 15c-2.5 1.9-5.4 9.7-4.6 12.1.3.8 1-.9 1.7-3.6 2.2-8.7 6.1-10.6 13.1-6.4 4.7 2.9 28.4 27.3 31.6 32.7 3 5 4.4 5 1.8 0-2.6-5-30.1-32.5-34.9-34.8-5.1-2.5-5.6-2.5-8.7 0Zm-70.2 7.3c-3.7 4.8-6.3 11.2-11.7 28.2-2.6 8.2-7.6 23.4-11.3 33.7a420.9 420.9 0 0 0-21 83.8l-2.1 14.2c-.2 1.6 0 2.8.5 2.8.6 0 1-1.5 1-3.3 0-5.6 3.9-28.5 7.6-45.1 4.1-18.6 8.7-33.9 18.9-63 4-11.6 8.7-25.6 10.4-31.1 3.3-10.6 8.1-20.2 10.8-21.2 2.4-.9 8.8 6.6 11.2 13.2a67.3 67.3 0 0 1 3.8 28 68 68 0 0 1-1.7 12c-1.4 3.7-.4 4.6 1.2.9.7-1.8 1.2-8.3 1.2-17.4.1-16.1-1.1-21.4-6.6-30.3-2.6-4.1-7.4-8.7-9.2-8.7-.3 0-1.6 1.5-3 3.3Zm55.1 13.6A22 22 0 0 0 124 43c-1.3 4.7-3 18.3-2.5 18.9.7.6 1.2-1.6 2.3-10.7 1.9-14.3 5.5-18.8 12.5-15.8 2.8 1.1 4.2 2.6 5.6 5.8a81.4 81.4 0 0 1 5.3 28.2c0 7.2.3 8.6 1.1 6.8 1.6-3.4-.6-21-3.8-31-2.8-8.9-4.6-10.9-10.7-11.8-3-.5-3.8-.2-6.1 2.5ZM155 60.7c0 1 11 8.7 11.5 8.1.3-.2-2.2-2.3-5.5-4.7-3.3-2.3-6-3.8-6-3.4Zm37.7 12.9c-1.6.8-2.6 1.8-2.3 2.1.3.3 1.1.1 1.8-.4 2.6-2.1 7.7-2.5 11-.9 3.5 1.8 4.7 1.6 2.3-.4-2.4-2-9.6-2.2-12.8-.4Zm-19.3 6c-7.6 5.2-9.8 10-9.7 21.4.1 7 .8 10.8 4.1 21.5a215 215 0 0 1 8.3 46.5c.6 6.9 2.6 19.7 4.5 28.5 11.5 55.4 11.1 54 17.2 60.7 11.4 12.7 27.4 7.3 37-12.5 5-10.2 10.4-27 13-40.2 7.3-36 11.5-92 7.8-101-2.5-5.9-7.1-7.6-13.8-5-1.5.6-1.8.1-1.8-2.9 0-4.9-3.6-8.6-8.4-8.6-4.2 0-6.6.8-6.6 2.3 0 .7.4.7 1.2-.1.7-.7 2.9-1.2 4.9-1.2 4.3 0 7.9 3.5 7.9 7.7 0 5.7-10 10.9-16.4 8.5-2.8-1.1-2.9-1-1.4.4 1.8 1.8 7.6 2.1 10.6.5s3-1.6 2.4 3.9c-.4 4.4-.2 5.2 2.6 8 2.3 2.2 4 3 6.6 3 2 0 3.6-.4 3.6-.8 0-.5-1.3-.7-2.8-.4-4 .5-9.2-3.9-9.2-7.9 0-5 2.7-8.9 7.7-11.1 5.3-2.4 9.2-1.3 11.4 3 3.2 6.6 2 34.7-3.2 75.2-4.8 37.2-14.4 67.1-24.9 77.7-7.9 7.9-16.5 9.2-24.5 3.5-5.9-4.1-9-11.2-12.4-28.2-1.6-8-4.3-20.6-6-28a281.7 281.7 0 0 1-6.6-42.5c-2-19.2-3.5-27.2-8.2-41.9-7.5-23.9-2.6-39.9 12.8-41.4 8.8-.8 11.9 4.1 12.9 20.3.4 6.9.8 9.1 1 6 .7-12.9-1.3-22-5.7-25.5-3.8-3-11-2.7-15.9.6Zm-50.4.5c-4.9 2-7 4.9-7 9.8 0 5.4 5.2 19.6 8.7 23.8 2.2 2.5 2.1 2.3-.6-3.2-9.5-18.9-9.4-25.8.2-29.4 6.6-2.5 12.7-.9 18.1 4.7 2.4 2.6 3 4.2 3.6 10.4.8 8.1 2.1 10.9 7.4 15a50.9 50.9 0 0 1 12 24.8c.8 4.1 1.9 14 2.5 22 2.1 27.1 5.3 45 12.8 72.5 6.6 24.3 6.3 33.5-1.3 39.4-3.8 3-9.8 4.3-17.9 3.9-6.2-.3-7.9-.8-15.2-5.1a65.3 65.3 0 0 1-11.8-8.8c-9.1-10.1-22.2-32.8-35.1-60.9-2.1-4.7-6-12-8.6-16.3-2.6-4.3-5-9.2-5.4-11-.3-1.8-1.9-6.1-3.5-9.6-2.1-4.5-2.9-8-2.9-11.8 0-4.9.4-5.9 3.4-8.9 2.8-2.8 4.2-3.4 7.6-3.4 8.1 0 12.7 8.5 8.4 15.8l-1.6 2.7 2.1-2.4c2.6-2.8 2.8-9.6.5-12.9-1.5-2.2-1.5-2.5.3-4.5 3-3.3 3.4-5.5 1.9-9.2a11.5 11.5 0 0 0-9.8-6.5c-3.3 0-8.7 3.6-9.8 6.6-.6 1.4-1 4-.9 5.7.1 2.8.2 2.6 1-1.3 1.1-5.7 4.7-9.4 9.2-9.4 6.6 0 10.8 4.9 9.3 10.8-.7 3-3.5 4-10.2 3.7-4.2-.2-5.6.2-8.2 2.4-5.6 4.7-6.3 13.2-2 21.8 1 2.1 2.8 6.6 3.8 10.1 1.1 3.4 3.8 9.1 6.1 12.7 2.3 3.5 6.4 11.3 9.2 17.4a286.7 286.7 0 0 0 24.7 45.8c10 15.1 12.8 17.8 24.2 23.6 7.1 3.7 8.7 4.1 15.1 4.1 9.5 0 14.5-1.5 18.2-5.5 6.2-6.6 6.9-14.6 2.4-31-9-33.4-12.6-53.3-14.9-82-2.1-26.3-5.3-36.1-14.7-45.7-5.5-5.6-5.7-5.9-6.4-12.7-.9-8.6-2.8-12.3-8.1-16.1-3.3-2.4-5.1-3-9.2-2.9-2.8 0-6.2.5-7.6 1Z"/><path d="M208.1 81.7c-3.1 2.9-5.2 8.3-3.2 8.3.6 0 1.1-1.1 1.1-2.5 0-3.3 4.2-7.5 7.5-7.5 3.9 0 6.5 1.8 8.1 5.5 1.7 4.3.6 7.8-3.3 9.9-1.6.8-2.1 1.5-1.3 1.6 5.1.1 8.1-6.5 5.6-12.3-2.6-6.3-9.4-7.7-14.5-3Zm-55.5 4.5 3.6 4.2c.5.6.8.6.8-.1 0-1.6-4.9-7.3-6.3-7.3-.6 0 .2 1.5 1.9 3.2Zm-52.4 5.3c-3.5 1.5-6 6.1-4.2 7.9.7.7 1 .2 1-1.7 0-2.9 2.6-5.1 7.3-6.2 3.7-1 6.9 1.3 9.5 6.7 1.2 2.4 2.1 3.7 2.2 3 0-2.2-3.9-9.1-5.9-10.2-2.6-1.4-5.9-1.2-9.9.5Zm253.9 12.2a52.6 52.6 0 0 0-16.5 17.2c-4.9 8-8.8 17.7-14.2 35.4-9.4 30.5-17.4 44.9-34.1 61.4-4.1 4-6.9 7.3-6.4 7.3 2 0 19.9-20.3 24.9-28.2A164 164 0 0 0 325 155c7-22.4 13.2-35.2 21.3-43.4 9.8-10 16.4-10.8 21.1-2.6 1.8 2.9 2.2 5.6 2.4 16.2.7 23.8-2.6 51.7-8 68.8-4 12.5-7.9 20-18.4 35.6-11.7 17.4-16.6 27.7-17 36.3-.1 3.6-.1 5.5.2 4.1 2.8-15.9 4.2-18.9 18.2-40.3 6.1-9.3 12.4-20.1 14.1-24.1 7.9-19.1 11-37.1 11.8-68.8.7-24.9-.2-29.3-6.1-32.9-3.8-2.3-6.1-2.4-10.5-.2Zm-263.7 3.7c-2.4 2.4-3.4 4.3-3.3 6.2l.1 2.9 1.2-3.4c1.4-3.9 5.9-8.1 8.7-8.1 9.9 0 14.3 14.5 5.4 18-2 .9-2 .9.1.9 3.4.1 5.9-3.5 5.9-8.6 0-3.9-.5-4.9-3.7-7.9-5.2-4.7-9.7-4.7-14.4 0Z"/><path d="M348.4 124.2c.3 5.1 1 7.8 3 11.3 2.7 4.5 10.4 11.1 11.5 9.9.3-.4 0-.9-.7-1.2-2.8-.9-8.4-6.6-10.3-10.5a39.3 39.3 0 0 1-2.9-10.1l-.9-6.1.3 6.7Zm-84.3-1.9c-.2 1.7 6 9.6 9.6 12.5 4.3 3.3 12.3 7.6 13 6.9.2-.3-2.3-2-5.6-3.7a46.3 46.3 0 0 1-15.3-14c-.9-1.4-1.7-2.1-1.7-1.7Zm7 20.6a12.6 12.6 0 0 0-2.7 5.7c-.6 3.1 0 4.9 4.2 13.1 4.5 8.6 4.9 10 4.9 16.1-.1 5.5-.7 8.1-3.7 14.7-2 4.4-4.1 10.5-4.7 13.5-2.6 12.9-3.8 14.9-15.5 27-29 30-44.6 55.8-50.1 82.8-.9 4.6-1.4 8.6-1.2 8.9.3.2 1-2.2 1.7-5.4a153.8 153.8 0 0 1 31.8-64.7c3.1-3.9 11.1-12.8 17.8-19.7 12.8-13.3 13.8-15 16.5-27.9.6-3 2.7-9.1 4.7-13.5 3.3-7.1 3.7-8.9 3.7-16 0-7.7-.2-8.4-4.2-15.1-5.4-8.8-5.9-15-1.7-18.9 1.5-1.4 2.2-2.5 1.5-2.5-.6 0-2 .9-3 1.9Zm18.4 39.1-6 .7 6 .1a21 21 0 0 0 7.5-.8c1.7-1.1 2.5-1.1-7.5 0ZM8.4 190.1a10.2 10.2 0 0 0-6.5 14.7c.6 1.2 5.4 5.5 10.6 9.7a107.3 107.3 0 0 1 25.7 29.8c4.2 7.1 25.7 50.1 30.4 60.6 1.3 3 2.7 5.2 3 4.8.3-.3-6.2-14.4-14.5-31.3-20.1-40.9-28-52.5-44.8-65.7a64.6 64.6 0 0 1-8.7-7.9c-2.2-3.1-2-8.4.3-10.7 6.1-6.1 25-5.3 40.5 1.8 14.4 6.5 26.3 16.8 46.6 40.2 20.5 23.5 25.2 27.1 48.9 36.8a101 101 0 0 1 36.5 23.1 73 73 0 0 1 20.2 42.2c2.6 14.9 1.6 30.3-3.5 52.8-4.5 19.7-6 33.3-4.3 39 .9 3 1 2.6.5-3-.7-8.1.8-18.2 5.5-37.5a99.7 99.7 0 0 0 3.7-33c0-19.1-1.1-25.9-6.1-38.7a80.1 80.1 0 0 0-27.9-33.8c-4.7-3.3-17.6-9.6-31.3-15.3-17.2-7.3-21.2-10.5-43.3-35.7a382.5 382.5 0 0 0-18.6-20.1 91.9 91.9 0 0 0-38.5-22.4 67.2 67.2 0 0 0-24.4-.4Z"/><path d="M26 200.7c0 .5 2 2.4 4.5 4.2 5 3.6 9.5 9 9.5 11.4 0 2.9-3 4.7-7.8 4.7-3.8.1-4.4.3-2.9 1.1 2.3 1.4 7.5.4 9.9-1.8 4-3.6 1.4-8.9-8.3-16.5-2.7-2.2-4.9-3.6-4.9-3.1Zm250.8 7.6c-3.2.6-5.8 1.4-5.8 2 0 .5.7.7 1.5.3.8-.3 3.7-.8 6.5-1.2 2.8-.4 5.3-1.1 5.6-1.5.6-1 .1-1-7.8.4ZM15.2 228.2c-4.1 13.3-1 29.8 8.6 46.1 1.9 3.3 7.3 10.8 12 16.6L51.3 310c13.4 16.6 39.1 57 46.8 73.5 6.3 13.7 7.5 24.6 3.4 32.5-.9 1.7-1.4 3.4-1.1 3.7 1.3 1.3 4.6-9.2 4.6-14.5 0-10.8-3.3-19.4-15.1-39.3a471.3 471.3 0 0 0-45.5-66.4c-15.9-18.5-24.6-32.6-27.9-45a63 63 0 0 1-.4-24.8c1.3-4.8.5-6.1-.9-1.5Zm335.6-.5c-3.3 3.8-7 12.9-10.8 26.6-5 18.2-5.5 19.4-16.2 37.1a185.6 185.6 0 0 0-28.8 84.1c-1.3 14-1.3 19.8 0 19 .6-.3 1-4.9 1-10.3 0-29.8 11.1-64.6 29.7-93.5a113 113 0 0 0 15.3-35.1 90.6 90.6 0 0 1 10-26.4c2.4-3.5 2.2-4.3-.2-1.5ZM60 250.6c-2.4.8-6 1.1-8 .8-2.6-.4-3.1-.3-2 .5 2.3 1.6 8.1 1.2 12.5-.8 4.7-2.3 3.8-2.5-2.5-.5Zm72.7 30.6a37 37 0 0 1 11.2 17.9c1.7 5.3 2 5.7 1.6 2.4-.7-6-5.9-15.7-11-20.4a20.9 20.9 0 0 0-5.5-4.1c-.5 0 1.1 1.9 3.7 4.2Z"/></svg>