<svg xmlns="http://www.w3.org/2000/svg" viewBox="0 0 2370 2028"><g fill-rule="evenodd"><path d="M622.9 458c1.5-2.7-8.7-14.7-10.4-17.6-5-8.3-9.2-17-13.3-25.6-8-16.6-16-33-24.8-49.2-17.8-32.6-39.2-62.4-60.8-92.5a873.6 873.6 0 0 0-33.7-44.6c-11.5-14-25-27-35-42.2-8-11.7-15.9-30.2 5.2-29.2 18.4.8 36.8 8.7 55 12.1 18.8 3.6 38 5.4 56.5 10.4 18.3 5 35.6 12.4 52.8 20.2 33.8 15.3 68 30.5 100.2 49 54.3 31.4 101.8 74.1 134 128.3 20.5 34.5 35.8 72 46.1 110.7 3 11.3 33.1 141 33.1 141s1-57.4 2.3-66.6a651.6 651.6 0 0 1 9.4-55c7.9-36.2 17.8-72.5 27.6-108.3 9.5-34.6 30.6-63.7 46.4-95.5 13.4-26.7 26.2-65.1 58-74.7 18-5.5 32.5 2.5 47.3 12.1 15.1 9.8 29.6 15.9 46.9 20.4 31.9 8.2 67.8 13.9 88.7 42a251 251 0 0 1 43.9 90.9c2.2 9 2.5 13.2-3 21-5.5 7.6-11.2 15.2-16.6 22.9a435 435 0 0 0-27.7 44.6 374.4 374.4 0 0 0-39.7 108.6c-4 21.5-5.2 43.4-5.1 65.3 0 18.3 7.6 68 12.6 84.9-11.7-70.4 11.3-169.6 37.7-236.2A453.7 453.7 0 0 1 1364 343.9a455 455 0 0 1 75.3-59c29.2-18.2 57.1-37.8 89.1-51 16-6.6 32.1-12.7 48.3-18.6 16.4-6 33.5-12.4 51.1-12.4 37-.1 42.4 34 48.6 63.5 7.5 35.2 13.4 71.3 18 107 5 36.9 6.7 74.1 11.5 111 2.4 18.5 7.1 36.4 8.7 55a603 603 0 0 1 1.9 56.5c-.3 36.9-.4 74.3-6.2 110.8-5.5 35.1-17.8 67.6-27.4 101.5-4.6 16.6-8.5 32.9-15.8 48.5-7.7 16.5-15 33.2-23.2 49.4-7.6 15.2-18.5 27.7-28.6 41.2a362.4 362.4 0 0 1-33.5 40.7 245.2 245.2 0 0 1-37 30c-15.6 10.4 16 11.3 23 12 70.3 7.7 139-2.1 202.7-33.2 30.6-15 56.5-36.6 84.5-55.6 27.5-18.8 49-43.5 68.7-70.2a1147.8 1147.8 0 0 0 109.7-182.3c32.8-67.8 64.9-136 99.3-203C2164.4 424 2211 373 2255 320c10.9-13.1 23.2-25 33.6-38.5 5.3-6.7 20.3-24.5 6.2-28.4-34.4-9.6-73.7 8.5-105.4 19.6-65.3 22.9-131.4 48.1-188 88.7-56.7 40.5-97.8 97.8-137 154.6-19.7 28.7-37.4 58-54.4 88.3-17 30.4-32.3 62.1-52 90.8-4.8 6.8-9.7 13.5-15 19.9-3.4 3.8-14.4 16.7-17.4 15.6-3.9-1.5-1.7-7 .3-11a303 303 0 0 1 15-24.7c18.7-28.6 28.9-61 37.6-93.8 18.6-70.3 26.2-143.2 34-215.4 4.2-37.8 3.8-76 8.5-113.7 4.5-36.6 14-72.7 21.5-108.8 7.2-34.2 15.4-68 24.2-101.8-15 4.3-28.5 23-38.9 33.8a836 836 0 0 0-39.3 44.2c-25.8 31-51.2 62.4-75.9 94.3-5.4 7-10.3 15.1-16.5 21.5-10 10.2-8-2.8-5.8-9.9a212 212 0 0 1 25.4-48.8 678 678 0 0 1 73.3-91.8c15-16.3 30.7-31.8 46.8-47l24.9-23.3c5.8-5.6 18.2-15.6 17.7-24.5-9-.5-21.3 10.6-28.5 15.3-10.4 7-20.6 14.4-31 21.4a302.6 302.6 0 0 1-57.6 30.7c-45 17.8-92.4 29.4-137.3 47.5-41.2 16.7-81.3 39-112.7 70.9a313 313 0 0 0-20.7 23.4c-2.9 3.6-13.3 22.3-16.3 11.5-2-7 5.9-20.5 8.8-26.7 4.8-10.3 10.6-20 17.7-28.8 6.6-8.2 13.9-16.1 21.2-23.7 6.5-6.6 17.2-11.7 8.8-20a338 338 0 0 0-54.4-41.4 895.6 895.6 0 0 0-59.3-35.5c-10.2-5.6-19-12.8-28.2-19.8-3.4-2.7-7.5-7-12.2-5.9-5.4 1.3-10.6 8.9-14.5 12.5-33.4 30.5-73.7 48.7-112.5 70.9a278 278 0 0 0-55.4 40c-6.7 6.3-13.6 12.3-13.3 22.4.4 11.6 5.6 24.3 8.3 35.6 2.3 9.7 7.8 22.2 7.7 32.1-.1 14.4-9.5-.4-12.3-5.4-11-19.8-17.8-42.6-26.7-63.4-18.6-43.6-38.5-87.4-64.5-127.1a332 332 0 0 0-19.5-27.6c-5.2-6.4-12.7-16.7-19.5-8.3-12.8 15.6-13.9 45.6-15.2 64.7-3.2 48.5 1.7 97.2-7.3 145.2-2.1 11-4.1 22.3-7.5 33.1-3.4 11-9.4 20-15 30a399 399 0 0 0-28.4 63.2c-3.8 10.6-7.2 21.4-10.9 32-2.2 6.3-6.2 27-13 29-4.8 1.5-21.9-13-26-15.5a356 356 0 0 0-62.2-29.4c-4.5-1.6-29.3-5.9-30.3-10.5-1.1-5.5 22.5 1.7 25.5 2.7 11.5 3.5 22.7 7.8 33.7 12.7a320.9 320.9 0 0 1 28.5 14.4 334 334 0 0 1 13.8 8.3c3.5 2.3 9.3 8.1 13.4 8.9 6.4 1.2 7.3-10 9.1-15.5 4-11.5 7.3-23.1 11.3-34.6 7.7-22.3 17-44 28.2-64.8 5.2-9.6 12.6-18.8 16.5-29 4-10.4 5.3-22.5 7.1-33.5 8.1-49.8 3.8-99.8 7-150 1.4-20.7 4-49 17-66.3 14-18.6 35.3 16.7 42.5 27 26.9 38.9 47.9 82.5 66.4 125.9l13 31c3.1 7.9 12.3 35.5 18.8 45.9-2-9.3-8.8-34.4-11.3-43.5-2.5-9.4-5-17.9-1.2-27.3 6.6-16.3 25.8-29.2 39.6-39.1 34-24.3 73.1-39.8 107.7-63.1 16-10.8 29-24.6 44.2-36 7.2-5.4 11.4-5 18.6.3 8.5 6.1 16.7 12.4 25.6 17.9 35.7 21.8 73.2 41 105.6 67.8 5.7 4.8 20.3 14 22.4 21.8 2.2 8.2-13.3 18.9-18.2 24.2a290.7 290.7 0 0 0-44.9 67.2c6.4-8.6 20.6-26.4 25-31a292 292 0 0 1 28.3-25.3 308.3 308.3 0 0 1 62.8-37.4c48.2-23.2 99.5-37.7 149.8-55.4 24.1-8.4 45-18.6 66.5-32.6 10.9-7.1 21.6-14.4 32.2-21.8 9.2-6.4 20.8-16.4 32-18.8 14-3 10.6 10.7 5.6 18.4-6.2 9.8-15.8 17.6-24.3 25.5-19.2 18-38.2 36.1-56.4 55.2-39 41-83 95.4-106.4 147.4 8.5-10.6 26-33.8 30.4-39.5l29.5-37c19.7-24.3 39.5-48.8 60.8-71.8 9.4-10.2 19.2-20 29.4-29.4 3.8-3.5 25.8-25.4 29-14 1.3 4.7-2.8 14-3.9 18.6l-5 21.4a2512.8 2512.8 0 0 0-10.9 47c-7 31.4-13.4 63-19.9 94.4-6.2 30.9-7.6 61-9.4 92.4-3.6 63.2-11.9 127-22 189.4-5.4 33.6-13 66.8-22.4 99.5-4.6 15.6-8.9 31.6-15.9 46.2-6.8 14.2-26.4 42.6-34.5 56 16.6-12.3 45.9-67.5 52.4-80.7 12.7-25.3 27.8-49.7 42.1-74.2 29-49.3 62.1-96 98.7-139.8a406.7 406.7 0 0 1 123.6-101.9c51.5-27.4 106.6-47 161.4-66.5 26.8-9.6 55-17.6 83.7-13.7 11.8 1.6 19 4.4 15.6 18-3.2 12.5-14.7 24.4-23.1 33.6-19.8 21.5-37.4 44.6-56.1 67-18.3 21.7-37.4 42.7-53.6 66-33.6 48-57.1 102.2-82.7 154.7-26.4 54-50.6 109.5-79.5 162.2a1135 1135 0 0 1-92.5 141c-16 21-34.6 40-56.1 55.4-21.3 15.4-42.6 31.8-65.1 45.3a352.2 352.2 0 0 1-157.8 49.5c-28.9 1.9-58.8.9-87.5-3.4-7.1-1.1-26.8-2.8-21.2-14.2 1.8-3.9 8.7-7 11.9-9.3 6.1-4.4 12.2-8.7 18-13.5 21.2-17.4 37.5-38.9 54-60.6 8.3-11.2 16.8-21.9 23.1-34.5 6.5-13 11.8-26.5 18.4-39.3 13-25.3 18.3-52.7 27.4-79.4a472.4 472.4 0 0 0 21-85.3c4.3-29.7 4.5-59.7 5.2-89.6.6-30.4.2-60.8-4.1-90.9-2-14-5.9-27.8-7.2-42-1.5-15.6-2.6-31.2-4.1-46.9-3-30.5-6.5-60.7-11.8-90.9-5.2-30-9.5-60.3-16.6-90-5.9-24.4-14.7-41.9-43-40.2-27.8 1.6-57 16-82.6 26.4-17.3 7-33.8 14.7-50 24-77.6 45.3-150.5 101.8-196.5 180.6-29.3 50.3-46 109.6-59.5 166a410 410 0 0 0-11.4 82.1c-.6 14.1-1.6 29.6-.8 43.3.4 4.9 1.4 15-.5 19.6-3.3 8-7.2-6.9-8.3-10-18.4-52.3-16.7-112.2-4.6-165 11.8-51.2 35.9-98.6 65.6-141.5 5.6-8 13.8-16 17.4-25.2 3.4-8.5-1-18.5-3.5-26.7-8-26-21.5-51-37.6-72.9-15.8-21.4-37.4-28.7-62-35.3-26.3-7-50.7-13-73.8-27.9-10.8-7-21.6-14.2-35-13a46 46 0 0 0-30.8 18.8c-17.2 21.1-26.4 48.4-39.3 72.2-13.1 24.3-28.2 46.8-36.1 73.6-8.3 28.3-14.9 57.3-22.3 85.8-7.6 28.8-11.2 58-15 87.6-1.8 14-1.6 26.6-2 41.2-.3 5.6-.6 17.4-2.2 22.6-2.4 7.6-5.7 4-8.1-1.6-11.2-25.5-16.4-55.3-22.4-82.3-6.2-28.1-11.7-56.4-20.4-84a378.8 378.8 0 0 0-75.9-137.1c-36.4-41.4-83.6-71.5-132.8-95.8A1222.2 1222.2 0 0 0 594 198a336.2 336.2 0 0 0-82.4-20.6c-13.6-2-26.5-6.2-39.7-10-6.3-1.7-26.5-8.8-29.3-.9-2.5 7.2 11.5 22.6 15.5 27.4 9.8 11.6 20 22.8 29.4 34.7 35.5 44.9 69.7 91.8 96.4 142.5 12.8 24.3 22.8 50.5 37.3 73.8 4.2 6.7 22.2 24.7 3.3 19.8-14.4-3.7-28.4-9.2-42.9-13-28.9-7.7-58.3-13.4-87.7-18.8-14-2.5-28-4.8-41.8-7.8-11-2.5-27.8-3.6-36.3-12.1-7.6-7.6-10.3-22.8-13.9-32.8-4.2-12-7.8-28.6-4-41.1 3.1-10 12.2-14.2 21.3-17.9 13.6-5.5 27.9-9.2 42.4-11.6 14.2-2.4 28.7-3.8 43.1-4.8 3.4-.2 31.6-3.5 23.2 4.6-1.7 1.6-12.2.4-14 .5-7.3.5-14.5 1-21.7 1.7a343 343 0 0 0-47.2 7.1c-11 2.7-25.8 6.7-35.1 13.5-10 7.3-7.8 21.7-6 32.3 2 13.2 7.6 27.3 12.8 39.5 5.4 12.6 22.2 12.3 34.3 14.8 29 6 58.5 10.5 87.5 16.6 14 3 28.1 6.2 42 9.9 14.2 3.8 28 9.4 42.3 12.7"/><path d="M8 1023.7c17.1 5.9 37.2 4.3 55 8.3 19.3 4.4 38 11.2 55.9 19.8 38.4 18.3 75.5 40.8 112.2 62.4 37.5 22 74.3 44 113.6 62.7 38 18 76 36 115 51.6a1229 1229 0 0 0 120.7 41.5c40.6 11.6 81.8 21.5 124.3 20.5 42.1-1 85-7.2 125-21 37.5-12.9 72-35.9 104.4-58.4 17.1-12 32.2-25.2 47.4-39.5 6.6-6.2 13.7-11.4 21.1-16.7 3.7-2.6 7.3-5.3 11-7.8 2.3-1.6 12.2-6.1 13-8.7 1.3-4.5-15.8-2.7-19.5-2.8-11.5-.4-23-1.4-34.3-2.7a663.7 663.7 0 0 1-63.6-11.2c-41.8-9.1-81.9-24.8-123.3-35.5a1546.4 1546.4 0 0 1-122-35.5c-81.9-28.5-162.3-62.7-249.8-69.5-86.8-6.7-175 8.2-260.4 22.7-10.5 1.8-21.2 3.4-31.7 5.7-10.2 2.3-20 6.3-30.3 8.2-2.6.5-17.2 3.8-12.4-2.7 1.4-2 7.9-2 10-2.5 5.8-1.3 11.3-3 17-4.8 41-12.7 85.7-17.3 128-23.3 84.4-11.8 168.2-17.4 252 .7 86.1 18.7 166.8 57.7 251.5 81.5 40.4 11.4 80.9 21 120.9 34 40.3 13 81.8 22.5 124.1 26.3a466.2 466.2 0 0 0 29.3 1.8c5.8.2 21.5-1.6 25.9 3.2 6.1 6.7-7.8 12.2-12.2 15-8.5 5.3-16.8 11-24.8 17-16.4 12.3-29.6 28-46 40.3-16.8 12.8-35 24.2-53 35.4-17.5 10.9-35 22.4-54 30.4a317.5 317.5 0 0 1-56.8 17 395 395 0 0 1-128.6 8c-42-5.2-83.2-17.8-123.4-30.8-41-13.3-81.3-28.7-120.7-46a1845.4 1845.4 0 0 1-114.3-54.8c-38.2-20-74.3-43.3-111.7-64.6-35.6-20.2-71.8-42.7-111-55.1a285.4 285.4 0 0 0-60.2-11.1c-5.5-.5-19.3-.5-20.9-7.4-2-9 15.4-13.8 21.3-16 40.9-15.8 82.6-29.2 123.5-44.8 40-15.3 80.9-28 122.6-37.4a484 484 0 0 1 63.3-10.5c21.7-2 43.3-.5 65-.8 43.6-.5 85.3 2.6 127.7 13.7 84.3 22 164.3 59 247.5 84.8a1040.7 1040.7 0 0 0 90.8 24.1c7.7 1.8 33.5 7.9 45.5 10.9-34.2-11-74-34.9-102-55a709.6 709.6 0 0 1-75.3-63 1746 1746 0 0 1-138.6-149.9c-43.7-52.9-80.5-110.7-118.3-167.7-19.1-28.8-38.6-57.3-57.6-86.1-9.5-14.4-19-28.9-28.2-43.4a1691.6 1691.6 0 0 1-13.6-22c-4.6-7.5-11.8-16-14-24.6-7.7-29 60.3-15.8 73.1-13.1 33.1 6.9 65 17.9 98.4 24.1 33 6.2 66 13 97.8 24.3 32.2 11.4 62.5 28 93.8 41.5 59.4 26 119.1 53.2 167.6 97.2a360.3 360.3 0 0 1 33.5 33.8c10.5 12.4 18 26.8 27 40.3 9 13.7 17.7 27.7 26.5 41.6 1.4 2.2 11.2 13.4 6.1 15.7-4.5 2.2-11.2-13-13-16-17.5-26.8-33.4-56-54.3-80.4a349 349 0 0 0-68.5-61.1c-56.3-38.3-122-61.4-183-90.6-61.2-29.1-127.7-37-192.7-53.7-16.4-4.2-32.7-9.6-49.4-12.6-14.5-2.6-37-7-51-.7-14.4 6.5 1.7 22.9 6.9 31.3 9.8 15.8 19.8 31.5 30 47.1 37.7 57.7 76.2 115 114.7 172a1269.3 1269.3 0 0 0 126 160.5C695.6 888 740.7 938 794.7 979a455.6 455.6 0 0 0 81.3 49.2c13 6.1 27.1 12.8 39.5 20 4.4 2.6 7.8 4.2 5.5 8-2.6 4-23.3-2.4-29.8-3.8-67.7-15-134.5-34-199.7-57.7-63.3-23-126.6-50.8-193-64.2a466.8 466.8 0 0 0-99-8c-35.6.4-70.3 0-105.6 6.3-67.3 12-131.3 36.8-195.5 59.5-16 5.7-32.1 11.4-48 17.3-12.7 4.7-32.7 8.3-42.4 18m1533.7 19.7c1.7-3.7 17.7 5.6 26.3 8.3 11.4 3.5 23 5.8 34.7 8a187 187 0 0 0 70.4-1.7c44.7-8.2 85.4-29.5 126.8-47.7 41.5-18.3 80-42 121-61.6s82.4-37 126.6-48a920 920 0 0 1 68.5-14.2c24-4.1 46.4-.9 70.2 2.4 21.8 3 43 6.9 63 16 19 8.7 35.5 21.2 51.2 34.8 15 13 29.2 27.1 41.4 42.8 6.2 8 12.2 16.3 17.1 25.2 3.5 6.3 12.6 20.1 10.5 27.4-1.9 6.7-16 8.3-21.4 10a1137 1137 0 0 0-34.9 12c-22.5 8.1-45 16-67.8 23.1-90.2 28-180.9 53.4-276 55.8a798 798 0 0 1-139.7-9.4c-23.4-3.6-46.6-9-70-12a415 415 0 0 0-69.4-2.7 693.1 693.1 0 0 0-136 19.7c-22.5 5.5-42.9 11-65.4 16.6-13.6 3.4-29 3.9-29 3.9 4.8 3.6 18.5 10.5 22 12.8 5.2 3.5 10.3 6.9 15.5 10.2 19.1 12.4 38.9 22.8 59 33.5 18.7 10 34.3 25 52.2 36.4 35.7 22.8 75.4 35.2 115.2 48.5 44.7 14.8 88.3 10.2 133.8 2.4 45-7.7 89.9-17.3 130.6-38.6 39.3-20.6 72.1-49.5 109-73.7 38.9-25.5 80-48 116.8-76.5 7-5.5 15-12.7 23.4-16 2.7-1 6.7-2.9 7.4 1 .5 2.7-8.1 7-9.9 8.3a1784.8 1784.8 0 0 1-58.5 40.6c-38.2 25.3-78 47.8-114.2 76.1-34.5 27-72.2 50.9-114 64.7a665.4 665.4 0 0 1-131 27 229.5 229.5 0 0 1-64.7-1.5c-22.3-3.8-43-12.1-64.3-19.3-21.3-7-42.6-14.2-62.4-24.9-18.9-10.2-35.7-23.4-53-35.8-18.1-12.9-38.2-21.8-57.2-33-19.3-11.5-37.6-24.4-56.4-36.6-8-5.2-13-9.6-.7-11 11.8-1.3 23.4-3.3 35-6 22.6-5.2 44.7-12 67.3-17.3a691.1 691.1 0 0 1 135.9-18.2c46.7-1.5 91.6 8.3 137.6 15.1a751.2 751.2 0 0 0 282.5-10.6 1930.1 1930.1 0 0 0 201-60.8c10.7-3.8 21.5-7.5 32.3-10.7 11.4-3.4 14.8-3.7 9.5-15.4-16.9-37-48-68.5-80.2-93-34.3-26.1-73.2-32.1-114.7-38-45.2-6.5-94.6 8.3-137.7 21-43.8 12.8-82.8 33.6-124.4 51.7-21 9.2-39.8 22-60.1 32.5a872.4 872.4 0 0 1-59.9 27.5c-20 8.5-39.5 18.7-59.8 26.3a310.1 310.1 0 0 1-63.8 15.6 183.4 183.4 0 0 1-64.9-2.5c-9.9-2-19.8-4.3-29.3-7.5-7.3-2.5-24.5-9.9-23-13"/><path d="M1940.5 1501c33.1 2.7 67.4 3.3 100.5.5 17.4-1.5 34.6-4.6 51.9-6.5l21.1-2.4c4-.4 17.3.8 15.3-5.5-1.4-4.3-14.4-10.8-18.1-13.5a2101.1 2101.1 0 0 1-17-12.4 1701.8 1701.8 0 0 1-43.3-33.1c-25.7-20.3-49.9-42.5-75.9-62.3-23.7-18-48.9-33-76-45-6.2-2.8-14.5-5.6-19.6-10.2-5-4.5-3.8-5.8 2.6-4.4 7 1.5 14.4 6.8 20.9 9.8 8 3.6 16 7.1 23.9 11.2 29.3 15 54.4 35 79.4 56 25.5 21.6 52.1 41.7 78.2 62.5 11.7 9.4 24 17.8 36 26.6 7.5 5.4 30.6 20.6 10.8 24.3-16 3-32.5 3.8-48.7 6-17.3 2.2-34.3 4.9-51.8 5.9-69.6 4-141-1-210.3-6.2a672.8 672.8 0 0 1-103.6-13.4 637.7 637.7 0 0 1-91-31.3 245.5 245.5 0 0 1-72.4-43.5c-22.4-19.8-39.8-44-56.6-68.5-33.3-48.5-73.2-113-64.5-174.7.7-5 2.4-13.6 7.8-15.8 6.1-2.4 12.9 5.9 16.7 9.5 11.9 11.1 23.4 22.5 35.7 33.2a749 749 0 0 0 78.2 58.8c28.2 18.8 55.5 38.2 85.4 54.5 29.9 16.3 60.6 31 91.2 46a974.3 974.3 0 0 0 181.5 67.8 1483 1483 0 0 1 95.8 28c15 5 30 10 45.1 14.6 4.5 1.4 46.3 11 42.7 16.3-3.2 4.7-32.4-6.5-36.9-7.8-17.7-5-35.2-10.8-52.7-16.8a1127.6 1127.6 0 0 0-93.2-27.6c-66-16.6-127.3-40.8-188.7-70a1287 1287 0 0 1-170-96 871.9 871.9 0 0 1-77.5-58.2 722.1 722.1 0 0 1-36.1-33.3c-2.1-2-9.6-11.7-13.2-11.6-6 0-5.5 12.6-5.7 16.8-2.8 60.8 34.8 122.5 69 170 16.6 23.3 34.7 47.4 56.5 66 23.4 19.8 52.3 30.9 80.2 42.6a424.2 424.2 0 0 0 94.8 28.3c33.8 5.6 68 8.6 102.2 11a1758.5 1758.5 0 0 0 99.4 3.9M1291.2 1240l-1.2-24.2c-.2-4-3-15.3-.2-18.4 4.8-5.4 4.8 6.7 5 8.6.7 8.5 1.4 17 1.8 25.4 1.3 33-1.4 66-6.1 98.7a1129 1129 0 0 1-18.5 94.2c-3.3 14-6 28.3-11.5 41.6a225 225 0 0 1-23 40.1c-33 48.7-69 95.7-112.5 135.4a767.5 767.5 0 0 1-69.7 56.1c-24.2 17.4-47.7 35.2-74.4 48.5a380.3 380.3 0 0 1-82.9 30.5c-30.2 7.1-61 6.3-91.7 8.8-30.5 2.5-65.1 11.1-95.3 2.4-11.8-3.5-10.4-15.9-11.5-26.6-1.6-14.7-5-29.2-10.4-43-5-12.8-12.2-24.6-17.3-37.4-5.6-14-9.7-28.6-13.1-43.3-3.3-14-7-28.4-7.3-43a667 667 0 0 1 1.4-47.1c.8-14.4 1.2-29.6 6.5-43.1a142 142 0 0 1 21.3-34.1c18.2-23.3 42.2-41.2 65.6-59a1017.9 1017.9 0 0 1 154.6-94.2c26.7-13.6 55-24.6 81.2-39a279.8 279.8 0 0 0 63.2-48.6 214 214 0 0 0 26-30c3.2-4.7 6.1-9.8 8.4-15.2 2.2-5 2.6-15.7 6-19.5 6.7-7.4 5.3 5.2 4.4 9a84.2 84.2 0 0 1-6.4 17.1c-6.5 13-16.1 24.7-26 35.4a299.8 299.8 0 0 1-65.4 53.2c-25.5 15.4-53.7 25.5-80.2 39-55 27.8-108.4 58.3-157.8 95-23.7 17.7-49 36-67.4 59.4-7.7 9.9-15.9 20.5-20.7 32.3-5.6 13.9-6 29.5-6.7 44.3-.6 14-1.2 28-1.2 42 0 16.8 4.6 32.5 8.1 48.6 6.4 29.1 21.2 53.3 30.7 81.1a186.3 186.3 0 0 1 9 38.9c.9 8.1-1.4 19 7.9 21.8 12.2 3.6 27.8 2.5 40.3 2.2 17-.5 33.5-3.9 50.3-5.4 30.5-2.8 60.4-1 90.6-7.8a357.7 357.7 0 0 0 82.5-29.7c26.4-13.3 50-30.6 73.6-48.2 24.3-18 48.7-36.2 71-56.8 42.5-39.3 81-86.9 112.3-135.6 32.8-51.2 41.5-114 50-173.1 4.3-29 7.9-57.9 6.7-87.3m270.5-385c-.3 33-.6 66-9.1 98.3-8.2 30.7-22 58.8-36 87-12.8 26-23 51.5-46.7 69.9-23.7 18.4-48.4 38.5-76.1 50.3-61.2 26-127 17.7-191.4 13.1a404.3 404.3 0 0 1-94-16.4c-29-9.2-61-22.3-85.7-40.5-11.2-8.3-21.1-18-31.6-27.2-11-9.6-22.2-18.6-30.8-30.7-17.3-24.4-24-56.4-31.1-85a3237.1 3237.1 0 0 1-22.2-96.6c-5.8-27.1-17.8-63.5-3.5-89.8 13.9-25.5 48.6-31 74.5-33 33.9-2.7 67.8-3.5 101.6-6.6 32-3 69-6.8 99.6 5.6 13.2 5.4 24.7 12 39.3 13.7 15.4 1.9 30.5-.8 45.2-5.2 34.8-10.3 69.4-23 102.1-38.6 16-7.6 30.9-15 48.8-16.9 17-1.8 33.7.5 50.3 3.5 15.5 2.8 29.6 6.3 42.7 15.4a182.3 182.3 0 0 1 37 35c20.6 25.8 16.8 63.7 17.1 94.6zm-6-2c-.6-27.1 2.8-58.3-11.5-82.7-7.1-12-18.6-21.7-28.8-31a85.5 85.5 0 0 0-36.7-20.7c-28.8-7.2-61.3-11.1-89.5.3-14 5.6-27.3 13.3-41.2 19.2-15.8 6.7-32 12.7-48.1 18.3-28 9.9-57.1 21.4-87.3 16-14.3-2.5-25.6-10-39-14.6a162.7 162.7 0 0 0-49.7-6.5c-33.4-.3-66.7 4.4-100 6.5-29.6 1.8-63.4-1.3-90.8 12-10.8 5.3-22 12.5-26.6 24.2-5.7 14.6-3.7 31.5-1 46.5 5.7 32.3 13 64.2 20.7 96 7.4 30.4 13.7 61.6 24.7 91 10.4 28 29.6 44 51 63.6 44 40.5 101.3 63 160.2 72.3 30.7 4.9 62.2 5.3 93.2 7.5 32.1 2.2 64.1 3.8 95.8-3.3 34.7-7.8 62.8-23.1 91.1-44.3 13.4-10 28.1-19.5 39.2-32.1a147.7 147.7 0 0 0 22.3-37.5c15-32.7 32.5-63.7 42.2-98.6 9.3-33.5 9.5-67.6 9.7-102.1zM1333.8 1571c2.8 55.3-.6 111.1-.1 166.5.5 57.8 4.4 115.7 2.5 173.4-.9 27.9-3 55.7-5.4 83.4-.6 6.7-.5 13.3-1 19.9 0 2-1.1 9-3.1 9-3.7 0-2.4-22.1-2.3-25.1 3.4-56.5 6.7-112 4.8-168.6-2-56.7-3-113.5-2.2-170.3.8-56.5-1.3-113 0-169.5 1.2-57 3-114 4.8-171 .9-28.5 1.7-57 3-85.5.7-14 1.5-27.8 2.4-41.7.6-9.6 6-8.2 5.7.6-2.4 63.7-4.8 127.4-6.5 191.1-1.6 62.6-5.1 125.2-2.6 187.8m-81.5 268.7c2.8-72 4.7-144.5 4-216.7-.2-35.7-4.2-71-4.2-106.8 0-2.9-2-19.3.6-20.9 5.3-3.2 4.4 5.6 4.5 8.2.6 18.6 1.2 37.1 2.3 55.7 4.3 72 3.9 144.6 1.7 216.8a10352 10352 0 0 0-4.2 215c-.1 10 1.1 20.7 0 30.5-1.2 10.1-5.6 6.2-6.3-1.4-1.7-19.8-.2-40.5.3-60.3 1-40 1.3-80 1.3-120"/></g></svg>