<svg xmlns="http://www.w3.org/2000/svg" viewBox="0 0 2400 640"><path d="M0 627.2c121.3 4 183.5-34.8 242.4-71.5 66.4-41.3 128.6-80.1 263.8-54.3 29.5 5.6 57.6 11.5 84.2 17.1 173.4 36.5 287.3 60.4 438-70.7a445.2 445.2 0 0 1-123.6-117.5 410 410 0 0 1-51.8-97.6 296.6 296.6 0 0 1-19.2-97.3c-.3-26.7 4.5-51 13-71.2 8.9-21.7 22-39 37.4-50A71 71 0 0 1 935.8.9a90.8 90.8 0 0 1 51 27.1 228.3 228.3 0 0 1 39 55.2 174 174 0 0 1 43.9-54.7A93.8 93.8 0 0 1 1122.3 6a84.1 84.1 0 0 1 62 24.8 130.7 130.7 0 0 1 36.2 67.6c1.8 8.2 3 16.9 3.7 26a88.1 88.1 0 0 1 37.2 18.5 152 152 0 0 1 38 47 198.4 198.4 0 0 1 33.7-47.4 79.7 79.7 0 0 1 44.8-23.8c16-2.2 31.7 2 45.4 11.8 13.5 9.7 25 24.8 32.8 43.8a159.1 159.1 0 0 1 11.3 62.2c-.7 73.7-22 132.8-56.4 176.5a235.7 235.7 0 0 1-125.2 81.4C1520 697.7 1781 633 2026 572.4l14.7-3.6a622.5 622.5 0 0 1 158-16.2 843 843 0 0 1 201.3 28.3v7.4a835.7 835.7 0 0 0-201.4-28.5 615.2 615.2 0 0 0-156.2 16l-14.7 3.6c-248.2 61.5-512.7 127-750.5-82.9a306 306 0 0 1-157.3-6.7 373 373 0 0 1-85-38c-153.8 135.2-269.4 111-446 73.8-26.4-5.6-54.3-11.5-84-17.1-132.5-25.3-193.6 12.7-258.7 53.3-59.8 37.4-123.1 76.7-246.2 72.6v-7.2zm1034-184.3c34-30.3 69.9-68.5 108.8-116.2a261.4 261.4 0 0 1-8.1-23.5 203.4 203.4 0 0 1-5.7-99 114.6 114.6 0 0 1 31.8-59.2 73.9 73.9 0 0 1 56.2-21.7 173 173 0 0 0-3.5-23.3c-6-27.6-18.6-49.2-34.2-64a77 77 0 0 0-56.6-22.8c-17.2 1-33.8 9-48.5 20.8a166.5 166.5 0 0 0-44.3 57.1c11.6 23.7 19.5 47.6 21.1 64 1.2 11.3-.7 19.3-4 24.4a15.6 15.6 0 0 1-8 6.3c-3 1-6.2 1-9.4 0-5-1.4-9.9-5.3-13.4-11.1-5.7-9.4-8-24-6.1-41.3a143 143 0 0 1 11.9-42.2l-.4-.6c-10.9-21.6-24.9-42.8-39.8-57.5a83.8 83.8 0 0 0-47-25.2 64 64 0 0 0-46.5 12.2 107.4 107.4 0 0 0-35 46.9c-8 19.4-12.6 42.6-12.3 68.3.3 31.1 7.3 63.6 18.7 95 12.7 34.7 30.8 67.9 51 95.9 36.1 50.1 78.4 88.9 123.2 116.7zm114-122.6 1.6-2a315.2 315.2 0 0 0 57.6-108.6c8.1-28 11.3-55 10.2-79.1a55.5 55.5 0 0 0-2.6-.2c-16.8-1-34.4 6-49 19.8a107.5 107.5 0 0 0-29.7 55.6c-6 26.9-4.8 60.2 5.5 95.4a252.8 252.8 0 0 0 6.4 19zm7.2 2.5-4.2 5.1c9.5 22.8 23 45.8 40.7 68a771 771 0 0 0 87.5 92.7l1.8-.4a228.9 228.9 0 0 0 124.3-79.7c33.6-42.5 54.2-100 55-172 .2-22.4-3.8-42.6-10.8-59.5a93.2 93.2 0 0 0-30.4-40.7 55.4 55.4 0 0 0-40.3-10.5 72.7 72.7 0 0 0-40.7 21.8 197.6 197.6 0 0 0-34.7 50l-.1.4c5.7 13 9 25.5 10.3 36.8 1.7 15.1-.4 28-5.4 36.3a22 22 0 0 1-12 10c-2.8.8-5.8.8-8.5-.1-2.8-1-5.2-2.9-7.1-5.7-3-4.5-4.7-11.6-3.7-21.6 1.4-14.3 8.3-35 18.4-55.8l-1.9-3.8a144.8 144.8 0 0 0-36.5-45.6c-10-8-20.9-14-32.2-16.7a254 254 0 0 1-10.6 79.9 322.4 322.4 0 0 1-59 111zm-9.3 11.4c-37.6 45.9-72.4 83-105.5 112.6 26.7 15.9 54.1 27.8 81.6 36a300.6 300.6 0 0 0 148.6 7.8 786 786 0 0 1-84.4-90.2 290 290 0 0 1-40.3-66.2zM1026.1 99.8a133 133 0 0 0-8.9 34.4c-1.7 15.7.2 28.7 5.1 36.7 2.6 4.3 6 7 9.3 8 1.8.6 3.6.6 5.1.1 1.6-.6 3-1.7 4.3-3.5 2.5-3.8 3.8-10.2 2.9-19.7-1.4-14.3-8-34.9-17.8-56zm273 106.9a166 166 0 0 0-15 47.7c-.8 8.2.3 13.7 2.5 16.9a7 7 0 0 0 3.4 2.9c1.3.4 2.7.4 4.2 0 2.8-.9 5.7-3.2 7.9-6.8 4.2-7 5.9-18.3 4.4-31.8-1-9-3.4-18.8-7.4-29z" fill-rule="evenodd"/></svg>