<svg xmlns="http://www.w3.org/2000/svg" viewBox="0 0 844 475"><path d="M0 139.9C108.5 177.9 207.8-43 402.3 7.5c6 1.6 12 3.5 17.5 6.3 31.4 15.7 65.7 63.4 53.4 93.5-4.8 11.7-32 7.2-35 37.5-.4 4.1 0 6.9 3.3 31.7 1 7 1.8 7.4-2.7 9.1-13 4.8-3.1-.1-21.3-20.6a112.4 112.4 0 0 0-36-26.6c21 3.1 27.1-15.2 6-23 9.9 20 27.6.1 7-6.2 14.9 9.5 12.2-6.2 4.3-5.9 10.5-.4 9.5-3.6 1-7.4 4-5.3 4.1-10.7-3.5-11.8a28.9 28.9 0 0 1-8.2 20.7c-1.5-12.8 12-32.3-29.7-37-35-4-65.5.4-72.7 6.6-7.8 6.7-7.5 20.2-2.3 23.9 2.9 2 9.2 2.7 12.6 3 11.7.5 20-3.7 27.2-5.8 14.5-4.3 14 4.3 16.7 8.6 5.6 8.7 30.4 18 33.8 27.7-20.3-11.3-60.7-18.3-72.4-18.8-8.4-.3-17-.6-25-3.4-11.2-3.7-21.7.2-30.4 7.2-22.1 17.9-17.3 46 1.6 32.5 10-7.1 10.1-23.3 16.3-22.6 5.7.7-8.4 15.5-1.3 20 2.5 1.5 3.4.4 15.1 3.3 6.5 1.6 12.8 3.5 19 5.5 14.8 4.6 29.4 9.7 44.2 14.1 18 5.3 38 10.3 57 10.6-2-6.9-39.6-18-46.5-19.9-55-14.4-143.7-19.4-170 31-41.9 80.2 42.4 250.6 211 262 15.8 1.1 31.8.7 47.4-2.3 48-9.3 40.7-32 63.2-32.7 14.4-.4 25 11.1 36 16.1 76.3 34.3 173.5-44.4 143.4-133.3a89.2 89.2 0 0 0-43-51c-14.6-7.7-31-11.2-47.8-11.4-13.7-.2-12.7 1-21.5 2.5-22.1 3.7-12.8-24.5-33-14.3-6 3-7.1 6-16 4-1.6-.4-3.7-.9-5.2 0-3.3 1.9-5.6 7.7-7.5 8.2-.7.1-1.4-.6-2-.8-5.3-2-11.4 1.7-13.3 6.7-1.4 3.9-2.8 3.5-10 7-13.1 6.2-17.3 20.3-16.3 33.8 2.2 28.3 24.9 41.8 26.1 89.6 0 2.5.3 5.2 1.4 7.4 2.7 5.1 10.1 4.8 14.7 3 7.6-3 14-10.6 19.2-15 .3-.3 2-2 2.5-1.4.7.6-.5 3-.7 3.6-1.7 5.3-3 11-1 16.3 5.7 15.9 53 24.7 57.1-5.7 4-29.2-35.2-12.1-38.4-15.6 6.4 22.9 20.4 2.4 35-4.2 8.8-4 16.5-8.1 22.1-16 16.5-23.2 31.3-55.2 42.5-58.4 10.7-3 18.8 9.5 22.3 20.4C686 361.5 634 458 549.6 425.4c-19.9-7.7-38.7-21.3-58.2-21.4-17.1-.1-17.2 7.5-37.5 7.6-11 0-30.4-1.9-40.2-5.6-27.2-10.2-33.4-49.3-33-78.2 1-83.5 48.5-117.7 69.3-88.1 10.5 15 7.7 26.3 5.7 44-1.8 15 12.9 31.2 12.2 46.1-23.1-18-31.4-58.3-31.4-77 0-23-16.8-7.5-25.8-2.2-7 4.1-11.2 2.5-43.2 5.3-10.6 1-21.1 2-31.7 2.5-122.5 7.3-132.6-52.5-62.9-34.2a434.1 434.1 0 0 0 78 12.4c100.3 6.6 75-31.1 81.2-41.7 5.2-8.7 14.8-4.5 17.4 3.3 3 8.4-2.5 21-11.9 23.7-1.8.6-2.4-5.8-2.4-7.7.3-17.8 18.4-31 26.3-13.6 1.5 3.3 1.9 7.1 1.8 10.7-.2 6-1.6 9.3-7.1 13.8-5 4-7.3 1.4-7.5-5.2-.4-12 10.6-20.5 18.7-17.8 13 4.2 11.2 41.4-8.5 39-.8-.2-.8-.6-.8-2.6-.3-7.8 5.5-11.4 9.7-16.3 4.7-5.4 8-15.4 7.4-22-1-12.4-14.6-17.5-20.5-32.7-4.9-12.5-5.7-28.2 2.6-29.3 1-.1 43 4.8 34.7-45.6-2.8-17-9.1-26-13.9-34.9-7.4-13.9-12.5-27.9 2.7-24.1 16.4 4 32.9 32.3 41.1 47.3 57.6 105 27.8 133.5 91.6 138.2 11.7.8 23.5 5 35 7.8 39 9.3 70.1 66.4 62.5 122a128 128 0 0 1-56.2 89.7c-54.8 36.4-108 15.6-130.4 21.2-1.5.4-41.8 16.8-128.7 15-62.6-1.2-253.6-73.3-244-247.4C158 109.7 238 65.8 336.1 36.3c265-79.7 229.6 112.1 463.1 89 131-13 221.8-103.2 364.7-67.5" stroke="#000" stroke-width="4" fill="none" stroke-linecap="round" stroke-linejoin="round"/></svg>