<svg xmlns="http://www.w3.org/2000/svg" viewBox="0 0 1044 695"><path d="M512 1.9c-.7 1.3-1 31.1-1 89.6v87.6l-3.3-2.5a61 61 0 0 0-9.2-5.3c-5.3-2.5-7.2-2.8-15.5-2.8-8.7 0-10.1.3-16.1 3.2a51.4 51.4 0 0 0-24 26.7c-.6 2.2-.9 6.9-.7 10.4.5 7.9 2.7 10.3 12.9 13.9 6.3 2.3 9 2.7 17.9 2.6 11.7 0 17.8-1.7 26.4-7.5 4.4-2.9 12.6-12.5 12.6-14.7 0-.5.5-1.3 1.1-1.7.9-.5 1.1 1.6.7 8.2-1.3 21.2-13.9 46.6-33.1 66.9-4.7 4.9-12 10.9-11.7 11.5.3.5 3.8-1 3.2-1.4-.7-.4-3.1.6-5.4 2.2a40.8 40.8 0 0 1-35.2 7.8 85 85 0 0 0-26.3-5.6c-12 0-20.9 4.7-25.6 13.3-2 3.8-2.2 5.6-2.1 17.7.1 15.1.6 16.8 11.4 43 12.2 29.6 16.8 47.9 17.7 70.6a98.8 98.8 0 0 1-14.8 58.8 171.9 171.9 0 0 1-41 41.2 162.8 162.8 0 0 1-35.4 16.4c-2.2.7-4.4 1.5-5 1.9-.5.3-1.4.6-2 .7l-4 .8a116 116 0 0 1-21.8 2.4l-3.8-.3 2.6-3.5c3.8-5 9-16.4 11-24a75.5 75.5 0 0 0 0-31.4A67.3 67.3 0 0 0 274 468a80.4 80.4 0 0 0-13.6-11.2c-6-3.2-15.2-5.8-20.9-5.8h-4l-2.3-15.8-2.6-18.2-3.1-22.1-2.7-19.5 8.6-12 10.4-14.4a248 248 0 0 0 26.5-53.6c2.9-9.1 5.7-26.3 5.7-34.7a116 116 0 0 0-6.5-32c-4.7-11.6-13.7-19.7-21.9-19.7-14.7 0-26.7 17.8-32.1 47.5-3.5 19.2-3 56.8 1.4 99.9l1.7 16.9-7.6 9.1c-4.1 5.1-9.1 11-11.1 13.1-18.6 20.4-25.9 30.5-34.2 47a147.5 147.5 0 0 0-17.4 73.8 71.5 71.5 0 0 0 7.7 33.4 65.9 65.9 0 0 0 39.3 32.8c18.1 5.8 38.7 5 54.2-2.1l5-2.3.7 2.5c.4 1.4 1.4 9.4 2.4 17.7 4.7 41.8-3 71-20.7 78.6-5 2.2-14.9 4-14.9 2.7a48.2 48.2 0 0 0 2.6-39.1c-3.9-9.3-12.3-14.1-23.3-13.3a28.3 28.3 0 0 0-23.9 15.1c-4.1 7.8-2.7 19.8 3.1 27.7 3.6 4.9 11.6 10.1 13.3 8.7 1-.8-6.6-4.2-6.8-3.2-.3 1.5 15 8.4 18.8 8.4 2.9.1 2.8 1.5-.3 2.9a31.9 31.9 0 0 1-19.3.8 56.5 56.5 0 0 1-25.2-14.3c-21.2-18.2-32.1-25.3-45.5-29.6-23.4-7.6-49.5-2.2-79.5 16.4A279.9 279.9 0 0 0 5.7 683c-4 3.7-5.7 5.9-5.5 7.3.5 3.3 2.2 3 7.4-1.2L20 679c19.4-15.8 40.5-26.9 57.6-30.5 28.5-5.9 50.4 2.2 79.3 29.4a91.5 91.5 0 0 0 22.2 14.1 47 47 0 0 0 23.4 2.1c2.2-.6 6.7-2.6 9.9-4.6 4.7-2.8 6.9-3.5 11.1-3.5 9.1 0 17.7-3.3 24.3-9.5a42.4 42.4 0 0 0 13.1-22.3c4.6-16.8 5.1-38.5 1.5-66.1l-1.8-13.4 3-2.3 6-4.8c2.6-2.1 4.7-2.6 14.7-3.5a94.3 94.3 0 0 0 20.2-3c7.2-.9 30.9-9.5 38.5-14.5 24-15.7 27.3-18.2 36.3-27.2a80.2 80.2 0 0 0 9-9.9c6-5.6 17.8-27.8 22-43 1.9-6.9 2.2-10.5 2.2-27 0-16.2-.3-20.5-2.3-29.3-3-13.3-9.7-33.8-15.7-47.6-8.1-19-10.7-28-11.3-38.9-.9-18.9 5.5-26.7 22.1-26.7 6.1 0 18.4 2.7 25.3 5.6 6.1 2.6 19.1 1.6 27.4-2.1 7-3.1 14.4-8 20-13.2 1.9-1.8 3.8-3.3 4.1-3.3 1.1 0 13.5-15.4 18.6-23 8-11.9 13.9-25 17.4-38.5 2.1-7.9 2.6-24.7.8-29.2-.7-1.9-1-31.2-.9-94.3 0-50.3.2-91.5.3-91.7.2-.1 4.1.6 8.7 1.7l30 6.5 24.5 5.5c58.4 13.2 70.6 16 78.8 17.6l8.7 1.8v86.8c0 47.7-.2 86.8-.6 86.8-.3 0-3.7-1.4-7.7-3.1a38.6 38.6 0 0 0-27.9-2c-19.5 6.8-32.2 25.5-25.9 37.8.8 1.7 1.8 2.9 2.8 3.8 1.7 1.5 3.9 2.7 6.5 4.2 2.5 1.5-5-3.6-5-3 0 .2 4.4 2.6 4.6 2.8a47 47 0 0 0 20.6 3.2 36 36 0 0 0 25.5-12.3 52.4 52.4 0 0 0 11.1-19.8c0-2.4 1.3-2 9.9 2.9a122.9 122.9 0 0 1 30.2 22.6c29.2 29.3 32.6 66.2 10 110.9-10.9 21.5-15.3 37.3-15.4 54.5a67.5 67.5 0 0 0 27.4 56.5c5 3.9 17.4 9.5 20.8 11l5.6 2a71.8 71.8 0 0 0 31 3.1c28.2-4.2 53.4-24.3 55.3-44.3.6-5.9-1.9-12.9-5.5-15.7-2.4-2-2.4-2.1-1.4-9.3 1.8-12.9 2.1-33.6.8-32.8 0-10.5-3.7 16 0 13.8 1-1.2 1.3-18.2 1.3-77.8 0-42 .2-76.5.4-76.8.3-.2 2.6 1.4 5.3 3.5a331 331 0 0 0 18.8 13.4 187.2 187.2 0 0 1 30.1 23.8c.8 1.1.8 4.3.2 10.1-1.6 16.5 1.9 34.2 7.5 37.2 3.5 1.8 7.2-3.4 8.7-12.3 1.7-9.7.2-18.5-4.7-28.5l-3.6-7.5 2.9-7.2a37 37 0 0 1 9.4-13.8c5.7-5.8 7.5-7 14-9.2 4.1-1.4 13.8-3.7 21.5-5.1 31.8-5.8 59.8-18.8 72.9-33.8 6.4-7.3 13.1-18.8 13.6-20.5l.9-2.7c.1-.2 3.4-13.9 2.8-22.6a92.6 92.6 0 0 0-9.3-32.2 172 172 0 0 0-17.6-26.6c-2.4-2.2-2.7-2.2-4.2-.6-1.4 1.4-1.5 1.9-.4 3.5 13.6 19.3 20.5 32.5 23.8 45.5 8.7 33.9-10.6 60.6-55.5 76.7a154.3 154.3 0 0 1-34.2 8.6 53.5 53.5 0 0 0-34.8 16.4 67.4 67.4 0 0 0-7.2 11.3l-3.8 7.3-4-3.9c-4.6-4.5-6.4-5.8-24-17.7-26.6-17.9-29.5-20.8-29.5-29.5 0-3.1-.3-6.9-.6-8.6-1.5-7.2-8.5-9.6-11.3-3.8-1.8 3.7-.1 11.6 3.5 16.9l2.5 3.7-.2 83.8c-.1 78.6-.8 99.4-3.1 101.7a95.2 95.2 0 0 0-39.3 1.5 52.3 52.3 0 0 0-26.4 13.8c-11.1 11.3-12 22.6-2.3 32.5 6.2 6.4 15.9 8.1 29.6 5.2a51.3 51.3 0 0 0 39.6-33.9l3.4-8.7 1.8 2.3c2 2.7 2.3 8 .6 12.9a51 51 0 0 1-15.2 19.6 70 70 0 0 1-84 1.4 60 60 0 0 1-27.4-48.8c-.8-19 2.6-32.9 13.3-54.3 14-28.1 18.8-50.8 15.1-72.8a79.8 79.8 0 0 0-19-40.7c-10.4-12.4-28-26-42.5-32.9l-6.1-3v-90.2c0-70.9-.3-90.4-1.2-91.2-.7-.5-16.8-4.5-35.8-8.7l-47.4-10.6a1509 1509 0 0 0-26.5-5.9c-7.5-1.5-21.5-4.6-31.1-6.9-9.6-2.3-18-4.1-18.7-4.1-.7 0-1.7.9-2.3 1.9Zm-14.1 176c7.2 3.7 12.1 8.5 12.1 11.8 0 1.2-1 4.8-2.1 8a36.2 36.2 0 0 1-19.2 19.1 48 48 0 0 1-35.4-1c-5.1-2.4-6.7-6.3-5.2-12.8a39.9 39.9 0 0 1 25.8-27.6 33.2 33.2 0 0 1 24 2.5ZM659.3 217c10 3.9 9.8 3.5 5.1 13.9a32 32 0 0 1-16.2 17.3c-6.3 3.1-7.3 3.3-16.7 3.2-9 0-10.4-.3-14.2-2.7-4.7-3-6.3-5.3-6.3-9.3 0-6.5 8.3-17.5 16.5-21.7 11.1-5.7 18.6-5.8 31.8-.7Zm-403.8 1.6c4.2 3.2 9.4 13.5 12.1 23.9a107 107 0 0 1 0 39.9 213.8 213.8 0 0 1-29.8 64.5c-9.9 14.9-13 18.6-13.8 16.9a423 423 0 0 1-4.1-46.8c-1.3-21.6-.7-44.5 1.5-59 3.1-20.1 11.1-36.5 19.8-40.9 5.3-2.7 9.4-2.3 14.3 1.5ZM908 308.2c1 5.2.3 15.5-1.1 16.3-1.3.9-2.9-9.4-2.8-18.8.1-9 .1-9.1 1.5-5.8.8 1.8 1.9 5.6 2.4 8.3Zm-688 75.5c.1 4.1 7.5 57.1 9 63.7 1.1 4.8.8 5.3-3 6.1a35 35 0 0 0-8.7 4.4 57.8 57.8 0 0 0-23.4 32c-8.4 26.1-.2 46.9 23.9 61a80.2 80.2 0 0 0 24.6 9.6 37 37 0 0 1 9.8 3.7c.4.7.8 2.7.8 4.5 0 2.9-.5 3.5-5.2 5.6-9.7 4.3-17.7 6-28.3 6a63 63 0 0 1-31-7.3 46.8 46.8 0 0 1-19.6-14.6c-9.6-11.6-13.7-23.3-14.6-41.9-1.7-36.8 14.9-78.5 43.7-109.9a45 45 0 0 0 8.6-11.2c-.3-.7-6.3 6.9-5.6 7.1.7.3 9.8-10.2 12.5-13.5 4.7-5.6 6.5-7 6.5-5.3Zm600 39.7c0 .2.4-1.6-.5-.9-1.6 1.3-2.9 3.8-1.6 2.2 1.3-1.6 2.1-2.1 2.1-1.3Zm11.2 6.1c2 .8 1.7 2.8-1.3 10.6a48.2 48.2 0 0 1-25.3 27.2c-19 7.6-34.9 5.1-38.5-6.1-1.2-3.4-1.1-4.7.3-8.9 2.2-6.7 3.8-8.7 10.4-13.2a79 79 0 0 1 45.6-11c3.9.4 7.9 1 8.8 1.4Zm-577.9 30.8a53 53 0 0 1 19.8 15.3 53.9 53.9 0 0 1 14.6 42.4 57.1 57.1 0 0 1-13.9 36.2c-2.9 3.7-3.2 3.8-9.4 3.8-5.7 0-6.5-.2-7.4-2.3-1.1-2.4-5.9-22.8-8.4-35.2A1550 1550 0 0 1 237 458c0-2 10.1-.5 16.3 2.3Zm-21.9 1.4 3.1 17.8c3.2 18.6 5.3 29.4 11.1 55.4 2.5 11.1 4.3 20.6 4 20.9-1.2 1.1-14.6-3.3-24.4-8.1-16.6-8.1-25.6-18.6-28.2-32.6-3.5-19.5 9.2-44.7 27.5-54.4 4.4-2.4 6.3-2.1 6.9 1Zm30.4 103.5c-.6 1.8-2.8 2.1-2.8.4 0-.9.7-1.6 1.6-1.6.9 0 1.4.5 1.2 1.2Zm-50 69.8c3.6 1.6 4.7 2.9 7 7.7 2.3 5 2.7 7 2.6 14.8-.1 7.6-.5 10-2.9 15.3-3.2 7.1-3.1 7.1-13.9 4.5-7.7-1.8-16-6.4-19.4-10.8-4.7-6-5.2-15.6-1.3-23.4 4.4-8.5 18.1-12.6 27.9-8.1Z"/></svg>