<svg xmlns="http://www.w3.org/2000/svg" viewBox="0 0 580 1686"><path d="M478.6 51.1c-2.4 0-4.8 1-7 3-7.1 6-11.8 21.6-6.1 42.4 2.6 9.6 5.7 17.6 8.8 25.3 3 8 5.9 15.1 7.6 22.7a93.2 93.2 0 0 0 14.7-55.1c-.8-20-6.2-34-14.3-37.5a9.2 9.2 0 0 0-3.7-.8zM9.4 139.7a8 8 0 0 0-3 .5c-1 .4-2 1.2-2 3.7-.3 8.3 21.1 36.8 88.3 72 2.2 1.1 4.6 2.2 7.1 3.2a91.9 91.9 0 0 0-26.3-42.3c-17-16.8-50.9-37-64.1-37zM114.7 362c8.1 24.1 21.5 45.4 39.4 62.4 9.8 9.2 20.6 16.9 32 22.7-23.2-18.3-41-43-57.3-65.7-4.7-6.7-9.4-13.2-14-19.4zM221 462.5a112.5 112.5 0 0 0 10.4 3.5c40 11 79.2 10.2 113.2-2.6 56.6-21.4 121.6-74.5 134-121.4-25.7 42.9-50.7 66.5-67.7 79a97.2 97.2 0 0 1-33.7 17.5l-13 2.7 11.6-6.4c29.4-16 46.5-46.1 51-89.5 3.5-33.4-1.7-66.6-5-83.3l-.3-1.5 1.2-.7a116.4 116.4 0 0 0 56.7-105.5 79.9 79.9 0 0 1-7.6 7.6c-5.6 4.9-15.9 9.9-28.9 16.2-21.6 10.5-51.1 25-71.7 46.3-24.2 25.1-31.3 54.3-21.7 89.2 11.8 42.7 6.7 84.2-13.6 111.1-19.1 25.4-50.7 38.6-93.8 39-7 .3-14 0-21-1.2zm95 1222.9-4-.4c10.8-100.5 1.4-199.4-7.6-295-7.8-82.8-15.2-161-7.1-227.2 6.4-52.8 52.2-77 105.2-104.8 38.6-20.3 82.3-43.3 115.7-81.3 37.4-42.6 56.2-97.9 57.4-168.8-28 24.6-63.6 32-98.2 39.2-37.9 8-77.1 16.1-107.2 46.7-34 34.6-52.5 94.4-56.4 183l1.1 11.1-4.5-7.3c-73.5-117.5-56.5-254.2-41.5-374.8 10.8-86.8 20.1-162-5-215.6-5.6 13.3-21.7 20.4-37.3 27.2-16.9 7.4-32.8 14.4-36.3 28.2l-1 4.1-2.5-3.4c-15.6-21.4-.7-32.8 12.4-43 7.7-6 15-11.7 16.2-19-10 7.5-24.7 6.3-37.9 5.2-6.4-.5-12.5-1-17.6-.6-16.8 1.6-23.7 6.9-33.2 14.1-3.5 2.8-7.5 5.8-12.5 9l-7 4.6 4.2-7.2 4.7-8.6c8.3-15.6 16.8-31.7 37.7-33.3 3.5-.3 7.2-.2 11.1 0 7 .2 14.2.4 20.2-1.7-34-5.5-56.8-42.7-78.8-78.8-20-32.9-39-64-65.2-71.5l-8.4-2.5 8.6-1.4c1.1-.2 27.6-4.3 56.1 23.9 2.9 2.8 5.6 5.8 8.4 9-2.6-12.2-4-24.8-4.2-37.8-.1-12.6.4-24.2.8-34.4.9-18.5 1.6-34-1.4-48.5-3.7-1.3-7-2.8-10.1-4.4-67-35-90.8-64.4-90.6-75.6.1-4.5 2.6-6.4 4.6-7.3 13-5.2 53 19.3 71.4 37.5a94.6 94.6 0 0 1 28 46.8l10 3.6c23.6 8.1 56 19.3 105.7 58.6a214.2 214.2 0 0 1 73.6 120.3c4.6-17.6-3-35.4-11-54.1-8.8-20.9-18-42.4-13.3-67.4 10.8-57.6 59-76.8 101.5-93.8 21.5-8.6 41.9-16.7 56.7-29a60.2 60.2 0 0 0 22.7-52.7c-.8-18.6-10-42.6-29-54.4-14.2-8.8-31.4-9.2-49.8-1.1l-2 .9-.7-2.1a59.3 59.3 0 0 0-32.2-35A65.8 65.8 0 0 0 304.8 8c-3.3.4-6.4 1-9.5 1.6-9 1.7-17.6 3.4-27.1-.2-13.4-5-24.7-5.9-33.5-2.6-5.2 2-8.6 5-11.8 7.7a31.2 31.2 0 0 1-17.3 8.9 52 52 0 0 1-18.9-2.4c-8.3-2-16.8-4-23.3-1.3C143 28.4 137.7 42 134 51.2c-2.4 6.2-4.7 12-11.4 10-26.6-8.7-49.5-2-61.2 18a56.4 56.4 0 0 0-6.2 37.7 66.3 66.3 0 0 0 20.9 38c20.8 19.2 49.3 35 76.8 50.3 40.4 22.4 78.7 43.6 94.2 74.4 6.8-44.3 45.3-68.5 79.4-90 30.7-19.5 59.7-37.8 61.8-67.3 1.6-23-6.8-64.2-81.2-80.6-38.5-8.5-95.6-9.9-130 14.2a64.3 64.3 0 0 0-27.7 46c-3.4 25.6.8 46.8 12.7 63.2a76.7 76.7 0 0 0 45.6 29c22.6 5.3 48.5 3 70.9-6.2 23.6-9.8 40.5-26.2 47.4-46.2a50 50 0 0 0-10.5-51.2A86.6 86.6 0 0 0 236.9 65c-22 4.7-37.9 19.5-44.8 41.6-2.8 9.2-2 18.5 2.6 26.7a38 38 0 0 0 23.3 18.1c38.4 10.5 60.7-4.3 68-20a27.7 27.7 0 0 0-8.8-35.7 43.2 43.2 0 0 0-32.3-6.3c-10.2 1.9-18.9 7-23.8 14-4.1 6.2-5.3 12-3.5 17.4 2.7 7.6 10.7 12.5 17.4 14.5l-1.2 3.9c-7.6-2.4-16.8-8-20-17.1-2.2-6.6-.8-13.8 4-20.9 5.5-8 15.1-13.7 26.4-15.7 12.7-2.4 25.6.2 35.3 7a31.6 31.6 0 0 1 10.2 40.5c-8 17.2-32 33.4-72.7 22.3a42 42 0 0 1-25.8-20c-5-9.2-6-19.7-2.9-29.8A62.3 62.3 0 0 1 236.1 61a90.8 90.8 0 0 1 82.5 26.8 53.8 53.8 0 0 1 11.3 55.2c-7.3 21-25 38.2-49.7 48.5-23.2 9.6-50 11.9-73.4 6.3a80.6 80.6 0 0 1-47.9-30.4c-12.4-17.3-17-39.5-13.4-66.1a68.2 68.2 0 0 1 29.4-48.7c35.5-24.9 94-23.6 133.2-15a143.7 143.7 0 0 1 58.5 26 66.5 66.5 0 0 1 25.8 58.9c-2.2 31.5-32 50.4-63.6 70.3-37 23.3-75.2 47.4-78.4 94.5l-.6 9.3-3.3-8.7c-12.4-33.3-52.7-55.7-95.4-79.3-27.8-15.4-56.5-31.3-77.6-50.8-12-11-19.6-25-22.2-40.4a60.4 60.4 0 0 1 6.8-40.3C70.8 55.5 95.4 48.1 124 57.3c2.6.9 3.5-.2 6.4-7.5 3.6-9.2 9.6-24.4 31.4-33.8 7.7-3.3 17-1 25.9 1.1 6.4 1.6 12.4 3 17.3 2.3 7.3-1 11-4.2 15.3-8 3.3-2.8 7.1-6 13-8.3 9.8-3.7 22-2.8 36.3 2.6 8.4 3.1 16.1 1.6 25 0 3-.6 6.3-1.3 9.7-1.7C317 2.3 358 9.5 371.7 46.3c19-7.8 36.8-7 51.6 2.2 20.2 12.6 30 38 30.9 57.6 2.2 52-38.7 68.4-82 85.7-43.5 17.3-88.6 35.3-99 90.7-4.4 23.8 4.5 44.8 13.2 65 9.3 22 18.1 42.9 8.3 64.5l-2.8 6-1-6.6c-7.1-46.5-36-95.7-73.4-125.3-49.2-38.8-81.2-49.9-104.6-58a644.5 644.5 0 0 1-7.6-2.6c2.6 14.4 2 29.6 1.1 47-.4 10.6-1 21.7-.8 34.2.2 15.5 2.2 30.5 6 44.6 6.8 8.6 13.5 18 20.5 27.6 19.6 27.4 41.3 57.6 72 75.5 12.5 4 25.3 5.9 38 5.3 41.8-.4 72.3-13 90.6-37.4 19.5-25.9 24.4-66.1 13-107.6-22.8-82.5 51.3-118.6 95.5-140.2 12.2-6 22.7-11.1 28-15.7a74.7 74.7 0 0 0 9.5-10c-1.5-8.6-4.6-16.6-8.2-25.5-2.9-7.5-6.2-16-8.9-25.8-6.5-24-.1-40 7.4-46.5 4.5-4 9.9-5 14.9-2.8 9.7 4.2 15.8 19.2 16.7 41A96 96 0 0 1 483 150a120.6 120.6 0 0 1-57 112.6c3.4 17.4 8.3 50 4.8 83.1-3.8 36.3-16.2 63.6-37 81.6 4.4-2.5 9.5-5.6 15-9.8 17.9-13.1 44.8-39 71.9-87.2l4.5-8-.8 9.1c-1.7 21-17 47.6-42 73-26.6 27-60.9 49.3-96.4 62.7-34.8 13.1-74.8 14-115.6 2.7a119.6 119.6 0 0 1-28-11.7c-18.3-6-36-16.6-51-31a157.8 157.8 0 0 1-43.5-73.9c-4.4-5.4-8.8-10.4-13.3-14.9a74.8 74.8 0 0 0-42.2-22.5c22.5 12 39.5 39.8 57.3 69.1 22.9 37.5 46.5 76.2 82 77.6l5.6.2-4.4 3.4c-7.8 6-18.6 5.7-28.1 5.3-3.8-.1-7.4-.2-10.7 0-18.7 1.5-26.4 16-34.5 31.3a627 627 0 0 0-.6 1.2l5.3-4a58 58 0 0 1 35.2-15c5.5-.5 11.7 0 18.4.6 14.5 1.2 29.6 2.4 38-7l2.8-3 .6 4c2 11.8-8 19.5-17.7 27-12.5 9.7-23.4 18-13.8 34.1 5.7-13 21.7-20 37.2-26.8 17.3-7.6 33.6-14.8 36.4-29.4l1.1-5.6 2.7 5c28.5 55 18.8 132.6 7.7 222.5-14.7 117.8-31.3 251.1 37 366 10-196.4 89.7-213 166.7-229 37-7.8 72-15.1 99.7-41.4l3.4-3.2v4.7c-.5 74-19.6 131.6-58.5 176-33.9 38.5-78 61.7-116.9 82.1-52 27.4-96.8 51-103 101.8-8 65.8-.7 143.8 7 226.3 9.1 95.8 18.5 194.9 7.7 295.8z" fill-rule="evenodd"/></svg>