<svg xmlns="http://www.w3.org/2000/svg" viewBox="0 0 3893 1975"><path d="M939.5 277.7c19 3.1 37 27.5 44.5 46.6 6.4-1 14.6-2.1 20.1-2.8-8-18-16.2-37.9-18-56.6-2.2-23.4 6-41 24.3-52.2-13-26.6-24.3-57.3-15.5-86.4 11.4-37.8 51.2-41.3 83.1-44l6-.6c47.8-4.4 133.8-12.3 171 34.6 2-32.4 1.6-62.3-25-81.7-40-29-121.4-28.7-166.5-19.3-49.2 10.3-88.8 32.4-114.7 64.1-27.6 33.7-37.8 76.8-29.5 124.6a438.7 438.7 0 0 0 20.2 73.7zm659.2 44.8c-2.7 13.5-5.6 26.8-8.4 39.9-6 28-11.9 55-15.1 79.6 5.4-3 9.9-4.5 11.8-5 20.4-17.3 29.6-55.4 26.6-82.7-1.7-15.7-7-27-14.9-31.8zm-184.5-258c-20 0-39 2.1-56 6.2-24 5.9-43 15.8-55.2 28.6-40.5 42.6-45.6 132.8-42.8 201a758.4 758.4 0 0 0 21.2 147l.2-3.9.4-11.3c1.3-25.1-.8-54.8-3-86.2-5.3-78-11.5-166.6 32.1-217.5a4.5 4.5 0 0 1 7.7 1.7c20 65.9 126.6 80.7 189.2 74.6l14.9-1.9c24-3.4 41.3-5.8 53.1 25 8.3 21.7 9.1 61 5 90.4 3.1-2.3 6.6-3.8 10.3-4.5 5.3-27.2 9.5-54.4 10.6-80.5 2-46.1-6.3-81.6-25.5-108.4-22.5-31.7-78-55-141.4-59.5-7-.5-14-.8-20.8-.8zm-125.4 408.6c13.4 42 30.6 73 50.4 91 21.4 19.2 49.9 29.3 78.1 27.5 31.4-2 60.6-17.8 84.5-45.6a233.6 233.6 0 0 0 29.7-47.3c6.7-13 13.7-26.6 23.4-39.5a60 60 0 0 1 10.4-10.6c3-27 9.5-56.9 16.2-88.1 2.6-12.2 5.3-24.4 7.8-36.7-7.1 3.2-11 10.8-13 16.6l-.6 1.6a4.5 4.5 0 0 1-8.5-2.8l.6-1.8c8.1-25.7 9.6-80.7-.2-106.4-9.2-24-20-22.6-43.5-19.3-4.6.7-9.7 1.4-15.2 2a318 318 0 0 1-113-10.4c-42.4-12.5-70.9-34.1-82.8-62.8-35.8 49-30.1 131.6-25 204.8 2.1 31.7 4.2 61.6 3 87.3l-.5 11.2c-.4 9.7-.8 19.6-1.8 29.3zm33.8 149.2c-3 15.8 3 30 17.5 42.5a80 80 0 0 0 3.7 3c-5-10-9.6-20.1-14.2-30.2l-7-15.3zM967 562c107.5 9.8 212.6 49 312.5 116.7 16.2 11 32.7 21.9 48.6 32.4 67.6 44.9 131.5 87.2 191.4 142.7 17 15.7 35.5 27.4 55.2 40 12.6 7.9 25.6 16.1 38.3 25.5 24.5 18.3 43 27.1 62 29.7 18.6 2.5 38.7-1 67.1-11.8l15.8-6.3c19-7.8 40.7-16.7 61.1-17.7 8.3-60 14-118.8 8.4-182-3.8-44-29.7-79.1-81.5-110.5-17-10.3-37.2-15.1-56.9-19.7-20.7-5-42-10-60.1-21.5 7.4 33.4-5.5 64-18.5 84.8-30 47.8-87.1 85.4-135.8 89.4-65.7 5.4-98.4-27.8-122.3-70-6.8-3.7-12.9-7.8-18-12.2-20.8-17.6-26.6-39.6-16.9-63.5a4.5 4.5 0 0 1 4-2.8 4.5 4.5 0 0 1 4.2 2.6c4.2 8.5 8.3 17.4 12.2 26a630.7 630.7 0 0 0 21.1 43.2c41.3 21.2 104 23.9 129.9 8 34.2-21 58.3-77.3 72.6-121 6-18.3 4.7-37.8 3.4-58.5-.7-10.8-1.4-22-1.1-33.6 0-3.2.2-6.5.4-9.8l-2 2.5c-9.2 12.2-15.7 24.8-22.6 38.1-8.4 16.2-17 32.9-31 49-25.3 29.7-56.7 46.6-90.6 48.7a116.6 116.6 0 0 1-84.8-29.8c-18.5-16.7-34.3-42.9-47.2-78.2a93.4 93.4 0 0 1-24.3 47.4c-20 20.5-47.5 29.1-75 29.1a145 145 0 0 1-67.4-16.9c-34-18.3-60-38.8-81.8-64.6-18.7-22.2-34.4-47.9-54.4-88.8a1259.6 1259.6 0 0 1-49.8-112.2c-6.6 1.1-12.4 6.9-17.3 17.2-9.6 19.8-3.8 55.6 12.8 79.6 8.8 12.8 24.2 27.6 47.6 25.6a4.5 4.5 0 0 1 4.7 3c15.5 48 1.4 102.3-14 150.2zm184.6 433.3c-.1 3.2.9 6.5 3 9.8 10 15 42.4 30.4 96.1 45.8a1268 1268 0 0 0 74.1 18.3 234.3 234.3 0 0 0-71.7-55.1c-40.1-20.7-77-27.4-101.5-18.8zm675.2-73a4928 4928 0 0 1-7.9 53.9c-7.9 53.2-7.6 109-7.3 162.8v8.7a104.8 104.8 0 0 0 41-35.2c14-18.9 24-51.6 26.5-85.4 2.7-36.7-4-68.2-18.4-86.5a45.7 45.7 0 0 0-33.9-18.2zm-439.7 556.7c1.9 23.2 8.3 49.5 17.9 74.4-2.6-26.4-6.9-53-17.9-74.4zm-556.7-43.8c5 57 21.5 109.4 67.6 137.2 9.7 6 21.4 10.4 34.8 13.6a381 381 0 0 1 38.4-28.8 293.7 293.7 0 0 1 98.6-43c115.7-24.1 206.8-50.7 303.7-109 96.6-57.9 190.3-125 223.8-223.4-26-4.9-53.2-13.5-79.5-21.9-40.6-12.9-82.7-26.2-121.3-26.3l-5 14.1c-12.5 36.1-22.3 64.6-62.3 89.2-37.9 23.2-79.2 41.7-119.2 59.6a1131 1131 0 0 0-107.4 52.6c-9 5.2-17.9 11-27.3 17.2-23.5 15.5-47.8 31.4-74.2 38a385.5 385.5 0 0 1-43.4 7.1c-16.4 2-33.3 4.2-50 9-7.9 2.2-19.5 4.1-33 6.3a575.5 575.5 0 0 0-44.3 8.5zm-8.8 2.3c-15.7 4.7-28.2 10.7-30.4 18.8-4.4 15.5 1 20.7 6.9 26.1 4.5 4.4 10.3 9.8 7.2 19.7-2.6 8.5-10.4 17.8-17.3 26.1-3.4 4-6.6 8-8.8 11.1-22.2 33.3-18.7 48-11.7 77.3 1.9 7.8 4 16.6 6 27 2.1 12 1.8 22.1 1.5 30.3-.4 10.8-.4 16.6 3.5 20.6 4.7 4.8 16.3 7.7 36.4 9 11.6.7 21-.2 29.3-2.2a359 359 0 0 1 46.3-72.8 353.2 353.2 0 0 1 34-35.3 124.8 124.8 0 0 1-31.1-13c-36-21.8-58.3-58.9-68-113.4-1.6-9.6-2.9-19.4-3.8-29.3zm533.3 169.8c-9.5 38.4-9.4 84.8-9.4 127.3 0 18.7.1 36.4-.7 52.2-1.7 32.4-1.2 65.7-.7 97.8.4 22 .7 44.6.4 67.1 14.6-18.6 20.5-48.1 25.3-72.5 1.3-6.4 2.5-12.5 3.8-18.2a779.6 779.6 0 0 0 21.6-167.7c.6-69-6.7-124.7-23.8-180.1-15.3 2.3-31.7 8.4-47.6 14.3a344.7 344.7 0 0 1-38.4 12.6c-24 5.8-48.8 12.4-72.8 18.8a1796.4 1796.4 0 0 1-120.3 29.3c-46.1 9-107.4 18-157.1 7.6-13.8 12-26.5 25-37.8 38.5a344 344 0 0 0-41 63.2c6.5-2.6 12.3-5.6 18.1-8.7 13.4-7 27.2-14.2 47.7-13.4 22.8.8 48.6 3 75.8 5.4 72 6.2 153.6 13.2 223-.3 59.3-11.6 100.8-36.8 125.5-76.6a147 147 0 0 1 20-46.7 4.5 4.5 0 0 1 5.6-1.6c2 1 3 3.2 2.4 5.3-4.6 17-11.1 32.5-19.6 46.4zm531.2 366.8c-1.3 0-2.5-.6-3.4-1.6a4.5 4.5 0 0 1-1-3.6c18.4-121.5 28.7-273.6-54.2-377.5-11.3 17.4-28.9 28.1-46 38.5-4.3 2.6-8.8 5.3-13 8.1-45.9 29.7-89 57.6-149.4 62.6-40.9 3.4-85.8 2-137.3-4-2.5-.3-6.1-.5-10.3-.6-13.2-.5-29.7-1.2-37.7-7.2-17.8-13.4-21.4-51.3-23.8-76.3l-.7-7.2c-.8-7.6-1.4-15.6-2-24-18.5-38.3-30.4-83.9-29.7-118.7a4.5 4.5 0 0 1 3-4.1c1.9-.6 3.8 0 5 1.5 23.9 30.8 27.3 77.1 30.4 118v1a235.7 235.7 0 0 0 21 35c24.8 34 72.5 42.2 108 43.2 47 1.2 93.3-9.2 121-19.3 44-16 79.7-33.7 111-68.1 8.7-9.6 21.3-38.6 28.6-79.7 6.5-37 11.3-97.8-3-178.4-5-28.7-3.3-57.8-1.6-86a776.9 776.9 0 0 0 1.7-65c-25.8 7.4-54.2 4.5-85.8-.5l-23.1-3.6c-83.6-13-162.4-25.3-245.4-52-9.5-3-31-7.3-58.1-12.7a5077 5077 0 0 1-46.5-9.5l-.1.7c-.3 2-1.8 3.5-3.7 3.9-2 .3-3.9-.7-4.8-2.4a78 78 0 0 0-2.6-4.5c-78.3-16.8-165.2-39.5-185.4-70-4-6.2-5.5-12.5-4.2-19a4.5 4.5 0 0 1 2.7-3.2c27-11 67.7-4.4 111.5 18.2 33.9 17.4 63.7 41.6 79.6 64 4.4-23 12.3-46.7 19.9-69.6 4.8-14.5 9.8-29.4 13.7-43.6v-.3c12.2-44.2 24.7-89.8 50-128.4a1655 1655 0 0 1-50.2-39.5c-38.3-31-78-63-123.7-85.8-22.2-11-45.2-24.6-67.5-37.7-39.2-23.2-79.8-47-119.5-59.7-44.5-14.2-76.2-18.8-94.3-13.8-21.4 6-49 40.6-64 59.2a1476.9 1476.9 0 0 1-3.8 4.7c-98 121.2-84.6 308.3-72.8 473.4 3.7 51.2 7.1 99.5 7.1 143.4 0 15.6-.7 32.7-1.4 50.9a968.6 968.6 0 0 0-.6 102.7c13.8-3.3 29-5.8 43.5-8.1 13.2-2.2 24.6-4 32-6.2 17.4-5 34.7-7.1 51.4-9.2 14-1.8 28.4-3.6 42.3-7 25-6.1 48.6-21.7 71.5-36.7 9-6 18.5-12.2 27.7-17.5a1139 1139 0 0 1 108.2-53c39.7-17.8 80.8-36.1 118.1-59.1s46.2-48.7 58.6-84.4l6-17.3c.7-1.7 2.4-2.9 4.2-3 41-.5 84.9 13.4 127.3 26.9 27.8 8.8 56.6 17.9 83.5 22.5a4.5 4.5 0 0 1 3.5 5.8c-33 103.8-129.7 173.5-229.3 233.3-98 58.8-190 85.7-306.5 110a284.8 284.8 0 0 0-95.6 41.7 373.6 373.6 0 0 0-32 23.6c14.2 2.3 30.1 3.4 47.7 3 36.8-.7 74-7.1 98.7-12 39.7-7.6 80.4-18.5 119.8-29 24-6.5 48.8-13 73-19 12.1-2.8 25-7.6 37.4-12.2 17.7-6.6 36-13.4 53.4-15.3 2.1-.3 4.1 1 4.8 3 18.2 57.6 26 115.1 25.3 186.6a788.1 788.1 0 0 1-21.8 169.7c-1.3 5.5-2.5 11.5-3.7 17.9-6 29.6-13.3 66.5-36 85.6a4.5 4.5 0 0 1-5 .6 4.5 4.5 0 0 1-2.5-4.2c.8-26 .3-52.6 0-78.3-.6-32.2-1.1-65.6.6-98.4.8-15.5.8-33.1.8-51.7-.1-35.8-.2-74.4 5.5-109.1-7.4 8.9-15.6 17-24.9 24.1-24.6 19.1-55.5 32.1-94.5 39.7-70.6 13.8-152.9 6.7-225.5.5-27.1-2.4-52.7-4.6-75.3-5.4-18.1-.7-29.7 5.4-43.2 12.4-8.2 4.3-17 9-28 12.1a435.2 435.2 0 0 0-28.7 79.2c-16.2 64.3-14.6 123.8 4.5 167.7a4.5 4.5 0 0 1-3.8 6.3 299 299 0 0 1-160.4-34.7c-45-23.3-83.8-55.3-118-83.6-37.7-31-70.2-57.9-104-69.3-97.3-33-193-28.9-284.2 12-77.6 34.6-130.3 86.7-147.6 103.8a4.5 4.5 0 0 1-6.3 0 4.5 4.5 0 0 1 0-6.4c17.6-17.4 71.1-70.4 150.2-105.7 93.4-41.8 191.3-45.9 290.8-12.2 35.3 12 70 40.6 106.8 70.9 33.8 28 72.2 59.6 116.4 82.5 48.5 25.1 97.4 36.3 149.4 34-17.6-45-18.5-104.2-2.5-167.5a444.4 444.4 0 0 1 26.2-74.5c-7.4 1.2-15.7 1.7-25.2 1-23.3-1.5-35.6-4.8-42.2-11.6-6.9-7-6.5-16.4-6.1-27.3.3-8 .6-17.3-1.4-28.3-1.9-10.1-4-18.8-5.8-26.5-7.2-29.9-11.5-47.9 13-84.4a154 154 0 0 1 9.3-11.9c6.3-7.6 13.5-16.2 15.6-23 1.3-4.3-.2-6-4.8-10.4-6.4-6-15.2-14.3-9.4-35.1 3.4-12.3 18.7-20 38.4-25.6-2.5-35.5-1-72 .4-105.4.7-18 1.4-35.1 1.4-50.5 0-43.6-3.4-91.7-7-142.7C803.6 963 790.1 774 890.3 650l3.9-4.7c16.6-20.8 44.3-55.5 68.5-62.2 20-5.7 52.6-1.1 99.5 13.8 40.6 13 81.6 37.1 121.3 60.5 22.1 13 45 26.5 67 37.5 46.5 23.2 86.5 55.6 125.3 86.8a1564 1564 0 0 0 53.4 41.9 4.5 4.5 0 0 1 1 6.1c-26.2 38.1-38.9 84.5-51.2 129.3v.3c-4 14.4-9 29.5-13.9 44-7.7 23.3-15.7 47.3-20 70.2 16.8 3.6 32.8 6.7 46.9 9.5 27.4 5.5 49 9.9 59 13 82.4 26.6 160.9 38.8 244 51.7l23.2 3.6c32 5 59.7 8 84.4 0l-.1-12.2c-.3-54.3-.6-110.3 7.4-164.2l2-14c2-13 4-25.8 5.7-38.6-18.2 1.2-38 9.4-56.4 17-5.6 2.2-10.8 4.4-16 6.3-29.9 11.3-51.3 15-71.5 12.3-20.6-2.8-40.4-12.1-66.2-31.3a599 599 0 0 0-37.7-25.3 379.8 379.8 0 0 1-56.5-40.9c-59.4-55-123-97.1-190.3-141.8-15.9-10.5-32.4-21.5-48.7-32.5-100.3-68-205.9-106.8-313.8-115.6a4.5 4.5 0 0 1-4-6C972 518 987 464.5 973.5 418.2c-20.2.4-38.6-10-52.1-29.7-18.6-26.9-24.5-65.8-13.5-88.6 6.9-14.4 15.2-20 22.3-21.8a442.2 442.2 0 0 1-19.7-72.5c-8.7-50.5 2.2-96 31.4-131.8 27.2-33.3 68.7-56.5 119.8-67.2 26-5.4 59.2-7.2 89-4.8 25.3 2.1 60.6 8.2 84.6 25.7 33.4 24.2 30.7 62.3 28 99.2l-.2 3.7a4.5 4.5 0 0 1-3.5 4 4.5 4.5 0 0 1-5-2.3c-28.7-54.3-120.4-45.8-169.7-41.3l-6 .5c-30.7 2.7-65.6 5.7-75.2 37.7-8.4 27.5 3.8 57.7 16.8 83.6a4.5 4.5 0 0 1-2 6c-38.5 20.4-22.9 63-3.6 104.8.6 1.3.6 2.8-.1 4a4.5 4.5 0 0 1-3.4 2.3c-.2 0-19.6 2.5-29.5 4.1a4.5 4.5 0 0 1-5-3c-5-15.3-19.2-36.2-33.4-42.5 13.7 35.8 30.7 71.7 47.7 106.5 34.4 70.5 64.3 113 132.4 149.5 32 17.2 93.4 28.5 131.6-10.6 16.5-16.8 22.2-37.2 24.6-59.4-3.2-10.1-6.1-20.8-8.9-32.1a767.8 767.8 0 0 1-19.6-141.5c-2.9-69.9 2.6-162.6 45.3-207.5 26-27.4 78-41.1 139.1-36.8 31 2.2 61 8.8 86.7 19.3 27.8 11.3 49 26.5 61.5 44 36.6 51.4 30.1 123.6 16.7 193.8l.9.3c11.5 5.8 19 19.9 21.2 39.6 3.2 29.6-6.5 71.6-30.6 91.2-.5.4-1 .7-1.7.8-.1 0-8 2.2-16.4 8.1a254.5 254.5 0 0 0-.1 51.6c1.4 21.6 2.7 42-3.9 62-14.7 45-40 103.3-76.4 125.7-16.7 10.3-45.9 14-78 10a195.7 195.7 0 0 1-48.6-12.1c5.6 8.7 11.7 16.8 18.6 24 23 23.7 51 33.3 88.4 30.2a157 157 0 0 0 70.6-26.8 198.3 198.3 0 0 0 58.2-58.4c13.7-21.8 27.2-55.2 13.7-90.2a4.5 4.5 0 0 1 1.6-5.4c1.7-1.1 4-1 5.6.4 18.4 16.3 42.2 22 67.5 28 20.3 4.7 41.3 9.7 59.4 20.7 54.5 33 81.8 70.3 85.9 117.3 5.5 63.9 0 123-8.3 183a54 54 0 0 1 39.6 21.7c15.8 20 23.2 53.8 20.4 92.7-2.6 35.4-13.4 70-28.2 90.1-15 20.5-31 32.8-48.2 39.7v29c-.2 13.3-1 26.8-1.8 39.8-1.6 27.6-3.3 56.2 1.6 83.8 26 147.3-8.2 244.2-27.9 265.7-34.4 37.9-75.4 56.3-114.5 70.6a359.7 359.7 0 0 1-124.3 19.8c-37.6-1-88-10-115-46.8a217 217 0 0 1-11.9-18l.3 3 .8 7.2c1.9 20.6 5.5 59 20.2 70 5.8 4.3 22 5 32.6 5.4 4.4.1 8.2.3 11 .6 51 6 95.3 7.4 135.5 4 58.1-4.8 100.4-32.1 145.2-61.1l13.4-8.3c18.6-11.3 36.3-22 46-40.8a4.5 4.5 0 0 1 7.4-.8c88.4 105.3 79.6 260 61 384.5 137.1-.3 209.1-11 256.6-20.4 92-18.2 170.1-50 238.8-97.4 49.5-34.1 97.4-88.8 148-146.7 72.2-82.5 154-176 260.6-232 122.7-64.5 258.4-68.5 414.7-12.5 84.5 30.3 171.7 45.8 252.3 45 88.8-1 166.6-21.2 231.4-60a362.4 362.4 0 0 0 121.5-119.4c33.9-54 56.8-119.6 68-195.3a4.5 4.5 0 0 1 5.2-3.8c2.4.4 4.1 2.7 3.8 5.1-11.5 77-34.8 143.8-69.4 198.8-32 51-74 92.1-124.5 122.4-66.2 39.5-145.5 60.1-235.9 61.1-81.7 1-170-14.8-255.4-45.4-153.9-55.2-287.2-51.3-407.5 12-105 55.1-186.3 148-258 230-51 58.2-99.2 113.3-149.7 148.1-69.7 48-148.9 80.4-242.1 98.8-92.4 18.3-189.4 20.6-263.5 20.6z" fill="#0A0B09" fill-rule="evenodd"/></svg>