<svg xmlns="http://www.w3.org/2000/svg" viewBox="0 0 205 521"><path d="M83.2 2.6c-.5 1-.7 4.5-.4 8l.5 6.3-3.4.3c-2.8.2-3.5.7-3.7 3-.4 3.4 2.7 5.4 5.9 3.8 1.9-1.1 2-.9 1.7 3.2-.3 4-.5 4.3-3.3 4.6-3.9.4-5.8 2.8-4.4 5.5.9 1.5 1.8 1.8 4.5 1.4l3.5-.6-.3 5.7c-.2 4.3-.6 5.6-1.7 5.4-3.2-.7-6.1.8-6.1 3.2 0 3.4 2.5 5.2 5.4 3.8 2.3-1 2.5-.8 3.6 3.5.6 2.5 1.7 5.8 2.5 7.3 1.2 2.3 1.2 9.8 0 52.1-.8 27.2-1.6 68.1-1.7 91l-.3 41.7-13.5.4c-40.7 1.4-52.4 20-44.6 71.3 3.5 23.2 3.5 25.5-1.2 34.6-19 37.1-28 71.8-25.2 97C5.9 498.5 39.9 520 103.5 520c28.1 0 48.1-3.7 65.3-12.1 35-17 43.6-50.8 26.8-105.9-1.9-6.3-7.1-20.7-11.6-31.9-10.9-27.4-11-28.7-7.5-56.1 3.1-24.1 3-32.9-.5-40.7-5.5-12.4-19.9-20.2-40.3-21.9-7.5-.5-8.5-.4-11.7 1.8-2.6 1.7-4 3.8-5.3 7.8-1.8 5.4-1.8 6.1.2 30 2.5 29.6 2.5 28.2 0 24.3-5-7.8-20.2-9.9-28.8-3.8-11.6 8-13 22.7-3.1 32.6 5 5 9.5 6.9 16.5 6.9 7.1 0 11.1-1.8 15.6-6.8l4.2-4.7-.6 30.2-.5 30.3H141v11l-38.2-.2-38.3-.3-.3-2.9c-.2-1.5-.1-3.9.2-5.2.6-2.4.8-2.4 12.7-2.4 9.2 0 12-.3 11.7-1.3-.4-.9-3.9-1.2-13.4-1.2H62.5v16h81v-16l-9.4-.3-9.3-.3.7-22.2c.5-13.8.3-27.7-.4-36.7l-3.2-42.5a288.9 288.9 0 0 1-1.5-31.9c.4-2.2 2-5.1 3.6-6.8 2.5-2.4 3.6-2.8 8.7-2.8 13.2.1 28.8 5.5 35.6 12.5 7.9 8.2 9.4 19.3 5.7 45a120.5 120.5 0 0 0-.9 37c.6 2.2 3.8 10.7 7.1 19 15.7 39.4 20.9 59.8 20.9 81.9 0 20-4.6 32-16.6 44.2-15.8 16-42 23.6-81 23.6a263 263 0 0 1-26-1.2c-55.6-6.7-80.6-36.7-73-87.5a221 221 0 0 1 21.9-64.4C34 348.7 34 349 31 329c-3.2-21.1-4-31.5-3-40.2 2.7-23.8 17-34 47.3-34H88v-24.6c0-24.5 1.4-90.8 2.9-136.6l.7-23.9-2.4-6.1a40.3 40.3 0 0 1-2.7-16.1l-.7-26.8c-.4-16.3-.4-16.8 1.6-17.3 1.2-.2 8.2-.3 15.6-.2l13.5.3-.3 24.3c-.2 25.4-.3 26.3-2.8 34.9l-1.5 5.3H106c-3.2 0-7 .4-8.5 1-3.1 1.2-4.3 3.9-2.4 5.1 2 1.2 17.9 1.1 17.9-.1 0-.6-3-1-6.9-1-3.9 0-7.2-.4-7.5-.9-.7-1.1 9.7-2.5 12.4-1.6 1.7.5 2.4-.1 3.9-3.7a36 36 0 0 0 2.6-8.1c.8-3.9 1.4-4.4 3.2-2.6 1.5 1.5 5.1.2 5.8-2.2.9-2.9-1.3-5.1-4.7-4.7-2.5.4-2.8.1-3.4-2.9-1-5.5 0-7.8 3.7-7.8 3.9 0 5.9-2.5 4-4.9a6.2 6.2 0 0 0-4.2-1.6c-2.8 0-2.9-.2-2.9-4.5s.1-4.4 2-3.3c1.7 1.1 2.3.9 4.1-.8 1.7-1.8 1.9-2.5 1-4.3a4.3 4.3 0 0 0-3.5-2.1c-3 0-3.5-1.4-2.9-7.9.7-8.1.7-8.1-18.8-8.1-14.6 0-16.9.2-17.7 1.6Zm-2 18.6c-.6.6-1.6.7-2.2.3-.9-.6-.9-.9.1-1.6 1.7-1 3.4 0 2.1 1.3Zm42.6-.3c.3.8-.1 1.2-.9.9-.7-.2-1.5-1-1.7-1.7-.3-.8.1-1.2.9-.9.7.2 1.5 1 1.7 1.7Zm-.4 15.2c-.3.5-1 .7-1.5.3-.5-.3-.7-1-.3-1.5.3-.5 1-.7 1.5-.3.5.3.7 1 .3 1.5ZM82 35.4c0 .9-3 1.4-3.5.6-.4-.6.3-1 1.4-1 1.2 0 2.1.2 2.1.4Zm-.8 17.8c-.9.9-1.5.9-2.4 0-.9-.9-.7-1.2 1.2-1.2s2.1.3 1.2 1.2ZM124 53c0 .5-.7 1-1.5 1s-1.5-.5-1.5-1c0-.6.7-1 1.5-1s1.5.4 1.5 1Zm-11.7 259.7c4.5 2.5 9.1 12 9 18.3a19 19 0 0 1-8.2 15.2c-5 3.1-14.2 3-19.9-.2a19 19 0 0 1 1.8-34.5 23.2 23.2 0 0 1 17.3 1.2Z"/></svg>