<svg xmlns="http://www.w3.org/2000/svg" viewBox="0 0 2192 1431"><path d="M208.2 234.3a12 12 0 0 0 5.7 1c22.1-1.5 47.8-58.4 48.9-73.7.4-6-1.7-10.2-6-12.1-6.2-2.8-17.8-.6-28.6 10.7-7.4 7.6-23.3 29.7-20 74.1zm95.5 85.4c7.4 2.7 43.1 1 74-19.5 5.5-3.6 11-7.9 16.2-13-8.6-1.8-18-1.7-28.5.2-30.8 5.6-57.8 26-61.7 32.3zm-33 68.2c21.8 26.7 43.3 37.3 61 40.5-17-19.2-37-33.3-61-40.5zm69.4 41.5 2.8.1c38.3 1 68-27.9 81.6-52.8 13.3-24.1 15-49 4.4-64.9-7.5-11.2-17-18.9-28.4-22.8a107.7 107.7 0 0 1-10 9.3c-35.1 28.7-80.7 31-90 26.5-2.8-1.3-3.2-3.2-3.2-4.3 0-8.1 27.6-27.8 54.8-36a83.8 83.8 0 0 1 46.4-2.2c21.7-24.5 36.6-65.5 19.7-133.6-15-60.2-43.8-102-85.8-124.2-69-36.5-151-6.9-151.9-6.6a80.3 80.3 0 0 0-40 31.4c-5.7 8-11.1 15.4-23.4 22A283 283 0 0 1 69 90.7a5.6 5.6 0 0 0-3.6 3.5 5.7 5.7 0 0 0 .4 5c5.6 9.2 6.3 12.5 6.3 14.3 0 1.9 0 5.4-19.7 19.6a4.5 4.5 0 0 0-1.8 3.3A4.5 4.5 0 0 0 52 140l8.7 8.1a8.2 8.2 0 0 1 2.3 8.7 8.2 8.2 0 0 1-7.1 5.6 3 3 0 0 1-1.5-.2l-13.5-6c-4 4-8 9.5-11.8 14.8-6 8.2-12.2 16.7-18.9 21-2.8 1.7-4.3 6-3.9 10.9.5 5.2 3 9.5 6.4 10.8 20.8 8.2 36.4 23.5 47.8 34.6 24 23.5 35.2 40.2 48.8 86.5 3.6-30.7 9-104-12-151C69.2 120 124.4 78 124.9 77.6a3 3 0 0 1 4 .4l8.4 9.3c3.5.6 7.1-1.4 8.4-4.8l5-13.4a4.7 4.7 0 0 1 4.7-3.1 4.7 4.7 0 0 1 4.3 3.6l5.4 22.8c5 22.4 12 54.8 20.9 96.3 4.2 19.9 9.7 33.7 16 40.8-1.8-43.6 14.4-65.7 22-73.6 11.1-11.6 25.4-16.4 35.3-12 6.7 3 10.2 9.5 9.6 18-1.3 18-28 77.5-54.5 79.3a18 18 0 0 1-5.5-.4c2.9 25.6 12 58.2 32 99 7.9 16 16 29.2 24 40.2 28.9 6.8 53.9 23.1 75.3 49.3zm-43.6 116.3c-3 0-5.7 5.9-7.3 15.9-5.5 35.7 14.6 103.6 35.8 175.5 4.8 16.2 9.7 32.6 14.3 48.8a91.5 91.5 0 0 0 11.3-43.6c0-95.9-37-195.3-53.9-196.6a2.7 2.7 0 0 0-.2 0zm-183-196.3c4.5 16.6 9.4 36.5 15.2 61 20.9 87.5-30.7 272.6-53.9 348-6 19.7-2.5 41 9.4 57 33.4 45.3 87.4 54.5 133.3 47.7a5177.3 5177.3 0 0 1-27.3-88.9c-38.5-129.7-64.3-304.7-10-371.2 16-19.6 37.8-28.4 65-26a140.9 140.9 0 0 1 11 1.4c-7-10.2-14-22-20.7-35.8-21.2-43.2-30.4-77.6-33-104.5-9.5-6.5-17-22.6-22.5-48a7761.6 7761.6 0 0 0-25.2-115l-3.6 9.6a13.6 13.6 0 0 1-16.4 8.3 3 3 0 0 1-1.4-1l-7.1-7.8c-9.7 8.2-47 44.2-23.4 97 26.8 60.4 12.2 158.2 10.6 168.2zM284.2 1410c28.7 0 50.8 5 69.5 9.2 24.2 5.4 40.1 9 55.1-1.3 2.7-1.8 7.8-17.9-2.9-127.3-7-71.2-18.1-159-28-236.6-7.6-59.2-14.1-110.3-17-140.6-3.1-33-12.5-72.1-23.7-112.7-20.2 28.6-53.5 49.8-86.6 60.7a192.1 192.1 0 0 1-25.3 6.5c14 44.2 26 79.4 35.6 108 17 50 28.1 83 33.5 112.7 7 38.8 19 148.2 25.5 210a68.4 68.4 0 0 1-49 72.8 1521 1521 0 0 1-79 19.6c-29.9 6.8-63.3 14.5-72 19.2 13.4 4.3 78.6 7.6 136.3 1.4 10-1.1 19.3-1.6 28-1.6zm102.5 20.4c-10.1 0-21.3-2.5-34.3-5.4-24-5.3-53.7-12-95.5-7.5-54.3 5.9-137.9 4.4-144-4.8a4 4 0 0 1 0-4.1c3.2-5.9 25-11.4 77.7-23.5 26-6 55.3-12.7 78.7-19.5a62.4 62.4 0 0 0 44.6-66.5c-6.5-61.6-18.4-170.8-25.4-209.5-5.3-29.2-16.4-62-33.2-111.8-9.8-28.8-21.8-64.3-36-109-48 7.4-104.7-2-140-49.7a70.5 70.5 0 0 1-10.2-62.4c23-75 74.3-258.8 53.8-345-5.9-24.5-10.8-44.4-15.3-61a2.9 2.9 0 0 1-.2-.6c-15.2-55.6-25.8-72.8-51-97.4-11.7-11.5-26.2-25.6-45.9-33.4C5 217.2 1.1 211 .4 203.5c-.7-7.2 1.8-13.6 6.6-16.6a79.6 79.6 0 0 0 17.2-19.4c4.5-6.2 9.2-12.7 14-17.1a3 3 0 0 1 3.3-.6l14.5 6.5c.8-.3 1.1-1 1.3-1.4.1-.4.3-1.5-.6-2.4l-8.7-8a10.5 10.5 0 0 1-3.4-8.4 10.4 10.4 0 0 1 4.3-7.9c16-11.5 17.1-14.8 17.2-15 0 0-.2-2.3-5.4-11a11.6 11.6 0 0 1-1-10.2 11.6 11.6 0 0 1 7.5-7c12-3.7 30-10 47-19a57.2 57.2 0 0 0 21.5-20.2c7.5-10.4 16-22.2 42.6-33.5 1-.3 85.4-30.8 156.9 7 43.5 23 73.4 66 88.8 128 17.3 69.8 1.7 112-19.4 137a62.1 62.1 0 0 1 29.3 24.2c12 18 10.5 44.6-4.1 71-14.3 26-45 56-85 56a267.2 267.2 0 0 1 28.3 48c27 58 42.8 133.5 55.9 206.5 25.4 142.2 81.8 230.5 147.1 230.5 25.4 0 53.7-.8 84.2-2.2 45.3-2.1 89.1 8.6 126.9 31 31.8 19 53.5 40.3 64.6 63.4a85.4 85.4 0 0 0 61.3 47.6c16 2.9 38.4 11 66.7 21.3 74.7 27.1 187.5 68 336.6 71.8l48.8 1.2c158.6 3.6 164.8 3.7 340.3 55.9 124.3 37 142.5 25.6 161.8 13.6 10.8-6.8 22-13.7 49.5-13.7 53.3 0 69 30.6 85.6 63 8.2 16.2 16.8 32.9 30.4 46.5 20.8 20.8 67.2 28.1 104.5 34 33.4 5.2 51 8.3 54 17 1.1 3.2.1 6.6-3 10.1-40.3 44.5-122.4 40.1-244.2-13.2-58.8-25.7-95.2-23.2-145.5-19.8a938.9 938.9 0 0 1-68.1 3c-92.3 0-272.8-15.4-274.6-15.6a3 3 0 0 1-2.8-3.2 3 3 0 0 1 3.3-2.8c1.8.2 182.1 15.5 274 15.5 26.2 0 48.3-1.5 67.8-2.8 51.1-3.6 88.1-6.1 148.3 20.2 119.2 52.2 199 57 237.3 14.7 1-1.2 2.3-3 1.9-4.1-2-5.7-26-9.5-49.3-13.1-38.2-6-85.6-13.4-107.8-35.6-14.3-14.3-23.1-31.5-31.6-48-16.4-32.1-30.6-59.8-80.2-59.8-25.8 0-36.2 6.5-46.3 12.8-20.5 12.7-39.8 24.8-166.8-13-174.7-52-180.8-52-338.6-55.6l-48.8-1.2c-150.1-3.7-263.5-45-338.5-72.2-28-10.1-50.2-18.2-65.7-21a91.4 91.4 0 0 1-65.7-50.9c-10.6-22-31.5-42.6-62.3-60.9a220.3 220.3 0 0 0-123.6-30.1c-30.5 1.4-58.9 2.2-84.4 2.2-69.5 0-126.7-88-153-235.4-17.8-99.5-39.5-197.8-85.7-255.9-21.4-2-48.9-13.4-76.2-49.8a133.2 133.2 0 0 0-16.6-2.5 65.4 65.4 0 0 0-59.8 23.8c-52.8 64.8-27 237.5 11.2 365.8 9.9 33.4 19 63 27.5 89.6a187.6 187.6 0 0 0 25.3-6.4c33.5-11 67.3-33 86.3-62.6-5.1-18-10.5-36.3-15.8-54.3-21.5-72.6-41.7-141-36-178.1 2.2-14.5 6.9-21.6 13.9-21 23.4 1.8 59.4 110.8 59.4 202.6 0 19-5.7 36.3-15 51.7 11.9 42.7 22 84 25.3 118.8 2.9 30.2 9.4 81.3 17 140.4 9.8 77.6 21 165.6 28 236.9 10.7 109.9 6.1 128.8.3 132.8a43.3 43.3 0 0 1-25.5 7.5z" fill="#1A171B" fill-rule="evenodd"/></svg>