<svg xmlns="http://www.w3.org/2000/svg" viewBox="0 0 420 666"><path d="M410 4c-1.4.8 4-1.1 4.5-1.1.6 0 2.1-.6 3.5-1.4 1.4-.8 2.1-1.4 1.5-1.4-.5 0-8.1 3.1-9.5 3.9Z"/><path d="M403 7c-.8.5 6-2 6.5-2 .6 0 6.2-2.5 7-3 .8-.5-3.4 1-4 1-.5 0-8.7 3.5-9.5 4Z"/><path d="M402 7.5c-1.4.8-2 1.4-1.5 1.4.6 0 15.1-6.1 16.5-6.9 1.4-.8-10.9 4.1-11.5 4.1-.5 0-2.1.6-3.5 1.4Z"/><path d="M382.8 16.6a516.2 516.2 0 0 0-14.8 7.9c0 .5 43-20.1 44-21a202 202 0 0 0-29.2 13.1Z"/><path d="M362.4 27.6c-1.8 1.4-1.8 1.5.4.4 1.2-.6 20.7-10.8 20.7-11 0-.8-19 8.9-21.1 10.6Z"/><path d="M355.3 31.6a16.9 16.9 0 0 0-4.3 3c0 .6 16.7-9.1 18.5-10.6a98 98 0 0 0-14.2 7.6Z"/><path d="M339.5 42a461 461 0 0 0-50 40.9 5466 5466 0 0 1-89.8 82.4c-36.7 32.4-73.2 54-102.2 60.4-8.7 1.9-30 2-37 .1-4.9-1.3-5-1.3-5.7-6.1a42.5 42.5 0 0 0-18.1-31.6c-7.5-4.6-26.3-8.8-32.2-7.3-5.4 1.5-5.3 3.4.4 10.5 11.1 14 25 24.7 40.2 31 3 1.2 5.7 2.6 6.1 3.2 1.3 1.7.9 15.9-.8 28.2a182 182 0 0 0-1.7 19.9c-.2 7.1.1 8.5 2.3 11.8a22 22 0 0 0 23.4 7.6c4.5-1.5 5.5-.8 9 6.2 2.3 4.6 2.4 5.2 1 6.3-2.6 1.9-1.2 4.6 4.6 9.2 10 7.9 10.6 8.7 11.9 15.2 1.9 9.6 10 17 18.7 17.1 2.6 0 3.8 1 7.8 6 11.4 14.7 26.3 17.3 50.3 8.9 23-8.2 42.2-24.4 59.5-50.5a119 119 0 0 1 8.9-12.4c1.3 0 13 13.2 18 20.3 9.6 13.6 15.9 29.3 15.9 39.7 0 14.6-8.1 28.7-20.9 36.4-14.4 8.6-25.4 11-60.9 13.1a242.5 242.5 0 0 0-56.1 7.6 95.3 95.3 0 0 0-31 13.3 96.1 96.1 0 0 0-25 25.1c-10.8 18-13.4 43.1-7.2 71.3 4.5 20.4 22.4 76.6 36.6 114.7 7.3 19.6 10 25.5 11.6 25.5 2.3 0 1.9-3.5-1.5-11.9a1230.8 1230.8 0 0 1-42.8-132 136 136 0 0 1-.5-47.1 63 63 0 0 1 18.7-31c13.9-13.9 25.5-19.9 49-25.4 15-3.5 22.5-4.4 49-6.1 24.5-1.6 35.9-3.2 45.4-6.5 15.2-5.2 28.4-15.6 33.6-26.4a45 45 0 0 0 4-26.8 99.5 99.5 0 0 0-26.9-48l-8.3-8.8 3.7-7.6a139.4 139.4 0 0 0 13.9-56.4c-.1-17.8-4-29.6-12.4-38.1-10.2-10.2-24.7-8.9-37.7 3.4a39.8 39.8 0 0 0-13.3 31.9c0 19.5 10.5 37.4 35.5 60.8l5.8 5.4-2.9 5.4a196.3 196.3 0 0 1-26.8 34.7 96 96 0 0 1-49.1 26.2c-13.7 2.6-23.6.2-31.6-7.8-6.7-6.7-6.7-7.2.4-10.7 7.2-3.6 19.2-15.2 20.3-19.7 1.4-5.6-5.1-6.9-20.7-3.9-17.6 3.3-22.8 9.2-15.8 18 2.9 3.7 3 3.9 1.1 4.2-3 .5-8-2.5-10.1-5.9a35 35 0 0 1-3-8.4c-1.3-5.8-1.3-5.8-12.8-14A23.7 23.7 0 0 1 85 308c0-.5 1.1.2 2.4 1.5 5.1 5 22.9 7.6 47.1 6.8 15.3-.6 20-1.3 20-3.3 0-1.5-1.1-1.8-15.5-4.5a175 175 0 0 1-16.6-4.1l-8.2-2.6-5 2.6a19.7 19.7 0 0 1-10.4 2.5c-7.8-.1-10-1-11.1-4.4-.5-1.7-2.5-4.9-4.3-7.2a33.7 33.7 0 0 1-3.4-4.6c0-1.5 10.5-6.9 16.8-8.6 12-3.3 16.2-7 16.2-14.2 0-4.2-2.3-9.2-5.2-11.1a22 22 0 0 0-15.3-1.9c-5.7 1.6-10 5-13.6 10.9a20.3 20.3 0 0 0-3.5 11.6l-.3 6.1.9-6c1.2-7.3 5.2-14 10.7-17.9 3.6-2.5 5.2-2.9 10.3-2.9 7.4 0 11.1 2.2 12.5 7.7 1.7 7.1-1.7 10.3-14.8 13.7-3.8 1-9.3 3.3-12.3 5.3s-5.4 3.3-5.4 2.9c0-.5-.4-.2-.9.5-2 3.2-13.7 3-18.8-.3-4.6-3-5.8-6.3-5.6-15 .1-4.4.9-12.5 1.7-18 .8-5.5 1.8-13.9 2.2-18.6l.6-8.6 5.7 1.3a100 100 0 0 0 33.2-.2c10.8-2 24.4-7.1 38.9-14.5 26.1-13.2 48.8-30.4 88.9-67.2 25.4-23.3 58.1-53.5 66.1-61.1A453.2 453.2 0 0 1 340.9 42c7.9-5.4 17.2-11.5 16.1-11.5-.2 0-12 7.7-17.5 11.5ZM19.9 188c16.6 4 24 10.6 28.7 25.6 1.5 4.7 2.5 8.7 2.2 8.9-1.1 1.2-21.2-10-28.3-15.8C15.2 200.8 6 189.9 6 187.1c0-1.6 4.5-1.3 13.9.9Zm223.8 4.1c8.9 4.3 14.6 15.3 16.5 32 1.5 12.5.2 23.3-4.8 39.7-3.6 11.8-10 27.8-11.5 28.7-1.3.9-18.1-16.4-24.9-25.5-18.8-25.3-20.5-47.8-5.1-65.2 9.4-10.5 20.6-14.2 29.8-9.7ZM130.5 309.5c7.9 2 8.6 2.4 6.1 3.1-4.5 1.1-34.5-.3-39.6-1.9l-4.5-1.4 6.3-.1c4.4-.2 7.7-.9 11-2.6 4.4-2.2 4.9-2.3 8.2-.9 1.9.8 7.6 2.5 12.5 3.8Zm18.5 12.6c0 4.1-17.2 18.2-23.7 19.5-4.9.9-11.2-6.8-10.1-12.3.8-4.1 15.8-9 28.1-9.2 5.1-.1 5.7.1 5.7 2Z"/></svg>