<svg xmlns="http://www.w3.org/2000/svg" viewBox="0 0 286 300"><path d="m265.5 40.1 1.1.6c1.2.3 2.4-.1 3.7-1a4.3 4.3 0 0 0-1.4-.5c-1.3-.2-3 .5-3.4 1zm-17.8 145a297.4 297.4 0 0 0-3.6 7.8c-3.7 8.4-6.5 18.2-8.7 29.8-2 10.7-3.7 23 .8 32.3l.2.4c.4 1 2 4.2 3 3.8.4-.1.7-.8.8-1.3a212.8 212.8 0 0 0 8.1-46.9c.8-8.1 1.7-18-.6-26zm-133.2 67c6.5 9.5 19.5 13 29.8 11.4l.5-.1c0-.9-4-3.4-11.6-6h-.3c-4-1.4-11-3.8-18.4-5.3zm-57.4-82a60 60 0 0 0 7 33.2l2 3.9a52 52 0 0 1 8.1 26.3c-.2 3.6-1.8 6.7-3.4 9.6-2 3.4-3.7 6.7-3.4 10.9.8 10.6 10.7 17.7 18.8 20.4l3 1c-2.1-5-3.3-9.7-3.3-13.1 0-4.7 1.5-8.2 4.7-10.5 4.8-3.4 12.6-3.5 20.4-2.2a24.1 24.1 0 0 1-.4-1.1c-2-4.6.5-9.1 3.1-12.9 3.3-4.7 9.8-10.4 15.5-15.4 3.4-3 6.6-5.7 8.8-8 7.4-7.8 14-20.8 12-32.3-1.2-7-5.5-12.3-12.6-15.8-14.4-7.1-30-3.2-45 .6l-8.9 2a141.4 141.4 0 0 1-26.4 3.4zm35.7 108.4a42.7 42.7 0 0 0 13.5 15.3c7.8 5 16.3 5.6 25.4 1.7.6-.2.8-.5.8-.6 0-.4-.9-2.6-15.2-8-8-3.2-17.7-6.3-24.5-8.4zm27.4 21.3a27 27 0 0 1-15-4.5 45 45 0 0 1-14.9-17.6 325.1 325.1 0 0 1-4.6-1.6c-8.7-2.9-19.2-10.4-20-22-.4-4.7 1.6-8.4 3.5-11.9 1.6-2.9 3-5.6 3.2-8.8.5-9.1-3.7-17.4-7.9-25.4l-2-3.9a61.9 61.9 0 0 1-7.2-34h-2.9c-7.7 0-19.1-.7-28.4-6.3C9.2 154.8 4 136.2 2 126a115.7 115.7 0 0 1 28.2-95.2 88.3 88.3 0 0 1 53-30c9.1-1.4 16-.4 21.3 2.8a17.1 17.1 0 0 1 7.5 17.6c-1.2 7.2-6 14.8-12.3 19.8a18.8 18.8 0 0 1-7.2 3.7c-3.5.8-7 0-9.2-2.1a9.4 9.4 0 0 1-2.6-7c.2-7.2 6.4-13.7 13.2-13.8.5 0 1 .4 1 .9a.9.9 0 0 1-1 .9c-5.9.1-11.2 5.7-11.4 12 0 2.3.7 4.4 2.1 5.7 1.8 1.7 4.6 2.3 7.5 1.6a17 17 0 0 0 6.5-3.3 32 32 0 0 0 11.6-18.7c1.1-6.3-1.5-12.5-6.7-15.7-4.8-3-11.4-4-20-2.7a86.5 86.5 0 0 0-52 29.5 113.9 113.9 0 0 0-27.7 93.7c1.8 10 7 28 21.2 36.6a54.1 54.1 0 0 0 30.5 6 59.7 59.7 0 0 1 .4-3c2.6-14.9 15.8-27 26.5-36.6l1.5-1.4a221.1 221.1 0 0 1 65.5-41.7c20.4-8.2 35.3-5.8 44.1 7.3a64 64 0 0 1 9.1 37.5c-.4 8.4-2.3 16.6-4 24.5-2.2 9.2-4.4 18.7-4.1 28.3a175 175 0 0 0 20.4 77c4.5 8.4 13.6 22.9 19 23.7.8.1 1.4 0 2-.7 1.9-1.8-1.2-9.9-2.4-12.9l-.6-1.6c-7.5-21.6-13.3-39.7-14.4-59.8-.9-14.7-.3-32.3 11.1-37.6 6.8-3 14.7 2.3 18.1 9l.1.2 3.9-7.8c4.7-9.6 9.6-19.5 13.4-29.9a99.5 99.5 0 0 0 7.3-32.7c0-4-.3-7.9-.7-11.7-.4-4.1-.8-8.5-.6-12.8.1-5 1-9.8 2-14.5 1.3-6.8 2.5-13.3 1.6-20.2v-.3c-.4-3-1-7.3-3-9.7-1.9 1.4-3.8 2-5.6 1.5-2.4-.8-2.5-2-2.4-2.6.5-1.8 3.6-2.7 5.5-2.4a6 6 0 0 1 2.6 1 55.8 55.8 0 0 0 8.7-11.6c2.9-4.5 4-8.2 2.8-10.1-.7-1.3-2.6-2-5.5-1.9-7 .2-13.8 2.7-20.3 5a70.8 70.8 0 0 1-20 5c-10.2.5-13.5-4-18.5-11.8-2-3-3.7-5.6-5.7-5.9-1-.1-2 .3-3.2 1.3-6 5.2-6.4 14.8-6.1 22.6l.2 3.5c.3 3 .5 6 0 9.1a22 22 0 0 1-1.5 4.6c-.7 1.8-1.3 3.4-1.4 5.2-.2 4.1 1.9 8.5 3.9 12.7a68 68 0 0 1 2.4 5.4l1.4 4c1.6 5.1 3.3 10.3 7.7 13.5 8.5 6.2 19.7 2.6 26-3.8a.9.9 0 0 1 1.3 1.2c-6.8 7-19 10.8-28.3 4.1-5-3.5-6.7-9-8.4-14.4l-1.4-4c-.6-1.7-1.5-3.4-2.3-5.2-2.2-4.4-4.3-9-4.1-13.6 0-2.1.8-4 1.6-5.7.5-1.5 1-2.8 1.3-4.3.5-2.8.3-5.8 0-8.7a91.3 91.3 0 0 1-.2-3.5c-.3-8.2.1-18.3 6.8-24 1.5-1.4 3-2 4.6-1.8 3 .5 5.2 4 7 6.7 4.8 7.7 7.6 11.4 16.7 11 6.7-.3 13.2-2.7 19.6-5a69.3 69.3 0 0 1 20.9-5c3.6-.1 6 .8 7.1 2.8 2 3.5-1 9-3 12l-.7 1.2a55 55 0 0 1-8.1 10.7c2.3 3 3 7.7 3.3 10.6v.3a65 65 0 0 1-1.6 20.9c-.9 4.6-1.8 9.4-2 14.2 0 4.2.3 8.4.7 12.6.4 3.8.8 7.8.7 11.8-.1 9.4-2.5 20-7.4 33.4-3.8 10.4-8.7 20.3-13.5 30a997 997 0 0 0-4.5 9.2c3.2 8.6 2.2 19.5 1.3 28.5l-.2 2.9a214.6 214.6 0 0 1-8 44.3c-.1.7-.6 2-1.9 2.5-2.7.9-4.4-3-5.3-4.7l-.1-.4c-4.7-9.8-3-22.4-1-33.4 2.2-11.8 5-21.7 8.8-30.2a312.4 312.4 0 0 1 4.4-9.5 21.5 21.5 0 0 0-.7-1.6c-3-6-10-10.8-15.7-8.1-11.8 5.4-10.6 27.5-10.1 35.8 1 19.9 6.9 37.8 14.3 59.3l.6 1.6c2.3 5.8 4.5 12.3 2 14.8a4 4 0 0 1-3.6 1.2c-7.4-1.1-18.2-20.7-20.3-24.6a176.9 176.9 0 0 1-20.7-77.9c-.2-9.8 2-19.4 4.1-28.7 1.9-7.9 3.7-16 4-24.1.7-14-2.5-27.4-8.7-36.5-8.3-12.3-22.4-14.5-42-6.6a219.3 219.3 0 0 0-64.9 41.3l-1.5 1.4c-10.5 9.5-23.4 21.3-26 35.5a56.9 56.9 0 0 0-.3 2.8A139.4 139.4 0 0 0 83 165 338 338 0 0 0 92 163c15.4-3.9 31.3-7.8 46.3-.5a23.4 23.4 0 0 1 13.6 17.2c2.1 12.1-4.8 25.7-12.5 33.8-2.3 2.4-5.5 5.2-8.9 8.2-5.6 5-12 10.5-15.2 15-2.3 3.4-4.5 7.4-3 11.2l1 2.2c8.1 1.5 16 4.1 20.3 5.6l.3.1c4.4 1.5 12 4.4 12.8 7a1.8 1.8 0 0 1-.3 1.7c-.5.7-1.3.9-1.7 1-11.4 1.7-26-2.6-32.5-13.8-8-1.4-15.9-1.6-20.5 1.7-2.6 2-4 4.9-3.9 9 0 3.6 1.4 8.7 4 13.9l.3.1c26 8.3 42 14.3 42.3 18.5 0 .7-.3 1.7-1.9 2.4a30.6 30.6 0 0 1-12.2 2.6z" fill-rule="evenodd"/></svg>