<svg xmlns="http://www.w3.org/2000/svg" viewBox="0 0 324 532"><path d="m192 449.5 1.4-.8 3.4-.6a18.9 18.9 0 0 1 10.2 2c.5-.2 1.6.4 2.8 1.1 1.1.8 2.3 1.7 3.3 2 1.1.7 1.9.8 1.2 0 1.4 1.1.8 1.1 2.1 2l-.6-.1 1.2 1.2.8.2c1 1.4 2.2 1.6 3.4 3.2-.7-1 .6.3.7 0 0 .3.8 1.2.5 1 1 1.2 2.4 2 2.6 3.1l.5.4c.7.7 1 1.5 1.5 2.3h.2c.4.5 1 1.5 1.1 2l2.8 4.7c.4 1.7.6.8 1.2 2.3.2 1 .9 2.6.8 3.2-.4-1.3-.9-1.4-1.2-2.8 0 .6-.8-2.2-.7-1 1.3 2.5 1.6 6 2.4 8.4-.5-.2.1 3.1.2 4.2 0 1 0 1.7.2 3.2 0 1.8.1 3.6-.2 5.1-.3 2.2-.1 5 0 6 .8-2.8.3-5.4 1-7.4-.1 1.9 0 2 .2 3.5l.2-.8v.7c.2-.3.3.5.5.4V496c-.1 1.2-.3.4-.4 0v-1.2c0 .3-.1 1-.2.2v-1.7l.4 1c-.2-1.5.4-2.6 0-4l.4-.5v-1.4.1-1.6c-.2-1-.3-1-.5-1.2l-.2-1.6.3.8v-.8c0 .5-.2-.6-.3-.8l-.2-2.2c-.3-1-.4-2.4-.7-2.4-.2-2-.8-4-1.5-5.9l-.5-.7a17.4 17.4 0 0 0-1.1-2.6l-1.5-2.4h.1l-.8-.9c-.8-1.6-1.6-1.9-2.6-3.7-1.3-1.8-2.2-2.3-3-2.6-.8-.6-1.5-1.8-2.2-2.4l.6.3-.5-.7c-1-.9-1-1-2.5-2-1.7-1.7-1.8-1-2.8-1.4l-1.6-1.7v.1c-1.4-.4-1-.5-3.8-2.1v.3c-.8-.8-1.4-.7-2.6-1.3-.6-.3-2.4-1.5-3.6-1.6-2.3-1-3.7-.5-5.7-.7-1.3-.2-2.1.2-2.4-.1h.2l-.5-.4v.2c-.8 0-1.9.3-2.6.1l-1.5 1a5 5 0 0 1 1.3-.4c.4-.2 1.4-.4 2-.4l-.6.2c.7 0 .1.2 0 .2-1.5.2-1 .4-2 .7-.3 0-.8.2-.6 0-.6.3-2.2.8-2.1 1.1h-.2c.5.4 1.3.5 2.2.7Zm-28.5-374c-.5-2-1.3-3.7-2-5.1-1.7-4-4-6.6-6.5-8.8a36 36 0 0 0-19.5-8.4 54 54 0 0 0-10.2 0c-1.1.5-4.7.9-8.6 1.9a34.6 34.6 0 0 0-13.4 6.4c-.4.4-.2.4 1-.3l-3.5 2.3c-.7.5-1.4.9-2.9 2.3l.9-1.1c-1.1.8-2.4 1.8-3.6 3.2l-1 1.8a22.7 22.7 0 0 0-3.8 5.3 61.3 61.3 0 0 0-2.2 5.9c-.3.7-.5 2-.4 1.7-.3.8-1 4-.9 2.9-.4 2.3-.4 4.5-.4 6.4 0 2 0 3.7-.3 5v1.6c.1 2.9-.4 5-1 7.6v.4a75 75 0 0 1-5.5 12.5 55.9 55.9 0 0 1-4.3 6.3c-1.6 1.7-2 2.2-2.3 2.7-.4.5-.6 1-2.1 2.6l-6.6 6.1c2.6-2.7 2.7-3.3 5.7-6-.6.5.6-.6 1.5-1.7 1-1 1.7-2 .4-.7-2.5 2.8-5.7 5.5-8.6 8.6a26.9 26.9 0 0 0-3.6 5c-1 1.6-1.7 3.4-2 5.2 0-.4-.7 1.8-.5 4.4a17 17 0 0 0 1.9 7v.2A14.5 14.5 0 0 0 65 165a10 10 0 0 0 10.4-.2l2.9-1.6a22 22 0 0 0 7.3-6.1l1.1-1.8L88 154l2.2-1.8c-1.7.9-3.3 2-4.3 3.6s-2.2 2.8-3.5 4a34.3 34.3 0 0 1-8 4.8 42.8 42.8 0 0 0 7.7-5.5l-1.7 1.1 1.3-1c-.7.4.8-1.1.5-1.1a39.2 39.2 0 0 1-4.9 3.5c2.9-1.6 1.2-.3.4.4l-2.7 1.6c.7-.3 2.4-1.3.4 0-.5.3-1.2.8-1.8 1-.6.3-1.3.5-2 .6.8-.3 1.5-.6 2-1-1.4.8-3 .9-4.5.6-1.5-.2-2.8-.9-4.3-1.8l-.6-1c-.8-.7-1.5-1.5-2.2-2.4l.4.2a14.5 14.5 0 0 1-1.9-3.5l-.8-2a7.3 7.3 0 0 0-.3-.7 13 13 0 0 1-.3-4l.2 2v-3.7l.6-2.1.4-1 1.1-1.9c1.2-2.4 3.7-4.7 3.6-5l6-5.5c2-1.9 3.9-3.8 5.5-5.8l1.4-1.9a39.2 39.2 0 0 0 7.6-13.3v.5l.9-3.4c1.4-4.7 1.3-6.7 1.7-12.2.2-5.9.2-8.4 0-10.3.2-1.4.6-2.9 1.1-4.3.5-1.5 1.1-2.8 1.7-4l-.5 1.6 1-1.8c.7-1.6 1.2-2.4 1.8-3.3.5-.9 1.2-2 2.6-3.8l3.6-4c.6-.7.8-1.2 1.8-2 1.7-1.3 3.5-2.3 5.3-3.2h-.1c1.5-1 2-1.4 3.3-2 1.2-.5 3-1.3 7.2-2.5l-.5-.2c3-.5 4-1.2 7.8-1.7l4.9-.2 5.9.2c3.2.5 5.6 1 8 1.6a23.7 23.7 0 0 1 11.7 7.2l-.5-.4.6 1.2.3-.1c1.4 1.5 3.1 4 3.6 5.7a25 25 0 0 1 2.4 4.2l-1.4-3.6v.2a38.9 38.9 0 0 0-1.9-3.6c-1-1.7 0-.4.3 0l1.8 3 1.2 2.4c.2.6.6 2 .3 1.5l.5 1.7.3 2.2c.2 1.5.1 2.7.3 2.8v.4c.5-.6 1.1-2.7 1-5.6Z"/><path d="m110 152 2-3.8.8-2.2.5-2a19 19 0 0 0-.6-10.6c-.2-.7-.6-1.5-1-2a13.4 13.4 0 0 0-1.4-1.7l-.7-.7-.8-.8a10.7 10.7 0 0 0-5.8-2 9 9 0 0 0-4.3 1c-.5.2-.8.4-1.2.8l-.3.3-.2.1-.3.4c-.5.6-1 1.4-1.3 2.2l-.1.4v.5c-.1.1-.3 0-.4 0v-.7c0-.4 0-.9.2-1.3a6.3 6.3 0 0 1 3.3-3.6c3.2-1.7 7.1-.7 10.2 1.3 1.5 1 3 2.3 4 3.7 1 1.4 1.7 3 2.1 4.7.7 3.5.3 7.4-.5 11.1a26 26 0 0 1-4.4 10.4 14.5 14.5 0 0 1-4.2 3.8 9.7 9.7 0 0 1-5.3 1.5c-1 0-1.9-.2-2.6-.6a6 6 0 0 1-2.1-1.8 6 6 0 0 1-1.1-2.5c-.2-1 0-1.8.4-2.6l-2.4-1.1a14.3 14.3 0 0 0-.2 9.6c.6 1.6 1.4 3.2 2.5 4.5 1.1 1.3 2.3 2.4 3.4 3.5.8 1 1.5 2 1.9 3 .3 1 .3 2 0 3-.4 1.1-1 2.2-1.8 3a40 40 0 0 1-15 9.7 25.9 25.9 0 0 1-15.2.7c-.5-.1-1-.2-1.6-.5l-1.5-.6h-.2l-.4-.3-.7-.5-5.6-4.1a61.8 61.8 0 0 1-10-9.2c-3-3.4-5.2-7.4-6.4-11.9-1.2-4.3-1.2-9.2.6-13.5.9-2.1 2.2-4.2 3.5-6.5 1.3-2.2 2.6-4.6 3.2-7.5.1-.8.3-2 0-3.2 0-.3 0-.6-.2-1l-.1-.5-.3-.7-.8-1.1c-.2-.5-.8-.5-1.3-.4-.5 0-1 .2-1.6.4l-1.1.5a23.4 23.4 0 0 0-5.7 3.9c-.1.3-.4.5-.4 1.2v.5l.3.5c.2.3.5.3.7.4l-.3-.1.5.2h.8l.4-.3.6-.4 1-1a19.2 19.2 0 0 0 3.2-4.6 8 8 0 0 0 .8-3 4 4 0 0 0-.3-1.9 15.2 15.2 0 0 0-2.6-4c-1.3-1.5-2.9-3-4.3-4.4a43 43 0 0 1-9-47.3c3-7.4 7.4-13.5 11-18.3 3.2-4 6.2-7.6 8.7-10.4l5.5-6.3c2.3-2.6 1.4-1.9-4 4A158 158 0 0 1 74 17.2a74.7 74.7 0 0 1 4.4-2.7 81 81 0 0 1 25-9.7c3.8-.9 7.7-1.5 11.6-2a100 100 0 0 1 36.5 4.6c11 3.4 22 8.3 35 17.1l-4.6-3-1.4-1 3.3 2 6 4.1 2.5 1.8a71 71 0 0 1 9 9 36.9 36.9 0 0 1 2.3 3.7 57.4 57.4 0 0 1 7 17.8l1.5 9 .2 2.2.2 2.2.2 2.2.1 2.1c.5 11.3-1 21.2-3.2 28.3l-1.4 4.6-.8 2.3-.9 2.3c-3 7.7-7.4 13.8-12.4 19.1-5 5.3-10.5 9.8-15.8 15.3l-1.3 1.7a57.5 57.5 0 0 0-5.4 7c-.9 1.5-1.7 3-1.8 4.9 0 .9 0 1.8.5 2.6.3.9 1 1.6 1.7 2 1.5 1.1 3.4 1.3 5.1 1.2 1.7 0 3.4-.2 4.9-.5 1.5-.3 3-.6 4.3-.7l2-.2h1.7c6.6 0 13.4 2.5 19.4 6.4 6 4 11.3 9.5 16.1 15.2a527 527 0 0 1 14.2 17.5c4.5 5.9 8.5 11.9 11.7 18 3 6.1 4.3 10.3 5.2 13.3a76.8 76.8 0 0 1 2.8 12.7 125.8 125.8 0 0 1 .8 26.2 133.6 133.6 0 0 1-6.5 28.3 30 30 0 0 1-2.4 5.2c-.5.8-1.2 1.6-2 1.8a1 1 0 0 1-.6 0c-.2 0-.4-.3-.5-.4l-.8-.8.4.5.4.3c.3.3.7.5 1 .4.8-.2 1.3-.8 1.7-1.4.8-1.2 1.2-2.2 1.7-3.2l2-5.7a118.5 118.5 0 0 0 4.4-19.8 119.8 119.8 0 0 0 1.1-14c0 4.4 0-5.3-.8-13.5-.4-4-1-7.8-1.3-9.2-.3-1.4-.1-.6.5 4.5.8 5.3 1.1 10.8 1.3 16.5.3 5.6-.3 11.4-1.3 17.1-1 5.8-2.3 11.6-4 17.2a55.2 55.2 0 0 1-4.3 10.1c-.2.3-.5.6-.8.7-.3.2-.7.2-1-.2-.9-.9-1.8-2.2-2.3-3.5-2.2-5.5-4.2-11-6.8-16.3l-8.1-15.2c-2.7-5-5.5-9.8-7-15-.7-2.6-1-5.3-.6-7.9.2-1.3.6-2.5 1.2-3.6.7-1.1 1.7-2 3-2.3.5 0 1 .1 1.3.4l1 1c-.3-.3 0 0 .6 1.1a63.6 63.6 0 0 1 4.4 13.4 286.9 286.9 0 0 1 3.5 22l.6 5.9.6 5.7c.2 1.8.8 3.6 1.2 5.3l1.5 4.7 1.4 4.2 1.7 3.4.4 1c1.8 3.4 3.7 6.4 5 9.7.7 1.7 1.2 3.4 1.7 5.2.4 1.8 1 3.5 1.8 5.3.8 1.8 1.8 3.6 2.8 5.5l3 6a38.1 38.1 0 0 0 3.3 6.7c1.4 2.2 3 4.5 4.4 7.2.9 1.6 1.5 3.3 2.2 5a220 220 0 0 0 6 15c3 6.5 5.5 13.1 8.7 19.3 3.3 6 6.6 12 9 18 1.3 3 2.3 6.2 3 9.2.7 3.2 1.5 6.2 1.8 9.2a88.9 88.9 0 0 1-.2 17.1c0 .6-.2 1.1-.3 1.7l-.6 1.6c-1 2-2.4 3.9-3.8 5.7-1.5 1.8-3 3.6-4.2 5.7-.6 1-1 2-1.5 3.2l-1 3.3a34.7 34.7 0 0 1-5.3 12 21 21 0 0 1-4.6 4.1l-2.5 1.7-2.6 1.3a96.8 96.8 0 0 1-10 4.5c-3.1 1.2-6.1 2.1-8.7 3-1.3.5-2.4 1-3.4 1.6-1 .6-1.8 1.4-2.4 2 1.7-2 4.5-3 7-3.8l7.8-2.5a87.9 87.9 0 0 0 14.6-6.9 22.3 22.3 0 0 0 9.4-12.4l2.3-7.3c.7-2.4 2-4.5 3.6-6.5 1.5-2 3.1-3.8 4.5-5.9a15 15 0 0 0 2.6-6.8c.6-4.8.3-9.6 0-14.1 0-2.3-.4-4.6-.8-6.8l-1.5-6.5a78.1 78.1 0 0 0 .7 1.8l.8 3.7c1.2 4.8 1.3 8.8 1.4 12.4.2 3.6.3 7.1-.4 11.2-.4 2-1.4 4.1-2.8 6.1l-4.8 6.3 3.9-4.8c1.3-1.7 2.6-3.4 3.4-5.5-1.3 3.4-3.7 6-5.7 8.7 1.7-2 .4-.4-1 1.6a22.6 22.6 0 0 0-2 3.9c1-2.6 3-4.8 5-7.2 1.8-2.4 4-5.1 4.7-8.5.7-3.3.8-6.4.8-9.5l-.2-4.7-.3-4.6c.3 2.5.3 4.5.3 6a85.2 85.2 0 0 1 0 4.1c-.1-1.5-.3-6.2-.7-9.1-.2-3.2-1-6.4-1.7-9.4a58 58 0 0 0-.4-1c-.2-.8-.6-2.7-1.8-6a93.8 93.8 0 0 0-8.4-17.8l-1.6-2.9-1.4-2.9c1 2.3 2.4 4.4 3.6 6.6a211 211 0 0 1-.3-.9l-2-3.5-1.7-3.5-1.6-3.5-1.5-3.6-3-7c-2-4.6-3.9-9.2-5.6-14.1l-1.4-3.8c-.5-1.3-1-2.6-1.7-3.8-1.2-2.6-3-5-4.5-7.3-1-2-2-4-2.7-6.2l-.5-1.3-.6-1.3-1.3-2.5-2.5-4.8a42.5 42.5 0 0 1-2.8-7.2l-.8-2.7.8 2.4c-.5-2.2-1.3-4.4-2.2-6.5l-3-6a104 104 0 0 1-3-5.6l-.7-1.4-.6-1.4-1-3c-1-3.3-1.8-6-2.2-8l-.4-2.8-.3-2.2-.7-5c-.6-5.3-1.2-10.7-2-15.2l-2-10.3c1 4 1.9 8.2 2.6 12.4a261.6 261.6 0 0 0-1.7-9.8l-.3-1.5-.3-1.1-.3-1.4a70.2 70.2 0 0 0-3.5-10.1c-.6-1.3-1.3-2.5-2.2-3.5a7 7 0 0 0-.7-.7 3.7 3.7 0 0 0-2-.8h-.6c-2 .3-3.1 1.4-4 2.5-.7 1-1 2-1.4 3a18.2 18.2 0 0 0-.5 4.8c0 2.7.5 4.5.9 6 .9 3.1 1.8 5.7 5.3 12.3l6.2 11.5 3 5.6.7 1.4.3.6.1.2.2.4 1.1 2.6a309 309 0 0 1 5.2 12.4 10.4 10.4 0 0 0 2 3.1l1 .8.6.3.5.2a3 3 0 0 0 2.3-1l.8-1 .2-.3.1-.2.3-.4.7-1.4 1.3-2.8a142 142 0 0 0 7.4-35.3v-6a233.1 233.1 0 0 0-1.5-17.7A81 81 0 0 0 258 235a76.6 76.6 0 0 0-4.2-10.7c-2-4-4.2-7.7-6.7-11.4-4.8-7.4-9.6-13.3-14-18.8-4.3-5.4-8.3-10.4-13-15a64.2 64.2 0 0 0-7.6-6.6 43.5 43.5 0 0 0-4.4-2.8 41.1 41.1 0 0 0-16.3-5.1c-2.1-.2-4.3 0-6.5.3-2.2.4-4.2 1-6.4 1.1a33.3 33.3 0 0 0-2 .1c-1.4 0-2.8-.1-3.8-.8a1 1 0 0 1-.3-.2l-.3-.3-.4-.7c-.3-.5-.4-1-.4-1.7 0-1.2.5-2.6 1.3-3.9 1.7-2.7 3.7-5.1 5.6-7.3l5.9-5.9c3.8-3.7 7.4-7 11-10.7 3.4-3.7 6.6-8 9.5-13.3.8-1.2 1.4-2.7 2.2-4.1l2-4.6c1.1-3.2 2.4-6.7 3.3-10.6 0-.6.2-1 .3-1.6l.3-1.6.6-3a995 995 0 0 1 1-8.6v-2.7c.2-1.7.1-3.4.1-5 0-6.6-.8-12-1.6-16.8a58.6 58.6 0 0 0-7.4-20.7c-2-3.7-5-7.2-8.2-10.4-3.3-3.2-7-6-10.8-8.7a137.3 137.3 0 0 0-13.5-8.4A132.2 132.2 0 0 0 162 9.1a113.6 113.6 0 0 0-33-8 91.2 91.2 0 0 0-38 5.1 67.9 67.9 0 0 0-23.2 14.6c-4.7 3.9-9 8.2-13.2 12.6-4.2 4.4-8.4 8.8-12.4 13.5l.6-.6c-3.4 4.2-5.6 7.2-7.6 10-1.9 2.8-3.5 5.4-5.3 8.9a44.1 44.1 0 0 0-.1 43.7l-.9-2.2a41 41 0 0 0 6.6 10l1.5 1.6 3 3a25.7 25.7 0 0 1 3.8 5l.4.9v1c-.2 1.5-1 2.9-1.8 4.3a18.1 18.1 0 0 1-3 3.3l-.3.2H39v.2-.2c-.3-.1-.3-.1-.2-.4l.7-.8a23.5 23.5 0 0 1 6.2-3.6c.2 0 .5-.2.9-.1h.2l.1.3.3.4c.3.7.5 1.6.5 2.5 0 2-.6 4.1-1.7 6.3s-2.6 4.5-4 7c-.6 1.2-1.3 2.5-1.8 4-.4 1.3-.7 2.8-.9 4.4a28.2 28.2 0 0 0 4.9 17.6 50 50 0 0 0 11.5 11.7c1.6 1.4 3.3 2.6 5 3.8L63 191l1.3.8 1.3.6c3.7 1.4 7.5 1.7 11 1.5 3.5-.3 6.8-1.3 9.8-2.6a41 41 0 0 0 10-6.3l1.7-1.5c1-1 2-2.3 2.7-3.7a7 7 0 0 0 .8-4.4 8.2 8.2 0 0 0-2.2-4l-3.1-3.2a12.5 12.5 0 0 1-2.6-3.9 13 13 0 0 1-.1-9.5h.1c-.9 1.7-.7 3.8.1 5.4a7.4 7.4 0 0 0 4.4 3.8c2.4.7 5 .2 7-.8 2.1-1 3.8-2.5 5.1-4 2.7-3.3 4-7 4.9-10.1a45 45 0 0 0 1.3-8.1c.1-2.2 0-3.8-.1-4.8l.3 3.6c.1-2.5-.1-5-1.1-7.5a11 11 0 0 0-.7-.6c-1.5-2.7-4-5.1-7.3-6.7-1.6-.8-3.3-1.3-5.1-1.4-1.9-.1-3.7.3-5.4 1.1-1.6.9-3 2.2-3.8 3.9-.4.8-.5 1.7-.6 2.6-.1.9 0 1.9.1 2.8.1 1 .4 1.7.8 2.5.3.7.8 1.3 1.6 1.5.4.1.8 0 1.2-.1.4-.1.6-.4.7-.7.2-.6.2-1.1.2-1.7a36.4 36.4 0 0 0 0-3.3l.2-.8c.2-.5.6-.9 1-1.3.1-.3.3-.4.5-.6l.7-.4c2-1 4.4-.8 6.5.2 1 .4 2 1.1 2.7 2 .8.9 1.5 1.8 1.8 2.9.4 1 .8 2.2 1 3.4v3.4c.2-1.7 0-3.5-.4-5.2-.2-.9-.4-1.8-.8-2.6s-1-1.5-1.7-2.2a8.5 8.5 0 0 0-4.8-2.7c-1.8-.4-3.9-.1-5.4 1l.6-.3c-.4.2-.7.5-1 .9a6 6 0 0 0-1 1.4c-.3.5-.4 1.1-.4 1.8l.2 2c0 .8.1 1.6-.3 2.2-.6.5-1.5.6-2.1 0-.6-.5-1-1.2-1.2-2a10.4 10.4 0 0 1 .4-7c.7-1.5 2-2.6 3.2-3.3a9.6 9.6 0 0 1 4-1.2 11 11 0 0 1 3.6.3c-1.7-.3-3.4-.4-5 0s-3.2 1.3-4.4 2.4a9 9 0 0 1 2.8-1.8l1.7-.5a10.1 10.1 0 0 0-2.9 1.3c-1 .7-1.8 1.5-2.2 2.2a6.4 6.4 0 0 0-1.3 3.6c0 1 0 2 .2 2.9.2.8.5 1.6 1.1 2.1.6.6 1.4.4 1.8 0 .4-.6.3-1.2.2-1.7l-.1-1.5v-1.3l.6-1.4.9-1 1.1-1c.9-.4 1.9-.7 3-.8a9.2 9.2 0 0 1 6.5 2.4c.7.7 1.4 1.4 2 2.4.7 1 1 2.2 1.3 3.4.3 1.2.4 2.5.4 3.6 0 2-.3 3.3-.2 1.9a20.3 20.3 0 0 1-2 7.2l-1.4 2.6c-.3.5-.6 1-1 1.3l-1 1.2a7.1 7.1 0 0 1-5.2 2.5h-1l-.7-.2-.8-.3-.8-.4-.6-.7c-.4-.5-.5-1-.7-1.5 0-.4-.3-.8-.7-1-.7-.3-1.7-.3-2.6-.2a8 8 0 0 0-4.4 1.5c-2.3 1.7-3.2 3.4-3.3 3.6l-1.1 1.7c.5-.7 1.3-1.8 2.6-3 1.2-1.2 3-2.6 5.2-2.9h1.8c.7 0 1.2.1 1.3.3l.1.2.1.5.3.7a4 4 0 0 0 1 1.5l.8.6.4.2.3.1 1.5.5.5.1H102.1c1-.2 2-.3 3.1-.8s2-1.4 2.7-2l1-1.1 1-1.4Z"/><path d="M313.3 477.2a76.2 76.2 0 0 0-.7-17.8 33 33 0 0 0-1.1-5.7c-.6-2-1.4-3.8-2.8-5.4-.7-.8-1.6-1.5-2.5-2-1-.6-1.8-.9-2.5-1.2l-1-.5-.4-.3-.2-.1v-.3l.3-.1c.4 0 .8 0 1.5.4.6.3 1.3.8 2.3 1a5.4 5.4 0 0 0 5.7-1.3c.7-.7 1.2-1.4 1.6-2.1.9-1.4 1.5-2.9 2-4.2l1.5-4 3-7.5.6-2.2.3-2.1.3-2V419.5l.1-.5.2-1 .5-4.6.4-4.4a397.2 397.2 0 0 0 1.4-41.8c0-5.4.2-10.9-.9-16.5a37.5 37.5 0 0 0-1.6-6.2l-.2-.5-.1-.3-.2-.4-.2-.4-.2-.4a43.9 43.9 0 0 0-4.2-7.7 73.2 73.2 0 0 0-12-13.3c-4.6-4.1-9.8-8-15.9-11a57.4 57.4 0 0 0-15-5.2 32 32 0 0 0-11.7 0c-2 .6-4 1.4-5.7 2.6a13.4 13.4 0 0 0-5.7 10.5 30 30 0 0 0 1.7 11.3 73 73 0 0 0 4 10c3.1 6.4 6.7 12.3 9.8 18.3 3.2 6 5.7 12 8.1 18.3 2.5 6.2 4.9 12.4 7.8 18.5 2.9 6.1 6.2 12 9 18.2a75 75 0 0 1 6.7 19.5c.6 3.4.9 7 .6 10.5a59.2 59.2 0 0 1-4.4 15.5l-3.1 6.9c-1.2 2.6-2.3 5.6-3.5 8.8a46.8 46.8 0 0 1-4.7 9.7 24.5 24.5 0 0 1-4.7 5.3l-.6.4-.7.4-1.3.9-.3.2-.4.3-.6.5a17.4 17.4 0 0 1-5.2 3.3 45.7 45.7 0 0 1-9.5 2.5H255.5c-2.4 0-4.7.2-7 .4s-4.7.4-7 .2a19.7 19.7 0 0 1-4.2-.7c-.3 0-.4 0-1-.3a96.6 96.6 0 0 1-3.3-3.9v.5l-.1.3v.5a66.8 66.8 0 0 1 .1 4.3v.7l-.1.2-.2.5a11 11 0 0 1-2 4c-2 2.3-4.8 3.7-7.8 5-1.4.8-3 1.6-4.3 2.5l-4 2.5a17 17 0 0 1-8.3 3l.7 2 .3-.3 3-2.6-4 .7a244.7 244.7 0 0 1-36.8 3.6 75 75 0 0 1-10.5-.4c-3.2-.4-6-1.3-8.4-2.4-2.4-1.1-4.5-2.3-6.2-3.4l-4-2.8c-1.9-1.6-2.6-2-1.7-1.2l1 .8.7.7 1 .7 2.3 1.7a51.5 51.5 0 0 0-7.4-5.9l-1.9-1.9-1.7-1.8-2.8-3.4-2.1-3-1.7-2.8c-1.1-1.7-1.9-3.3-2.7-4.8a61.3 61.3 0 0 1-4.7-14l-.5-2-.3-2.2c-.3-1.5-.3-3.2-.5-5v-4.4l.1-1.6v5.8c.3 2 .4 3.9.8 5.8l-.3-2.1-.1-2.2c-.2-1.4-.1-3-.1-4.4v-2.3l.3-2.3v-2.5l-.1-2.5c-.4-3.2-1.2-6.5-1.7-10-.3-1.7-.6-3.4-.6-5.1 0-1 0-1.3.3-1.7.2-.2.5-.2.7-.2.1 0 .2 0 .3.2l.5.2.8.5.3.2.1.3 1 1.8 2.2 3.7 4.2 7.4c.8 1.7 1.3 3.7 1.6 5.5 0 1 .2 2 0 2.8l-.1 1.2-.2.2h-.1l.3.2c-1.4-1.2-1.8-3.3-2.2-5.3-.3-2-1-4.2-1.8-6-1.7-3.8-4.2-7-6.6-10-5-5.9-10.3-11-15.5-16.5a76.6 76.6 0 0 1-14-19c-1-1.8-1.8-3.8-2.7-5.8-.8-2-1.7-4-2.4-6.2a112.6 112.6 0 0 1-1.7-6.3l.5 2.4-1.3-5.5a156 156 0 0 1-1.9-10.3c-.4-3-.6-5.1-.6-4.3-.3-3.4-.1-12-.3-18.4l-.6-7.4c-.2-1.3 0-1.3.1 1 0-1-.2-2.2-.4-3.3l-.1-.8-.2-.7-.1-1.7-.8-6.4c-.5-4.3-1.2-8.5-2.3-12.6-.5-2-1.1-4-2-6-.4-.9-1-1.8-1.5-2.6a6 6 0 0 0-2.6-2.2l-.8-.3-.4.7-.8 1.6-1.2 2.7-2.4 5.2c-1.5 1.7-3 3.3-4.3 5-1.5 1.5-2.9 3.2-4.6 4.2l-5.3 3a16 16 0 0 1-5.4 2c-3.7.7-7.3.5-10.7.4a30.6 30.6 0 0 1-20-10.4c-4-4.5-6.3-9.8-7.4-15.2a45.3 45.3 0 0 1-.5-15.8c.7-5.2 2.2-10.1 4.2-15 2-4.8 4.5-9.4 7.5-14l1.5-2.7c2-3 4.6-6.5 7-10.6 1.2-2 2.4-4.3 3.2-6.6A30 30 0 0 0 28 235l.7-7.4a21.4 21.4 0 0 1 5.2-12 152.6 152.6 0 0 1 28-21.5c2.3-1.2 4.6-2.4 7.2-2.8 2.6-.3 5.3 0 7.9.4a109.9 109.9 0 0 0 76.2-15.7l6.2-4.1 5-3.5c3-2 5.5-3.1 7.7-3.9h.6l.5.4c.3.2.5.4.6.7.4.7.4 1.3.4 1.9a4 4 0 0 1-1.4 2.7c-1.5 1.3-3.2 1.9-5 2.8a137.2 137.2 0 0 1-21.5 8.3 181 181 0 0 1-18.8 4.5c-7 1.3-14.3 2-21.4 3.2a79 79 0 0 0-14.6 3.3c5-1.7 9.4-2.7 14-3.5l14.4-2.3c5.5-.8 11.9-1.9 19.9-4-6.2 1.5 7.5-1.6 18.5-6a153 153 0 0 0 12.2-5.4c1.8-1 .8-.3-6 2.6a170.5 170.5 0 0 1-23 8.1c-8 2.2-16.3 3.8-24.8 5-8.5 1.1-17.2 2.2-25.5 5.1a68.8 68.8 0 0 0-38.3 33.6 64.3 64.3 0 0 0-3.1 48.2A114 114 0 0 0 59.9 294c-.6-.8 1.4 2.6 4.9 8.6 1.7 3 3.8 6.7 5.9 11a98.7 98.7 0 0 1 9 30.7 30 30 0 0 1-.1 8.3c-.5 2.7-1.6 5.3-3.2 7.4a35.4 35.4 0 0 1-5.4 5.5l-5.5 4.7a28.3 28.3 0 0 0-4 5 33 33 0 0 0-2.6 4.7l-.7 1.5c-2 5.2-2.7 10.3-3 15.5a130.5 130.5 0 0 0 9 56.2l.9 2 .9 2.1.8 2 1 2 2 4 1 2c.4.6.9 1 1.3 1.7l.2.2c.4 1 1.3 1.9 2 2.7a58 58 0 0 0 7.5 6.6c3.4 2.7 6.9 5.4 10.5 7.9 3.7 2.4 7.5 4.4 11.1 6.6 3.7 2.2 7.3 4.5 10.7 7 3.3 2.6 6.7 5 9.6 7.9 3 2.8 6 5.7 9 8.3 3.1 2.5 6.3 5 9.9 6.7 3.5 1.6 7.3 2.6 11 3.5 2.8.7 5.7 1.3 8.6 1.8l.2-.7-1.4-.3-.1.8c5.8.9 11.6 1.9 17.5 2.7a78.4 78.4 0 0 0 13.5.6c1.5-.1 3-.3 4.4-.7 1.5-.4 3-1.1 4-2.1 1.3-1 2.2-2.2 3-3.5.8-1.2 1.4-2.6 2-4l.6-1.7c.1-.2.4-.4.7-.4.3 0 .5.1.8.3.5.3.7.8 1 1.4.3.6.6 1.2.7 1.9.2 1.3 0 2.7-.6 3.9a6.7 6.7 0 0 1-2.8 2.7c-1.1.6-2.5 1-3.4.2-.2-.2-.3-.5-.3-.8l.2-.8.7-1.8.8-1.8 1-1.5c2-1.9 4-3.3 6-4.7a100.6 100.6 0 0 1 10.8-6.3l1.4-1 5.3-3.6 2.5-1.6.6-.5.3-.2c.1 0 .2 0 .3-.2l.5-1.3a31.5 31.5 0 0 0 1.3-7.6v-2.2h.1v2c0 .6 0 1.3.3 1.7-.3-.5-.3-1.2-.3-1.8v-2l-.2.2v1.9c0 .7 0 1.3-.2 2a38 38 0 0 1-.7 4l-.6 1.9c-.3.6-.4 1.2-1 1.5l-3.4 2.2-6.7 4.4a92.3 92.3 0 0 0-16.6 10.7l-.7.8-.5 1-.8 1.7a85.3 85.3 0 0 0-1 2.9c-.1.4 0 .7.3 1 .4.6 1.1.9 1.9.9.8 0 1.4-.2 2-.5a7 7 0 0 0 3.2-10.1c-.4-.7-1-1.2-1.5-1.5-.4-.2-.7-.3-1-.2-.4 0-.7.3-.9.6l-.4 1-.4 1-.7 1.6c-.5 1.2-1 2.3-1.8 3.3-1.3 2-3.4 3.6-5.7 4.2-2.3.7-4.8.9-7.2 1a86 86 0 0 1-14.3-1.3l-14-2.1v.5l1.3.2.1-.5a162 162 0 0 1-11-2.3c-3.5-1-7-2.1-10.1-3.8a53 53 0 0 1-8.5-6.2 166.3 166.3 0 0 1 3.2 2.4c3.3 2.5 6.5 4.4 9.7 5.5 3.2 1.2 6.1 2 8.9 2.5l7.9 1.6-.2 1.2-1.4-.2.2-1.3 15.6 2.3a95 95 0 0 0 14.5.8 20.4 20.4 0 0 0-3 0 58.2 58.2 0 0 0 4.2-.5c.7-.1 2.3-.3 3.8-.8 1.6-.5 3-1.5 3.7-2.4l.9-1.1a9 9 0 0 1-3.5 2.8c-1.4.6-3 1-4.7 1.1a55 55 0 0 1-10.3-.1c-3.5-.3-7-.9-10.5-1.4l-10.5-1.6-.6 3.1 1.4.3.5-3.2c-2.8-.5-5.7-1-8.5-1.7 3.7.9 6.5 1.4 8.5 1.8l-.5 3-1.3-.2.4-3c8 1.2 5 .9 0 .2l-.4 2.5 1.3.2.5-2.4-7.2-1.3a58 58 0 0 1-12.7-4 53.1 53.1 0 0 1-8.5-5.5l-6.5-5.7c-2.3-2.1-4.5-4.4-7.1-6.5l-4-3a115.7 115.7 0 0 0-2.6-2.4l4.4 3.2c1.5 1.1 3 2.2 4.3 3.4-2.2-2-4.5-3.5-6.6-5.2l-6.7-4.6c-4.4-2.9-9-5.4-13.2-8a50 50 0 0 1-6.2-4.2 199.2 199.2 0 0 1-5.8-4.5 129.4 129.4 0 0 1-5.7-4.7 53 53 0 0 1-4.7-5.2c0 .1 0 0 0 0l-.1-.2-.2-.3-1-1.4-.2-.1-.2-.4-.4-.8-1.6-3.1-1.5-3.2-1.4-3.3c-2-4.4-3.6-9-5.1-14-.8-3.2-1.6-6.5-2.1-9.8a126.8 126.8 0 0 1-2.9-30.7l.1 3.5c0-6.2.4-12.4 1.8-18.2a33.8 33.8 0 0 1 5.6-12 26 26 0 0 1 3-3.1c1.8-1.7 3.6-3.1 5.2-4.5a42 42 0 0 0 4-4 19.3 19.3 0 0 0 5-14.7c-.8-16.2-7-30.5-9.9-36.2a98.3 98.3 0 0 1 6.9 17.2 100.8 100.8 0 0 0-15-32c-9.9-16-11.8-22.2-13.2-26.8a55.3 55.3 0 0 1-2.1-19 61 61 0 0 1 19.7-43l4.2-3.8c7.2-5.7 15.8-10 24.9-12.2 9-2.4 18.7-3 28.4-4.7A174.8 174.8 0 0 0 167 175l3.2-1.4c1-.5 2.3-1 3.5-2 .5-.5 1.1-1.1 1.5-1.9a5.1 5.1 0 0 0-.3-5.5 4 4 0 0 0-1.3-1l-1.5-.6-2 .7-1.2.5-2.4 1.2-4.5 2.7c-2.8 2-5.3 3.9-8 5.6a107.3 107.3 0 0 1-32.5 14.4c-5.2 1.3-10.3 2.3-15.2 2.8l-1.8.2h-1.9l-3.6.3c-2.3 0-4.7.2-7 0-4.6 0-9.1-.5-13.6-1.1-2.3-.4-4.7-.8-7.3-.8a17.3 17.3 0 0 0-7.5 1.8c-2.3 1-4.4 2.4-6.5 3.7A148.1 148.1 0 0 0 37.9 209c-2.1 2-4.4 4-6.4 6.5a22.7 22.7 0 0 0-4.7 12.3L26 235a28.6 28.6 0 0 1-4.3 12.8c-2.5 4.1-5.2 7.7-7.6 11.3-2.4 3.6-4.4 7.1-6.2 10.6-3.6 7-6 13.9-7 21.2-.5 3.7-.6 7.5-.2 11.4.4 4 1.2 8 3 12 1.6 4.1 4.2 8.2 7.9 11.7a31 31 0 0 0 26.2 8.6 26.6 26.6 0 0 0 8.3-1.8l1.2-.7 1-.6 4.4-2.4 2-1.5 1.8-1.7 3-3.3a686.4 686.4 0 0 1 2.8-3.3l3.5-7.6.5-1v-.2h.3l.4.4.5.6.4.6c1.1 1.8 1.9 3.8 2.5 5.8a141.5 141.5 0 0 1 3.2 15.8l.5 4.4.3 2.2v.6l.2.4.2 1c.3 1.4.3 2.9.5 4.4l.2 2.4.1 1.1.1 1.2.2 9.5c0 3.3 0 6.6.4 10a130 130 0 0 0 4.8 24.1l1.8 4.4c1.2 2.9 2.3 5.7 3.7 8.3 1.4 2.7 3 5 4.6 7.3l-2.1-3-1.9-3a63.7 63.7 0 0 1 6 9.2c4.2 5 7.9 8.8 11 12 3.1 3.3 5.8 6 8.3 9 2.5 3 5.1 5.8 7.4 9.5 1.2 1.9 2.2 4 2.9 6.3l.8 4c.2.8.4 1.6.8 2.5.4.8 1 1.6 1.7 2.2l.2.2.4.1a2 2 0 0 0 1.6-.3c.5-.4.7-.8.9-1.2.3-.7.3-1.3.4-2a21 21 0 0 0-2.2-9.5 95.4 95.4 0 0 1-.6-1l-1.2-2.1-4.6-8.4-.5-1-.4-.6c-.1-.3-.5-.4-.6-.6l-1-.6-.5-.4-.8-.3c-.5-.1-1-.3-1.5-.2l-.8.2-.6.4c-.7.7-1 1.9-1 2.7a78.4 78.4 0 0 0 .8 7.3l1 5.9a52.8 52.8 0 0 1 .8 6.9l-.1 2-.1 2v4.9l.7 5.2.4 2.4.6 2.4c.9 3.3 2 7 4.6 12.4a63.2 63.2 0 0 0 26.8 28.5 33 33 0 0 0 13 3.4l-1.2-.1c2.6.2 4.9.1 7 .1a254.2 254.2 0 0 0 15.6-.7c6.2-.5 12.6-1 23.3-2.8l-.5-1-.2.2-1.3 1h1.6a16 16 0 0 0 7.1-2.1c2.4-1.3 4.8-3 7.5-4.6 1.3-.8 2.8-1.4 4.4-2.2 1.6-.8 3.2-1.7 4.7-3a13.6 13.6 0 0 0 4.5-7.2v-.5a6 6 0 0 0 .1-1.4v-.2l.4.4c.8.8 3.2 1.3 5.2 1.5 2.2.3 4.4.2 6.7 0a48 48 0 0 1-3.4 0c3.2-.1 6-.5 8.7-.6l4-.1h2l1.8-.1a36.7 36.7 0 0 0 10.5-3.3 17.6 17.6 0 0 0 4.5-3.3l1.5-1 1.6-1a9 9 0 0 0 1.6-1.3c1.9-1.9 3.5-4.2 5-6.7 2.9-5.2 4.5-11.7 8-18.9l3-6.6a39 39 0 0 0 3.8-20.7c-.4-4-1.3-8.3-2.6-12.4-2.7-8.4-7.1-16.4-11-24a187 187 0 0 1-5.3-11.2l-4.3-10.3c-2.5-6.6-5-12.7-7.7-18.3s-5.7-10.6-8.4-15.5c-2.6-4.9-5-9.7-6.6-14.6-.8-2.4-1.5-4.8-1.7-7.3-.3-2.5-.2-5 .5-7.3.7-2.4 2-4.5 4-6 2-1.4 4.3-2.3 6.7-2.8 4.8-.9 9.9-.1 14.7 1.2a66.5 66.5 0 0 1 28 16.9 60.4 60.4 0 0 1 13 17.8l.5 1 .4 1a41.5 41.5 0 0 1 2.4 11.5c.3 4.8.2 8.8.2 12l-.1 6.8v-5.2l-.5 10.7.3 1.3c-.3 10.6-1.1 24-2.5 36.1l-.3 1.5-.2 1.4-.4 2.8c-.2.9-.6 1.7-1 2.6l-.9 2.5-3.6 9c-.6 1.6-1.2 3-2.2 4.4-.5.6-1.1 1.1-1.8 1.4-.7.3-1.4.3-2.2.1-.7-.2-1.4-.6-2.2-1-.8-.3-1.7-.6-2.6-.6-1 0-2 .6-2.2 1.6-.2.4-.1 1 0 1.4l1 1c1.4 1.1 3.1 1.5 4.5 2.3a9 9 0 0 1 3.2 3.7 27.6 27.6 0 0 1 1 2.3 14 14 0 0 0-1.6-3.6c-.7-1-1.7-2-2.8-2.7-1.2-.6-2.5-1-3.7-1.8-.5-.4-1.1-.8-1.3-1.4-.2-.4-.2-.7 0-1 0-.4.2-.7.5-1 .5-.4 1.2-.5 1.9-.4.7 0 1.3.3 2 .6 1.1.6 2.4 1.4 3.8 1.2l-1-.1c.7.1 1.7 0 2.5-.6a7 7 0 0 0 2.1-2.3c.6-1 1-2.1 1.5-3.3l1.4-3.6 3-7.9.7-2c.3-.7.4-1.4.5-2.1a478.5 478.5 0 0 0 1.1-7.2c.8-8.4.9-9.1.8-7.1l-.8 9-.1 1-.3 1.5-.2 1.4-.4 2.7c-.1.9-.4 1.6-.7 2.4l-.8 2.1-2.7 6.9-1.9 5c-.6 1.3-1.3 2.5-2.3 3.4-1 1-2.5 1.4-3.9 1-1.4-.2-2.5-1.2-4-1.5-.7-.1-1.4 0-1.9.4-.2.3-.4.7-.4 1 0 .4.3.8.6 1 .7.7 1.9 1.2 3 1.7a9 9 0 0 1 3.8 2.7c.9 1.2 1.7 2.9 2.2 4.6a29.6 29.6 0 0 1 1.1 7.7c.4 3.8 1 9.1.5 15-.4 6-2.6 12.2-4.8 17.8-4.5 11.1-9.2 20.3-9.3 21l-1.4 2.7a194.2 194.2 0 0 0 15.3-32.9c1-2.5 1.5-5.3 1.8-8.1Z"/><path d="m299.5 507.4-.5 2c-1.7 3-1.6 5-3.6 7.8-.8 1.3-1.6 2.4-2.4 3.3-.9 1-1.8 1.7-3 2.4-.2.6-1.4 1.2-3 1.7-1.4.4-3.2.6-4.2 1-1.4.3-2.2.7-1 .8-2.2.2-1.6-.2-3.4 0l.6-.4-2-.2-.8.3c-2-.5-3.2 0-5.4-.5 1.4.4-.7 0-.6.3-.3-.1-1.7-.4-1.2-.4-1.8-.4-3.7-.4-4.5-1.3l-.7-.2c-1.1-.3-1.9-1-2.9-1.5l-.2.1-2.5-1c-2-.6-4.4-.5-6.4-.7l-1.5-.3c-.3 0-.5.2-1.4-.2-.6-.3-1.3-.7-1.9-1.2l-.7-.8a2 2 0 0 1-.4-.7c.5.7 1 1 1.3 1.2l1.6 1c-.3-.3.4 0 1 .2.5.1 1 .2.3-.1a5.4 5.4 0 0 1-3.8-3c-.4-.7-.6-1.5-.8-2.3l-.5-2.4c.2 0 .2-.1.2-.5l.2-1.3c.1-1.1.4-2.3.7-3h.1c.5-1 .9-1.6 2-3 1.3-1.5 3-2.7 4.7-3.2a54 54 0 0 0 6.3-2.6c-.8 0-1.6.2-2.3.4l-2.1.7a27.5 27.5 0 0 1-3.9 1.4c2.1-1 2.2-1.1 3.7-2l-.9.2.7-.4c-.5 0 .4-.5.3-.6l-2.6 1.1c1.4-.5.6.1.3.4l-1.4.7c.4-.1 1.2-.5.3 0-.5.3-1 .8-1.7 1l.8-.8-2 1.4c-.8.4-1.4 1-2 1.7l-.6.3-.5.7-.5.8v-.2l-1 2c-.3 1.2-.1 1.4 0 1.6l-.2 1.3-.1.8-.2-1-.1 1c.1-.7 0 .7.2 1v1.7l.1 1.1.5 2c.3.7.5 1.1.7 1.1a7.3 7.3 0 0 0 3 3.2c1.2.8 2.5 1.1 3.6 1.4h1l3.1.5c1 .1 1.8.2 2.9.5h-.2l1.3.3c1.6.9 2.4 1 4.6 2.1 1.2.6 2.2.8 2.9.8a5 5 0 0 0 1.7 0c1.2 0 2.7.4 3.8.6h-.8l1 .3c1.5 0 1.6.2 3.7.2 2.8.2 2.4-.4 3.6-.7l2.7.2c.7-.4 1-.5 1.5-.6.6 0 1.5-.1 3.3-.7l-.2-.2c1.2-.2 1.6-.7 3-1.5l2-1c.7-.5 1.4-1.2 1.8-1.8 1-1 1.6-1.9 2-2.8l1.5-2.8c.9-1.2 1-2.3 1.5-2.4l-.2.3.6-.3-.2-.2c.5-.8 1-2 1.5-2.5l.3-2.1-.6 1.5c-.1.4-.6 1.6-1 2.1l.3-.7c-.4.8-.3 0-.2-.2.8-1.4.4-1.1.8-2.3.1-.3.4-.8.4-.6.2-.7 1.1-2.5.9-2.6v-.2c-.5 0-1.2.7-2 1.5Z"/></svg>