<svg xmlns="http://www.w3.org/2000/svg" viewBox="0 0 1174 629"><path d="M621.2 15.7c1.2 0 2.5.2 3.4 1.2.6.7.9 1.5.8 2.4-.2 2.3-2.6 4.4-8.5 9.3-5.1 4.3-11.6 9.6-15.1 14.8-3.5 5.2 0 26 2.4 41.1 2.5 15.3 3.8 24.2 2.2 27.8-1.5 3.8-9.3 7.8-24 15-10.5 5.2-22.4 11-29.8 16.5-5.4 4-6.2 5.7-2.4 11.2 8.3 11.8 26 36.3 46.5 64.6 31 42.8 66 91.3 77.8 109.2a68 68 0 0 1 8.4 16.7c40.3-13.3 117-75.2 152.3-103.7l.1-.1c3.3-2.6 4-8 2.4-15.9-4.3-20.7-25.4-58-58.1-102.4-29.2-39.7-54-66.7-58.4-68-6.3-1.2-21.2 7.7-34.4 15.6l-10.4 6-4.8 2.8c-9.1 5.4-15.1 9-20 6.4-3.6-1.9-5.5-6.8-6.3-17l-.4-5.6c-1-21-2.9-46.5-5.3-49.7-2.7-2.6-26.6-10.4-31.2-8.7-16.8 5.9-42.5 24.2-45 29.6C561.5 40 569.8 90 575 108c.1-7.4-.4-19.3-.8-28.8-1.3-27.4-1.6-40.7.8-44.1 3.8-5.4 37.2-19 45.7-19.5h.5zM767 365c-2.7 8-4.4 16-4.6 23-.1 6.7 1.3 11.7 4.1 14.3 2.4 2.2 5.8 4.4 8.7 2.9 3.8-2 6-9.5 5-16.5A34 34 0 0 0 767 365zm-265.7 65.6c-4.5 5-17.4 20.8-11.6 36.7 2.2 6 5.6 9.5 9.5 9.7 4 .3 8.1-3 10.8-8.4 5-10 4.4-20-1.8-29.7-2-3-4.2-5.7-6.9-8.3zm247-71.2c-15.9 0-34.5 9.8-40.4 27.7a81.5 81.5 0 0 0 17.8 84.4 143.5 143.5 0 0 0 46 31.5c6 2.6 15 5.7 23.4 6.3 6.8-12.6 13.3-27 18.8-42.4v-.1a276.2 276.2 0 0 0 18.5-82c2.3-29.9-4-51-17.2-57.8-8.6-4.4-19.6-2.2-29.4 6a71.3 71.3 0 0 0-17 27.2 38.7 38.7 0 0 1 16.4 27.8c1.2 7.9-1.1 18.1-7.6 21.6-2.5 1.3-7.7 2.6-14.5-3.6-4-3.7-5.9-9.8-5.7-18.2.2-7.7 2.2-16.7 5.2-25.4-3.3-1.5-7-2.5-11-2.9a37 37 0 0 0-3.2 0zm-302.7 48.8h-2.2a61.4 61.4 0 0 0-43.3 21 72.3 72.3 0 0 0-18.1 53c2.8 39 25.2 61.2 51.2 86.9l2.4 2.4c20.2 20 40.2 34 59.9 42a209 209 0 0 0 66.4-39.6c30-26.3 49.6-51.5 58.2-74.9a72 72 0 0 0-12.2-74 55.2 55.2 0 0 0-41.4-19.4 87.9 87.9 0 0 0-61.6 21.5c2.9 2.8 5.4 5.8 7.5 9 7.1 11.1 7.9 23.1 2 34.8C511 478 505 482.3 499 482c-3.5-.2-10-2.1-13.9-13-5.5-15 2.7-31.1 12.6-41.7a88.5 88.5 0 0 0-52-19.1zM409 629c-14.1 0-28.6-.6-45.3-1.6-20.5-1.2-21.5-24.6-22.6-47.3l-.6-12c-.8-10-1.2-30.8-1.7-54.8-.6-28-1.3-59.8-2.6-85.9-1-19.4-2.2-31-3.2-37.9-1.7 21.8-2.2 68.8-2.6 111.3-.5 44.5-.9 83-2.5 92.5-1.8 10.8-4.8 24-11.7 29.6-5.8 4.7-16.1 5-25.2 5.1-3 0-5.6.1-7.9.3h-.1c-11.7.3-34.7-.4-63.8-1.4-63.8-2-160.3-5.2-216.4 1a2.5 2.5 0 0 1-2.8-2.2 2.5 2.5 0 0 1 2.2-2.8c56.5-6.2 153.2-3 217.2-1 29 1 51.8 1.7 63.3 1.4 2.4-.2 5.2-.2 8.2-.3 7.9-.2 17.7-.4 22.1-4 6.3-5 9-21.3 10-26.6 1.5-9 2-49.2 2.4-91.7.5-55.9 1.1-113.7 4.3-123.7a2.5 2.5 0 0 1 4.2-1c6.6 6.7 8.3 61.1 9.9 137.2.5 24 1 44.6 1.6 54.4l.7 12.3c1 21.4 2 41.6 18 42.5 39.8 2.4 67.2 2.6 106.5-2.7 5.7-.8 11.6-2.1 17.7-3.9a200.3 200.3 0 0 1-56.2-40.7l-2.4-2.4c-26.7-26.4-49.8-49.2-52.7-90.1a77.3 77.3 0 0 1 19.3-56.7c12.4-13.8 29-21.9 46.9-22.6 17.6-.8 41.8 7 58 20.5a93 93 0 0 1 65.6-23.2c18.9 1 34.8 8.6 45 21.4 35.6 44.8 20 97.2-46.6 155.7a216.9 216.9 0 0 1-62.5 38.5c6.5 2.1 13 3.6 19.3 4.5 33.5 4.3 68.5 3.2 102.4 2h2.4c18.5-.6 26.5-2.5 30.6-7.2 4.4-5 5-14 6.2-29 .3-3.5.5-7.6 1-12 2.6-31.1 11.1-191.7 1.6-205.4-.5-.7-3.5-3.2-21.7-5-12.3-1.2-29-2-51.4-2.2-41.4-.5-93.9.8-144.6 2-56.8 1.2-110.4 2.5-139.6 1a2.5 2.5 0 0 1-1.5-4.4c28.7-23 144.7-136.6 175-171.2 19-21.9 29.5-34 40.4-33.5 10.3.4 20 12.1 34.5 31.4 7.6 10.1 21.3 31.6 37.3 56.5 14.9 23.2 31.7 49.4 45.6 69.7 21 30.4 26.7 34.4 28.2 34.6 2.8.2 6-.2 9.7-1.1a63.2 63.2 0 0 0-7.8-15.4 4935 4935 0 0 0-77.7-109c-20.5-28.3-38.2-52.8-46.5-64.7-5.9-8.5-3-13.2 3.5-18 7.8-5.8 19.9-11.7 30.5-17 8.7-4.3 20.7-10.1 21.7-12.4 1.1-2.5-1-15-2.5-25-3.7-22.3-5.9-38.5-1.7-44.7 4-5.9 10.7-11.5 16.1-16l4.3-3.6c-10.2 2.5-36.3 13.5-39 17-1.6 3-.5 25.8.1 41 1.6 34.9 1.3 39.4-2.7 39.8-.7.1-2 0-3-1.5-4-5.4-9.5-36.5-10.6-42.7-1.9-11.1-6.1-37.5-4-42 3.6-7.7 31.4-26.4 48-32.3C613.8-2 640 7 643.2 10.5c3 3.2 4.8 18 6.6 52.9l.3 5.4c.7 7.7 2 12 3.8 13 2.3 1.2 8.2-2.3 15.1-6.3a546.9 546.9 0 0 1 4.8-2.7l10.3-6.1c15.3-9.1 29.8-17.7 38-16.1C730.1 52 762 91 782 118.2c15.5 21 52.3 73 60 104.2 2.8 11.2 1.6 19-3.5 23.1l-.2.2c-38.3 31-112.7 91-154.2 104.6 1 5 1 9.5 1 14.5l.1 9.8c1 16.5 1.1 166.7-4.6 220.8-1.3 12.1-.7 15.5 0 16.1 1.5.4 8.3-4.4 13.2-7.9 31.9-22.8 56.8-43.2 74.8-58.4 7.6-6.4 15.9-17.3 23.8-31.2a81.7 81.7 0 0 1-22.7-6.3 148.9 148.9 0 0 1-47.6-32.7 86.3 86.3 0 0 1-18.9-89.5c7-21.4 30.3-32.5 48.7-31 4.6.4 8.7 1.5 12.5 3.2 4.8-12 11.5-23 18.3-28.6 11.3-9.5 24.3-11.9 34.8-6.5 8.8 4.6 23.2 18.8 20 62.6-3 39-11 61.5-18.9 83.3a321.3 321.3 0 0 1-17.8 40.7 19 19 0 0 0 11.4-4.8c14-13 27.2-26.8 37.8-37.8l1.1-1.1c5.7-5.8 4.6-13.3 2-33.4-1.4-10.2-3.2-23-4.7-40.2-1-10.7-2.2-22-3.5-33.7-3.5-31.5-7-64-5.7-94 .3-8.5 1.5-11.7 4.4-11.8 2.9-.1 4.3 3 5.5 11.4 3.8 26.7 6.4 51 9.5 79.3l6.4 57.6.7 6.2c2.2 21.6 5.3 51.2 32 59.5 28.4 8.8 226.8 7.6 273.5 2 1.4-.2 2.6.7 2.8 2.1a2.5 2.5 0 0 1-2.2 2.8c-47 5.7-246.8 6.8-275.6-2.2-29.8-9.2-33-40.7-35.5-63.7l-.7-6.1-6.4-57.7c-3-28.1-5.6-52.4-9.4-79v-.3c-1.4 29.7 2.2 62 5.7 93.3 1.3 11.9 2.6 23 3.5 33.9 1.5 17.1 3.2 29.8 4.6 40 2.9 21.1 4 29.9-3.3 37.5l-1 1c-10.8 11.2-24 25-38 38-4.4 4.1-10.3 6.2-17.6 6.3-8 14.2-17 27-26.2 34.7a1186.2 1186.2 0 0 1-75.2 58.7c-9.2 6.5-14.7 10.4-18.7 8.1-3.7-2.1-3.7-8.4-2.4-20.9 5.7-53.9 5.5-203.5 4.7-220-.2-3.8-.2-7.2-.2-10.1 0-4.8 0-8.8-.8-13.1-4.2 1-8 1.5-11.2 1.3-8.4-.5-30.7-33.3-77.7-106.6-16-24.8-29.7-46.2-37.1-56.1C538 170 530 161 522.6 160.8c-8.5-.3-19 11.8-36.5 31.8-28.8 33-135.2 137.4-170.5 167.6 30 1 80-.2 132.7-1.4 50.8-1.1 103.4-2.4 144.8-1.9 62.8.7 74.3 5.1 77.2 9.3 11.7 16.9.6 193-.8 208.8l-1 11.9c-1.1 16-1.8 25.7-7.3 32-6 6.6-17 8.2-34.2 8.8h-2.5c-34 1.2-69.2 2.3-103.1-2-8.6-1.2-17.3-3.5-26-6.9-8.3 2.8-16.4 4.8-24.1 5.8A448.4 448.4 0 0 1 409 629z" fill-rule="evenodd"/></svg>