<svg xmlns="http://www.w3.org/2000/svg" viewBox="0 0 3284 3404"><path d="M1524.6 3232.6a18222.5 18222.5 0 0 1-462.5 44.9 55005.6 55005.6 0 0 1-536.5 42.4c-97.6 6.2-193-12.5-284.2-47-72.5-27.5-161.3-68.9-208-134a94.7 94.7 0 0 1-17.1-66.2c.3-2.8 1.7-7 2.4-9 2.4-3.9 5-7.6 7.7-11.2a228.7 228.7 0 0 1 38.5-39c60.6-50.7 139.2-79.8 214-101.7 102-29.8 208.8-41.7 314.7-43.3 240.4-3.5 460.2 66.7 676.7 162.4a4401.8 4401.8 0 0 0 457.5 174.4 3742.5 3742.5 0 0 1-203.2 27.3zM1599 797c-81.7-50.2-128-141.2-156.3-229.6-30-93.8-42.9-198.4-26-295.7a284 284 0 0 1 215.1-229.8c100.4-24.4 192.8 30.3 261.1 99 85 85.4 97.3 189 77.6 303.9-16.6 97.2-37.3 220.8-109.5 292.8-52.8 52.7-130.7 72.3-200.3 91.6l-2.7.7a839.2 839.2 0 0 1-59-33zm-12.2 1057.6c-11-57.4 4-123 7.6-181.1 2-30.3 5-60.4 9.2-90.4 4.5-31.7 7-77 33.2-98.7 69.9-57.6 110.7 232.8 116.7 270.3 13.1 80.8-2.3 147-46 214.1-4.4 7-9.2 13.5-14.2 19.9-50.8-32-95-73.4-106.5-134zm1689.8 1134.9c-20.5-68.5-93.6-114-152-146.9-61.8-34.8-128.3-59.8-193.1-88-192.7-84-402.2-165.8-614-185.3-126.5-11.6-248.8-13.8-375.6-16.2-153.2-3-306.3-20.3-452.3-68.9-174.5-58.2-326.6-164.7-449.8-300.3-63.5-69.9-128-148.2-159.7-238.3-28.3-80.3-30.9-168.5-24.5-252.5 13-172.5 68-353.8 159.8-500.8 80.9-129.2 247.7-188.8 383-242 79.5-31.3 160.8-59 243-82.3l17.7 9c200.9 100.2 446.4 103.4 628.7 241.5 114.5 86.8 153 244.7 182.3 378 35.8 162.7 54 336.8 31.5 502.7-11.3 83.8-41.2 170.8-127.2 203.9-81.1 31.1-187.1-15.8-264-39.6-114.3-35.4-227-77.2-334.4-130.1a969.9 969.9 0 0 1-75.7-40.4 711.9 711.9 0 0 0 59.2-128.9c25-68.8 13.2-135.2-.5-205.8-7.3-37.7-29-249.3-102.3-214.2-32.7 15.7-47.8 80-56.4 111-15.8 57.2-20.2 118.2-23.1 177.2-3 59.7-18.5 123.5-1.1 182.2 13.2 44.7 47.8 78.7 88.8 106.1-126 123.9-350.2 146.2-467.4 119-132-30.7-93.4 20-1.6 39.9 91.7 19.8 314.9 5.5 437.4-104.3 16-14.4 30.3-30.3 43.1-47.1 40.3 25 85.3 44.3 121.7 61.4 108.2 51 222 89.7 336.4 124.1 78.5 23.6 170.4 58 248.5 16 107.7-58 134.6-230 141.6-337.8 10.6-164-12-332.3-52.1-491-17.6-69.6-40-138.7-72.3-203-35.6-71-92.6-120.6-161.3-159.8-96.6-55-208.6-80.8-314.8-110.6-76.2-21.3-151.1-45-222.8-76.9 52.3-16.3 102.8-37 143.7-75 39.7-37.2 62.7-90.8 81.3-140.9a1185.1 1185.1 0 0 0 67.5-277.7c12.2-109.5-24-196.3-102.8-271.6-73.4-70.2-168-104-267.3-74.8C1469.3 56 1396.5 240.7 1393 388c-2.2 95.6 20.8 196.3 58.5 283.7 33.7 78.2 85.2 132 152.2 174.4-63.9 19.7-127 42.3-189.2 66.5-131.5 51-309.7 126-391.9 248.1-72 107.2-105 186-147 343.5-41.6 156.1-63.2 332.2-8.4 488.1 31.8 90.3 125 194.4 189.8 262.8 74 78 360.2 355.4 1063.2 322.5 58.6-2.7 135 13.4 193.4 18.7 92.5 8.5 183.6 36.2 271.5 64.7 115 37.3 225.5 85.7 336.2 134 66 28.8 132.8 54.9 195.7 90.2 60.1 33.9 125.1 80.2 145.8 149.5 24.7 82.5-52.5 149.5-112.6 191.8-131.2 92.3-312.7 137-472 126.8-115.7-7.4-232.8-30.8-347.1-50a5735.7 5735.7 0 0 1-299.7-58.4c-56-12.5-111.6-26.1-167-41 34.3-11 68.5-23 103.7-35.6 66.2-23.7 126-56 194.6-72.7 73.4-17.9 293-79.1 331.6-95.9 31.5-13.7 79.2-46.9 41.7-67.3-37.6-20.4-252.6.3-337.7 7-38.2 3-66.9-5.9-103.3-15.4-21.2-5.5-138.2-56.2-176.3-61.3-62.7-8.5-139.4 7-158.1 75.5-9.6 34.9 3.4 69.8 15.9 102.2-3.8-23.8-8.6-51.4-5-76.3a73.4 73.4 0 0 1 28-50.8c31.4-23.8 77.6-23.9 115-19.7 100.3 11.2 185 69.4 288.9 63.2 95.6-5.7 191.5-15.3 287.4-16.4 18.3-.2 47.3 31.9-59.5 69.5-50.3 17.6-221.9 60-255.8 68.3-72.7 17.8-138.8 44.9-209.4 69a1364 1364 0 0 1-154.6 42.2 3368 3368 0 0 1-213.2-68c-182.9-65.2-355-158-539.2-219.3a1420.8 1420.8 0 0 0-393-70.7c-186.5-7.1-400.7 20.1-559.7 125.5-70.2 46.5-145 150-81.5 230 52.3 66.2 148.8 105.6 225.3 133.1a657 657 0 0 0 265.4 37.4c263.8-17 1047.3-90.3 1174.6-110.3 35.4-5.5 69.2-13 102.5-22a3400 3400 0 0 0 180.5 48c213.7 50.3 428.1 97 645.7 125.4 162.6 21.2 338.3-19.7 479.7-101.4 92.6-53.6 213.8-188 178-307.5z" fill-rule="evenodd"/></svg>