<svg xmlns="http://www.w3.org/2000/svg" viewBox="0 0 654 1575"><g fill="#1A171B" fill-rule="evenodd"><path d="M504.3 467.7c-48.4 1.8-52.1 24.6-67.2 116.7-3.1 19-6.7 40.7-11.2 65.7-17.5 97.3 4.5 115.4 14.8 118.6 18.7 6 46.4-17.5 63.1-53.4 33.3-71.5 56-202.2 47.8-213.8-6.2-9-19.8-23-47.3-33.8zm-433 80.8C57.6 582.7 62 649.6 84.8 751.1c14.5 65 76.6 148.8 107 144.4 12.3-1.7 17.8-18.5 16-48.6-3.1-51.4-2.5-97-2-137.4.8-53.6 1.3-96-7.7-124-8-24.3-24-41.9-45-49.4-23.2-8.2-51.2-4-81.6 12.4zm414.4 529.7c-2.6.8-7.7 5.3-13.3 27L467 1125c-4 14.4-9.4 34.1-7 35.5 0 0 1.5.6 7.4-5.3 13.1-13.2 16.1-32.6 18.3-77zM176 1573.6h-2.4c-52.3-.6-95.8-20.3-125.8-57-34.1-41.8-46.7-101.4-34.7-163.7 10.8-55.6 49.3-97.5 86.5-138 39.2-42.5 76.2-82.8 76.2-134.5 0-59.9-57.8-166.5-104.3-252-32.5-60-60.6-112-62.8-135.6-1-10.6-2.6-20.2-4.2-29.5-6.8-39.8-11.7-68.5 50.9-108.9 4.6-3 9.1-5.6 13.5-8a44.4 44.4 0 0 1 20.9-23.9c46.3-22.5 74.9-40.2 93.5-69.2 25.3-39.1 17.3-88.1 13-114.4-2-13.2-2.7-17.9-.2-19.3 7.7-4.7 26.8-3.3 49.7 31 5 7.4 10.6 15.1 16.6 23.3C288.5 409 321 453 327 520c5.8 65.5-2.6 365.2-6.2 493.2-1 32.8-1.5 54.5-1.5 59 0 14.8 6.2 43.9 9.7 45 .7-.4 5.4-6 6-71.2 1.5-163.9 8-548 36-574.7C399 444.4 408 444 465 454c15.6 2.7 28.8 6.5 39.8 10.8 6-.2 12.6-.1 19.9.2 97.4 4.4 107.2 55.6 107.9 71.1 1.2 29.7-27.8 173.7-51.6 217.3L571 771.7c-38.3 69.5-74.5 135.2-79 229.3l-2 46-1.2 28.5c5.5 2.2 10.2 12.3 14.2 30.3 5.7 26.2 34.8 76.3 84.1 145 14 19.5 82.9 121.3 62.5 211.6-9.2 40.6-35.3 73-77.7 96.3-.7.4-1.6.2-2-.6-.4-.7-.1-1.6.6-2 41.6-23 67.2-54.7 76.2-94.3 20-89-48.1-190-62-209.3-49.6-69-78.8-119.5-84.7-146.1-4.2-19.5-8.6-25.7-11.4-27.6-2.2 44.9-5.3 64.7-19 78.5-5.5 5.4-8.8 7.1-11 5.8-4.3-2.4-1.4-13.7 5.6-39l5.3-19.6c4.8-18.8 10.3-28.6 16.3-29.4l1.2-28.3 2-46c4.5-94.7 40.9-160.7 79.4-230.5l10-18.4c23.7-43.4 52.5-186.3 51.3-215.7-.7-15-10.2-64-105-68.3l-12.9-.3a99.3 99.3 0 0 1 42.3 32.2c9.5 13.6-15 147-47.6 216.7-17.6 37.9-46.3 61.6-66.6 55.1-13.8-4.4-34.3-26-17-122 4.6-25 8.1-46.6 11.2-65.7 14.5-88 18.8-114.7 63.4-118.8-9.5-3.2-20.4-6-33-8.2-55.6-9.7-63.8-10-91.6 16.7-27.8 26.6-33.8 445-35 572.6-.7 74.2-6.4 74.1-9.1 74.1-7.6 0-12.6-38.8-12.6-48 0-4.5.6-26.2 1.5-59.1 3.6-128 12-427.6 6.2-492.9-6-66.2-38-109.7-63.8-144.6-6-8.2-11.7-16-16.7-23.4-21.7-32.5-39.4-34-45.7-30.2-.7 1.2.5 8.9 1.7 16.3 4.4 26.7 12.4 76.5-13.4 116.6-19 29.5-48 47.5-94.8 70.2a39.4 39.4 0 0 0-17.8 18.9c37-19 63.9-16.8 80.6-10.8 22 7.8 38.6 26 46.8 51.3 9.3 28.4 8.7 71 8 125-.6 40.2-1.2 85.8 1.9 137 2.4 40.4-8.7 50.5-18.5 51.9l-2.7.1c-33 0-93-81-107.8-146.9C66.6 684 51 597 67.3 550.7A213.6 213.6 0 0 0 57 557C-3.8 596.2.7 622.7 7.5 662.8c1.6 9.3 3.3 19 4.3 29.7 2.1 23 30 74.7 62.5 134.4 46.6 86 104.6 192.9 104.6 253.5 0 52.9-37.4 93.6-77 136.6-37 40.2-75.1 81.7-85.7 136.4-12 61.4.5 120.2 34 161.2 29.5 36.1 72.2 55.5 123.5 56h2.4c115.4 0 147.5-87.4 147.8-88.3.3-.8 1.2-1.2 2-1 .8.4 1.2 1.2.9 2-.3 1-33.1 90.3-150.7 90.3z"/><path d="M277.7 45C287 46 295 49 301 53a59 59 0 0 1 20.9-8.6 60 60 0 0 1 12-26.9c2.3-3 5.2-5.7 8.4-8-10-1.5-20.2.1-29.6 5-20.2 10.6-30.5 21.2-35.6 30.2l.5.2zm46.9 2c-.4 5 .3 9.6 2.2 13.6a39 39 0 0 1 9.5-11.1 18.2 18.2 0 0 0-11.7-2.5zm29.8-3.8c11.5 0 24.5 6.3 37.8 18.3.8-11.4-7.4-26.9-20.7-38.1a60.6 60.6 0 0 0-25-13c-4 2.4-7.5 5.4-10.1 9A57.7 57.7 0 0 0 325 44c5.5-.4 10.2.9 13.9 3.6a29 29 0 0 1 6.4-3c3-.9 6-1.4 9-1.4zM275 49a30 30 0 0 0-2.4 14 26.5 26.5 0 0 0 4 12.2c6.4-8 14-15 21.6-20.2-5.5-3.4-12.7-6.1-21-7l-2.2 1zm53.5 14.8C332 69 338 73 345.9 75.3c0-7.7-1.6-14.7-4.7-20.4-.7-1.4-1.6-2.5-2.5-3.5-4 3-7.4 7-10.2 12.3zM349 76c6.7 1.5 14.6 2 23.7 1.4 10-.7 16.4-4.7 18.7-11.6 0-.3.2-.5.3-.8C375 49.6 359 43.3 346.2 47.5a25.6 25.6 0 0 0-5 2.2c1 1.1 2 2.4 2.7 3.8 3.4 6.3 5 14.2 5 22.6zm-70.4 1.6c3.4 4.2 7.8 7 12 8.5 7 2.4 13.5 1 17.8-3.6 5.1-5.8 4.3-13.9-2.3-21.3a33 33 0 0 0-5.1-4.6 102 102 0 0 0-22.4 21zm48.4-11a76.6 76.6 0 0 0-6 22.5c-1.1 9.8 3.3 20.8 12.1 31a92.8 92.8 0 0 0 12.7-41.8A34.5 34.5 0 0 1 327 66.7zM271 51c-8.3 4.8-22.2 14.9-26.3 30.7-3.6 14 1.1 29.8 14.2 46.7-.9-5.2-.7-10.2-.1-14.8a79.2 79.2 0 0 1 16-36 29.4 29.4 0 0 1-5.2-14.5c-.3-3.2 0-7.4 1.5-12.1zm124 13 6.4 6.6c17.7 19.2 20 48.7 6.7 73.4 14.9-7.5 23.7-24.9 25.5-50.5 3.2-44.5-11.4-76.2-40-86.8a57 57 0 0 0-43.3 1.5c8 2.4 15.9 6.7 23.1 12.9 15.1 12.7 23.8 30.3 21.5 43zm-59.7 58.5c3.4 3.7 7.4 7.1 11.8 10.3 18.8 13.6 40.4 18.5 56.5 13 14.7-24.1 13.2-54-4.4-73.2a152.7 152.7 0 0 0-5.1-5.2c-2 5.5-7.3 12.1-21.2 13-9 .7-17.1.2-24-1.3a94.3 94.3 0 0 1-13.6 43.4zm-72 11.2c15.2 17.2 32.7 20.5 49.4 9.2 7.2-4.8 13.6-11.9 18.8-20.1-9.8-11-14.7-23.1-13.4-34a77.4 77.4 0 0 1 7-25l-.3-.4a29.3 29.3 0 0 1-3.2-16c-5.7 1.1-11.8 3.8-18 7.6a35 35 0 0 1 4.8 4.4c7.5 8.4 8.4 18.3 2.2 25.2-5 5.5-12.9 7.2-21 4.5a30.4 30.4 0 0 1-12.9-9 75.6 75.6 0 0 0-15 34c-.8 5.8-.7 12.6 1.5 19.6zm3 7.4c4.9 9.3 14 18.6 30 26.4 49.6 24 86 7.5 103.5-16l1.3-1.8c-16.5 4-37.5-1.2-55.7-14.4a88.2 88.2 0 0 1-11.7-10.1 71 71 0 0 1-19.3 20.2 36.3 36.3 0 0 1-48.1-4.3zM38.6 272.5c1.3 7.7 9.2 12.4 16.9 13.6 5.8 1 12.6 0 14-4.4-.5-4.3-1.2-7.3-2.3-7.6 0 0-.5 0-1.5 1.2-2.9 3.4-6.3 5-10.3 5.1-6.7 0-13.2-4.7-16.8-7.9zm251.5 62.7c6.2 0 12.1 1.2 16.7 5 8 6.6 10.9 13.6 12.9 18.2.6 1.5 1.6 3.8 2 4 .1 0 .9 0 3.6-2.8 2.6-2.7.6-9.7-1.9-18.5-5.7-20-14.3-50 13.4-79.7 27.4-29.2 33.5-49 38.5-64.9 2.3-7.5 4.3-14 8.1-20.2l6.5-10.2c-20.5 16.7-53.2 24.3-94.8 4.1-21-10.1-30.7-22.9-34.6-35a79.2 79.2 0 0 1-1.7-2c-15.4-19-21.1-36.5-17-52.3 4.6-18 20.6-28.7 29.2-33.3a75 75 0 0 0-43.2 15.2c-39.5 27.9-97.2 54-131.7 69.7a492.9 492.9 0 0 0-25.3 12c-7.3 4-11.7 13.8-10.7 23.7 1.5 16 15.3 29.4 38 36.9 22.8 7.5 36.3-13.1 48.2-31.3 2-3 3.8-5.9 5.7-8.5 16.2-23 45.8-42.4 75.5-33.5a31.4 31.4 0 0 1 17.8 12.6c13 20.5-12.5 43.3-29.4 58.4a248 248 0 0 0-7.2 6.6c-19.1 18.4-25.1 53.7-16.5 68.6 3.6 6.2 9.3 8.2 16.9 6 14-4.2 18.5-21.2 22-34.9l1-3.5c5.9-22.2 18.5-51 44.8-61.5 9.3-3.7 28.7-11.5 38.3 3.6 13.7 21.7-4 50.9-17 72.2l-4.7 7.9c-3.4 5.8-7.7 12-12.3 18.6-10.3 14.8-22 31.5-24.4 47-.3 1.8 0 3.1.7 3.9 2.1 2 8.8 1 15.8-.2a103 103 0 0 1 16.8-2zM72.4 282c.7 7 .7 17.5.3 31.9a134 134 0 0 0 0 16c1.5 7 24.2 46.1 31.5 55.3 1.7 2.2 4.8 6.4 8.6 11.9 11.2 16 34.6 49 41.6 49 9.2 0 28-12.7 33.4-61 3.5-31.5-3.2-60-8.6-83-3-13.1-5.7-24.5-6-34.2-.7-18.6-13.6-44.2-22.7-45-5-.4-7.3 8-8.3 13.1-1.5 7.5-2.6 14.6-3.6 20.8-2.5 16.2-4.1 26.9-10.4 29.3-3.8 1.5-8.6-.4-15.5-6-12.1-10-49.4-50.6-62-98.6 1 25.4 2.7 55.1 5 60 1.2 2.2 2.9 5 4.9 8.1 5 8.1 11.2 18.2 12.1 26.8.2 2 .1 3.9-.3 5.5zm344.4 167.1c-.3 0-.6 0-.9-.2-.4-.4-43.7-32-69.2-77.6-26-46.4-5.5-71.8 16.3-98.7l.4-.6c11.1-13.6 46.8-60.8 41.8-93-2.3-15-4.7-17.6-6-17.8-2.7-.6-8.6 9-13.2 16.6a84 84 0 0 0-7.9 19.5c-5 16.2-11.3 36.3-39.1 66-26.5 28.4-18.2 57.6-12.7 76.9 2.9 10.1 5 17.4 1.2 21.3-2.4 2.5-4.3 4-6.3 3.7-2-.4-3-2.6-4.3-5.7-1.9-4.4-4.6-11-12-17.1-7.7-6.4-20.7-4.2-31-2.5-8.6 1.5-15.3 2.6-18.5-.6-1.5-1.5-2-3.7-1.5-6.6 2.5-16 14.4-33 24.8-48.1 4.6-6.6 8.8-12.7 12.2-18.4l4.7-8c12.6-20.6 29.7-48.9 17-69-7.2-11.4-20.9-7.9-34.6-2.4-25.1 10-37.3 38-43 59.5l-1 3.5c-3.5 13.6-8.3 32.3-24.1 37-8.8 2.5-16 0-20.3-7.4-9.2-15.8-3-53 17-72.3 2-2 4.5-4.1 7.3-6.6 16.1-14.4 40.6-36.2 28.9-54.6-3.3-5.2-9-9.2-16.2-11.3-28.2-8.5-56.6 10.1-72.2 32.3l-5.6 8.4c-11.9 18.2-26.7 40.8-51.7 32.5-33.8-11.2-39.3-31.3-40-39.4-1-11.3 3.8-22 12.2-26.6 4.4-2.4 13.3-6.5 25.6-12 34.4-15.7 92-41.9 131.1-69.6a78.9 78.9 0 0 1 42.6-15.7c-13.7-5.2-42-15.5-55.3-16.2-58.8-3-107.9 18-142 60.7-31.9 39.6-22.6 84.5-9.2 115.2 15 34.6 40.1 63.4 52.5 73.5 5.8 4.8 10 6.6 12.6 5.6 4.6-1.8 6.3-12.9 8.4-27 1-6.2 2-13.3 3.6-20.9 2.2-10.7 6-16 11.6-15.5 11.4 1 24.7 29 25.3 47.9.3 9.4 3 20.6 6 33.7 5.5 23.1 12.2 51.9 8.7 84-5.6 50.2-25.5 63.6-36.4 63.6-7.9 0-25.3-23.8-44-50.3l-8.5-11.7c-7-8.8-30.5-48.7-32-56.6-.5-2.2-.4-8.3-.2-16.7.2-6.1.5-18.2 0-27.5-3 2.7-8.4 3.7-14.7 2.7-10.2-1.6-20.6-8.7-19.5-20.4 0-.6.5-1 1-1.3a1.5 1.5 0 0 1 1.6.5c.1 0 8.8 9.7 17.3 9.5 3 0 5.7-1.3 8-4 1.7-2 3.3-2.7 4.9-2.1h.2c-2.2-6.6-6.7-13.9-10.5-20-2-3.3-3.7-6-4.9-8.4-3.5-7-5.4-54.7-6.1-81.2-.6-5.8-.8-11.6-.5-17.5v-.4A98.3 98.3 0 0 1 69 87.2c34.8-43.4 84.8-64.7 144.5-61.8 15.7.8 50 14 60.9 18.2 5.3-9.6 16-20.8 37-31.8 11-5.7 23-7.2 34.7-4.7A59.5 59.5 0 0 1 394.7 4c14.2 5.2 46.6 24.6 42 89.9-2.5 34.4-16.7 48-28.2 53.4l-3 1.2a80.5 80.5 0 0 1-3.3 5 70.7 70.7 0 0 1-4.1 5c.6-.2 1.1-.2 1.7 0 3.8.7 6.2 6.6 8.4 20.3 5.2 33.3-31.2 81.4-42.4 95.3l-.5.6c-21 26-41 50.7-16 95.4 25.2 45 68 76.2 68.4 76.5.7.5.8 1.4.3 2.1-.3.4-.7.6-1.2.6z"/></g></svg>