<svg xmlns="http://www.w3.org/2000/svg" viewBox="0 0 5203 3445"><path d="M5107.5 358.7c-23 0-48.6 20.4-64.6 41.6-14.6 19.5-21 39.2-16.4 50.3 6.5 15.6 40.5 25.3 67.7 14.1 30.3-12.4 42.5-47.3 36.8-73.9a58.4 58.4 0 0 0-20.3-32h-3.2zm-756 1294.2v1.9c1.3 4 10 7.3 18 9a267 267 0 0 0-18-10.9zm-2321 443.1c-.2.3-1.2 2-.4 7.5 3.8 28.2 45.3 101.5 117.4 186.9 35.3 41.9 74 82 114.6 119 4.7-37 2.9-72-5.7-103.4-30.8-112.8-147.8-187.2-199.7-205.5-17.5-6.2-24.9-5.3-26.2-4.5zM619.7 2940.7c-2.8 0-8 .9-16 4.4-31.7 13.6-80.8 55.9-85.6 103.2-2 18.9 3.4 39.8 15 60.6 53.8-76.9 92.4-146.1 90-165.7-.2-1.4-.5-2-.6-2-.3-.2-1.2-.5-2.8-.5zm798 504.3c-6.5 0-13.2-.2-20-.6-56-3-122.8-18.8-178.5-42.1-27.9-11.7-70-29.4-108.7-57-46.5-33.2-76.3-73-88.5-118.2-13.1-48.3-6-99.6 21.5-156.7 23.1-48.1 56.7-91.6 83.8-126.6l2.7-3.5c40.3-52.2 70.7-74.3 106-99.8 31.3-22.8 66.9-48.5 115.7-102.3 78.2-86.1 152-167.4 152.4-277.5.3-106.1-68.1-202-116.8-236.3-15.2-10.6-28.1-15.1-35.6-12.4-16.7 6-16.6 35.5-16.5 84.2.2 52 .4 123.5-20 212.7-13.5 58.5-31 103.2-57 145.2-24.4 39.5-55.2 75-94.1 119.8a2752.8 2752.8 0 0 0-265.5 353.5l-4.7 7.4c-24.9 39-55.8 87.6-112.3 103-31.3 8.6-68.3 6.5-107-6a302.6 302.6 0 0 1-100.1-56 243.3 243.3 0 0 1-42.1-45.2c-18 25-36.7 50-55 72.8-9 11.4-26 32.4-44 49.8-24 23.3-41.7 31.8-54.2 26-22.2-10.1-13-55.9-1.4-113.7 9.8-49.3 22-110.6 3-122.6-11.2-7.2-33.8 3.3-67 31.1-31.9 26.7-69.8 66-106.4 104.1-70 72.8-131.4 136.6-167.7 136.6-4.3 0-8.2-.9-11.8-2.7-12-6.4-20.3-24.4-24.6-53.4-6-39.7-3.8-97.5 5.9-162.7a1320 1320 0 0 1 58.5-233.3c48.7-140.5 143.7-344.7 319.6-519.7 184-183 389-265.2 587.1-344.6 202.5-81.1 393.7-157.8 565.2-333l4.2-4.2c36.2-37.1 132.4-135.8 285.1-223.8 107.7-62 229-108.7 350.8-134.9 60-12.9 87.6-14 178.8-17.7 46.7-1.8 110.5-4.4 204-9.6 210.7-11.7 316.4-17.6 421.8-33.7a2267.3 2267.3 0 0 0 400.5-100.2l4 11.4a2280 2280 0 0 1-402.7 100.6c-106 16.3-211.9 22.1-422.8 33.9-93.7 5.2-157.6 7.8-204.3 9.6-90.4 3.7-117.7 4.8-176.7 17.5a1215.2 1215.2 0 0 0-347.4 133.5 1280.4 1280.4 0 0 0-282.5 221.8l-4.3 4.3c-77.8 79.4-167.8 146.3-275.2 204.4-95.7 51.7-196.5 92.2-294 131.2-197.1 79-400.9 160.7-583.1 342-174.4 173.4-268.5 375.8-316.8 515.1-58.9 170.1-74.5 318.6-63.8 390.4 3.5 24 10.2 40.2 18.4 44.5 7.3 3.9 24.4 1.5 63.6-31.8 30.2-25.6 66.5-63.3 101.6-99.8 36.8-38.3 75-78 107.2-105 38.8-32.4 64.6-42.6 81.3-32 26 16.4 14.4 74 2.2 135-5.1 25.6-10 49.8-11.4 68.9-1.7 23 2.4 30 6.1 31.7 3.4 1.5 14 2.3 41-23.8 17.3-16.8 34-37.6 42.8-48.7 20-25 39.5-50.8 57.4-76-14.8-24.6-21.6-49.6-19.2-72.9 5.3-52.6 57.4-97.7 92.7-113 14.4-6.2 24.8-7 30.9-2.3 3 2.2 4.7 5.6 5.2 10 2 16.7-14.5 53.4-49 109a1484.6 1484.6 0 0 1-46.1 69.3c10.7 16 25 32 42.3 46.7 50.4 42.6 130.5 77.5 196.2 59.6 52-14.2 80.4-58.7 105.4-98l4.7-7.4c117.7-183.4 203.7-282.5 266.5-354.8 77.9-89.8 120.8-139.2 148.4-259.8 20.2-88 20-158.5 19.8-210-.1-54-.2-86.7 24.4-95.6 11.5-4.2 27.7.6 46.6 14 50.8 35.7 122.2 135.6 121.9 246-.2 51.6-16.3 102-49.2 154.3-29 46.2-68.3 89.4-106.3 131.2a675.2 675.2 0 0 1-117.6 104c-34.5 25-64.2 46.6-103.5 97.4l-2.8 3.6c-52.2 67.5-131 169.7-103.1 272.7 26.7 98.8 133.1 143.4 190.2 167.3a556.5 556.5 0 0 0 174.5 41.3c47 2.5 108.4-2.9 134-43.2 22.8-36.2 15-99.3-16.9-135-27.7-31-70.3-36.8-104.5-41.5-29.1-4-54.2-7.4-60-26.4-4.5-14.9 5-33.4 28.4-55.2 16-15 34.1-27.2 41.2-31.8 135.1-88.4 281.6-145.7 378.5-183.7 30.5-12 56.9-22.3 77-31.2 115.3-51.3 224.6-146 299.8-260 45-68.4 73.7-137.4 84.2-200.7a1289.8 1289.8 0 0 1-121.7-125.7c-66-78.2-115.3-157.5-120.1-193-1.1-8 0-13.6 3.6-17.3 4.6-5 13.4-5.7 26.9-2.3 26.5 6.6 73.1 30.2 117.4 68 36.3 31 83.5 82 101.9 149.3a283.6 283.6 0 0 1 4.9 116.3 1146.1 1146.1 0 0 0 165.5 123.7c259.9 158 541.6 167.4 728 173.7 119 4 187.8-4.3 238-10.4 62.8-7.5 94.3-11.3 153 17.6 87 42.8 129.3 106 188 193.6 55.6 83.2 125 186.7 260.6 311.7 55.5 51.3 116.7 101.6 199.2 104 45 1.4 96-11.3 136.7-34 44.8-24.7 71.8-58.3 76.3-94.4 5.7-46.2-31-88-43.1-101.8l-.5-.5c-12.4-14.2-45.5-51.8-89.4-52.4-23.6-.4-38 10.1-50.8 19.4-10 7.2-19.3 14-30.6 12.4-17.6-2.4-31-23.5-40.8-64.5-8.2-34.2-14.2-81.8-18.3-145.4-7.3-116-6.9-263.5-5.7-404.6 1-130.8 8.4-246.6 21.7-344 22.4-162.5 60.7-264.7 114-303.6 47.9-35 80.2-37.5 117.6-40.5 31-2.4 66-5.1 118.1-27.7 172.5-75 235.2-343.3 285.6-559 11-46.8 18.3-86.9 24.8-122.3 18.2-99 29.2-158.8 90.8-209.4 30.3-24.9 59.4-36.2 87.5-47.2 37.5-14.7 73-28.5 112.6-72.3 23-25.2 76.4-94.2 79.2-190.4 2-67.1-20.8-148.5-54.5-179.4 2.8 5.2 5 10.8 6.3 17 6.7 31.3-7.9 72.7-44 87.4a82.7 82.7 0 0 1-49.1 3.6c-17-4-29.4-12.8-34.2-24.2-6.4-15.4.2-38.6 17.9-62 14.3-19 37.5-39.7 62-45.1-10.7-6.2-21.3-10.3-28.2-13-42.6-16.3-73.2-9.7-100.3-3.8-24.5 5.3-47.7 10.3-73.8-3-37-18.8-47-52.7-58.3-92-9.9-34-21-72.3-51.7-111.4C4700.8 20 4527-2.9 4400.4 20.1 4293 39.7 4222 93.5 4188 119.4c-100.2 76-145.8 162.7-186 239.2-82.8 157.5-98.6 298.8-106.3 366.7-7.1 63.5-15.2 135.5 0 226.3 8 48.2 15.7 73.5 25.5 105.5 6.2 20.1 13.1 42.8 21.3 75.2 23.4 92.7 25.4 150.5 27.3 206.3 1.8 55 3.7 111.8 26.2 202.9 1.4 6 14.9 59.5 33.7 110.1 31.6 84.9 52.9 93.1 60.6 92.7 10-.5 15.6-14.6 23.9-37.5 10.2-28.2 24.2-66.8 61-88.8 37.2-22.3 86.4-13.5 121.1-2.3 18.2 6 35.2 13.3 49.6 20.6 11.4-16.4 37-34.7 65.6-39.3 25-4 41.9 4.6 58.2 12.7 15.7 7.9 31.9 16 56.9 14.5 35-2 61.3-21.5 77-33.1a205.5 205.5 0 0 0 64.7-84c43-93.4 27.2-205.2 19.7-259l-.5-3c-1.4-9.5-4-27.2-3.4-50.7.3-14.2 2-26.3 3.9-40.3 1.3-9.8 2.8-21 4.1-34.4a814 814 0 0 0 2.4-99.4c-2.6-130.4-4.6-233.4-39.6-353.6a922.2 922.2 0 0 0-126.4-267.2l10-6.7a934 934 0 0 1 127.9 270.5c35.4 121.7 37.5 225.5 40.1 356.8.9 45.9.3 71.3-2.5 100.7-1.2 13.7-2.8 25-4.1 35-1.9 13.6-3.5 25.4-3.8 39-.6 22.3 2 39.4 3.3 48.5l.5 3.2c7.7 54.8 23.8 169-20.7 265.6a216.5 216.5 0 0 1-68.5 88.6c-16.8 12.4-44.8 33.2-83.5 35.5-28.1 1.6-46.6-7.6-62.8-15.7-16-8-29.9-15-51-11.6a94 94 0 0 0-56.8 33 214.6 214.6 0 0 1 27.5 17.7c4.7 3.7 8.8 7.5 7.3 12.3-1.7 5.3-8.4 5.3-11.3 5.2-9 0-35.6-3.7-40-19-1-3.3-.9-7 .4-11a342 342 0 0 0-37.2-16.3c-35.7-13-85.8-24.1-122-2.5-33.1 19.8-45.7 54.6-55.9 82.6-8.6 23.8-16 44.4-34.5 45.4-23.1 1.2-46.8-31.7-72.4-100.5a1144 1144 0 0 1-34.2-111.5c-22.7-92.2-24.7-149.7-26.5-205.3-2-57.7-3.8-112.3-27-203.8-8-32-15-54.6-21-74.6-10-32.4-17.8-58-26-107-15.4-92.5-7.2-165.4 0-229.7 7.7-68.6 23.8-211.4 107.6-370.9 38.8-73.7 87-165.5 189.4-243.1 34.8-26.5 107.3-81.5 217.4-101.6 66.1-12 141.5-11 207 3 81.6 17.4 146.4 54.1 187.3 106.2 32 40.9 43.6 80.5 53.7 115.4 11 38.2 19.8 68.3 52.2 84.7 22.3 11.3 42.5 7 65.8 2 28.8-6.3 61.3-13.3 107.2 4.3 9.6 3.7 28.1 10.8 44 23.5 25.4 4.3 48.6 30.3 65.3 73.6 15.1 38.9 23.4 87.5 22.2 130.2-2.9 100-58.5 171.9-82.3 198-41.6 46-80 61-117.1 75.5-28.5 11-55.5 21.6-84.3 45.3-58.2 47.8-68.9 106-86.6 202.3-6.5 35.5-14 75.8-25 122.9-51 218.2-114.4 489.8-292.4 567.2-53.9 23.4-90 26.2-122 28.7-37 2.9-66.3 5.2-111.4 38.2-27 19.7-50.5 58.1-69.6 114.2-16.3 47.8-29.6 108.8-39.6 181.4-13.3 96.9-20.6 212-21.6 342.4-1.1 141-1.6 288.2 5.7 403.7 4 63 10 109.9 18 143.4 10.5 43.8 22.5 54.3 30.7 55.5 6.6.9 13.4-4 22-10.3 12.8-9.3 30.3-22 58-21.7 49.2.6 84.8 41.2 98.2 56.5l.5.5c13 14.8 52.4 59.6 46 111.1-5 40-34.2 76.8-82.4 103.6A289.5 289.5 0 0 1 4205 3345c-86.7-2.6-149.8-54.3-207-107.1-136.8-126-206.5-230.2-262.5-313.9-57.6-86-99.2-148.2-183.3-189.6-55.5-27.3-85.8-23.6-146.3-16.3a1398.5 1398.5 0 0 1-239.7 10.4c-93.6-3.2-210.1-7-337.6-30.2-150.8-27.3-280.5-74.8-396.3-145.2a1144.5 1144.5 0 0 1-161.7-120c-11.8 63-40.5 131-84.7 198-76.4 115.8-187.6 212.2-305 264.4a2040 2040 0 0 1-77.5 31.4c-96.4 37.8-242.1 94.8-376.3 182.5-36 23.6-70 55.5-64.6 73.5 3.5 11.7 25.1 14.6 50.1 18 36.2 5 81.2 11 111.9 45.5 35.7 39.9 44 108.3 18 149.3-20.5 32.4-63.5 49.3-124.8 49.3z" fill-rule="evenodd"/></svg>