<svg xmlns="http://www.w3.org/2000/svg" viewBox="0 0 847 974"><path d="M160.1 228C51.1 397.5 58.6 452.8 72.8 470.8c11 13.7 33.2 15.3 62.7 4.6 32-11.6 67.4-35.8 95-64.9 30.7-32.3 47.2-65.8 46.5-94.2-1.2-51-20.2-84.4-53.5-94.2-19.2-5.7-41.2-3.2-63.4 6zM90.2 609.2c58 20.5 102.5 15 122.6-15.2 19.8-29.8 11-78.5-20-110.9-9-9.4-20-10.8-32.8-4-30.7 16.1-62.7 75.1-69.8 130zm131.9 117c55.5 11.2 135.7 31.6 171.6 61 1.8 1.5 3.8 3.6 6.3 6.3 5.7 6 14.5 15.3 30.4 27.5 7.6 5.8 18.2-3.7 28.5-13 8.3-7.4 16.2-14.5 23.4-14.5h.1c2.7 0 5 1.4 7 2.6 2.6 1.5 3.7 2 4.4 1.4 4.6-3.6 5.2-9 6-16.4 1.3-11.6 3-27.4 23.4-43.5 27-21.3 30-48 27.8-66.5-3.6-29.7-24-60.2-47.6-70.9-7.1-3.2-44.3-18.6-75.3-3-19.4 9.8-32.6 30-39 60.2-3.7 17.1-9.7 25.9-18.2 26.8l-1.4.1c-25.6 0-60.3-74.1-64.5-83.4-.9-1.4-12-19.2-26.2-16.3-11 2.2-22 16.4-31.6 41-9.4 23.8-17.8 57.6-25.1 100.7zm339.8 247h-.8c-1.5 0-150.3-3-264.4-1.6h-1.3A74.7 74.7 0 0 1 236 946c-18.7-21.8-29-56.4-30.4-103-1-34.6 3.5-63.3 3.6-63.5 2.2-17.5 4.6-33.9 7.1-49.1-29.7-6-51.3-9-52.9-9.3-53.4-3.8-71.4-36.8-77-63.9a144.5 144.5 0 0 1-1.7-44.6 302.6 302.6 0 0 1-3.1-1.2c-39-14.9-64.3-40-75.2-74.8-11.3-36-7.4-81.2 11.6-134.7A487.6 487.6 0 0 1 69.8 299c23.9-35.1 55.4-61.4 87-74.8l1.5-2.4c50.7-78.3 99.1-136.6 144-173C341.6 16.4 379.5.1 414.8.1c79.4 0 131.2 79.7 169 138 11.5 17.7 21.4 33 30.4 43.5 53.3 61.8 139 89.6 190.2 106.2 26.9 8.7 38.9 12.8 41.6 18.1 2.5 5-.4 12.4-7.9 20.5-12.4 13.4-39.6 29.8-63.6 20-23-9.6-59.9-17.8-103.9-23.3-11.7-1.5-20.1-5.6-24.9-12.2-4.4-6.2-5.5-14.3-3.5-24.2 4.8-22.7-7.4-26.9-17.3-30.3l-2.4-.8c-35.7-13-103-49.5-137.4-70-24.3-14.5-63.8-45.7-54.2-91l4.8 1c-8.9 42.3 28.7 71.9 52 85.8 34 20.4 101 56.7 136.4 69.6l2.4.8c9.8 3.3 26.3 9 20.6 36-1.8 8.4-1 15.2 2.6 20.2 4 5.5 11.2 9 21.5 10.2 44.5 5.5 81.8 13.9 105.2 23.6 21.5 8.9 47-6.8 58.1-18.7 6.5-7 8.2-12.6 7-15-1.8-3.6-18.9-9.2-38.6-15.6-51.7-16.8-138.2-44.9-192.4-107.7-9.2-10.7-19.3-26.1-30.9-44C542.6 83.6 491.7 5 415 5c-34.2 0-71.1 16-109.7 47.4-43.7 35.7-91 92.4-140.7 168.6 21-7.5 41.9-9.2 60.2-3.8 35.6 10.5 55.8 45.6 57.1 98.9.7 29.7-16.2 64.4-47.8 97.7-28 29.6-64.3 54.3-96.9 66.2-31.7 11.4-55.9 9.2-68.2-6.2-18.2-23-18.2-83.6 83-242.2a206.6 206.6 0 0 0-78.1 70 482.3 482.3 0 0 0-51.1 101.8C4 455.9.2 500 11.2 535c10.5 33.3 34.8 57.4 72.2 71.7l2 .7c2.5-18.6 7.9-38.3 16-57.8 14.7-35.6 36.3-64.4 56.3-75 14.7-7.7 28-6 38.6 5.1a116.4 116.4 0 0 1 30.5 59.1 79 79 0 0 1-9.9 58 67.6 67.6 0 0 1-48 28.5c-22 3.3-48.7-.4-79.3-11.1-1.4 14.6-1 28.9 1.7 41.9 7.6 36.4 32.8 57.2 72.6 60h.2c2.4.4 23.8 3.4 53.1 9.2 15.6-91.7 36-140.6 60.7-145.6 18.2-3.6 30.9 18 31.4 18.8l.1.2c10.6 23.2 42 82.7 61 80.6 7.5-.8 11.7-12.9 13.8-23 6.8-31.6 20.9-53 41.7-63.5 33-16.6 72-.5 79.5 3 25.4 11.5 46.6 43 50.5 74.7a76 76 0 0 1-29.7 71 51.4 51.4 0 0 0-21.5 40.1c-1 8-1.7 14.9-7.9 19.8-3.4 2.7-7.1.6-9.9-1-1.6-1-3.2-2-4.5-2h-.1c-5.3 0-12.8 6.8-20 13.3-11.3 10-24 21.5-34.9 13.2a239.8 239.8 0 0 1-31-28 75 75 0 0 0-5.8-5.8c-34.7-28.5-114.2-48.7-169.3-59.8-2.5 15.1-5 31.4-7.2 48.8-.1 1.1-17.3 112.7 25.8 162.6a70.3 70.3 0 0 0 56.7 24c109.5-1.4 251 1.3 263.7 1.5 1.5-1.3 5.2-5 4-9.1-1.5-5.3-11.8-15-64-19.9l.4-4.9c42.7 4 65.1 11.7 68.4 23.5 2.3 8.3-6.1 14.6-6.5 14.9l-.7.5z" fill="#0A0B09" fill-rule="evenodd"/></svg>