<svg xmlns="http://www.w3.org/2000/svg" viewBox="0 0 2800 4892"><path d="M1923 328.5c19.8 5.2 42.1 9.9 66.9 14 55 9.3 107.1 13.4 129 14.9a74.2 74.2 0 0 0-36.3-36.1c-51.2-24.1-130.6-2.3-159.6 7.2zM696.3 677.8c5.3 36.5 27 78.6 64.2 125.3a2066.1 2066.1 0 0 1-64.2-125.3zm180.2 70.5c6.3 68 43.8 120.5 76.2 153.8a383.4 383.4 0 0 0 56.5 47.7 2019.8 2019.8 0 0 1-21.7-30.3 3110 3110 0 0 1-111-171.2zM1037.3 964c87.4 115.4 125.5 129.6 141 126.6 10.7-2 17.8-14.5 21.2-37.1v-.2c.3-1.7 1-3 2.3-4 1.8-2 32-39.2-6.2-210a29.3 29.3 0 0 1-2.3-2.9c-4-3.9-10-11-13.6-21.9-7-21.8-2.3-48.3 14.2-78.8-3.2-8.8-13.7-36-28.8-64.3-23.5-44.3-47.3-71.1-68.8-77.8a34.1 34.1 0 0 0-30.3 4.8c-3.8 21.8-28.2 168.1-28.7 365.6zm1241 55c-20.8 11.5-46.1 40.6-75.3 101.5 32.1-46.3 59.4-81.7 75.2-101.6zM840.7 908c51 75.8 101.7 134.1 150.7 173.2 56.5 45 110.7 64.4 161.5 57.9a2479.5 2479.5 0 0 1-236.4-166.2 1518.4 1518.4 0 0 1-75.8-65zm399.6 352.8c18.1 0 38.5-3 46.7-15.4 8.3-12.3 4.1-33.4-12-61.7 1.7 13.7 1 27-3 39.3-5.4 16-16 28.6-31.7 37.8zm-502-164.5c39.5 73.7 97.8 135.1 160.8 185.2-66.3-69-125-140.1-160.9-185.2zm-218.5-267c-2.3 25-4.2 52.4-5.2 81-5.3 150.9 17.4 265.6 65.5 331.8 26.9 37 62.1 59.7 105 67.8A2508.8 2508.8 0 0 1 576 1048.8c-29.2-84.2-48-158-56-219.5zm506.5 553c88.7 73.8 159.6 106.4 208.2 95 1.6-.3 3.3-.8 4.9-1.3a1408.8 1408.8 0 0 1-169.5-70.8 1195 1195 0 0 1-43.6-22.9zm1646-8.7c-8.3 78.1 9.9 141 27.4 181a325 325 0 0 0 35.4 62c4.4-21 8.4-41.8 12.1-62l-5-17.8a729.6 729.6 0 0 0-70-163.2zm-921.8 502.6-13.4 25.3a205.3 205.3 0 0 0 18.2-29.9l-4.8 4.6zm-236.8 36a396.6 396.6 0 0 1-40.7 85.7c39.8-17.2 85.2-30.9 116.2-22.2-4.7-8.2-20.6-28.1-75.5-63.6zm433.9-13.5c-16.3 53.2-17.3 90-14 114.1 16.5-35 16.3-83.2 14-114.1zm664.8-29.9c6.1 44.8 16.3 81 30.3 107.6 12 22.7 26.7 38.6 43.9 47.1 30.8 15.3 61.5 2.9 70.5-1.5l.8-3.7a278.9 278.9 0 0 0-46.7-85.1c-38-46-80.8-60.3-98.8-64.4zm-1559 164a93 93 0 0 1-6.7 8.8c24.5-6.2 54-12.8 85.7-18a863 863 0 0 1 45.6-6.4c-41.5-1-85.8 2.4-124.5 15.5zm617.3 76 5.2 10.9c3-2.3 5.4-4.8 7.5-7.7a42.4 42.4 0 0 0 6.1-32.2 7 7 0 0 1 3.1-7.7c7.6-4.6 13-12.9 17-22.3a75 75 0 0 1-23.2 18.5c-10 20.3-14.2 32.9-15.7 40.5zm434 5c82.6 15.5 156.1 4.5 219.6-33 5.7-3.3 11.2-6.8 16.6-10.5a366.7 366.7 0 0 1-130.6 42.4 459.6 459.6 0 0 1-105.7 1.2zm531 295.4c56.1.4 96.8-12.6 121-38.9l.7-.7c-2.8-8.2-6.9-13.8-12.3-16.7-14-7.5-39.7 1.6-72.5 25.6a428.7 428.7 0 0 0-36.8 30.7zM2213 2543c22 .2 46.4-.2 72-2 79.7-5.4 187-24.4 271-82.2a2849 2849 0 0 1-216.5 59.7c-46.1 10.6-88.3 18.7-126.4 24.5zm475.2 1048.1a350.3 350.3 0 0 0-20.6 43.8 817.3 817.3 0 0 0-12 31.7c13-20.8 23.9-46 32.6-75.5zm22.9 144.5c-13 11.4-37.9 45.7-80.2 146.1a2755.7 2755.7 0 0 0-53.3 137.7c65.6-59.1 100.3-147.2 118.2-213.4a747.4 747.4 0 0 0 15.3-70.4zm24.8 173.8c-4.3 9.4-9 21-14 34.4-13 34.9-27.9 83.1-44.4 143.4a5207 5207 0 0 0-44.5 176c56.2-80.1 82.1-190.7 94-273.2 4.3-29 7-56.3 9-80.6zm-347.2 328c18.2 48.4 35.7 85 48.2 108.9a930.5 930.5 0 0 0-38.3-121.4 237 237 0 0 0-9.9 12.5zm227 213c-8.3 0-16.2 1.3-23.3 4a44.5 44.5 0 0 0-24.2 22.8 549.5 549.5 0 0 1 51-26.7h-3.5zm53-3.4c30.7 10.8 59 27.1 73.6 36.3-.7-17-6-28.8-15.5-35.2-13.4-8.9-34.7-7.5-58-1zM884.3 2836c-9.2 451.5 4 1269.5 4.2 1278.3v.3c-2.8 188.8-1.7 332.3 3.3 426.2l.6 9.6c18.8-70 33-157.6 42.6-262.6 16-176.2 18.7-401 8-668a12464 12464 0 0 0-58.7-783.8zm1569 1682c16.2 36.3 57.7 68 81.1 83.7-18.2-47.2-41.7-74.7-70-81.9-3.8-1-7.5-1.5-11.1-1.7zm-288.3 72.7c-10.7 9.5-9.8 13.3-9.7 13.4 1 3.5 15 7.2 32.3 7.3a23.4 23.4 0 0 0-9.4-15.4 34.1 34.1 0 0 0-13.2-5.3zm453.7 22.6c42.8 2 74.8-5.5 95.5-22.3-31.8-5.4-71.8 10.6-95.5 22.3zm-301.6 29.2c.1 1.3.4 2.6.7 3.9 5.3 22.3 32.2 33 44.4 36.8 4.9-15.6 4.3-26.8-1.7-33.4-8.9-9.9-29.3-9.4-43.4-7.3zm-357 25.6c-1.4 2-2.2 4-2 5.8.3 3.2 4.5 12 36.5 22.3-15.3-9.6-26.8-19-34.5-28.2zm-539.6-1467.1c-49.8 100-74.5 372.6-71.5 791.9 2.4 334.3 21.8 646.5 22 649.7a7 7 0 0 1-1.4 4.6 253.1 253.1 0 0 0-33.3 55 417.8 417.8 0 0 0 39-38.2c80.5-89.8 132.9-223.2 155.6-396.5 18.3-139.2 17.5-304.2-2.2-490.3-29-273.2-91-513-108.2-576.2zm830.1 1511.3c-10 17.6-8.8 26.1-6.8 29.8 6.5 12 36.5 10.5 54.2 7.4 1-14.5-2.5-24.8-10.4-30.7-8.7-6.6-22.4-7.8-37-6.5zm-147.1 73.1c-5.5 10-8.6 20.2-5.6 28.4 3.3 9 13.8 15.3 31 19-13-10-25.7-24.3-25.8-42 0-1.7.1-3.6.4-5.4zm77.4 106.7c-8.2 0-15.9-.2-23.2-.5-55.8-2.4-88.3-14.1-99.5-35.6-14-26.9 7-64.7 64-115.6a7 7 0 0 1 11.4 3.6 269.8 269.8 0 0 1 108.4-44.7c11.6-18.2 30.7-40.2 57.5-66.4a7 7 0 0 1 3.1-1.8l.8-.2c3.7-27.6 28.3-59.9 73.3-96.2 2.9-2.7 26.4-24 57.6-29.5l-.2-.8c-.7-3.8-1.2-7.6-1.4-11.3-11 11.9-24 21-37.5 18.9-18.8-3-32.3-26.5-41-71.4-7.4 25-12.5 57.2 2.2 69.5a7 7 0 0 1 2.6 5.2c0 2-.8 4-2.3 5.3-.2.2-20.2 19-39.6 40.6-34.7 38.8-36.2 51.7-35.8 54.7 0 .8.3 1 .7 1.2a7 7 0 0 1 3.3 8c-.3 1-7.2 23.9-39.6 41-41.4 21.9-104 24.6-186 8l-83.9-17.9-5 2.8c7 8.4 18.4 17.6 34 27 22.7 14 46 23.6 46.3 23.7a7 7 0 0 1 4 8.5 7 7 0 0 1-7.9 4.9c-68-12.4-100.7-27.5-103-47.6-1-7.8 2.9-14.4 8-19.6a32 32 0 0 1-3.3-16.2c1.7-21 25.7-36.6 73.5-47.8l.8-.1 87.4-9.7a141 141 0 0 1 50.1-6.1 250 250 0 0 1 27.3-18.4c1.2-4.7 3.8-14 7.7-23.7 8.2-20 17.4-30.4 28.2-32 7.5-1 13.9 2.5 19 7.3 1.4-17 6.1-38.8 20.4-46.6 8.3-4.5 18.1-3.8 29.3 2 2.5-16.6 8.2-50.4 19-89.3 16-57.4 36.5-104.3 61.4-139.9l-2.5-7a1370.5 1370.5 0 0 1-53.5-192.7c-17-84.2-27.4-172.9-30.8-263.5-2.3-12.7-46.7-253.4-91-520.4-59-354.7-90.9-589.6-94.7-698.5-53.5.6-93.5-6.8-119.9-22.3a71.7 71.7 0 0 1-36.6-52v-408a76 76 0 0 1-15.8-24.8c-19.6 20.4-46.8 28.4-80.9 23.8-3.6 0-21.6-.5-42.8-10-21.4-9.8-50.2-31-66.2-76.8a7 7 0 0 1-.3-3c.2-2.1 5.3-51.6 34.9-91.7 4.2-14.1 5.3-28 3.5-31.3l-1.3.3c-3.1 15.6-13.5 35.1-30.9 58.3a466.6 466.6 0 0 1-38.4 44.4 7 7 0 0 1-9 .7 7 7 0 0 1-2.1-8.9l44-83.2a133.9 133.9 0 0 1 23.3-20.3c.1-2.2-.1-4.3-.7-6.2-.7-2.3-2.8-9.3-17.7-12.3a51 51 0 0 0-12.4 14.8c-4 23.3-24.1 45.5-25.1 46.7a7 7 0 0 1-9.1 1 7 7 0 0 1-2.5-8.7c9.4-20 17-34 23.2-44 .2-2.7.1-5.3-.5-7.8-1.5-6-5.8-10.9-13-14.5l-27.6 55.2a363.2 363.2 0 0 1-13.7 27.3 7 7 0 0 1-12.3-6.6l13.3-26.6a288 288 0 0 0 4.7-11c13.6-33.9 9.2-43.3 7.5-45.4-2.5-3.1-9-2.3-14.2-1-8.5 19.8-55.5 131-56.8 170a10.3 10.3 0 0 1-.3 3.5 49 49 0 0 1 19.5 28.7l37.5 78.4a281 281 0 0 1 13.3-30.1 7 7 0 0 1 3.8-3.5c1.2-.4 29-11.4 40-55.8a7 7 0 0 1 13.9 1.7c0 2.4-.4 57-28.7 79a55 55 0 0 1-9.2 39c-11 15.2-30.4 24-57.8 26-7.3 3.6-43.8 20.7-118.1 42 10 61.3 91.4 566.5 150.6 1116.5 37 343 58.1 636 63 871.1 6 294.6-13.7 498.8-58.7 606.8a7 7 0 0 1-5 4.2c-.7.1-73 15.9-150.6 21.6-106.4 7.9-171.8-6.2-194.6-41.7a57.3 57.3 0 0 1-8.8-30 430.4 430.4 0 0 1-131.4 62.7c-86.3 24.7-188.3 27-303.2 7a7 7 0 0 1-5.3-4.2 7 7 0 0 1 .7-6.7c.8-1 76-112 139.8-314.4 55.7-176.6 113.2-459 81.7-821.4-11.7 96.6-35.8 289.7-63.5 480.8-22.8 157.9-43.6 283.5-61.6 373.5-10.7 53.5-20.7 95-29.5 123-11.4 36.6-20.9 51.1-32.4 50.4-9.8-.6-16.1-11.6-21.2-36.6-1.7-8.2-3.2-18.1-4.7-29.6-17 44.5-36.8 79-59.2 103.1-27.9 30-60.4 44.5-96.5 43-13 3.4-145.8 36.3-292.5 50.1-90.5 8.6-168.5 8.4-232-.7-80.4-11.4-138-37.2-170.8-76.6-45.2-54-44.4-133.4 2.5-235.9.9-25 14.6-370.7 90.2-796.2 46-258.2 105.4-495 176.7-703.5 89.3-260.9 197.5-478.3 321.6-646.3l.4-.4 156.6-176.2a7 7 0 0 1 8.6-1.5 7 7 0 0 1 3.4 8c-.8 3.3-89.5 339.4-172.7 715.4-48.8 220.8-86.3 411.9-111.2 568-25.5 159-38 281.9-37.4 366.2 61.3-269.1 348.6-1533.5 365.7-1638.5-13.8-10.4-64.2-52.7-116.6-151.5-35.2-66.4-64.1-144.7-85.9-232.9-27.1-110-43.1-235.5-47.6-373.4a7 7 0 0 1 1.3-4.3c1.6-2.3 41-56 107.5-56 58.9 0 118.8 42 178 124.5l.7 1.3c.4.9 36 82 114.5 156.6 68.6 65.4 184.6 138.5 352.7 125.7a2263.6 2263.6 0 0 1-254.8-145.8c-82.8-55.3-151.3-110.8-203.6-165-66-68.2-106.3-134.6-120-197.3a7 7 0 0 1 3.8-7.7 7 7 0 0 1 8.4 1.7c.8.9 76 88.5 171.3 170.9 125 108 227.7 158.4 297 145.5 40.2-7.4 70.4-36.6 89.9-86.6-12.4-3.2-39-10.4-74.8-22.1-6.8 3.7-14 6.4-21.7 8.2-7.3 1.7-15 2.6-23.1 2.6-37.7 0-84-18.5-137.8-55.3A965.4 965.4 0 0 1 962 1344a866.2 866.2 0 0 1-106.5-80.5c-73.4-65.4-125.6-138.2-155-216.4a7 7 0 0 1 3.2-8.6 7 7 0 0 1 9 2c.9 1.2 90.2 121 199.4 234.3 20 20.7 39.3 40 58 57.6 36.3 23.5 72.4 43.5 106 60.3 68 34 132.7 58.5 181.6 74.8 25.5-16.5 43.4-50 53.3-100a2090.5 2090.5 0 0 1-364-170c-110-65.7-200.6-136.3-269.2-209.9-75.6-81-124.7-165.7-146.4-252.5l-1.2 8.2c-5 71.8 14.8 173.5 58.9 300.7a2474.5 2474.5 0 0 0 114.4 271.6 7 7 0 0 1-.5 7.2 7 7 0 0 1-6.5 3 178.2 178.2 0 0 1-127.7-75.4c-28-38.6-47.8-91.9-58.7-158.5a936.9 936.9 0 0 1-9.5-182.4c2.4-67 9.7-127.5 15.6-167 2.6-37.4 11.6-67.4 27-89.7 26.3-38 70.9-53.8 132.4-47a7 7 0 0 1 5.7 4.3c0 .3 2 5 5.8 13.6 17-48.6 69-85.4 155.1-109.6l1-.2c2-.2 51.3-6.6 113.8-1.8 36.8 2.8 70.4 9 100 18.4a245.7 245.7 0 0 1 92.2 50.4c41.7 38 61.7 90.3 59.3 155.5a6.9 6.9 0 0 1-.3 1.8c-8.2 29.8-13.7 72.8-4.2 89.2l1.3.9c1.4.9 2.3 2.2 2.8 3.7l1.4.8a7 7 0 0 1 3.7 4.8c.1.5 10 47.5 14.8 97.5 6.2 63.2 2.2 102.7-12.3 120 10.6 14.4 39.7 56.3 53.2 100.2a7 7 0 0 1 6.7 2.6c.7 1 78.8 103 147.7 232.9 40.5 76.4 70 147.5 87.5 211.1 21 76 25 141.9 12.2 195.9 29.5-48 34.5-92.7 14.8-133.3a7 7 0 0 1 1-7.6 7 7 0 0 1 7.6-2c.3 0 37.7 12.6 85.8 35.8 44.6 21.4 108 56.6 156.6 102.8h.2l11.9 12-.5-1.1c-10.5-28.3-11.3-46.4-2.2-55.2 12.5-12.1 36.2-.7 53 9l.8.6 73.1 58.5c2.4 1.5 17.2 10.5 33.4 18.8 28 14.2 37 14.2 39.2 13.9l3.7-20.7c12-67 48.7-270.7 100.3-459.5 12.4-45.5 24.9-87 37.4-124.5l-12.9 21.9c-51.7 89.4-108.5 206-137.1 325.2-11.2 109.5-16.9 185.8-17 187a7 7 0 0 1-7 6.6 7 7 0 0 1-7-6.4c-5-58.1.8-122.1 17.3-191 7.7-75 17.8-165 30.5-257.3 42.5-308.5 91.3-492.2 145.2-546.1 2-2 5-2.7 7.6-1.7 2.6 1 4.3 3.5 4.3 6.3 0 .4 1 10.9 14 17.7 24.4 12.7 96 15.8 302.1-105.8 7.4-11.2 23.2-40.6 13-51.8-5-5.4-21.3-12-75.4 5.6-55.4 18-137 57.1-242.5 116.3l-1.5.6c-2 .5-47.8 13.2-82-11.4-20.8-15-32.4-40.3-34.5-75.2-5-4.6-15.7-15.7-15.3-27.3 0-1.8.3-3.8 1-6-5-2.1-10.3-5.7-12.3-11.3a15 15 0 0 1 1.9-13.6l-2.8-15.4c-10.7 3.8-29 8-41.4-1.5-11-8.4-14-24.6-9.2-48.3.1-6.3.7-65.6-24.2-86.6-2.6-1.9-19.2-14-33.5-37.4a152 152 0 0 1-20.1-101.7c-48.7-14.7-80.2-32.8-94-54.3a49 49 0 0 1-4.4-46c0-8.5 3-49.5 46.8-96.1 27.9-29.7 66.6-55.7 115.3-77.3 60.3-26.7 136.3-46.9 225.7-59.8 1.4-.2 36.8-5 83-.7 42.8 4 103.1 17.3 147.1 57.4 42.8 38.9 62.7 95.6 59.3 168.4L2464.5 519c.8 7.5 12.4 105.7 75.6 123.1.3 0 .5.2.8.3 1 .4 25 10.2 58.3 37.8 30.4 25.3 74.7 71 112.7 145.4 42.5 83.3 68.8 184.8 78 301.8 10 125 .5 268.3-28.2 426.6a938.7 938.7 0 0 1 31 191.6c5.1 88.4-1.7 179.6-20.1 271.4 4.5 13 8.4 26.6 11.8 41 15.7 66.4 19 147.3 10 240.2.7 6.3 3.3 42.6-21.5 74.8 5.4 24.2 3 60.4-7.3 109.3.8 9.3 6 77-1.6 154.7a557 557 0 0 1-26.8 129c-15.6 44.5-37.2 79-64 102.7 5.6 26.7 36.8 179.9 49.8 349.3 8.3 109.1 7.7 203.6-2 280.8a687 687 0 0 1-10.1 60c9.4 4 13.5 17.1 16 27.2 3.8 16.6 6.1 41.9 6.8 75.3v.4c0 .4-.9 22.1-5.6 55.6 15.9 6 23.7 34.5 25.2 90.8 0 .4.6 22.8-.8 58.2 1.2-.2 2.5-.3 3.8-.2 13.8 1 20.7 20.3 23.9 66.4.4 4.8 13.5 140 17.1 275.4 2.2 80.8.6 146-4.8 193.7-6.5 58.6-18.3 90.6-36.8 99.3-.5 5.4-1.2 11.1-2.3 17 1.1 7.2 5 39-14.5 66.8l1 .6c26.5 15.2 39.2 47.8 37.8 96.8a7 7 0 0 1-3.5 6l-12 6.6c3.3 1 6.2 2.4 8.8 4.3 15.2 11.2 15.7 36 1.4 75.9a7 7 0 0 1-4.5 4.3c-.4.1-43.3 13.6-86.6 26.9-88.5 27.2-92 27.2-94 27.2a7 7 0 0 1-.5-14c8.8-1.2 109.5-32.3 173.6-52.4 10.3-30 11.2-50 2.3-56.6-3-2.2-10.3-5-26.7-1l-128.3 71.8a7 7 0 0 1-9.2-2.3 7 7 0 0 1 1.6-9.4c.3-.3 32.6-24.6 68.8-45.4a268.3 268.3 0 0 1 62.1-27.9l32.8-18.3c.5-41.3-9.8-68.3-30.8-80.3l-3.3-1.8c-26.6 26.7-72.3 36.6-136 29.6a7 7 0 0 1-2.9-13c3.6-2.1 80.2-49.1 134.8-33 20.2-26.5 13.9-59.6 13.8-60-.2-.8-.2-1.7 0-2.6 1.1-6 2-11.7 2.4-17-11.5-7.5-54.6-34.5-96-45-34.3 13-68.8 33-86.6 44.7a7 7 0 0 1-7.8-.1 7 7 0 0 1-2.8-7.3c5.6-25.7 18.7-42.6 38.7-50.5 16.8-6.6 37-5.9 57.3-1.3 40.8-15 71-16.2 89.9-3.7 13.5 9 20.8 24.5 21.7 46.3 14.1-17.2 32.4-76.9 27.1-274.5-3.6-136.7-17-273.2-17-274.5v-.2c-3.2-45.4-9.9-52.6-11.1-53.5-.5.2-1.6.8-3.5 2.8-1.7 30.5-4.8 68.3-10.7 109a875.3 875.3 0 0 1-37.7 160.4c-20.6 59.3-47.1 108.1-79 145.1a7 7 0 0 1-8.4 1.7 7 7 0 0 1-3.7-7.8c.2-1 24.1-107.1 52.8-211.4a1752.4 1752.4 0 0 1 45.3-145c7.9-21 15.2-37.2 21.6-48.3 1.7-2.9 3.7-6.1 6-9.1 2.1-41.6 1.4-68.6 1.4-69-1.4-53.6-8.8-70.6-13.5-76-3.7 22.7-9 49.2-16.5 77.3a570 570 0 0 1-49.8 126.6c-25.5 46.1-56.6 83.1-92.6 110a7 7 0 0 1-8.3 0 7 7 0 0 1-2.5-7.9c.3-.8 28.2-82.4 61.8-162 19.9-47 37.8-84.1 53.3-110.4 16.6-28.1 30.4-44 42.7-48.6 4.7-32.3 5.7-54 5.8-56.1-1.3-64.3-8.6-82.6-12.3-87.7-14.7 59.4-36.8 104.4-66.3 134.3a7 7 0 0 1-8.5 1 7 7 0 0 1-3.2-8c.2-.4 11.1-36.2 25.2-71.1 18.8-46.5 32-64 41.6-69.7 4.4-19.5 8-40.5 10.9-63 9.6-76.3 10.2-169.8 2-278-14.2-184.6-50-350-50.4-351.6a7 7 0 0 1 2.3-6.9c60.1-50.3 81.6-150 89-224.8 8.1-82 1.6-152.7 1.5-153.4 0-.7 0-1.4.2-2 8.5-40.4 11.6-72.1 9.2-94.2v-.3c-26.9 24.7-67.9 37.2-122.2 37.2a383 383 0 0 1-20-.6 7 7 0 0 1-6.2-4.4 7 7 0 0 1 1.5-7.4c1-1 22.9-23.4 50.3-43.5 38.5-28.2 68-37.2 87.5-26.8a37 37 0 0 1 15.3 16c17-27.8 13.3-56.9 13.3-57.2a6.8 6.8 0 0 1 0-1.7c10.2-104.2 4.3-193-17-263-11.2 5.4-46.4 19.6-83 1.4-43.6-21.6-71.6-80.5-83-174.9a7 7 0 0 1 1.9-5.7 7 7 0 0 1 5.6-2.1c2.6.2 63.4 6.2 116.8 70.6a281 281 0 0 1 41.3 68.4c30.3-167.4 15.8-306.4-7.5-405.5-3 15.6-6.3 31.4-9.7 47.3a7 7 0 0 1-5 5.3 7 7 0 0 1-7-2c-1-1.2-25.5-28.4-46.9-77.2-19.6-45-40-117.4-25.9-207.6a7 7 0 0 1 5.3-5.7 7 7 0 0 1 7.4 2.7c1.8 2.6 44.7 63.4 79 173.9 60.8-360.6 6.9-573-52.7-690.3-36.8-72.4-79.5-117-108.9-141.5-29.8-25-52.2-35-55.1-36.2-31-8.8-55.7-35.1-71.3-76.4-8.4-22.3-12-43.1-13.4-53.1-2.7-.4-6.3-1-11.1-2.3A519.6 519.6 0 0 1 2381 510c-42-12.4-75.6-28.4-100.5-47.7 7 25 7 45.3 0 60.6a44 44 0 0 1-10.6 21c-10.6 11-27.1 14.1-49 9a7 7 0 0 1-5.3-8 7 7 0 0 1 7.6-5.8c.2 0 27.9 2 41.1-16.1a33.1 33.1 0 0 0 3-4.8c2.9-15-.4-33.3-2.5-41.2a6.6 6.6 0 0 1-.2-1 273.8 273.8 0 0 0-6.7-35.6c-5.7-12.7-16-29-25.7-36.1-11.4.5-24.4 15.3-28.4 21a7 7 0 0 1-9 2.2 7 7 0 0 1-3.3-8.7c8-21 18.5-31.9 31-32.3 5-.1 9.7 1.4 14.2 4l2.4.5c13.7 3.4 24 17.2 31.3 42 37.7 19.5 131.4 65.6 171.7 76.8l8.8 1.4 14.3-283.6c3.2-68.4-15.2-121.4-54.7-157.3-41-37.5-98-50-138.7-53.8-44.6-4.3-79.7.5-80 .6-197.8 28.6-289.5 87.3-331.7 131.6-45 47.3-44.1 88.4-44.1 88.8a7 7 0 0 1-.5 2.8 35.6 35.6 0 0 0 2.7 34.6c11.8 18.3 40.6 34.5 84.8 48a7 7 0 0 1 3.8-3.6c4.6-1.8 113-43 181.7-10.7a88.6 88.6 0 0 1 47.7 54.2 7 7 0 0 1-1 6.4 7 7 0 0 1-6 2.8c-.6 0-68.7-3.4-141.6-15.7a773 773 0 0 1-73.6-15.7c-4.1 33.3 2 63.4 18 90a119.3 119.3 0 0 0 30.7 34.2c31.7 26.4 29.6 95.7 29.5 98.7 0 .4 0 .8-.2 1.1-3.7 18-2.4 30.2 3.9 35 9 7 28.8-.4 35.1-3.5a7 7 0 0 1 6.3 0 7 7 0 0 1 3.7 5l5 27a7 7 0 0 1-1.6 5.7c-1.5 1.8-1.6 2.7-1.6 2.7.5 1.5 6.4 4.4 12.2 5.5a7 7 0 0 1 5.5 5.4 7 7 0 0 1-2.7 7.2c-2.8 2-2.8 3.6-2.9 4.3-.1 5.3 7.5 14 12.6 18a7 7 0 0 1 2.6 5.2c1.4 32 11.1 54.7 28.9 67.5 26.5 19.1 63.6 11 69.2 9.5 106-59.4 188.2-98.7 244.3-117 47.6-15.4 77-16 90-1.6 20 21.9-9.2 65.5-12.6 70.4a7 7 0 0 1-2.2 2c-91.9 54.3-167 89.7-223.3 105.3-42.5 11.8-74.3 12.2-94.4 1.4a40.7 40.7 0 0 1-16.6-15.8c-48.1 61.2-94.2 243.4-133.5 529.4a7092.8 7092.8 0 0 0-22 178v-.2c26.5-78.8 65.7-163.3 116.4-251 15.7-27.2 31.6-53 47.1-77.2a927.3 927.3 0 0 1 28-66.3c36.7-77.1 72.1-115.7 108.3-118a7 7 0 0 1 6.7 3.9 7 7 0 0 1-1 7.6c-.7.9-61 72.7-129.6 179.4-18.3 48.1-37.9 108.5-58.5 184-51.5 188.3-88 391.6-100 458.4a707.4 707.4 0 0 1-4.1 22.3c-1 4-3.7 7.1-7.6 8.7-6 2.4-17.5 3-51.8-14.5-18-9.1-33.7-19-34.3-19.3l-.7-.5-73-58.4c-28-16.1-34.7-11.8-35.8-10.8-3.2 3-3.6 15.4 5.6 40.2 6.9 18.2 15.7 34.7 15.8 34.9a7 7 0 0 1-11 8.3l-39.2-39.1c-73.7-69.9-183.2-115.3-222.5-130.1 10.2 29.5 9 61-3.2 94-9.4 24.9-25.2 50.6-47 76.7-24.2 48.6-66.5 84.8-126.2 107.7a7 7 0 0 1-6.2-12.5c.6-.3 58.6-36.1 107.5-88.3a425 425 0 0 0 13-14.5c5-10.6 9.3-21.8 12.7-33.7 34-120.9-33.6-287.2-96.2-405.4a1847.2 1847.2 0 0 0-106.3-174.9c1.5 12.1-.5 22.4-6 30.6-21.3 31.7-86 19.2-88.8 18.6a7 7 0 0 1-5.6-6.6 7 7 0 0 1 5.1-7c26.6-7.1 42.7-20 49.2-39.6 15.8-47.2-28.8-118.7-48.7-147.3-5.5 19.3-15.3 30.4-29.1 33-2 .5-4.1.7-6.3.7-31.6 0-79-41.7-144.1-126.8a7 7 0 0 1-3.5-.8c-1.8-.9-43-23-84.4-65.5a307 307 0 0 1-57-80.1c-17-35.3-25-72.4-23.9-110.4a7 7 0 0 1 13-3.3c.6 1 57.8 98.8 124.3 193.4a1950.6 1950.6 0 0 0 24.4 34c2.1-205 29-351 29.3-352.5a7 7 0 0 1 2.8-4.3 48.6 48.6 0 0 1 45-8.5c40 12.4 73.8 74.7 92.4 116a166 166 0 0 0-53-105c-50.7-46-128-60.8-184-65.2-57.8-4.4-105 1.1-110.3 1.8-90.7 25.4-140.9 64.7-149.3 116.6a1983 1983 0 0 0 111.5 212c32.4 33.4 71.6 68.6 117.6 105.6 122.2 98.3 249.1 173.8 250.4 174.6a7 7 0 0 1 3.3 7 7 7 0 0 1-5.2 5.8c-60.3 15-124.6-4.2-191.2-57.3-52.3-41.7-106.3-104.6-160.5-186.7a1465 1465 0 0 1-25.5-40.2 734.9 734.9 0 0 1-48.5-55c-49.6-62.5-72-117.7-66.3-163.8a1376 1376 0 0 1-11.9-27.1c-53.8-5-92.6 8.9-115.2 41.5a125.6 125.6 0 0 0-16.8 36.5c35.6 219.2 246 386.5 416.3 488.2a2054 2054 0 0 0 367 170.7 7 7 0 0 1 4.6 8c-9.3 51.5-26.6 87.8-51.7 108.7 43 13.7 70.3 20 71 20.2a7 7 0 0 1 4.5 3.5 7 7 0 0 1 .4 5.7c-21 59.5-55.8 94.2-103.1 103-41.5 7.7-92.8-4.7-152.6-36.9-47-25.3-99.6-63-156.3-112A1849.7 1849.7 0 0 1 786 1307.2c18 51.6 54.1 105.8 108 161.5 51.6 53.4 119.3 108.3 201.3 163a2208.5 2208.5 0 0 0 275.7 155.7 7 7 0 0 1 4 7.4 7 7 0 0 1-6 5.9c-22.2 2.7-44.1 4.1-65.6 4.1a459.2 459.2 0 0 1-166.6-30.3c-57-22-110-56-157.2-101.1a549.1 549.1 0 0 1-117-160c-56.2-78.3-112-118-166-118.1h-.1c-52.8 0-87.5 39.3-94.8 48.3 10.4 307.2 77 493.8 131.2 596.3 58.7 111.2 115.8 150 116.4 150.4a7 7 0 0 1 3 6.7c-9.7 77.7-362.9 1628-377.9 1694a7 7 0 0 1-7.3 5.3 7 7 0 0 1-6.5-6.3c-8-83.2 3.7-224.7 35-420.6 25-156.4 62.6-347.8 111.5-568.9 69.3-313.3 142.4-599 165.4-687.7l-137 154.1c-279.3 377.9-423.6 939.3-495.6 1343.7-78 438.6-90 792-90 795.6a7 7 0 0 1-.7 2.7c-45 97.8-46.7 172.6-5 222.4 30.5 36.6 85 60.7 161.9 71.7 62.4 8.9 139.3 9 228.6.6 152.6-14.4 290.1-49.6 291.5-50a7 7 0 0 1 2-.1c32.8 1.6 61.2-11 86.8-38.6 25.6-27.6 47.7-69.7 66.1-126.2a1457 1457 0 0 1-2.6-36.5c-5.5-94-6.8-241.4-4-437.7-.2-15.8-15.5-965.5-1.4-1380.3a7 7 0 0 1 6.7-6.8 7 7 0 0 1 7.2 6.2c.5 4.2 52 430.1 70.1 885.6 10.7 267.6 8 493-8 669.9-9.6 105.2-24.1 194.3-43 264.7a781 781 0 0 1-10.8 36.5 612 612 0 0 0 6.1 50.3c4.2 24 8.4 30.8 9.9 32.6 2.2-1.9 9.3-10.3 20.7-49 8.7-29.4 18.4-71.7 29-125.5a7837.9 7837.9 0 0 0 60.6-371.2c38-264.8 69.1-530 69.4-532.6a7 7 0 0 1 7-6.2 7 7 0 0 1 7 6.2 2321.9 2321.9 0 0 1 2.5 511.8c-14.4 132-41 259.6-78.7 379.4-54.1 171.3-116.5 277.8-135.6 308.4 176.3 28.9 318.3 3.2 423.7-76.5l1-4.4c5.4-21 18.5-45.4 39-72.8-1.8-30.8-19.5-329.3-21.8-647.8-1.4-196.7 3.2-362.4 13.8-492.6 13.3-163.6 36.2-271.7 68-321.4a7 7 0 0 1 7-3.1 7 7 0 0 1 5.7 5c.8 2.7 79.3 276 113.1 594.6 19.9 187.3 20.6 353.4 2.2 493.7-23 176.2-76.6 312.2-159.1 404.2a431 431 0 0 1-56.2 52.5c-1.8 13 .2 24.1 6 33.3 19.5 30.5 82.3 42.7 181.7 35.4 67-5 129.8-17.5 145.2-20.7 43.3-107.1 62.2-308.2 56.2-597.7-4.9-234.6-26-527.3-63-870a22790.5 22790.5 0 0 0-149.8-1111.7c-35.7 17.4-127.2 35.2-273 52.8-95.5 13.9-212 26.2-351 33.6a7 7 0 0 1-7.3-6.5 7 7 0 0 1 6.5-7.4 8791.8 8791.8 0 0 0 350-33.6 2352.7 2352.7 0 0 0 231.2-44.3c117.8-29.5 169.3-55.7 169.8-56 .9-.4 1.8-.7 2.8-.7 9.3-.6 17.6-2 24.6-4.3-2.2-3-4.1-7.9-3-17l-45-94a7 7 0 0 1-.5-1.3 34.4 34.4 0 0 0-21.3-25.2c-23-9-63.6-1-117.2 23a577 577 0 0 0-17.5 8.3c-17.4 19.4-38.3 33.4-62.3 33.4-.8 0-1.6-.1-2.3-.4-.6-.2-48-15.8-111.5-27-49.8-2.9-101.5 2.5-144 9.6-46.6 7.7-88.1 18.2-115.8 26.1-18.3 9.6-34.9 11.1-37 11.3a7 7 0 0 1-2.9-.4h-.2l-.4-.2h-.1l-.1-.1a7 7 0 0 1-3.4-3.4 6.8 6.8 0 0 1-.4-1.2 7 7 0 0 1 0-3.7h.1l.6-1.5v-.1a7.2 7.2 0 0 1 1.2-1.5c13.1-13 28.8-24 46.9-32.8a111.2 111.2 0 0 0 27.3-52.7c4-18.7 4.3-39.9.7-63.4-15.2-65-59.6-159.7-159-297.2a7 7 0 0 1 1.4-9.6 7 7 0 0 1 9.7 1c.5.5 48.6 57.2 92.1 130.6a620.6 620.6 0 0 1 56.9 120.6 323.8 323.8 0 0 1 13 53.5c9.3 41 8.5 75.4-2.5 102.4a302 302 0 0 1 31-6.9c39.7-6.6 86-7 137.8-1.2 16.5 1.8 32.6 4.2 47.8 6.8 44.5 2.6 82.3 11.5 112.6 26.4 8-4.9 28.4-17.1 54.2-29.9 10.3-12 19.1-25.8 26.2-38.7 19.7-35.7 30.7-72 30.8-72.3a7 7 0 0 1 10.4-3.9c39 24.6 66 45.8 80.3 62.9 11.7-55 54.3-152.9 56.4-157.7a7 7 0 0 1 4.4-3.9c15-4.6 26-3 32.2 4.8 2.2 2.7 3.7 6 4.4 10l3.2-6.3a7 7 0 0 1 8.7-3.4c13.2 4.8 22 12.2 26 22.1 5.4-5.9 9.3-7.6 12.3-8.1 2-.4 4-.2 5.8.6 14.7 3.2 23.9 10.5 27.3 21.8.5 1.5.8 3.2 1 5 3-.2 5.6.4 8 1.8 6.9 4.2 9 13.9 6.6 29.6-1.5 9.8-4.3 18.7-4.4 19a6.7 6.7 0 0 1-1 2.1c-25.2 33.5-31.7 75.9-32.8 84.2 11.5 32 30.9 54.6 57.6 66.9a95 95 0 0 0 39 9.1c29.6 4.1 53-2.4 69.4-19.5 1.7-1.8 3.4-3.7 5-5.8-8.4-31.7-9-84 21.4-166a7 7 0 0 1 7.2-4.5 7 7 0 0 1 6.2 5.7c.9 4.8 19 109.2-19.5 167.4a66.8 66.8 0 0 0 16.4 28.6c7.1 3.1 58.4 25.1 128.1 35.3 68.7 10 169.8 10.3 261.7-45 36-21.7 68.2-50.1 96.3-85.2 50.5-74.4 82.7-163.7 102.7-238.4a1344.7 1344.7 0 0 0 41.2-247.3v-1.2a7 7 0 0 1 14 .7v1c-8.9 159.7-37.3 291.6-84.6 392a514.4 514.4 0 0 1-58.8 97.1c-36 53.8-77.5 94.8-123.9 122.1a303.3 303.3 0 0 1-156.7 41.8c-66 0-138.5-18.6-216.8-55.8v399.5a57.5 57.5 0 0 0 29.8 40.4c24 14.2 62.3 21 113.4 20.2a7 7 0 0 1 1.4-1.7 7 7 0 0 1 5.7-1.6c.2 0 7.1 1 19.2 2.4 56.7-3.3 126.8-14.3 208.8-33.2 133.4-30.6 252-71.3 253.2-71.7a7 7 0 0 1 8.4 3 7 7 0 0 1-1.4 8.9c-39.9 35.2-90.5 62.7-150.6 81.5a693.8 693.8 0 0 1-160.2 28.5c-68.3 4.6-127.3.3-157.7-2.9l-13.5.7c9.3 261.9 183.8 1207.5 185.6 1217.1l.1 1c7.5 202.9 49 357 82.8 450.9a231 231 0 0 1 12.8-14.8 7 7 0 0 1 6.4-2 7 7 0 0 1 5.2 4.1c1.8 4.5 44.5 109.5 49.4 173.5a7 7 0 0 1-4.7 7.1 7 7 0 0 1-8-2.7c-1.4-2-31.2-47.7-65-135.6-26.3 40.7-43.5 89.5-54 127.3-15 53.9-20 97.8-20 98.2a7 7 0 0 1-4.2 5.6 7 7 0 0 1-7-.7c-7.1-5.3-17.1-10.7-23.9-7-12.2 6.6-14.4 39.8-13.6 54.8a7 7 0 0 1-5 7.1 7 7 0 0 1-8.2-3.4c-6.3-11.7-12.8-18.3-17.4-17.7-9.5 1.3-20.5 28.6-24.9 47.8a7 7 0 0 1-3.2 4.5c-7.7 4.5-14 8.6-19.2 12.2 2.7 1.1 5.3 2.5 7.7 4.3 10.4 7.3 15.8 18.6 16.1 33.5a7 7 0 0 1-6.7 7.2c-.4 0-11.3.5-22.9-.8-18-2-28.2-7.4-30.9-16.4-1.6-5.7 0-11.7 5-18.4a137.6 137.6 0 0 0-34 6.2l-87.6 9.7c-39.1 9.3-61.2 21.8-62.3 35.2-.2 2 .1 4 .8 6.2 4.1-2.6 7.6-4.1 8.5-4.5a7 7 0 0 1 4.3-.5l86 18.4c96.8 19.6 148.7 7.5 175.3-6a70.8 70.8 0 0 0 32.4-29.4 15.7 15.7 0 0 1-2.9-7.4c-1-8.3 2.1-24 39.5-65.8 13.8-15.4 28-29.5 35.3-36.6-9.8-12.8-11.7-33.5-5.6-61.8 5-23 13.6-42.7 14-43.5a7 7 0 0 1 7.3-4.1 7 7 0 0 1 6 6c9.5 72 25.1 85 33.6 86.3 12.4 2 28.5-16.8 40-34.7 2.7-7 6.7-14 11.8-20.7a7 7 0 0 1 9.2-1.7 7 7 0 0 1 2.7 9c-1.2 2.3-5.2 10.5-11.3 20.1a57.3 57.3 0 0 0-1.4 33.8c6.2 0 12.7.6 19.3 2.3 37 9.3 66 46.3 86.7 110a7 7 0 0 1-2.2 7.5 7 7 0 0 1-7.9.7c-3.6-2-83.4-47.5-105.9-105.6a112 112 0 0 0-52.7 26.6c-39.3 31.7-62.2 59.9-67.6 82.8 15.9-2.1 39.8-2.2 52.8 12.1 10.5 11.7 11.3 29.8 2.3 53.9a7 7 0 0 1-8 4.4c-2.2-.5-52.1-11.6-61-49l-.3-1.3a422.5 422.5 0 0 0-43.9 49.6h.4c13.4 0 26.2 2.6 35.7 9.7 13 9.8 18.1 26.2 15.3 48.6a7 7 0 0 1-5.5 6c-6.1 1.4-60.4 12.5-74.4-13.4-4.7-8.8-4.1-20 2-33.8-16.5 3.4-31.9 9-40.3 12.5-63 26.8-76.2 49.2-76 63.3 0 22.4 33.6 41 46.5 46.2a7 7 0 0 1 4.2 8 7 7 0 0 1-7.1 5.5c-44-1.6-68.8-12-76-31.9-1.8-5-2.4-10.3-1.8-16-14 19.8-18.2 35.7-12.4 47 9.2 17.6 53.9 43.3 250.5 17.7 113.9-14.9 224-40.2 225-40.4a7 7 0 0 1 8.5 5.2 7 7 0 0 1-5.3 8.4c-1 .3-111.8 25.7-226.2 40.6-55.8 7.3-103.5 11-142.3 11z" fill="#231F20" fill-rule="evenodd"/></svg>