<svg xmlns="http://www.w3.org/2000/svg" viewBox="0 0 369 550"><path d="M188.3 4.1c-6.5 3.8-22.1 20-28.4 29.7A69.5 69.5 0 0 0 149.3 77c.6 9.6 3.6 27.4 4.5 26.6.2-.3-.1-7.2-.8-15.5a77.7 77.7 0 0 1 4.5-38.4 108.7 108.7 0 0 1 30-43.1c5.6-4.2 7.3-5.7 6.3-5.6l-5.5 3.1ZM13 121.4c-4.1 1.3-9.4 8-11.2 13.9a60.4 60.4 0 0 0 4.9 36.4c1.5 3.1 4.8 7.9 7.3 10.6 5 5.6 5.1 6.1 2.2 18.7-2.5 10.8-2.3 50.3.2 64.5 6.1 34.1 16.7 55.7 31.6 64.6 8.4 5 11.1 5.7 23.8 6.9 11 1 23.7.2 42.1-2.6 7.3-1.1 14.6-1.5 25-1.2 12.9.4 15.5.8 22.1 3.3a41.5 41.5 0 0 1 20.2 13.4 65 65 0 0 1 14.4 26.2l3.4 10-2.9 5.7a187.1 187.1 0 0 0-17.7 52.2c-5 23.6-4.2 60.5 1.8 80 3 9.7 8.3 19.5 12.1 22.4 5 3.9 10.4 3.6 14.6-.8a25 25 0 0 0 4.7-8.1 201 201 0 0 0 3-41.5c-.4-4.7-1.1-20.4-1.6-35a818 818 0 0 0-2-37.5 260.1 260.1 0 0 0-6.1-35c-.8-2.5-.4-3.9 3.7-11a89.8 89.8 0 0 1 19.6-24.3c12-11.9 22.5-19.7 35.7-26.5a114.2 114.2 0 0 1 59.1-14.1c14-.1 14.7-.2 19.3-2.9 4.1-2.4 12.2-11.5 11.2-12.5-.2-.2-2.3 1.2-4.7 3-9 6.9-13.4 8.1-33.3 8.9-17.3.7-24 1.6-32.9 4.1-6.9 1.9-23.5 8.9-30 12.5a163.3 163.3 0 0 0-28.3 21.5 174.1 174.1 0 0 0-19.3 26.5 15.2 15.2 0 0 1-2.9 4.3c-.4 0-1.2-2.2-1.8-5-1.7-7-8.6-20.8-14.3-28.2a51.7 51.7 0 0 0-23.8-17c-9.9-3.4-29.9-3.2-46.7.5-20 4.4-24.9 5-38.3 4.4-20.9-.8-30.1-4.5-38.3-15.4a51.1 51.1 0 0 1-6.8-12.5c-3-9.1-8-32.8-9.1-43.3l-2.4-22.7a134.7 134.7 0 0 1-.5-28.5c1.3-19.5 1.8-21.7 5-22.1l2.6-.3.6 16.3c.7 17.7 2.3 27.1 6 35.1 4.3 9.3 6.6 11.2 25.6 20.3 9.7 4.7 18.2 9 18.8 9.6 1 .8.1 2.4-4 6.7A53.9 53.9 0 0 0 60 311.1c0 6.2.7 8.9 2.2 8.9.5 0 .7-.4.4-.9-1.1-1.7 2.2-15.8 4.9-21.1a71.2 71.2 0 0 1 19.2-20.2l3-1.7 6.9 4.6a54.1 54.1 0 0 0 27.2 10.9c7.2.6 8.4.4 11.6-1.5 1.9-1.2 4.5-3.9 5.8-5.9 2.1-3.4 2.3-4.7 2-15-.3-13.2.7-15.9 8.4-21.4 5.1-3.7 5.4-5.5 1.9-11.7a23.8 23.8 0 0 1-2.3-4.6l3.5-1.9c3.6-1.8 7.3-6.5 7.3-9.4 0-1.1-.9-3.9-2-6.3-3.3-7.4-1.8-14.6 3.8-18.1 3-1.9 3.2-1.9 3.2-.1 0 1-.7 4-1.5 6.7-1.3 4.4-1.3 5.2 0 7.3 2.1 3.1 8.4 6.2 14.7 7.1l5.3.7-.4 4a20 20 0 0 1-1.7 6.8c-.8 1.5-1.2 3.7-.9 4.7.9 2.9 9.7 8.8 15.2 10.3l5 1.2-2.3 3.5c-3.5 5-3.2 9.3.9 12.3 1.7 1.4 4.7 3.2 6.5 4.1 4.6 2.4 6.2 6.7 6.2 17.3.1 13.4 4.8 22.2 14.3 26.4 9.7 4.2 18 2.6 33.3-6.4a909 909 0 0 1 19.9-11.2c9.5-5 30.7-17.7 43.9-26.2 7.7-5 13.8-11.6 16.8-18.1 3.8-8.4 4.4-16 2.4-29.5a70.4 70.4 0 0 1-1-23c.5-1.3.9-1.3 3.2-.1 4 2.1 6.5 1.7 11-1.6 4.6-3.3 6.9-7 8.8-14.5 1.8-6.7 2.9-21.5 1.5-19.5-.6.8-1.1 2.3-1.1 3.3s-1.2 5.3-2.6 9.5c-6 17.2-13.1 22.5-18.3 13.6-2-3.4-5.3-4.5-6.7-2.3-.4.6-.7 12.9-.8 27.3-.1 24.6-.2 26.4-2.3 30.8a50 50 0 0 1-17 18.3 661.2 661.2 0 0 1-55 36.7c-5.5 3.2-13.7 6.8-18.7 8.4-8.7 2.7-8.9 2.7-14 1-10.5-3.4-12.9-7.6-13.1-23.6-.1-6.7-.6-12.4-1.3-13.7-.7-1.2-3.8-4.1-6.9-6.5-5.3-4-5.8-4.8-6.1-8.6-.4-5.2 3-9.2 7.8-9.2 3.4 0 10-2.4 10-3.7-.1-4.4-6.9-4.9-12.9-1a15 15 0 0 1-7.3 2.7c-3.1 0-12.9-4.8-14.2-6.9-.4-.5.1-4.3 1-8.5 1.6-7.2 1.9-7.6 5.1-8.7 4.9-1.6 10.3-6.6 10.3-9.4 0-3-3.5-5.5-7.6-5.5-4.4 0-9.1 4.1-10 8.6-.6 3.2-.9 3.4-4.4 3.4-4.7 0-9.8-2.5-11.2-5.6-.9-1.9-.8-4.1.5-9.7 4.3-18.3 4.8-41.4 1.1-51.7-2-5.5-9.2-17.6-10-16.7-.2.2 1.4 4.2 3.6 9 6.4 13.6 6.7 16.8 3.8 41.4-1 8.6-1.2 9.3-3.3 9.3-2.8 0-10.4 5.1-12.1 8.1-2.3 4.2-1.7 12.7 1.2 17.7 2.6 4.4 2.6 4.4.7 7a28.6 28.6 0 0 1-4.6 4.6c-2.3 1.7-3.1 1.8-4.5.8-5.2-3.7-11.3-3.7-13.6.1-.9 1.5-.6 2.3 1.8 4.3 2.5 2.2 3.5 2.5 7.5 1.9 4.5-.6 4.7-.5 6.7 3l2.1 3.6-5.8 5.9c-6.9 7.1-8.2 10.9-7.4 21.3.6 6.3.4 7.8-1.7 11.7-3.1 6-5.7 7.2-14.3 6.7-9.3-.7-15.4-3.5-32-14.9C72 259.2 69 257.4 58.8 253.3 36.6 244.4 32 233.7 32 191.5c0-9.6-.4-17.5-1-18.6-2.4-4.5-9-.6-10.5 6.2l-.7 3-1.9-2.5a80.4 80.4 0 0 1-9.6-36.8c.6-7.3 4.3-14.9 8-16.6 5.8-2.8 12 4.4 13.3 15.4.5 4.2.9 5.3 1.5 3.9 1.6-4.1.9-10.1-1.7-15.4-3.9-7.7-9.8-10.9-16.4-8.7Zm14.6 58.1c.8 3.2-.1 5.5-2.1 5.5-1.7 0-1.8-.4-.9-4.9.8-3.7 2.1-4 3-.6Zm171.9 26.6c.9 1.3-1.4 3.8-5.4 6.2-2.8 1.6-3.1 1.7-3.1.2 0-1.8 5.2-7.5 6.9-7.5.5 0 1.3.5 1.6 1.1Zm-56.3 24.7c-1.9.6-4.4-.6-3.7-1.8.4-.7 1.4-.6 2.8.2 1.4.7 1.7 1.3.9 1.6Zm59.1 166.4 2.7 13.3c5.6 25.4 3.4 108.8-3.2 121.8-2.1 4.3-3.7 5.2-7.2 4.3-4.5-1.1-7.6-11-12.1-39.4-3.7-23.4-1-58.9 6.1-77.9 3.6-9.8 11.6-26.3 12.4-25.8.4.3 1 1.9 1.3 3.7Z"/></svg>