<svg xmlns="http://www.w3.org/2000/svg" viewBox="0 0 4391 2253"><path d="M2322.6 478.7a16 16 0 0 0-6.7 1.7c-8.6 4-15.6 14.3-19.3 28-3.5 13-5.7 35.4 3.9 69l1.9 6.7a262.8 262.8 0 0 0 24-43.2c16-37.6 8-53.3 5.3-57.2-2.7-3.8-6-5-9.1-5zm822.9 1060.8c-9.3 14.5-20.5 28.1-30.8 40.7-4.8 5.7-9.2 11.2-13.2 16.3a17 17 0 0 0-4 13.8c3.2 20.2 38.3 44.2 61.4 60 8.6 6 16 11 21.2 15.3 21.7 18 14.6 38.2 9 54.5-2.8 7.8-5.4 15.1-5.4 22.4 0 3.2 7 5.7 11.2 6.9 10 2.8 24.1 4 37.7 5.3a187 187 0 0 1 40.1 6.2c9.5 3.3 21.6 11.2 38.4 22.2 32.9 21.5 81.2 53.2 148.7 75-39.1-51.7-104.3-110.1-162.2-162-59.7-53.6-116.2-104.2-138.2-141.5-7.1-12.3-11.4-24-14-35zm345.4 347c40.4 6.3 82.8-11.5 112.3-28.4a393.8 393.8 0 0 0 64-46.7c-19.9-15-41-28.8-62.4-43-30.8-20.1-62.6-41-94.9-67.3-30.5-24.8-64-95-103-176.4-39.2-82.2-83.8-175.4-135.2-244.5-57.7-77.5-112.9-109.4-168.7-97.4-39.3 8.5-63 23.6-70.4 45-17 49 47.3 127 89.8 178.5 8.6 10.4 16.1 19.5 22.3 27.5a37.9 37.9 0 0 1 13.3 12.4c4.5 7.1 6 15.2 6.3 23.8a71.3 71.3 0 0 1-1.8 33.8c-.7 18 1 38.1 14.2 60.6 20.4 34.7 75.7 84.3 134.3 136.8 65.4 58.6 133 119.3 172.4 175.3 2.3 3.3 4.8 6.7 7.5 10zM495.4 2101.8c-6.9 0-15.9 2.2-26.6 6.7-12.3 5.1-15.7 9.6-15.4 11 .6 3 7.3 10.6 28.7 20 8 3.5 17.4 7 28 10.5 3.7-19.1 4-37.4-3.3-44.5-2.5-2.5-6.4-3.7-11.4-3.7zM3990.5 2205c15.4 0 44 2.5 106.8 15.8a655 655 0 0 0 68 11.5c8.3.8 13.5.8 16.8.6v-.2c-3-4.3-8-11.5-3.3-18.7 5.4-8 17-5.7 24.6-4.1 21.6 4.4 60.4 5 98.7 1.7 32-2.9 52.4-7.5 62.6-11.1-8.9-3.3-26.8-8.4-63.4-15.9-39.8-8.1-91.7-17-142-25.7-49-8.5-99.6-17.2-140.5-25.4-52-10.5-100.3-38.1-147.6-84.6-40.2-39.5-73-86-101.8-126.8-9.3-13.2-18-25.5-26.4-36.9a340 340 0 0 0-59.7-61.3 417.5 417.5 0 0 1-70.1 51.5c-36.8 21.1-72 32-103.6 32.4 99.8 103.9 336 232.6 411.8 272.6l14.6 7.7c34.4 18.2 34.4 18.2 41.5 17.5 3.2-.3 7.2-.6 13-.6zm187.5 48c-2.4 0-5 0-7.9-.3-17-1-42.1-5-77-12.4-83.5-17.6-104-15.7-113.7-14.8-13 1.3-14.6.5-52.8-19.7l-14.5-7.7c-47.4-25-140.4-75.5-231-133.6-96.4-62-163.9-115.5-201-159.7-2.1-.4-4.2-1-6.2-1.5-80.8-22.6-136.8-59.2-173.8-83.5-15-9.8-26.7-17.5-33.9-20-8-2.8-22-4-35.4-5.2-14.5-1.3-29.5-2.6-41.3-6-11.8-3.3-25.8-10.5-25.8-26.1 0-10.6 3.4-20.4 6.5-29 5.6-16.2 7.7-23.8-2.8-32.5-4.6-3.8-11.6-8.6-19.7-14.1-27.6-18.9-65.4-44.8-70-73.5a36.7 36.7 0 0 1 8-29.1c4.1-5.4 8.7-11 13.5-16.8 17.4-21.2 36.3-44.3 43.4-67 .2-4.5.6-8.7.9-12.7.4-5.6.8-10.8.8-15.3a43.3 43.3 0 0 0-1.8-5.8 87.4 87.4 0 0 0-11-17.2c-6.6-3-16-5-28.5-6.3-29.6-3-58.4-8.1-88.9-13.5-64.4-11.4-144.5-25.6-275.7-27-57.5-.6-94.2-16-115.6-48.2-19.4-29.3-24.7-69.7-30.8-116.5-7.9-60-17.6-134.6-61.2-212.2A1884 1884 0 0 0 2441 886c-54-79-109.8-160.4-145.5-259a714.9 714.9 0 0 1-50.7 56.1C2100.8 828 1938 960 1807 1066c-53.3 43.2-99.4 80.6-137.8 113.5-10 8.5-15.9 18-23.4 30a287.7 287.7 0 0 1-44 56.3 275.2 275.2 0 0 1-47.2 36.9c-9 5.9-16.9 11-22 16.3-116 119.2-290.7 318-386 451.5a3176.9 3176.9 0 0 1-45.6 61.7c-52.8 70.4-94.5 126-83 163 6 19.4 27.4 35.1 65.4 48 27.2 9.2 55 18.2 81.6 27a2579.7 2579.7 0 0 1 154.2 53.5c51.9 21 71.7 36 70.8 53.4-.8 13.8-10 22.8-23 28.6l816.1 1.4c357.9.6 695.9 1.2 807.9 1.2v20c-112 0-450-.6-808-1.2-516.3-1-1101.6-2-1118-1.5-7.7.3-16.3 0-20.2-6.3a11 11 0 0 1-.1-11.3c1.2-2.1 4-7.1 23.3-12 6.6-1.7 20-4.4 35.8-4.4h.3c20.8 0 46.7 1.3 74 2.7 44.5 2.4 95 5 133.3 2.3 36.7-2.6 58-10.1 58.6-20.6 0 0-1-4.4-14.5-12.8a316.9 316.9 0 0 0-46.4-22 2657.6 2657.6 0 0 0-150.3-52 8280 8280 0 0 1-81.8-27.1c-44.6-15-70.1-35-78.2-61-14.5-46.7 27.8-103 86.2-180.9 14.7-19.5 29.8-39.7 45.3-61.3 96-134.3 271.5-334.1 388-453.9 6.6-6.8 15.3-12.5 25.3-19 13.2-8.7 28.2-18.5 44-34.3 21.7-21.7 32.1-38.3 41.3-53 8-12.8 15-24 27.2-34.4 38.7-33.1 84.9-70.5 138.3-113.8 130.5-105.7 293-237.3 436.3-381.3a659.7 659.7 0 0 0 57-64.6 619.4 619.4 0 0 1-6.5-21.6c-18.6-65.8-.3-108 26-120.6a31.7 31.7 0 0 1 40.8 9.8c6.8 9.7 15.5 32.4-3.2 76.6a306 306 0 0 1-34.8 59.5c34.6 101.7 92 185.4 147.5 266.6 31 45.2 63 91.9 90.7 141.2 45.5 81 55.6 157.7 63.6 219.4 5.8 44.3 10.9 82.7 27.7 108 17.6 26.7 48.2 38.8 99 39.4 133 1.4 214 15.7 279 27.2a1183.9 1183.9 0 0 0 93.6 14l-4-5c-22.6-27.2-50.5-61-70.6-95.2-24.7-42-32.1-75.6-22.8-102.5 10-28.5 38.5-48 85.1-58 34.4-7.4 69-.6 102.6 20.2 28.9 17.8 57.1 45.5 86.3 84.7 52.7 70.8 97.6 164.9 137.3 247.9 37.8 79.1 70.5 147.5 97.5 169.5 31.5 25.6 62.9 46.2 93.2 66.2 23 15 45.3 29.6 66.4 45.7 38.5-37.2 67.3-78 74.2-104.7 20.8-79.5-11.6-152.6-12-153.3l-3.5-7.9 7.3-4.6c.4-.3 42.6-28.3 48.7-68.9 3.2-21.2-4.1-42.8-21.8-64-21.4-25.6-49.4-33.5-83.2-23.5a152 152 0 0 0-46.5 23.9l-4.3 3.4-5.2-1.7c-2.1-.7-52.3-17.6-60.8-20.8-10.2-4-32.2-7.8-57.7-12.3-53.4-9.3-119.8-21-149-45.1-36.1-29.8-57.3-72.9-81.8-122.8-28-57.1-60-122-122.9-183.3-53.5-52.2-182.3-210.1-318.6-377.3-167-204.9-356.3-437.1-443.2-518.7-75-70.5-164.4-103.6-251.6-93.3C2070.8 32 2001.4 76.2 1955 147c-13.7 20.8-62.5 105.5-124.4 212.7-135.7 235.3-340.7 590.8-415.2 690.1-52.5 70.2-116.4 122.4-172.9 168.5-60.8 49.6-118.2 96.4-149.8 156-37.9 71.4-80.8 178-118.7 271.9-23.9 59-46.4 114.9-63.7 152-18 38.5-40.6 80.4-62.4 121-43.4 80.7-88.2 164.2-91.3 211-2.1 33.3 48 47.4 67 52.7l6.4 2c8.7 2.8 9.3 8.6 8.9 11.9-.3 2.4-2 8.1-10.5 9-1.5.2-3.4.4-6.2.4-5 .2-12.5.2-23.8.3-7.7 0-17 0-28.2.2-66.8.6-147.3-8.3-215.3-24-10.7-2.4-20.9-5-30.4-7.6-3 10.3-5.9 17.4-6 18l-2.5 6.3H0v-20h502a218.4 218.4 0 0 0 3.3-10 323.5 323.5 0 0 1-31.3-11.7c-24.9-11-37.7-21.9-40.2-34.3-2-9.3 1.3-22.6 27.3-33.5 27.2-11.3 47.3-11 59.7 1.2 11.9 11.6 14.8 32.7 8.8 62.9l-.3 1.7a670 670 0 0 0 30 7.6 959.8 959.8 0 0 0 210.6 23.4h6.2a119 119 0 0 1-6.6-3.8c-29-17.5-33.9-39-33-54 3.4-51.1 47.3-132.8 93.7-219.2 21.7-40.3 44-82 61.9-120 17-36.6 39.5-92.2 63.2-151 38.1-94.4 81.3-201.4 119.7-273.7 33.5-63.2 92.4-111.3 154.8-162.2 58.2-47.6 118.5-96.8 169.5-165 73.7-98.3 278.4-453.2 413.9-688 64.4-111.8 111-192.5 125-213.8 24.9-37.9 56-68.8 92.4-91.8a279.7 279.7 0 0 1 117.3-41.6c93.2-11 188.2 24 267.6 98.6 87.8 82.5 277.6 315.3 445 520.7 136 166.7 264.3 324.1 317 375.5 65.5 63.8 98.2 130.3 127 189 23.5 47.7 43.8 89 76.5 116 25.2 20.9 91.4 32.5 139.7 40.9 27.7 4.8 49.5 8.6 61.6 13.3 5.8 2.3 36 12.5 55 18.8a173 173 0 0 1 48.8-24.1c41.6-12.3 77.6-2 104.2 30 21.6 25.7 30.4 52.6 26.3 79.8-6 39-37 66.9-50.9 77.7 8.3 21.8 28.7 87.3 10 159-6.3 24.1-26.9 57-56.4 90-6.8 7.6-14 15-21.3 22.2 22.1 18.2 42.7 38.5 61 63.2 8.6 11.5 17.4 24 26.7 37.2 57 80.9 128.1 181.5 237 203.4a5634 5634 0 0 0 140 25.2c54.1 9.4 110 19 151.3 27.7 64.7 13.7 76 20.9 77 32 .2 2.7-.3 8-5.8 13-13.8 12.2-57.9 17.7-82.9 19.8-30 2.6-70.9 3.5-98.8-1.3 1.7 4.3 2.2 9.4-1.1 14.2-4 5.9-11.2 8.5-24.4 8.5z" fill="#2B2B2B" fill-rule="evenodd"/></svg>