<svg xmlns="http://www.w3.org/2000/svg" viewBox="0 0 2040 2648"><path d="M1832.2 54.6c-5.2 0-11.7 2.7-19.5 8-50.7 35.5-86.2 106.2-74.2 148.5 5.4 19.3 19.9 29.8 43 31.2 3 .2 6.1 1 9.5 2.2 6.9-7 12.9-15 18-22.8 37.6-57.3 50.7-145.2 31.5-163.9-2.2-2.1-5-3.2-8.3-3.2zM1413 2338.3c-34.7 0-61.6 10.5-71 29.5-5.9 11.6-13.6 32.7-.4 43.4 17.9 14.4 66.7 6 111.2-29.6 13.8-11.1 18-21.7 15.3-35.7l-6.5-1.6c-17.1-4-33.6-6-48.6-6zM111.5 1912.4C39.3 2004-.7 2114.4 16 2230.1c17.3 120.1 98.3 203 198.3 244.6-97.5-144.3-112.5-361.1-102.8-562.3zm931.7-999.1c-22.3 182.8-23.1 419.5 31.1 709.8 32 170.9 54 309.3 71.7 420.6 49.4 311 66 415.8 172.2 471.3 87.8 46 173.3 56 223 25.8 28.4-17.1 43.4-46.2 43.4-84 0-51.6-49.5-89.4-103.7-107 1.3 14.7-4.2 28-20.6 41.1-46 36.8-101.3 49.7-126.2 29.6-8.5-6.8-20.2-23.5-2.9-58 18.9-37.8 80.2-42.3 132.8-30-4.3-10.5-11-23-19.7-38.3-30-53.5-75.3-134.3-71.4-275 7.2-259.3 73.7-387 220-575 64-82.3 52.4-221.6-28-339-42.8-62.6-198.8-245.8-521.7-192zm-795 1586.3a341.2 341.2 0 0 0 149.4 103.7c181.1 64.7 367.4 31 498.2-90.3 133-123.3 182.2-307.2 131.6-492-73.3-267.6-274.7-394.5-539-339.5-137.5 28.6-273 108-364 215.3-11.6 210.4 2.4 440.7 110.2 585.6A407.5 407.5 0 0 0 412 2503c126.7-13.7 269.5-98.6 255.3-292.7-10.3-140.2-76.8-199.8-130.7-225.1-84.6-39.7-187.2-20.4-240.9 17.9a6 6 0 0 1-8.3-1.4 6 6 0 0 1 1.4-8.4c56.4-40.3 164.2-60.6 252.8-19 57 26.7 127 89.1 137.7 235.1 14.8 202.6-134 291.2-266 305.6-55.2 6-112.1.4-165-15.4zm330.8 148a551.6 551.6 0 0 1-185.4-33 354.1 354.1 0 0 1-166.3-121.8c-25.8-9.3-50.4-21-73.1-35.1-59-36.4-132.7-105.2-150.1-225.8-16.8-116.7 21.6-236.7 108.5-340.5a3177 3177 0 0 1 11.4-140.8c44.5-436.9 263.6-660.1 808.6-823.6 34-10.2 67.3-18.2 99.9-24C1065 647.7 1139 498.5 1162 457c76-136.7 156.7-209 278.5-249.7 59.1-19.7 103.9-72 143.4-118 45.4-53.1 84.7-99 135.1-86.8a14 14 0 0 1 9.5 7.4c6 11.7-2.2 33.4-17.3 70.7-26.3 65-62.3 154 8.7 183.3 23.5 9.7 43.8 3.1 60.3-9.7-27.6-1.8-46.6-16-53.3-39.8-13.4-47.4 23.6-123 79-161.6 22.5-15.6 35.8-10.6 43-3.6 25.5 24.8 9.9 118.6-30 179.1-5.3 8.2-10.8 15.4-16.6 21.7 61.7 36.8 168.3 194.5 168.3 245.2 0 48.8 55.9 160.5 67 182.4a19 19 0 0 1 .7 16.2c-40.6 94.6-173.9 174.4-236 174.4-65 0-277-170.5-286-177.8a6 6 0 0 1-1-8.4 6 6 0 0 1 8.5-1c2.2 1.8 217.8 175.2 278.5 175.2 57.7 0 186.7-78.1 225-167.1a7 7 0 0 0-.3-6c-16-31.4-68.4-137.6-68.4-187.9 0-51.2-112.8-208.3-165-236.6-24.2 21.7-51.2 27.6-78.3 16.4-82-33.8-41.8-133.1-15.2-198.9 10.6-26.2 21.6-53.3 17.7-60.8-.2-.4-.5-.8-1.6-1C1673 3.7 1635.9 47 1593 97c-40.5 47.2-86.4 100.8-148.7 121.6-118.7 39.6-197.5 110.3-271.8 244.2-22.7 40.8-95.3 187.2-127.7 438 104.2-16.7 201-10.5 288.8 18.5a465.5 465.5 0 0 1 241.3 179c83.3 121.6 94.6 266.8 27.5 353.1-144.7 186-210.4 312.1-217.5 568-3.8 137.4 40.5 216.5 69.9 268.9 10.2 18.1 19 33.8 23.3 48 61 18 118.5 60.7 118.5 120.4 0 42.2-17 74.8-49 94.3-54.2 32.7-142 23.2-235-25.5-111.4-58.3-129.7-173.1-178.5-480a14916.7 14916.7 0 0 0-71.6-420.3c-54-289.6-53.6-526.4-31.5-709.9a887 887 0 0 0-95 23c-539.3 161.9-756.2 382.3-800 813.4-4.1 40-7.8 81.8-10.5 124.6A681.1 681.1 0 0 1 486 1669.7c121.8-25.3 236-11.6 330 39.7 108.1 59 183.2 162.7 223 308.4 26 95 26.2 192.5.6 282.3A482.5 482.5 0 0 1 904 2521.8a472.8 472.8 0 0 1-325 125.8z" fill="#1A171B" fill-rule="evenodd"/></svg>