<svg xmlns="http://www.w3.org/2000/svg" viewBox="0 0 5028 3932"><path d="M4957.4 560.7c-6.6 0-13.8.5-21.3 1.5-22.9 3.2-61 16.3-66.2 38.2-4 17 10.7 42.7 36.5 63.9 27 22.1 56 31.2 73.9 23 27.2-12.4 37.7-69.3 21-113.4-9-8.7-24.3-13.2-44-13.2zm-205.8 321.9h-.1.1zM3285 1988c-2.4 6.6-6.4 20.6-12.2 49.7-6 31-13 74-20.1 124.2-14.1 99.2-27.5 217.8-35 309.4a5767 5767 0 0 0-14.2 203c32.2-51.8 57-120.1 74.1-204.6 25.6-126.5 26.2-255.4 24.3-321-2.6-85.1-11.1-142.2-16.9-160.7zM827 2284.5c-1.5 0-5.7 2.1-9.3 21.4-3.2 16.7-5 41.4-7.4 72.7-4.7 62-11.2 146.9-32.8 247.8-7 32.8-15.1 65-24.5 96.9a273 273 0 0 0 102-106.9c32.9-63.3 34.9-131.5 30.8-177.6-5.4-61.2-23.3-109.2-38.2-133.7-9.3-15.2-16.8-20.6-20.5-20.6zM12 2664.3c.4 9.7 5.8 34.2 23.1 76.7a647.6 647.6 0 0 0 70.3 130c32.2 44.2 62.4 66.3 87.3 63.9 18.2-1.8 31.2-16.6 42-47.8 6.7-19 12.2-42.7 17.7-71-34-6.6-69-17.3-104.3-33.6-65.4-30.3-103.6-78.2-124.2-103.9-4.1-5.2-8.7-11-11.9-14.3zm3556.7 768c12.7 78.4 42.8 151 104.6 192 68.1 45 161.5 44.2 220.9 30 31.6-7.6 75-18 95.9-54.2 13.5-23.4 16.4-55.5 7.8-88-8.4-31.4-26.6-59.4-48.8-75-36.6-25.5-75.4-12.5-124.6 4-35.2 11.8-75.2 25.2-121.2 25.6-44 .3-89.1-11.2-134.6-34.4zM716.3 3639.6l-.6 3.3c-12.5 77.7-2.5 138.1 30.8 184.6a227 227 0 0 0 152.5 90.2c35.5 4.3 121.7 8.3 154.3-49.3 26.6-46.9 5.5-113.8-30.8-146.9-30.6-27.8-66-26.9-106.8-25.8a406 406 0 0 1-69.3-2.4c-42.7-6-85.5-23.3-127.2-51.6l-3-2zM935.9 3932c-12.3 0-25.1-.8-38.3-2.4a239.5 239.5 0 0 1-160.9-95c-18.9-26.5-30.5-56.2-35.5-90.7a338 338 0 0 1 4.3-112 485 485 0 0 1-93.2-92.7 544 544 0 0 1-74.7-131.5 415 415 0 0 1-29.9-139.1c-1.8-78.1 25.5-122.8 70.8-196.9 19.1-31.2 40.8-66.7 65.2-112.3 39-73 67.7-144.2 89-211.3-17.5 9-36.5 17.2-56.8 24.4-77.3 27.6-159.5 37.9-225.5 46.1-53.2 6.6-117.5 11.1-186.3-.4a544 544 0 0 1-18 72.8c-12.8 36.3-28.9 53.5-52.3 55.8-17.2 1.7-35.8-5.4-55.1-21.3a275.3 275.3 0 0 1-50.5-58 702 702 0 0 1-74-147.4c-21.8-60.9-12.9-66.9-9.5-69.1 6.5-4.4 13 2.2 15.2 4.3 3.6 3.6 7.9 9 13.3 15.8 20 25 57 71.4 119.8 100.5a439.9 439.9 0 0 0 101.5 32.6l8.7-48c21.5-121.4 51-287.6 138.2-480.2 38.5-84.9 101-213.5 198.7-349.3 121.3-168.6 266.1-306 430.3-408.2a1506 1506 0 0 1 262.5-129.1c78.9-29.9 163-54.4 250.2-73 158.3-33.7 295.5-41.6 386.3-46.8 73.4-4.2 103.3-2.2 135-.1 32.3 2.2 65.8 4.4 150 0 438.3-22.5 766.8-147.6 923.6-220.2A2362 2362 0 0 0 3535.8 815l7 9.7a2374 2374 0 0 1-399.8 235.6 2300.7 2300.7 0 0 1-320.6 119 2659.4 2659.4 0 0 1-607.4 102.4c-84.9 4.3-118.7 2-151.5-.1-31.2-2.1-60.8-4.1-133.4 0-177.4 10.3-546.6 31.5-893.3 247.2C642 1774.4 469 2155.7 412.3 2281c-86.6 191.2-115.9 356.5-137.3 477.2-3 17.2-5.9 33.2-8.7 48.2 67.4 11.2 130.4 6.8 182.6.3 85.1-10.6 198.6-24.8 288.9-74.5 44.8-147.7 54.4-274.3 60.5-354.5a788 788 0 0 1 7.6-74c1.7-9.3 5.8-31.1 21.2-31.2 9.7 0 20 8.9 30.7 26.3 15.6 25.7 34.3 75.7 40 139 4.2 47.6 2 118.3-32.2 184.1a276.5 276.5 0 0 1-81 94.2 348.3 348.3 0 0 1-36.6 23.8 1275 1275 0 0 1-93.7 225.1c-24.6 46-46.3 81.6-65.5 113-44.2 72.2-70.9 115.7-69.1 190.3 2.8 119.7 79.6 267.7 188.2 350.8 13.3-65.3 38.9-135.3 63.7-203.2 26.5-72.5 57.6-150.7 106-232 27.7-46.8 59-90.6 92.8-130.2 39.1-45.8 83-87.8 130.8-124.7 94.3-73.2 154.5-89.8 224.1-109 68.7-19 146.6-40.5 274.7-126.3 69.3-46.4 120.4-88.5 161.4-122.4 76.7-63.2 127.4-105 217.7-113.6 46.5-4.4 67 6 134.8 40.7 37.5 19.2 88.8 45.4 167.3 80.9 137.2 62 292.6 132.3 476 170.5l14.7 3c173 36 259.8 54.2 330.3 18.9 33.6-16.8 63-43 88.5-78.3 2.1-61 7.7-132.7 15-223 7.6-92.8 21.2-212.6 35.4-312.6 24.6-172.8 35.4-181.8 39-184.8 2.2-1.8 4.4-2 5.8-2 5.8.6 10.2 6.4 15.3 34 12 64.3 22.7 227.8.6 392.7-12.2 91-32.7 168.7-60.8 230.8a423.5 423.5 0 0 1-38.4 68.5c-3 93.6 2.2 162 22 235.1A960.6 960.6 0 0 0 3411 3286c45.8 53.8 94.1 95.6 142.7 124.1-13.5-114 5.3-233.6 15.4-285.3 27.4-140.8 95.7-274.1 161.7-403l.8-1.6c6.8-13.2 16-31.4 30.7-53.3 51.9-78 114.6-133 158-165.3 34.2-25.4 62.9-40.5 75.2-47l3.7-2c87-47 200.6-182.5 282.8-337.2 100.9-189.7 143.6-381.8 120.3-541l-2.2-14.2a1452 1452 0 0 1-19.2-220.5 1012 1012 0 0 1 21.5-229.2c17.5-81.1 26.3-121.9 51-152 35.9-43.9 91.4-72.1 165-84.1a529 529 0 0 1 131.6-3.7h1c29.2-3.6 101.9-14.7 145.5-41.8 54.3-33.7 92.8-95 109.8-149.9a50.4 50.4 0 0 1-21 19.2c-26.8 12.2-62.2-4.7-86.5-24.7-22.6-18.5-46.8-49.5-40.6-75.9 7.1-30.1 53-44 76.2-47.3 22.3-3 41.5-1.7 56.2 3.6-12.4-16.9-35.6-34.9-86.8-63.6-57.8-32.5-97.4-48.7-126.2-60.6-38-15.6-61-25-88.8-54.5-30.5-32.2-44.5-64.8-72.4-129.9-20-46.8-26.1-73.8-30.6-93.6-4.2-19-6.8-30.6-18.7-47.8-51.4-74.4-163.2-83.4-244.8-90-98.4-8-170.5 10.5-240.2 28.3-118.8 30.4-194.6 54-245.9 125.9-68.8 96.6-65.7 249.9 7 341.7 19 24.2 31 30 56.8 42.7 23.3 11.5 58.6 28.8 119.9 70 36.6 24.7 63.6 46 85.3 63 41.8 33 63.5 50 99.2 50h4.2c38.8-1.5 79-22.9 102.2-54.6 46.8-63.7 13.5-154.9-.8-193.8-15-40.9-31.3-62.3-50.2-87-14.8-19.5-31.7-41.5-49.2-76.1a486.3 486.3 0 0 1-50.5-187.5l12-.8c4.6 66 21.1 127.5 49.2 182.9 17 33.5 32.8 54.2 48 74.2 18.7 24.4 36.4 47.6 52 90.2 14.9 40.7 49.8 136-.8 205a147.4 147.4 0 0 1-48.4 41.7 144.2 144.2 0 0 1-67.8 17.8c-39.7 0-64-19-106.5-52.6-21.6-17-48.4-38-84.6-62.4a904 904 0 0 0-118.5-69.2c-26.7-13.2-40.1-19.8-61-46-35-44.3-56.3-107.2-58.6-172.6-2.4-68.5 15.8-133.7 51.4-183.6a246 246 0 0 1 100-81.2c39.3-18.6 87.6-32.7 152.6-49.3 70.7-18 143.8-36.8 244.2-28.7 84 6.8 199 16.1 253.7 95.2 13.2 19.1 16.3 33 20.6 52 4.3 19.3 10.2 45.7 29.8 91.5 27.3 63.7 41 95.7 70 126.4 26.1 27.5 48.2 36.6 84.7 51.6 29.2 12 69 28.4 127.6 61.2 72.4 40.6 91.5 61.6 102 87.4 13.7 15 19 41.4 15 74.6a284.3 284.3 0 0 1-38.1 106.6 263.8 263.8 0 0 1-85.8 90.7c-45.6 28.4-120.4 39.8-150.4 43.4l-1.1.1-.7.2h-1.1c-33.7-3.5-205.7-15.8-286.8 83.2-22.9 28-31.5 67.8-48.6 147-15.3 70.8-22 142.8-21.2 226.6 1 102.4 12.8 178 19.1 218.8l2.2 14.2c12.6 86.2 6.6 180.8-17.8 281.1a1153.7 1153.7 0 0 1-103.8 267.4c-42 79-92.2 153.7-145 215.7-50.8 59.7-100.2 103.4-142.7 126.4l-3.9 2c-12 6.4-40.1 21.2-73.5 46a667.8 667.8 0 0 0-155.3 162.3c-14.2 21.4-23.3 39.2-30 52.2l-.7 1.5c-65.7 128.2-133.5 260.8-160.6 400-10.2 52.2-29.7 175.5-14.5 290.1 46.2 25 92.4 37.8 136.7 37.4 44-.3 83-13.4 117.5-25 50.3-16.9 93.7-31.4 135.3-2.4 24.8 17.4 44.3 47.1 53.5 81.7 9.4 35.6 6 71-9 97.1-23.6 40.6-69.8 51.7-103.5 59.8a343.2 343.2 0 0 1-78.7 9c-50.5 0-106.3-10.7-151.6-40.6-67.4-44.6-98.7-124.3-111-209-3.7-2-7.5-4.3-11.3-6.6-49-29.4-97-71.4-142.4-125a939.3 939.3 0 0 1-114.4-171 944 944 0 0 1-74.4-187.4c-19-70.1-25-135.4-23-221.6a248 248 0 0 1-82.5 68.7c-28.5 14.3-59.1 20.4-96 20.4-59 0-134-15.7-242.2-38.2l-14.7-3c-184.6-38.5-340.7-109-478.4-171.4a3588 3588 0 0 1-167.8-81.1c-67.2-34.3-85.3-43.5-128.3-39.4-86.6 8.2-136.2 49-211.1 110.9-41.3 34-92.7 76.4-162.4 123-129.7 87-208.6 108.7-278.2 128-68.4 18.8-127.5 35.1-220 106.9C899.6 3100.4 823.7 3308.3 783 3420c-25.4 69.4-51.6 141-64.3 207 39.8 28.4 83.7 48 129.5 54.5 23.7 3.3 45.8 2.7 67.3 2.2 41.6-1.1 81-2.1 115.1 29 39.7 36 63.6 108 33.3 161.6-17 30-48 48.6-92 55.2a243.7 243.7 0 0 1-36 2.5z" fill-rule="evenodd"/></svg>