<svg xmlns="http://www.w3.org/2000/svg" viewBox="0 0 186 330"><path d="M123.4 95.6c-2.5 1.4-5 3.4-7.1 6.2 2.5-2.1 5.4-3.9 8.3-4.5a53 53 0 0 0-1.2-1.7zm31.6-.7a24.1 24.1 0 0 1 10.6 8.8c2.5 3.4 4.7 6.3 6 10.5a65.9 65.9 0 0 0 10-22l.4-1.8c1.1-4.7 3.8-15.6.8-18.4-.8-.7-2-.8-3.6-.3A48.5 48.5 0 0 0 158.1 90l-1.8 2.7-1.3 2zm-5.3 25.8.6.6c1 1 2.3 1.3 3.9 1 4.2-.6 6-5 6.8-8.3-1 .4-2.2.7-3.4 1-1.2.4-2.5.7-3.4 1.2-2 1.1-3.4 2.5-4.5 4.5zm20.3 3a1.5 1.5 0 0 0-.4.1c-1.5.4-2.6 5.4-3 7.3l-.2 1.1-.5 2-.2.8c2-2 3.4-4.2 4.2-6.7.8-2.5.8-4 .4-4.4l-.3-.1zm-32.5 10c.3.5 2.7 2.2 3.8 2.8a78.7 78.7 0 0 1 2.7-3.5l-1.4-.3c-1.3-.3-4-.3-5 .5a.5.5 0 0 0-.1.5zM77 136.9c2.4 1.6 4.2 2.6 5.3 3 2.7.8 14 1.2 16-1.8.3-.3 1-1.2-.8-3.3-5-6.3-17.5.4-20.5 2.1zm3.7 58.6c-.2 0-.5.1-1 .6-.8.9-1.9 3.7 1.3 12.4a34.1 34.1 0 0 0 1.2 3c1.5-3.5 2-7.3 1.3-10.9-.5-2.2-1.5-4.7-2.5-5a.6.6 0 0 0-.3 0zm-36.5 67.7a58.8 58.8 0 0 0-5.5 11.5c-1.2 4-2.5 12-1 13.3h1c4-8 5.3-15.6 5.5-24.8zm105.9 10.2c-1.7 4.1-3.4 8.8-4.5 13.4-2 9.1-5.9 35.4-4.3 38.8 5-13.1 7.6-25.6 8.2-39.2l.2-3 .4-10zm-33.4-20c-1.7 6.9-2.1 14.3-2.5 20.9v.6c-.8 13.9 12.2 50.9 15.3 53 1-1.7 1.2-11.5-6.6-56.2v-.4c-1.2-7-3.2-12.8-6.2-17.9zm12.9 76-.5-.1c-4.5-1.9-17-41.1-16.3-54.5v-.6c.4-7 .8-15.1 3-22.4-2-2.8-4-5.4-6.6-7.9l-5.5-5.3A221.5 221.5 0 0 1 87.5 222a47 47 0 0 1-5-7.2 26.7 26.7 0 0 1-2 3.1c-2.3 3.2-5.2 5.7-8 8-1.7 1.4-3.3 2.8-4.8 4.3-3 3-14.3 17.9-22 30.7a57 57 0 0 1-5.8 28 .7.7 0 0 1-.3.3c-1.4.7-2.2.3-2.7 0-3-2.5.6-14.7.6-14.8a68 68 0 0 1 6.8-14 176.9 176.9 0 0 0 0-3.2c-.3-9.2 1.3-17.6 3-26.5l1.1-5.7a282 282 0 0 0 4.5-38c1.1-24.3 8.4-41.2 21.6-50C62 128 40.3 107.7 33 88a82.3 82.3 0 0 1-.2-58.5c3-8.6 1.2-21.2-6-25.6-6.1-3.9-15-.5-25 9.5a.7.7 0 1 1-1-1C14.2-1 22.7-.2 27.5 2.8 35.2 7.6 37.1 21 34 30a81 81 0 0 0 .3 57.6C41.8 108 64 127.8 75.9 136c7.6-4.6 18.1-8 22.8-2 2 2.4 1.6 4 1 5-2.7 3.7-15 3-17.7 2.2-1.4-.5-3.6-1.7-6.2-3.5-13.2 8.5-20.4 25.1-21.5 49.3-.6 12.5-2.1 25.3-4.5 38.2a550.8 550.8 0 0 1-1 5.6c-1.8 8.8-3.4 17.2-3.2 26.2v1.1c7.7-12.5 18.1-26 21.1-29 1.5-1.5 3.2-3 4.8-4.3 2.8-2.4 5.7-4.8 7.8-7.8a25.1 25.1 0 0 0 2.3-3.7 36.3 36.3 0 0 1-1.8-4.3c-2.6-7.3-3-12-1-14 1.1-1 2-1 2.7-.8 2.4.7 3.3 5.6 3.4 6.2.8 4.1.2 8.6-1.7 12.8 1.4 2.6 3.2 5.2 5.3 7.8 5 6 10.8 11.4 16.3 16.6l5.5 5.3a47 47 0 0 1 6 7.1c1.4-4.2 3.4-8.2 6.4-11.5 4.5-5 9.2-5.5 12.2-5 5.3 1 10.2 5.5 12.8 12 2.7 6.6 3.7 13.9 3.9 21.3 2-5.8 16.2-56.1 18.4-67 2.4-12.2 1.4-33.8-1-38.7-2.3-4.2-5-9.5-5.9-14.4-.4-2.7-.2-5.4.3-8.1a24.2 24.2 0 0 1-3.8 2 23.5 23.5 0 0 1-19.2-.1.7.7 0 0 1-.2-1l1-1.5c-.9-.4-4.9-2.8-5-4a2 2 0 0 1 .5-1.8c1.4-1.4 5-1.1 6.1-.9l1.8.5.4-1.5a43.7 43.7 0 0 1 3-9.5c-1.4-2.3-1.9-5.3-1.8-7.8.1-6 3.3-12 6.8-17.6a39.5 39.5 0 0 0-19.6-3c-2.7.3-5.8 1-8.8 2.5a55.3 55.3 0 0 1 1.8 2.6.7.7 0 0 1-.5 1c-5.1.6-10.6 5.4-13.2 9.7a.7.7 0 0 1-.9.2.7.7 0 0 1-.3-.8 26.1 26.1 0 0 1 11-13.2 36 36 0 0 0-8.7-8.3c-4.6-2.9-10.4-5.1-14.7-5.8-1.6-.2-2.6 0-3 .5-.8 1.2 1 4.6 2.1 6.6l.1.2c4.5 8.2 9 17 10.6 27.3a.7.7 0 1 1-1.4.2c-1.6-10-6-18.7-10.4-26.8l-.1-.2c-1.5-2.8-3.4-6.2-2-8.1.7-1 2-1.4 4.3-1 4.5.6 10.5 3 15.3 5.9 3.2 2 6.5 5.4 9.2 8.9 3.2-1.7 6.5-2.5 9.4-2.8 7-.9 14.6.7 20.5 3.3a411.7 411.7 0 0 1 3.2-5 49.3 49.3 0 0 1 21.9-19c2.1-.6 3.8-.4 5 .7 3.1 3 1.6 11.2-.4 19.7l-.5 1.8c-1.9 9-6 15.8-11 23.8a.7.7 0 0 1-1.3-.2c-1-4.8-3.4-7.9-6.2-11.6a180.4 180.4 0 0 1-1.5-2 22.8 22.8 0 0 0-8.6-6.5 35.5 35.5 0 0 0-6.7 17c0 2 .3 4.4 1.2 6.4 1.2-1.9 2.7-3.3 4.7-4.4 1-.6 2.4-1 3.8-1.3 1.6-.4 3.3-.9 4.2-1.8a.7.7 0 0 1 1.1.6c-.5 3.8-2.4 10.4-8.2 11.2-2 .3-3.7-.1-5-1.3a6.4 6.4 0 0 1-.4-.4l-.2.5c-1.2 3-2 5.6-2.4 8a9 9 0 0 1-.8 2.4c0 .6-.3 1.1-.8 1.9a26.7 26.7 0 0 0-1.4 2.2l-1.6 2.6c5 2.2 11.5 2.1 17.2-.3a22.1 22.1 0 0 0 4.9-2.7 155.8 155.8 0 0 1 1.1-4.7l.3-1.1c.7-3.8 1.8-7.8 4-8.4 1-.2 1.7.2 2 .5 1.1 1.2.6 3.8 0 5.9a18 18 0 0 1-6.2 8.6c-.6 3-1 6-.6 9 .8 4.7 3.5 10 5.7 14 2.6 5.1 3.7 27.2 1.2 39.7-2 10.2-17.3 64.5-18.7 67.7l-1 2.3c0 4.5-.3 9-.5 13.3l-.2 3.1c-.6 14-3.3 26.7-8.6 40.2a.7.7 0 0 1-.3.4c-.5.2-1 .2-1.4-.1-3.5-2.8 3-37.6 3.7-40.5a95 95 0 0 1 5.8-16.7c0-8.2-.8-16.5-3.8-23.9-2.4-6-6.9-10.1-11.7-11-4-.7-7.7.9-11 4.6-3 3.3-5 7.5-6.4 12a53 53 0 0 1 7 19.6l.1.4c8.4 48.2 7.5 55.9 6.1 57.5-.2.2-.5.4-.8.4z" fill-rule="evenodd"/></svg>