<svg xmlns="http://www.w3.org/2000/svg" viewBox="0 0 1054 648"><path d="m339.4 452.5.4.3c6.2 5.6 11.2 10 19.2 13.4h.2l-.9-.7c-6.1-5.8-12.9-12.2-18.9-13zm50.9 26.4c5.1 2.3 9.4 5.1 10.7 9.6 1 3.2.2 7-2.3 11.1a65.2 65.2 0 0 1 22.9-.7c-2.8-8-7-14.8-15.2-17.9a46.2 46.2 0 0 0-14.4-2h-1.7zm5 25.4a84.2 84.2 0 0 1-4.2 4.7c-3.4 3.6-6.6 7-8.2 12-1.7 5.4-1.2 10.8 1 12.9 1.4 1.3 3.5 1.3 6.4.2 6.3-2.6 12-12 17.2-20.4 2.6-4.3 5-8.3 7.5-11.5a91 91 0 0 0-19.6 2.1zm64 16.9c1 6.5 6.8 12.4 13.6 17.4.4-3-.7-7.2-3-10.8-1.4-2.2-5.1-7-10.6-6.6zm-31.7-16.3 1.2 4.6c.6 2.5 1.2 4.8 2 7.1 4.6 16 14.8 25.8 31 30.1h.2c3.8 1.1 13.3 3.6 17.7 1a117 117 0 0 1-5.4-3.3c-1.6 1.4-4.7 2.6-10.2.4-7.8-3.2-12.2-11.3-16.4-19.1-2.7-5-5.2-9.6-8.4-12.8a36.4 36.4 0 0 0-11.7-8zm-408-222.7c30.2 19.3 94 54.4 111.5 63.6 13.3 7 26.7 13.3 39.8 19.4 16.8 8 34.2 16.1 51.2 25.7 11.4 6.4 23.2 12.5 34.5 18.4l15.7 8.1c18.3 9.7 21.5 17.9 26.8 35.4a174.9 174.9 0 0 0 52.5 77.2c2.8 2.5 5.7 4.8 8.8 7.3 7.1 5.8 14.5 11.8 20.6 18.6 2.1-3.2 4.4-6.3 6.5-9.3 2-2.8 4-5.4 5.7-8a57.1 57.1 0 0 1 1.8-2.6 17 17 0 0 1-3.2 1.8c-5.5 2.2-8.8.7-10.6-1-4-3.7-4-11.2-2.1-17 1.8-6 5.5-9.8 9-13.5l.9-.8a64.5 64.5 0 0 1-31.6-.3c-29.2-9.3-53.3-38.7-64.4-78.7-1.3-4.7-2-9.6-2.8-14.4-.6-4.2-1.3-8.6-2.3-12.8-2.2-8.5-6.2-10.2-13.5-13.5a190.6 190.6 0 0 1-3.9-1.7c-13.5-6.3-27.5-12.2-41-17.8l-22-9.4a782.4 782.4 0 0 0-42-16c-35-12.6-82-29.5-146-58.7zm408.1 254c-7 4.8-13.4 16.2-18.8 26a98.2 98.2 0 0 0 18.8-26zm20.9 17.7a67.3 67.3 0 0 0-10.4 5 72.3 72.3 0 0 0-26.7 26.2c5-4.4 10.2-8.5 15.5-12.6 7.5-5.9 15.2-11.9 21.6-18.6zm102.9 14.5c-5.2 2.2-11 5.2-12.4 6.8-.7.7-.9 2.5-1 4.3-.3 2.5-.6 5.2-2.1 7.3l-1.2 1.4a26.7 26.7 0 0 0 3.6-2.8c3-2.7 5.5-6.4 8-10 1.6-2.4 3.3-4.8 5-7zm-170-5.8a38.8 38.8 0 0 0-6 17.7c-.2 4.9.7 8 2.3 8.6 2.6.8 7.4-2.3 12.2-6.8a35.5 35.5 0 0 0-8.5-19.5zm54.9 30.3c1.5.2 3 .6 4.4 1l.2-1v-1a6 6 0 0 0-1.1-.2c-1.2 0-2.4.4-3.5 1.2zm8.3 2.4a51.5 51.5 0 0 1 5 2.4c-1.6-1.6-3.2-3-4.8-4.1l-.2 1.7zm-18.8 3.4-1 .7a13 13 0 0 0-4.8 8.8c2-3.3 3.9-6.6 5.8-9.5zm-31.7-13c0 4.2-.5 8.6-1 13.7a657 657 0 0 0-.5 4.8 77.8 77.8 0 0 0-.3 5.2c2.6-5.7 6.1-10.7 10.1-15.3a77.5 77.5 0 0 1 51-46 44.5 44.5 0 0 1-26.6-30.4l-2-7.2c-.6-2.4-1.2-4.8-2-7.2a35 35 0 0 0-2.1-.5c-.8 8.5-9.9 19.7-17.3 28.9-2.8 3.5-5.4 6.7-7 9.2-1.7 2.6-3.7 5.2-5.7 8-2.4 3.3-4.8 6.7-7 10.1l.1.3a42 42 0 0 1 9.6 19.1 58.3 58.3 0 0 0 4.6-5.7c2-2.9 4.3-7 6.7-11.4 6.8-12.3 15.3-27.5 25.4-30.7a2 2 0 0 1 2.6 2.2c-1.7 10.9-13 23.4-23.1 34.4-3.7 4-7.1 7.8-9.5 11l-4.8 6-1.2 1.5zm51.1 3.5c3.8 2 7.3 5.6 10.5 9a47 47 0 0 0 6.7 6.1c7.7 5.1 14.4 8 22 5.4 4.2-1.5 6.6-3.5 7.1-6.1.6-3-.7-9.8-15.6-22.8-8.6-7.5-16.6-10.9-21.9-9-3.9 1.2-6.5 5.3-8 12l-.8 5.4zm-48 19.3a50.9 50.9 0 0 0-1.7 3.6 63.8 63.8 0 0 0-1.7 4.3c1.3-2.5 2.4-5.2 3.4-7.9zm24 5.8a8 8 0 0 0 2.7 3 2 2 0 0 1 1-.9c11.8-3.4 14.3-10 15.4-18.5-2.7-.8-5.4-1.3-8-1.2-3.2 3.8-6.3 9.2-9 14a511.5 511.5 0 0 1-2.2 3.6zm7.8 5c5.1 4.4 14.7 5.4 22.1 4 6-1.3 10.2-4 10.8-7 .7-3.1-2.3-7.2-8.3-11.4a58.4 58.4 0 0 0-9.5-5.5c-1.2 8.1-4 15.7-15 20zM390 591.1a58.2 58.2 0 0 0-13.3 26.4c-.4 3.6.4 6.3 2.3 7.4 2 1.3 5.3.8 8.7-1.3a79.8 79.8 0 0 1 1.2-4.5 69 69 0 0 1-.1-15.3l.4-4.8.8-8zm4 32.3c.9 2.6 2.1 4.4 3.6 5.1 3 1.4 7.7-1 13.4-6.6 1.8-1.8 3.8-4.6 5.7-8a13.6 13.6 0 0 1-.4-1.6 17 17 0 0 1 6.1-16c2.5-2 5.2-3 8-3.4 2.9-3.2 6-5.2 9.4-5.2h.1l1.6.1c.2-1.6.4-3.2.8-4.8 1.7-8.2 5.2-13.3 10.5-15 9.1-3.1 20.1 4.8 25.9 9.8 11.3 9.9 16.9 17.8 17 24.2a74 74 0 0 1 14.1-7 73.6 73.6 0 0 1-4.5-1c-9-2.5-14.5-6.9-14.8-11.9-.2-3.1 1.6-7.7 11-11.7 6-2.4 12.4-2 18.6-1.7 4.6.3 9 .6 12.9-.3-3-1.4-7.9-2.7-11.4-3.6l-7-2c-2.5-1-5-2-7.5-2.8-5-1.7-10-3.4-15.1-6l-.4-.2-8.1-4c-5.4 5.4-16.8 2.4-22.5.8h-.2a63.7 63.7 0 0 1-4.2-1.3 2 2 0 0 1-.3 1.9c-7.4 9.3-17.3 17-26.9 24.4-8.5 6.7-16.8 13.1-23.4 20.6a114.7 114.7 0 0 0-2.5 6.4 220.2 220.2 0 0 0-.9 2.7c-1.9 5.8-4.4 13.3-8.6 18.1zm-3 3.6c-1 6.2-1.1 12.1 1.1 14.9 1.4 1.7 3.7 2.1 7 1.5 5.7-1.2 10-6.8 14.4-12.7 2.7-3.6 5.5-7.2 8.7-10a12.4 12.4 0 0 1-3.3-2.7c-1.7 2.7-3.4 5-5 6.7-7.3 7.2-13.3 9.7-18 7.5-2.1-1-3.7-2.9-4.8-5.2zm5.5 20.7a9 9 0 0 1-7.5-3.3c-2.9-3.6-3.1-9.7-2.2-15.9-3.7 1.5-7.2 1.5-9.9-.1-3.3-2-4.8-6.2-4.2-11.3a57.8 57.8 0 0 1 12.5-26.3c-3.1 1.8-6.1 2.7-8.6 1.9-3.7-1.3-5.4-5.5-5.1-12.6a44 44 0 0 1 7.3-20.7c-6-6.9-13.6-13-21-19l-8.8-7.3a179 179 0 0 1-53.8-79.2c-5.3-17.5-8-24-24.8-33l-15.6-8c-11.4-6-23.2-12.1-34.6-18.5-17-9.5-34.3-17.7-51-25.6-13-6.1-26.6-12.5-40-19.5-9.9-5.2-120-65-128.6-76a2 2 0 0 1 2.4-3.1 1767.3 1767.3 0 0 0 163.8 67 783.4 783.4 0 0 1 42.3 16l22 9.4c13.5 5.7 27.5 11.5 41.1 17.9l3.8 1.7c7.6 3.3 13 5.7 15.7 16.1 1.2 4.4 1.8 8.9 2.5 13.2.7 4.6 1.4 9.4 2.7 14 4 14.4 20.3 62.7 61.7 75.9 11.2 3.6 22.8 1.4 34-.7h.6v-.1c3.5-4.5 4.8-8.2 4-11-1.4-4.7-9-7.4-16.3-10-3.7-1.3-7.5-2.7-10.6-4.4a21 21 0 0 1-1.3-.7 261 261 0 0 1-11.3-4.5l-.3-.1c-8.6-3.6-14-8.5-20.3-14.1l-3.7-3.3a2 2 0 0 1 .6-3.4c9.2-3.4 18.7 5.6 27 13.5 3.5 3.3 6.9 6.4 9.8 8.3a67.6 67.6 0 0 0 21.4 4c5.2.3 10.7.5 15.6 2.4 10.6 4 15.3 13.1 18.4 22.8a39.3 39.3 0 0 1 16 10c3.5 3.6 6.3 8.7 9 13.6 3.9 7.3 8 14.8 14.4 17.4 1.6.7 3.6 1.2 5 .8-8.3-6-15.3-13.5-15.4-22.4a2 2 0 0 1 1.5-2c6.2-1.5 12.4 1.5 16.6 8.2 2.8 4.5 4.6 10.8 3.2 15.3a114.6 114.6 0 0 0 5.4 3.3c.6-3.6-2-8.2-4.2-12.1l-2.2-4.2a205.7 205.7 0 0 1-13.9-47.3 530 530 0 0 1-1-5.7c-2.7-14-5.5-28.4-15.9-39-14.8-14.9-34.2-27.4-53-39.6-10.3-6.6-21-13.5-30.6-20.7-7.4-5.4-13-11.8-18.5-18-5.7-6.5-11-12.6-18.2-17.8a485 485 0 0 0-47.5-30.8A500.6 500.6 0 0 1 176 237.4c-34.1-32-67.2-65-96.5-94.2-12-12-26.5-24.6-41.8-36.2C29.8 101 2 77.8.9 76.8a2 2 0 1 1 2.6-3c.2.2 28.8 24 36.7 30a417 417 0 0 1 42.3 36.6c29.2 29.1 62.2 62.2 96.3 94.1a496.8 496.8 0 0 0 100 71.1c15.3 8.6 30 18.1 48 31 7.4 5.5 13.2 12 18.8 18.4 5.3 6 10.8 12.3 17.8 17.5 9.6 7 20.2 14 30.5 20.6 19 12.2 38.6 24.9 53.7 40.2 11.2 11.3 14 26.4 16.9 41l1 5.6c3.3 16.3 6.6 31.1 13.7 46.5l2 3.8c2.7 5 6 10.9 4.3 16 3 1.6 5.6 3 7.8 4l.4.2c5 2.5 9.7 4 14.7 5.8l7.7 2.8c1.5.6 4 1.2 6.5 1.9 8.2 2.1 14.1 3.9 16.2 7a2 2 0 0 1-.7 3c-5.5 2.6-12 2.2-18.2 1.8-5.8-.3-11.7-.7-16.8 1.4-5.6 2.4-8.8 5.2-8.6 7.8.2 3 4.9 6.3 11.9 8.2a55 55 0 0 0 11.8 2l3.6-1c3-1 8.3-3 11-6.7.8-1.2 1-3.3 1.3-5.3.2-2.4.5-4.9 2-6.6 2.9-3.4 18.4-10.4 22.8-10.4h.1a2 2 0 0 1 1 3.7c-4 2.5-7 7-10.3 11.8-2.6 3.8-5.3 7.8-8.6 10.8a30 30 0 0 1-22.4 7.8 70.6 70.6 0 0 0-26.3 13.7c-4 4-6 9-4.7 15.1 26.7-1.5 39-11 53.4-22 6.7-5 13.5-10.3 22.4-15.4L574 582c13.4-7.1 26-13.9 36.6-27 5.1-6.3 10-13 14.6-19.5 5.7-8 11.6-16.2 18.2-24a708.1 708.1 0 0 0 28-35.8c17.3-23 35.2-46.8 58.3-66.1a487 487 0 0 1 62.2-43.8c15.7-9.5 32.2-18 48.2-26.4 15-7.8 30.6-16 45.5-24.8 15.3-9 31-17.4 46.1-25.6a1067 1067 0 0 0 55.2-31c7.2-4.4 14.3-9.5 21.7-15l11.4-8c-8 2.2-16.4 4-24.6 5.8-8.6 2-16.7 3.7-24.2 5.9l-10.4 3c-28.3 8.1-55 15.8-82.5 27-39.1 16-77.1 45-105.8 68.6-20.4 16.7-37.8 36.4-54.6 55.4-10.8 12.2-21.9 24.8-33.8 36.6-7.6 7.6-15 15.3-22.1 22.8-24 25.1-46.7 48.9-78 67.3-.4.3-45 26.1-73.3 26.1-5 0-9.5-.8-13.1-2.6-5.7-2.8-8.9-7.8-9.7-15l-1.2-14.7c-1-12.3-1.9-24-5.2-35a76.5 76.5 0 0 0-12.6-25.5c-2.8-3.6-6.2-8-8.3-13.2a2 2 0 0 1 .5-2.2c1.1-1.1 28.5-26.3 50.5-32.3a439 439 0 0 0 61.1-22.1c20.3-9 36.5-21.4 52.3-40 11-12.8 21.3-17 34.4-22.2l8.6-3.5c18.3-7.8 35.6-20.3 52.3-32.3l2.7-2c31.6-22.6 56.8-46 79.4-73.2l11-13.3c25.7-31.3 52.3-63.7 84.4-89.3a1376 1376 0 0 0 39-33l3.3-2.8c3.7-3.2 19.2-13.6 38.9-26.9 28.4-19 67.3-45.2 71.4-50.7a2 2 0 0 1 3.2 2.5c-4.2 5.5-34 25.7-72.4 51.6-18.7 12.6-35 23.5-38.5 26.5l-3.3 2.9c-12.7 11-25.8 22.3-39.1 33-31.7 25.4-58.2 57.6-83.8 88.7a4247.7 4247.7 0 0 1-11 13.3 418.2 418.2 0 0 1-80.1 74l-2.7 2a290.8 290.8 0 0 1-53.1 32.7l-8.7 3.5c-12.6 5-22.5 9-32.9 21.1a145.4 145.4 0 0 1-53.7 41 443 443 0 0 1-61.6 22.4c-18.8 5-42.6 25.7-47.8 30.4 1.9 4.1 4.7 7.7 7.1 11a80 80 0 0 1 13.3 26.8c3.5 11.4 4.4 23.2 5.3 35.8l1.3 14.6c.6 5.8 3 9.6 7.5 11.8 19.1 9.6 67.3-14.2 82.6-23.3 30.8-18.2 53.3-41.7 77-66.6a1239 1239 0 0 1 22.3-23c11.8-11.6 22.9-24.2 33.6-36.3 17-19.2 34.4-39 55-55.9 29-23.7 67.3-53 107-69.2 27.6-11.3 54.4-19 82.8-27.2l10.4-3c7.6-2.2 15.8-4 24.4-5.9 13-2.8 26.2-5.7 38-10.1 6.2-3.8 12.4-7 18.8-9.5 1-.4 2 0 2.5.9a2 2 0 0 1-.6 2.6c-5.7 3.9-12.1 7-18.9 9.6-8 4.8-15.7 10.4-23.3 16a375.6 375.6 0 0 1-22 15 1070.4 1070.4 0 0 1-55.4 31.2c-15.1 8-30.8 16.5-46 25.5-15 8.8-30.6 17-45.7 24.9a941.7 941.7 0 0 0-48 26.2 483 483 0 0 0-61.6 43.4c-22.8 19-40.5 42.7-57.6 65.5-9 12-18.3 24.5-28.2 36a350.6 350.6 0 0 0-18 23.8c-4.7 6.5-9.6 13.2-14.8 19.7-11 13.7-24 20.6-37.8 28l-10.3 5.6c-8.7 5-15.4 10.1-22 15.1-15.1 11.6-28.2 21.6-57.3 22.9a2 2 0 0 1-2-1.5c-1.5-5.3-1-9.9.7-13.8-7.4 2.2-14 0-20.1-3.3a9.6 9.6 0 0 1 1.2 6.6c-1 4.8-6.1 8.5-14 10-8.5 1.7-19.2.5-25.4-4.7-3.6 2.4-6.8 6.6-9.9 10.7-4.7 6.3-9.6 12.7-16.8 14.2-1.2.2-2.4.4-3.4.4z" fill="#1B1A19" fill-rule="evenodd"/></svg>