<svg xmlns="http://www.w3.org/2000/svg" viewBox="0 0 1485 463"><g fill="#100F0D"><path d="M2.7 389.7c17.5 8.2 39.3 12 61.6 12 28.9 0 58.6-6.4 80.7-18.2 19.6-10.4 36.4-27 49.2-46.3a163.4 163.4 0 0 0 25-63.3 2.3 2.3 0 0 0-2-2.6l-1.8-.2a15 15 0 0 0-5.9 1.4c-2.7 1.2-5.1 2.8-7.4 4-1.1.7-2.2 1.2-3.2 1.6a8 8 0 0 1-2.7.5 5.2 5.2 0 0 1-2-.4c-.7-.2-1.4-.7-2.2-1.4a6.4 6.4 0 0 0-1.3-.9 3.8 3.8 0 0 0-1.7-.4 3.3 3.3 0 0 0-1.5.3 3.4 3.4 0 0 0-1 .8c-.5.5-.7 1-.9 1.5-.3.8-.4 1.6-.5 2.5a27 27 0 0 0-.2 2.8c0 4.7.8 11.3 1.6 17.5l1 8.7c.4 2.6.6 4.8.6 6.2 0 22.4.1 45 3 67.3.4 3.5.8 7 .8 10.3 0 2.6-.2 5-1 7.3-.7 2.3-2.3 4.4-4.2 6-2 1.4-4.2 2.3-6.6 2.3a9.5 9.5 0 0 1-.8 0c-11.1-1-22.3-2.9-30.5-5a66.3 66.3 0 0 1-12.2-4.4l-.2-.2-.6.4.6-.3v-.1l-.6.4.6-.3-1.2.5h1.3a1.3 1.3 0 0 0-.1-.5l-1.2.5h1.3-1.5l1.4.6a1.4 1.4 0 0 0 0-.6H135l1.4.6-1-.5.8.8.2-.3-1-.5.8.8-.5-.4.4.4-.4-.4.4.4-.1-.1.1.1-.1-.1.1.1h.1a42.9 42.9 0 0 1 8.3-1.5 424.9 424.9 0 0 1 31.3.2l.1-2.3-1.4 1.8a63.2 63.2 0 0 0 19 9.8c7 2.3 14 3.6 19.5 3.6 2.5 0 4.7-.2 6.6-.9.4 0 .6-.2.8-.3l1.5-1a177.2 177.2 0 0 0 31.2-28.2c3.3-3.8 6.2-7.8 8.5-11.7 2.2-4 3.7-8 4-11.8a2.3 2.3 0 0 0-.9-2 2.3 2.3 0 0 0-2.3-.3c-10.8 4.8-19.4 8.4-27.8 12.6-8.4 4.2-16.4 9-26 16.5l1.5 1.8-1.1-2c-1.5.7-2.6 1.6-3.5 2.6-.8 1-1.3 2.3-1.3 3.6a5.1 5.1 0 0 0 .8 2.6c.7 1.2 1.8 2 3 2.6a9 9 0 0 0 3.8.8 8.7 8.7 0 0 0 4.3-1 9 9 0 0 0 3.5-3.7c.7-1.3 1-2.7 1.3-4.3a118.3 118.3 0 0 0 0-12.6c-.2-2.4-.4-4.5-.3-6v-.4a738 738 0 0 0 0-23c-.2-15-1-29.9-2.3-44.7a2.3 2.3 0 0 0-1.8-2 2.3 2.3 0 0 0-2.5 1 14.6 14.6 0 0 0-2.2 7.8c0 2.2.5 4.5 1.2 6.5a32 32 0 0 0 8 11.2 67.6 67.6 0 0 0 24.3 15 86.6 86.6 0 0 0 29.4 5A78 78 0 0 0 306 340a56.7 56.7 0 0 0 24.3-19.7c4.9-7.1 7-15.6 7-24 0-9.1-2.4-18.2-6.8-25.8l-2 1.1 2 1.3c.1-.3.3-.4.7-.6.4-.2 1-.3 1.7-.3 1 0 2.3.2 3.8.5l7.1 1.8a33 33 0 0 0 7.7 1.2c1.2 0 2.4-.1 3.5-.5a9.1 9.1 0 0 0 3.3-1.6l.1-.1-.2-.5.2.5-.2-.5.2.5-.4-1.2v1.2h.4l-.4-1.2v1.2-1.5l-.6 1.4.6.1v-1.5l-.6 1.4.6-1.3-1.2.8c0 .1.3.4.6.5l.6-1.3-1.2.8.6-.4-.7.3.7-.3-.7.3s.2.7.2 1.5c0 1.5-.3 3.6-.6 6-.5 3.5-1.3 7.6-2 11.4a152 152 0 0 0-1.1 9.6l-.5 101.8-.1 2c0 .8-.2 1.2-.4 1.6-.2.4-.7 1-1.5 1.8l.5.5-.4-.6-.1.1.5.5-.4-.6-.8.4-3.3.8a79.9 79.9 0 0 1-17.4 1.3 5.7 5.7 0 0 1-.8-.2h-.1l-.4.7.6-.6-.2-.1-.4.7.6-.6c-8.9-8.1-20.3-18.2-29.4-27.7-4.6-4.7-8.6-9.3-11.3-13.3-1.4-2-2.5-4-3.2-5.6-.8-1.6-1-3-1-4v-1.1l-2.2-.6-1 2.2c24 9.9 40.8 20.1 59.2 34.3l1.5-1.8-2.3-.3a3.4 3.4 0 0 1-2 2.3c-.7.3-1.6.5-2.5.5a7.6 7.6 0 0 1-2.8-.5c-.9-.3-1.6-.8-2.1-1.4-1.2-1.4-2-3-2.4-5-.5-1.9-.7-4-.7-6.3l.1-3.4 2.9-69.6c.2-4.9.9-10.4 2.6-14.7.9-2.1 2-4 3.3-5.4 1.4-1.4 3-2.3 5-2.8a10 10 0 0 1 2.2-.3c2 0 3.8.7 5.6 1.8 2.7 1.8 5.2 4.8 7.2 8.4 2 3.5 3.8 7.6 5 11.4 3.5 10.7 7.8 23 13.6 34.4a73.9 73.9 0 0 0 23 28.3c16.4 11 37 20.3 57.1 20.3a61.2 61.2 0 0 0 7-.4 69.2 69.2 0 0 0 31.5-9.8c4.4-3 8-7.4 10.7-12.4a35.4 35.4 0 0 0 4-20.2 2.3 2.3 0 0 0-4-1.3 121 121 0 0 1-84.6 32.9c-11 .2-22.8.2-33.5 2-5.3 1-10.3 2.4-14.7 4.6a29.2 29.2 0 0 0-11.2 9.3 2.3 2.3 0 0 0-.2 2.2 2.3 2.3 0 0 0 1.8 1.4c14.3 2 29.8 2.7 45 2.7 18.9 0 37.5-1.2 53.6-2.7 9.2-.8 19.1-2.7 28.1-6.3 9-3.7 17-9.1 22.4-17.2a38 38 0 0 0 5.2-11.3c1-4 1.4-8.1 1.4-13.1 0-4.6-.3-9.8-.8-16.1l-2.8-33-2.3.2 1.3 2a14.5 14.5 0 0 1 10.7-1.8h.2l.1-.5-.1.5.1-.5-.1.5.6-1.6-.8 1.5.2.1.6-1.6-.8 1.5.6-1.2-1.2.7s.2.3.6.5l.6-1.2-1.2.7.3 1.2c.3 1.2.5 3.1.7 5.4.6 8.1.7 21.6 1.3 34.7.3 6.6.7 13.1 1.3 18.8.6 5.8 1.4 10.8 2.6 14.5a2.3 2.3 0 0 0 2 1.5l1.3.1a8.2 8.2 0 0 0 7.5-4c.8-1.5 1.3-3.1 1.6-5 .3-1.7.4-3.6.4-5.5 0-3.9-.4-8-.3-11.2 0-1.6 0-2.9.2-3.9l-1.9-.4 1.5 1.3c.1-.2.3-.3.4-.9l-1.9-.4 1.5 1.3-.7-.6.6.7.1-.1-.7-.6.6.7.3-.2c.6-.4 2-1 3.8-1.5a24.4 24.4 0 0 1 6.3-.8c2.2 0 4.6.3 6.9 1.2a16.4 16.4 0 0 0 4.8 1 8.8 8.8 0 0 0 3.4-.7c1.8-.7 3.2-2 4.2-3.6 1.5-2.2 2.4-5 2.9-7.7a44 44 0 0 0 .6-10 2459.7 2459.7 0 0 0-9.2-125c-.3-2.7-.6-5.5-.6-8.2 0-3.2.4-6.2 1.3-8.8a14 14 0 0 1 4.6-6.7c.9-.7 1.8-1.5 2.6-2.6 1.3-2 2-4 2-5.9 0-1.4-.4-2.7-1-3.9-.8-1.6-2-3-3.1-4.2-1.1-1.2-2.2-2.3-2.8-3.4-.4-.6-.8-1.5-1-2.6a20.5 20.5 0 0 1 1.3-12c.5-1 1.1-1.9 1.7-2.4l.8-.5.6-.1c.3 0 .6 0 1.1.3.5.2 1 .5 1.7 1.1 1 .9 1.7 2 2.2 3.5a15.1 15.1 0 0 1-.2 10.3c-.7 1.7-1.7 3-2.9 4l.8 1.2-.7-1.3v.1l.7 1.2-.7-1.3 1.1 1.9-.8-2-.3.1 1.1 1.9-.8-2 .9 2.1v-2.3c-.5 0-.7.2-.9.2l.9 2.1v-2.3 2.4l.7-2.2-.7-.2v2.4l.7-2.2-.7 2.2 2-1.2a2.4 2.4 0 0 0-1.3-1l-.7 2.2 2-1.2-2 1.2h2.3c0-.3 0-.8-.3-1.2l-2 1.2h2.3-2.3l2.2.7v-.7H574l2.2.7-2-.7 1.8 1.1.2-.4-2-.7 1.8 1.1-1.2-.7 1.1.8-1-.8 1 .8a20.3 20.3 0 0 1 .8-1l.2-.2.1-.2.2-.3.1-.9a2.4 2.4 0 0 0-.8-1.7 2.3 2.3 0 0 0-1.5-.6l-.8.1-.4.2-.4.3 1.5 1.8-1.5-1.8a14.6 14.6 0 0 0-5.4 11.4 14.6 14.6 0 0 0 4 10c2 2.1 4.3 4 6.1 6 1 .9 1.7 1.9 2.4 2.8.6 1 1 2 1.4 3.1.4 1.5.4 3.5.6 5.8.2 1.1.4 2.3 1 3.5a9.6 9.6 0 0 0 2.3 3.4c2.1 2 4.9 2.9 7.6 2.9 2.9 0 5.8-1 8-3 3-2.5 4.8-5.7 5.8-9 1-3.2 1.2-6.6 1.2-10l-.1-4.5-1.4-32.7a8.3 8.3 0 0 1 0-.4c0-2.1.7-4.8 1.7-6.7.5-1 1.1-1.7 1.6-2.2a2.7 2.7 0 0 1 .7-.4l.4-.1c.2 0 .5 0 1 .4 1.6 1.2 2.7 2.5 3.6 4.1.9 1.7 1.6 3.5 2.3 5.7 5 16.3 5.5 34.6 6.5 51.9a1221.8 1221.8 0 0 1 1.8 81.3v8.4h2.3-2.3v3.2c.2 4.2.5 11.4.5 19.1 0 8-.3 16.4-1.4 22.8-.5 3.1-1.3 5.8-2.1 7.4a5 5 0 0 1-1.2 1.5c-.3.3-.4.3-.7.3h-.3v.5l.2-.4-.2-.1v.5l.2-.4-.4-.6a11 11 0 0 1-.8-2.6c-.4-1.6-.6-3.6-.7-5.3a102.3 102.3 0 0 1-.1-2.4l-.1-1.6a373 373 0 0 1-.8-28.3 2301.2 2301.2 0 0 1 5.5-143.7 106.7 106.7 0 0 1 .9-6.3c0-.3.2-.5.5-.8a6 6 0 0 1 2.5-1.2 21.6 21.6 0 0 1 8.6 0c1.4.3 2.6.8 3.4 1.2 1.7 1 3.5 3 4.8 5.2 1.3 2.3 2.2 4.8 2.3 6.8l1.7 36.7c.1 2 .3 4 .8 6 .5 2.1 1.3 4.3 3 6a8.8 8.8 0 0 0 6.3 2.5c3 0 6.1-1.5 8-4.2a8.7 8.7 0 0 0 1.8-5.1c0-1.5-.4-3-1.1-4.2-1-1.8-2.6-3.2-4.4-4.2-1.7-1-3.7-1.6-5.6-1.6-.8 0-1.7.1-2.5.4a6 6 0 0 0-3.1 2.4 7.6 7.6 0 0 0-1.2 4.3c0 1.7.4 3.6 1.2 5.8a10 10 0 0 0 3 4.4 7.1 7.1 0 0 0 8 .8 10 10 0 0 0 5-6.6 18.3 18.3 0 0 0 .3-5.8 113.8 113.8 0 0 1 0-3.6c0-8.8 1-18.2 1.9-27.7 1-9.6 2-19.1 2-28.3l-.1-3.7h-2.3l-.7 2.3c.9.3 1.6.7 2.2 1.3.9.8 1.6 2 2 3.7.5 1.6.7 3.6.7 5.6 0 2.9-.4 6-1 8.6a8.6 8.6 0 0 1-1.2 3c-.5.8-1.2 1.3-1.9 1.6h-.4c-.5 0-1.1-.2-1.5-.5a1.5 1.5 0 0 1-.4-.4.6.6 0 0 1-.1-.3v-.1l-2.3-.5-.4 2.3c2 .3 3.5 1.1 4.8 2.4 2 1.8 3.4 4.7 4.2 8.2a45.6 45.6 0 0 1 1.2 12.9c-1.8 59.4-.8 118.8-2.6 178a2.3 2.3 0 1 0 4.6.2c1.9-59.5.9-118.8 2.7-178v-2c0-5.3-.6-11.2-2.6-16.1-1-2.5-2.4-4.8-4.3-6.6a13.5 13.5 0 0 0-7.2-3.6 2.3 2.3 0 0 0-2.6 1.7l-.2 1.2a5.2 5.2 0 0 0 .7 2.5c.6 1.1 1.5 2 2.5 2.5a7 7 0 0 0 3.5 1 6.1 6.1 0 0 0 2-.4c1.8-.6 3.2-2 4.2-3.4 1-1.5 1.6-3 2-4.7.5-2.9 1-6.2 1-9.5 0-3.1-.4-6.2-1.6-9-.6-1.3-1.5-2.6-2.6-3.7a10.1 10.1 0 0 0-4-2.4 2.3 2.3 0 0 0-2.2.4 2.3 2.3 0 0 0-.9 2v3.5c0 8.8-.9 18.3-1.9 27.8-1 9.5-1.9 19-1.9 28.2a112.2 112.2 0 0 0 0 5.3c0 1.1 0 2.2-.2 3a5 5 0 0 1-2.6 3.6l-1.2.3c-.6 0-1-.2-1.7-.6a5.5 5.5 0 0 1-1.5-2.4c-.7-1.8-1-3.3-1-4.2 0-.6.2-1 .3-1.4.1-.4.3-.5.6-.7.3-.2.7-.3 1.3-.3.6 0 1.4.1 2.2.4a8 8 0 0 1 3 2.1c.9 1 1.3 1.9 1.3 2.8a4 4 0 0 1-1 2.4 5.4 5.4 0 0 1-4.2 2.3 4 4 0 0 1-3-1.3 7.5 7.5 0 0 1-1.8-3.6c-.4-1.6-.5-3.4-.6-5.2l-1.8-36.7c-.1-3-1.2-6.2-2.9-9a19.2 19.2 0 0 0-6.5-6.8c-1.4-.8-3-1.3-4.7-1.7a26.2 26.2 0 0 0-5.5-.6 19 19 0 0 0-6.9 1.1c-1 .4-2 1-2.8 1.8-.9.7-1.6 1.7-2 3a379 379 0 0 0-2.5 26.4c-2 32.6-4 88.4-4 124.8 0 12.3.3 22.3.8 28.7l.2 3c.1 2.2.4 5 1 7.5.3 1.2.6 2.4 1.2 3.5l1.2 1.5a4.3 4.3 0 0 0 2 1 6.1 6.1 0 0 0 1.3.2c1.4 0 2.7-.5 3.7-1.4.9-.7 1.5-1.6 2.1-2.6 1-1.7 1.7-3.8 2.2-6.2.9-3.6 1.4-8 1.7-12.5a414.5 414.5 0 0 0 .1-28.2l-.2-5a103.9 103.9 0 0 1 0-3h-.1a3438 3438 0 0 0-.1-36c-.2-18-.7-36-1.7-54-1-17.3-1.5-36-6.7-53-.7-2.4-1.5-4.6-2.6-6.6-1.2-2.1-2.8-4-5-5.7a5.8 5.8 0 0 0-6-.8 8.3 8.3 0 0 0-3 2.4 19.3 19.3 0 0 0-3.8 11.8l1.4 32.6.1 4.5c0 3-.2 6-1 8.6-.8 2.6-2 4.9-4.2 6.7a8 8 0 0 1-5.1 2c-1.7 0-3.2-.6-4.4-1.8a5 5 0 0 1-1.3-1.7c-.4-1-.6-2.3-.7-3.7-.1-1.5-.2-3.2-.6-5a15 15 0 0 0-2-4.4c-1.3-2-3-3.6-4.5-5.2l-4.5-4.3a10 10 0 0 1-2.7-6.8c0-3 1.2-5.8 3.7-7.8l-1-1.2.9 1.3v-.1l-1-1.2 1 1.3-1.3-1.8 1 2 .3-.2-1.3-1.8 1 2-1-2.1.7 2.2.3-.2-1-2 .7 2.2-.7-2.2v2.3l.7-.1-.7-2.2v2.3-2.4l-1.6 1.8c.5.4 1.1.6 1.6.6v-2.4l-1.6 1.8 1.6-1.8h-2.4c0 .6.3 1.3.8 1.8l1.6-1.8h-2.4 2.4l-2.3-.6a2.3 2.3 0 0 0 0 .6h2.3l-2.3-.6 2.2.6-2-1-.2.4 2.2.6-2-1 1.7.9-1.6-1.1v.2l1.6.9-1.6-1.1-.5.6-.3.4-.2.3-.2.3v.3a2.4 2.4 0 0 0 0 1.4 2.4 2.4 0 0 0 2.2 1.6h.7l.4-.3.5-.3c2-1.6 3.4-3.7 4.3-6a19.8 19.8 0 0 0 .3-13.6c-.8-2-1.9-3.9-3.5-5.3-1-.9-1.9-1.5-2.8-2-1-.4-2-.7-3-.7a6.4 6.4 0 0 0-2.6.5 8.3 8.3 0 0 0-3.2 2.7 17.1 17.1 0 0 0-2.8 6 26.7 26.7 0 0 0-1 6.9c0 1.5.2 3.1.5 4.6.4 1.5.9 2.9 1.6 4 1.4 2.2 3.1 3.8 4.4 5.3a11 11 0 0 1 1.4 2c.3.7.5 1.2.5 1.8 0 .8-.3 1.8-1.3 3.2-.3.6-1 1.1-1.6 1.6-3 2.5-5 5.6-6.2 9a32 32 0 0 0-1.4 10.2c0 3 .2 5.9.5 8.7a2453.5 2453.5 0 0 1 9.2 124.8 42.7 42.7 0 0 1-1.4 12.3 9.2 9.2 0 0 1-2.1 3.6 4.1 4.1 0 0 1-1.3.8c-.5.2-1 .3-1.6.3a6 6 0 0 1-.7 0l-2.5-.7c-3-1-5.8-1.5-8.5-1.5a29 29 0 0 0-9.3 1.6 18.6 18.6 0 0 0-4 2 3.8 3.8 0 0 0-.6.5l-.6 1.2c-.2 1.5-.3 3-.3 4.8 0 3.6.4 7.6.4 11.2a19 19 0 0 1-1.1 7.5c-.4.9-.9 1.4-1.4 1.7-.6.4-1.3.6-2.4.6a9 9 0 0 1-.9 0l-.2 2.3 2.2-.7c-.6-2-1.2-4.7-1.7-7.8a206 206 0 0 1-1.7-19.4c-.6-10.8-.8-22.4-1.1-31.4a164.3 164.3 0 0 0-1.4-15.1l-.6-1.5a4 4 0 0 0-.4-.8 3 3 0 0 0-1-.7l-.3-.2a6.1 6.1 0 0 0-.8-.2 19.2 19.2 0 0 0-14.3 2.4 2.3 2.3 0 0 0-1 2.2l2.7 33c.5 6.2.9 11.3.9 15.7 0 4.7-.4 8.5-1.3 12-1 3.3-2.4 6.4-4.6 9.8-4.6 7-11.9 12-20.3 15.4a96.3 96.3 0 0 1-26.7 6c-16 1.6-34.5 2.7-53.1 2.7-15.2 0-30.4-.7-44.5-2.6l-.3 2.3 1.9 1.4a27 27 0 0 1 13.6-9.6c8.6-3 19.7-3.9 31-4.2 11.1-.3 22.4 0 31.7-1.5 25-3.8 48.7-15.4 67.1-32.8l-1.6-1.7-2.3.4c.2 1 .3 2.2.3 3.3 0 4.5-1.4 9.5-3.7 13.9a29.8 29.8 0 0 1-9.2 10.7c-8.4 5.7-19 8-29.5 9.1a57.4 57.4 0 0 1-6.4.3c-18.7 0-38.6-8.8-54.5-19.5a69.4 69.4 0 0 1-21.4-26.5c-5.6-11-9.9-23-13.4-33.8a58.8 58.8 0 0 0-7.8-16 24.9 24.9 0 0 0-6.2-6.2 14.7 14.7 0 0 0-11.5-2.1c-3 .6-5.3 2.1-7.2 4-2.9 3-4.5 6.9-5.6 11-1 4-1.5 8.3-1.7 12.2l-2.8 69.6a89 89 0 0 0-.1 3.6c0 2.4.1 5 .7 7.4a16 16 0 0 0 3.5 7c1 1.2 2.4 2 3.9 2.6a12.3 12.3 0 0 0 4.5.9c2 0 4-.5 5.7-1.6a7.7 7.7 0 0 0 2.2-2.2 7.3 7.3 0 0 0 1.2-3.1 2.3 2.3 0 0 0-1-2.1 243.4 243.4 0 0 0-60.1-35 2.3 2.3 0 0 0-3.2 1.5 8.9 8.9 0 0 0-.3 2.2c0 2 .6 4 1.5 6 1.5 3.6 4.2 7.4 7.5 11.4 4.9 6 11.4 12.5 18 18.9l19.5 17.9c.6.5 1 .7 1.6.9l2.5.4 3 .2a84 84 0 0 0 17.7-2.2 17 17 0 0 0 2-.7c.6-.3 1.2-.5 1.8-1l1.7-2a7.8 7.8 0 0 0 1.4-3.2c.2-1.1.2-2.2.2-3.5l.5-101.9c0-1 .2-3 .6-5.2l2-11.4c.6-4 1.1-7.6 1.1-10.4 0-1 0-2-.4-3-.1-.5-.4-1-1-1.5a3.1 3.1 0 0 0-.9-.7 3 3 0 0 0-1.2-.2 3.6 3.6 0 0 0-1.5.3l-1.1.8-1.6.8-2.3.2c-2.5 0-5.7-.8-9-1.6-1.6-.5-3.3-.9-4.9-1.2a23 23 0 0 0-4.7-.6c-1.1 0-2.3.1-3.5.6a6.3 6.3 0 0 0-2.9 2.4 2.3 2.3 0 0 0 0 2.4c4 6.9 6.2 15.2 6.2 23.4 0 7.7-2 15.2-6.2 21.4a52 52 0 0 1-22.4 18.2c-9 4-19.2 5.9-29.4 5.9a82 82 0 0 1-27.8-4.9 63 63 0 0 1-22.7-13.8c-3-2.9-5.5-6-6.8-9.5a14 14 0 0 1-1-4.9c0-2 .6-3.8 1.5-5.4l-2-1.2-2.3.2a642.3 642.3 0 0 1 2.3 67.2v.5l.3 6.3a113.6 113.6 0 0 1 0 11.6 8.5 8.5 0 0 1-.7 2.8c-.5.9-1 1.4-1.7 1.8a4 4 0 0 1-2 .5c-1 0-1.8-.3-2.3-.7l-.5-.5-.1-.2c0-.1 0-.3.3-.6.3-.4.9-1 2-1.5a2.3 2.3 0 0 0 .3-.2c9.3-7.3 17-12 25.2-16 8.1-4.1 16.7-7.7 27.6-12.6l-1-2-2.3-.3c-.1 2.1-.9 4.5-2 7-2.1 4.5-5.6 9.4-9.7 14.2a172.1 172.1 0 0 1-27.7 25.4 60.1 60.1 0 0 1-2.5 1.8l-.8.5-.2.1.3.8-.2-.8h-.1l.3.8-.2-.8c-1.2.4-3 .6-5.2.6-4.8 0-11.5-1.2-18-3.3-6.6-2.2-13-5.3-17.6-9a2.3 2.3 0 0 0-1.4-.5c-8-.4-14.8-.6-20.4-.6-7.8 0-13.2.4-16.9 1-1.8.3-3.2.6-4.4 1.2-.6.3-1.1.6-1.6 1.2-.2.2-.5.6-.6 1a3.2 3.2 0 0 0-.3 1.2c0 .9.3 1.6.7 2 .3.5.7 1 1.1 1.3a52.8 52.8 0 0 0 10.2 4.3c9 2.5 22 4.9 35.1 6h1.2c3.5 0 6.8-1.2 9.5-3.3a17.2 17.2 0 0 0 5.8-8.2c.9-2.8 1.2-5.8 1.2-8.7a551.1 551.1 0 0 1-3.9-77.6c0-1.7-.2-4-.5-6.7l-1.6-13.4c-.6-4.7-1-9.1-1-12.3a14.8 14.8 0 0 1 .4-3.7l-.4-.3.4.3-.4-.3.4.3-1-.8.6 1 .4-.2-1-.8.6 1-.6-1.2v1.4l.6-.1-.6-1.3v1.4-1l-.3 1h.3v-1l-.3 1 .1-.5-.2.5.2-.5-.2.5s.2 0 .3.2c1.1 1 2.3 1.8 3.6 2.3a9.8 9.8 0 0 0 3.7.7c2 0 3.9-.6 5.6-1.4 2.7-1.2 5-2.8 7.3-4 1.2-.6 2.3-1.2 3.3-1.5a9.2 9.2 0 0 1 4.1-.5l.4-2.3-2.3-.4c-3.4 21-12 42.7-24.3 61.5a133.6 133.6 0 0 1-47.5 44.7A174.2 174.2 0 0 1 64.3 397a144 144 0 0 1-59.6-11.5 2.3 2.3 0 0 0-2 4.2m827.6-84.6c48.4 0 101 0 146-6.8l-.3-2.3-2.3.2a561.5 561.5 0 0 1 1.9 72.8 2.3 2.3 0 0 0 .7 1.8 2.3 2.3 0 0 0 1.8.6 77 77 0 0 0 16.9-3.2c2.7-1 5.3-2.2 7.7-3.8 2.4-1.7 4.5-3.7 6.2-6.3 2.8-4.3 3.7-9.1 3.7-13.9 0-4.2-.7-8.4-1.5-12.6-.8-4.2-1.8-8.3-2.3-12.1a53.4 53.4 0 0 1-.5-7.6c0-18.2 9.2-36.6 24.1-47l-1.3-2-.3 2.4c6.6.7 21 2.3 34.5 4.9 6.8 1.3 13.2 2.8 18.3 4.5 2.5.9 4.6 1.8 6.2 2.7 1.6.9 2.7 1.8 3 2.4l1.8-1h-2.1c0 .3.1.7.3 1l1.8-1h-2.1 2l-1.7-1.2a2 2 0 0 0-.3 1.1h2l-1.7-1.1 1.4.9-1-1.3-.4.4 1.4.9-1-1.3.4.5-.3-.6h-.1l.4.6-.3-.6-1.2.4a63 63 0 0 1-5.8 1.2 788 788 0 0 1-36.2 4.5l-16.2 1.8-5 .6a21.8 21.8 0 0 0-1.5.3l-.7.2-.6.3a2.4 2.4 0 0 0-1 2 2.4 2.4 0 0 0 1 1.9l.8.4.7.1h2.3c3.3 0 9.5-.1 20-.6a6162.4 6162.4 0 0 0 47-2.2c4.2 0 7.8.8 11.2 2.3 3.4 1.6 6.6 4 10 7.3l7.4 7.4a37.9 37.9 0 0 1 3.7 4.9l.7-.2h-.7v.2l.7-.2h-.7 1.4l-1.3-.5a1.4 1.4 0 0 0 0 .5h1.3l-1.3-.5 1.4.6-.7-1.4-.7.8 1.4.6-.7-1.4.5 1-.2-1h-.3l.5.9-.2-1v.3-.3.3-.3a10248.7 10248.7 0 0 0-97.9 6.3 97 97 0 0 0-5.2.7c-.2 0-.4 0-.7.2-.1 0-.3 0-.6.3a2.4 2.4 0 0 0 .1 3.8l.8.4.7.1 3 .2h5c11.9 0 34.4-.4 55.3-.4 9 0 17.9 0 25.3.3 7.4.2 13.5.6 17 1.1l.4-2.3-2.4.1.1 2.7c0 3.4-.4 6.5-1.7 9.2-1 2-2.4 4-4.5 5.7-3.3 2.7-8.3 5-15.9 6.7-7.5 1.6-17.7 2.6-31 2.6-13 0-28.9-.9-48.5-2.9l-.2 1.5.2-1.5-.2 1.5.2-1.5-.4 2.2.6-2.2h-.2l-.4 2.2.6-2.2-.6 2.3 1-2.1-.4-.2-.6 2.3 1-2.1-1 2.1 1.5-1.8-.6-.3-.9 2.1 1.5-1.8-1.5 1.8 2-1.3a2.3 2.3 0 0 0-.5-.5l-1.5 1.8 2-1.3-2 1.3h2.3a2.3 2.3 0 0 0-.3-1.3l-2 1.3h2.3-2.3l2 1c.2-.2.3-.6.3-1h-2.3l2 1-2-1 1.2 2a2.3 2.3 0 0 0 .9-1l-2-1 1.1 2-1.2-2 .5 2.3c.2 0 .3 0 .7-.3l-1.2-2 .5 2.3-.5-2.3.2 2.3h.3l-.5-2.3.2 2.3-.2-2.2v2.2h.2l-.2-2.2v2.2-1.3 1.3-1.3 1.3l1.3.1c6 .5 28.3 2.3 49.1 4.6a645 645 0 0 1 28 3.4 105.6 105.6 0 0 1 10.8 2.3h.1v.1l.7-1-1 .7.4.3.6-1-1 .7 1.5-1.1-1.7.7.3.4 1.4-1.1-1.7.7 1.9-.8h-2l.1.8 1.9-.8h-2 2l-1.9-.8a2 2 0 0 0-.1.8h2l-1.9-.8 1.8.7-1.5-1.2a2 2 0 0 0-.3.5l1.8.7-1.5-1.2 1.8 1.5-1.7-1.5c-15.2 16.7-42.9 29.1-77 29.1-2.5 0-5 0-7.6-.2l-.1 2.4.3-2.4-6.3-.7c-3.7-.4-7.8-1-11-2-1.4-.6-2.7-1.2-3.4-1.7l-.7-.8a1 1 0 0 1-.1-.5.7.7 0 0 1 0-.4l1-.8c1-.5 2.4-1 3.9-1.3l3.9-.6c12.8-2 26-1.7 39.4-2 39.1-1.1 72.3-5.2 111.1-8.6 4.2-.3 7-.7 9.6-1 2.8-.4 5.4-.8 9.5-1.1a2.3 2.3 0 0 0 2.1-2.5 48.4 48.4 0 0 1-.1-3.7c0-2.1.1-3.9.3-5.9a75.6 75.6 0 0 0 .2-9.7l-2.3.1.2 2.3 89.9-6a2.3 2.3 0 0 0 2.1-2 2.3 2.3 0 0 0-1.6-2.6c-13.8-4.5-26.3-6-40.4-6-9.3 0-19.3.6-31 1.5l.2 2.4 2.3.4a219.6 219.6 0 0 0 4-41.6c0-13-1.2-25.9-3.4-38.6-.9-4.8-1.6-10-3.4-14.8-.9-2.4-2-4.6-3.8-6.4-1.7-1.9-4-3.4-6.7-4.1a2.3 2.3 0 0 0-3 2.9c.6 1.8 1.5 3.3 2.6 4.5 1.7 1.9 4 3 6.3 3.5 2.4.6 4.9.8 7.4.8 3.2 0 6.5-.3 9.5-.5 5.2-.3 10.5-.4 15.7-.4l15 .2c5.1 0 11.2.6 17.3.6 4.9 0 9.8-.4 14.3-1.7 2.3-.6 4.4-1.8 6-3.6 1.5-1.7 2.4-4 2.7-6.4.4-3 .5-6.1.5-9.2 0-6.8-.6-13.6-.7-19.8-.3-10.1-3-19.8-6-29.2a26.4 26.4 0 0 0-12.4-14.8 42.7 42.7 0 0 0-39.5.3 31 31 0 0 0-14.1 15.4 27.5 27.5 0 0 0-2 10.4 23 23 0 0 0 5.2 15c2.9 3.4 6.3 5.8 10 7.3a30.6 30.6 0 0 0 30.1-3.8 20.4 20.4 0 0 0 8.6-17 25.2 25.2 0 0 0-7.7-18 38 38 0 0 0-11.4-7.2 60.6 60.6 0 0 0-27.8-5 24.7 24.7 0 0 0-17 8.5c-3.7 4.4-6 9.7-7.2 15.3a76 76 0 0 0-1.7 18.8c.1 7 .6 14.1 1 21v.8c0 1.4.2 4.1.5 6.6.2 1.2.4 2.4.8 3.5.2.5.5 1 1 1.6.2.3.5.6.9.8.4.2 1 .4 1.5.4a3.2 3.2 0 0 0 1.7-.6c.9-.5 1.2-1.2 1.4-1.5a40 40 0 0 0 5.3-18.6l.2-5c0-5-.4-10-.4-14.9-.2-9.3-.8-18.5-1.6-27.7-.1-2.1-.7-4.8-1.1-7.6-.5-2.9-.9-6-.8-8.5 0-1.6.1-3 .4-4.1.3-1.1.7-1.9 1.3-2.3a22.8 22.8 0 0 1 2.8-2.2c.4-.3 1-.5 1.6-1l2.7-2.1c4.8-4.3 8.6-9.6 11-15.6 1.5-3.6 3.2-7.8 4.6-12.3 1.3-4.4 2.4-9.1 2.4-13.6a21.2 21.2 0 0 0-2.9-10.9 7.2 7.2 0 0 0-2.7-2.4 5.3 5.3 0 0 0-2.3-.5c-1 0-2 .3-3 .8-.5.3-1 .7-1.3 1.2a4.2 4.2 0 0 0-.7 1.8 4.6 4.6 0 0 0 0 .7c0 .9.2 1.6.5 2.2a17.4 17.4 0 0 0 7.9 7c2.5 1 5.3 1.5 8 1.5a49 49 0 0 0 14.5-2.8c4.7-1.5 9.1-3.2 12.7-4.1a2.3 2.3 0 0 0 1.6-3.2c-5-11.9-9.8-19.8-13.2-28.2a70.3 70.3 0 0 1-4.1-13.6c-1-5-1.5-11-1.5-18.3 0-4.8.2-10.2.7-16.4l-2.3-.2h-2.3c-.6 14.8-.8 21-2.8 35.7-.6 4.7-2 8.7-3.9 12.7-1.8 4-4 8-6.2 12.5-.8 1.7-1.5 3.6-1.6 5.8a8.7 8.7 0 0 0 1.3 5c.8 1.4 2 2.5 3.3 3.3 1.8 1 3.7 1.3 5.4 1.3 1.2 0 2.4-.2 3.5-.3a30 30 0 0 1 3-.2 8 8 0 0 1 1.7.2c3.3.7 5.8 2.2 8 4.5 3.2 3.3 5.5 8.2 7.2 13.6 1.7 5.3 2.8 11 4.1 15.6l1.6 4.7c.5 1.3.7 2.5.7 3v.6l-.2.2c-.1.2-.4.4-1 .6-.6.2-1.6.4-2.7.5-5.8.4-12.7 1.5-19.6 2.6-6.9 1.1-13.7 2.1-19.1 2.3a2.3 2.3 0 0 0-.8 4.5l3 .9c3.4.7 7.6.8 11.4.8l6.6-.1 7.9-.2a50 50 0 0 1 15.7 2c2.4.8 4.4 1.9 5.9 3.3a11 11 0 0 1 3.3 5.4c.5 2 .7 4 .7 6.2 0 1.9-.2 3.8-.4 5.8a724.2 724.2 0 0 0-4.9 84c0 29.2 1.8 58.4 5.3 87.3 0 .5.2.9.5 1.2 1 1.2 2 2.1 3.1 2.8 1.8 1 3.6 1.3 5.5 1.5l6.3.8.4-2.3-2.4-.3c-.7 5.7-1.3 13.5-1.6 21.8a577.7 577.7 0 0 0-.6 25.2c0 6.2.1 11.8.3 16.3a2.3 2.3 0 0 0 2.5 2.2 2.3 2.3 0 0 0 2.2-2.5 567 567 0 0 1 .2-41c.4-8.2 1-15.9 1.7-21.4a2.3 2.3 0 0 0-2-2.6c-3.5-.6-6.1-.7-8-1-.9-.2-1.6-.5-2.2-.8a6 6 0 0 1-1.7-1.6l-1.9 1.5 2.4-.3a715.6 715.6 0 0 1-5.3-86.8c0-27.9 1.6-55.8 4.8-83.5.3-2 .5-4.2.5-6.3 0-2.5-.3-5-1-7.5a15.7 15.7 0 0 0-4.6-7.6c-3.2-2.9-7.3-4.5-11.7-5.4-4.3-.9-8.9-1.1-13-1.1l-8 .2a158.8 158.8 0 0 1-13.8-.1 31.7 31.7 0 0 1-3.1-.5l-2.2-.6-.9 2.1v2.4c5.9-.3 12.8-1.3 19.7-2.4 7-1 13.8-2.2 19.2-2.6 1.3-.1 2.4-.3 3.4-.6a8.8 8.8 0 0 0 2-.8 5.6 5.6 0 0 0 2.9-5c0-1.7-.5-3.2-1-4.7l-1.5-4.3-2.6-10.2a60.6 60.6 0 0 0-6.3-16.5 25 25 0 0 0-5.7-6.5 19.7 19.7 0 0 0-8.2-3.9 12.6 12.6 0 0 0-2.7-.2c-1.2 0-2.4 0-3.5.2a30 30 0 0 1-3 .2c-1.3 0-2.2-.2-3-.6-.7-.5-1.3-1-1.8-1.7a4 4 0 0 1-.6-2.2v-.2c0-1.2.5-2.5 1.2-4 2-4.4 4.3-8.3 6.2-12.6a48 48 0 0 0 4.3-14c2-14.8 2.2-21.4 2.8-36.2a2.3 2.3 0 0 0-4.6-.3c-.6 6.3-.8 11.9-.8 16.8A82.9 82.9 0 0 0 1255 61c3 6.5 6.6 13 10.3 21.7l2.1-.9-.6-2.2c-4 1-8.4 2.7-12.9 4.2-4.5 1.4-9 2.6-13 2.5-2.3 0-4.4-.3-6.3-1.1-1.8-.8-3.5-2-5-4a3.9 3.9 0 0 1-.5-.7v-.2H1228.8h.2-.2.2-.4l.4.2v-.2h-.4l.4.2-.2-.1.1.2v-.2.2s.2-.2.5-.1a.7.7 0 0 1 .3 0l.9.9.9 1.8c.8 1.8 1.1 4 1.1 6.4 0 3.7-.9 8-2.2 12.2-1.3 4.3-3 8.4-4.4 12a36.9 36.9 0 0 1-12.8 16c-.4.3-1 .5-1.6 1l-2.6 2.1a9.3 9.3 0 0 0-2.6 4.5c-.5 1.7-.6 3.5-.6 5.4 0 3 .4 6.3.9 9.2.5 3 1 5.6 1 7.3a413 413 0 0 1 1.6 27.4c0 5 .4 10 .4 14.8l-.1 4.8c-.4 6-1.7 11.4-4.7 16.4l-.1.2v.1l.7.5-.5-.8a1 1 0 0 0-.2.2l.7.6-.5-.8.8 1.2v-1.4a1.4 1.4 0 0 0-.8.2l.8 1.2v-1.4 1.7l.8-1.4c-.2-.2-.5-.3-.8-.3v1.7l.8-1.4-.5.9.8-.7-.3-.2-.5.9.8-.7-.2.2.2-.2-.2.2.2-.2a3.5 3.5 0 0 1-.2-.6l-.5-2.3a53 53 0 0 1-.4-5.8v-1c-.4-7-.9-14-1-21v-1.7c0-7 .6-14.5 3-20.7 1.1-3.2 2.7-6 4.8-8.4a20 20 0 0 1 13.8-7 38.2 38.2 0 0 1 3.8-.2c7.3 0 15 2 21.7 4.8 3.9 1.7 7.4 3.8 10 6.5a20.6 20.6 0 0 1 6.4 14.6c0 2.8-.7 5.3-1.8 7.5-1.8 3.3-4.7 6-8.4 7.9a27 27 0 0 1-22 1 22 22 0 0 1-8.3-6 18.4 18.4 0 0 1-4.2-12 22.8 22.8 0 0 1 1.7-8.6 26.4 26.4 0 0 1 12-13 38 38 0 0 1 35-.4c4.8 2.7 8.4 6.7 10.2 12.1 3 9.4 5.5 18.6 5.8 28 .2 6.3.7 13.1.7 19.6 0 3-.1 5.9-.4 8.6a7 7 0 0 1-1.7 4c-.9 1-2 1.7-3.7 2.2a48.3 48.3 0 0 1-13 1.4c-5.8 0-11.8-.5-17.3-.6l-15-.2c-5.3 0-10.6.1-16 .4-3 .2-6.2.5-9.2.5-3 0-5.9-.3-7.9-1.2a6.2 6.2 0 0 1-3.8-4.2l-2.3.6-.6 2.3c2 .5 3.4 1.5 4.6 2.7 1.8 2 3 4.8 3.9 8.1.9 3.4 1.4 7.1 2 10.8a214.9 214.9 0 0 1 3.4 37.8c0 13.6-1.3 27.3-3.9 40.7a2.3 2.3 0 0 0 .6 2 2.3 2.3 0 0 0 1.9.8c11.6-1 21.5-1.6 30.6-1.6 13.7 0 25.6 1.5 39 5.9l.7-2.3-.1-2.3-90 6a2.3 2.3 0 0 0-2.1 2.5 61.7 61.7 0 0 1-.3 9.2c-.1 1.9-.3 3.9-.3 6.2a52 52 0 0 0 .1 4l2.4-.1-.2-2.4-9.7 1.1-9.4 1.1c-38.9 3.4-72 7.4-110.8 8.5-13.2.4-26.6 0-40 2.1l-3 .4c-1.8.4-4 .8-5.9 1.8a8 8 0 0 0-2.6 2 5.5 5.5 0 0 0-1.3 3.5v.2c0 1.3.6 2.5 1.4 3.5.6.8 1.4 1.4 2.3 2 1.6 1 3.4 1.6 5.4 2.1 2.9.8 6.1 1.3 9.1 1.7 3 .4 5.7.6 7.3.9h.2l8 .2c35.2 0 64-12.8 80.3-30.7a2.6 2.6 0 0 0 .7-1.8 2.7 2.7 0 0 0-.4-1.5 3.2 3.2 0 0 0-.7-.7c-.5-.4-.9-.5-1.3-.7-.8-.4-1.7-.6-3-1-2.1-.5-5-1-8.6-1.6a951 951 0 0 0-48.5-5.5 2246.2 2246.2 0 0 0-29.8-2.6h-1.3l-.6.1-.7.5a2.3 2.3 0 0 0-.3 3l.5.5.5.3.3.2H1029.2c19.7 2 35.7 3 48.9 3 12 0 21.6-.8 29.3-2.2a59 59 0 0 0 14.1-4.2c5.7-2.6 9.4-6 11.6-10 2.2-4 2.8-8.2 2.8-12.5l-.1-3a2.3 2.3 0 0 0-2-2.1c-4-.6-10-1-17.6-1.2-7.5-.2-16.3-.3-25.4-.3-21 0-43.5.4-55.2.4h-6a23.8 23.8 0 0 1-1.4-.1h-.2l-.3 1.6.7-1.5-.4-.1-.3 1.6.7-1.5-1 2 1.6-1.6-.6-.4-1 2 1.6-1.6-1.6 1.7 2-1a2.3 2.3 0 0 0-.4-.7l-1.6 1.7 2-1-2 1h2.3a2.3 2.3 0 0 0-.2-1l-2.1 1h2.3-2.3l2 1.2c.1-.3.3-.7.3-1.2h-2.3l2 1.2-2-1.2 1.5 1.7.5-.5-2-1.2 1.5 1.7-1.4-1.6.9 2 .5-.4-1.4-1.6.9 2-.6-1.4.4 1.4h.2l-.6-1.4.4 1.4-.1-.5.1.5-.1-.5.1.5h.5c1.3-.3 4-.5 8.5-.9 13.4-1 42-2.9 93.3-6 .7 0 1.5-.1 2.3-.7a3 3 0 0 0 1-2.5 5 5 0 0 0-.5-2.1c-.5-1.1-1.3-2.1-2.2-3.3a79.8 79.8 0 0 0-5-5.3l-4.8-4.7a40 40 0 0 0-11.2-8.2 30.9 30.9 0 0 0-15.4-2.7 6246.9 6246.9 0 0 1-64.8 2.8 27.7 27.7 0 0 1-1.7 0h-.2l-.3 1.6.7-1.5-.4-.1-.3 1.6.7-1.5-.9 2 1.6-1.6c-.3-.3-.5-.3-.7-.4l-.9 2 1.6-1.6-1.6 1.7 2-1a2.3 2.3 0 0 0-.4-.7l-1.6 1.7 2-1-2 1h2.3a2.3 2.3 0 0 0-.3-1l-2 1h2.3-2.3l2 1c.2-.3.3-.6.3-1h-2.3l2 1-2-1 1.3 1.8c.2-.1.5-.3.7-.8l-2-1 1.3 1.8-1-1.5.6 1.8.4-.3-1-1.5.6 1.8-.2-.6.1.6-.1-.6.1.6a5.8 5.8 0 0 1 .4 0c.8-.3 2.6-.5 4.9-.8 8.1-1 23.5-2.5 36.9-4.1a372.4 372.4 0 0 0 23-3.6l1.9-.7 1-.7.5-.7c.1-.3.3-.7.3-1.2a2.6 2.6 0 0 0-.4-1.3c-1-1.7-2.7-3-4.7-4a60 60 0 0 0-13.6-5c-8-2.2-17.7-3.9-26.4-5.1-8.7-1.3-16.4-2.2-20.7-2.7a2.3 2.3 0 0 0-1.6.4 63.1 63.1 0 0 0-25.6 59.1c.6 4.2 1.5 8.3 2.3 12.4.8 4 1.5 8 1.4 11.7 0 4.2-.7 8-3 11.4-1.3 2-2.9 3.6-4.8 5-3 2-6.5 3.3-10.4 4.2-3.9 1-8 1.5-12 2l.2 2.3h2.3a566 566 0 0 0-1.9-73.3 2.3 2.3 0 0 0-.9-1.7 2.3 2.3 0 0 0-1.8-.4c-44.4 6.7-97 6.7-145.3 6.7a2.3 2.3 0 1 0 0 4.7"/><path d="M675 370.5c4.8.5 8.8.8 12.3.8 3.8 0 7-.3 9.6-1a17 17 0 0 0 8.6-4.2c1.9-1.9 3-4 3.7-6 .9-2 1.2-4 1.6-5.7.1-.9.3-1.6.6-2.3.3-.6.6-1.2 1-1.6.7-.8 1.7-1.3 3-1.7a18.8 18.8 0 0 1 5.7-.4c5 0 9.3.5 13.3.9 4 .3 7.8.7 12 .7 4 0 8.3-.3 13.3-1.3a2.3 2.3 0 0 0 1.9-2.3v-37.6a339.8 339.8 0 0 1 1.4-27.1 26.7 26.7 0 0 1 .6-3l-1-.4.9.5v-.1l-.8-.4.8.5-1.6-1 .9 1.6c.4-.2.6-.5.7-.6l-1.6-1 .9 1.6-1-1.9.5 2.1.5-.2-1-1.9.5 2.1-.4-1.5.2 1.6h.2l-.4-1.6.2 1.6v-.3.3-.3.3h6.1c2.3 0 4.7 0 6.7-.3a2.3 2.3 0 0 0 1.9-2.8c-1.6-8.7-2.1-18.3-2.1-28 0-10 .5-20 .8-29.4 0-1.6.2-3.1.4-4.4.3-1.3.8-2.4 1.5-3.1.7-.8 1.8-1.4 3.1-2 1.3-.5 3-1 4.6-1.8 3.7-1.8 6.3-4.7 7.8-8a27 27 0 0 0 2-11c0-4.7-.8-9.5-1.9-13.8-2.7-11.2-5.8-21.4-6.2-32.4a2.3 2.3 0 0 0-4.7 0l-2.6 67a2.3 2.3 0 0 0 1.8 2.3 27.9 27.9 0 0 0 14.4-.4l-.6-2.2-2.4-.1c-1.3 24.4-2.7 46-4.1 70.5a2.3 2.3 0 0 0 2.8 2.4c1.5-.3 3.1-.4 4.7-.4l7 .2a28 28 0 0 0 5.6-.5l-.5-2.3-2.3-.2c-1 9.8-1.1 21.2-1.2 32.6 0 11.5-.1 23-1 33a2.3 2.3 0 0 0 1.2 2.3c2.3 1.2 4.7 1.5 7.2 1.5a37 37 0 0 0 12.1-2.5l4.3-1.7 1.2-.5a4.8 4.8 0 0 1 .3 0l-.4-1.6v1.6h.4l-.4-1.6v1.6-2.2l-.8 2 .8.2v-2.2l-.8 2 .8-2-1.4 1.7.6.3.8-2-1.4 1.7 1.5-1.8-2 1.1c0 .3.3.5.5.7l1.5-1.8-2 1.1 2-1.1-2 1c0 .2.1.4.4.7a2.3 2.3 0 0 0 1.6.6 2.4 2.4 0 0 0 2-.9l.3-.7.2-.7.2-1.4a326.6 326.6 0 0 0 .6-30.2c-.1-2.7-.3-5-.6-6.9a2.3 2.3 0 0 0-4.6.8 186.4 186.4 0 0 1 .7 14.8 319.8 319.8 0 0 1-.7 20.7 20.2 20.2 0 0 1-.2 1.3v.1l1.6.5-1.5-.8-.1.3 1.6.5-1.5-.8 2 1-1.6-1.6-.4.6 2 1-1.6-1.6 1.6 1.7-1-2c-.3 0-.4.2-.6.3l1.6 1.7-1-2 1 2V339a2.3 2.3 0 0 0-1 .2l1 2v-2.2 2.3l1-2.1a2.3 2.3 0 0 0-1-.2v2.3l1-2.1-1 2 1.8-1.4a2.3 2.3 0 0 0-.8-.6l-1 2 1.8-1.4-1.7 1.4 2-1a2.2 2.2 0 0 0-.3-.4l-1.7 1.4 2-1a2.4 2.4 0 0 0-1.6-1.2 2.5 2.5 0 0 0-.6 0h-.6a4.7 4.7 0 0 0-.6.2l-2.7 1c-1.7.7-3.9 1.6-6.3 2.3-2.4.7-5 1.2-7.3 1.2-2 0-3.7-.3-5.1-1l-1 2 2.3.3c1-10.4 1-22 1-33.5.1-11.4.2-22.7 1.2-32.1a2.3 2.3 0 0 0-2.8-2.5c-1.5.3-3 .3-4.6.3l-7-.1c-1.8 0-3.7 0-5.7.5l.5 2.3 2.4.1 4-70.6a2.3 2.3 0 0 0-.8-2 2.3 2.3 0 0 0-2.1-.4 23.2 23.2 0 0 1-6.6 1 23 23 0 0 1-5.4-.6l-.5 2.3h2.3l2.6-67H782.1c.5 11.8 3.7 22.4 6.4 33.4 1 4 1.7 8.5 1.7 12.6 0 3.4-.5 6.6-1.6 9.1a11.2 11.2 0 0 1-5.5 5.8l-4.4 1.7a13 13 0 0 0-4.7 3.1 11.3 11.3 0 0 0-2.6 5.3c-.4 1.8-.5 3.6-.6 5.2-.3 9.3-.8 19.5-.8 29.7 0 9.8.5 19.6 2.2 28.8l2.3-.4-.4-2.3c-1.5.2-3.8.3-6 .3l-5.7-.1h-.6a4.5 4.5 0 0 0-.4 0h-.2l-.6.3a2.7 2.7 0 0 0-1 .9l-.5 1.2a168 168 0 0 0-1.7 16.8c-.3 5.5-.5 11-.5 14.6a13133.4 13133.4 0 0 0 0 37.6h2.3l-.4-2.3c-4.7 1-8.7 1.2-12.4 1.2-3.9 0-7.5-.3-11.6-.7-4-.4-8.4-.8-13.6-.9h-1.3c-1.8 0-3.7.1-5.7.6-1.9.5-3.9 1.4-5.4 3.1-.8 1-1.3 2-1.7 3-.6 1.5-1 3-1.2 4.4a19 19 0 0 1-2.6 6.7 9.4 9.4 0 0 1-4.6 3.5c-2.4 1-6 1.6-11.4 1.6-3.3 0-7.1-.2-11.7-.7a2.3 2.3 0 1 0-.5 4.6m620 25.6a20 20 0 0 0 7.9 4.9c2.8 1 5.7 1.2 8.7 1.2 4.1 0 8.3-.6 12.4-1.2 4.1-.5 8.2-1.1 12-1.1 3.4 0 6.6.5 9.5 1.7 4.6 2 9 5.8 13.3 10.7 6.4 7.2 12.8 16.4 20.5 24 3.8 3.8 8 7.2 12.8 9.6 4.7 2.5 10.1 4 16.1 4 8 0 17.1-2.7 27.6-8.8 1.6-1 3-2.3 4.5-4 2.4-2.9 4.7-6.7 7-11a181.7 181.7 0 0 0 14-38.1c5.1-22.1 7-42.7 7-63.6 0-15.8-1-31.7-2.6-48.6-2-21.6-7.3-47.4-18.9-66.7a37 37 0 0 0-11.8-11.7c-4.8-3.1-10.2-5.3-15.5-6a26.7 26.7 0 0 0-3.1-.1c-6.7 0-13.1 2.4-18.6 5.8-10 6.2-18 14.3-24.4 23.5a129.2 129.2 0 0 0-19 47.2c-3.5 17-4.7 34.4-4.7 50.2v1.8c0 11.1.5 21.9 1.5 33 .6 7.7 1.3 16.4 3 25 1.6 8.5 4.3 17 9.3 24.1 1.4 2 3.3 4.2 6 5.5 1.5.7 3 1 4.4 1 2.3 0 4.5-.7 6.3-1.7 2-1 3.6-2.4 5-3.8 2.7-3 4.8-6.3 6.4-9.8a74.1 74.1 0 0 0 7-30c.4-6.6.4-13.2 1.3-19.4.3-2.4.5-4.6.5-6.7 0-1.6 0-3-.5-4.5a9.1 9.1 0 0 0-5.8-6.1c-1.8-.7-4-1-6.5-1a49.5 49.5 0 0 0-8.2.7c-1 0-2.2-.3-3.3-.6a1.9 1.9 0 0 1-.8-.6l-.2-.2v-.1h-.2.1l.2-.3a37.9 37.9 0 0 1 35.5-3.2l.3.3h.2-.2.2-.2.1l2.2.1-2.3-.2h.2-.2.2-.2c0 .2-.3.5-.6 1a119.5 119.5 0 0 0-17.3 29.2c-4.6 10.4-8.4 21.1-12.9 31.3-10.9 25-26 48-41.3 71a2.3 2.3 0 0 0 .6 3.1 23 23 0 0 0 21.4 3.1c3.9-1.4 6.8-3.9 8.9-6.8 2-2.8 3.4-6.1 4.6-9.5 9.2-25.8 18.4-51.7 27.4-77.6 2.4-6.7 4.7-13.4 7.6-19.8.6-1.3 1.5-3.4 2.5-5a9 9 0 0 1 1.6-1.8c.5-.4.9-.5 1.1-.5h.1c.4 0 .6 0 1 .4.6.4 1.3 1.4 1.7 2.6a15 15 0 0 1 1 3.4c6.2 37.8 12.4 67 18.6 104.8a2.3 2.3 0 0 0 2 2h1c1.9 0 3.6-.7 5.1-1.6 2.8-1.8 5.2-4.6 7.6-7.9a161.3 161.3 0 0 0 15.3-29.7 251.5 251.5 0 0 0 16.2-88.4c0-26.4-4.1-54.2-13.3-83.7a2.3 2.3 0 0 0-3-1.5 2.3 2.3 0 0 0-1.5 3c9 29 13.2 56.3 13.2 82.2 0 30.7-5.8 59.5-16 86.8a164 164 0 0 1-10 21.4c-2.4 4.1-5 8-7.5 10.7a18.2 18.2 0 0 1-3.5 3.1c-1 .7-2 1-2.6 1h-.3l-.4 2.2 2.3-.3c-6.2-37.9-12.4-67.2-18.6-104.9a19 19 0 0 0-2-6c-.6-1-1.4-2-2.4-3a6.2 6.2 0 0 0-4.3-1.3c-1.5.1-2.8.8-3.8 1.6a15.7 15.7 0 0 0-3.4 4.4l-2 4c-3 6.7-5.3 13.5-7.7 20.3a15733.6 15733.6 0 0 1-27.4 77.6c-1 3.1-2.3 6-4 8.3-1.7 2.3-3.7 4-6.7 5.1a17.7 17.7 0 0 1-6.2 1.1c-3.9 0-7.8-1.2-10.9-3.5l-1.4 1.9 2 1.3a481 481 0 0 0 41.7-71.8c4.6-10.3 8.4-21 12.9-31.2a114.9 114.9 0 0 1 17.5-29.5c.3-.5.7-1.2.8-2.1v-.5c0-.8-.3-1.6-.6-2.2-.5-1-1.3-1.6-2-2a11 11 0 0 0-2.2-1.1 42.5 42.5 0 0 0-39 5c-.5.5-1 1.3-1.3 2.3a4.8 4.8 0 0 0-.2 1.3c0 .7.1 1.3.4 2a6 6 0 0 0 1.6 2 6.6 6.6 0 0 0 2.3 1.3 16.2 16.2 0 0 0 6.2.8c2.6-.5 4.9-.6 6.7-.6 2 0 3.5.2 4.5.5.8.3 1.4.6 1.9 1 .6.4 1 1 1.3 1.9.3.9.5 2 .5 3.5 0 1.7-.2 3.8-.6 6.1-.8 6.6-.9 13.3-1.2 19.7a69.1 69.1 0 0 1-6.6 28.3c-1.5 3.2-3.3 6.1-5.6 8.5-1.1 1.2-2.4 2.2-3.8 3a8.7 8.7 0 0 1-4 1.1 5.8 5.8 0 0 1-2.5-.5 11 11 0 0 1-4.2-4c-4.4-6.3-7-14.1-8.6-22.3-1.6-8.2-2.2-16.8-2.9-24.6-1-10.9-1.3-21.5-1.4-32.5V318c0-20.8 2-44.3 8.8-65.4 3.4-10.6 8-20.6 14-29.3 6.1-8.8 13.7-16.4 23-22.2a31.2 31.2 0 0 1 18.8-5c4.3.5 9.2 2.4 13.5 5.2 4.3 2.8 8 6.4 10.3 10.2 11 18.3 16.3 43.5 18.2 64.7a534 534 0 0 1 2.6 48.2c0 20.6-1.8 40.8-6.8 62.6A191.8 191.8 0 0 1 1444 422c-1.8 3.7-3.6 7-5.5 9.6a18.4 18.4 0 0 1-5 5.3 50.5 50.5 0 0 1-25.3 8.2c-7 0-12.8-2.2-18-5.9-8-5.4-14.7-14-21.3-22.2-3.3-4.1-6.6-8.1-10.1-11.6a38.4 38.4 0 0 0-11.5-8.2c-3.7-1.6-7.5-2-11.3-2-4.3 0-8.5.5-12.6 1.1a86 86 0 0 1-11.8 1.2c-2.6 0-5-.3-7.3-1-2.2-.8-4.2-2-6-3.8a2.3 2.3 0 0 0-3.4 0 2.3 2.3 0 0 0 0 3.3"/></g></svg>