<svg xmlns="http://www.w3.org/2000/svg" viewBox="0 0 796 1535"><path d="M383 208.7c2.5 22.1 5.3 44.2 7.9 46.6.2 0 .6-.2 1-1.3 2-5-.2-21.6-8.9-45.3zM228.5 359.4c9.8 8.4 16.3 12.6 19.5 12.4.5 0 .7-.2.7-.2.4-.5.4-.8.3-1-.8-3.4-11.9-8-20.5-11.2zm253.5 4.2c-14.8 5.3-28 11.3-32.5 18a259 259 0 0 0 32.5-18zm-260 26.6c11.6 3.5 23 6.6 26 4.2.3-.2.7-.8.6-2.2-.2-2.2-4-3-6.2-3.3-4.7-.7-11.8-.2-20.4 1.3zm201.8 34a154.6 154.6 0 0 1 6.4.2c0-1.5-.2-3.2-.7-5.1-3.8.7-7.4 2.3-10.8 5h5zM30.2 393.4a16 16 0 0 0-4.3 12.2c.7 9.2 9.2 16.6 21.4 18.9 15.6 2.8 25.7-1.2 37.9-9a58.7 58.7 0 0 0 24.2-28C94.2 397.3 78.6 407.4 57 403c-9-1.9-18.4-5-26.8-9.5zm385.1 34L414 429c-1.8 2-2.9 4.6-3.5 7.3 9-1.2 16.9-3.4 19.1-8.8v-.1a61.8 61.8 0 0 0-3.2-.2c-3.6 0-7.3 0-11 .2zm-4.2.3c-24.8 2-50.3 10.5-60 29.3-3.9 7.7-3.8 14.8-1.1 21.5 4-15.7 9.5-26 27.5-36.6a61 61 0 0 1 22.1-4.4l7.6-.8c.6-3.3 1.8-6.3 3.9-9zm-1.2 11.7c-.7 7.9 1.7 17 3.7 24.4l1.3 5c3.4 14.2 9.2 28.7 16 40a1123.8 1123.8 0 0 0 48.4 74.9c6.2 9.9 15.7 24.9 26.5 21.8 10.5-3 8.7-17.3 5.8-33-.5-2.8-1-5.2-1.2-7.2-3.2-26-10.2-54.2-21.3-86.2-10.4-29.5-31.2-48.3-56.5-51.4l-.3 1c-3 7-12 9.4-22.4 10.7zm-194.2-48a211.5 211.5 0 0 0-41.5 14.2c-18.7 8.6-51.7 27.3-62.4 55.4-4 10.3-3.5 16.7-2.8 25.5l.4 7c.3 6.1-1.4 12.4-3 18.5-1.6 5.9-3.3 12-3 17.8.8 18 11.2 41.2 21 55 3.6 5 7.1 11 10.8 17.3 6.8 11.7 13.9 23.8 22.7 31.9 11.6 10.5 44 14.7 61.3 8.7-30.3-7.1-44-21.2-47.2-47.7-6-50.3 10-92.3 46-121.6 16-13 36.4-24.3 56-31 23.4-8 45.3-9.5 63.3-4.3l11 3.2-11.5-.3c-19.4-.4-46 5.8-71 16.6a143 143 0 0 0-58.1 43.3c-16.5 19.7-31.6 67.8-18.7 101.3 7 18.2 21 28.8 41.7 31.7 3.2.5 7.2 2.2 11.5 4 7.2 3 15.4 6.3 20.8 4.3 3.6-1.4 5.9-3.2 6.9-5.6 1.9-4.4-.6-10.4-3.2-16.9-4.2-10.1-8.8-21.6 2.7-29.7 6.4-4.6 12.6-7.8 18.6-11a84.5 84.5 0 0 0 28.8-21c16-19 23-33.6 28.8-59.9l1.3-6.3a595.4 595.4 0 0 1 2-8.7 28.1 28.1 0 0 1-.4-27.5c6-11.6 17.5-20.2 34.3-25.6 11-3.5 22.2-5 31.2-5.5 4.4-4.3 9.2-7 14.5-8A80.6 80.6 0 0 0 416 397a3772.6 3772.6 0 0 0-8.5-10c-22.5-26.4-48-56.4-63.6-85.2-12.2-22.3-17.2-35.6-11.2-61.3l.5-2.3c2.6-11 5-20.5-5.2-25.7-7.4-3.8-22.2-2-28.8 3.5-3.3 2.8-5 5.5-5.1 8.2-.2 4.7 4.4 9.2 8.8 13.6l1.1 1c6.7 6.7 7.4 9 9.2 14.8.7 2.2 1.5 5 3 8.7a468.9 468.9 0 0 0 24.4 53.5c13.8 25.7 51.5 75 74.3 93.7l-2 2.4c-22.9-19-61-68.7-75-94.7a471.8 471.8 0 0 1-27.6-62.7c-1.7-5.5-2.3-7.4-8.4-13.5l-1.1-1c-4.7-4.7-10-10-9.7-16 .1-3.6 2.2-7 6.2-10.3a34.9 34.9 0 0 1 32-3.8c12.3 6.2 9.4 18.3 6.8 29l-.5 2.2c-5.8 24.7-.9 37.6 10.9 59.3 15.5 28.5 40.9 58.4 63.3 84.7l8.5 10c6.6 8.1 11 15 13.2 20.8h1c19-.8 38.3 18.4 51 31l1 1c8.9 8.8 17.7 18.4 26.3 27.6a830 830 0 0 0 30 31.2c3.4 3.4 6.3 7 9 10.4a50.4 50.4 0 0 0 19 16.8c12.1 5.4 29.1 7.7 40.5-2 11.5-10 6.3-23.2-.5-36.9-8.3-16.5-4.6-23.4 2.7-37.2l1.1-2c8.5-16.1 8.1-26.7-1.5-40.3-4.6-6.5-7.4-13.3-10.2-19.8a111 111 0 0 0-9.2-18.3c-5-7.7-18.5-25.5-34.3-26-5.4-.1-9.8-1.1-14.1-2-7.1-1.6-13.2-3-21.7.3a521 521 0 0 1-28.3 9.8 318 318 0 0 1-36.6 22c-8.9 4.4-9.7 3.9-10.5 3.5-.7-.4-1-1.3-.7-2 3.5-10.8 24.5-18.7 46.5-26.2 8.3-5.8 15.9-11.9 20.8-17.4 11.7-13 16.7-22 14-37.8-3.1-17.6-.8-31 7.6-43.6 13.1-19.5 40-18 63.7-16.8 7.4.4 14.5.7 20.6.4 14-.7 29-1 44.6-.7 16.2.3 36.7-8.7 42.6-24.4 3.5-9.3 3-24.3-19-43a149 149 0 0 1-5.5-5c-15.6-14.7-36.8-34.6-93.6-10.9-23 9.6-46.7 27.4-66.7 50-22.2 25-37.1 61.8-42.5 79.6l-1.8 6-1-6.1c-3.9-20.6 6.9-41.8 16.7-58 10.2-17 23.6-30.5 37.7-44.9l2.3-2.3c21.3-21.6 43.6-33.5 77.2-41.1 15.8-3.6 32.4-6.3 46.3-1.8 5.8 1.8 11.6 6.3 17.1 10.7 6 4.6 12 9.4 18 10.7a69.5 69.5 0 0 0-14-37.3 50.5 50.5 0 0 0-37.1-18.7c-11-.7-22.2 2.8-33.2 6.1-4 1.2-7.8 2.4-11.6 3.4-18 4.5-32.7 1.8-50.6-4-3.5-1.2-7.2-2.8-10.7-4.3-12-5-24.2-10.3-36.6-3.5-14 7.7-18.3 22.8-21.5 37.7-3.6 16.3-11.7 22.8-23 31.7a427.5 427.5 0 0 0-4.4 3.6 66.2 66.2 0 0 0-21.5 39.4c-3.1 14-4.7 29.5-4.8 47.2 0 4.8.9 10.5 1.8 16.5 1.6 9.9 3.3 20.1 1 27.8l-1 3-1.8-2.7c-9-13.5-11.4-39.3-6.8-76.5a155 155 0 0 1 11.4-43 69.3 69.3 0 0 1 21.6-26l3-2.6c9.6-8.4 6-20 2.3-31.2l-1-3.2c-8.7-28.3 2.1-58.5 12.8-78.9 9.9-18.8 22-34.1 29-40.8-45.2 3.5-88 24.6-110 54.6a72.1 72.1 0 0 0-12.8 62.6c3.5 13.3 6.5 41.4 9.4 68.5l.8 7.6c11.5 27.7 15.7 50.1 13 57.6-1.2 3-3.2 3.3-4.3 3.2-4.4-.3-6.7-14-11.7-60.1a306 306 0 0 0-6.8-15.1 296 296 0 0 0-83.8-105.3c-21.5-16.6-51.6-23-91.8-19.5-11.2 1-59.8 14.5-65.5 29.7-1.1 3-.3 6 2.5 9 2 1.9 7 3.4 11.6 4.8 3.6 1.1 7 2.1 9.2 3.5 4.8 2.8 11.9 7.1 18 11.5a169 169 0 0 1 30.6 30l4 4.8c7.8 9.7 15.9 19.6 23.5 28.4a192 192 0 0 1 20.6 31.6l6.4 12-8.8-10.3c-2.2-2.6-8-8.4-14.5-15.2a450.5 450.5 0 0 1-34.6-37.6c-8.6-12.5-19-23-31.4-32l-3.1-2.3a153.4 153.4 0 0 0-34.4-20.6C108.6 97 91.3 125.3 84.8 136l-1.7 2.6a67.5 67.5 0 0 0-6.5 62.1 157 157 0 0 0 29.6 51.3 140.4 140.4 0 0 0 30.7 23.8c6.2 4 12.7 8 18.9 12.8 11 8.5 21.2 19.4 31 30 4.7 5 9.5 10.2 14.3 15l1.2 1.1a604 604 0 0 0 19.8 19l3.5 1.4c14.1 5.3 25 9.7 26.3 14.7a4 4 0 0 1-.9 3.7 4 4 0 0 1-3 1.3c-5.2.3-15.9-7.9-27.5-18.5l-6-2.4c-13.7-6.7-22-12-34-22-22-18-43.8-34.6-68.3-39-37.1-6.7-72-11.2-92.2 6.9C7.3 311 2 330 4 357.6c.9 13.5 11.7 24.5 25.6 32.2 2.9-2.7 6.6-5 11-6.6 9-3.2 19.8-3.1 30.3-3 12 0 24.4 0 33.3-5 15-8.3 23.2-4.8 32.7-.6 8.1 3.5 17.3 7.5 33.2 5.7 13-1.4 30.1 3.4 45.6 8 11.5-2.5 21-3.2 27.1-2.4 6.9 1 8.5 3.8 8.8 6 .1 2.1-.4 3.8-1.8 4.9-4.4 3.6-15.9.1-31.8-4.6l-2.3-.7zm316.6 524.7c-7.3 20.6-11 39.7-12 53.7-1 11.8.2 16.4.8 17.2.7-.7 3.6-4.8 7-28 1.7-12.3 3.2-27 4.2-42.9zm-36.5 618.3-3-.2c4.8-81.2 3.4-191.1 2.4-264-.3-23-.5-41.1-.5-53.1 0-10-.2-19.6-.4-29-1.3-49-2.4-91.4 35.4-129 8.2-8.3 20.2-18 34-29.1 59.7-48 159.6-128.2 166.6-264.8 2.7-52.8 31.5-105.4 48.7-136.8l9-16.6c-44.5 35.4-78 80.3-107.9 120.1-27 36-50.2 67.1-76.3 85.3-33.9 23.6-55.3 57.7-68 89.5-2 39.7-7 79-13.3 83-1.1.7-2.4.5-3.3-.3-2.4-2.1-2.5-10.3-2.1-16.8.8-15.9 5.4-40.4 15.8-66.5l.5-13.7c2.3-63.1-2.5-121.8-13-161.1a629 629 0 0 1-12.5-79.4c0-.3-5-31.4-15.8-37-5.8-3.1-12.2-5-18.5-6.8a72 72 0 0 1-25.5-11.2C429.5 582 415 561 401 540.7a1508.4 1508.4 0 0 0-6.8-9.9 121 121 0 0 0-19-19C366.4 504.2 357 496 351 487a980.7 980.7 0 0 0-1.2 5.5l-1.4 6.4c-6 26.8-13 41.6-29.4 61.1-9.4 11.2-19.3 16.3-29.7 21.8-6 3-12 6.3-18.3 10.7-9.6 6.8-5.7 16.2-1.6 26.2 2.8 7 5.5 13.7 3.1 19.2-1.3 3.1-4.1 5.5-8.5 7.2-6.5 2.4-15.3-1.2-23-4.4-4.2-1.7-8-3.3-10.8-3.7a52 52 0 0 1-44-33.6c-13.4-34.5 2.1-84 19-104.3 17.6-21 34.2-33.3 59.3-44.1a208.6 208.6 0 0 1 59.6-16.3c-35.3-4-77.5 15.4-104.2 37-35.3 28.7-50.8 69.8-45 119 3.1 26.7 17 39.6 49.3 46.2l4 .8-3.6 2c-16.7 9-55.3 5-68.8-7.4-9.2-8.4-16.4-20.7-23.3-32.6a226 226 0 0 0-10.6-17c-10.1-14.2-20.8-38.2-21.6-56.7-.3-6.2 1.4-12.6 3-18.7 1.7-6.1 3.3-11.9 3-17.6 0-2.5-.2-4.7-.4-7-.6-8.8-1.2-15.7 3-26.6 11-29.2 44.8-48.3 64-57.1 13-6 25.6-10.3 36.9-13.2-13.9-4-28.4-7.6-39.5-6.4a61.5 61.5 0 0 1-34.7-6c-9.5-4.1-16.3-7.1-30 .6-9.6 5.4-22.4 5.3-34.8 5.2-10.3 0-20.8 0-29.2 3a30.8 30.8 0 0 0-9.3 5.2c8 4 16.7 6.9 25.2 8.6 20.4 4.2 34.8-5 50.1-14.9a651.9 651.9 0 0 1 4.3-2.7l4-2.6-1.8 4.5A64.7 64.7 0 0 1 86.8 418c-12.5 8-23.6 12.4-40 9.4-13.6-2.5-23-11-24-21.6-.3-5 1.3-9.8 4.7-13.8-14.4-8.1-25.6-19.8-26.5-34.2-2-28.6 3.6-48.3 17-60.3 21.1-19 56.9-14.4 94.7-7.5 25.2 4.5 47.4 21.3 69.7 39.7 11.2 9.2 19.1 14.3 31.4 20.5l-13.7-13.4-1.1-1.1c-4.8-4.8-9.7-10-14.4-15A267.6 267.6 0 0 0 154 291c-6-4.7-12.4-8.7-18.6-12.6-10.7-6.8-21.7-13.9-31.3-24.4a160 160 0 0 1-30.2-52.2c-8.4-22-6-45.6 6.8-64.8l1.6-2.6c6.9-11.2 25.2-41 49.4-31.6 13 5 24.2 13.2 35 21l3.2 2.3a133 133 0 0 1 32 32.7c5.2 7.6 22 24.7 34.3 37.2l6 6.2A160 160 0 0 0 228 182c-7.6-8.9-15.7-18.8-23.6-28.5l-4-4.8a166 166 0 0 0-30-29.4c-6-4.4-13-8.6-17.7-11.5-2-1-5.2-2-8.6-3.1a33 33 0 0 1-12.8-5.7c-3.7-3.8-4.8-7.9-3.2-12 6.5-17.4 58.6-30.8 68-31.6 41-3.6 71.8 3 94 20a299 299 0 0 1 84.6 106.4 307.4 307.4 0 0 1 3 6.5 603.5 603.5 0 0 0-9-66.1A75 75 0 0 1 382 57.1C405.2 25.3 451 3.3 498.8 1l5.5-.3-4.7 3c-8.1 5.3-60.3 67-44 119.3l.9 3.1c3.7 11.6 7.9 24.8-3.3 34.5l-3 2.5c-8.7 7.5-15.5 13.3-20.8 25-5.2 11.6-9.3 27-11.2 42.2-4 33.1-2.5 57.6 4.5 71.2.9-6.5-.4-14.7-1.7-22.7-1-6.2-2-12-2-17 .2-18 1.8-33.6 5-47.8 3-13.7 8-29.2 22.6-41.1l4.4-3.6c11.1-8.9 18.5-14.8 21.8-30 3.3-14.9 8-31.4 23-39.7 13.7-7.5 26.7-2 39.2 3.3 3.7 1.6 7.1 3 10.6 4.2 17.3 5.7 31.6 8.4 48.8 4 3.8-1 7.5-2.1 11.5-3.4 11.2-3.4 22.8-6.9 34.2-6.2 16 1 29.6 7.9 39.3 19.8a73.2 73.2 0 0 1 14.9 40.9v1.7l-1.7-.1c-7.3-.7-14.5-6.3-21.3-11.7-5.4-4.1-11-8.5-16.2-10.2-13.2-4.2-29.3-1.6-44.7 1.9-33 7.4-55 19.1-75.7 40.3l-2.4 2.3a245.7 245.7 0 0 0-37.2 44.3c-8.4 13.9-17.6 31.6-17.2 49 6.8-19.5 21-51.5 41-74 20.2-23 44.3-41 67.8-50.8 58.5-24.4 81.5-2.9 96.7 11.4 2 1.8 3.7 3.5 5.5 5 12.9 11 26.8 28 19.8 46.4-6.4 16.9-28.1 26.6-45.5 26.3a635 635 0 0 0-44.3.7c-6.3.3-13.4 0-21-.4-22.9-1.2-48.8-2.6-61 15.5-8 12-10.2 24.3-7.2 41.3 3 17-2.6 27-14.7 40.4-3.6 4-8.4 8.2-13.7 12.3 7-2.4 13.4-4.6 19.3-6.8 9.2-3.6 16-2 23.3-.5 4.2 1 8.4 1.9 13.6 2 17.2.5 31.4 19.3 36.7 27.3a113 113 0 0 1 9.4 18.8c2.9 6.7 5.6 13 10 19.3 10.2 14.5 10.7 26.3 1.6 43.4l-1 2c-7.3 13.7-10.3 19.3-2.7 34.5 5.6 11.2 14 28-.3 40.4-12.4 10.7-30.7 8.3-43.6 2.5-9.4-4.1-14.6-10.7-20.1-17.6-2.7-3.4-5.5-6.9-8.9-10.1-10.2-9.9-20.2-20.8-30-31.3a926.2 926.2 0 0 0-26.2-27.5l-1-1c-12.4-12.3-31.1-31-48.8-30.3h-.1c.6 2.1.8 4 .7 5.8 26.3 3.3 48 22.8 58.7 53.4a414.3 414.3 0 0 1 21.5 86.9c.2 1.9.6 4.2 1.1 6.9 2.4 13 6 32.5-8 36.5-1.2.4-2.4.5-3.7.5-11.1 0-20-14-26-23.6l-3.6-5.4a1127.9 1127.9 0 0 1-44.8-69.6c-7-11.5-13-26.3-16.4-40.7l-1.3-5c-2-7.4-4.4-16.6-3.8-24.8l-7 .7a60 60 0 0 0-20.9 4c-18.3 10.7-23 21.3-27 38.3 5.3 9.5 15.3 18.2 25.1 26.8 7.8 6.7 15 13 19.6 19.5l6.7 9.9c14 20.2 28.3 41 46.5 55.5 7.1 5.6 15.6 8.1 24.6 10.7 6.4 1.9 13 3.8 19 7 12.1 6.3 17.2 38 17.4 39.3 1.6 16.2 6.2 56.2 12.3 79 10.6 39.4 15.4 98.1 13.3 161.2l-.3 6.3c13.2-30 34-61 65.9-83.2 25.6-18 48.8-48.9 75.6-84.7 31-41.4 66.2-88.3 113.4-124.6l4.5-3.5-2.2 5.3c-2.4 5.5-6.5 13-11.7 22.6-17.1 31.2-45.7 83.4-48.4 135.4-7.1 138-107.6 218.8-167.6 267-13.8 11.1-25.8 20.7-34 28.9-36.7 36.7-35.7 78.5-34.4 126.8.2 9.4.5 19.1.4 29 0 12 .2 30.2.5 53.3 1 72.8 2.4 182.8-2.4 264z" fill-rule="evenodd"/></svg>