<svg xmlns="http://www.w3.org/2000/svg" viewBox="0 0 1532 2813"><g fill-rule="evenodd"><path d="M1206.3 1134.3c-6.5 10.5-17.5 17.8-28 24.5-1.6-12.3 2.5-25.8 6.4-37.6 6.2-12.6 14.1-29.3 26.3-37.3a58.3 58.3 0 0 1-4.7 50.4zm1.6-59.9a39.6 39.6 0 0 0-8 6l3.4-9c1.7.9 3.2 1.9 4.6 3zm-340.9 838a1141.2 1141.2 0 0 1-102.1 25.1c-34.8 7-69.3 15.7-104.8 18.3-32 2.3-74.7-.2-98.6-24.5-18.8-19.2-7.7-52.6-5.1-75.6a114 114 0 0 0-3.4-49c-4.7-14-15.8-21.6-27.3-29.7-16-11.4-11-31-1.4-45.3 10.8-16.2 32.7-12.8 48.6-8.2 5.2 1.5 8.5-6.3 3.5-8.6l-1.2-.4-.3-.1c-20.6-8.3-49.3-4-65.2-20.8-5.4-5.7-15.6-31.4-4.4-34.8 9-2.8 11.8-14.2 14.2-22.3 5-17.2 7-42.7-8-55.6-7.2-6.1-18.1-7-26.2-12.2-14.6-9.4-33.8-25.3-28.3-44.5 4.4-15.5 22.3-27.4 33.8-37.5 12.2-10.6 24.6-21.1 36.4-32.2 22-20.5 41.6-43.7 54-71.3 28.9-63.6 15.5-137.5 33.1-204a301.2 301.2 0 0 1 115.4-166.7c1.2-.9 1.8-2 2-3.2l9.7-3.2c51.1-17.4 115.4-41 139.5-94.1 26.6-58.8-74.8-91.9-49.2-151 4.6-10.4 9.2-19.6 6.6-31.2-2.4-11-14.4-20-23.1-25.9-8.1-5.4-16.3-7-24.3-6.2 6.6-6 12.2-12.7 15-21.3 3.9-12 1.4-46.2-15.1-49-3.6-.6-9 1.1-12.2-.3-5.8-2.6-11-8.5-15.4-13-9.2-9.7-21.5-27.3-13.7-40.8 2.3-4 7-7.4 9.7-11.3a73 73 0 0 0 7.6-15.7c4.4-11.7 10-26 7.2-38.7-4.9-22.9-29.3-28.9-49.2-32.7-25.2-5-50.6-8.6-75.7-14a254 254 0 0 1-74.3-26.8c-25.5-14.9-41.3-36.7-53.3-63.1-11.8-26-21-56-38.9-78.6-16.1-20.3-37.7-35.2-59-49.8A337.8 337.8 0 0 0 261.3 186c-6.3-.5-5.9 9 .2 9.4a345 345 0 0 1 193 81.6c49.4 41.5 49.2 115.8 101 155 41 31.3 94.2 39.2 143.7 47.7 20.5 3.6 62.4 4.7 65.7 31.5 1.8 14-6 31.5-12.6 43.4-5 9-14.6 14-14.8 25.4-.3 15.7 9 29.4 19 40.6 5.1 5.7 11.1 10.5 17.5 14.6 7.5 4.8 15.9-1.9 19.8 8.6 6.5 17.6 5.3 31.7-8.3 45.2-10.9 10.8-24 18.9-33.2 31.2l-.8 1c-3 4.4 4.1 9.7 7.7 6 11.1-11.9 24.8-23.5 42-19.4a43.6 43.6 0 0 1 18.5 11.5c10.2 9.3 11.7 18.4 6.5 30.7-5 11.8-9.5 21.8-8.2 35 1.5 14 9.2 27.2 16.8 38.8 16.2 24.7 48.2 48 38.6 81-8.8 30-43.6 52-69.5 65.7-27 14.1-56.2 23.4-85 33-32.2 11-64.3 22-97.1 31-33.5 9.2-67.5 16.2-101.7 22.3-30.8 5.4-61.8 11-93.1 11.7a160 160 0 0 1-98.4-29.7c-35.6-25.5-56-65.2-86.7-95.5-2.8-2.7-6.8-1.3-8.1 2-4 10-6.9 20.5-12 29.9-6.8 12.7-20 12.5-32.7 10.1-35.3-6.7-63.6-31.8-89.3-55.3C58.6 892.3-5.7 836 13 772.8c4.8-16 17.3-25.2 33.2-28.7 18.3-4.1 36.3 7 50.7 16.9 20.4 13.9 40.8 31.5 66.2 35 23.5 3.1 39.7-10.6 40.6-34 .6-13.4-2.6-26.6-2.4-40 .2-15.3 8.6-31.5 15-45 12-25.3 26.7-49.2 34.8-76.1 8.7-29.2 3-55.4-8.5-82.7-13.6-32.6-33.9-70.1-27.6-106.5 2.6-15 11.4-28.2 19.3-40.8 8.6-13.8 16-27.6 21.2-43 10.4-30.4 11-65.1 3.2-96.2-7-28-20.7-54.2-30.1-81.5-10-28.8-14.3-59.2 1.7-86.6 15-25.8 43.9-40.8 71.8-48.2 62.4-16.6 125.8 4.9 182.6 30.4 68 30.6 125.6 74.5 182.5 122 60.2 50.3 121 99.7 181.1 150 56.6 47.1 114.8 93.9 167.6 145.4a616.3 616.3 0 0 1 108.6 142c28.4 51.4 49.3 110.3 43.9 169.7-5.6 60.7-46.4 115.8-100 143-25.6 12.9-53.8 14.7-81.2 21a290 290 0 0 0-70 25.7c-42.8 22.7-72 61.2-74.6 110.4-2.5 51 29 91.6 59.3 129 16 19.8 32 39.8 43.2 62.8a137.8 137.8 0 0 1 10.7 80.8c-7.5 50.7-37 94.6-52.4 142.9a164.9 164.9 0 0 0-7 72.7c3.8 28.1 17.4 53.9 30.8 78.5 26.3 48.4 60.6 92 85.9 141a331.1 331.1 0 0 1 23.4 58.7c-51.2 33.8-115.4 54.7-169.4 71zm658-583.7a193.2 193.2 0 0 1-4.8-45.3c0-14 .4-28.2-3.2-41.9-6.2-23-28.7-34.3-40.2-53.7-8-13.4-8-30.6-8.8-45.7-.8-16.5-1.2-33-3.6-49.3-4.6-32.2-23.6-54.9-40.5-81.6-26.4-41.8-50.9-84.4-87.9-118-3-2.8-8-1.2-8.2 3.2-1 28.5 10.2 53.3 24 77.6 16.3 28.7 30.2 55.2 35.3 88.3 10.4 68.5-9 140-43.2 199a329.2 329.2 0 0 1-68.2 79.7c-22.7 20.2-50.6 44.6-80.6 52.9-33.3 9.2-18.3-33.2-12.4-49a724.3 724.3 0 0 0 28-97.2c7.8-35 17-69.4 20.2-105.2 2.4-27.4 3.3-71.4-29.2-81.8-2.7-.8-5 1-5.8 3.3-6.7 17.5-14.1 34.7-19.9 52.6l-.4 1.2c-10.2 20-18.7 40.8-27.3 61.5-21 50.3-53.1 94.6-70.7 146.6a315.6 315.6 0 0 0-16.2 96.6c-.5 30.8 6.8 61 16.5 90 20.2 60.1 52.2 118 49.5 183.3-2.7 63-36.7 107.5-83.2 140.3-6.3-21-14.4-41.5-24.4-60.9-25.4-49-59.8-92.7-86.1-141.2-14.8-27.1-27.8-55-29.3-86.3-1.2-25.6 6.1-50.8 15.3-74.5 18.2-47.2 44.7-91.2 47.3-143 2.7-51.7-25.5-92-56.5-130.4-33.9-41.9-66.5-85.5-56.3-142.5 9.5-53.4 58.1-84.4 105.8-100.7 24.9-8.5 50.4-11.9 76-17.2 27-5.7 52-19.5 73.2-36.9 43-35 68.3-88.5 69.7-143.7 1.3-56.7-21-112.5-48-161.3-28.2-51-65-97.6-106-138.6-52-51.7-110.2-97.8-166.3-144.7-60.2-50.2-121-99.7-181.1-149.9-27.5-22.9-54.4-46.2-83.7-66.8A664 664 0 0 0 501 43.2C447 17 387.8-4.7 327 1.4c-50.2 5-106.1 32.5-116 86.6-10.5 56.3 33.3 106.7 41.4 160.4 5.7 37.3-1.5 75.8-20.8 108.3-15.9 26.8-30.3 48.7-26.2 81.1 4.2 34.6 21.7 66.2 34.2 98.2 12 30.4 4.8 60.8-8.3 89.5-11.8 25.7-26.7 49.6-35.6 76.5a85 85 0 0 0-3.3 36.4c1.4 14.5 5.5 32.2-6.2 43.5-20 19.3-59-10.4-75.3-22.4C87.2 742.3 61.5 727 32 738.4.3 750.7-4.5 790.7 3.6 819.5c11.7 41.7 45 75.3 75.5 104.2 32.1 30.3 66.3 62.8 111.2 71.4 13 2.4 26.4 1.3 35.6-9 7.4-8.2 10.8-19.9 14.4-30.7 21.8 23 38.7 50.3 61.3 72.6a172.5 172.5 0 0 0 72.7 43.6c55.6 16.3 119.2.2 174.3-10.5a1268.8 1268.8 0 0 0 159-43.7 314.9 314.9 0 0 0-92 127.1 333.7 333.7 0 0 0-21 92.4c-3.5 37-3.4 74.2-11.7 110.6-15.7 68.3-71.5 105.2-119.2 150.6-8.2 7.7-16.8 18.9-17.5 30.6-.9 13.5 6.3 23.4 15.5 32.5 8.6 8.5 19 17.4 30.5 22 4.8 1.8 10 2.1 14.1 5.6 5 4.3 6.3 12.3 6.9 18.5 1.1 12.5-1 37.4-13.6 43.3-14.2 6.7-8.4 22.8-4.7 34.4 6.4 19.4 21 25.3 37.3 28.7-5.2 2.2-10 5.5-14.2 10.3-12 14-18 38.3-5.7 53.6 6.7 8.3 17.5 12.6 25 20.3 11.1 11.5 11 31.5 10.4 46.4-1 24.4-9.7 48.7-4 73.1 5.7 25.2 31.7 36.5 54.1 42.8 31.5 8.8 65.3 6 97.2 1 34.5-5.3 69-13.4 103.1-21 33.3-7.5 66.2-16.5 98.6-27.2 47.1-15.4 98.9-34.3 142.3-62.2 21.5 81.5 14.7 173-21.4 247.7a220.3 220.3 0 0 1-75.2 88.4c-37.7 25.1-83.1 34.4-128 33.5-6.3-.2-5.9 9.3.3 9.4 50.6 1 100.5-10.9 141.9-41 36.8-26.9 62.4-65.6 79.1-107.5 29.5-73.6 32.4-158.7 11.3-235.9 46.7-32 82.2-75.5 89-138 6.9-63.3-20.8-121.5-42.4-179.3-11.3-30.2-20.6-61.3-22.4-93.7a292 292 0 0 1 14.5-102.2c16-51.1 48.1-93.8 68.8-142.8 4.6-11 9.2-22.1 14-33.1.2 3.9.8 7.7 2 11.4.9 2.7 4.4 4.7 7 3 15.5-10 31.2-20 40.1-36.7 2-3.8 3.5-7.9 4.6-12 .2 18.8-2.7 37.9-6 56.4-8 45.4-19 91.9-33 135.7-5 15.7-11.6 31-16.4 46.7a51.5 51.5 0 0 0-1.4 29.4c5 16.5 24.1 15.6 37.3 11.3 27.2-8.7 52-30.1 73.6-48.2 25.6-21.5 49-46.1 67.8-73.9a324.9 324.9 0 0 0 54.4-201 212.4 212.4 0 0 0-28-90.8c-14.4-25.7-30.2-50.4-32.7-79.8 22.1 22 40 47.3 56.6 73.7 8.6 13.7 16.9 27.5 25.6 41.1 9.6 15.2 21.8 29.3 28.6 46 12 30 8 64.3 11.6 95.7 3 25.6 16.9 39.4 33.8 57 22 23 15.3 54.3 16.9 83.2.8 14.5 5.4 28.8 8.3 43a172 172 0 0 1 1.3 61.2c-5.4 34.5-18.9 67-31.1 99.5-12 32-18.9 65.2-30 97.5a348.4 348.4 0 0 1-45 85.4c-19.6 28-44.4 52.3-61.5 82-16.6 29-17.2 65.7-42.5 89.3a238 238 0 0 0-30.7 33.1 992.6 992.6 0 0 0-32.9 48c-40.3 62-75.4 127.3-119.3 187a6747.4 6747.4 0 0 1-55.4 74c-140.8 186.2-288.4 369.3-452.5 535.6-21.4 21.7-43.2 43-65.4 63.9-4.5 4.2 2.5 11 6.9 6.8 175.7-165 329.2-354.1 476.2-544.7 54.1-70.2 108.8-140.5 155.3-216 19.4-31.4 38-63.2 57.8-94.3 19.8-31 39.5-61.8 67-86.5 24.2-22 26.7-55.4 40-83.7 14.5-31 40.6-55.7 60.7-83.1 18.2-24.8 34-51.6 45.4-80.2 12.4-31.3 18.4-64.3 29.5-96 11.6-32.7 25.4-64.5 33.6-98.4 8-33.8 6-65.5-1.7-99.2z"/><path d="M707.6 1412.4c-5.5 2-11.2 3.7-16.8 5.7 1.7-3.6 2.9-7.3 3-11.1l1 .2c6.3 1.5 12.8 2.3 19.5 2.5l-6.7 2.7zm-28.8-11.7c1.3.9 2.7 1.6 4.2 2.3-6.3 3.8-13 7-20 9.5 4.5-4 9.1-7.8 14.6-10.8l1.2-1zm60.9 7.7h.9l-.9.5v-.5zm37.2-16.3c-23.8 4.8-48 9.5-72.4 7.2-12-1.1-25.4-5.3-29-18-2.6-9 1.1-19.3 3.3-27.9a67.3 67.3 0 0 0 2.2-27.6c-1-6-10.3-3.9-9.3 2.3 3.2 20-11.7 39.2-4.3 59 1 2.6 2.3 4.9 4 6.9-15.4 7.3-34 13-50.8 8.9-6.1-1.5-8.3 7.6-2.3 9 10.3 2.6 21 2 31.3-.2-2.9 2.7-5.8 5.3-8.8 7.8-4 3.2.6 9 4.8 8 12.3-2.7 24.7-6.8 36-12.7-2 4-4.8 8-7.2 11.2-3 4 2.9 8.5 6.6 6.5 8.5-4.3 18-7 27-10.1 3.1-1.1 7.7-3 12.2-4.9l-2.2 4.4c-2 4.6-2.7 9.5-1.6 14.4 1 4 6.9 5 8.9 1.3 12.3-22.5 33.2-27.5 55.3-36.8 5.4-2.2 1.2-9.7-3.7-8.7zm-9.3-164.6c-15.8 0-31.7 3.4-47 7.6-14.7 4.1-27.6 11-40.3 19.4-12 7.9-13-16.7-13.7-24 3.6-17.9 53.1-17.9 65.7-18 25-.3 56 1.1 77.3 16-14 0-28-1.1-42-1zm-44.3-24.2c-17 .5-62 2-66 24.5l-.2 1c0 .4-.2.8-.1 1.2 1.5 17.8 7.3 46.5 31 31 18.2-12 37.7-18.2 59.1-22 24.8-4.6 50 .2 75-1.3 4.1-.2 6.2-4.8 3.2-8-24.7-26.3-68.3-27.6-102-26.5zm-200-697.9c-7.4 1.5-14.9 2.3-22.3 2.3a39.3 39.3 0 0 0 2.4-4.4c.5.1.9.3 1.4.2 6.3-.2 12.4.7 18.4 2zm-36.7 22.4c-2.7.5-6 .9-9.4 1.3a111 111 0 0 0 16.4-12.5c2.1 3.1 5.1 5.8 8.5 8l-15.5 3.2zm-33.4 13.8 1.5-.7.1.3.4.4h-2zm30.3-29c-19.1 16.8-45.7 25.3-69.2 33.5-6 2-3.3 10 2.6 9.1 23.5-3.2 43.4-9.3 65.2 3.5 3.5 2 8.2-1 7-5.2a22.8 22.8 0 0 0-14.4-14.4c4.5-.6 9-1 12.2-1.7 10-2 20.5-4.9 30.7-5.5 4.3-.3 7-6.8 2.2-8.8-3.8-1.6-8.5-3.5-12.4-6.1 13-.7 26-3.5 38.1-7.5 4.2-1.4 5-8.4-.2-9.2-4-.6-7.8-1.4-11.6-2.2a68.7 68.7 0 0 0 27.4-15.7c4.3-4.3-2.7-11.1-7-6.9-12.3 12.1-30.9 16.9-47.8 18.4.4-3 .3-5.9-.4-8.9-4.7-20.1-26.4-28.9-33.6-47.4-2.2-5.6-11.6-3.6-9.3 2.2 6.5 16.6 22.4 25.5 31.1 40.5 7.3 12.4-1.4 24.3-10.6 32.4zm-128-140.2a213 213 0 0 1 34.5-17.6c7.6-3.2 30-13.2 36.6-4.5 3.1 6.6 10.4 18.4 7 26-2.3 4.8-18.7 1.7-22.7 1.8-9 .1-18 1.9-26.7 3.9-16.6 3.8-33 10.3-47.7 18.7-11.5 6.6-22.1 14.3-33.3 21 10-21.7 32.6-36.5 52.3-49.3zm-58.6 64c18-9.2 33.8-21.7 51.5-31.3a148.1 148.1 0 0 1 71.4-17.5c10.3.2 22.5.6 24-12.5 1-9.5-4-19.1-8-27.6l-1-1.8c-.4-1-1-1.5-1.8-1.9-16.2-16.4-52.3 3.8-68.4 12.1-29.8 15.4-67 40.2-74.8 75-1 4.1 3.5 7.4 7.1 5.5z"/></g></svg>