<svg xmlns="http://www.w3.org/2000/svg" viewBox="0 0 120 47"><path d="M94.8 19.4 90 23.3a.2.2 0 0 1-.2 0l-.4-.3-7.4 6.4a.2.2 0 0 1-.3 0l-3-3.1a.2.2 0 0 1-.1-.1.2.2 0 0 1 0-.2l.6-.5-.7.5a.2.2 0 0 1-.2 0l-3-3a.2.2 0 0 1 0-.1.2.2 0 0 1 0-.2l3.4-2.7a.2.2 0 0 1 .2 0l1.2 1-1-1.1a.2.2 0 0 1 0-.3l3.3-2.8a.2.2 0 0 1 .2 0l3.1 3 .3-.3a.2.2 0 0 1 .3 0l3.1 3 4.5-4-6.6-6.2a.2.2 0 0 1-.1-.1l-.2-1.2a.2.2 0 0 1 .1-.1l.9-.7-1-.9-15.4 1.4c.4.7 1.4 2.7.7 3a.4.4 0 0 1-.2 0c-.4 0-.7-.6-.8-.9l-1-1.7a4.3 4.3 0 0 0-.4-.3c-.4.3-.8.7-1 1.3l-1.3 5.7a.2.2 0 0 1-.1.1.2.2 0 0 1-.2 0l-1-1c-.2-.2-.6-.5-.8-.3l-2.7 2.2.2.2 3.6 3.7v.2l-.8 4.8c-.1.6.5.7.7.5l1.6-1.4c.7-.6.7-.3 1.3.3l11.7 11.7c.6.6 1.3.6 2 0l16-14.1a.2.2 0 0 1 .3.2 5.2 5.2 0 0 1-1.6 2.4L82.7 40.8c-.6.5-1.5.6-2 0L69.1 29.7c-.4-.3-1.1-.8-1.6-.4l-1 .9c-1 .9-2-.5-1.8-1.6l.8-4.1-3.4-3.4a.2.2 0 0 1 0-.2l.3-1.9a1.8 1.8 0 0 0-.5-.2c-.1 1.6-1 3.2-2 4.3a9 9 0 0 1-7.2 3.4c-.6 0-.9-1.4-1.3-1.6-.4-.4-3.1-2.2-3.6-2.4-2 3.4-3.8 7-5.5 10.4a341.6 341.6 0 0 0-3.3 6.8l-2.3 5c-.5 1.2 2.3 1.5 2.5 1l11.2-20.8a.2.2 0 0 1 .2 0s.1 0 0 .2c.2.4 1.6 1.6 1.4 2.2-.2.8-.4 2.2-1 2.9-.4.6-1-.1-1.4 0-.3 0-.6.8-.7 1-.4.4-1.7.6-1.8 1-.2.2-.7.9-.6 1.2 0 .6.6 1.1.3 1.8-.1.4-.5.7-.6 1-.1.3 0 .7-.2 1-.4.6-1 .3-1.5.9-.2.3-.5.8-.5 1.1 0 .4.2.7.1 1.2s-1 .3-1.2.5l-.5 1c0 .5.5 1.2.3 1.5-.2.3-1.1.3-1.3.5l-.5 1c-.2.3.7 1.4 0 1.5-.5 0-.8.1-1.1.3a1.2 1.2 0 0 1-.5.2l-2 .2c-.4 0-.8-.2-1.1-.4-1.1-1-1.8-3.5-1.1-4.8l9-17.3c.3-.7.6-2.5.2-3.3-2.3-3.8-2.3-7.5.3-11a7.8 7.8 0 0 1 5.8-3c1.4 0 2.9.2 4.2.6a10 10 0 0 1 3.8 2.6c.7.7 1.1 1.4 1.7 2.1a.2.2 0 0 1 0 .2.2.2 0 0 1 0 .1 9 9 0 0 1-3.8 0 .2.2 0 0 1-.1-.2c-.2-.9-1-1.8-2-2-1 0-2 .3-2.5 1.4-.3.8 0 1.7.6 2.4 1 1 2 1.2 3.3.6a.2.2 0 0 1 .1 0 12.5 12.5 0 0 0 12.7-3.5 6 6 0 0 0 .8-1.3 13 13 0 0 0-.3-.3c-.8 1.2-2 2.2-3 3a14.3 14.3 0 0 1-10 1.6c-1-.2-2-.6-2.9-1l-1-.7c-.7-.6 1-1.7 1.4-1.3l.2.1c3.2 2.3 7.3 2 10.6.2A8 8 0 0 0 67.5 9 2 2 0 0 0 67 9c-.2 0-.4.6-.3.8a.2.2 0 0 1 0 .1c0 .2-.5.7-.7.7a.2.2 0 0 1-.2-.1c-.4-1 0-2.5 1.1-2.7.3 0 .7 0 1 .2.3-.7.3-1.6.1-2.5a2.4 2.4 0 0 0-.3-.7c-2-1.7-5.5-2.6-8-2.2a12 12 0 0 0-4.5 1.7l-1.4 1c-.2 0-.7.6-.8.3-.4-.5.6-1.4 1-1.7a11.2 11.2 0 0 1 8.6-2.5c1.6.3 3.2.9 4.5 2l1 1.2a6.3 6.3 0 0 1 1.8 2.7 4.8 4.8 0 0 0 0-1.6A4.8 4.8 0 0 0 68 2.5 12.4 12.4 0 0 0 59.7.4c-3.3.3-6.5 1.7-8.5 4.5v.2L53 6c.2.1 2 1 1.9 1.5a.2.2 0 0 1-.2.1c-.6 0-3-1.2-3.6-2.1a8.6 8.6 0 0 0-11.6 6.3c-.3 1-.2 2-.4 3 0 .7-.6 2.2-1.2 2.6L20.4 30c-.2.2-.3 1.3-.4 2.1l.9-.2 19.8-14.2c1.3-1 3 4.7 2.8 5-.2.5-1.3 2-1.7 2.4-.3.2-.9 0-1.2-.3l-.5-.4c-.3 0-.7.7-.9.8-.2.2-1.6-.1-2-.1l-1.3.8c-.2.5-.2 1.7-.7 2l-1 .8-.7.5c-.5.4-1.7.1-2 .3l-.7.6c-.2.2-.2 1.1-.5 1.2-.4.2-1.3-.1-1.5 0l-.9 1s0 .6-.3.9c-.3.3-1.3 0-1.6.2l-.7.5c-.2.4 0 1.2-.4 1.3-.9.2-5-.9-5.3-1.8v-.9c-1.9.2-4.8 0-5.8-.1-4.2-.3-8.4-.5-12.6 0a.2.2 0 0 1 0-.4c4.2-.4 8.4-.2 12.6 0 1 0 4 .3 5.9.2 0-1 .2-2.3.4-2.4L37.7 17c.5-.3 1-1.7 1.1-2.3.1-1 0-2 .3-3A9 9 0 0 1 50.8 5a.4.4 0 0 1 .1-.3C53 1.8 56.2.3 59.7 0c2.8-.2 6.3.4 8.6 2.2 1 .8 1.8 2 2 3.3a5.3 5.3 0 0 1-.3 2.4v1.3c.6.5 1.3 1 1.1 1.3a.2.2 0 0 1-.2 0 2.4 2.4 0 0 0-.5.2l.2.2c.5.5.8 1.1 1.1 1.8l.5.7c.2-.1-.2-1.2-.3-1.4a17 17 0 0 0-.4-1c0-.1-.4-.6 0-.7L87 9a.2.2 0 0 1 .1 0l1.3 1.1a.2.2 0 0 1 0 .2.2.2 0 0 1 0 .1l-1 .8.1 1 6.8 6.3a.2.2 0 0 1 0 .3l-4.6 4 .2.2 4.7-4a.2.2 0 0 1 .2.1l4.5 4.4.2.6.3.3c.9.9 3 .6 4.2.4l6.7-1.2c2.7-.4 5.6-.5 8.1.6v.3a.2.2 0 0 1-.1 0c-2.4-1-5.4-.9-7.9-.5-2.3.3-4.5.8-6.8 1.2-1.3.2-3.5.4-4.5-.6a1.9 1.9 0 0 1-.3-.3c0-.2 0-.3-.2-.5l-4.3-4.3zm-5.5 3.3-3-2.8-.2.1 2.7 2.6v.1a.2.2 0 0 1 0 .2l-3.6 3a.2.2 0 0 1-.2 0l-2.9-2.8a.2.2 0 0 1 0-.1.2.2 0 0 1 0-.1l3.4-3-2.9-2.7-3 2.6 2.3 2.7v.2a.2.2 0 0 1-.2 0l-2.8-2.4-3 2.6 2.6 2.7 3.2-2.4a.2.2 0 0 1 .2 0 .2.2 0 0 1 0 .3L79 26.2 82 29l7.3-6.4zm-3.5-2.5L82.5 23l2.6 2.6 3.3-2.9-2.6-2.5zm-16-9.6a8.1 8.1 0 0 0-.2-.2l-.2.4.3-.2zm-1-.9a8.5 8.5 0 0 0-1-.5c-.7 1.2-2 2.2-3.3 3-3.5 1.7-7.7 2-11-.3a2.1 2.1 0 0 1-.2-.1c-.2-.2-1.3.5-1 .7.3.3.6.4 1 .6.9.4 1.8.9 2.8 1 3 .7 7 .2 9.7-1.6 1-.7 2.1-1.6 3-2.8zm-.5-1.6.9.5.1.1.4-.8c-.1-.9-.6-1.7-1.3-2.5a5 5 0 0 1-.1 2.7zm1.3.8h.1a3.2 3.2 0 0 0 0-.2 6.2 6.2 0 0 1 0 .2zm-6.8 10.3-.2 1.6 3.3 3.4v.2l-.7 4.2c-.1.7.4 1.9 1.1 1.2l1-1c.7-.5 1.6 0 2.1.6L81 40.6c.4.5 1.1.3 1.6 0L97.7 27a4.9 4.9 0 0 0 1.2-1.7L83.4 39.1c-.8.7-1.7.7-2.5 0L69.3 27.2l-.6-.5-.2.3-1.6 1.4c-.5.4-1.5.1-1.4-.8l.8-4.8-3.5-3.7zm-1.2-.6a2.4 2.4 0 0 1-.3-.2c-1.6-.8-.4-3.5.4-1.7a4 4 0 0 1 .3 1.6l.7.3 2.7-2.3c.4-.3 1 0 1.2.3l.8.8 1.2-5.4.1-.2a12.8 12.8 0 0 1-13 3.6 3 3 0 0 1-3.5-.8c-.7-.7-1-1.8-.7-2.8.4-1.1 1.8-1.6 3-1.5 1 .2 1.8 1.1 2.1 2.1.8.2 2.3.3 3.2.2l-1.5-2a9.6 9.6 0 0 0-7.7-3c-2.2.2-4.3 1-5.6 2.8-2.6 3.4-2.5 6.9-.3 10.6.5 1 .2 2.8-.3 3.7l-9 17.3c-.5 1.2.1 3.5 1.1 4.3.2.2.7.3 1 .3l1.9-.1a.8.8 0 0 0 .3-.2c.4-.2.7-.3 1.2-.3 0-.3-.4-1-.2-1.4l.5-1c.2-.3 1-.3 1.3-.5l-.3-1.2c0-.4.3-.9.5-1.2.2-.5 1.1-.3 1.2-.5l-.2-1.1c0-.4.3-1 .6-1.4.5-.6 1.2-.3 1.5-.8l.1-.9.7-1c.2-.4-.3-1-.4-1.5l-6.5 12.2c-.5 1-3.9.4-3.2-1.2l2.2-5a339.4 339.4 0 0 1 3.3-6.8c1.8-3.5 3.6-7.2 5.6-10.5.2-.3.9.1 1 .2l1.6 1 1.5 1c.4.3.8 1.7 1.1 1.7 2.7 0 5.3-1.3 7-3.3.9-1.1 1.7-2.7 1.8-4.2zm7.9-8.7a4.2 4.2 0 0 0 .1-.5 7.7 7.7 0 0 0-.1-.2 7.8 7.8 0 0 1-.3.5l.3.2zm-1.3-1.5a5.1 5.1 0 0 1-.2.5l1 .5.2-.4-1-.6zM52 6l2.2 1.3c-.5-.4-1.4-1-2.2-1.3zM20 32.5v.8C20 34 24 35 24.8 35c0-.1 0-.7.2-1.1 0-.3.6-.6.9-.7.3-.2 1.3 0 1.5-.2.2-.1 0-.6.3-.9l.9-.9c.3-.4 1.2 0 1.5 0 .2-.3.2-1.1.5-1.3l.7-.6c.4-.2 1.6 0 2-.3l.7-.5 1-.8c.4-.2.4-1.8.6-2l1.5-.9c.2 0 1.6.3 1.9.2.3-.2.6-.8 1.1-.8.4 0 .5.3.7.4.1.1.6.4.8.3.4-.3 1.4-1.7 1.6-2.2 0-.6-1.5-5.2-2.3-4.6L21 32.2l-1.1.3zM67.7 8.7l.1-.4c-.3-.2-.6-.3-.8-.2-.8.1-1.1 1.2-1 2l.4-.4c-.2-.5.1-1.3.7-1.2l.6.2zm-.7-5-.2-.1a8 8 0 0 0-4.3-2 10.9 10.9 0 0 0-8.3 2.5l-1 1 .5-.3 1.5-1c1.3-.8 2.9-1.5 4.5-1.7A12 12 0 0 1 67 3.7zm3 5.9a4.8 4.8 0 0 1-.2.5l.3.3.6-.2a5.5 5.5 0 0 0-.8-.6zM47.2 31.5c.5-.2 1.2-.4 1.4-.6.3-.3.4-1 .9-1.1.5-.2 1 .4 1.3 0 .4-.6.7-2 1-2.7 0-.3-1-1.2-1.3-1.8l-3.3 6.2zm14.3-13.3a3.6 3.6 0 0 0-.3-1.4c-.5-1.1-.8.8.2 1.3l.1.1z" fill-rule="evenodd"/></svg>