<svg xmlns="http://www.w3.org/2000/svg" viewBox="0 0 257 464"><path d="M.2 460c10.6 1 21.5 2 32.4 1.7a118 118 0 0 0 32.6-5c20.8-6.4 49-5.8 74.1-5.3 8.4.1 16.5.3 23.9.2 11-.2 8.4-13.3 0-13.7-18.7-1-37.1-.2-56 .5-10.7.4-21.5.9-32.6 1-6.4 0-7.8-5.7-2.7-9.2 4.1-2.8 8.6-4 13.1-5.3 7.4-2.1 14.9-4.2 20.1-13.7a84.1 84.1 0 0 1 37-33l4.7-2.7c5.2-3 5-5.5 4.6-11.9v-.1c-1-14.4 8.6-17.2 17.5-19.8l.8-.2c.8-5 1.2-10.6-2.3-22.5-4.6-15.7-7.2-32.9-8.6-49.9-1.4-16.9-1.6-33.7-1.4-48.7a34 34 0 0 0-.4-6.8c-.2-1.1-.5-1.2-1-.1-.7 1.3-1.4 3.5-2 6.2-.6 2.7-1 6.1-1.2 9.9-.4 12-.3 29-.2 46.3.2 23.2.3 46.8-1 59.4-1 11.2-5.2 13.4-9.8 15.8-3.9 2-8.2 4.3-10.5 14.6-2.1 9.4-7.5 11-12.2 12.4l-.9.2a36.3 36.3 0 0 0-13.1 6.8 72.1 72.1 0 0 0-10.3 11.2c-6 7.5-12.4 6.2-13.5-3.7-1.4-12.1 2-27.5 7.4-44a7.3 7.3 0 0 1-1.5-3.2c-1-4-.3-10.7 2.1-19.1 3-10.3 7-21.6 11.6-32.7 5-12.3 10.5-24.4 15.8-35.1 3.6-7 6.1-11.3 7.8-13.3 2.6-3 4.6-1.8 4.4 1.9a79 79 0 0 1-4 16.1c-3.6 11-9.2 24.1-15.2 38.2a669.9 669.9 0 0 0-18.3 46.3c.6.2 1.5 0 2.5-.4 3.2-1.4 7.6-5.7 13.3-13.6 3-4.3 6.4-8.4 9.7-12.5 11.5-14.4 23-28.5 21.5-47.2-2.5-32.5-1.4-37.5 3.7-60.3 1.3-6 2.9-13.1 4.7-22.3 1-4.9 1-8.3.1-10.1-.2-.6-.5-1-.9-1.1-.3-.2-.7-.1-1.2.1-1.6.8-3.5 3-5.4 6.9l-7.5 14.5c-17 32.5-31.1 59.9-41.4 99.5-1.5 6.1-5.9 6.7-9.3 1.9a21.1 21.1 0 0 1-2.4-17.1c5.4-18.1 1.8-23.2-1.3-27.6-3.2-4.6-5.9-8.4.1-22 6-13.3 6-20.7 6.1-27.3 0-2 0-4 .2-6.1l-3 .2c-1.6-.1-3-.5-4-1.3s-1.7-2-2-3.4c-.1-1.7.4-3.7 1.6-6 3.4-6.3-.4-11-5-16.4-5-6.3-11-13.5-9.2-25.2l.2-1.1c1-6.4 2.6-17 6.7-20.9 4-3.7 1.8-14-.3-24.4-1-5-2-10-2.4-14.4a82 82 0 0 1-.2-4.8 41 41 0 0 0-3-18.3 30.8 30.8 0 0 1-4.1-14.8c0-2.2.4-4.3 1.3-5.9a6.3 6.3 0 0 1 3.8-3.1 9.2 9.2 0 0 1-3.7-7.5H60c-7.7.1-8.3-9.5-2.3-10.7 1.5-.3 3.4-.5 5.4-.6.3-1.3.4-2.7.3-4.2a15.8 15.8 0 0 0-1.4-5.1c-1.4-3-2-6-1.7-8.5.2-1.3.6-2.5 1.3-3.5a6.6 6.6 0 0 1 2.8-2.5c1.4-.6 3.2-.9 5.4-.6 2.2.2 3-.1 4.6-.9L76 .4c4.2-1.7 7.2 2 5 5.3-1.2 1.6-1 3.2-1 4.8.3 2.4.5 4.8-2.5 7.4-2.6 2.3-3.5 4.3-3.6 6 0 .9 0 1.7.3 2.5 2.7 0 5 .2 6.4.3h1.2c2.4.2 4 1.6 4.8 3.3.4.9.6 1.8.6 2.7a6.9 6.9 0 0 1-.4 2.6 5 5 0 0 1-4.3 3.4c-2.1.2-3 2.5-4 4.6-1 2.6-2 5.1-4.5 5.4.2.6.3 1.2.3 1.9a9.7 9.7 0 0 1 3 .9 10.2 10.2 0 0 1 3.7 3.3c1.2 1.6 2 3.7 2 6.2.2 3.2-.9 5.3-2.4 6.3a4.2 4.2 0 0 1-2.5.7c-.8 0-1.7-.3-2.5-.8-2.1-1.2-4-4-4.2-8.2-.1-1.8.1-3.4.4-5l.1-1.2a5.1 5.1 0 0 0-2 .9 5.6 5.6 0 0 0-1.4 1.4c-1.1 1.6-1.3 3.7-.9 5.9A18.4 18.4 0 0 0 75 72.2h.1c4.2 2.9 9.8 6.7 11.4 22.7.4 4.8 1.2 9.8 2 14.6 3 21 6 40-13.5 48.2-1.2.5-2 1.4-2.2 2.3a2.4 2.4 0 0 0 0 1.4c.1.5.4.9.9 1.3 1.1 1 3.3 1.5 6.8 1 3.6-.4 6.2-2.4 8.2-4.9 2-2.5 3.5-5.5 4.4-7.7 2-4.5 5.3-6.4 8.6-6.4 2 0 3.9.7 5.6 1.9 1.7 1.2 3 2.8 4 4.9 2 4.3 1.6 10-3.3 15.8-15.2 17.8-19.8 27.1-21.2 34.6 1.6-.5 3.5-1.4 5.4-2.5 3.4-1.9 7.9-5.7 12.3-10.1 6-5.8 11.7-12.4 15-16.7 2.9-3.8 7.1-2.7 8 1.8.6 2.3.2 5.6-1.8 9.4a172 172 0 0 1-19.4 26.8C97.1 221.8 88.1 232.8 85 243c-1.1 3.3-1.2 6-.6 7.4.1.4.2.6.4.7h.3c.8-.4 1.8-1.7 2.9-4.1 5.2-11.4 13-20.2 20.7-29 14.7-16.7 30-34 29.7-70.6a21.3 21.3 0 0 1-2.3 3.9 16 16 0 0 1-6.7 5.4c-2.7 1-5.5 1-8.3-.2a12.1 12.1 0 0 1-2.2-1.4c-1-.7-2-1.7-3-3-2-2.6-3.8-6.1-4.6-9.6-1-3.8-1-8.5 2.4-11.1 1.1-.9 2.3-1.5 3.5-2.2l1.3-.8a5.9 5.9 0 0 1-1-3.4 3 3 0 1 1 6.2.2c0 1-.6 2.1-1.7 3.3a6.7 6.7 0 0 1-.2.3c2 1.3 4.5 1.5 7.2 1.6 3.6.2 7.2.4 9.4 3.2a43 43 0 0 0-.3-3.3c-.3-2.3-1.1-4.3-2.3-5.9-1.5-2-3.7-3.5-6-4.4a17.1 17.1 0 0 0-15.8 2.4 24 24 0 0 1-8.2 4.5A7.2 7.2 0 0 1 98 131c-5.5-.8-5.2-7 .7-6.4 2.2.2 3.9.3 5.5 0a9 9 0 0 0 .3-3.2 8.5 8.5 0 0 0-.6-2.7h-2.5c-2.2-.3-3.9-.8-5-1.5-4.5-2.6-1.8-7 2.7-5.6a13 13 0 0 1 6 4.5h.2c1.6-.6 3.1-1.5 4.2-2.7a8 8 0 0 0 1.8-3.2l-3.1-2.5c-1.7-1.5-2.7-3-3.3-4.4-.7-1.7-1-4.1.9-5.3 1.8-1.2 4 .3 5.1 1.8a15 15 0 0 1 2.5 4.8c.5 1.6.6 3 .5 4.4l1.7.7c1.6.5 3 .5 4.4.1a7.8 7.8 0 0 0 3.6-2.2l.8-1.1a12 12 0 0 1-.7-1.2 13.7 13.7 0 0 1-.8-2.1c-1-3-1-5.4-.5-7.1 1.1-4.3 5.6-4.3 6.6.1.4 1.7.4 4-.5 7a16.7 16.7 0 0 1-1.3 3.1 8.3 8.3 0 0 0 3.7 2.3c1.8.6 3.7.6 5.7.2a13.4 13.4 0 0 1 .7-2.8 13 13 0 0 1 4.5-6.5c4-2.7 7.8 1.1 5.3 5.4-.9 1.5-2.5 3-5.2 4.5l-3 1.2h-.1v.5a5 5 0 0 0 1.3 2.7c.6.7 1.5 1.2 2.6 1.6 1 .4 2.3.7 3.7.7l.8-1.5c2.5-3.4 5-5 7.1-5.5 4.6-1 6.8 3.4 2.8 6.3a17.8 17.8 0 0 1-9.1 2.9 5 5 0 0 0 .2 2.7c.4 1 1 2 2.1 2.7l.2.1a23.6 23.6 0 0 1 2.2-1c3.8-1.4 6.9-1.7 9-1.3 5.5.9 5.5 6-.2 6.8a22 22 0 0 1-9-1 12.1 12.1 0 0 1-2-.9c-1.4.9-2.4 1.8-3.2 2.8a8 8 0 0 0-1.6 5.8c.5 5.3.4 10 .2 14.2-.3 9.3-.5 16.3 6.9 21.6 3.7 2.7 6.4 5 8.7 7.6 2.2 2.7 3.9 5.8 5.4 10.3l.6 1.8c2.7 7.8 5.5 16 9.3 18.7 2.8 2 6.4.7 11.4-6.3 2.8-4 6.2-4.8 10-1.3 2.2 2.1 4.9 4.2 7.3 6.2l4.3 3.4c4 3.4 4.2 7 1 11-1.4 1.7-3 3.7-2 7 2.7 8.1-1.9 20.3-11.6 20.3-4.6 0-5.4 8-6.1 15.3-.5 4.5-.9 8.7-2.2 11.4-1.3 2.6-3.3 3.7-6.6 2.1-1.5-.7-2.4-.3-3 .9-3.1 6.3.8 28.4 3.3 42l1.5 9c1.3 9.9-5 12.7-12.2 15-1 5.8-1.8 11.3 3.8 26.6 4.3 11.7 3.8 25.7 3.3 39-.4 9.3-.7 18.3.7 25.5 2.5 12.7 10.7 20.2 34.6 15.4 16-3.1 28.4-4.8 42.8 5l-1.3 1.8c-13.7-9.3-25.8-7.5-41-4.5-25.8 5-34.6-3.3-37.3-17.2-1.5-7.5-1.2-16.6-.8-26.1.5-13 1-26.8-3.1-38-5.5-15-5-21-4.2-26.9-8 2.4-16.4 5-15.6 17.5.5 7.4.6 10.4-5.8 14l-4.7 2.7a82.1 82.1 0 0 0-36.1 32.2c-5.7 10.3-13.6 12.5-21.5 14.8a41.7 41.7 0 0 0-12.4 5c-3.3 2.2-2.8 5 1.4 5 11-.1 21.8-.5 32.5-1 19-.7 37.5-1.4 56.3-.5 11.3.6 13.7 18-.2 18.3l-24-.3c-25-.5-52.8-1-73.3 5.3-11 3.4-22.2 4.8-33.3 5-11 .3-22-.6-32.6-1.6l.2-2.3zm172-117.3c5.8-2 10.6-4.5 9.5-12.2-.2-1.9-.8-5-1.5-8.8-2.4-14-6.5-36.4-3-43.4 1.2-2.5 3-3.3 6-2 1.8 1 2.9.4 3.6-1a37 37 0 0 0 2-10.6c.8-8.4 1.7-17.4 8.3-17.4 8.1 0 11.7-10.6 9.5-17.3-1.5-4.5.5-7 2.3-9.2 2.5-3 2.4-5.1-.7-7.7a143.3 143.3 0 0 1-11.7-9.7c-2.7-2.5-4.6-2-6.6.9-6 8.4-10.6 9.6-14.5 6.8-4.4-3.1-7.3-11.7-10.1-19.8l-.6-1.7a29.3 29.3 0 0 0-13.4-16.9c-8.3-6-8-13.5-7.7-23.4.1-4.2.3-8.8-.2-14-.3-2.8.4-5.2 2-7.4.7-1 1.7-1.9 2.9-2.7a8 8 0 0 1-2.3-3.3 7.2 7.2 0 0 1-.4-3.5c-1.4 0-2.7-.3-3.8-.7a8.8 8.8 0 0 1-3.5-2.3c-1-1-1.6-2.4-1.8-4v-.2c-2.2.4-4.4.3-6.3-.3-1.6-.5-3.1-1.3-4.4-2.5l-.7.8a10 10 0 0 1-4.6 2.9 10 10 0 0 1-5.6-.1 13.2 13.2 0 0 1-1.6-.6 10.3 10.3 0 0 1-2.2 3.6 12 12 0 0 1-5.1 3.3 10.9 10.9 0 0 1 .6 5.8c1.5-.6 3.4-1.8 5.9-3.6a19.4 19.4 0 0 1 17.9-2.7 15 15 0 0 1 7.1 5.2c1.4 1.9 2.4 4.2 2.7 7a39.7 39.7 0 0 1 .1 10v.1c2.4 42.6-14 61.3-30 79.3-7.7 8.7-15.3 17.3-20.3 28.4-1.4 3-2.8 4.6-4 5.2-1 .4-1.7.3-2.4 0-.6-.4-1.1-1-1.4-1.8-.8-1.9-.7-5.1.5-9 3.3-10.5 12.5-21.7 21.8-33 7.2-8.9 14.6-17.8 19.1-26.5 1.7-3.2 2-6 1.7-7.8-.6-2.6-2.3-3.2-4.1-1-3.3 4.4-9.2 11.2-15.2 17a70.6 70.6 0 0 1-12.7 10.5 33.2 33.2 0 0 1-7 3c-.3 2.3-.3 4.5-.3 6.7-.1 6.9-.2 14.5-6.3 28.3-5.5 12.3-3.2 15.7-.4 19.7 3.4 4.8 7.3 10.4 1.7 29.5a18.7 18.7 0 0 0 2.1 15.2c2.3 3.3 4.2 3 5.3-1.1 10.2-40 24.5-67.4 41.5-100 2.5-4.9 5-9.9 7.5-14.5 2.2-4.3 4.4-6.9 6.3-7.9 1.2-.5 2.2-.6 3.2-.3a4 4 0 0 1 2.1 2.3c1 2.3 1.2 6.2 0 11.5-1.8 9.3-3.4 16.4-4.7 22.4-5 22.5-6.1 27.5-3.7 59.6 1.5 19.6-10.1 34.1-22 48.8-3.2 4-6.6 8.2-9.6 12.4a43.2 43.2 0 0 1-14.2 14.4c-1.6.7-3 .8-4.1.5-5.3 16-8.5 30.8-7.2 42.5.9 7.7 4.8 8.4 9.5 2.4 3.8-4.7 7-8.5 10.7-11.5 3.7-3 8-5.3 13.9-7.1l1-.3c4-1.2 8.7-2.6 10.5-10.7 2.6-11.3 7.3-13.8 11.7-16.1 4-2.1 7.6-4 8.6-14 1.3-12.6 1-36 1-59.2-.2-17.3-.3-34.4.2-46.4.1-4 .6-7.5 1.2-10.4.6-2.9 1.4-5.1 2.1-6.6 1.9-3.7 4.5-3.3 5.3.7.3 1.6.5 4 .5 7.2-.2 15 0 31.6 1.4 48.5s4 34 8.5 49.5a49.7 49.7 0 0 1 2.5 22.3zm-18.8-217.6h-.3c3.7 1.1 6.3 1.3 8 1 3-.4 3-1.8 0-2.3-1.7-.3-4.3 0-7.7 1.3zm1.1-13.6c-1.5.4-3.5 1.7-5.5 4.5 3.3-.5 5.4-1.4 6.6-2.2 2.1-1.6 1.3-3-1-2.3zm-15.1-4.6-.5 1.3a17.5 17.5 0 0 0 1.8-.8c2.2-1.1 3.6-2.3 4.3-3.4 1.5-2.4 0-4-2.4-2.3-1 .9-2.2 2.5-3.2 5.2zm-14.5-4.3.7 1.7a15.5 15.5 0 0 0 .6-1.7c.8-2.7.9-4.6.5-5.9-.5-2-1.7-1.9-2.3 0-.3 1.3-.3 3.2.5 5.9zm-15.3 3.6 2 1.6a9.3 9.3 0 0 0-.5-2.4c-.6-2-1.3-3.3-2-4.2-2-2.4-3.2-1-2.2 1.3.4 1 1.3 2.3 2.7 3.7zm-8 10.3h.7a10 10 0 0 0-4-2.6c-2-.7-2.7.4-.9 1.5.9.5 2.2 1 4.1 1.1zm-.1 11.8a5 5 0 0 0 1.4-1.1l-4.5-.3c-3-.3-2.7 1.6-.2 2a5 5 0 0 0 3.3-.6zm34.8 18c.9-2 1.5-4.2 1.8-6.3-.5-7-5-7.2-9.4-7.4-3.2-.2-6.5-.4-8.8-2.5l-1.7 1c-1 .6-2.2 1.2-3.2 2-2.6 2-2.3 5.9-1.6 8.8.8 3.1 2.4 6.4 4.2 8.8.8 1 1.7 2 2.5 2.5a9.8 9.8 0 0 0 1.9 1.1c2.1 1 4.4 1 6.4.1 2.2-.8 4.2-2.4 5.8-4.6a19 19 0 0 0 2.1-3.6zm-16-19.3c.7-.9 1-1.5 1-2s-.2-1-.7-1c-.6 0-1 .5-1 1s.2 1.2.6 2zM81 203c1 0 2-.1 3.2-.4 1.3-8 5.7-17.7 22-36.8 4.3-5 4.5-9.8 3-13.4-.8-1.7-2-3-3.3-4a7.5 7.5 0 0 0-4.3-1.4c-2.5 0-5 1.4-6.5 5-1 2.3-2.5 5.5-4.7 8.2a14.7 14.7 0 0 1-9.7 5.8c-4.2.5-7-.3-8.6-1.6a4.9 4.9 0 0 1-1.6-2.3 4.7 4.7 0 0 1 0-2.7 6 6 0 0 1 3.6-3.8c17.8-7.5 15-25.7 12-45.7-.8-4.9-1.5-9.8-2-14.8-1.5-14.9-6.6-18.4-10.3-21h-.1c-1.8-1.2-3.5-3-4.9-5-1.6-2.3-2.9-5-3.4-7.7a9.9 9.9 0 0 1 1.2-7.6 7.9 7.9 0 0 1 2-2c1-.7 2.2-1.1 3.4-1.3-.2-1.7-1.3-2.4-2.9-2.9a8 8 0 0 0-3.8-.3c-1.3.2-2.2 1-2.8 2.1-.7 1.3-1 3-1 4.9-.1 4.2 1.4 9.4 3.8 13.5a42.5 42.5 0 0 1 3.3 19.5l.1 4.6c.4 4.3 1.4 9.2 2.4 14.2 2.2 11 4.5 21.9-.3 26.5-3.5 3.4-5.1 13.5-6 19.5l-.2 1.1c-1.7 10.8 3.9 17.6 8.7 23.5 5 6 9.3 11.3 5.2 18.8-1 2-1.4 3.5-1.3 4.7.1.8.5 1.5 1 1.9a5 5 0 0 0 2.8.8zM75.3 45c.5-.7.9-1.6 1.2-2.5 1.2-2.8 2.4-5.8 5.9-6 1.2-.2 2-1 2.4-2a4.6 4.6 0 0 0 .2-1.8 4.4 4.4 0 0 0-.3-1.7c-.5-1-1.5-1.9-3-2a118 118 0 0 1-1.1 0l-5.3-.3c.2.7.3 1.3.3 2 0 1.1-.4 2.2-1.1 3-.7.8-1.7 1.5-2.9 2a28 28 0 0 1-8.5 1.8 7.8 7.8 0 0 0 4.5 7c1.2.6 2.4 1 3.7 1.4 1.7.7 2.8.9 4-.9zm-2.5-16.4h-8c-.6 2.1-1.3 4.4-1.6 6.6a25 25 0 0 0 7.5-1.6 6 6 0 0 0 2-1.4c.5-.4.7-1 .7-1.5s-.1-1-.4-1.5l-.2-.6zm-10.4.1-4.3.5c-3.3.7-3 6.3 1.8 6.2h1c.2-2.2.8-4.5 1.5-6.7zm3-2.4H72a8.5 8.5 0 0 1-.3-2.6c.2-2.2 1.3-4.7 4.4-7.5 2.1-1.8 2-3.6 1.8-5.5-.2-2-.3-4 1.3-6.3 1-1.6-.4-2.6-2.3-1.9a57 57 0 0 0-1.6.7c-2 1-3 1.4-5.8 1-1.7-.2-3 0-4.1.5-.8.4-1.5 1-2 1.6a6 6 0 0 0-.8 2.6c-.3 2.1.2 4.7 1.4 7.2a18 18 0 0 1 1.6 5.8c.2 1.6.1 3-.1 4.4zm8.9 26.5-.2 1.5c-.2 1.5-.4 3-.4 4.6.2 3.3 1.6 5.4 3.2 6.4.5.2 1 .4 1.4.4.4 0 .8 0 1.2-.3.9-.6 1.5-2 1.4-4.3 0-2-.7-3.7-1.6-5a8 8 0 0 0-3-2.6 7.5 7.5 0 0 0-2-.7zM89.4 347l.3.9c5-15 11.7-30.6 18-45.3 5.9-14 11.5-27.1 15-38a82.6 82.6 0 0 0 4-15.6c0-.4-.2-.6-.5-.1-1.6 1.8-4 6-7.4 12.7a483.9 483.9 0 0 0-15.8 34.9 355.7 355.7 0 0 0-11.5 32.5c-2.3 8-3 14.3-2.1 18z" fill="#000105" fill-rule="evenodd"/></svg>