<svg xmlns="http://www.w3.org/2000/svg" viewBox="0 0 2000 2107"><path d="m1714.5 1721-.3-4v.2a498.7 498.7 0 0 1-11.2 63.9l-.7 2.6-.3 1-.3 1.5-.3 1-.4 1.5-.5 1.5-.4 1.5-.5 1.5-.4 1.2-.5 1.7-.8 2.2-.6 2-1.5 4.3-3 8.1-.8 2.6-.4 1.2-.8 2.4-.6 1.7-.5 1.6-.5 1.6-.5 1.4-.3 1-.3 1-.4 1.4-.2.9-.2.9-.4 1.3-.2.9-.3 1.3-.1.4-.3 1.3-.2.8-.2 1-.3 1.5-.2 1-.1 1-.2.9-.1.6-.1 1-.2 1-.1 1.1-.1 1.2-.2 1.1-.1 1.7-.2 1.8-.2 2.4-.3 3.3-.4 6-.2 2.2-.2 1.6-.1 1.5v.7l-.3 1.5-.1 1.4-.1.6-.2 1.4c-.5 4-1.2 7.4-2.1 10.9a339.8 339.8 0 0 1-1.1 4.1l-.3 1-.5 1.7-.6 2-.7 2.3-.6 2-.6 2-.3 1-.7 2.1-.5 1.6-.8 2.2-.7 2.3-1.2 3.6-1.4 3.8-1.2 3.3-2.3 6.7-6 16.4-2 5.6-1.2 3.7-.8 2-.8 2.6-.6 1.8-.7 2.2-.5 1.5-.4 1-.4 1.5-.4 1.3-.2.9-.3.8-.2.9-.2.7-.2.8v.4l-.3.7v.4l-.2.7-.1.7-.1.7-.2.7v.7l-.1.7v.3l-.2.7v1l-.1.7V1980.4l-.1.7v2.3c0 .7 0 1.4.2 2.2v.8l.1.7v.4l.2.8v.8l.3 1.2.1.8.1.4.2 1v.3l.3 1 .1.4.2 1 .3.9.2 1 .3 1 .3 1 .3 1.1.5 1.7.5 1.8.6 2 1.5 5 .7 2.2.4 1.6.4 1.4.4 1.5.3 1.4a62.3 62.3 0 0 1 1.6 17.3l-.1 2.1-.1 2.4-.2 4.2-.2 2.4v6.1c0 7.9-.5 14-1.7 19.3l-.1.7v.7l-.6 5.8-.1 2-.1.8v.3l-.1.8v1.8l-.1.7v1.7c.3 2.5 1 4.1 2.2 5.3 1.4 1.3 3.4 1.9 6.9 2h1.1l.7-.1H1668.5l34.3-2 12-.6h1.3l1.2-.2h1.2l1.2-.2h1.1l1.1-.2h1.1l1.1-.2h.5l1-.2h.6l1-.2 1-.2.9-.1a59 59 0 0 0 3.5-.8l.8-.2c6-1.6 10.3-4 14-7.7a31 31 0 0 0 7.6-18.3l.2-1 .3-3.3v-1.2l.2-1.8v-11.9l-.1-1.5v-1.6l-.2-1.6v-1.6l-.2-1.5v-1.6l-.2-1.6v-.8l-.2-1.6-.2-1.6-.2-1.6v-.8l-.3-1.6v-.9l-.3-1.6-.2-1.7-.3-1.7-.2-1.7-.3-1.8-.1-.9-.3-1.7-.3-1.9-.4-1.8-.3-1.9-.4-1.9-.3-2-.4-2-.4-2-.4-2-.2-1-.7-3.3-.3-1.2-.2-.2c-6.3-5-14.2-7.8-24-8.8h-.6c-3.5-.3-7.1-.4-11-.3h-1.4l-1.4.1h-1.4l-1.4.2h-1.5l-1.5.2-1.5.2-1.6.1-1.7.2-1.2.1h-.1l-3.4.4-.8.1-.7-6h.8l2.2-.3 1.1-.1 1.3-.2 1.2-.2h.6l1.3-.2 1.2-.2.6-.1 1.1-.3 2.3-.4 1.1-.2 1.7-.4 1-.3 1-.2c4.3-1.2 8-2.5 11.2-4.2l.7-.4a25 25 0 0 0 11-11.6l.2-.4.1-.2.3-.6v-.3l.3-.5a25 25 0 0 0 1-4.1l.2-.7v-.6l.1-.7v-.4l.1-.7.1-.7V1948.7l.1-.8V1935.5l-.2-1-.2-1.5a3070.8 3070.8 0 0 1-22-212zm-391.3 344.5h-.4V2067.2c.2 6.6 2.7 12.8 7.1 16.5 3 2.5 7.2 4 13.2 4.7h1l.4.1 1 .1 1 .1h1l1 .1h.5l1.1.1H1363c2.3-.2 3.6-.6 4.4-1.4 1.6-1.6 1.2-5.1-.9-8.3-3.3-5-9-8.2-17.3-10.3-2-.5-4-1-6.3-1.3l-1.6-.3-1.6-.3-4.2-.6c-3.7-.6-7.8-1-12.3-1zm-1025.8-250c-6.2-3.5-15-2-23.1 3.1-24 15.4-30.3 54.4-14.1 79.5l.7 1.2.4.5.6.9.5.8.6.9.7.8.6.9.4.6.7.9 1 1.2 1.3 1.7 1.5 1.8 1.7 2 4.7 5.7 1.7 2 1.2 1.5 1.1 1.4 1 1.4 1 1.3.7.8.6.8.6.8.6.8.6.7.5.8.5.7.5.7.3.4.4.7.5.7.4.7.5.7.2.4.4.7.2.3.4.7.4.7.4.8.4.7.4.7.4.8.5 1.1.4.8.4.7.3.8.4.8.3.7.1.4.4.8.3.7.1.4.3.8.3.8.3.8.1.4.3.7.2.9.2.4.2.8.3.8.2.9.1.4.2.8.3 1 .2.8.2 1 .2.9.2 1 .2.9.3 1.5.2 1 .2 1 .2 1.1.2 1.1.3 1.7.2 1.2.2 1.2.3 1.9.3 2 .2 2 .3 2 .4 3 .7 5 .4 2.4.3 2.3.3 2.1.2 1.5.3 1.4.2 1.4.2 1.3.2.9.2 1.2.3 1.3.2.7.5 2.4a117.2 117.2 0 0 0 36 59.9l.4.2.1-.4c.5-1.2.8-2.3 1-3.5v-1.4l.2-.8v-1.1a43.8 43.8 0 0 0 0-4.6v-.7l-.1-.8a44.7 44.7 0 0 0 0-.8l-.2-.7v-.4l-.1-.8-.1-.8a51 51 0 0 0-.1-.4l-.2-.8-.1-.8-.2-.9v-.4l-.3-.8-.2-.9-.2-.8-.2-.5-.2-.9-.1-.4-.3-1-.3-.9-.3-1-.3-.9-.4-1-.3-1-.4-1-.4-1.1-.4-1.1-.6-1.7-.5-1.1-.7-1.8-.7-1.8-.8-2-3.4-8-.8-2-.3-.9-.5-1.3-.5-1.3-.4-1-.4-1.2-.5-1.3-.3-.9-.3-.9-.3-.9-.2-.9-.3-.9-.3-.9-.4-1.3-.2-1-.3-1-.3-.9-.3-1.5-.3-1-.4-1.5-.4-1.6-.3-1.6-.5-2.3-.3-1.2-.4-1.8-.5-2.5-.5-2.6-.6-2.8-.7-3.7-1.5-8.2-.7-3.8-.6-3-.5-2.2-.6-3-.3-1.5-.4-1.5-.2-1-.4-1.5-.1-.7-.4-1.5a227.5 227.5 0 0 0-1.3-4.8l-.3-.9a227.2 227.2 0 0 1-7.6-87.5l.4-3.3.5-4 .2-1.6v-.6l.1-.9c.5-4.6.5-8.2 0-11.6-.8-7-4.1-12.8-9-15.6zm1414.2-141.7v-2a3056.8 3056.8 0 0 1-1.4-291l.3-6.4.3-6.2.2-4.6.1-3 .4-6 .2-4.3.3-4.3.2-2.9.2-4.2.3-4.2.2-2.7.2-2.7.2-2.8.2-2.6.2-2.7.2-2.6.3-2.6.2-2.6.2-2.6.2-2.6.3-2.5.4-3.8.2-2.5.3-2.5.2-2.4.3-2.5.3-2.4.4-3.6.4-3.6.3-2.4.3-2.4.4-2.4.3-2.3.3-2.4.3-2.3.4-2.3.5-3.5.3-2.3.4-2.3.4-2.3.3-2.3.4-2.3.2-1.1c8-46.3 20.1-86.8 38-123.4l2.2-4.3 1.5-3 1.4-2.8 1.3-2.8 1.3-2.7.4-1 1.3-2.6.8-1.7.8-1.7.7-1.7.8-1.6.7-1.6.7-1.6.4-.8.6-1.6.7-1.6.3-.8.7-1.5.6-1.6.3-.7.6-1.5.3-.8.6-1.5.6-1.5.3-.7.5-1.5.6-1.5.5-1.5.5-1.5.5-1.4.3-.8.5-1.5.2-.7.5-1.5.4-1.5.5-1.5.5-1.5.2-.7c6.7-23 7.7-42 1.9-56l-.1-.3a54 54 0 0 1-16.3 6.2l-.5.1c-31 6.2-65.4 8.3-104.3 7.1h-3.7l-2.5-.2h-2.5l-2.4-.2-2.5-.1h-1.3l-2.5-.2h-1.2l-3.8-.3-2.5-.1-2.6-.2-2.5-.2-2.6-.1-4-.3-3.8-.3-4-.4-2.7-.2-4-.3-2.7-.3-2.8-.2-2.7-.3-4.2-.4-2.9-.3-4.3-.5-2.9-.3-2.9-.3-6-.6-6-.7-4.7-.6-3.1-.4-4.8-.5-3.2-.4.7-6h.2a14.1 14.1 0 0 0 2 0h1.4a29.4 29.4 0 0 0 2.8-.5l.7-.1.7-.2h.4l.7-.3.8-.2.4-.1.8-.2.8-.3.9-.3.8-.3 1-.3 1.3-.5 1-.3 1-.4 1-.4 1-.4 1-.4 1.7-.7 1.7-.7 1.2-.5 1.8-.8 2.1-.9 10.8-4.7 3.3-1.4 2.8-1.2 1.6-.7 1.5-.6 1-.4 1-.4.7-.2.7-.2.7-.3.9-.2.6-.2.7-.2a59.2 59.2 0 0 1 1.8-.5 313.3 313.3 0 0 1 66.2-8c21.9-.4 43.6 1.6 64.8 5.8l2.4.5 1.2.2 1 .1.9.2.7.1 1.3.2 1.8.2 2.3.2 3.2.4 1 .1 1 .1.9.2h.8l.8.2.8.1.7.1.8.2h.3l.7.2.6.2 1 .2.5.2 1.7.6.6.2.8.4c4.2 1.9 7.6 4.9 10.5 9.4l.3.4.2-.2c4.2-3.5 7.4-7.7 9.3-12.4l.1-.4a41 41 0 0 0 .2-24.9l-.2-1-.4-1.4-.2-1-.2-.7-.5-1.4-.3-1.1-.5-1.6-.4-1.3-.8-2.4-.3-1-2.8-8.4-.5-1.3a226.7 226.7 0 0 1-9.1-85v-2l.2-2 .1-2.4.2-2.4.1-1.8.2-2.5.2-2.5.2-1.9.2-2.5.2-2 .3-2.6.3-2.7.3-2.8.3-2.8.5-3.6.4-3 .5-4 .7-5.7.8-5.1.9-6.4 1-7.7 2.7-18 1.8-12.3 1.5-10 1.1-8.2 1.1-7.8.9-6.2.8-6 .7-5.7.6-4.5.5-4.3.5-4.3.5-4.1.5-4 .4-4 .3-3 .4-2.9.3-3.8.4-3.8.4-3.7.3-3.7.2-2.8.2-2.3.2-2.3 1.3-17.3c3.2-50.8 1.4-95.9-6.6-139.7l-.5-3-.5-2.9-.8-4.2-.8-4.1-.6-2.8-.5-2.7-.5-2.6-.6-2.7-.5-2.6-.6-2.6-.8-3.8-.5-2.5-.6-2.5-.5-2.5-.6-2.4-.5-2.4-.6-2.4-.6-2.4-.5-2.3-.6-2.4-.6-2.3-.6-2.2-.3-1.2-.6-2.2-.6-2.3-.6-2.2-.3-1-.6-2.3-.3-1-.6-2.2a469.4 469.4 0 0 0-.3-1.1l-.6-2.1-.3-1.1-.7-2.1-.6-2.1-.4-1-.6-2.1-.7-2-.6-2.1-.7-2-.7-2.1-.7-2-.7-2-.3-1-.8-2-.3-1-.7-2-.8-1.9-.3-1-.8-2-.4-.9-.7-2-.4-.9-.8-2-.4-.9c-16.8-40.7-39.1-71.7-69-92.4a229.4 229.4 0 0 0-62.3-30.5l-1.6-.5c.5 1 .9 1.8 1 2.8v.2c.6 3.4-1 5.8-4.1 8.8l-.3.3c-50.5 47.1-92 104-121.4 166.4l-.9 2-3.6 7.7-.2-.8-.4 3-.3 2.7-.7 5.4-.1 1c-5.8 46-5.4 92.6 1.1 138.3l.5 3.2.4 2.9.4 2.4.6 3.8.8 5 1 5.6 2.1 11.8 1.4 8 1 5.2 1 5.9.5 3 .5 3.5.6 3.8.5 3 .4 3 .3 2 .3 2.3.2 1.6.3 2 .2 2.3.5 4.6c2 18.5 2.2 35 .3 50.7a169.4 169.4 0 0 1-.4 3.4l-.1 1-.2 1.4-.2 1-.2 1.4-.2 1-.1.9-.3 1.4-.3 1.5-.2 1-.2 1-.2 1-.4 1.4-.3 1.5-.3 1-.4 1.7-.4 1.6-.3 1.1-.6 2.3-.5 1.8-.6 1.8-.5 1.9-.8 2.6-.8 2.7-1.2 3.6-1.2 3.9-2.5 7.8-1 3-.6 2.2-.4 1.4-.6 2-.4 1.3-.6 1.8-.3 1.3-.5 1.7-.5 1.8-.3 1-.3 1.2-.4 1.6-.4 1.6-.3 1-.2 1.1-.4 1.6-.2 1-.3 1.6-.4 1.8-.4 2.1-.4 2.2-.4 2.2-.4 2.2-.4 2.2-.4 2.3-.2 1.5-.4 2.3-.2 1.6-.4 2.3-.3 2.4-.5 3.3-.3 2.6-.4 3.4-.5 3.6-.4 3.7-.3 3-.5 3.9-.3 3-.5 4.3-2.7 27-.9 7.8-.6 5.9-.5 3.8-.4 3.9a123.2 123.2 0 0 1-1 6.3l-.3 1.7.2-.7c4-13.9 9.7-28.2 17.5-44.3l.6-1.1 1-2.2 1.1-2.2.7-1.3 1.3-2.6 1.5-3 1.6-3 1.5-2.8 1.6-3 2.2-4.2 4-7.2 6.5-12 1.7-3.1 2.3-4.2 1.5-2.8 1.6-3.1 2.1-4 1.7-3.1 1.5-3 1-2.2 1.3-2.5 1.2-2.4.8-1.6 1.1-2.4c7.2-15.2 12.5-29 16.3-42.8 4.9-17.7 7.6-33.4 7.9-47.7v-2l.2-4.9V700.6c-.3-7.5-1.8-12.5-4.8-15l-.3-.3-.2-.2-.3-.2-.3-.2-.3-.2-.4-.3-.7-.4-1.4-.9-.8-.5-.4-.3-.2-.1-.4-.3-.3-.2a16.3 16.3 0 0 1-.6-.5l-.3-.3c-5.3-4.6-6.9-12.5-5.1-20.4l4.6-19.7 1-4.5.8-3.5.8-3.4.5-2.3.7-3.3.7-3.2.4-2.2.4-2 .5-2.2.4-2 .5-3 .4-2 .4-2 .3-2 .4-1.9.3-1.9.3-1.9.3-1.9.3-1.8.3-1.8.3-1.9.2-1.8.3-1.8.2-1.8.2-1.7.2-1.8.2-1.7.1-.9.2-1.7.2-1.8.1-1.7.2-1.7.1-1.7.1-.8.1-1.7v-.9l.2-1.7.1-1.7v-1.7l.1-.8.1-1.7V557l.1-1.7v-2.6l.1-3.6V537.1l-.1-4.4-.2-7.3-.5-14-.1-6.5v-3.8l-.1-3V483.7l.5-9.4v-2a157.5 157.5 0 0 1 29.6-84.9c13-17.7 28.8-29.8 46.2-34.2 13.8-3.4 29.1 1.8 43.7 13.2a96.1 96.1 0 0 1 28.3 36c6.3 15.2 8.4 32 8 54l-.1 2.6-.1 3-.1 2.9-.2 4-.3 6-.7 12.3-.1 3.1v2a532.2 532.2 0 0 0-.2 4.7v1.7l-.2 2.8v10.5l-.1 4.4V556.1l-.1 2.2v2.1l-.1 2.1v2.7l-.1 1.4-.1 2v1.2l-.1 1.3-.1 1.8-.1 1.9-.1 1.8-.1 1.8-.2 1.8v1.2l-.1 1-.1 1-.2 2.2-.5 5.2-.3 3.1-.2 3-.3 3.5-.2 3.4-.2 1.9v1.2l-.2 2.4v1.2l-.2 2.3v1.6l-.1 1.6-.1 1.6v7.5a190.9 190.9 0 0 0 0 5.7l.1 1.5c.7 15.4 3.4 29.3 9 43.2l.3 1 1 2.3-2.2 1.3c-15.6 9.2-32 14.8-49.8 17.1h-.2l-.1 1.7a937.4 937.4 0 0 1-14.3 99.4l-.6 2.9a114 114 0 0 1-1 4.2l-.2 1.2a117 117 0 0 1-3 9.6l-.3 1.2-.5 1.2-.2.6-.5 1.3a141.7 141.7 0 0 1-1.5 3.7l-.5 1.2-.5 1.3-.6 1.2-.3.7-.6 1.3-.6 1.2-.6 1.3-.3.7-.7 1.3-.7 1.4-.6 1.3-.4.7-.7 1.3-.4.7-.7 1.4-.8 1.4-.8 1.4-.8 1.5-.8 1.4-1.3 2.2-1.3 2.3-.9 1.5-.9 1.6-1 1.6-.9 1.5-1 1.7-1 1.6-1 1.7-1 1.6-11.6 18.3a808.7 808.7 0 0 1-55.3 78l-1.8 2.2-.9 1-.6.8-.9 1.1-1.2 1.5-1 1.1-1 1.2-1.4 1.6-1.5 1.6-1.6 1.8-2.1 2.3-2.8 3-5.6 6-2.6 2.8-2 2.1-1.3 1.5-.9 1-1.7 1.9-1.2 1.3-1.1 1.4-1.1 1.2-1.1 1.3-1 1.2-.7.8-1 1.2-.9 1.1-.6.8-.6.7-.5.7-.9 1.1-.5.8-.5.7-.6.7-.7 1-.8 1.2-.2.3-.5.7-.8 1.1-.4.8-.5.7-.5.7a257 257 0 0 0-29.6 61.5l-.3.8-.1.5-.2.6-.1.5-.1.6-.2.5-.2.9v.6l-.2.6v.6l-.2.7-.1 1-.2 1.2-.2 1.1-.2 1.8-.2 2-.4 3.3v1l-.1.4 1.2 13.4 2 20v.1c.8 1.7 1 3.8.5 6.3l.4 4.6.4 4.6.4 4 .9 10.6 1.1 13.4 2.3 25.2 5.8 61.4 1 11.5.9 9.8.4 5.1.6 7.1.6 7 .4 5 .5 6.8.5 6.6.4 4.8.3 4.8.4 4.8.4 6.3.3 4.6.3 4.6.1 3 .3 4.5.2 3 .3 6 .3 5.8.1 2.9.2 4.3.2 4.3.2 4.2v2.9l.2 2.8.1 4.2.2 4.2v4.1l.2 4.2v4.1l.4 20.9.6 42.3.3 15.1.2 9.6.2 6.4v3.6l.2 3.6v3.5l.2 3.6.2 5.2.1 5 .2 3.5v3.3l.3 5 .1 3.2.3 4.8.1 3.2.3 4.7.1 3.2.3 4.6.2 3 .1 3 .2 3 .2 3 .2 3 .4 4.4.2 3 .3 4.3.2 2.8.3 2.9.4 4.3.2 2.8.3 2.8a824 824 0 0 1-9.5 226.7l-.6 3.7-.3 2-.4 2-.2 1.5-.3 2-.4 2.3-.3 2.2-.4 3.2-.5 3.3-1.7 13-.4 2.9-.6 4.7-.4 2.8-.5 3.5-.6 4.1-.5 3.2-.3 2.3-.4 2.2-.2 1.4-.4 2.2-.2 1.3-.2 1.4-.4 2-.4 1.9-.2 1.2-.4 1.9-.2 1.2-.3 1.1-.3 1.8-.3 1.1-.4 1.7-.3 1.1-.2 1.1-.4 1.6-.3 1-.5 1.7-.3 1-.3 1-.3 1-.3 1.1-.5 1.6-.3 1-.3 1-.4 1-.3 1-.4 1-.5 1.6-.2.5c-3.1 8.6-6.9 16.3-11.4 23.4l-.3.5h.3c5-1.4 10.5-1 16.8 1l.5.1.8.3.8.3.5.1.8.3 1.3.5.9.4.4.2 1 .4.4.2 1 .4 1 .4 1 .5 1 .5 1 .5 5.5 2.7a150.2 150.2 0 0 0 81.8 14.6l1.3-.1.7-.1.8-.1.7-.1 1.4-.3 1.4-.2 2.7-.6 4.2-.8 2-.4 1.2-.2 1.3-.3 1-.1.4-.1c12.6-2 21.5-.8 28 5.9l.3.2a51.5 51.5 0 0 1-.3-7.1v-1.6l.1-.8v-.3l.1-.8.1-.7.2-1.5v-.8l.2-.7.1-.8.1-.4.2-.7.1-.8.2-.8.2-.8.1-.5.2-.8.1-.4.3-1 .2-.8.3-1 .4-1.4.3-1 .4-1 .5-1.7.6-1.8.8-2.4 1.2-3.5 1.7-4.8 2-5.7 6.1-17 1.8-5 1.6-4.6 1.3-3.7 1-2.9 1.1-3.3.7-2 .8-2.6.5-1.5.8-2.4.4-1.4.3-1 1-3.5.5-1.8.3-.9 1-4c1-3.7 1.7-7.3 2.3-11.6l.1-1.3.2-1.4.1-1.4.2-1.4.1-1.5.4-5 .4-5 .2-2.6.2-2.4.1-1.3.2-1.7.1-1.2.2-1.1.1-1.1.2-1.1.1-1 .2-1 .2-1v-.7l.2-.7.2-1 .2-1.1.2-1 .2-.9.2-.9.2-.8.3-1 .2-.9.2-.9.4-1.4.4-1.4.3-1 .3-1 .3-1 .3-1 .5-1.5.5-1.6.5-1.7.8-2.4.7-1.9 1.2-3.3 3-8.6 1-3.1.9-2.4.7-2.1.6-2 .5-1.6.4-1 .4-1.5.3-1 .4-1.4.2-1 .5-1.8.2-.7a491.2 491.2 0 0 0 14.4-106.2v-2h.6zm29.4 285.4a32.9 32.9 0 0 1-1 2.6c-3 7-8.3 12-15.8 15.8l-.3.2h.1a55 55 0 0 1 21.9 6.1l.6.4-2.8-12.8-1.2-5.3-.8-4.1-.7-3zm-1319.9-55.7-.1.1c-12 18-10.5 44.6 2.8 64.4a76.8 76.8 0 0 0 7.4 9.4l.4.4-.2-.5a115.8 115.8 0 0 1-3-9l-.3-.8a64 64 0 0 1-1.1-4.4l-.2-.8-.2-.8-.1-.8-.2-.7v-.8l-.2-.8-.1-.7-.1-.8v-.4l-.2-1.2-.1-.8v-.8l-.1-.8-.1-.9v-.8l-.1-1.4v-.9l-.1-1v-3.4l-.1-1.7v-17.3l-.1-1.2v-1l-.1-1.1v-1l-.1-1-.1-1a87.2 87.2 0 0 0 0-.5l-.1-1-.1-1-.2-.8a64.7 64.7 0 0 0 0-.5l-.1-.8-.2-.9v-.4l-.2-.8a48.9 48.9 0 0 0-.1-.8l-.2-.8a42.5 42.5 0 0 0-.7-2.7l-.2-.7-.3-.8-.2-.7a40.1 40.1 0 0 0-.8-2.1l-.2-.4zm1298.6-194.8.2 3a3047 3047 0 0 0 15.2 164.4l.4 2.8-.4-14-.1-7.7-.2-7.3v-6.8l-.1-6.5v-4.6l-.1-6v-20.8l.1-1.6v-4l.2-4.2v-7.5l-.1-1.4V1784.4l-.1-1.4-.1-1.4v-.7l-.2-1.4v-.8l-.1-1.4-.1-1.5-.2-1.4-.1-1.5-.1-.7-.2-1.6-.1-1.5-.2-1.5-.1-.8-.2-1.6-.2-1.6-.3-1.6-.2-1.6-.2-1.7-.3-1.7a386.8 386.8 0 0 0-.1-.8l-.3-1.7-.3-1.8-.5-2.6-.3-1.9-.3-1.8-.3-1.9-.6-2.9-.4-2-.5-3-.4-2-.5-2.3-.2-.7-.1-.8-.2-.7-.1-.5-.2-.8-.2-.9-.3-.9-.3-.9-.2-1-.4-1-.3-1-.4-1.2-.4-1.1-.5-1.5-.9-2.6-1-2.8-1.6-4.4-.3-.8zm-896.2 99.5.5.6.6.7.6.7.6.7.6.6.6.7.6.7.6.6.6.7.6.6.7.7.6.6.7.6.7.7.7.6.6.6.4.3.7.7.8.6.7.6.4.3.8.7.7.6.9.6.4.3.8.7.8.6.5.3.9.7.9.7.9.6 1 .7 1.4 1 1 .7 1 .7 1.1.7 1.7 1.1 1.6 1.1 2.4 1.6 1.9 1.1 1.9 1.3 2 1.2 2 1.3 54.3 33.6.8.5c3.2 2 5.5 2.8 7.5 3h.2l-.5-.6a206.4 206.4 0 0 0-16-14.8l-1.1-1-1.3-1-1.3-1-1.3-1-1.3-1-1.2-1-1.3-1-1.3-1-1.3-1-1.3-1-1.3-1-1.3-.9-1.3-1-1.4-.9-1.3-.9-.7-.5-1.4-1-1.3-.8-.7-.5-1.4-1-1.5-.9-1.4-1-1.5-.9-1.4-.9-1.5-1-1.6-.9-1.5-1-.8-.4-1.6-1-1.6-1-1.7-1-1.7-1-1.7-1-2.7-1.4-1.8-1-1.8-1.1-1.9-1-1.9-1.1-2-1.1-3-1.7-2-1.1-3.2-1.7-3.3-1.8-2.3-1.2-4.6-2.5-3.6-1.9-7.4-3.8zm-19.8-165.3.2-.6-8.9 5.1-5.8 3.3-5.5 3.2-6.2 3.6-5 3-4.8 2.8-4 2.3-3 1.9-3.7 2.2-3.6 2.2-3.6 2.2-4.2 2.6-4.2 2.5-2 1.3-1.4 1-5 3-3 2-1.2.7-1.7 1.2-5.3 3.6-2 1.3-1.4 1-1.3.8-1.2.8-.8.5-1.2.7-.7.4-.8.5-.7.4-.7.4-.7.3-.3.2-.7.4-.7.3-.6.3-.7.3-.7.3-.3.2-.7.3-.6.3-.7.2-.4.2-.7.2-.7.3a63.9 63.9 0 0 1-35.6 1.5l-.6-.2 4.9 3.5 1.6 1.1 1.5 1.1 1 .7 1.4 1 1 .5 1.2 1 1.3.7.8.6 1.2.7.8.5 1.2.7.8.5 1.2.7.8.5 1.4.8 1.4.7 1.4.8 1.6.9 1.6.8 1.6.9 1.8.9 8.4 4.2 3.2 1.7 1.8.9 1.7.9 1.6.8 1.6.9 1 .5 1.4.8 1.4.8 1 .5.8.6.8.5.9.5.8.5.4.2.8.6.8.5.4.2.8.5.7.6.8.5.7.5.8.6.7.5.8.6.7.5.8.6 1.2 1 2.4 1.7 2.3 1.8 2.3 1.8 1.1.8 2.3 1.7 2.3 1.7 1 .8 2.3 1.7 2.2 1.6 2.2 1.5 2.1 1.6 1 .8 2.2 1.5 1 .7 2.2 1.5 1 .7 2 1.4 3.2 2.1 2 1.4a448 448 0 0 0 3 2l2.1 1.3a384.6 384.6 0 0 0 16 9.8l2 1.1a350.3 350.3 0 0 0 3.9 2.2l2 1.1 4 2.2 2.3 1.2-.2-.5c-7.8-17.2-11-37.8-11-62.8v-7.7l.1-2.2v-1.6l.2-2.9v-2.3l.2-2.4.2-3.1.2-3.3.1-2 .3-4.3.3-3.9 1.3-17.3.2-1.5c.8-11.1 2.4-21.8 4.8-32zm82.2-77c-6.2-3.3-16.2-2.9-23.7 1.3-22.8 12.9-38.9 34.6-48.2 62l-.3.6 22-12.5 8.7-5 10-5.7 6.2-3.6 3.7-2.1 1.2-.7 1.7-1 1-.7 1.1-.7 1-.7 1-.6.5-.3 1-.6.4-.3 1-.6.8-.7 1.2-.9.8-.6c2.6-2 4.8-3.9 6.7-6l.6-.6.5-.7a44.5 44.5 0 0 0 1-1.3c6.8-8.7 6.1-14.7 0-18zm-244.1-97.8-3 1.1-2.7 1-2.5 1-1.2.4-1.2.5-1.6.7-1.6.6-1 .4-1 .5-1 .4-1.4.6-1 .4-.8.4-.9.4-.8.4-.8.4-.9.4-.7.5-.8.4-.4.2-.7.4-.8.4-.7.4-.7.5-.7.4a73.8 73.8 0 0 0-.4.2l-.7.5-1 .7-1 .7-1.1.7-.7.5-.7.5-.7.6a58 58 0 0 0-.7.5l-.6.5-.7.6-.6.5-.3.3-.6.6-1.6 1.4-.5.6-.6.7-.6.6-.3.3-.6.7-.6.7-.5.7-.6.7-.6.8-.6.7-.6.9-.6.8-.6.9-.6.9-.6.9-.7 1-.6 1-.7 1-.7 1-1 1.7-1.1 1.8-2.6 4.2-1 1.7-1 1.6-1 1.6-1 1.5-.7 1-.3.4-.6.9-.3.4-.6.8-.3.5-.5.8-.6.7-.6.8-.3.4-.5.7-.9 1-.5.7-.3.4-.6.6-.3.3-.6.7-.5.6-.6.6-.6.7-.7.6-.6.6-.6.6-.7.6-.6.5-.5.5-.3.3-.5.5-.6.6-.6.6-.6.6-.6.7-.7.7-.7.7-1 1.1-.7.9-.8.8-1.7 2-1.9 2.2-8.2 9.9-1.5 1.7-1.4 1.8-1 1-.9 1.1-.9 1-1.3 1.5-.8 1-.4.4a174 174 0 0 1-3.3 3.5l-.3.3 2.3-1 2.6-1 1.7-.7 1.6-.7 1.6-.7 1.6-.7 1.5-.7 1.5-.7 1.5-.6 1.5-.7.7-.3 1.4-.7 1.3-.6 1.4-.7 1.3-.7.7-.3 1.3-.7 1.2-.6.7-.4 1.2-.6.7-.4 1.2-.7 1.2-.6 1.2-.7 1-.6 3.5-2c18.2-11.1 32.3-24.4 43.6-42l.7-1 1.2-1.9 1.2-1.9 1.1-1.9 1.2-1.9.6-1 1.1-1.9 1.2-1.9a416.8 416.8 0 0 0 3.4-6l1.1-2 .6-1 1.2-2 1.1-2.1 1.2-2.1 1.1-2.2.6-1.1 1.2-2.3 1.2-2.2 1.2-2.4.6-1.2 1-1.8zm24.7-302.7c-12.8-1.6-21.4 4-24.4 18a66.9 66.9 0 0 0 29.9 69.4 131.8 131.8 0 0 0 68.2 21h1.4l.5-1.2.5-1.3.3-.7.4-1.3.9-2.5.4-1.2a52.5 52.5 0 0 0 3.2-19.3v-1.6c-.8-7.8-4.5-16-11.2-24.9l-.7-1-.8-1a122 122 0 0 0-2-2.5l-.9-1-.8-1.1-1-1-1.3-1.6-1-1.1-1-1-1-1.2-.5-.5-1-1.1a220.4 220.4 0 0 0-.6-.5l-1-1.2-1.2-1-1-1.2-1.2-1.1-1-1-1.7-1.7-3.2-3-13.9-13a64 64 0 0 0-33.3-16.6zm817-224v.4a169 169 0 0 1-13 31l-.8 1.4-.4.7-.7 1.4-.8 1.4-.8 1.4-.4.7-.8 1.3-.9 1.4-.8 1.5-.8 1.4-1 1.4-.8 1.4-1 1.4-.4.8-.9 1.4-1 1.5-1 1.5-.4.7-1 1.5-1 1.5-1 1.5-1.2 1.6-1 1.6-1.2 1.6-1.1 1.6-1.2 1.6-1.2 1.7-1.8 2.6-1.3 1.7-1.3 1.8-2 2.7-1 1.4-1.4 1.8-1.1 1.4-1.7 2.2-1.9 2.4-3.1 4-6 7.4-1.5 2-2.2 2.8-1.7 2.2-1 1.3-1.2 1.6-1.2 1.5-1 1.5-1.1 1.4-1 1.4-.7 1-1.2 1.8-.7 1-.5.7a203.3 203.3 0 0 0-1.9 3 138.6 138.6 0 0 0-20.7 46.5c-3.5 17.7 0 32.6 12 44.3l1 1 .5.5 1 1 4.5 4.6 1 .9.8.8.4.4.8.8.4.4.7.7.4.4.8.7.7.6.7.6c2.5 2 4.7 3.6 7 4.8 5 2.6 10 3 15.4.8 1.9-.7 3.4-1.6 4.7-2.8l.4-.2c0-1.2.3-2.4.7-3.7l.1-.3c.8-2.7 2-4.8 4.5-7.7l.6-.7.3-.3.7-.7 3.9-4.3 1.3-1.5.5-.8a152 152 0 0 1 3.5-5.4l.5-.8a57.9 57.9 0 0 1 12.2-13.7l.3-.3.3-.4a68 68 0 0 0 11-24.4l.2-.9.1-.8.1-.3.2-.8v-.4l.2-.9.1-.8.1-1 .2-1v-.6l-.5-6.2-.5-5.6-.5-6-.3-3.3-.3-4.2-.2-2.7-.2-3-.2-3-.2-2.9-.2-2.9-.2-2.8-.2-2.9-.1-2.8-.1-2.8-.2-2.7v-2.8l-.1-1.3-.1-2.7-.1-2.7-.1-2.7v-2.6l-.1-2.6v-2.6l-.1-2.6V1005.2l.2-3.7V999l.1-2.4v-1.2l.2-2.4c.5-10.7 1.4-21 2.7-31l.3-2.3a339.4 339.4 0 0 1 2.3-14.4l.6-3 .1-1zm1.3 190.7c-1-.9-3.3-1.2-7-.7-1.5.2-3 .9-4.5 1.9l-.5.7-.7 1-.3.4-.7 1-.8 1-.3.4-.8 1-.7 1-.8 1-.8 1-.8 1-.9 1-.8 1-1 1.1-1.4 1.7-1 1.2-1 1.1-1 1.2-2.2 2.4-1 1.8-2.3 3.7-.4.7-.4.7-.4.8-1.8 3.3a44 44 0 0 1-4.3 6.6l-.4.5h.9c2.4-.3 6.3-2.4 9-4.5l.5-.4.7-.5.4-.3.4-.4.5-.4.6-.6.7-.7.8-.7.8-.8 1.2-1.1 3.5-3.6 1-1 .7-.6.6-.6.6-.6.8-.8.6-.5.8-.7.7-.7.5-.4.5-.4.5-.4.2-.1.5-.4.5-.4.4-.3.5-.4.5-.3.5-.3a25 25 0 0 0 9-12.1v-.4l-.3-4-.1-.1zm-357-44.4-1.8-1.1-1.1-.8-1.1-.7-1.1-.7-1.1-.7-1-.6-1.1-.7a121 121 0 0 0-1.1-.6l-1-.6-2-1.1-1-.5-1-.5-1-.5a73.4 73.4 0 0 0-2.5-1.2l-1-.4c-9.8-4.2-18-4.7-25.5-1.1l-.4.2-.5.3a24.8 24.8 0 0 0-.2 0l-.5.3-.5.3-.4.3-.5.3-.3.2-.5.3-.5.4-.5.4-.6.4-.5.4-.7.5-1 .8-2.5 2v.2l-.3.9-.1.3 1.2.6 1.3.8 1 .5 1.3.7 1.3.8.9.5 1.4.9.9.5 1.4.9 1.4 1 1 .5 1.5 1 2.1 1.3 1.6 1.1 2.3 1.5 2.3 1.6 2.5 1.7 1.9 1.3 11.2 7.8 3 2 2.2 1.5 2.1 1.4 1.2.8.2.2.3.2.3.3h.2l.3.4.4.3.3.4.4.4.7.6.7.7.4.5.8.8.8.9 1 1.2.6.7.9 1 1.2 1.3 1.2 1.5 1.6 1.9 1.3 1.5 1.3 1.6 1.3 1.7.6.8 1.9 2.4.6.8 2.1 2.8 1 1.2.8 1.2 1 1.2.7 1.1.5.6.8 1.1.7 1.1.4.6.7 1 .4.6.6 1 .7 1 .6 1 .6.9a73.5 73.5 0 0 1 3.3 6.3l.2.5.4-.5a505 505 0 0 0 3-3.5l4-4.8 1.5-1.8.1-.1a34 34 0 0 0 .2-26.4l-.2-.4c-3-7-7.8-13.2-14.6-19.3l-.6-.6-.6-.5-.7-.6-1-.8-.6-.6-1-.8-.7-.6-.7-.5-.7-.6-1-.8-1.2-.9-1.2-.9-1.3-1-1.3-.9-1.4-1-2-1.3-2.7-1.9-2.3-1.6zm89.6-171c-.2 0-.7.1-1.4.6l-.3.2-.4.3-1 .7-1.5 1.1-.7.6-1.5 1.1-.8.6-1.4 1-.7.6-1.4 1.1-1.4 1.1a231 231 0 0 0-2 1.7l-1.3 1-1.3 1.1-3 2.7-1.2 1a84.8 84.8 0 0 0-20 24.8l-.5.8-.2.6-.3.6-.2.6-.3.6-.2.5-.3.6-.2.7-.2.6-.3.6-.2.7-.2.7-.3.7-.2.8-.4 1.2-.5 1.6-.5 2-.5 1.4-1.3 4.7-.3 1.3-.4 1.2-.3 1.2-.3 1-.4 1.1-.3 1-.3 1a95.4 95.4 0 0 1-.2.5l-.3 1-.3.9-.2.4-.3.9-.5 1.3-.4.8-.2.4-.3.8-.4.9-.2.4c-17.8 37.3-38 62-65.8 73.3l-.4.1-.5.2c3.3.3 6.6 1 10 2.2l.5.2a94.2 94.2 0 0 1 21.3 11l1.4 1 1.5 1 1.8 1.3 1.6 1.1 2.2 1.5 1.4 1 1.4 1 1.4 1 1.3 1 .8.6.8.6.7.6.8.5.7.6.8.6.7.6.7.6.6.5.7.6.7.6.7.6.6.6.7.6a63.3 63.3 0 0 1 16 21.3 40 40 0 0 1 3.1 19v.2l5.5-6.3 14-16h-.3c-5.9-.4-11.6-2.6-17.4-6.6l-.5-.3a86.5 86.5 0 0 1-14.7-13.7l-1-1.2-.6-.6-1.1-1.3a95.5 95.5 0 0 1-1.6-1.9l-.8-.9c-10.3-12.9-13.2-24.2-9.5-34.7a46 46 0 0 1 14.9-19.4l1-.8.4-.4 1-.9 1.1-.8 1-.9 1.2-.8 1.2-1 .5-.4 1.6-1.1 2.3-1.7 8.2-6 1.7-1.3 1.1-.8 1-.8 1-.8 1-.7 1.4-1 .9-.8.9-.7a93 93 0 0 0 29.6-48.3l.2-.7a4.3 4.3 0 0 1-.6-.2l-.2-.2c-1-.6-1.7-1.7-1.6-3l3.6-41.1c.2-1.5 0-3-.2-4-.3-.7-.5-.9-.7-.9zm265.9 198.2-.1.2c-1.3 3.4-3 6.7-4.8 10l-.1.2h.3c2-.2 3.8-.1 5.4.2h.3l-1-10.6zm-204.9-194.7v-.3a15.4 15.4 0 0 0-4.9 2.7c-2.2 1.9-3.9 4-5.6 6.9l-.4.6-.2.4-.4.7-.3.7-.4.7-.4.8-.4.9-.4.8-.7 1.4-.4 1-.4 1-.3.5a52.6 52.6 0 0 1-22.2 25.6l-.4.1h-.2l-.4.2h-.4l-.5.2h-.5l-.6.2h-.6l-.6.2h-.7l-.6.2-1 .1-1.2.1-1.1.2h-1.2l-1.2.2h-.8l-.9.1a99.4 99.4 0 0 1-4.5.2h-.5l-.2 1a99.6 99.6 0 0 1-31.3 51.7l-.6.5-.9.7-1.4 1-1 .8-1 .8-1.5 1.1-1 .9-1.8 1.2-8 6-2.1 1.5-1.3 1-1 .8-1.2.8-.5.4-1 .8-1.1.9-1 .8-1 .7-.9.8-.8.8-.5.4-.8.7-1.2 1.1-.8.7-.7.7a34.2 34.2 0 0 0-9 13c-2.8 8-.6 16.9 7.6 27.6l.6 1 1.5 1.7.7.9.4.4.9 1 .9 1 .4.5.9 1 .4.5.9.9.4.4.8 1 .9.8.8.8.4.4.8.8c2 2 4 3.8 5.9 5.3l.8.5c6.8 5.2 13.2 7.4 20 6.7l1-.2h.3l46-52.6 8-9.2 3.2-3.4.9-.9.4-.4 1-1 1-1 1.3-1.2 8-7.5 1.5-1.5 1-1 1-.9 1-.9.8-.9.5-.4.8-.9.4-.4.8-.8.8-.9.7-.8.7-.7.4-.4.7-.8.6-.8a77.5 77.5 0 0 0 1.3-1.5l.6-.7.3-.4.6-.8 1.6-2.2a51.3 51.3 0 0 0 2.3-3.7l.1-.2.1-.8.1-1.1.2-1.1v-1.1l.2-1.2v-1.2l.2-1.2v-1.2l.2-1.3.1-2 .1-2 .1-2.2.2-2.2.1-3.2.1-2.8v-1.3l.2-.8v-1.3l-.2-.6-.4-1-.2-.6-.4-1.1-.8-1.8-1-2.4-.3-.9-.5-1.1-.4-1c-6.7-17-8-35.9-4.4-53.7zm3.9 106.3-.4.4-.7.9-.8.9-.8.9-.9.8-.9 1-.9.9-1 1-.9 1-1 1-1 1-1.2 1-8.8 8.3-.5.5-1 1-1 .9-.5.4-.8 1-.5.4-.8.8a89.2 89.2 0 0 0-2.2 2.4l-24.5 28-20.4 23.3.2-.2a94 94 0 0 0 4.8-4.2l1-1c.4-.2.8-.6 1.1-1l1.1-1 1-1 40.7-39.9 1.5-1.4.4-.3c9.6-5.1 15.8-14.2 19.5-27.2l.2-.6zm404-655.5c-13.2-10.4-26.9-15-38.5-12-16 4-30.5 15.2-42.8 32a151.5 151.5 0 0 0-27.8 74.2l-.2 1.9c-.5 5.5-.8 11.4-1 17.8v17.9l.1 4.4.3 8.4.3 11.9.1 4.7.1 3.2v3.4l.1 3.1V555.6l-.1 1.7-.1 1.7-.1 2.6-.1 1.7-.2 2.6v1.7l-.1 1-.2 1.6v1l-.2 1.6-.2 1.8-.1 1.7-.2 1.8-.2 1.8-.2 1.7-.2 1.8-.1 1-.3 1.7-.2 1.8-.3 1.9v.9l-.4 1.8-.2 1.9-.3 1.9-.3 1.9-.4 1.9-.3 2-.3 1.9-.4 2-.4 2-.3 2-.4 2-.6 3.1-.5 2.1-.6 3.2-.5 2.2-.4 2.2-.5 2.2-.8 3.4-.7 3.5-.6 2.4-.5 2.4-2.8 11.7-2.5 10.9c-1.4 6-.3 11.9 3.2 15l.2.1.2.2.3.2.3.3h.1l.4.3.6.4 1.9 1.1.5.4.4.3.4.2.4.3.4.3.3.3.4.3c4.6 4 6.5 10.4 6.9 19.3a82.8 82.8 0 0 1 0 3v4.9l-.2 4.4v1.1c-.2 15-3 31.6-8.1 50.1a265.5 265.5 0 0 1-16.6 43.7 496 496 0 0 1-1.8 3.7l-.8 1.6-.8 1.6-1 2.1-1.3 2.5-1 2.2-1.2 2.2-1.5 2.8-1.3 2.4-1.6 3.1-2.4 4.5-3.4 6.2-8.6 15.7-3 5.7-2 3.6-2 3.8-1.8 3.6-1.8 3.4-1.3 2.5-.4.9a525.2 525.2 0 0 0-2 3.9 232.9 232.9 0 0 0-21.5 61 332.8 332.8 0 0 0-2.1 13l-.3 2.2-.3 2.2c-1.2 9.6-2 19.4-2.5 29.6l-.1 2.3-.1 2.4-.1 2.4v1.2l-.1 2.4a470.5 470.5 0 0 0 0 3.6l-.1 2.5v15.1l.1 2.6v2.6l.2 2.6v2.6l.2 2.7v2.7l.2 2.7.1 2.8.2 2.8.1 2.8.2 2.8.2 2.8.1 2.9.2 3 .3 2.8.2 3 .2 2.4v1.7l.3-.6c6-18.5 15.6-37.8 28.6-58.6l.7-1.1 1-1.6.5-.8.5-.7.6-.8.5-.8.5-.7.8-1.1.5-.8.3-.4.9-1.1.5-.8.6-.7.6-.8.6-.8 1-1.2.6-.8 1-1.2.7-.8 1.1-1.3 1.1-1.3 1.2-1.3 1.6-1.9 1.7-2 1.4-1.4 1.9-2.1 2.5-2.8 7.8-8.3 2.7-3 1.7-1.7 1.5-1.8 1.8-2 1-1.1 1-1.2 1-1 1-1.2 1.1-1.4.6-.7.9-1a802.7 802.7 0 0 0 55-77.2l4.2-6.5 7.9-12.5 1.6-2.5 1.5-2.5 1.4-2.4 1-1.5 1-1.6.8-1.5 1-1.5.4-.8.8-1.4.9-1.5.8-1.4.8-1.4.4-.7.7-1.4.8-1.4.7-1.4.8-1.3.6-1.3.7-1.4.7-1.3.6-1.2.7-1.3.6-1.3.6-1.2.5-1.3.6-1.2.3-.6.5-1.2.5-1.2.3-.6.5-1.2.4-1.2 1.1-3 .5-1.1 1-3 .3-1.1.4-1.2.3-1.1.3-1.2.2-.5.3-1.2.3-1.1.3-1.2.2-1.1.3-1.2.2-1.1a931.6 931.6 0 0 0 14.5-98.6l.3-3.5-.5.1a194 194 0 0 1-56.7-4.3l-1.5-.3-.7-.2h-.4l-.7-.1-.7-.2h-.7l-.9-.2-1.2-.1-2.3-.2-3.5-.4-1.2-.1-1-.2h-.6l-1-.2h-.6l-1-.2c-4.1-.7-7.1-1.6-9.9-3.2-3-1.7-5-3.4-6.1-5-1.5-2.2-1.5-4.7 0-6.7 1.8-2.2 5.4-3.5 10.5-4l1-.2H1594l1-.1 1.3-.1 2.6-.1h2.7l2.5-.1 3.3-.1 6-.1h5l4.5-.1H1643.6l2.5.1h2.4l1.6.1h1.5l1.6.1 2.1.1h1.4l1.4.2h1.4l1.2.1 1.9.1 1.2.1 1.1.1h.6l1.1.2h1.1l1 .2h.6l1 .2 4.3.8c1.3.3 2.3.7 3.1 1.1 1.5.8 2.5 2 2.3 3.8l-.8 11.5v.8h.8c15.1-2.3 29.3-7 42.7-14.5l.6-.4-.2-.5a135.6 135.6 0 0 1-8.5-42l-.1-1.2a206.4 206.4 0 0 1-.1-4V615.2l.2-1.6v-1.8l.1-1.7.1-1.8.2-2.6.1-1.3.2-2.6.2-2.9.2-2.2.4-4.6.5-5v-1.5l.2-1.5.2-2 .1-2.1.2-1.8.1-2.4.1-1.8.1-1.8.1-2.5v-1.3l.2-2v-2.6l.1-2.7v-2.1l.1-3v-4.6l.1-5v-38.8l.1-4.2v-2.8l.1-2.5v-2.1l.1-1.9.2-3.5.1-3.5.3-5.6.6-9.8.2-4.9.1-3.4.1-2.3v-2.2l.1-.8a275.7 275.7 0 0 0 .1-5.7v-2c0-18.4-2.2-32.8-7.5-45.8a90.2 90.2 0 0 0-26.5-33.5zm65.6 620.8a303.6 303.6 0 0 0-65.2-6 307.3 307.3 0 0 0-65 7.9h-.3l-.9.3-.6.2-.7.2-.7.2-1 .3-.8.3-.9.3-1.2.5-1.8.7-1.3.5-1.6.7-2.6 1.1-6 2.6-5.7 2.5-1.7.8-1.7.7-1.7.7-.8.4-1.5.6-.8.3-1.5.6-1.4.6-2 .8-1.1.4 2.2.2 3.4.4 1.7.2 3.4.4 5 .5 4.9.5 3.2.4 3.1.3 3.2.3 3.1.2 3.1.3 3 .3 1.6.1 3 .3 3 .2 3 .2 3 .2 2.8.3 3 .1 1.4.1 2.9.2 2.9.2h1.4l2.8.2h1.5l2.8.2 2.8.1 2.8.1 2.8.1 2.7.1c38.4 1.2 72.5-.9 103-7a48 48 0 0 0 14.9-5.6l.3-.1-.1-.2a17.3 17.3 0 0 0-12.7-9l-.7-.2a44.8 44.8 0 0 0-.4-.1l-.8-.1a57.8 57.8 0 0 0-.8-.2l-.9-.1-.8-.1-1-.2h-.9l-1.5-.2-3.3-.4-2-.3h-1l-1.3-.2-1.3-.2-.4-.1h-.5l-1-.2a84.2 84.2 0 0 1-.4-.1l-1-.2-.4-.1zM532.3 977c-14.5-7-27.3-10-38.8-8.2l-.6.1v.1a55.8 55.8 0 0 0 36.6 29l1 .3 1 .2.8.2.9.2.9.3.8.2 1 .1.4.1.8.2 1 .2.8.1.9.2.9.1.9.2.9.1h.4l1 .2h.4l1 .2h1.4l.9.2h1l1 .1h1l1 .2h3.6l1 .1h11.5l2.7-.1 2-.1 3-.1 3-.2 3.2-.2 8-.4h-.4c-5-.8-9.5-2-14.3-3.4l-.8-.3-.8-.2-1.2-.4-.8-.3-.8-.3-.8-.3-.7-.3-.8-.3-.8-.3-.4-.1-.8-.4-.8-.3-1.2-.5-1.2-.6-.9-.4-.8-.4-1-.4-1.3-.7-1.4-.7-1.5-.7-2.6-1.3-2.8-1.5-3-1.6-6.2-3.3-2.8-1.5-2.2-1-1.7-1-.6-.2-1.3-.7-.6-.2zm752.5-57.8v.1a89 89 0 0 0 3.5 52.2l.3.7.1.3 1.2-7.6.5-3.5.2-1.3.3-2.4.3-1.8.2-1.8.1-1.2.2-1.2.1-1.2.2-1.7v-1.2l.2-1v-1.2l.1-1 .2-1.6v-2l.1-1V933.5a57.5 57.5 0 0 0 0-.4v-.7l-.1-.8v-.7a41.4 41.4 0 0 0-.1-.4l-.1-.6a35.4 35.4 0 0 0-.1-.7l-.1-.7-.1-.6c-.6-3.2-1.6-5.5-3.1-6.7a8.6 8.6 0 0 0-4-1.8zM1268 697.2c-10.5-4.8-20.6-6.2-28.7-3.1v1l.2 1.3.2 1.2.1 1.2.1 1v.6l.2 1.1v1l.2 1v3.4a38 38 0 0 1-1.3 11.4l-.2.7-.2.8c-3.4 10.4-13 18.2-23 17a21 21 0 0 1-8.1-2.7l-.7-.4a55.4 55.4 0 0 1-.4-.2l-.7-.4-.8-.5a98.3 98.3 0 0 1-.4-.2l-.8-.5-.8-.6-1.4-.8-1-.7-.8-.4-.6-.4-.6-.3-.6-.4a37.1 37.1 0 0 0-.3-.1l-.6-.3-.5-.3a23.4 23.4 0 0 0-.2 0l-.5-.3-2.8-1h-.5l-.4-.1a16.1 16.1 0 0 0-.3 0c-9-1.3-17.7 9.4-17 20.3.5 5 2 9.6 5 15l.4.8 1.4 2.1.6 1 .6.9.6 1c.2 0 .3.2.4.4l.7 1 .7 1 .7 1 .8 1 .4.6.8 1 1.2 1.5h.5a35.7 35.7 0 0 1 36.5 31.7v.6l.3 5-4.6-2.1-1-.5-.9-.5-1-.4-.8-.4a79.8 79.8 0 0 0-.4-.1l-.9-.4a61.9 61.9 0 0 0-.8-.3l-.8-.3c-5-2-8.5-2.4-12-1.4-5.3 1.5-8.1 8.8-4.9 11.5 1.1.9 2.3 1.3 4.3 1.4h2.6l1-.1 2-.2c3-.2 5-.1 7 .3 8.7 1.9 13.8 10 16.6 21.7 7.3 31 4.4 72.3-5.5 113.8l-.6 2.6-.6 2.6-.4 1.3h.1l1.8-.1h1.1l1.4-.2h1l1.3-.2 1-.1.9-.1 1.1-.1 1.1-.2.8-.1.6-.1h.4l.6-.2h.6l.3-.2h.2a46.9 46.9 0 0 0 18.5-21.9l.7-1.6.7-1.5.4-1 .5-1 .4-.9.4-.8.5-.9.4-.8.4-.8a56.1 56.1 0 0 1 .2-.3l.4-.8a30 30 0 0 1 7.2-8.7c3-2.5 6.6-4 10.2-4.7h.2l.1-.4a91.3 91.3 0 0 1 4.5-12l.3-.7a94.9 94.9 0 0 1 54.2-49l1-.4 1.4-.4 1.7-.6 4.6-1.4 1.8-.5.9-.3 1.2-.4 1-.4.7-.2.7-.3.6-.2.6-.2.6-.3.6-.2.5-.3.5-.2.6-.2.2-.2.5-.2.5-.3.5-.3.5-.3.5-.3c6.3-3.8 10.3-10.1 9.5-15.9v-.6l-.1-.3-.1-.3-.2-.6v-.4l-.5-1.5c-.6-2.4-.8-4-.7-5.8.5-7.8 9-13.2 17.2-12.2 4.5.6 8.1 2.2 13 5.5l.8.7.5.3 1 .7.2.2.1-.2c2.8-4.8 2.3-12-1-18.3l-.4-.6-.3-.5-.3-.5-.3-.5-.3-.5-.3-.5-.4-.5-.3-.5-.4-.5-.3-.5-.4-.5-.4-.5-.5-.5-.7-.9-.4-.5-.8-1-.6-.6-.9-1-1.3-1.5-2.6-2.9-1.2-1.3-.8-1-.8-.8-.5-.6-.5-.7a80.3 80.3 0 0 1-.9-1c-7.8-10-12.8-22-15.8-36.5l-.3-1.5-.2-1.1-.2-1.2-.2-1.2-.2-1.2-.2-1.2-.2-1.2v-.6l-.3-1.2v-.6l-.2-1.3-.2-1.2-.1-1.3-.1-1.3-.2-1.3-.1-1.3-.1-1.4-.2-2.1-.1-1.4-.1-1.5-.1-1.5-.1-1.6-.2-2.4v-2.5l-.2-2.2-.2.2a68 68 0 0 1-64.6 11l-.7-.4-.7-.2-.6-.3-.7-.2-.6-.3-.7-.3-1-.4-.9-.4-.6-.3-1-.5-1-.5-.8-.4-1-.6-1.3-.6-1.2-.7-1.3-.7-2.3-1.3-5.4-3-2-1-1-.7-1.5-.8-.9-.5-1.1-.5-.8-.5-1.1-.5-1.1-.5-.3-.1zM599.6 880.8c-4.7-2-10-2.1-14.3-.6h-.1a36 36 0 0 1 22.4 10.4l.3.3.5.6.6.5.5.5.5.5.5.6.5.5.4.6.3.2.5.6.4.6.5.6.5.6.4.6.5.6.5.7.5.7.5.7.5.7.8 1.2.5.8.6.9.8 1.3 1 1.4.9 1.5 3.2 5.3 1.3 2 .7 1.1.6.8.7 1.1c4.7 7 9 11 14 12.3 2.3.6 4.5.7 7.4.3l.7-.1h.3l.8-.2.7-.1.8-.2.9-.2.9-.2 1.3-.3 1-.2 2.3-.6.9-.2-.4-.2-.5-.2-.5-.2-.4-.2-.5-.2-.5-.2-.5-.2-.8-.3-.6-.2-.7-.3-1-.3-1.6-.6-2.4-.7-1.3-.5-1.1-.4-.7-.2-1-.4-.3-.1-.6-.2-.6-.3-.6-.2-.5-.3-.5-.2-.5-.2-.6-.3-.5-.3-.3-.1a41.7 41.7 0 0 1-12.2-10.2l-.7-.8-.7-.9-.7-.8-.7-1-.8-.9-.3-.5-.8-1-.8-1-.8-1.1-1.9-2.7-1.4-2-.7-1-.4-.5-.8-1-.7-1-.7-.9-.3-.4-.7-.9a88.8 88.8 0 0 0-1-1.2l-.7-.8c-4.3-5-8-8-12.7-10zM698.4 673c-24-33-65.2-46.8-115.5-43.6a173.7 173.7 0 0 0-92.2 32.1 132.8 132.8 0 0 0-52.2 80.6c-6.4 33.8.4 68.7 18.3 104.3l1 1.9.3.8.6 1.2.4.9.6 1.2.6 1.5.7 1.6 2 4.5.5 1 .4 1.1.5 1 .4 1 .5 1 .4 1 .6 1.2.4.9.5.7.4.8.2.4.3.7.4.7.4.7.2.3.4.7.6 1 .4.6.5.6.2.3.4.5.4.6.3.3.6.8.8 1 .6.9.4.5.6.8.4.6.8 1.2.6 1 .9 1.3 1 1.4.7 1.2 1.3 2.2 3 4.9 1.3 2 .8 1.3.6.8.5.8.8 1.2.7 1.1.5.7.7 1 .4.7.5.6.4.6.5.6.4.5.5.6.4.5.4.5.5.6.4.5.5.5.4.5.5.5.5.5c3.5 3.6 7.2 6.2 11.3 8l.1.1v-.1c.6-9.5-.2-18.4-2.7-28.4l-.3-1.4-.3-1.3-.4-1.4-.2-.7-.4-1.4-.2-.7-.4-1.5-.5-1.4-.4-1.5-.3-.7-.5-1.5-.5-1.5-.5-1.6-.6-1.5-.5-1.6-.6-1.6-.6-1.7-.7-1.7-.6-1.7-.7-1.7-3.1-7.9-1.3-3.2-1.4-3.7-.9-2.1-1-2.7-1-2.6-.7-1.8-.6-1.8-.7-1.7-.6-1.7-.5-1.6-.4-1-.5-1.6-.3-1-.3-1-.4-1-.4-1.5-.3-1-.4-1.4-.4-1.4-.4-1.5-.2-1-.4-1.4-.2-1-.4-1.4-.2-1c-6.7-30-5.1-58.8 6-82.6 11.7-25.1 34.2-45.5 64.6-61.5 18.8-10 36-15.9 53.2-17.6 28.6-2.9 58 .3 73.5 11.5 7.4 5.3 11.6 13.5 9 20.8-1.6 4.8-4.9 7.7-11.2 11.1l-1.2.6-2.6 1.3c-21.7 11.5-34.8 32.4-40.3 61l-.2 1-.2 1-.2 1a72 72 0 0 0-.2 2l-.2.9v1a75.5 75.5 0 0 0-.3 3.6v1l-.1 1V778.6l.1 1.2.1 1.3v1.3l.2 2 .1 1.4.2 1.4v1.5l.2 1.5.2 1.5.8 7.8.3 3.3.2 2 .1 2 .1 1.8.1 1.3.1 1.2v1.2l.1.8v2.3l.1 1v5.7a34 34 0 0 1-3.2 14.6 28.4 28.4 0 0 1-2 3.4c-4.3 6.2-9.8 6.8-14.9 2.4-2.3-2-4.4-4.9-6.8-9l-.5-.9-.8-1.4-.5-1-.6-1-.3-.6-.8-1.7-4.1-8.3-.4-.7-.3-.6-.4-.6-.3-.6-.3-.5-.2-.5-.3-.4-.2-.4-.3-.4-.2-.3a12.3 12.3 0 0 0-.1-.2l-.2-.3a7.9 7.9 0 0 0-.1 0c-9.3-11.7-21.9-17.4-31.8-15.3-10.2 2-16.3 12-15.3 28.5.5 7.4 2.9 17.4 6.4 25.5 4.2 9.7 9.6 16 15.5 17.6l.5.1 2 .5c4.9 1.2 7.5 2.6 9 6v.2h.2c6.2-3.5 14.5-4 21.6-1l.4.2c6 2.6 10.5 6.4 15.8 12.8l.7.9 1.5 1.9.8 1 .7 1 .8 1.1.9 1.1 2.5 3.6.8 1 .7 1 .7 1 .7 1 .7.8.7.9.3.4.6.8.7.8a68 68 0 0 0 1.9 2.1l.6.7.6.6.6.6c2.5 2.5 5 4.3 7.7 5.8l.4.2.5.3.4.2.5.2.5.2.5.2.5.2.5.2.9.4.9.3 1 .4 1.2.3 3.6 1.2 1.1.4.7.3 1 .3.6.3.6.2.6.2.8.3.5.2.5.3.5.2.8.4a41 41 0 0 1 6 3.6l.2.2 9.7-1.7 2.2-.4 2-.4 1.9-.4 1.2-.2 1.9-.4 1.4-.3.6-.1 1.4-.3.6-.2 1.3-.3.7-.1 1.2-.3 1.3-.4 1.2-.3 1.2-.3.6-.2 1.1-.3 1.2-.4 1-.3c13.7-4.4 22.3-10.5 26.8-19.7 2.7-5.6 2.5-12.1-.2-21l-.3-1a88.3 88.3 0 0 0-.1-.6l-.4-1-.4-1.2-.4-1.1-.4-1.2-.2-.5c-7.1-19.2-6.4-31.7 3.2-48.5l.6-1 4-6.5 1-1.7.4-.7.2-.5c1.7-3 2.4-5 2.4-7 0-2.5-1.2-5-4.3-7.9l-.3-.3-.6-.5-.6-.6a69.4 69.4 0 0 0-.4-.3l-.6-.5-.7-.6-.8-.7-1.5-1.2-4.6-3.6-1-.8-1-.8-1-.8-.4-.4-.9-.7a94.2 94.2 0 0 1-1.7-1.5l-.7-.7a64.2 64.2 0 0 1-1.9-1.8l-.6-.7c-4-4-6.3-7.8-7.7-12.5-1.5-4.7-2.1-9.4-2.1-15.5V750.4l.1-1.2V748l.1-.6v-1.4l.6-7.4v-1.8l.2-1.6V725.7l-.1-.5-.1-.9-.1-.8-.1-.8c-.6-4.6-1.8-8.6-4-13.4l-.5-.9-.4-.9-.5-.9-.2-.4-.5-1-.5-1-.6-1-.6-1-.9-1.6-1-1.7-.6-1.1-3.2-5.5 17.5-1.1-.1-.3a44 44 0 0 0-.3-.6l-.4-.7-.4-.8-.4-.7a98 98 0 0 0-.2-.4l-.5-.9-.5-.9-.5-.9-.3-.4-.6-1-.7-1.2-1.1-1.8-1.4-2.2-1.6-2.6-1.1-1.6-.5-.7-.3-.5zm-25.9-4.3c-7.7-5.6-19.7-9-33.4-10.5l-1.5-.2a139.5 139.5 0 0 0-85.5 17.2c-29.3 15.5-50.9 35-62 58.7-10.5 22.5-12 50-5.6 78.8l.3 1 .2.9.3 1.4.3 1 .3 1.3.3 1 .3 1.3.3 1 .4 1.4.3 1 .4 1.4.5 1.4.3 1 .4 1 .3 1 .6 1.6.5 1.6.8 2.3.7 1.7.4 1.2.7 1.8.8 2 1 2.7 1.1 2.8 4.6 11.6.4.9.7 1.7.6 1.7.3.9.7 1.7.6 1.6.6 1.7.6 1.6.5 1.6.3.8.5 1.5.5 1.6.5 1.5 1 3 .4 1.4.2.7.4 1.4.4 1.5c3.4 12.4 4.6 23 3.8 34.6v1h.1l.6.2h.5c2.5.5 5 .5 7.6 0 6.7-1.2 13.6-5 21.6-11.4l1-.9 1.6-1.3 1-1a166.2 166.2 0 0 0 4.5-4l1.1-1 .6-.6 1-1 1-1 1.7-1.7 8.8-8.8 1.3-1.4 1.7-1.7.9-.8.5-.5c2.9-2.7 4-4.9 3.5-6.2-.3-.9-1.2-1.5-3-2l-.6-.2a27.8 27.8 0 0 0-.3-.1l-.6-.2-2.4-.6-.5-.1c-8-2.2-14.6-9.8-19.5-21a87.8 87.8 0 0 1-6.9-27.6c-1.1-19.2 6.7-32 20-34.7 12.4-2.6 27.1 4.1 37.8 17.4l.5.7.3.4.3.5.3.5.4.5.3.6.3.6.4.6.3.7.6 1.1.6 1.3 3.7 7.5.5 1 .6 1 .2.4.5 1 .5.9.3.4.4.9.5.8.5.7.2.4.4.7.7 1 .4.7c1.2 1.6 2.2 2.9 3.3 3.8l.1.1.4.3c2 1.5 3.2 1.3 5.2-1.3l.3-.4a22.5 22.5 0 0 0 1.5-2.7c1.6-3 2.3-6.6 2.5-11.6v-2.7l.1-.8v-5.5l-.1-1.2-.1-1.2-.1-1.7-.2-1.8V806l-.2-1.5-.2-2.2-.2-2.3-.8-7.8-.2-2.4-.2-2.3-.2-1.5v-1.4l-.2-1.4v-.7l-.1-1.4v-1.3l-.1-.7v-1.9l-.1-1.2v-7.4l.2-1.2.3-4.3.2-1c.1-1.2.3-2.5.6-3.7l.2-1c5.8-30 19.6-52.3 42.8-64.8l.9-.5 2.6-1.3.8-.5.4-.2.7-.4c4.3-2.4 6.5-4.4 7.4-7.1 1.5-4.4-1.4-10.1-6.9-14zm964.5 8.9h-20.1l-5.4.1-5.4.1h-3.2l-3.5.2h-2.3l-1.4.1h-.9l-.7.1-.8.1h-.7l-1 .2-.7.1-.6.1h-.3l-.6.2c-1.4.3-2.4.7-3 1v.1c.6.7 1.9 1.7 3.7 2.8l.3.2c2 1 4.3 1.8 7.5 2.4l1 .2h.8l.5.2h1l.5.2h1l3.6.4 1.7.2 1.8.2 1.2.1.9.2h.7l.8.2.7.1.4.1.8.1c20.5 4.5 39.4 6 57 4.4h.7l.2-2.1.6-8.5.1-1.4h-.3l-.4-.2h-.3l-.5-.2h-.6l-.3-.1-.7-.2h-.7a59.1 59.1 0 0 0-.4-.1l-.7-.1-.9-.1-.8-.1-1-.1-.9-.1-1-.1h-1l-1.2-.2-1.7-.1-1.9-.1h-1.3l-2-.2h-2l-2.2-.1h-1.5l-2.3-.1-2.4-.1H1639.1l-2.1-.1zm-10-418.1-1.3-.4a76.4 76.4 0 0 0-.5 0l-1-.3c-4.7-1-7.8-1-10.7 0-4.2 1.3-7.3 4.4-10.7 10.3l-.4.8-.5.9-.5.8-.4 1-.8 1.4-1.4 2.8a155.7 155.7 0 0 1-27.2 38.5l-.8.8-1.1 1.2-1.2 1.1-.7.8-.8.7-1.2 1.2-.8.7-1.3 1.2-.9.9-1 .8-1.4 1.3-1.6 1.4-1.7 1.5-2.5 2.2-7 6-3 2.7-2.6 2.3-2 1.8-1.7 1.5-1.2 1.2-.5.4-2.5 2.4a98.5 98.5 0 0 0-22 29.7l-.3.7v1.1c.4 4.7.5 9.6.6 14.6v6.4a316 316 0 0 1-.1 3.2v1.3a351 351 0 0 1-1 17.3l-.2 2.5-.1 1.2-.2 2.6-.2 2 .1.7 1-1.8a553.5 553.5 0 0 1 117.5-159.3l1.7-1.6.5-.4c1.5-1.5 2-2.5 2-3.2l-.7-1.2-.2-.3-.3-.3-.2-.1-.3-.4-2-2-2.7-2.6zm-94-194.5c-18.1-39.1-65.6-63.9-109.2-57.7-44.4 6.4-95.3 40.4-120.3 79.3-17.2 26.8-22.1 59.7-12.6 86.7v.2l.1-.6c1-10 4.4-20 9.8-28.6l.4-.6 3.4-5.4 2 6.1.1.7.2.7.2.6.1.3.2.7.1.6.2.7.1.6.2.7.1.7v.3l.2.7.1.7.1.8.1.7.1.8.1.8.1.8.1.8.1 1 .1 1.3.1 1.4.2 1.5.1 2.2.1 2.3.1 1.8.2 3.8.2 2.4v1.7l.2 1.6.1 1.5v1l.2.9.1 1.3.1 1 .1.7v.4l.2.8v.8l.2.8.1.7v.4l.2.7.2.7.1.6.2.7.1.6.2.7.2.6.2.6.2.7.2.6.2.6.2.6c3 7.8 8 13 16.3 16.2l.5.2c9.8 3.6 14.4 11.6 15.5 23.8v.9l.1 1v2l.1.4v1a90.1 90.1 0 0 1 0 3.7v1.2l-.1 1.3v1.2l-.2 1.3v1.3l-.2 2-.2 2-.7 7.4-.2 1.5v1l-.1 1.2v2.4l-.1.3V271l.1.4c.1.8.3 1.4.6 2v.1l.2.4.2.3.3.4c1.1 1.7 2.4 2.2 5 1.8h.4l.2-.1.5-.1h.3l.5-.2.6-.2.6-.2 1.9-.5.8-.3h.3l.7-.3.7-.1 1.1-.3.6-.1c1.5-.3 2.7-.3 4 0 3.3.5 5.6 2 7.2 4.6l1 1.8.1.5.1.2.2.5v.3l.2.5.1.3.2.6.1.7.6 2.3.1.5.3 1 .3 1 .2.8.3.9.2.8.3.8.2.8.3.7c1 2.8 2 4.8 3.7 7l.4.5.4.5.4.6.5.5.5.6.4.4.3.3.3.4.4.4.5.5.6.6 1 .8 1 1 1.4 1.3 2.3 2 1.3 1.2.7.6.8.8.6.5.7.8.5.5.4.4.3.4.4.4.4.4.3.4.3.5.6.7.5.7.4.6.5.5.6 1 1.8 2.4.7 1.2.5.7.5.6.5.6.2.3.4.6.2.2.5.5c0 .1 0 .2.2.3l.4.4.1.2.4.5.4.4 2 1.7.4.3.4.2c5 3.4 12.2 3.4 19 .5l.5-.2.5-.3h.3l.5-.3.5-.3.2-.1.5-.3.3-.2.5-.3.5-.3.5-.3.6-.3.2-.2.6-.4.5-.4.6-.4.5-.4 1-.7.5-.5.7-.5 1-.8 1-1 1.5-1.2.8-.7 3.3-2.9 1.2-1 1.2-1 1.1-1 .7-.6.7-.5.7-.6.6-.5.6-.5.4-.2.6-.5.3-.2.5-.4.3-.2.6-.4.6-.4.6-.4.5-.3.6-.3.3-.2.5-.3.6-.3.6-.3.3-.2.6-.3.3-.1c6.9-3.3 13.9-4 21.7-1.5 9.1 3 15 11.1 19.7 23.8 4.2 11.5 7 23.5 8.6 36.4l.1.6.1-.2c4.6-7.7 10.8-15.2 18.4-22.7l.7-.7 1-1 .5-.5 1.3-1.2 1.5-1.4 1-1 1.7-1.4 1.8-1.7 2.8-2.4 3.1-2.7 5.3-4.6 2.6-2.2 2.3-2 2.1-2 1.6-1.4.6-.5 1.2-1 .8-.9 1.1-1 .8-.8.6-.5.5-.5 1-1 .6-.6.5-.5A149.8 149.8 0 0 0 1593 275l2.2-4.4.3-.5.5-1 .5-1c4.6-8.5 8.7-13.2 15.2-15.3 2.5-.8 4.9-1 7.6-1h.3l-8.2-8-4.7-4.7-2.5-2.6-1.5-1.5-1.2-1.2-1-1-2.6-2.7-1.2-1.2-.5-.5a43.5 43.5 0 0 1-.2-.3l-.5-.5-.4-.5a37.4 37.4 0 0 1-.4-.5l-.4-.5-.4-.5-.5-.6-.6-.8-.4-.6-.4-.6c0-.2-.2-.4-.4-.6l-.4-.7-.4-.6-.4-.8-.7-1.1-.4-.8-.8-1.3-.7-1.4-1.5-2.7-.7-1.3-.7-1.2-.6-1.1-.4-.7a70.8 70.8 0 0 0-.3-.4l-.3-.6-.4-.6-.4-.6-.4-.6-.4-.5-.4-.5-.3-.5-.4-.5-.2-.3-.4-.5-.4-.4a35 35 0 0 0-.6-.7l-.5-.5a273.1 273.1 0 0 1-6.5-7l-1.3-1.5-.2.2c-1.7 1.4-4 2.5-6.8 3.7l-.5.1-2 .8-2 .8-2 .7-1.2.4-.6.2-1.2.5-1.1.4-1.1.3-1.1.4-1 .3-1.1.4-.5.1-1 .3-.5.1-1 .3-1 .3-.9.2-4 .8-.8.2c-3.2.5-6.2.6-9.5.5a29.8 29.8 0 0 1-21.2-8.6l-.3-.3-.5-.5a39.3 39.3 0 0 1-.2-.3l-.5-.5-.5-.5-.4-.6a41.4 41.4 0 0 1-2.5-3.3l-.5-.6a55.2 55.2 0 0 1-.2-.4l-.4-.7-.5-.7-.4-.8-.5-.8-.5-.8-.5-.8-.4-1-.8-1.3-.8-1.6-.8-1.6-2-3.7-.5-1.2-.6-1-.6-1.2-.6-1c0-.2-.2-.4-.3-.5l-.6-1-.5-1-1.1-1.8-.6-.9c-3.5-5.5-7-9-11.6-11.8-11.2-6.7-26.8-4.6-33 5l-.4.6-.1.2-.3.5-.4.8-.3.5a19.8 19.8 0 0 0-1.3 3.5l-.1.6-.4 1.8v.6l-.2.7v1l-.1.7v1.5l-.1.4v4.2l.1.9v1l.1 1 .1 1.5.1 1.6.2 1.8.3 3.4.1 1.7.1 1.3.1 1.2v1.2l.1 1.2v1.1a43 43 0 0 1-1.2 12c-1.1 4.3-3.2 7.6-6.8 9-5.7 2-10.8-1.9-14.8-8.4l-1-1.7-1-1.7-1.2-1.9-1.1-2-1.5-2.6-6.6-11.6-1.8-3.2-1.5-2.6-1.1-1.9-.9-1.4-1-1.7-1-1.6-.8-1.3-.8-1.2-.6-1-.4-.6-1-1.5-.5-.7a35.8 35.8 0 0 1-1.7-2.8l-.5-.7-.4-.9-.5-.9-1.2-2.5-.4-.8-.4-.7-.4-.7c-2.2-4-3.8-6-6.5-7.4l-.8-.4-.8-.4-.8-.4-.7-.4-.7-.4-.7-.3a69.4 69.4 0 0 0-.4-.2l-.7-.3a56.8 56.8 0 0 0-.6-.3l-.7-.3-.3-.1-.6-.3-.6-.2-.3-.1-.6-.2a28.7 28.7 0 0 0-.6-.2l-.5-.2-.6-.1c-5.3-1.5-8.6-.2-11 4.5l-1 3-.1.8a42.6 42.6 0 0 0-.4 2.3l-.1.8-.2.8-.1 1.3v.9l-.2.8v2.6l-.1.8v.8c0 2.8.3 5 .8 6l.1.1-4.7 3.6-17.5-23-.4-.4-.2-.2-.3-.4c-1.2-1.4-2-2-2.7-2-1 0-2 .8-3.5 2.7l-.4.5-.4.5-11 16.2-3.6 5.4-1.7-6.3a123.2 123.2 0 0 1-3-44.4c1.4-7.6 5.7-15 12.9-24.2l1.3-1.6 1.4-1.8 3.4-4c18-21.6 42.2-37.7 68.6-45.6a81.3 81.3 0 0 1 47.3-1.9 75 75 0 0 1 26.6 15.2l1.1.9 1 .9 1.2 1 1 .9 1.2 1 1.1 1 1.2 1 1.1 1.2.6.5 1.2 1.2 1.8 1.7 1.9 1.8 1.3 1.3 1.2 1.3 1.3 1.2 1.3 1.3 1.2 1.3 1.3 1.3 1.2 1.3 1.3 1.4 1.2 1.3 1.2 1.3 1.3 1.4 1.2 1.4 1.2 1.3 1.3 1.4 1.2 1.5 1.2 1.4 1.3 1.4 1.2 1.5.6.7 1.3 1.5 1.2 1.5 1.3 1.5 1.2 1.6.6.8 1.3 1.5 1.3 1.6 1.2 1.6 1.3 1.7.7.8 1.3 1.7 1.3 1.6 1.3 1.8 1.3 1.7 1.3 1.8 1.4 1.8 1.4 1.8 1.3 1.8 1.4 2 1.4 1.8 2.1 3 1.5 1.9 1.4 2 2.2 3 1.5 2.2 4 6 .6 1.1.4.6.6 1.2.9 1.5 1 1.8.8 1.6 2.4 4.6 1.3 2.3 1 1.7.6 1.1.4.8.4.7.6 1 .4.6.3.6.4.7.4.5.4.6.3.6.6.8.4.6.6.8.6.8.4.6a206.5 206.5 0 0 0 2.9 3.7l.8 1.2-1-4-.7-2.6-1.4-5.7-1.7-6.4-5.2-21.2-1.1-4.3-.8-3-1-4.1-.8-3-.8-2.8-.5-1.9-.7-2.7-.7-2.7-1-3.5-.8-2.5-.7-2.5-.7-2.5-.7-2.4-.5-1.5-.5-1.6-.5-1.5-.7-2.3-.8-2.2-.5-1.5-.4-1.4-.8-2.1-.5-1.4-.5-1.4-.5-1.4-.5-1.4-.5-1.3-.5-1.4-.6-1.3-.5-1.4-.5-1.3-.6-1.3-.5-1.3-.5-1.3-.6-1.3-.6-1.3-.5-1.2-.6-1.3-.6-1.3-.3-.6zm-88.4-14.5c-12.9-4-27.7-3-44 1.8-24.9 7.5-47.8 22.7-65 43l-3.5 4.2-1.6 1.9-.8 1-.3.4a55.5 55.5 0 0 0-12.2 22.2 22.3 22.3 0 0 0-.3 2 117 117 0 0 0 1.6 32.2l.1.8 7.2-10.4c3-4.4 5.6-6.6 9.5-6.4 3.2.2 5.2 1.9 7.8 5.1l10.9 14.3v-.3c.2-5.4 1.2-11 2.7-14.2l.1-.2c3.2-6.4 8.5-9 15-8.2 3 .4 5.8 1.3 9.4 3l.8.4 1 .5.9.4.5.3 1.5.8 1 .6c3.5 1.8 5.6 4 7.9 7.8l.4.7.4.7.2.4.4.8.2.4.5.9 1.2 2.5.5.8.2.4.4.7.5 1 .4.7.7 1.1.2.3 1.6 2.3.4.7.8 1.3.9 1.2 1 1.6.8 1.4 1 1.7 1.2 1.9 1.1 2 1.8 3 2.6 4.6 4.6 8.2 1.8 3 1.1 2 1.3 2.2 1 1.7 1 1.7c2.7 4.3 5.6 6.5 7.7 5.8 1.2-.5 2.3-2.2 3-4.8.8-3.1 1.1-6.3 1-10.4v-1a81.9 81.9 0 0 0 0-.6v-1.1l-.1-1.2-.1-1.2-.1-1.2-.3-3.8-.2-2-.2-1.8-.1-2v-1.2l-.1-1v-1l-.1-1v-5c.5-5.7 1.9-10.5 4.6-14.7 8.2-12.6 27.4-15.2 41.2-7a42.4 42.4 0 0 1 15.3 16.6l.6 1 .6 1 .6 1.1.3.6.6 1.2.7 1.1 1.2 2.4 1.3 2.6.8 1.5.7 1.4.7 1.3.5.8.4.8.5.8.4.7.4.7.4.7.4.6.2.3.4.7.2.2.4.6.4.6.4.5.4.5.4.5.4.5.4.5.5.4.2.2.4.5.2.2c4.5 4.4 9.9 6.8 17.2 7h3.5l2.8-.3h.8l.8-.2.8-.1.8-.2c.6 0 1.3-.2 2-.4l.9-.2.9-.2h.4l.9-.3.4-.1 1-.3 1-.3.9-.3 1-.3 1-.3 1-.4 1.1-.4 1.2-.4.5-.2 1.8-.6 1.2-.4 1.3-.5 2.6-1 .7-.3c2.4-1 4.3-1.8 5.5-2.8l.1-.1-.1-.2a222 222 0 0 1-6.8-8.5l-1-1.2-.4-.6-.4-.6-.4-.6-.4-.6-.4-.6-.6-.9-.6-.9-.4-.6-.4-.6-.4-.7-.4-.6-.6-1-.4-.8-.7-1.1-.4-.8-.7-1.3-1-1.8-1.7-3-1.5-2.9-1-1.8-.6-1.2-.7-1.2-.6-1.1-.6-1-.6-1-.5-1-.4-.6-.4-.5-.3-.6-.6-.9-.5-.8-.4-.5-.6-.9-2.4-3.3-2.2-3-1.4-2-2.1-3-2-2.8-2.1-2.8-1.4-1.8-2-2.6-2-2.7-1.3-1.7-1.3-1.7-1.3-1.6-1.2-1.7-1.3-1.6-1.3-1.6-1.2-1.6-1.3-1.5-1.2-1.5-1.3-1.6-1.8-2.2-1.2-1.5-.6-.7-1.3-1.4-1.2-1.4-1.2-1.5-1.2-1.4-1.2-1.3-1.2-1.4-1.3-1.3-.6-.7-1.2-1.3-1.2-1.4-1.2-1.3-1.2-1.3-1.3-1.3-1.2-1.2-1.2-1.3-1.3-1.3-1.2-1.2-1.3-1.3-.6-.6-1.8-1.8-1.2-1.1-1.2-1.1-.5-.6-1.2-1-1-1-1.2-1-.5-.6-1.1-1-.5-.4-1.1-1-1-.8-1.6-1.3-1-.9-1.5-1.2-1-.7c-7.2-5.6-13.8-9-21.1-11.3zm.8 1978.9-.8 2.3-.8 2.1-.5 1.4-.5 1.4-.5 1.3-.5 1.2-.5 1.3-.5 1.2-.5 1.1-.4 1.2-.5 1-.5 1.2-.2.5-.5 1-.4 1-.5 1-.5 1-.4 1-.3.4-.4 1-.5.8-.3.5-.5.9-.7 1.3-.5.8-.5.9-.6.8-.5.9-.3.4a64.2 64.2 0 0 1-26 23l-1 .4-1.6.7-.7.4-.6.3-.6.3-.5.3c-1.3.7-2.2 1.3-3 2.1-1.7 1.6-2.5 3.8-1.9 5.3.8 2 4 3 9.3 3l24.3-.1h7.7l5.6-.2h4.1l3.8-.1 3.1-.1 3-.1 2.5-.1 3.8-.2h1.8a525 525 0 0 0 16.9-1.2l2.7-.3 3.2-.3 2.5-.3 8.4-1 6-.6 3.6-.4 2.8-.3 2-.3 2-.1 2.4-.3 1.7-.1 1.7-.2h1.7l2-.2h1.2l.8-.1h.8l4.2-.2c6.4-.2 12.4 0 18.3.7l2.8.3 2.4.2 3.6.5 15.2 2.2 3.8.5 3 .4 2.1.2 1.6.2 2 .2 2 .3h1l.9.1 1.7.2 1.7.2h1.7l1.7.2 1.6.1h.8l1.6.1h1.6l1.5.1c10.6.3 19.3-.6 26.7-3 12-4 18.3-9.8 21-20.3l.1-.4v-.3a247.9 247.9 0 0 0-2.8-57l-.3-1.5-.1-.6-.2-1.2-.2-1.2-.2-.5-.2-1.1a36 36 0 0 0-7-16.4c-4.8-5.8-11.9-7.1-23.2-5.4l-1.2.2-1 .2-1.3.2-1.5.3-1.7.4-4.8 1-1.8.3-1.4.2-.9.2-1 .1-.7.2h-.6l-.7.1h-.4c-29 3.3-59-1.8-85.2-14.6l-5.1-2.5-1.1-.6-1.6-.7-1-.5-.9-.4-.9-.4-.4-.2-.9-.4-.8-.3-.9-.4-.4-.1-.8-.3-.7-.3a56.7 56.7 0 0 0-.8-.3l-.8-.2-.4-.2c-7.3-2.3-13-2.2-17.9.6a20.8 20.8 0 0 0-7.7 8.5l-.4.8-.4.7-.4.8-.4.8-.4.9-.2.4-.4 1-.4.9-.4 1-.4 1-2 5.5-.7 1.5-.4 1.1-.5 1-.2.6-.4 1-.3.5-.3.5-.4.9-.5 1-.5.9-.4.8-.7 1.1-.7 1.3-.6 1-.9 1.6-2.2 3.7-1 1.8-.8 1.2-.6 1.1-.4.8-.4.7-.4.6-.2.4-.3.6-.3.7-.3.6-.3.6-.3.6-.2.6-.3.6-.1.3-.4.9-.2.6v.3l-2.5 6.9zm-925.8-446-2.2-5.6c1.6-.6 3.4-1.6 5.2-2.9l.7-.5a49 49 0 0 0 2-1.6l.8-.6.7-.6 1.5-1.4.8-.7.4-.3.8-.8.8-.8.8-.8.8-.9.8-.8.5-.5.8-1 .5-.4.8-1 1.2-1.2 1.2-1.4.8-1 1.3-1.4 1.3-1.5 1.9-2.3 5.5-6.5 5-6.1 1-1.1.9-1 .8-1 .8-.8.7-.9.8-.8.7-.7.3-.4.7-.7.7-.7.6-.7.7-.6.6-.6.3-.2 1.2-1.1.6-.6.6-.6.3-.2.5-.6.6-.6.5-.5.3-.3.5-.6.6-.6.2-.3.6-.6.5-.7.5-.6.3-.4.5-.6.3-.4.5-.7.5-.7.3-.4.6-.8.5-.8.6-.8.6-.9.6-.9.6-1 .9-1.4 1-1.5 1-1.7 2.9-4.7.7-1.2 1.1-1.8 1.1-1.7.7-1 .7-1 .7-1 .6-1 .7-1 .3-.5.6-.8.3-.5.7-.8.6-.9.6-.8.6-.7.3-.4.6-.7.7-.8 1.2-1.3.6-.7a54.4 54.4 0 0 1 2-2l.6-.5.3-.3.7-.6 1-1 .7-.5.4-.3.7-.6.4-.3.8-.5.3-.3.8-.5.3-.3.8-.5.3-.3.8-.5.7-.5.4-.2.7-.5.4-.2.7-.5.8-.4.7-.5.8-.4.8-.4.7-.5.9-.4.4-.2.8-.4.4-.3.9-.4.4-.2.9-.4.4-.2 1-.4.9-.5 1-.4 1-.4 1-.4 1-.5 1-.4 1.1-.5 1.1-.4 1.2-.5 1.8-.7 1.9-.7 2-.8 2-.7 2.2-.8.7-.3 5.3-2.1.4-.2 1.1-2.2 2-3.8 2.4-5 2-4.3 2.7-5.5 1.6-3.5 5.8-12 3.2-6.7 3-6.2 1.9-4 1.8-3.7 1.8-3.6 1.3-2.6 1.7-3.4 1.6-3.3 1.7-3.1 1.1-2.3 1.6-3 1.1-2.1 1.1-2.2 1.2-2 1-2 .8-1.4 1-2 .8-1.3.7-1.2.8-1.3 1-2 1.2-1.8 1-1.8.8-1.3 1.1-1.8.8-1.3 1-1.8.8-1.2 1.2-1.9 1.2-1.8.4-.6a465.9 465.9 0 0 0 35.8-68.5l.3-.8h-.1c-2.8 0-5.3-.2-8-.4h-.3c-22.2-2.1-43.7-9.5-62-21.4a72.8 72.8 0 0 1-32.6-75.9c3.7-17.1 15.3-24.5 31-22.6a69.8 69.8 0 0 1 36.3 17.9l1.5 1.4 11.4 10.7 4 3.7 2 2 .8.7 1.2 1.2 1.2 1.2 1.1 1.1 1.1 1.2.6.5 1 1.2 1.1 1.1 1 1.1 1.1 1.1 1.5 1.7 1 1 .9 1.2 1 1 .4.6.8 1a60.9 60.9 0 0 1 15.6 33.6 64 64 0 0 1-5.3 27l-.4 1h2.3l2.5-.1 3.3-.2 4.9-.2h2.2l2.2-.2h5.3l1.1-.1H778.1l1 .1h1.1l.5.1h1l1.1.1h.5l1 .2h.6l1 .1 2.4.3 1.8.2 1.9.2 1.9.2 1.8.1 2 .2h.9l1.8.2 2 .2 1.9.1 2 .1 1.9.2h2l2 .2h2l2 .2h2l2 .1 2.2.1h2.1l2.2.1h2.2l2.2.1h2.3l2.3.1h5.9l3.7.1h14.5l17.6-.2h13.8l8.2-.1h21.9l4.2.2 5.6.1 4.1.1 4.7.1h19.7l1.7-.1 1.7-.1 1.6-.1h1l1.6-.2h1.6l1-.2h1l1-.1 1-.1 1.4-.2 1-.1 1-.1.9-.2h1l.9-.2.9-.2h.5l1-.2 7.8-1.5c54.6-12.2 112.5-53.2 160.9-107.8l.9-1-.7-2h-.1a2 2 0 0 0-1.2 1.3v.2a2.7 2.7 0 0 0 0-.4l-.6-1.5-.3-.6a26 26 0 0 0 0-.2l-.4-.6-.3-.7a43 43 0 0 0-.2-.3l-.4-.7-.4-.8-.5-.8a81.3 81.3 0 0 0-.5-.8l-.5-.9-.6-.9-.6-.9-.7-1-.6-1-.7-1-.4-.4-.7-1-.8-1.1-.7-1.1-.9-1.1-1.2-1.7-1.3-1.7-1.4-1.9-1.5-1.8-1.4-1.9-1.2-1.4-1.4-1.8-1.7-2.1-1.4-1.7-1.1-1.2-1-1.2-1-1.2-1-1-.9-1-.6-.7-.6-.7-.7-.7-.4-.4-.5-.5-.2-.2-.4-.4-.3-.2-.2-.2-.2-.2a3.5 3.5 0 0 0-.2 0l-2-1.5-2.2-1.4-1.2-.8-3.6-2.5-10-6.9-2-1.4-2.4-1.7-1.8-1.2-2.3-1.5-1.6-1.1-1.1-.7-1.6-1-1.5-1-1-.6-1-.6-1.3-1-1.4-.8-1-.5-1.3-.8-.9-.5-1.3-.8-1.3-.7-1.3-.8-1.3-.7-1-.4-.8-.5-1.5-.8-.6.4-.7.4-.6.5-.7.3-.7.4-.7.4-.4.2-.7.4a58 58 0 0 1-.4.2l-.8.3-.7.4-.8.3-.8.4-.8.3-.9.4-.9.3-.9.3-.9.4-1 .3-1 .4-1.5.5-1.6.5-1.1.4-1.8.6-1.8.5-2 .6-3 1-.8.2-1 .3-1.4.4-1.5.5-2 .7-4 1.4-11.4 4-6.1 2.2-3 1-2.8 1-2 .7-3.2 1.1-1.8.6-1.8.6-2.2.8-1.7.5-1 .3-1.7.5-1.6.5-1 .3-1.6.4-1.5.5-1.5.4-1 .3-1 .2c-18.4 4.8-34 6-48.1 3l-2.8-.5-2.7-.6-2.7-.6-2.7-.5-2.6-.6-1.3-.3-2.6-.6-2.5-.6-2.6-.6-1.2-.3-2.5-.6-1.2-.3-2.5-.6-2.4-.6-1.2-.3-2.4-.6-2.4-.6-2.3-.7-2.3-.6-2.3-.6-2.3-.7-2.2-.6-1.2-.4-2.2-.6-2.2-.7-4.3-1.4-2.2-.7a359.1 359.1 0 0 1-11.5-4l-2-.7-2-.8a319.3 319.3 0 0 1-12-4.8l-2-.8-3.9-1.8-2-.8a306.4 306.4 0 0 1-2.8-1.4l-2-.9-1.8-1-2-.9a310.7 310.7 0 0 1-3.7-1.9l-3.3-1.7-2.8-1.4-3-1.5-3.3-1.6-4.3-2.1-3.8-1.9-6-2.8-16.6-7.8-6-2.8-4.1-2-3.3-1.6-2.6-1.3-3.5-1.7-2.9-1.4-1.6-.9-2.2-1-1.5-.9-2-1-2-1-1.5-.8-1.9-1-1.9-1-1.3-.9-1.9-1-.9-.5-1.7-1-1-.5-1.7-1-.9-.6-2-1.3-8-4.9-2.5-1.4-3-1.9-2.2-1.3-1.5-.8-1.4-.8-1.4-.8-2-1.2-1.3-.8-1.3-.7-1.8-1-1.9-1-1.2-.7-1.2-.7-1.2-.6-1.1-.6-1.2-.6-1.1-.6-1.2-.6-1-.5-1.2-.6-1.1-.5-1.1-.6-1.1-.5-1.1-.5-1.2-.5-1-.5-1.2-.5c-13-5.8-25.3-9.3-37.5-10.5h-.4l-64.1 3.5-4 .2-3.1.2h-2.3l-2.1.1h-1.4l-1.4.1h-2l-2 .1h-11l-1.1-.1h-1l-1.1-.1h-1l-1-.1-1-.1-1-.1-1-.1-1-.1-1-.1-.9-.1-1-.2-.9-.1-.9-.2h-.4l-1.4-.3-1-.1-.4-.1-1-.2-.8-.2-1-.2-.8-.2-1-.2-.4-.1-1-.3-.9-.2-.9-.3c-20-5.5-36.4-18.6-42.4-35.7l-.1-.5-1-3 3-.9c14-3.6 29.2-.6 46.2 7.4l1.4.7 1.3.6 1.4.7 2 1 2 1 3.7 2 5 2.7 2.4 1.3 2.2 1.1 1.6.8 1 .5 1.5.8.9.4 1.3.7 1 .4.8.4.8.4 1.2.6 1.2.5.8.3.7.4.8.3.7.3 1.2.4.7.3.7.3 1.2.4.7.2.8.3.7.2.8.3.8.2.9.3.8.2.8.2.8.2.8.3.8.2.8.2.8.1.9.2.8.2.8.2.8.1.9.2.8.1.9.2h.4l1 .2.8.1.9.1 1.4.2 1 .1.9.1h1l1 .2h1l1.5.2 1.6.1h1l1.2.1h1.1l1.8.2h1.8l2.6.1h1.3l2 .1h2.8l2.2.1 11.6.2h2.4l3.3.2h2.6l1.4.1 1.5.1c1.3 0 2.5.2 3.8.3h.2l23.3-1.3v-1.7l.1-.9v-.6l.1-1 .1-.6.1-1 .2-1.5.2-1.5.2-1.3.2-1.3.2-1.4.2-1.5.6-3.2 1-6 .2-1.4.2-1.3.2-1.2.2-1.3.1-1.1v-.6l.2-1.2.1-1 .1-.6.1-1v-1a81.8 81.8 0 0 0 .1-.6v-1l.1-1v-.9c.2-3.9 0-7.2-.8-10.3A24.3 24.3 0 0 0 667 934l-.3-.2-2 .3-1 .3-1.1.2-1 .2-1.5.3-1 .2-1.2.3-1 .3-1 .2-1 .2-.6.1-.9.2-.9.2-2.5.4-.8.1c-3.3.4-6 .3-9-.5-6.6-1.7-11.8-6.5-17.2-14.2l-.8-1.2-.8-1.3-1-1.5-1.2-2-3-5-1.3-1.8-.8-1.4-.6-.8-.5-.8-.7-1.2-.8-1-.7-1-.7-1-.4-.7-.5-.5a63.2 63.2 0 0 0-.2-.3l-.4-.6-.5-.5-.4-.6-.4-.5-.5-.5-.4-.5-.5-.5-.4-.5-.5-.5-.7-.7-.5-.5c-8-7.7-18.7-11-26.8-7.6l-.3.1-1.2.6-.3.3-.6.6-1.2 1-4.4 4.5-7.8 8-2.1 2-.5.5-.6.5-1.2 1.2-1.7 1.6-1.2 1.1-1.2 1-1 1a60.5 60.5 0 0 1-28.1 16c-3.3.5-6.6.6-9.7 0h-.3l-.7-.2v.2c-2 11.9-7.3 21.1-15.7 28.5l-.5.4-.6.6a69.6 69.6 0 0 1-.4.3l-.6.5-.7.6-.7.5-.7.5-.7.5-.7.5-.3.3-.8.5-.7.5a69.7 69.7 0 0 1-.4.2l-.7.5-.8.5-.8.5-.8.4-.4.3-.9.5-.8.4-1 .5-.9.5-.9.5-1 .5-1 .5-1 .5-1.6.7-1.1.6-1.7.8-1.2.5-2 .8-1.2.6-2 1-7.2 3-1.4.6-1.5.7-2 .9-1.4.6-.6.3-1.3.6-.7.3-1.2.6-1.2.6-1.2.6-1.1.5-1.1.6-.6.3-1 .6-1.1.5-2 1.2-1 .6-1 .5-.9.6-.9.6-.9.6-1.7 1.1-.8.6a60 60 0 0 0-3.8 3.1l-.8.7a56 56 0 0 0-2 2l-.7.6-.7.7a59.6 59.6 0 0 0-1.9 2.2 310 310 0 0 0-53 93 1670.5 1670.5 0 0 0-77 263.4 517.6 517.6 0 0 0-1 4.6l-.4 2.3-.5 2.8-.5 2.8-.5 2.8-.6 3.3-.4 2.5-.5 3.2-.4 2.7-.6 4-.6 4.2-.8 5.9-1.3 9.5-2 14.6-.8 6.2-.8 5.9-.8 5.5-.8 5.1-.5 3.6-.6 3.3-.5 3.3-.5 3.1-.5 3-.4 2.4-.5 2.3-.4 2.3-.4 2.2-.4 2.2-.5 2.1-.6 2.7-.3 1.6-.3 1.2a374.7 374.7 0 0 1-2.6 10.8l-.2.9-.4 1.4-.4 1.4-.2.9-.4 1.3-.4 1.4-.3.8-.3 1-.3.8-.3 1-.5 1.2-.3 1-.3.8-.3 1-.4.8-.3 1-.4.9-.4.9-.3 1-.4.9-.4 1-.7 1.4-.4 1-.7 1.4-.7 1.6-.7 1.5-.7 1.6-.8 1.7-.9 1.6-1.1 2.4-.9 1.8-1.3 2.4-1.3 2.6-1.4 2.7-1.8 3.5-4.7 9-1.8 3.5-1.4 2.6-1.3 2.5-1.2 2.4-1.4 2.8-1 2.2-1.1 2-.7 1.6-.7 1.5-.7 1.4-.6 1.4-.6 1.4-.6 1.3-.4 1-.5 1.3-.4.8-.5 1.3-.5 1.3-.3.9-.3.8-.3.8-.9 2.5-.2.8a168.2 168.2 0 0 0-1.1 3.4c-9.7 31.1-9.3 66.8.4 100.3 10.8 37.3 33.4 71.9 65.3 101.7 29 27.3 65 49.7 102.6 64.7a3983.4 3983.4 0 0 0 551.1 174.6l5.4 1.3.2-.3a123 123 0 0 0 15.5-64v-1.2c-1-29.6-14.8-59-37.4-84.3l-.3-.3-.2.1-1.3.4h-.3c-4.3 1.1-8 0-13.3-3.1l-.8-.5-.9-.5-54.7-34-3.7-2.2-3.2-2-2-1.4-1.6-1-1.2-.8-1.4-1-1.4-.9-1-.7-1.3-.9-.6-.4-.7-.5-.6-.5-2-1.4a105.3 105.3 0 0 1-20.1-19.1 89.4 89.4 0 0 1-5.9-8.4l-.3-.6-5.4-2.8-4-2.1-1.7-1-2-1-2-1.2-2.1-1-2-1.2a368 368 0 0 1-9-5.3l-2-1.2-3.1-1.9-2-1.3-1-.6-2.1-1.3-2-1.4a457.1 457.1 0 0 1-4.2-2.7l-2-1.4a503.2 503.2 0 0 1-3.2-2.1l-2.1-1.5-2.1-1.4-2.2-1.6-2.1-1.5-1.1-.8-2.2-1.5-2.2-1.6-1.1-.9-2.2-1.6-1.2-.8-2.2-1.7-2.3-1.7-2.4-1.8-2.3-1.8-2.4-1.8-3-2.4-.8-.5-1-.8-.8-.5-.7-.6-.7-.5-.8-.5-.7-.5-.8-.5-.7-.4-.8-.5-1.2-.8-.8-.5-.4-.2-.8-.5-1.3-.7-.9-.6-1.4-.7-1.4-.8-1.5-.8-1.6-.9-1.7-.8-2.3-1.3-1.9-1-2.6-1.3-5-2.5-2-1-1.8-1-1.7-.8-1-.6-1.1-.5-1.5-.8-1-.6-1-.5-1-.5-.8-.6-.9-.4-1.2-.8-.8-.5-1.2-.7-.8-.5-1.3-.8-1.3-.9-1.3-.8-1-.6-1.3-1-2-1.4-2.2-1.5-6-4.3-1.4-1-1.3-.9-1.3-.8-1.3-.9-1.2-.8-1.2-.8-1.2-.8-1.1-.7-1.1-.7-1.1-.7-1.1-.6-.5-.4-1-.6-2.1-1.1-.6-.4-1.1-.4-1.6-.6-1.6-.7-1.7-.7-1.7-.7-1.8-.7-1.8-.8-1.8-.8-1.8-.8 2.1-5.6c5.4 1.6 10 3.6 15 6.2l.3.2.5.2c6.8 2.6 12.6 4.4 18.4 5.8l.6.1a59.3 59.3 0 0 0 33.1-.7l1-.4.5-.2.7-.3.9-.3.6-.3.6-.3.6-.2.6-.3.7-.3.3-.2.6-.3.6-.3.7-.4.6-.4.7-.4 1-.6.8-.4.7-.5.7-.4.8-.5.8-.5 1.3-.9 1.4-.9 1.9-1.2 5-3.4 1.1-.8 1.3-.8 1.3-.9 2.9-1.8 2-1.3 2.8-1.8 4.5-2.8 3.3-2 3.3-2 2.7-1.7 4-2.5 5-2.9 3.5-2.1 5.2-3.1 5.4-3.2 5.7-3.3 6.8-4 7.2-4.1 9.7-5.5 4.4-2.5.2-.8c9.2-31 26.5-56 51.8-70.8l1.1-.6a32.4 32.4 0 0 1 29.6-1.3c9.5 5.2 10.7 15.5 1.8 26.9a49.8 49.8 0 0 1-4.4 5l-.7.6c-1.6 1.6-3.4 3-5.5 4.6l-.8.6-2.8 2-1 .7-1 .6-.6.4-1.1.7-1.1.7-1.2.7-1.2.7-1.2.7-.7.4-7.2 4.2-7.9 4.6-10.7 6.1-30.3 17.3-.4 1.1a193 193 0 0 0-5.8 34.6l-1.4 17.8-.4 4.6-.2 3.6-.3 4-.2 3.3-.2 3-.1 2.3-.1 2.3-.1 2.2-.1 2.7v3.1l-.1 1.2v7.4c.1 26.9 4.3 48.3 14 65.5l.5.7 18.7 9.8 6.6 3.5 5.2 2.8 2.8 1.5 2 1 2 1.2 3 1.6 2.8 1.6 1.8 1 2.7 1.5 1.7 1 1.7 1 1.7 1 1.3.8a326 326 0 0 1 41.7 28.6c6.7 5.5 13 11.3 18.7 17.4l.5.6.2-.2a26 26 0 0 0 3.5-11l.3-2.8.4-2.4.3-2.4.4-2.3.3-2.4.2-1.2.4-2.3.3-2.4.2-1.2.4-2.3.2-1.2.4-2.4.4-2.4.4-2.3.5-2.4.4-2.4.5-2.4.5-2.5.4-2.4.5-2.4.5-2.5.8-3.8.6-2.5.5-2.5.6-2.6.6-2.6.5-2.6.7-2.7.9-4 .6-2.7.4-1.4.6-2.8.7-2.8.7-2.9.7-2.9 1.1-4.4 1.2-4.5 1.2-4.7 1.2-4.7 1.3-4.9 1.3-5 1.3-5 1.9-7 1.5-5.4 1.5-5.6 8.3-30.3 2-7.9 2.9-10.4 2.1-8.1 1.6-6.2 1.4-5.2 1.3-5 1.3-5.5 1.2-4.7 1-4.6.9-3.4.7-3.3.9-3.8 1.3-5.9.9-4 .5-2.5.6-2.5.7-3.8.5-2.4.8-3.6.4-2.3.5-2.3.4-2.3.4-2.2.4-2.2.2-1.1.4-2.2.2-1 .4-2.2.1-1 .4-2 .2-1.1.3-2 .4-3 .3-2 .3-2 .1-.9.2-2 .3-1.8v-1l.3-1.8v-1l.3-1.8.2-1.8.1-1.8.2-1.8v-.8l.1-1.8.2-1.8.2-5.1v-1.8l.1-3.4v-1.6c0-5.7-.2-11.2-.6-16.8-3.3-40.8-21.7-76.6-52.4-98.5a78 78 0 0 0-40.2-14.2c-4.7-.4-9.4-.5-14.5-.3h-1.4l-1.4.1h-1.4l-.7.1-1.5.1-1.5.2h-1.5l-1.6.2-.7.1-1.6.2-1.6.1-1.7.2-1.6.2-.9.1-1.7.3-1.8.2-1.8.2-1.8.3-2 .3-7.5 1.1-11.8 1.9-3.7.5-6 1-3.8.5-4 .6-3.8.6-4 .6-2.6.4-5.3.8-4 .7-2.7.4-4.1.7-4.2.7-5.5 1-4.3.7-2.8.5-5.9 1-4.4.8-4.5.8-6 1-7.9 1.5-8 1.5-8.3 1.6a231.3 231.3 0 0 0-15.3 3.4l-1.8.5-1.9.5-1.2.4-1.9.5-1.9.5-1.8.6-2 .5-1.8.6-2 .6-1.2.4-2 .7-2 .6-1.2.5-1.4.4-2 .7-1.4.5-2.8 1-2.1.8-3 1-3 1.2-2.2.9-3.2 1.2-2.4 1-2.5 1-4.3 1.6-4.5 1.8-19.7 8-1.3 2.5-1.6 3.3-1.1 2.1-1 2.1-1.1 2-1 2-.6 1-1 2-.5 1-1 1.8-1 1.9-.6.9-1 1.8-1 1.8-.5.9-1 1.8-.5.8-1 1.8-.5.8-1 1.7-.5.9-1 1.7-.7 1.2-.8 1.3-.7 1.2a427.4 427.4 0 0 1-5.1 8.1 136.5 136.5 0 0 1-45.6 43.8l-.9.6-1.4.8-.9.6-1.4.8-.9.5-1 .5-1.3.8-1 .5-1.4.8-1.4.7-1 .5-1.4.8-1 .5-1.6.7-1.5.8-1 .5-1.6.7-1.1.5-1.7.8-1.1.5-1.7.7-1.8.8-1.8.8-1.8.8-2.6 1-2.7 1.2-2.7 1-2.2 1-3.7 1.4-2.3 1-4 1.5-4.3 1.7-1.7.6zm776-616.6-1.2 8.4-.5 3-.3 2.2-.2 1.6-.1 1-.1.7.1.4a34 34 0 0 1 2.4 11.9v.3c0 6.1-1.6 11.9-4.5 17.6l-.3.5v.2a104.6 104.6 0 0 1-2.5 12.4l-.1.5c-4 14.9-11.1 25.7-22.4 32h-.1l-42 41.2-1.4 1.4-.8.8-.9.8-1.2 1.1-.7.7-.8.7-.7.6-.7.6-.7.6-.3.3-.7.5-.7.5-.7.6-.3.2-.7.5-.7.5a36.9 36.9 0 0 1-11.3 5.5l-.5.1-17.8 20.4-5.1 6-5.2 5.9-2.5 3-1 1.1v.1c-2.4 4.8-5.7 9-10 11.8h-.2l-.6.8c-49.2 56.5-108.6 99.5-165.3 112.7l-1.8.4-1.4.3-.7.2-1.4.3-1.3.2-1.4.3-4.8.8-1.4.2-1.4.1-1.4.2-2.8.3-1.5.2h-1.4l-.8.1-1.5.1-1.5.1-1.5.1-1.6.1H961l-1.7.1h-.8l-1.8.1H935.6l-3-.1-4-.1h-1.1l-3.2-.1h-1.6l-3.3-.1h-2.8l-2.8-.1H887.5l-24.8.3h-27l-2.3-.1H831l-2.2-.1h-2.2l-2.2-.1-2-.1h-2.2l-2-.1-2.1-.1-2-.1-2-.1-2-.1-2-.1-2-.2h-1l-1.9-.1-1.9-.2-1.9-.1-1-.1-1.8-.2a418.3 418.3 0 0 1-1 0l-1.9-.2-1.8-.2-1.9-.2-1.9-.2h-.9l-2-.3-1-.1h-1a98.5 98.5 0 0 0-.5-.1l-1-.1h-1l-.4-.1h-1l-1-.1h-3.1l-1.7-.1H768.2l-1.2.1h-2l-2.9.2-7 .3-3.3.1-2.4.1h-2.2l-1.5.1-.6 1.5a473.4 473.4 0 0 1-36 69.6l-1 1.4a419 419 0 0 0-6 9.7l-1 1.7-1.2 2-1 1.6-.8 1.5-.9 1.5-1.2 2.1-.8 1.6-1.2 2.2-1.2 2.2-1.2 2.2-1 1.7-1.2 2.4-1.6 3-1.2 2.4-1.3 2.6-1 2-1.7 3.3-1.8 3.6-1.8 3.6-2.2 4.6-1.6 3.2-3.2 6.8-4 8.1-4.5 9.5-3.6 7.5-1.7 3.6-1.6 3.4-2.4 4.8 8.7-3.5 3.8-1.6 4.6-1.8 3.5-1.4 3.4-1.3 3.3-1.3 2.4-1 3.1-1.1 2.3-.9 3-1 2.2-.9 2.1-.8 2.1-.7 2-.7 2.1-.7 1.3-.5 2-.6 1.3-.5 2-.6 2-.6 1.2-.4 2-.6 1.2-.4 2-.5 1.2-.4 1.9-.5 1.2-.4 2-.5 1.8-.5a237.3 237.3 0 0 1 15.7-3.5l6.6-1.3 9.7-1.8 7.9-1.4 6-1.1 4.6-.8 5.9-1 2.9-.6 4.3-.8 5.7-1 5.6-.9 5.4-.9 4.1-.7 5.4-.8 4-.7 5.2-.8 5.3-.8 3.9-.6 2.6-.3 3.8-.6 3-.4 3.5-.5 16.4-2.6 2.6-.4 2-.3 1.9-.3 1.9-.2 1.8-.3 1.8-.2 1.7-.2 1.7-.2 1.7-.2.9-.1 1.6-.2 1.6-.2 1.6-.1 1.6-.1.7-.1 1.6-.1h.7l1.5-.2h2.2a130 130 0 0 1 16.5.2 84 84 0 0 1 43.2 15.3c32.2 23 51.4 60.4 54.8 103 .4 4.2.6 8.5.7 12.8v1.7c0 4.9 0 9.8-.3 14.8l-.2 1.8v1.8l-.2 1.8-.2 1.9-.1 1.8-.2 1.9-.1 1-.2 1.8-.1 1-.3 1.9v1l-.3 1.9-.4 3-.3 2-.3 2-.3 2-.4 2-.3 2.2-.4 2.1-.3 2.2-.4 2.2-.4 2.2-.4 2.2-.5 2.3-.4 2.3-.5 2.4-.5 2.4-.5 2.4-.5 2.5-.5 2.5-.8 3.8-.6 2.6-.5 2.6-.3 1.4-3.3 14.2-.9 3.8-1.4 6-1.5 6-1 3.8-1.1 4.6-2 7.5-1.5 5.8-1.8 7-3.2 11.7-4.2 15.3-5.1 19-1.5 5.4-2 7.2-1.8 6.9-1.4 5-1.2 5-.9 3.1-.8 3.2-1.2 4.6-1.1 4.6-.8 3-.7 2.9-.7 2.8-.7 2.9-.7 2.8-.7 2.8-.6 2.7-.7 2.7-.6 2.7-.6 2.6-.6 2.6-.5 2.6-.6 2.6-.6 2.5-.5 2.5-.5 2.5-.5 2.4-.5 2.5-.3 1.2-.4 2.4-.5 2.4-.5 2.4-.4 2.4-.4 2.4-.5 2.3-.4 2.4-.4 2.4-.4 2.3-.2 1.2-.3 2.3-.4 2.3-.4 2.4-.1 1.2-.4 2.3-.3 2.4-.2 1.1-.3 2.4-.3 2.4a30.1 30.1 0 0 1-5.3 15l-.2.3.9 1c22.6 25.7 36.4 55.4 37.8 85.7v1.2c.9 23.9-4.4 46.7-15 66.3l-.5.9h.2l5.9 1.4 5.9 1.4 4.2 1 2.1.4 4.2 1 4.1 1 4.2.8 4 1 4.1.8 2 .5 4 .8 4 .9 4 .8 2 .4 4 .8 3.8.8 2 .4 3.9.8 3.8.7 3.8.8 3.8.7 3.8.7 1.9.3 3.7.7 1.9.3 3.7.7 3.7.6c3.7.7 7.3 1.3 11 1.8l3.6.6 3.6.6 3.6.5 3.5.6 1.8.2 3.6.5 5.3.8 3.5.4 3.5.5 1.8.2 3.4.4 3.5.5 3.5.4 3.4.3 1.8.2 3.4.4 1.7.2 3.5.3 3.4.3 1.7.2 3.4.3 1.7.1 3.4.3 13.6 1 2.7.2h2l3.2.2 3 .2 3 .1 2.1.1 3 .1 3.2.1h2l2 .1h2.2l2 .1h7.4l2.2.1h14.4l3.4-.2H1216l2.4-.1h2.4l2.5-.1 3.7-.2h2.5l2.6-.1 2.6-.1 4-.2 5.3-.2 4.2-.2 5.7-.3 7.4-.4 6.1-.3 8-.4 2.6-.2 2-.1 1.6-.2 2.4-.2 3-.4 3.8-.4 9-1 3.3-.4 1.6-.2 2-.2 1.8-.1 1-.1 1.8-.2c1.5 0 2.9-.2 4.3-.3H1317.5v-.4a44.7 44.7 0 0 1 11.9-21.6l.4-.5a73 73 0 0 1 27-16.4l.7-.3 1.2-.4 1.6-.6 1.1-.4 2-.7 2-.7 2.2-.7 2.7-.9 2.5-.8 4.3-1.3 4.2-1.3 10-3.1 3-1 1.8-.5 2.6-.8 2.4-.8 1.7-.6 1.5-.5 2.3-.8 1.5-.5 1.5-.5 1.5-.5 1.4-.5 1.4-.5 1.3-.5 1.4-.5 1.3-.5 1.3-.5 1.3-.5 1.2-.5 1.2-.5.7-.3 1.2-.5.6-.2 1.1-.6 1.2-.5 1.1-.5a152.6 152.6 0 0 0 1.1-.5l1.2-.5 1-.6.6-.2 1-.6 1.1-.5 1-.5.6-.3 1-.6 1-.5 1-.6.6-.3 1-.6 1-.6 1-.6 1-.6.9-.6 1-.6 1-.6c18.7-12.5 31-29 39-50.8l2.2-6.5.3-1 .4-1.3.3-.9.2-.9.4-1.3.3-1 .3-1.3.3-1 .2-.9.4-1.4.3-1.4.2-1 .4-1.4.3-1.5.3-1.6.2-1 .5-2.1.3-1.7.2-1.1.3-1.7.4-2.4.3-1.8.5-3.1.4-2.6.5-2.7.4-2.8.5-3.7.4-3.1.6-4 .5-4.2 1.5-11 .6-4.5.4-3.3.6-3.9.3-2.2.3-1.5.4-2.8.3-2 .4-2 .2-1.4a819.5 819.5 0 0 0 10-225.2l-.5-5.2-.2-2.8-.1-1.4-.4-4.3-.3-2.9-.2-2.9-.2-2.9-.3-4.4-.2-3-.3-3-.1-3-.2-3-.3-4.5-.2-3-.3-4.7-.1-3.2-.2-3.2-.2-4.8-.2-3.2-.1-3.3-.2-5-.1-3.3-.2-5-.2-5.3-.2-5.2-.1-5.3-.2-5.5-.1-4.8-.2-7.5-.2-12.7-.4-18.9-.6-43.4v-6l-.1-2.8-.1-2.7v-4.1l-.2-4.2-.1-4.2-.1-2.7-.2-4.2v-2.8l-.2-4.3-.2-4.2-.2-4.3-.1-3-.2-4.3-.2-2.9-.2-4.4-.2-3-.3-4.4-.1-3-.3-4.6-.4-6.2-.3-4.6-.5-6.4-.3-4.8-.4-4.8-.3-5-.4-5-.4-5-.7-8.6-.6-7-.5-5.3-1-11.8-2-21.3-5.4-58.6-1.5-15.8-1-11.3-.6-7.8-.9-10v.1c-1.9 2.5-4.1 4.8-6.4 6.3l-.7.5-.5.3-.4.3-.4.3-.4.3-.5.3-.4.4-.4.3-.5.4-.4.4-.5.4-.5.4-.7.7-.8.8-.9.8-.9.9-1.3 1.3-2.8 2.8-1 1-.6.6-.8.8-.8.8-.8.7-.5.4-.4.4-.5.4-.5.4-.4.4-.8.6-.2.2a27.8 27.8 0 0 1-12 5.7c-2.8.4-4.9-.3-6.2-1.8v-.1h-.1a24 24 0 0 1-3.8 2h-.4c-7.1 2.9-13.8 2.3-20.4-1a46.4 46.4 0 0 1-10.7-7.8l-.8-.8-.9-.9-.4-.4-1-.9-.9-.9-4.1-4.3-1.2-1.1-1-1-.7-.7c-13.8-13.3-18-30.3-14.1-50.2a144 144 0 0 1 24.3-52.7l1-1.4.6-1 1-1.4 1-1.4 1-1.5 1.2-1.5 1.1-1.5 1.2-1.6 2-2.5 1.8-2.3 2.3-3 8.1-10.2 2.8-3.5 2.3-3 1.7-2.2.6-.8 1.5-2 2-2.7 1.9-2.6 1.2-1.7 1.2-1.7 1.2-1.6 1.1-1.6.6-.8 1-1.6.6-.8 1-1.5 1.1-1.5 1-1.5.6-.8 1-1.5 1-1.4.4-.7 1-1.5.8-1.4 1-1.4.8-1.4.9-1.4.8-1.4.9-1.4.8-1.4.8-1.3.4-.7.7-1.4.4-.7.8-1.3.7-1.4.8-1.4.4-.7c9-17 14.6-33.2 16.7-49.7l.4-3 .5-4.5.6-5.6.4-3.8.6-5.3 2.3-22.7.4-3.3.5-5.4.4-3 .4-4 .4-3.8.4-2.8.3-2.7.5-3.5.3-2.5.3-2.5.3-1.7.3-2.4.3-1.6.3-2.3.3-1.6.3-2.3.4-2.2.4-2.3.3-1.5.4-2.2.4-2.2.4-2.2.3-1.3.2-1 .4-1.7.3-1.6.4-1.6.4-1.6.3-1.1.3-1.1.2-1.1.5-1.8.5-1.7.3-1.2.6-1.9.5-1.9.6-2 .7-2 .8-3 .8-2.2 3.2-10 1.3-4.3.8-2.7.8-2.6.7-2.5.4-1.2.5-1.7.5-1.7.4-1.6.4-1.6.3-1 .5-2 .3-1 .2-1 .3-1.5.3-.9.2-1 .2-.9.2-1.3.3-1.4.3-1.4.1-.9.2-1.3.2-1 .1-.8.2-1 .1-1.3.2-1 .2-1.8a223 223 0 0 0-.3-49.4 410 410 0 0 0-.9-7.2v-.9l-.3-1.8-.2-1.3-.3-2.3-.3-2-.3-2.4-.4-2.6-.4-2.7-.6-3.3-.8-4.9-.7-3.9-.7-4.2-1.4-7.7-2-11.6-1.3-7.3-.9-5.2-.7-4.4-.3-2.4-.4-2.3-.3-2.2a526.5 526.5 0 0 1-1.7-140l1-7.5.3-3.3.5-4.1.4-3 .2-2 .3-2.9.4-3.6.3-3.6.1-.9-.3-1.6-.3-1.5-.3-1.4-.3-1.4a180.1 180.1 0 0 1-.1-.6l-.3-1.3-.2-1.3-.1-.6-.2-1.3-.2-1.2-.2-1.2-.2-1.3v-.6l-.2-1c-1.2-10-1-18.8.9-27.1a64.6 64.6 0 0 1 3-9.7l.2-.4a167.9 167.9 0 0 0-9-44l-.4-1-.4-1.2c-4-10.4-8.8-16.8-15.4-19-6.3-2-11.8-1.4-17.3 1.2l-.6.2-.5.3-.5.3a34.1 34.1 0 0 0-.5.2l-.5.3-.2.2-.5.3-.3.1-.5.4-.5.3-.5.4-.6.3-.5.4-.5.4-.6.5-.6.4-.6.5-.6.5-.7.5-1 .8-.7.6-1 1-1.2 1-2.9 2.5-1.6 1.4-1.2 1-1.1 1-.7.6-1 .8-.7.5-.6.5-.3.2-.7.5-.3.2-.6.5-.3.2-.5.4-.6.4-.3.1-.6.4-.2.2-.6.3-.6.3-.3.2-.5.3-.6.3-.6.3-.6.3-.2.1-.6.3-.4.1c-8.4 3.7-17.8 3.6-24.6-1-2.2-1.4-3.9-3-5.8-5.3l-.4-.5-.5-.7-.5-.6-.5-.7-.6-.8-.5-.7-.6-.9-1.7-2.4-.7-.9-.5-.8-.5-.7-.4-.4-.3-.4-.3-.4-.3-.4-.3-.3-.3-.4-.3-.3-.2-.2a52.5 52.5 0 0 0-.5-.5l-.5-.5-.5-.5-.5-.5-.6-.5-.6-.6-1-.9-3.5-3.2-1.1-1-1-1-.7-.6-.6-.6-.4-.4-.6-.6-.6-.6-.4-.4-.5-.7a55 55 0 0 1-.3-.3l-.5-.6-.5-.6-.5-.6a31 31 0 0 1-4.7-8.9l-.3-.7a59.2 59.2 0 0 1-.3-.9l-.3-.8-.1-.5-.3-.9-.1-.4-.3-1-.4-1.5-.2-1-.5-1.7-.2-1-.2-.5-.1-.5v-.2l-.2-.5-.2-.4c-.8-2-1.6-2.8-3.3-3.2h-.3a5.3 5.3 0 0 0-1.3-.1h-.3l-.5.1h-.4l-.2.1-.5.1-.5.2h-.5l-.5.2-1 .3-1.6.5-.8.3c-3 .8-5 1.1-7.2.8-3.5-.4-6.2-2.6-8.1-6.4a12 12 0 0 1-1.3-5.2v-.6a36.6 36.6 0 0 1 0-1v-2.7l.1-1.2.1-1.3.2-1.3.7-8.2.2-2 .1-1.4.1-1.3.1-1.2v-.8l.1-1.2V245l.1-1v-2.5a70.2 70.2 0 0 0 0-1.4v-1c-.6-11.2-4-18-11.4-21h-.3a32.3 32.3 0 0 1-20.4-20l-.3-.7v-.3l-.3-.7-.2-.7-.3-.7-.2-.7a48 48 0 0 1-.2-.7l-.1-.7-.2-.7-.1-.4-.2-.7a53.7 53.7 0 0 1 0-.4l-.2-.7-.1-.8-.2-.8-.1-.8-.1-.8-.2-.9v-.8l-.2-1v-.9l-.2-1v-1l-.1-1-.1-1-.2-1.7v-1.7l-.2-1.8v-2l-.3-4.5-.1-1.8-.1-1.7-.1-1.6-.1-1-.1-1.4-.1-1-.1-1.3-.1-.8-.1-.8-.1-.8-.1-.7-.1-.8v-.3l-.3.6a61.5 61.5 0 0 0-5.3 32.2v.7l1.9 14.5-7.4-12.7c-17.8-30.7-14.2-72.6 7-105.5 25.8-40.4 78.3-75.4 124.5-82 46.1-6.6 96.2 19.5 115.4 61l.6 1.3.6 1.3.5 1.4.6 1.3.6 1.3.5 1.3.6 1.3.6 1.4.5 1.3.5 1.4.6 1.3.5 1.4.5 1.3.5 1.4.6 1.4.5 1.4.5 1.5.2.7.8 2.1.5 1.5.5 1.5.5 1.5.5 1.5.5 1.5.5 1.6.7 2.3.7 2.5.5 1.6.8 2.5.5 1.7.5 1.7.7 2.6.8 2.7.7 2.7.5 1.9 1 3.8.8 3 1 4 .8 3 2.2 8.6 4 16 1.6 6.5 1.3 5.3 1 3.6.7 3 1 3.8.3.8.2.7a11.9 11.9 0 0 1 .1 6.2v.3l.7.8a260.1 260.1 0 0 0 6.8 7.4l1.4 1.5.5.6.5.5.4.5 1.2 1.4.4.6.2.3.4.6.5.6.4.6.2.3.4.7.2.4.5.7.2.3.5.8.4.8.5.9.5.9.5 1 1.8 3.1.4.9.7 1.2.4.8.4.7.4.6.4.7.4.6.2.3.3.6.4.5.4.5.1.3.4.5.2.2.3.5.2.2.4.5.4.4.3.5.4.4.4.4.2.2 2.6 2.6 2.1 2.3 3 3 4.3 4.3 5 5 12.2 12 1.1.2c26 6.8 50.8 18.2 73.2 33.5l1.1.8c31 21.4 54 53.3 71.1 95l.8 2 .4 1 .8 2 .8 1.9.7 2 2 5 .6 2 .8 2 .3 1 .7 2 .4 1 .7 2 .6 2.1.4 1 .7 2.1.6 2.1.4 1 .6 2.2.7 2.1.6 2.2.6 2.1.3 1.1.7 2.2.6 2.2.6 2.2.6 2.3.3 1 .6 2.4.3 1.1.6 2.3.6 2.3.6 2.4.3 1.1.5 2.4.6 2.4.3 1.2.6 2.4.5 2.5.6 2.5.3 1.2.8 3.8.8 3.8.6 2.6.5 2.6.5 2.7.6 2.6.5 2.8.8 4 .6 2.8.5 2.8.8 4.3.5 2.9c8.3 44.8 10.2 91 7 142.8l-1.4 18.5-.2 2.3-.3 3.8-.3 2.8-.3 3.8-.4 3.9-.3 2.9-.3 2.9-.4 4-.3 3-.5 4-.4 3.2-.6 5.3-.5 4.3-.6 4.5-.6 4.6-.6 4.8-.8 6-.7 5.2-1.1 7.9-1.2 8.3-1.3 8.8-1.8 12.5-1.2 8.2-2 13.7-.7 4.7-.9 6.1-.7 5-.6 4.8-.5 3.8-.4 3-.3 2.8-.4 2.8-.2 2-.4 3.4-.3 2.6-.3 3.2-.3 3-.2 2.5-.2 2.4-.2 2.4v1.8l-.2 1.3a390.6 390.6 0 0 0-.2 3.2v2l-.2 1.8a414.4 414.4 0 0 0-.2 6.5 222 222 0 0 0 8.8 74.7l1 3.2 2.8 8.2.3 1 .5 1.4.5 1.8.6 1.6.3 1.2.3 1.1.2.8.3 1 .2.8.3 1 .1.4c2.8 11.3 3 20.5-.2 29.1a37.6 37.6 0 0 1-12.1 16l-.3.3v.1c7 15.6 6.1 36-1 60.5l-.2.8-.4 1.5-.5 1.5-.2.8-.5 1.5-.2.8-.5 1.5-.5 1.5-.3.8-.5 1.5-.5 1.5-.6 1.5-.5 1.5-.6 1.5-.6 1.5-.6 1.6-.3.7-.6 1.6-.6 1.5-.6 1.6-.4.8-.6 1.5-.7 1.6-.7 1.6-.7 1.7-.7 1.6-.4.8-1.1 2.6-.8 1.7-.8 1.7-1.3 2.7-.8 1.8-1.3 2.7-1 1.9-1.8 3.8-1.5 3-1.5 3a438.4 438.4 0 0 0-37.9 121.4l-.5 2.8-.3 2.3-.4 2.3-.6 3.4-.3 2.3-.4 2.3-.3 2.3-.3 2.3-.4 2.3-.3 2.3-.3 2.4-.3 2.3-.5 3.6-.3 2.3-.2 2.4-.3 2.4-.3 2.4-.3 2.5-.2 2.4-.3 2.5-.3 2.4-.2 2.5-.4 3.8-.2 2.5-.4 3.9-.2 2.5-.3 4-.2 2.6-.2 2.6-.2 2.7-.3 4-.3 4.2-.2 2.7-.3 4.2-.2 4.3-.3 4.3-.3 5.9-.2 4.5-.3 4.5-.3 6.2-.3 6.2v1.6c-4.3 99.7-3.7 199.7 1.8 299.5l.2 3.8v.3a88.5 88.5 0 0 0 1.2 4.3l.3 1.1c0 .2 0 .4.2.6l.3 1.2.4 1.2.4 1.3.4 1.3.4 1.3.5 1.3.5 1.4.5 1.5 1.1 3 2.9 8 1.1 3 .8 2.4.7 1.8.5 1.6.3 1 .4 1.1.3.9.3 1 .3 1.1.2 1 .2.5.8 3.9.5 2 .4 2.2.4 2 .3 2 .6 3 .5 2.8.4 1.9.3 1.8.3 1.9.3 1.8.4 2.6.4 2.6.3 1.7.2 1.6.2 1.7.3 1.6.2 1.6.2 1.6.1 1.5.1.8.2 1.6.1 1.5.2 1.5.1 1.5.1 1.5.1 1.4.1 1.5v.7l.1 1.5.1 1.4v1.4l.1 1.5V1801.5l-.1 3.8v4.9l-.1 4v20.8l.1 7 .1 6.6.2 7 .2 11 .2 11.3 1 43.5.3 11v2.6l.2 1.2.4 2.6.3 1.4.3 2 .4 2.3.3 1.5.3 2 .5 2.5.5 2.7.7 3.4.5 2.3.7 3.2.7 3.3 1 5 2.8 12.5.6 2.4.7 3.6.2.6.4.4c5.5 5 9.4 11.4 12.4 19.4l.2.6.3 1 .3.9.4.9.2 1 .3.9.3.9.2.5.2 1 .2.5.2 1 .1.5.3 1 .1.6.3 1.1.3 1.2.2 1.2.4 2 .5 2.3.6 3.1 1.1 6 .3 1.4.4 2 .4 2 .4 1.8.2 1.2.4 1.7.4 1.7.2 1.1.3 1 .3 1.1.2 1 .3 1 .1.5.3 1 .2.4.2 1 .3.8.3 1 .1.3.3.9.3.8.4.8.1.4.3.8.8 1.9.4.7.3.7.4.7.4.7 1.1 2 .4.7.2.3.4.6.5.7.4.6.5.6.2.3.5.6.5.6.5.6a50.6 50.6 0 0 0 26 15.6l1 .3 5.8 1.4 1.2.3 5.1 1 1.3.1 1.4.3 1.4.2 1.4.2h.8l1.4.3 1.6.1 1.5.2.8.1 1.7.2 1.6.2 6.8.6 5.6.6 6.1.6 5.9.5 4 .3 3.8.3 4.4.4 3.5.2 2 .1 3.3.3 2.6.1 2 .1 2.4.1 2.4.1 2.4.1 2.3.1h2.3l2.8.1h2.2l2.2.1h12.8l3-.1 4-.2 18.2-.6 5-.1 3.8-.1 4.9-.2h3.6l3.7-.1h3.8l3.7-.2H1992.8l5.7-.1h1.5v6H1986.1l-5.2.1h-3.8l-3.7.1h-3.7l-3.7.1-2.5.1h-3.6l-5 .2-5 .2-17.1.6-4.4.1h-3.2l-2.4.1h-2.4l-1.9.1h-13.3l-2.6-.1-2.6-.1h-1.4l-2-.1-1.4-.1-2.1-.1-2.9-.1-3-.2-2.2-.2-2.3-.1-3.2-.2-3.3-.3-3.4-.2-3.5-.3-2.7-.2-3.8-.4-3.9-.3-4-.4-4.2-.4-5.5-.5-4.3-.5-1.7-.1-1.7-.2-1.6-.2a290.8 290.8 0 0 1-.8-.1l-1.6-.2-1.5-.2-1.5-.2-.8-.1-1.4-.2-1.4-.2-1.4-.3c-5.7-1-10.7-2-15.5-3.6a56.4 56.4 0 0 1-27.1-17 57.4 57.4 0 0 1-10.5-19.6l-.2-.8-.3-.7-.2-.8-.4-1.2-.2-.8-.3-1.2-.3-1.2-.2-.8-.4-1.3-.2-1-.3-1.3-.3-1.5-.3-1.5-.3-1.6-.4-1.7-.6-3-1.1-6.2-.5-2.7-.3-1.3-.3-1.7-.3-1.2-.4-1.9v-.5l-.3-1.1-.3-1.1-.2-1-.2-.5-.2-1-.3-1-.2-.9-.3-.9-.1-.4-.3-.9-.3-.9-.3-.8-.3-.9a92 92 0 0 0-.1-.4 53 53 0 0 0-4.5-9.5l-.4-.7.3 1.8.5 2.3.2 1.1.4 2.2.7 4.3.3 2 .4 2 .1 1 .3 2c1.4 10.3 2.1 19.4 2.2 29.1v7.3l-.1 1.2c-.6 12.6-3.4 21.4-10 28.3a35.5 35.5 0 0 1-17.5 9.6 63.5 63.5 0 0 1-3.2.7l-1 .2h-.4l-1 .3-2 .3h-1l-1 .2h-.6l-1.1.2-1.2.1-1.2.1-1.2.1-1.3.1h-1.3l-1.4.2h-.7a8814 8814 0 0 1-45.6 2.5h-1a68.8 68.8 0 0 1-.4 0l-.9.1c-5.6.1-9-.7-12-3.5-2.9-2.6-4-5.6-4.2-10v-.2a39.2 39.2 0 0 1-17.7 11l-.6.2a87 87 0 0 1-30 3.3h-1.7l-1.6-.1-1.7-.1-1.7-.2c-1.8 0-3.5-.2-5.4-.4l-1.8-.2-2-.2-2-.2-2.2-.3-2.1-.2-3-.4-3.7-.5-16.7-2.3-3.7-.5-1-.1-1.1-.2-2-.2c-5.6-.6-11.4-.7-17.6-.6h-1.6l-1.6.1h-1.6l-1.6.2h-1.3l-2 .2-1.8.1-1.7.2-2.4.2-3 .3-4 .4-4.3.5-13.7 1.6-3.2.3-2.4.3h-1.2l-11.3 1-2.7.1-2.6.2-2.3.1-2.4.1-2.9.2-3.5.1h-2.5l-2.7.2h-3.3l-4 .1-6.4.1h-7.1l-10.6.1h-12.3l-2.4.1c-7.5 0-12.8-1.6-14.9-6.8-1.6-4 0-8.7 3.3-11.8 1.2-1.1 2.3-2 4-2.9l.5-.3.7-.3.7-.4.7-.4 2.3-1a58.4 58.4 0 0 0 24.8-22l.5-.8.5-.8.5-.8.5-.8.4-.8.3-.4.4-.9.3-.4.4-.9.5-.9.4-.9.2-.4.5-1 .2-.4.4-1 .5-1 .2-.5.5-1 .2-.6.7-1.6.4-1.1.5-1.2.7-1.8.4-1.2.5-1.3.8-2 .5-1.4.8-2.2 2.7-7.6.2-.8.2-.3.2-.7.3-.7.2-.3.2-.7.4-.7.3-.7.3-.7.4-.7.4-.8.2-.4.4-.7.4-.8.5-.8.4-.9.5-.9.9-1.4.9-1.5 2.1-3.6 1-1.7.6-1 .5-.8.6-1 .4-.8.4-.7.2-.5.5-.9.3-.6.3-.8.3-.6.4-.8.2-.6.3-.7.3-.6.5-1.6 2-4.9.1-.5-.5.5a108.3 108.3 0 0 1-9.2 6.9l-.7.4-1 .7-1 .7-1 .6-1 .6-1 .7-.6.3-1 .6-1 .6-.6.3-1 .6-1 .5-1.1.6-.6.3-1 .6-1.2.5-1 .6-1.2.5-.6.3-1.1.5a159 159 0 0 1-.6.3l-1.2.5-1.2.6-1.2.5-1.2.5-1.3.5-1.2.6-1.3.5-1.3.5-1.3.5-2 .8-1.5.5-1.4.5-1.4.5-1.5.6-1.5.5-1.5.5-2.3.8-1.6.5-2.5.8-1.7.6-2.5.8-2.7.8-5.5 1.8-10.1 3-5.1 1.7-3 1-2.3.7-2.2.7-2 .7-2 .7-2 .7-2.4.8a68 68 0 0 0-25.5 15.4c-5 5-8.6 11.1-10.2 17.4l-.2.6h.3c4.3 0 8.2.3 12 .9l4.6.7 1.7.3.8.1c2.8.5 5.3 1 7.6 1.6 9.5 2.5 16.5 6.4 20.8 12.7 3.5 5.4 4.2 12 .1 16-2.3 2.2-5 3-9.3 3l-2.5.2h-9.8l-1-.1h-1a88.6 88.6 0 0 1-.6-.1l-1-.1h-1l-1-.2a91 91 0 0 1-.5 0 32.7 32.7 0 0 1-17.9-6.2 28.3 28.3 0 0 1-9.2-22v-.6h-.1c-1.9 0-3.9.2-6 .4l-1.7.2h-1l-1.8.2-1.5.2-4.2.4-10.4 1.2-3.6.4-2.3.3-1.8.2h-1.2l-1.6.2-1.2.1h-1l-1.2.1-6.1.4-5.5.3-6.7.3-5.1.3-3.8.2-5 .2-4.7.2-4.7.2-4.5.1-3.4.1-4.4.2-4.3.1-4.2.1h-5l-3.1.1h-6l-1.9.1h-14.2l-1.8-.1h-2.8l-2.7-.2h-2.7l-2.8-.1-2.7-.1h-.9l-2-.2a651 651 0 0 1-10.3-.5 811.2 811.2 0 0 1-15.4-1.1l-3.5-.3-3.4-.3-3.4-.3-1.8-.2-3.4-.3-1.7-.2-3.5-.3a866.5 866.5 0 0 1-3.5-.4l-3.4-.4-3.5-.4a889.5 889.5 0 0 1-1.8-.2l-3.5-.4-3.5-.5-3.5-.4-3.6-.5-1.7-.2-3.6-.5-1.8-.3-3.6-.5-3.6-.5-1.8-.3-3.6-.6-3.6-.5-1.8-.3-3.7-.6-3.7-.6-3.7-.6-5.5-1-3.8-.7-3.7-.7-3.8-.7-3.8-.7-2-.3-3.8-.8-3.8-.7-4-.8-3.8-.8-4-.8-4-.8-4-.8-2-.5-4-.8-4-.9-4.1-.9-2-.4-4.2-1-4.1-.9-2.1-.5-4.2-1-4.3-.9-2-.5-11.8-2.7-2-.5c-8.2 13-18.8 24.4-31.7 33.5l-1 .7c-19 12.9-43.5 19.4-72.9 20.7-23.1 1-47.9-1.1-76.2-5.8a571.1 571.1 0 0 1-115.3-30.9l-3-1.2-15.4-6.3-5.2-2-3-1.2-2.2-1-2.3-.8-2.2-.9-2.1-.8-2.2-.8-2-.8-2.1-.8-2-.7-1-.4-2-.7-2-.7-2-.7-2-.6-1-.3-1.8-.7a309.7 309.7 0 0 0-5.6-1.7l-1.9-.6-2.7-.8-1.8-.5a239.7 239.7 0 0 0-7-1.8l-1.8-.5-1.7-.4-.9-.2-1.7-.4a209.7 209.7 0 0 0-6-1.2l-1.8-.3a208.2 208.2 0 0 0-7.8-1.2l-1.5-.2-4.3-.6-4-.5-7.5-.8-8.9-1-4-.5-3.7-.4-3.6-.5-4-.5-3.2-.4-1.8-.3-2.4-.3-2.8-.4-2.2-.4-2.1-.3-1.6-.3-1.5-.2-2-.4-1.4-.3-1-.2-1.4-.2-1-.2-1.3-.3-1.4-.4-1.8-.4-1.4-.3-1.9-.5-.9-.2-3.3-.9c-12-3.2-23-7.7-32.9-13.2l-.5-.3a101 101 0 0 0 29.5 27l.9.5 1.2.7 1.2.7 1.3.6 3.8 2.1 1.9 1 1.6 1 1.2.6 1 .6 1 .6.7.4.6.4.6.4.6.4.6.3.2.2.6.4.5.4.5.4.3.2.5.4.5.4.8.6c7.7 6.4 12.4 15 11.8 23.6-.8 11.2-7.3 19.3-18.3 24.6-8.7 4.2-20 6.5-33.9 7.5h-1.5l-1.3.2h-1.2l-1.3.1h-2l-1.2.1H451l-1.3.1H438.3l-3.2-.1h-3.3l-12.2-.5h-10.3l-2.3-.1H404l-1.4-.1-1.4-.1H400l-1.3-.1-1.3-.1h-.6l-1.3-.2h-.6l-1.2-.1-1.1-.1-1.2-.1-.6-.1-1.1-.1-1.1-.2-1.1-.1-1-.2h-.6l-1-.2-1.1-.2-1-.2-1-.2-1.1-.2-.5-.1-1-.2-1-.3-.5-.1-1-.3c-11.6-3-22-8.1-32.6-16.5l-.4-.3a59 59 0 0 1-26.3 15.3l-1.4.5-1.4.4-1.5.5-.8.2-.6.2c-5.6 1.6-11.7 3-18.3 4.2l-2 .4-1.8.3-3 .5-2 .3c-2.7.5-5.5.8-8.3 1.2l-2.1.3-1.1.1-2.2.3-2.2.2-1.2.2-2.2.2-2.3.2-2.3.3-2.3.2-2.4.2-2.4.2-1.2.1-2.4.2h-1.3l-2.4.3-2.5.1-1.3.1-2.5.2-2.6.1-8.6.5h-1.4l-6.4.3-2.9.1-3 .1-4.4.2H206l-4 .1-4 .1h-3.3l-6 .1h-5.4l-8.7.1H144l-4.2.1h-1.6l-2.7.2H133l-2 .2-1.8.1-2.6.2-2.7.1-1.8.1-2.7.1-1.8.1-2.7.1h-2.8l-2.8.2h-4.8l-2.8.1h-29l-3.6-.1-3.7-.1-22-.5-12.8-.3-9.3-.2-6.4-.1H6l-3.5-.1H0v-6h12.2l6.6.2 8.2.1 12.7.3 21.7.5 4.1.1h3.7l4.8.1h3.4l4.5.1H107.3l2.8-.2h4.6l1.8-.2h1.8l1.8-.1 2.7-.1 1.7-.1 1.8-.1 2.6-.2h1.7l2.9-.2 1.7-.1 2-.1h3.3l4.4-.1h25.6l7-.1H189.7l3.4-.1h5l5.6-.2h4.6l3.8-.2h3l3.6-.2 2.8-.1h2.2l1.4-.2 10-.5h2l4.8-.4 3.2-.2c49.2-3.4 82.2-11.3 93.9-24.5l.2-.3-.3-.3a123.4 123.4 0 0 1-38.5-62.8l-.1-.8a145 145 0 0 1-.4-1.7l-.2-.8-.3-1.2-.2-1.3-.2-.9-.2-1.3-.3-1.4-.2-1.4-.3-1.5-.3-2-.3-2.3-.3-1.8-.4-3.2-.7-5.2-.3-2-.4-2.7-.2-2-.3-1.7-.4-2.4-.3-1.6-.2-1.6-.3-1.6-.2-1-.2-1-.2-.9-.2-1-.3-1.3v-.4l-.3-.9-.2-.9-.2-.8-.2-.8-.3-.8-.2-.8-.2-.8-.2-.8-.3-.7-.2-.8-.3-.7-.3-.8-.2-.7-.3-.7-.3-.7-.3-.8-.3-.7-.3-.7-.5-1-.3-.8-.4-.7-.3-.7-.4-.7-.3-.7-.2-.3-.4-.7-.4-.7-.3-.7a69.2 69.2 0 0 0-.2-.3l-.4-.7a68.8 68.8 0 0 0-.2-.3l-.4-.7-.5-.7-.4-.7-.4-.6-.5-.7-.5-.7-.5-.7-.5-.8-.5-.7-.6-.7-.6-.8-.5-.8-.7-.8-.6-.8-.7-.9-1-1.3-1.2-1.4-1.1-1.4-1.7-2-4-4.9-.8-.8-1.6-2-1.5-1.9-.8-1-.8-1-1-1.3-.9-1.2-.6-.9-.7-.9-.6-.9-.4-.5-.6-1-.6-.8-.4-.6-.2-.3c-17.9-27.8-11-70.6 16-87.8 9.7-6.3 20.8-8.1 29.3-3.3 6.7 3.8 10.9 11.4 12 20 .5 3.8.5 7.6 0 12.2v1.4l-.2 1.6-.2 1.9-.6 4.6v.5a221 221 0 0 0 6.9 85.2l.3 1.2a184.2 184.2 0 0 1 1.7 6.3l.4 1.8.4 1.5.3 1.4.5 2 .5 2.3.4 2.2.6 2.7.5 2.5 1.3 7 .7 3.6.5 3 .6 2.8.5 2.7.4 2 .4 1.8.5 2.3.3 1.7.4 1.6.4 1.6.3 1.5.4 1.5.4 1.5.4 1.4v.4l.3 1 .3.9.4 1.3.2.9.3.8.3.9.3.8.2.9.3.8.3.9.3.8.5 1.3.3.8.3.9.4.8.3.9 1.1 2.8 3.2 7.5 1 2.6 1 2.4.5 1.4.5 1.3.5 1.2.6 1.5.4 1.2.4 1 .2.8.4 1 .2.8.3 1 .3 1.1.2.7c2.2 7.8 3 14.9 2.3 21.8a22.2 22.2 0 0 1-2.3 7.7l-.1.2.1.1c10 8 19.6 13 30.2 15.7l.7.2 1 .3h.5l1 .3.4.1 1 .2 1 .2 1 .2.9.2h.5l1 .2 1 .2 1 .2h1.1l1 .2 1.1.1.6.1 1.1.1 1.1.1 1.2.1 1.2.1 1.2.1h1.2l1.3.1 2 .1h1.3l1.4.1h1.4l1.4.1h2.2l2.4.1H419.4l2.5.1 9.2.3h2.5l2.4.1h3.1l1.5.1h12.1l1.3-.1h1.2l2-.1h1.2l1.8-.2h.6c29.5-2 46.3-10 47.5-26.6.5-6.3-3.1-13-9.3-18.3l-.6-.4-.4-.4-.5-.4-.5-.3-.4-.4-.5-.4-.8-.5-.5-.3-.5-.4-.8-.5-.6-.4-.9-.5-.6-.4-1-.6-.8-.4-1.1-.6-1.7-1-1.9-1-3.3-1.8-1.7-.9-1-.6-.8-.5a109 109 0 0 1-39.4-40.2l-.3-.6a88.3 88.3 0 0 1-19.2-20l-.4-.6c-15.5-23.2-16.3-54.8 0-75l.5-.5 2.8-3.4 2.1 3.8a52.9 52.9 0 0 1 6.5 22.7v.6l.1.8v.8l.1.8v.9l.1.8v3.3l.1 1.6V1947.6l.1 1.3.1 1.3v.9l.1.8v.8l.1.7.1.8v.7l.2.8v.7l.2.7v.8l.1.3.2.7v.8l.2.7.2.7.1.7 1 4a110 110 0 0 0 9 21.7l.2.5.5.4c11.5 8.5 25.6 15 41.5 19.4l1.3.4 1.4.3 1.4.4 1.4.3.9.3 1.8.4 1.4.3 1.8.4 1.4.3 1.4.3 1.4.3 1.4.3 1.5.2 1.5.3 1 .2 2 .3 2.2.4 2.2.3 2.8.4 2.4.3 3.1.5 3.3.4 3.5.4 3.7.5 4.7.5 14.5 1.7 5.7.6 3.4.5 2.7.3a214 214 0 0 1 14.1 2.4l1.8.4 1.8.4 1.8.4.8.2 1.8.4 1.8.4a239.8 239.8 0 0 1 2.7.7l1.8.5 3.7 1 1.8.6 1 .2 1.8.6 1 .3 1.8.6 1 .3 2 .6.9.3 2 .7 1.9.6 2 .7 1 .4 2 .7 1 .4 2.1.7 2.1.8 2.1.8 1.1.4 2.2.8 2.2.8 2.2.9 2.2.9 3 1.1 3 1.2 5.2 2.2 16.4 6.6c33 13.4 74.5 24.4 115.4 31.1 28 4.6 52.3 6.8 75 5.7 28.3-1.2 51.8-7.5 69.7-19.7 12-8.2 22-18.6 29.7-30.5l.2-.2-3.6-.8a3989.5 3989.5 0 0 1-546.3-172.7l-5.6-2.2a338.2 338.2 0 0 1-104.5-65.9c-32.6-30.5-55.9-66-67-104.4a183.7 183.7 0 0 1-.7-102.8l.5-1.4.3-.9.4-1.3.4-1.3.3-.9.4-1.2.5-1.3.5-1.3.3-.8.3-.9.5-1.3.5-1.3.6-1.3.5-1.3.6-1.3.4-1 .4-.8.6-1.4.5-1 .9-1.9.7-1.5 1-2 1-2.1.8-1.7 1.5-2.8 1.5-3 2-4 2.2-4 2.7-5.2 1.9-3.6 1.8-3.4 1.3-2.6 1.3-2.5.9-1.8 1.1-2.3.6-1.1 1-2.2.5-1 .5-1.1.8-1.5.6-1.6.7-1.4.9-2 .4-.9.5-1.4.4-.9.4-.9.3-.9.6-1.3.3-.9.3-.8.3-1 .5-1.2.3-.9.3-.8.4-1.3.3-.9.3-.8.2-.9.4-1.3.3-.9.3-1.3.3-.9.3-1.3.3-1.2.6-2.4.7-2.8.4-1.6.6-2.7.5-2.2.4-2.2.5-2.2.4-1.7.2-1.1.4-2.3.4-1.8.5-3 .4-2.4.6-3.2.4-2.6.4-2.7.6-3.4.5-3.7.6-3.7.6-4 .4-3.3 1.1-8 1.2-8.5 1.4-10.8 1.1-8.1 1-6.6.7-4.9.6-4 .5-3.2.5-3.6.6-3.4.7-3.8.5-2.8.5-2.8.3-1.4 1.1-5.7c18.5-90 44.3-178.5 77.3-264.2a504.7 504.7 0 0 1 2-5.1l1-2.6c14-34.5 29.7-61.8 51-87 4.7-5.6 9.8-10 16.5-14l1-.7.5-.3 1-.6 1.1-.6 1.1-.6 1.1-.6 1.2-.6 1.1-.6 1.2-.6.6-.3 1.3-.6 1.2-.6 1.3-.6 1.4-.6 1.3-.6 1.4-.7 1.5-.6 1.4-.7 8.6-3.7 2-.8 1.8-.9 1.2-.5 1.7-.8 1.1-.5 1.1-.5 1-.5 1.5-.7 1-.5 1-.4.8-.5.9-.5.8-.4.5-.2.8-.5.8-.4.4-.3.7-.4.8-.5.7-.4.3-.2.7-.5.7-.5.3-.2.7-.5.7-.4.6-.5.6-.5.4-.2.6-.5.6-.5.3-.3.6-.5a40.8 40.8 0 0 0 14.2-25.8l.1-.4-.4-.2c-5.3-2-10-5.3-14.3-9.6l-.4-.5-.6-.5-.5-.5-.2-.3-.5-.6-.5-.5-.5-.5-.4-.6-.5-.6-.5-.6-.5-.6-.4-.6-.5-.6-.5-.6-.7-1-.7-1.1-.8-1.1-.8-1.2-.8-1.3-.9-1.3-1.2-1.9-.9-1.5-3-5-1.2-1.7-1.2-2-1-1.4-.8-1.3-.6-.9-.4-.5-.6-.9-.5-.8-.6-.8a80.1 80.1 0 0 0-.2-.2l-.4-.5-.4-.5-.3-.5-.8-1-.5-.6-.4-.7-.3-.3-.4-.7a51.6 51.6 0 0 1-.2-.3l-.5-.7a54 54 0 0 1-.2-.3l-.4-.7-.5-.8a68 68 0 0 1-.6-1.1l-.4-.8-.5-.8-.4-.8-.4-.9-.3-.4-.4-1-.5-.9-.2-.5-.5-1-.4-1-.8-1.7-2.9-6.6-.8-1.9-.6-1.3-.5-1.2-.4-.8-.4-.8-.4-.8-.2-.5c-18.9-37.1-26-73.7-19.4-109.2a138.7 138.7 0 0 1 54.6-84.3c26.5-19.6 60-31 95.3-33.3 51.6-3.3 94.5 10.9 120 45l.8 1.2.5.7.9 1.3 1.3 2.1 1.4 2.1 1.2 2 1 1.6.7 1.1.7 1.1.5 1 .3.5.8 1.3.5 1 .4.7.5.8.3.8.4.7a40.1 40.1 0 0 1 1.5 4.2c.2.7.2 1.4 0 2.2a3.4 3.4 0 0 1-3 2.2l-11.2.8.4.7.6 1.2.4.6.6 1.1 1.7 3.2.5 1 .5 1 .4 1 .5 1c2.3 5.4 3.5 10 4 15.7v.8l.1.9v.6l.1.6v2.5l.1 1v2.6l-.1 1.2v1.6l-.1 1-.1 1.3-.2 3-.3 4.3v1.3l-.1 1.3v1.2l-.1 1.2v1.1l-.1 1.1v1.1c0 5.8.5 10 1.8 14.3a26 26 0 0 0 7.1 11l.7.6.6.6.4.4.7.6 1.1 1 .8.7.9.7.8.7.5.4.9.7 1.2 1 4.1 3.3.9.7.4.3.8.7.4.3.8.6.7.7.6.6.4.3.6.5c4.3 4 6.3 8 6.2 12.4 0 3-1 6-3 9.8l-.3.3-.5.8-.8 1.4-4.2 7-.3.4c-7.5 13-9.2 22.6-5.8 35.6l.3 1a90.6 90.6 0 0 0 2.2 6.8l.5 1.2.4 1.2.4 1.2.2.5.4 1.2.2.6.3 1 .4 1.2c3 10 3 17.6-.4 24.8-3.9 8-10.4 14-19.5 18.5-7 3.5-15.4 6-26.1 8.3l-1.5.3-1.2.2-1.3.3-2 .3-2 .4-6.8 1.2v.1c3.1 3.7 5.2 8 6.3 12.8l.1.5c.8 3.8 1.1 7.6 1 12v1.6l-.2 1V962.3l-.2 1.1v.6l-.2 1.2-.1 1.2-.1.6-.2 1.3-.2 1.3-.2 1.3-.2 1.4-.2 1.6-1.3 7.4-.4 2.9-.2 1.3-.3 1.7-.2 1.1-.1 1.1v.7l-.2 1v.6l-.1.7-.1.9v.5l-.1.9v.8l-.1.6v5.9l-6.2.3.4.1c5.1 1.6 10.3 3.6 15.6 5.9l1 .4 1.2.5 1.1.5 1.2.5 1.1.6 1.1.5 1.2.5 1.1.6 1.2.6 1.1.5 1.2.6 1.1.6 1.8 1 1.2.6 1.2.6 1.2.7 1.9 1 1.9 1 2 1.2 2 1.1 1.3.8 2.1 1.3 1.4.8 3 1.8 3.1 1.8 2.4 1.5 7 4.3 2.2 1.3.9.5a324.6 324.6 0 0 0 5.2 3.1l2.3 1.3 1.3.7 2.3 1.3 1.8 1 1.9 1 2 1 2 1 2 1 2.6 1.4 2.2 1.1 3.5 1.7 2.4 1.2 3.2 1.5 4 2 5.8 2.7 19.9 9.4 5.5 2.6 3.6 1.7 4.5 2.2 1.9 1 2 1 2.3 1.2 1.6.8 2.4 1.2 1.9 1 1.8 1a300.7 300.7 0 0 0 10.4 4.9l1.9.8 1.9.9a310.7 310.7 0 0 0 13.6 5.6l2 .7 1 .4 2 .7 2 .8a357.4 357.4 0 0 0 9.4 3.2l2.1.6 1 .4 2.2.7 2.2.6 2.2.7 2.2.6 3.3 1 2.3.6 1.1.4 2.3.6 2.3.6 2.3.6 2.4.6 1.2.3 2.4.6 2.4.6 2.4.6 1.3.3 2.5.6 2.5.6 2.5.6 2.6.5 2.6.6 2.6.6 2.7.6 2.7.5 2.7.6a99.9 99.9 0 0 0 48.3-3.8l1.5-.4 1.5-.4 1-.3 1.6-.5 1.6-.5 1.6-.4 2.1-.7 1.7-.6 1.8-.6 1.2-.4 1.2-.4 2.5-.8 2.7-1 2.8-1 3.7-1.3 14-5 5-1.7 2.4-.8 2.1-.7 1.3-.4 1.6-.5 2.3-.7 2.5-.8 1.9-.6 1.1-.3 1.2-.4 1.6-.5 1-.4 1.5-.5 1-.3.9-.3.9-.4.4-.1.8-.3.9-.4.7-.3.8-.3.4-.2.7-.3.8-.4.3-.1.7-.4.7-.3.3-.2.7-.3.6-.4.7-.4.3-.2.6-.4.6-.3.7-.5.6-.4.3-.2.6-.4.5-.4.6-.4.6-.5.6-.4.5-.4c2-4 5.3-7.4 9.5-10l.4-.2.5-.3.6-.3.5-.3.5-.3.3-.2.6-.3h.3l.6-.4.6-.2.6-.3.6-.3.7-.3.8-.3.7-.3 1.3-.5 1.9-.7 3.3-1.2 1.2-.4 1-.5.7-.2c26-10.6 45.4-34.2 62.6-70.3l.2-.4.3-.7.2-.4.3-.8.2-.4.3-.8.3-.7.2-.5.3-.8.3-.8.3-1 .3-.8.1-.5.5-1.5.3-1 .3-1 .4-1.2.3-1.2 1.5-5.4.4-1.5.4-1.5.3-1 .3-.8.4-1.3.2-.8.4-1.2.3-.7.2-.7.3-.7.2-.7.3-.6.2-.7.3-.6.3-.6.2-.7.3-.6.3-.6.5-1a98.5 98.5 0 0 1 26.3-30.9l1.4-1 1.3-1.2 2.8-2.2 1.4-1.2 1.5-1.1 1.5-1.1 1.5-1.2.8-.6 1.6-1.1.8-.6c2.5-1.9 4.3-2.7 6.7-2.3 4.8.7 6.4 5.2 6 10.7v.6l-2 22.7v-.5l2-9.1.4-2.3a348.4 348.4 0 0 0 2.6-16.9l.3-2.2.3-2.2.1-1.1.3-2.3.9-9.8.1-2.1c1.3-19.7.4-38-3.1-53.6l-.3-1c-2.3-9.8-6.2-16-11.9-17.2-1-.2-2.2-.3-3.9-.3h-.7l-.8.1-2 .2h-2.3c-4.6.2-7-.4-9.8-2.6-7.5-6.2-2.4-19.3 7-22 5.3-1.5 10.2-.8 17 2l.8.3-.1-.2a30 30 0 0 0-30.6-21.1h-.5l-1.7.3-1.8-2.4-1.2-1.5-1-1.3-.7-1-1-1.2-.8-1.2-.6-.7-.5-.8-.5-.7-.5-.7-.4-.7-.5-.7-.4-.7a74.3 74.3 0 0 1-.3-.4l-.4-.7-.4-.7-.4-.7a78.8 78.8 0 0 1-.2-.4 42 42 0 0 1-5.9-17.8c-1-14.3 10.5-28.5 23.7-26.7l.7.1c2 .4 3.9 1 6 2l.7.3.6.4.7.4s.2 0 .3.2l.7.4.8.4.8.5.8.5 1.7 1 1.1.8.7.4.7.4.6.3.6.4c.2 0 .3.2.5.3l.6.2.5.3.5.2c1.4.7 2.7 1 4.1 1.2 6.8.7 14-5 16.5-13l.2-.3.1-.6a30.3 30.3 0 0 0 1.2-6.4v-7.2l-.1-.9-.1-1-.1-1v-.4l-.2-1-.1-1.1-.2-1.7-.3-1.7-.2-1.9-.3-2.1 2-1c10-5 22.5-3.8 35.2 1.9l.9.4.6.2.8.4.9.5.8.4 1.2.6 1.2.6 1 .6.7.3 1.9 1 3 1.8 2.7 1.5 2.3 1.3 1.7 1 1.2.6.7.4 1.1.5.7.4 1 .5 1 .5.6.3.6.2.6.3.6.3.9.4.6.2.9.4.9.3c21.3 8.1 47.2 2.7 63.5-13.3l.5-.5 4.9-4.8.3 9.4.2 2.5v2.4l.2 3 .1 1.4.2 2.9.1 2 .1 2 .2 1.8.2 1.9.1 1.7.2 1.8.1 1.1.2 1.1.1 1.1.1 1.1.2 1 .1 1.1.2 1.1.2 1 .2 1.1.1 1 .2 1 .2 1.1.2 1c2.8 13.8 7.3 25 14.4 34.3l.6.7.5.7.5.6.5.6.7.8 1 1.2 1.2 1.4 2.8 3 1.4 1.5 1 1.1.8 1 .5.6.5.7.5.6.5.5.4.6.5.6.4.5.4.6.3.5.4.5.4.6.3.5.3.6.4.5.3.6.2.3c5.2 9.4 5.3 21-1.1 27.8l-.3.3-1.9 2-3-2.4-.7-.6-.8-.6-.8-.5-.7-.6-.7-.4-.6-.5-.4-.2-.6-.5a19.8 19.8 0 0 0-8.7-3.4c-5.1-.6-10.3 2.6-10.5 6.6 0 .8 0 1.6.3 2.7v.5l.7 2.5.2.8v.2l.2.4V825.8l.1.4v.2c1.2 8.4-4 16.9-12.3 21.9l-.6.3-.5.3-.6.4-.3.1-.5.3-.6.3-.6.3-.6.3h-.3l-.6.4-.6.2-.3.2-.7.2-.7.3-.7.2-.7.3-.8.3-.8.3-1.3.4-1 .3-2 .6-4.4 1.3-1.3.5-1.3.4-.4.1a88.8 88.8 0 0 0-51.3 46 85 85 0 0 0-4 10.4l-.2.5h.1c2.2.4 4.3 1.4 6 2.8l.3.2c2.6 2.1 4.3 5.4 5.2 9.9l.1.7.1.7.1.8.1.8.2 1.2V931.8l.1.9v2.3l.1.8v4.5l-.1 1v1.1l-.1 1-.1 1.2-.1 1.1-.1 1.2-.1 1.2-.1 1.1-.2 1.3-.2 1.8-.1 1.3-.2 1.3-.2 1.8-.2 1.9-.2 1.2-.3 2-.2 1.3-.5 3.6z"/></svg>