<svg xmlns="http://www.w3.org/2000/svg" viewBox="0 0 679 1441"><path d="M208.6 2.5c-5.2 4-38.8 52.9-47.5 69.2-9.4 17.5-13 28.3-22.9 68a983.2 983.2 0 0 1-16.8 58.6c-12 37.7-15.7 56.3-16.1 82.5-.5 21 0 23.3 6.3 34.7 5.6 10.6 7 15.3 7.4 31.8 1 25-3.2 34.6-29 66.8-10.5 13-23 29.8-27.7 37.4-5 7.7-20 27.8-33.4 44.8a370.4 370.4 0 0 0-26.2 36.1 55 55 0 0 0-2 15.5c0 9.2.9 11.2 9.2 18.8 5.1 4.7 19.7 13.9 32.4 20.2 20.9 10.5 24 11.4 33.2 10l10-1.5 3.2 10.7c2.7 8.6 3 17.5 1.4 44.2-2.5 40-1.4 43.5 14 48.4 9.7 3.1 10.8 4 10.8 10a88.7 88.7 0 0 1-4.7 19.1c-11.6 31.8-10.5 40.8 5 39.9 10.3-.4 11.2.4 16.8 18 4.2 13.6 3.5 18.3-7 47.4a58.5 58.5 0 0 0-5 29.8c2.5 26.2 23.6 57.2 45.8 67 25 11.2 89.4 14.1 128.6 6.3 12.3-2.5 33.6-8.5 47.2-13.4 13.7-5 25.1-8.8 25.4-8.3 5.1 9.4 8.5 12 20.6 15.4 7.1 2.3 15.2 4 17.4 4 7 .3 22 7.7 31 15.7 9.4 8.1 41.6 48.9 57.8 72.9 7.8 11.6 13 17 17.9 18.8 10 3.6 28.9 3.1 36.5-1 3.6-2 6.5-3 6.7-2.8 3 7.8 22 20 49 31.3 1 .5 0 7.9-2 16.6-3.8 15.7-3.8 16.2 1.4 37 9.6 38.5 5.8 65.2-12.1 83.8-19 20-43.7 20-148 0-99.5-19-122.6-24.9-139.6-34.7-10.1-6-68.1-50.9-82.3-63.7-19.9-17.9-30.2-18.6-30.2-1.5.2 20 20.6 42.8 59.4 66.3 37.2 22.6 63 52.2 65.4 76.2 1.8 15-3.6 24-52.7 88.3-5.1 7-13.2 20.1-17.4 29.3-12.4 25.8-27.4 80.9-20 73.5.7-.7 5.4-14.6 10.3-31 5-16.3 10.6-32.6 12.3-36.4 3.6-6.8 18.4-27 50.7-69.5 9.2-12.1 17.9-25.8 19.5-30.5 5.6-19.5 1.3-40.8-12.6-61-11.6-16.5-20.6-24.3-54.2-46a364.6 364.6 0 0 1-38.7-28.3c-7-7.4-13-19-13-25.1 0-9 8.2-4.7 48.6 25.3 49.3 36.8 59.3 42.8 81.7 50.4 22 7.4 109 24.4 173.7 34 26.6 3.9 63 4.6 75.2 1 11.9-3.2 24.9-15.7 32.3-30.7 8.7-18 8.7-40.8-.5-68.4-6-17.9-6.2-20.3-3.8-29.8 3.6-13.4 9-21 14.8-21 8.5 0 14.8-6.3 14.8-14.8 0-12.6-5.6-22.9-14.3-27.1-9.7-4.5-10.1-7.2-2.3-14.4 8-7.4 19.5-32.7 18.2-39.8a315 315 0 0 0-6-23.1c-7.7-24.9-5.7-30.5 21.2-56.7 11.7-11 22-22.9 23.3-26.2 3.1-8.3-.2-33.4-6-46.6-6.1-13.5-12.6-21.8-35.9-46-35.4-36.3-63-67.9-64-73.2-.7-3-1.6-19.3-2-36.6-1.2-29.5-1.9-33.6-12.6-71.7-6.5-22.1-14.1-49.3-17.3-60-10.7-39-31.3-75.3-53.7-95.2-29-25.8-40.8-34.6-58-43-21.8-10.6-29-12.8-27.6-8.8.4 1.6 9.2 7 19 12 32.3 16.4 71 49.2 86.3 73.1a256.2 256.2 0 0 1 29.8 67l17.2 61.4c9.9 35 11.2 43 11.4 61.7 0 11.8-.9 23.3-2 25.5-2 3.6-3.1 3-11.2-5.6-16.1-17.3-16.5-18.4-12.5-30.7 1.8-6 2.7-13.4 1.8-16.6-4-16.6-28.7-31.6-51.3-31.1-34.7.6-71.3 21.5-96.6 55-12.7 16.9-17.5 28.8-12.7 31.5 5.1 3.3 53.3-18.6 73.9-33.4 16.6-11.9 35.2-19.7 43-18.2 8.3 1.6 28.9 18.6 28.9 23.8 0 3.6-6.5 11.2-9.6 11.2-1 0-3.2-3.2-5-6.7-2-3.9-7.1-8.6-11.4-10.6-6.5-3.3-9-3.3-16.1-.9-15 5.2-37.2 22-57 43.7a235 235 0 0 1-29.7 27.6c-9.7 6-12.3 10.3-8 12.8 1 .9 8.9-2.3 17.2-6.5s15.2-7.9 15.6-7.9c.5 0 1 4 1 8.8 0 6.9 1.3 9.8 5.8 13.4 9.1 7.2 52.2 23.3 58.9 22 6-1.4 20.4 4.2 20.4 7.6 0 1 6.5 7.1 14.5 13.4 17.3 13.5 24.4 24.9 28.3 44.2 2 11.4 2 17.2-.3 29.5-3.3 17.5-2 26.7 4.7 36.1 6.8 9.4 32.3 23.7 16.8 3.2 13.5 27.5-20.1-23.1-16.8-31.9 2.3-5.8 2.7-5.8 4.3-1.8.9 2.5 3.1 9.4 4 15.2 1 5 2.9 11.2 3.5 13 1.7 4.7 2.5 8-2 8-5-6-18.2-10.5 4 8.7 3.8 3 8.6 5.6 9.5 5.6a45 45 0 0 0 10.3-7c8.6-6.7 28-15.5 34.3-15.5 1.8 0 6 1.2 9.4 2.3l6 2.5-6.2 6.5c-3.6 3.5-7 10.5-8 16-2 10.4-.7 23.6 2.6 25.6 4.7 2.7 1.4 6.8-8.5 10.3-8.5 3.2-18 11-44.3 36.8-39 37.8-42.2 40-54.3 36-6.9-2.2-9.6-4.9-15.2-15.4-13.4-25.3-65.4-81.3-85.8-92.1-7-3.8-16.3-6.7-23.3-7.4-17.7-1.3-22.8-8.5-11.6-15.9 3.1-2 18.8-8.5 34.7-14.3 33.8-12.4 58.7-25.8 74-40.4 14.7-13.6 14.2-17-1.7-19-22.8-2.7-49.2 7.6-81.7 32.2-23.8 18-29.4 22.9-35.4 31.4-13.5 19-80 38.3-132.6 38.6-28.7 0-59-4.5-74-10.8-20.8-9-35.4-34.5-37.4-65.2a57 57 0 0 1 5.4-32.5c8.3-20.2 8-33.6 0-51.5-5-10.8-5.6-13.7-3.1-16.2 7.1-6.7 41.9-35.8 45-37.8 3.6-2 3.1-4.5-3.1-27a538.7 538.7 0 0 0-13.5-41.4c-14.1-36.7-14.8-59.6-2.9-107.3 8-32.5 12.8-44.8 22.2-57.4 7.6-10 14-24.2 16.6-35.1 2.9-13.7-.3-41.7-6.5-54.5-6.5-13.4-5-16.3 12-22 9-2.9 16.9-7.8 26-16.5 11.2-10.3 14-11.9 17.7-9.9a35 35 0 0 0 13.5 2.5c8.3 0 9.2-.7 9.2-5.4 0-7.4-12.1-18.6-27-25.3-10-4.7-17-5.8-39.1-6.7-16.2-1-31.6-.3-38.6 1-13.2 3-15.9 2.3-21-4.6-3.4-4.7-3.1-6 5.6-23.8 11.4-23.7 17.2-28.2 35-28.2 9.6.2 15.6 1.6 23.7 6 14.5 7.9 54 20.4 58.5 18.9 3-1.4 3-2-.7-6.3-8-9-48.6-33.8-61.9-37.9-20.3-6.5-34.4-5.6-45.4 2.7-16.2 11.9-32.3 29.1-37.2 39.7-4.3 8.7-5.4 9.6-6.7 5.8-5.2-13.2.2-42.1 19.2-102.9 5.4-17.2 13-42.3 16.8-55.7C162 81.8 173.4 58 199.2 22.2c14-19.7 17-25.8 9.4-19.7Zm-7 245.4c9 2.4 21 7.1 27 10.5 5.7 3.3 13.4 7.6 17 9.4 5.5 3 8.2 7.4 4.4 7.4-5.4 0-26-7.6-37.2-13.7-17.4-9.2-35-11-49-5-9.4 4.4-10.8 6.1-21.3 28.3a143.5 143.5 0 0 1-14.1 25.1c-7.2 4.5-9.9-15.4-3.6-27.5 5.1-10.1 22-27.6 32.7-34.5 11.4-7.4 17-7.4 44.1 0Zm10.8 72.3c14 2.5 45.7 18.4 47.7 23.8 1.3 4.7-3.1 3.3-31.6-8.5-24.2-10.3-30.2-12.6-35.6-13-1.1-.3-1.8-1.4-1.8-2.5 0-3 4.3-3 21.3.2Zm-39.2 7.2c-.2 6.3-4 8.7-11 7.2-8.7-1.8-8.7-3.8.4-8.3 7.7-3.6 10.6-3.4 10.6 1.1Zm-33-1.3c1 .6.3 2.9-1.3 4.7-2.2 2.7-1.8 3.8 1.6 5.8 10.7 6.3 12.7 10 18.6 31.6 5.6 20.8 6 25.8 6 68.3.2 37.9-.4 48.2-3.8 58.7-6.3 20.6-15.7 24.2-38.3 14.1-14.3-6.2-22-6.9-25.8-2.4-5.1 6.3 2 13.9 18.4 19 13.9 4.7 21.7 12.8 21.7 22.2 0 9.6-4.7 26.2-8.3 29.8-4.7 4.7-17.9 0-30.2-10.5-13.7-11.7-25-15.5-41.4-13.5-17.5 2-23.1 4.7-23.1 11.2 0 8.1 7 11 22.2 9.2 10.5-1 13.6-.6 16.8 2.3 8.3 8.5-3 12.5-20.6 7.6-12-3.4-41.7-22.2-45-28.7-6.6-11.6 1-26 37.8-72.4 43-54 76-100.8 79.5-112.5 1.8-6 3.4-18.3 3.4-27 0-8.8.6-16.9 1.5-17.5 1.8-2 8.6-2 10.3 0Zm89.4 18.1c2.5 2.5 1.4 4.3-4.9 9.6-9 7.7-23 15.5-27.8 15.5-5.8 0-8-16.1-3.3-25 2.2-4.1 4-4.6 17.9-3.7 8.5.5 16.6 2 18.1 3.6ZM175.2 358a82.3 82.3 0 0 1 4.7 16.3c0 3.4-6 10.1-7.6 8.3-.2-.4-3.6-8.7-7-18.4-5.1-14-5.8-17.9-3.3-19.4 5.1-3.2 8.3 0 13.2 13.2Zm10.5-5.4c1.4 7.2.2 12.3-2.2 9.9-2.5-2.5-3.8-17.7-1.8-17.7 1.3 0 3.1 3.5 4 7.8Zm-1.1 51.3c3.1 7.2 4.3 15.7 4.7 30.7.2 18.8-.2 22.4-5.6 33.6-11.4 24-12.3 22.4-11.2-23 .9-44.2 1.8-51.2 5.4-51.2 1.1 0 4.2 4.5 6.7 10ZM114.3 512c4.7 2.3 9.1 5 10 6.3 1 1.1 8.3 2.3 16.4 2.3 11.9 0 14.3.6 13.7 3.3-.7 1.8-2.7 11.2-4.7 20.6a54 54 0 0 1-5.4 17.5c-.7 0-1.4-5-1.6-11.2-.2-6-1.8-13.4-3.8-16.4-3.4-5.3-15.5-12.3-24.4-13.8-5.8-1.2-13.2-7.9-11.7-10.4 1.6-2.6 1.6-2.6 11.5 1.8Zm-38.8 50c11.4 4.3 6 6.7-14.3 6.7-20 0-22.7-1.1-17.5-6.2 3.1-3.2 23.7-3.6 31.8-.5Zm68.1 13.9c-4.3 22-.9 45 11.7 83.3a326.1 326.1 0 0 1 10.7 36.1c-1.1 1.1-53.5-18.8-57.1-21.7-1.8-1.6-2.3-6.5-1.4-16.1 1.4-16.2-2.7-32.8-13.2-53.6-3.6-7.6-6-15.2-5.4-17.7.5-2.5 0-7-1.3-9.9-3.8-8.5-.7-8.7 10.8-.9 19.2 13.5 34.5 11.7 41.2-4.7 4.2-10.3 6.2-7.6 4 5.2ZM502 616c18.4 3.1 29.6 12.1 29.6 23.3 0 16.6-4.5 18.4-15.9 6.5-10.3-10.7-19-15-27.8-13.7-4 .7-27.8 12.8-52.8 27.1-25.1 14.4-47 26-48.7 26-4.4 0 .7-7.8 14-22 18.8-19.9 52.6-41.8 71.6-46.5 14.8-3.6 13.2-3.6 30-.7Zm-401.4 41.2-1.4 20.4 21.3 9.7c22.2 10.3 27.1 14.7 13 12.5-36.3-6.3-42-11.2-39.9-34.3 3-33.6 3.9-37.4 6.3-33 1.4 2.6 1.6 12.2.7 24.7Zm401.4 12c3.8 4.6 3.4 7-.9 7-17.7 0-57.3 20.7-66.5 34.8-5.1 8-22.6 18.8-25.5 16-1-1 .4-3.4 3.3-5.7 2.7-2 11.5-9.4 19-16.6 39.5-36.7 60.8-47.5 70.6-35.6Zm39.5 13.6c2.2 3.6-18.9 17.5-22 14.3-2.5-2.4-1.3-9.2 2.3-12.8 3.5-3.8 17.7-4.9 19.7-1.5ZM506 694c-2 3.8-4.5 7-5.4 7.2l-9.4.6a36 36 0 0 0-13.5 3.6c-6.2 3.4-31.8 9.2-33.6 7.6-2.6-2.7 5.2-9.4 18.9-16.1 16-7.8 41.4-14.6 44.5-11.7 1.2 1 .3 5-1.5 8.8Zm46.6 4c4.2 5.6 4.2 5.8-3 28.5-5.5 17-7.6 28.2-8.5 45-.4 12.3-1.5 23.8-2 25.6-.6 2-6.5-2.3-17.2-12.6a208.8 208.8 0 0 0-20.4-18c-6.3-3.3-3.1-10 4-8.2 6.7 1.6 7.4-.5 11-31l2.7-23 12.3-6c15.2-7.5 16-7.5 21-.3Zm-41.3 16.8c0 9-3.8 33.4-5.6 35-4.9 4.9-6.4-15-2.4-29.6 4-13.9 8-16.6 8-5.4Zm-19.9-.2c4 7.8 2.5 44.6-2.2 44.6-1.6 0-9.2-32.3-9.2-39.5 0-4.4 3.8-9.8 7.2-9.8.8 0 2.6 2 4.2 4.7ZM165 713.5c2.2 2.2-32.5 39-37 39-3.8 0-8.5-11.7-8.5-21.8 0-7.8 4.7-16.1 9.9-17 7.8-1.6 34-1.6 35.6-.2Zm443.3 43.9c62 67.7 62.8 68.8 54 76-3.6 3-13 3.3-57.8 1.7-17.5-.6-21.5 0-29.6 4.3-14.7 7.8-15.4 7.4-21-16-6-24.6-7.2-66.5-2.3-81 5.2-15 12-30.3 13.7-30.3 1 0 20.2 20.4 43 45.3Zm-135.3-19c2.5 13.4 4 24.6 3.6 25-1.3 1.4-16.4-3.8-30-10.5-15.7-7.6-20.6-15.5-15.7-24.6 2.7-4.7 6.5-7 18-9.9 8-2 15.6-3.8 17-3.8 1.3-.2 4.4 10.3 7.1 23.7Zm-356 8.2c3.2 12.8 3.2 12-2 14.8-3.8 2-4.9 1.6-6.7-3.1-2-5.8 1-21.5 4.3-21.5 1 0 3.1 4.5 4.4 9.8Zm371.7 95.7c.9 5.2-15.5 14.4-59 33.4a493 493 0 0 0-41.6 19.5c-3.8 3.4-8.7 3.8-8.7 1.1 0-5.8 63-48.8 78.4-53.8 17.7-5.6 29.8-5.6 30.9-.2Zm156.1 1c20.9.1 22.4.6 23.1 4.8.7 4-3.1 6.8-21.7 16.6a163.5 163.5 0 0 0-37.7 26c-15.6 15-26.6 23-31.3 23-3.2 0-15.2-50.1-13-53.7 4.2-7 43.9-20.8 52.6-18.6 3.2 1 15.7 1.6 28 1.8ZM667 866c-3.6 15-21.5 35.1-30.2 33.8-8.8-1.1-7-5 6-12.8 11-6.5 12.3-8 11.7-13.9-.5-4.2.9-7.4 3.8-9.6 7.2-5.4 10.3-4.5 8.7 2.5Zm-16.6 8.3c0 5.3-36.2 26.4-39.6 22.8-3-2.9 28.7-26 35.6-26 2.2 0 4 1.4 4 3.2Zm-20.1 97.9c5 9.2.9 16.1-15.7 26.4-8.5 5.2-16.1 11.4-16.8 14-1.1 2.8-3.6 4.2-8.5 4.2-7.2 0-24.9 7.6-35 15-4 2.9-5.1 3.1-4.2.7a13 13 0 0 1 4.7-5.4c2-1.4 11.4-9.9 21-18.8 23.3-22.2 45.7-40.8 49.3-40.8 1.6 0 3.8 2 5.2 4.7Zm-14.1 39.6c-5 5-8.8 7.2-10.6 6-2-1.3-.4-4 5.6-9.1 11.2-9.6 15.3-7.2 5 3.1Zm-10.6 12.8c0 2.7-2.9 3.4-13.4 3.4-14.3 0-16.6-1.1-8.3-4.5 8.5-3.4 21.7-2.7 21.7 1.1Zm4 18.8c3.7 11.5 3.4 18-.2 19.5-4.4 1.6-43-17.5-43-21.5 0-4.2 7.9-6.3 26-6.5l14.8-.2 2.5 8.7Zm17.5-2.9c5.2 7.9 5.4 23.1.5 26.2-5.4 3.6-6.3 1.8-7.8-16.1-1.4-17.3.8-20.4 7.3-10Z"/></svg>