<svg xmlns="http://www.w3.org/2000/svg" viewBox="0 0 232 342"><path d="M137.3 24.1c-.7 4.8-.7 9.4.2 13 .9 3.3 2.5 5.4 4.8 6 1.3.5 1.5 0 1.6-.4.9-3-2.8-11.5-6.6-18.6zm55 265.9c-3.2 6.4-6 13.4-6.4 20.8-.5 10.3 5.2 22.6 15.7 25.2 1.1.2 4.8 1 6.8-1.3 2-2 1.4-5.6-1.5-10.4-4.6-7.6-9.3-15.5-12.1-24.2a65.8 65.8 0 0 1-2.5-10.1zm-74.2-96.3a151.3 151.3 0 0 0-22.3 37c-11 25.4-20.9 61.4-6 88a41.7 41.7 0 0 0 16.9 17.2 41 41 0 0 0 35.8-1 63 63 0 0 0 33.9-51.5 84.6 84.6 0 0 0-20.2-59.9 121.5 121.5 0 0 0-38.1-29.8zm4.6 147.8c-6 0-11.9-1.3-17-3.9-7-3.5-13-9.7-17.6-18-15.3-27.2-5.3-63.8 5.8-89.8 6-13.8 13.5-26.3 22.4-37a157.4 157.4 0 0 0-13.1-5.9c-7.8-3-16-5.6-23.8-8-19-6-38.5-12.1-53.7-25.1A71.6 71.6 0 0 1 2.3 83.6a64.2 64.2 0 0 1 55.3-47.9 46.6 46.6 0 0 1 43.2 19.4 35 35 0 0 1 4.2 26.1c-1.8 8-6.2 14.4-12.4 18.3-8.2 5-21.3 5.3-28.2-3.3-3.3-4.2-4-10.6-1.7-16.1 2-4.8 5.8-8 10.3-8.5 2.7-.3 5.4.5 7.4 2.3 2 1.6 3 3.8 3 6.3a7 7 0 0 1-5 6.6 5 5 0 0 1-5.8-2 1 1 0 1 1 1.7-1.1c1 1.7 2.9 1.4 3.6 1.2 1.7-.5 3.6-2.3 3.5-4.7 0-1.8-.8-3.6-2.3-4.8a7.6 7.6 0 0 0-5.9-1.8c-3.8.4-7 3-8.7 7.2-2 5-1.4 10.5 1.5 14.1 6.2 7.8 18 7.5 25.5 2.9 5.8-3.6 9.9-9.6 11.6-17a33 33 0 0 0-4-24.6 44.6 44.6 0 0 0-41.3-18.5A62.2 62.2 0 0 0 4.3 84.1c-6 24 3 51.4 22.7 68.2C41.9 165 61.3 171 80 177c8 2.4 16.1 5 23.9 8a159.8 159.8 0 0 1 13.7 6.2 118.5 118.5 0 0 1 36-29.2c12-6.1 30.5-9.7 42.8.4 12.6 10.4 12.7 29 10.5 42.7-1.5 9.2-3.8 18.6-6 27.7-4.2 16.8-8.5 34-7.3 50.7a389.6 389.6 0 0 1 2.5-4.3l1.5-2.6c12.6-21.5 25.6-43.8 30.3-68.4 5.5-28.3-2.7-56-20.9-70.7-7.5-6-16.8-9.5-25.8-12.8-7.1-2.7-14.5-5.4-21-9.4-28.8-17.5-27-37.2-25.8-49 .2-3 .5-5.5.2-7.3-.1-.4-1-1.5-1.9-2.5-4.6-5.5-15.2-18.3-4-43.7.4-.8 1.2-1.2 2-.8 1.2.4 3.3 3 5.5 6.5a40.4 40.4 0 0 1 8-17.7c.6-.7 1.3-.8 1.8-.7 2 .2 3.6 2.8 6.7 7.9C157 15 163 25 170.3 22.9a31.8 31.8 0 0 1 31 6.4c1.6 1.5 3.1 3 5 3.2 2 .3 3.5-.6 5.1-1.6 1.8-1 3.9-2.3 6.7-1.7 2.7.7 4.2 4.5 5.3 7.6l.8 1.8c7.4 17-5.5 29.8-11 35.3l-2.3 2.3a21 21 0 0 0 1.7 26.5 1 1 0 1 1-1.4 1.4 23 23 0 0 1-1.9-29c.5-.7 1.3-1.5 2.4-2.6 5.7-5.7 17.5-17.4 10.6-33.1l-.7-2c-1-2.3-2.3-5.8-4-6.2-2-.5-3.4.4-5.2 1.4-1.7 1.1-3.7 2.3-6.4 1.9-2.5-.4-4.3-2-6-3.7a57.4 57.4 0 0 0-1-.9c-7.2-6.2-17.4-8-28.1-5-8.9 2.3-15.2-8.2-20-15.9-1.8-3-4-6.8-5.1-7l-.3.2a41 41 0 0 0-7.7 18.8c4.6 7.9 9.3 18.6 8 22.4-.3.8-1.3 2.5-4 1.7-3-.9-5.2-3.5-6.2-7.5-1.2-4.5-1-10.4 0-16.3a30.6 30.6 0 0 0-5.2-7.3c-10.5 24-.8 35.6 3.8 41.2 1.3 1.5 2.1 2.5 2.3 3.5.4 2 .2 4.7-.1 7.8-1.1 11.3-3 30.2 24.7 47.1 6.5 4 13.7 6.6 20.8 9.2 9.1 3.4 18.6 7 26.4 13.2 18.7 15 27.2 43.5 21.6 72.6-4.8 24.9-18 47.3-30.6 69l-1.5 2.6-3.9 6.8c.5 4.2 1.4 8.3 2.8 12.4 2.7 8.5 7.4 16.3 12 23.9 3.3 5.6 3.8 10 1.2 12.8-1.8 2-5.1 2.7-8.8 1.8-11.5-2.8-17.8-16-17.2-27.2.5-8.7 4-17 8-24.1-2-18 2.5-36.4 7-54.3a327 327 0 0 0 6-27.6c2.1-13.2 2-31-9.8-40.7-11.6-9.5-29-6-40.5-.2-13 6.7-25 16.3-35.2 28.3 15.5 8 28.5 18.3 38.3 30.1 15 18.1 22.5 40.5 20.7 61.4-2 23-15.7 44-35 53.1a48.2 48.2 0 0 1-20.7 4.8z" fill-rule="evenodd"/></svg>