<svg xmlns="http://www.w3.org/2000/svg" viewBox="0 0 1138 271"><g fill="#0A0B09"><path d="m1107.9 226-201.4 6.4c-53 1.8-106.5 3.5-159 12.6-13.8 2.5-27.6 5.4-41.3 5.4-2.4 0-4.9-.1-7.3-.3l-.1 1.7 1.5.8a8.5 8.5 0 0 1 3.7-3.8 22 22 0 0 1 9.2-2c3.6-.2 7.5 0 11-.1 9.5-.4 18.4-4.7 25-11.2a38.4 38.4 0 0 0 12-24.5l-1.8-.2.5 1.7h.4c.3 0 .5 0 .7.2.5.4 1 1.1 1.3 2.2a11 11 0 0 1 .5 4.1c-.2 1.9-.3 4.2-.3 6.7 0 5.3.3 11.7.3 18 0 6.5-.3 12.8-1.2 17.3-.5 2.3-1.2 4-1.9 5.1-.4.6-.7.9-1 1.1a2 2 0 0 1-1.2.3h-.8l-.4 1.6h1.8l.1-25.3c0-8.8.2-17.6.7-24.5l.4-4.4a11.5 11.5 0 0 1 .8-2.7 1 1 0 0 1 .2-.3l1-.4 2-.2a27 27 0 0 1 12.5 3.7c1 .6 1.7 1.3 2 1.6 1 1.6 1.6 3.5 2 5.5.3 2 .3 4.2.3 6.4v.8c0 8-.2 24.1-.5 32.1l1.7.1.7-1.6c-.1 0-.4-.2-.7-.6-.5-.7-1-2-1.3-3.6-.6-2.3-.9-5.3-1-8l-.3-6.8a36 36 0 0 0-13.4-27l-1.1 1.3-.6 1.6c23.4 9.2 47.4 18 72.9 19l5.2.1c27.6 0 54.6-8.9 79.4-20.6 26.4-12.5 51-28.3 76.6-41.5 1.2-.6 2.4-1.2 3.7-1.6 1.2-.5 2.4-.7 3.4-.7s1.8.2 2.6.7c.6.3 1 .7 1.4 1.2.5.8 1 1.8 1.2 3a19.1 19.1 0 0 1 .3 6l-4 71.7c-.1 1.5-.3 3.2-.8 4.5a5 5 0 0 1-.9 1.5l-1.1.8-.9.1c-.5 0-1-.2-1.5-.6-.9-.7-1.7-2-2.3-3.6a16.9 16.9 0 0 1-1-5l-2.1-59.8-.1-3.5c0-3.6.4-6.9 2-9.6 1-2 2.7-3.5 4.8-4.5a15.6 15.6 0 0 1 13.4-.1c3.2 1.5 6 3.9 8 6.9 2 3 3.6 6.5 4.5 10 .9 4 1.2 8 1.2 12a41142 41142 0 0 1-2.9 47.5l1.8.1 1.7-.4c-3.1-12.8-4.1-26-4.1-39.3 0-10.4.6-20.9 1.2-31.3h-1.8l-1 1.3c20 16 44.2 32 70 36.7 6.3 1.2 13 2 19.5 2 7.8 0 15.6-1.1 23-4a1.7 1.7 0 0 0 1-2.2 1.7 1.7 0 0 0-2.3-1 61.4 61.4 0 0 1-21.7 3.7c-6.3 0-12.7-.8-19-2-24.6-4.4-48.4-20.1-68.4-36a1.8 1.8 0 0 0-2.8 1.3c-.6 10.4-1.2 21-1.2 31.5 0 13.5 1 27 4.2 40.1.2.8 1 1.4 1.8 1.3a1.8 1.8 0 0 0 1.6-1.6 40665 40665 0 0 1 2.9-47.7c0-4.2-.3-8.5-1.3-12.7-1-4-2.6-8-5-11.3a23.9 23.9 0 0 0-9.4-8.1 19 19 0 0 0-16.5.2 14.9 14.9 0 0 0-6.3 5.9c-2 3.6-2.4 7.5-2.4 11.3v3.6l2.3 59.9c0 2.5.7 5.4 2 7.9.6 1.2 1.4 2.3 2.4 3.1a5.9 5.9 0 0 0 5.8 1.2 6.2 6.2 0 0 0 2.7-1.8c1-1.2 1.5-2.6 1.9-4l.6-4.1 4-71.8v-2.4c0-2-.1-4-.8-6-.3-1-.7-1.9-1.4-2.7a8.1 8.1 0 0 0-2.4-2.2c-1.4-.9-3-1.2-4.4-1.2-1.6 0-3.1.4-4.6.9-1.5.5-2.8 1.1-4.1 1.8-25.9 13.3-50.4 29-76.5 41.4-24.5 11.7-51 20.3-78 20.3h-5c-24.8-1-48.3-9.6-71.8-18.8a1.8 1.8 0 0 0-2.1.7 1.7 1.7 0 0 0 .4 2.3c7.4 5.8 11.8 15 12.1 24.4l.2 5c.1 3 .3 6.6 1 9.7.3 1.6.7 3 1.4 4.3a8 8 0 0 0 1 1.8 5 5 0 0 0 1.8 1.3 1.8 1.8 0 0 0 2.5-1.5c.3-8.1.5-24.2.5-32.3v-.8c0-2.3 0-4.6-.4-7-.4-2.3-1.1-4.6-2.5-6.7-.7-1.2-1.8-2-3-2.8a29.3 29.3 0 0 0-17.2-3.9 6 6 0 0 0-2.4 1.1 4.3 4.3 0 0 0-1 1.2c-.4.7-.7 1.4-.9 2.2l-.6 3.6-.2 2.9c-.5 7-.6 15.8-.7 24.7l-.1 25.3a1.7 1.7 0 0 0 1.3 1.7l1.6.2a5.6 5.6 0 0 0 3-.8c.7-.5 1.4-1.1 1.9-1.8 1-1.3 1.6-2.8 2-4.5a47 47 0 0 0 1.5-9.3c.3-3.4.4-7.1.4-11 0-6.3-.3-12.7-.3-17.9 0-2.5 0-4.7.2-6.4a13.6 13.6 0 0 0-1.1-6.9 7 7 0 0 0-1.8-2.4 4.6 4.6 0 0 0-3-1 5 5 0 0 0-1.4.2c-.7.2-1.2.8-1.3 1.5a35 35 0 0 1-10.8 22.3c-6.1 6-14.2 9.8-22.7 10.2-4.5.2-9.9-.2-14.8.5-2.5.3-4.8.9-7 2a12 12 0 0 0-5.1 5.3 1.7 1.7 0 0 0 1.4 2.5c2.6.2 5 .3 7.6.3 14.2 0 28.2-3 42-5.3 52.1-9.1 105.3-10.9 158.4-12.6l201.4-6.5a1.7 1.7 0 0 0 1.7-1.8 1.8 1.8 0 0 0-1.8-1.6"/><path d="m690.6 261.6-1.5.6 1.6-.3v-.3l-1.6.6 1.6-.3-1 .2h1v-.2l-1 .2h1v-.1l.1-2.6c.2-4.4.7-13.6 1-23.1a696.7 696.7 0 0 0 .8-30.5l-1-14c-.2-2.6-.4-5.3-1-7.9-.5-2.6-1.5-5.2-3.2-7.5l-1.4 1 .2 1.8h.3l.4-.2a1.7 1.7 0 0 0 .9-1.5 1.8 1.8 0 0 0-.2-.9l-.6-.6-.4-.2h-.3l-.3-.1-2.2-.2c-3.1-.2-9-.5-14.3-.5a71 71 0 0 0-10.8 1c-.4 0-.8.3-1.2.5l-.6.6c-.2.2-.4.5-.4.9l1.6.4-1.3-1a38.2 38.2 0 0 0-6.5 16.5c-1 6-1.3 12.3-1.4 17.8h1.7l.1-1.7a175.3 175.3 0 0 0-33.8.4 1.7 1.7 0 0 0-1.5 1.5c-.8 4.4-1.4 9.3-1.4 14 0 4.4.5 8.7 2 12.6a19.3 19.3 0 0 0 14.5 12.6 370.4 370.4 0 0 0 69.8 4 1.8 1.8 0 0 0 1.7-1.8 1.7 1.7 0 0 0-1.8-1.7l-15.8.3a366.8 366.8 0 0 1-53-4.2 15.8 15.8 0 0 1-12-10.4 32.4 32.4 0 0 1-2-11.4c0-4.4.7-9 1.4-13.4l-1.7-.3.2 1.7a172 172 0 0 1 33.2-.4 1.7 1.7 0 0 0 1.3-.5c.3-.3.5-.7.5-1.2.2-5.5.5-11.5 1.5-17.3a34.8 34.8 0 0 1 6-15.6l-1-.3.8.7.2-.4-1-.3.8.7-.5-.4.4.5.1-.1-.5-.4.4.5 1-.3c1-.2 2.3-.4 3.9-.5a91.4 91.4 0 0 1 5.1 0 215.2 215.2 0 0 1 15 .5 60.2 60.2 0 0 1 1.2 0l.2-1-.2 1 .2-1-.2 1 .3-1.6-.6 1.6h.3l.3-1.6-.6 1.6.6-1.6-1 1.4.4.2.6-1.6-1 1.4 1-1.4-1.3 1c.1.3.3.4.4.4l1-1.4-1.4 1 1.3-1h-1.7c0 .5.2.9.4 1l1.3-1h-1.7 1.7l-1.6-.7-.1.7h1.7l-1.6-.7 1.6.7-1-1.4a1.8 1.8 0 0 0-.6.7l1.6.7-1-1.4 1 1.4-.5-1.7c-.1 0-.3 0-.6.3l1.1 1.4-.5-1.7.5 1.6-.2-1.7-.3.1.5 1.6-.2-1.7.2 1.6-.1-1.6h-.1l.2 1.6-.1-1.6a1.7 1.7 0 0 0-1.5 1 1.8 1.8 0 0 0 .2 1.8c1.3 1.8 2.1 3.9 2.6 6.2.5 2.3.7 4.8.9 7.3l1 14v4.4c0 7-.4 19-.9 29.8l-.6 14.2-.3 4.9a83.8 83.8 0 0 0 0 2.7v.8a1.7 1.7 0 0 0 2.3 1 1.8 1.8 0 0 0 1-2.2"/><path d="M469 222.5c10.9-.6 22.2-1.6 33-2.3a1.7 1.7 0 0 0 1.2-.5 7.9 7.9 0 0 0 1.7-2.7 8.3 8.3 0 0 0 .5-2.9c0-1.4-.3-2.7-.7-4-.6-2-1.4-3.9-2.1-5.7a16 16 0 0 1-1.2-5 1.7 1.7 0 0 0-1.6-1.7 66.9 66.9 0 0 1-9.6-1.7 6 6 0 0 1-1.2-.6l-.7-.7-.1-1c0-.5 0-1.2.2-2.1a25.5 25.5 0 0 0 .4-4c0-.7.3-1.5.4-2.3.2-.8.4-1.6.4-2.5 0-.6-.1-1.2-.4-2a3.2 3.2 0 0 0-.7-.9 3.2 3.2 0 0 0-1-.6 71.8 71.8 0 0 0-8.1-2.8 22 22 0 0 0-5.6-.9c-.8 0-1.5.1-2.2.3a5.2 5.2 0 0 0-3.8 3.7c-.3 1-.4 2-.5 2.9 0 .9-.1 1.7-.3 2.4a1.7 1.7 0 0 0 1.7 2.1c10.6.3 20.2 1.5 29.4 2.7 9.2 1.2 18.1 2.3 27.3 2.3 2.2 0 4.5 0 6.8-.2a1.7 1.7 0 0 0 1.6-1.5c.2-1 .2-2.2.2-3.5 0-4.4-.6-10-.6-17.1h-1.7l.5 1.6a39 39 0 0 1 8.8-1.4c3.5-.3 7.3-.4 10.5-.4a192.8 192.8 0 0 1 7.4.1h.7V168l-1.7.1.4 7a961.7 961.7 0 0 0 .6 9c.7 7.3 1.3 11.3 1.3 15.5a49.4 49.4 0 0 1 0 2.2c0 7.2 3.8 14 10.3 17.5 4.9 2.4 10 3.9 15.4 4.7 5.2 1 10.6 1.2 15.8 1.6l48.8 3h1.8c.9 0 1.8 0 2.7-.2a7 7 0 0 0 2.7-1.3c1-.8 1.7-1.8 2.2-2.8l1-3a87.5 87.5 0 0 0 2.4-20.8 87.6 87.6 0 0 0-3-23 1.7 1.7 0 0 0-3.4 0 117.2 117.2 0 0 0-3.2 27.5 117 117 0 0 0 2.8 25.7l.6 7.2 1.3 15.7a84 84 0 0 0 1.6 9l.4 1 .6 1a1.7 1.7 0 1 0 2.6-2.4l-.3.2.3-.2-.3.2.3-.2a2.7 2.7 0 0 1-.2-.5l-.7-2.6A193 193 0 0 1 661 242l-.6-8.1a127 127 0 0 0-.3-3l-.2-2a113.5 113.5 0 0 1-2.6-24.1c0-9 1-18 3.1-26.6l-1.7-.4-1.7.4a84.2 84.2 0 0 1 3 22 84 84 0 0 1-3.2 22.4 4 4 0 0 1-1.1 1.6l-1.4.6-1.9.1h-1.6l-48.8-3c-5.2-.3-10.4-.7-15.5-1.5-5-.8-9.8-2.2-14.3-4.5a16 16 0 0 1-8.5-14.8v-1.7c0-4.5-.5-8.6-1.2-15.8a136.5 136.5 0 0 1-.8-11.5l-.2-4.4a1.7 1.7 0 0 0-1.7-1.6s-3.5-.2-8.2-.2c-3.3 0-7.1 0-10.7.4-3.7.3-7.1.7-9.7 1.6-.7.3-1.2 1-1.2 1.7 0 7.2.7 13 .7 17 0 1.3 0 2.3-.2 3.1l1.7.3-.1-1.8a99.7 99.7 0 0 1-6.6.2 210 210 0 0 1-26.9-2.3c-9.2-1.1-18.9-2.4-29.7-2.7v1.8l1.7.3.3-2.9.2-1.7.3-.9c.2-.3.3-.5.7-.7a4 4 0 0 1 1.8-.3c1.1 0 2.6.2 4.7.8a69 69 0 0 1 7.7 2.6v-.3l-.1.3.2-.3-.2.3.2-.3-.3.2.3-.2-.3.2v.4l-.3 2.6-.4 1.5a9.6 9.6 0 0 0-.1 1.6c0 1-.2 1.8-.3 2.6l-.2 2.6.1 1.5c.2.8.7 1.7 1.4 2.4 1 1 2.5 1.7 4.6 2.3 2.1.5 5 1 8.7 1.3l.1-1.8H498c0 3 1.2 5.6 2.1 8.1l1.3 3.6c.4 1.1.6 2.1.6 3 0 .6-.1 1.2-.3 1.7-.2.5-.5 1-1 1.5l1.3 1.2v-1.8l-33.1 2.4a1.7 1.7 0 1 0 .2 3.4"/><path d="M469.5 220c-1-1.6-1.6-2.8-2-3.7-.4-.9-.5-1.6-.5-2.7 0-.8 0-1.8.3-3.1 2-13 2.7-25.9 2.7-38.9 0-15.9-1-31.8-1.6-47.6a8.7 8.7 0 0 1 0-.3l.4-4.8a54.1 54.1 0 0 0 .2-9.2 8 8 0 0 0-2-4.2 5.7 5.7 0 0 0-2-1.4c-.8-.3-1.7-.5-2.6-.5-.6 0-1.2 0-1.8.2l.3 1.7 1.7.2c1.4-9.8 2.1-16.5 2.1-21.2 0-1.9-.1-3.5-.4-4.8-.2-1-.5-2-.9-2.7a6 6 0 0 0-1.1-1.5 5.6 5.6 0 0 0-2.4-1.3c-.8-.3-1.7-.4-2.6-.4l-3.4.3.2 1.7 1.6-.5c-.4-1.2-.7-2.9-.8-4.8-.2-2-.3-4.2-.3-6.6 0-6 .5-13.2.5-19.4a1.8 1.8 0 0 0-1.7-1.7v.9-1 1-1a10.3 10.3 0 0 1-5.7-2c-.5-.2-.8-.6-1-.9-.3-.3-.4-.6-.4-.8a42.2 42.2 0 0 1-.2-4c0-4.7.7-9.4 1.4-14.3s1.5-9.8 1.5-14.8a45.4 45.4 0 0 0-.2-4.3 1.8 1.8 0 0 0-3.4-.3c-.6 2.1-.9 4.3-.9 6.5 0 4.2.8 8.4 1.5 12.5.8 4.1 1.5 8.1 1.5 11.7 0 3.4-.6 6.4-2.3 9a.9.9 0 0 1-.2.3l-.4.1-.8.1c-.4.1-1 .2-1.8.6a3.4 3.4 0 0 0-1 1 4.1 4.1 0 0 0-.6 1.2 13.6 13.6 0 0 0-.6 4c0 1.8.3 3.5.7 5.2.4 1.7.9 3.3 1.2 5 .4 2 .9 5.2.9 8.4 0 2.6-.3 5.2-1 7-.4.8-.9 1.4-1.3 1.8-.5.3-1 .5-1.8.5a5 5 0 0 1-1 0 1.8 1.8 0 0 0-1.4.1c-.4.3-.7.7-.8 1.2l-.7 5.1a387.5 387.5 0 0 0-1.6 18.2c0 1.8.4 3.4 1.2 4.8a8.6 8.6 0 0 0 2.3 2.6c1.3 1 3 1.7 4.7 2.1 1.8.4 3.7.6 5.7.6 5.4 0 11.6-1.4 16.5-3.2a1.7 1.7 0 0 0 1.1-1.5 1.7 1.7 0 0 0-1-1.7 42.6 42.6 0 0 0-36-.6 1.8 1.8 0 0 0-1 1.6l1.5 89c0 2.2 0 4.7.6 7 .5 2.5 1.5 4.9 3.4 6.7a8.3 8.3 0 0 0 5.8 2.2c1.8 0 3.5-.4 4.9-1.4a6 6 0 0 0 1.8-2 5.5 5.5 0 0 0 .6-2.7 7 7 0 0 0-.3-2.1 7.8 7.8 0 0 0-2.9-4 8.5 8.5 0 0 0-4.5-1.5l-29.6-1.7a1.8 1.8 0 0 0-1.9 1.7l.2 13h1.8l.8-1.5a5.3 5.3 0 0 0-2.5-.7c-1.2 0-2.3.4-3.1 1a9.1 9.1 0 0 0-3 3.7 11.6 11.6 0 0 0-1 6.5c.4 1.7 1 3.4 1.3 5 .5 1.6.8 3.1.8 4.5 0 1-.2 2-.7 2.8l1.5.9.9-1.6a6.4 6.4 0 0 0-3.1-.8c-1.2 0-2.3.3-3.3.8-1.5.7-2.7 1.9-3.7 3.2-1 1.4-1.7 3-2 4.6a15.5 15.5 0 0 0-.2 2.4c0 2 .4 4 .8 6s.9 3.8 1.1 5.5l.1 1.8c0 1.8-.3 3.6-1 5-.3.7-.8 1.3-1.2 1.8a4.5 4.5 0 0 1-1.7 1l.5 1.6 1.7-.2a464.4 464.4 0 0 1-3.1-105.8c.3-4 .7-9.3.7-14.7 0-3.1-.1-6.2-.5-9-.3-3-.8-5.7-1.7-8a12.5 12.5 0 0 0-5.6-6.7 16.9 16.9 0 0 0-8.3-2c-2.3 0-4.8.4-7.2 1a1.8 1.8 0 0 0-1.4 1.5 389.1 389.1 0 0 0 6 109 1.8 1.8 0 0 0 3.5-.2l.5-87.4V139c0-3.4 0-6.9-.6-10.4-.6-3.4-1.6-6.8-3.6-10a13.6 13.6 0 0 0-5.3-4.8 15.2 15.2 0 0 0-7-1.6 14 14 0 0 0-8.9 3 1.8 1.8 0 0 0-.6 1.5c.3 7.3.4 14.6.4 21.8 0 16-.6 32-.6 48.2a474.6 474.6 0 0 0 .6 27.3c0 3.1-.2 6.2-.8 9-.7 2.8-1.8 5.3-3.6 7.4l1.4 1.1 1.3-1a35 35 0 0 1-4.7-8c-1.3-2.9-2.6-5.8-5.1-8.8-.8-1-1.6-1.9-2.6-2.8-1-.9-2.2-1.7-3.6-2a8.1 8.1 0 0 0-2.2-.4c-1.3 0-2.6.3-3.7.7l-3.3 1a20 20 0 0 1-6 .9c-6.1 0-12.4-2.8-17.1-7.2a25.8 25.8 0 0 1-5.7-7.6 21 21 0 0 1-2-9.8v-3c0-1.3 0-2.9-.8-4.3a6.1 6.1 0 0 0-1.5-2c-.7-.6-1.5-1-2.5-1.4-.9-.3-1.7-.4-2.6-.4a202.3 202.3 0 0 0-33.6 1.3 1.8 1.8 0 0 0-1.5 1.6 137.2 137.2 0 0 0 4.4 39.1 1.8 1.8 0 0 0 3.3.1 49 49 0 0 0 2-23.8 16 16 0 0 0-1-3.6 7.5 7.5 0 0 0-2.7-3.3c-1-.8-2.1-1-3.2-1.3l-3-.1-20.7-.1h-.2c-.7 0-1.5 0-2.4.2a6 6 0 0 0-2.6 1 6 6 0 0 0-2 2.8c-.4 1-.5 2-.7 2.9a76.8 76.8 0 0 0-.8 11.1 78 78 0 0 0 6.3 30.7 1.7 1.7 0 0 0 2.8.6 7.4 7.4 0 0 0 1.9-2.7 8.2 8.2 0 0 0 .6-3c0-2.3-.8-4.5-2-6.3-1.3-1.9-3.1-3.5-5.3-4.3-2-.7-3.9-1-5.8-1-4.1 0-8.1 1.2-11.8 2.4a1.8 1.8 0 0 0-1.2 1.5c-.5 6-.9 10.9-2 15.3a31 31 0 0 1-6.6 13l1.4 1-1.1-1.3c-2.2 1.8-4.2 3-6 3.7a13 13 0 0 1-12.1-.8c-2.4-1.3-5-3.1-7.7-5.3l-3.3-2.7c-1.2-1-2.5-1.8-4.1-2.3-1.4-.4-2.8-.6-4.4-.7-2.3-.2-4.7-.2-6.7-.5-1-.2-2-.4-2.6-.7-.7-.2-1.2-.6-1.5-1a9.7 9.7 0 0 1-2.3-6 6.3 6.3 0 0 1 2.4-5c.4-.3.7-.8.7-1.3s-.2-1-.5-1.3c-3.7-3.7-8-6-12.8-7.3a53.6 53.6 0 0 0-14.9-1.9c-3.6 0-7.3.3-10.8.6a5.2 5.2 0 0 0-3.3 1.7 5.2 5.2 0 0 0-1.3 4 5.2 5.2 0 0 0 5 4.7 194.2 194.2 0 0 0 36.2-3 1.8 1.8 0 0 0 .6-3.1 19.3 19.3 0 0 1-7.4-8 24.1 24.1 0 0 1-2.5-11c0-5.4 1.8-10.8 5.6-14.6a1.8 1.8 0 0 0 .5-1.6 1.8 1.8 0 0 0-1.2-1.3 16.4 16.4 0 0 1-7.4-4.7c-1.8-2-3.1-4.6-4.5-8a1.5 1.5 0 0 0 0-.2c-1.9-3-2.6-6.2-2.6-9.5 0-6 2.5-12.7 5.3-19.1 2-4.6 4.3-8.4 6.2-12.5a30.5 30.5 0 0 0 3.3-15.2 1.7 1.7 0 0 0-.9-1.4 1.7 1.7 0 0 0-1.6 0 35.5 35.5 0 0 0-13 10 24.1 24.1 0 0 0-5 17.5c0 1 .9 1.6 1.8 1.6 2.9 0 5.5-1.5 7.3-3.5a15 15 0 0 0 3.8-7.1c.3-1.5.5-2.9.5-4.3 0-3.7-.9-7.3-1.7-10.6a1.7 1.7 0 0 0-1.5-1.4l-7.6-.7-.1 1.7h1.7a42.5 42.5 0 0 1 0-1.6c0-7.7 2.1-15.5 6-22.1a1.8 1.8 0 0 0-2.6-2.3l-4.8 4.2-.2-4.7a1.7 1.7 0 0 0-1.4-1.6 1.7 1.7 0 0 0-2 .9l-2 4.2-1.8-4a1.8 1.8 0 0 0-1.6-1 1.8 1.8 0 0 0-1.6 1.1l-3.8 11.4 1.6.6 1.8-.2a11.7 11.7 0 0 0-2.8-6.5 1.7 1.7 0 0 0-1.8-.6 1.7 1.7 0 0 0-1.3 1.5 87.2 87.2 0 0 0-.4 18.8 1.7 1.7 0 0 0 1.9 1.6 1.7 1.7 0 0 0 1.6-1.8l-1.7-46.1c0-2.8-.4-5.9-1.5-8.6-.6-1.3-1.3-2.6-2.4-3.6a7.7 7.7 0 0 0-4.1-2 1.7 1.7 0 0 0-2 1.8l4.6 89.4a91.4 91.4 0 0 1 .1 4.8c0 6.4-.8 13.2-3.9 20l1.6.8-1.5-1c-1 1.7-2.3 3.8-3.4 6l-1.4 3.5a12 12 0 0 0-.6 3.6c0 .8 0 1.6.4 2.4a6 6 0 0 0 1.3 2.2c1.3 1.3 3 2 4.7 2.2l3.3.2c4.4 0 8.7-1 13-1.7 4.2-.9 8.3-1.7 12-1.7 1.9 0 3.7.2 5.3.8a12.6 12.6 0 0 1 4.7 2.5l1.1-1.3-.5-1.7a144.6 144.6 0 0 1-47.4 5v1.7l1.5-.8c-.6-1.2-1-2.5-.9-3.9 0-2 .7-4 1.9-5.5l-1.4-1.1-1.6.7a69.5 69.5 0 0 1 4.9 41.1l1.7.3-1.2-1.3-.4.3a1 1 0 0 1-.4 0c-.3 0-.7 0-1.3-.2-.6-.1-1.4-.4-2.3-.4a4.5 4.5 0 0 0-1.6.3 4.8 4.8 0 0 0-1.6 1 24 24 0 0 0-2 2.2l-4 5.1a88.8 88.8 0 0 1-6.8 8.2c-1.2 1.1-2.3 2-3.2 2.6-1 .7-1.8.9-2.3.9a1.6 1.6 0 0 1-.3 0l-.4 1.7-.2 1.7s19.1 2.7 44 2.7c8.1 0 16.7-.3 25.6-1v-.5l-.1.5h.1v-.5l-.1.5.2-1.3-.8 1 .6.3.2-1.3-.8 1 1-1.2-1.4.6c0 .2.2.4.4.5l1-1.1-1.4.6 1.4-.6h-1.5v.6l1.5-.6h-1.5 1.3l-1.2-.5-.1.5h1.3l-1.2-.5.7.3-.7-.5v.2l.7.3-.7-.5.2.2-.1-.2.1.2-.1-.2-1 .8c-1 .6-2.4 1.3-4.3 2a89.8 89.8 0 0 1-31.4 4.7c-16.4 0-38.3-2.8-66.3-11.8H35c-4.9-.8-9.7-1.5-14.4-1.5-3.5 0-7 .4-10.3 1.4a28.3 28.3 0 0 0-9.7 5 1.8 1.8 0 0 0-.3 2.4 1.7 1.7 0 0 0 2.4.3 24.8 24.8 0 0 1 8.5-4.4c3-.8 6.1-1.2 9.4-1.2 4.4 0 9 .7 13.9 1.4l.3-1.7-.6 1.7c28.3 9 50.6 12 67.4 12 13.1 0 22.9-1.9 29.4-3.9a39 39 0 0 0 9.4-4.4l.7-.7.3-.6.2-.8a2 2 0 0 0-.9-1.6 2.2 2.2 0 0 0-.8-.4 3 3 0 0 0-.6 0h-.3a372 372 0 0 1-65.5-1.2 193.5 193.5 0 0 1-3.1-.4h-.2a1.8 1.8 0 0 0-.6 3.4l1 .1a7 7 0 0 0 3.2-.9c1.8-.9 3.4-2.3 5-4 2.6-2.6 5-5.7 7.2-8.5l3-4a25.7 25.7 0 0 1 2.7-2.8h.4c.3 0 .8 0 1.4.2.6.2 1.3.4 2.2.4a4.5 4.5 0 0 0 1.6-.3 4.8 4.8 0 0 0 1.6-1 1.8 1.8 0 0 0 .5-1 72 72 0 0 0 1.3-13.3 73 73 0 0 0-6.4-29.8 1.8 1.8 0 0 0-1.4-1 1.8 1.8 0 0 0-1.6.6 12.5 12.5 0 0 0-1.3 13.2c.3.6.8 1 1.4 1a148.1 148.1 0 0 0 48.6-5 1.8 1.8 0 0 0 1.2-1.4 1.8 1.8 0 0 0-.5-1.7 16.1 16.1 0 0 0-6-3.3c-2-.6-4.2-.9-6.3-.9-4.2 0-8.5.9-12.7 1.7a65.4 65.4 0 0 1-15.2 1.5c-1-.1-2-.5-2.6-1.2a2.4 2.4 0 0 1-.5-.9 3.6 3.6 0 0 1-.2-1.2c0-.7.1-1.6.4-2.5.5-1.5 1.2-3 2-4.5l2.5-4.2.1-.2a51.8 51.8 0 0 0 4-26.4l-4.6-89.5-1.7.1-.3 1.7c1 .2 1.7.6 2.3 1.1 1 .9 1.6 2.3 2 4.1.6 1.8.8 3.8.8 5.7l1.7 46h1.8l1.7-.1a83.7 83.7 0 0 1 .4-18l-1.7-.3-1.3 1.1a8.2 8.2 0 0 1 1.9 4.6 1.7 1.7 0 0 0 3.4.4l2.3-7 1.4 3.3a1.7 1.7 0 0 0 3.2 0l.8-1.5v1.5a1.8 1.8 0 0 0 3 1.3l7.5-6.5-1.1-1.3-1.5-1a47 47 0 0 0-6.6 25.7 1.8 1.8 0 0 0 1.6 1.7l7.6.7.1-1.7-1.7.4c.8 3.3 1.6 6.7 1.6 9.8 0 1.2-.1 2.4-.4 3.5-.4 2-1.5 4-2.9 5.5a7.2 7.2 0 0 1-5 2.4l.1 1.7 1.8-.1a25.1 25.1 0 0 1-.1-2.2c0-5 1.5-9.3 4.3-13a32 32 0 0 1 11.8-8.9l-.8-1.6-1.7.1v1.5a27 27 0 0 1-3 12c-1.8 3.8-4.1 7.7-6.3 12.6a53.8 53.8 0 0 0-5.5 20.5c0 3.8.8 7.7 3 11.3l1.5-1-1.6.7a31 31 0 0 0 5 9 20 20 0 0 0 9 5.7l.6-1.6-1.3-1.2a24 24 0 0 0-6.6 17c0 4.4 1 8.7 3 12.6 1.9 3.8 4.8 7.1 8.6 9.4l1-1.5-.4-1.8a190.7 190.7 0 0 1-35.5 2.9c-.9 0-1.6-.7-1.7-1.5v-.2c0-.5.2-.9.5-1.2a1.7 1.7 0 0 1 1-.5c3.5-.3 7-.6 10.5-.6 4.9 0 9.6.5 13.9 1.7 4.3 1.3 8.1 3.3 11.3 6.5l1.2-1.3-1-1.3a9.9 9.9 0 0 0-2.9 3.6 10 10 0 0 0-.9 4.2c0 2.9 1.2 5.7 3 8.1a6.4 6.4 0 0 0 2 1.6c1.1.7 2.4 1 3.8 1.2 2 .4 4.2.5 6.2.6 2 0 3.8.2 4.9.6 1 .4 2 1 3 1.8l3.3 2.6c2.8 2.3 5.5 4.3 8.3 5.7a16.5 16.5 0 0 0 15.1 1c2.2-1 4.4-2.4 6.8-4.3l.2-.2c4-4.8 6.1-9.4 7.3-14.3 1.2-4.9 1.6-10 2.1-15.9l-1.7-.1.5 1.6c3.6-1.1 7.3-2.2 10.7-2.2 1.6 0 3.1.2 4.5.8a8 8 0 0 1 3.6 3c1 1.3 1.5 2.9 1.5 4.2 0 .7-.1 1.3-.3 1.8a4 4 0 0 1-1 1.5l1.1 1.2 1.6-.6a74.5 74.5 0 0 1-4.7-42.1c.2-.6.5-1 .8-1.3l1.1-.4 1.8-.1h20.9c.9 0 1.7 0 2.5.2.7.1 1.3.3 1.7.6.6.4 1 1 1.4 1.8.4.9.6 1.9.8 2.9a45.4 45.4 0 0 1-1.8 22.1l1.7.6 1.7-.5a133.7 133.7 0 0 1-4.3-38l-1.8-.1.2 1.7a198.8 198.8 0 0 1 33-1.2c.7 0 1.3 0 1.8.2l1.2.7c.5.4.7.8.9 1.5.2.6.3 1.4.3 2.3l-.1 2.7v1c0 3.6.8 7.2 2.4 10.5a30 30 0 0 0 26 16.8c2.3 0 4.7-.3 7-1 1-.4 2.2-.8 3.2-1 1-.4 1.9-.6 2.7-.6.4 0 .8 0 1.2.2.8.2 1.6.7 2.3 1.3l2.2 2.4c2.1 2.6 3.4 5.2 4.7 8 1.3 2.8 2.7 5.8 5.1 8.8a1.7 1.7 0 0 0 2.7 0c2.2-2.7 3.5-5.7 4.3-9 .7-3.1 1-6.4 1-9.7l-.2-5.6c-.4-7.3-.5-14.5-.5-21.7 0-16.1.6-32 .6-48.2 0-7.3 0-14.5-.4-22l-1.8.1 1.1 1.4c2-1.6 4.3-2.3 6.8-2.3a11.7 11.7 0 0 1 5.3 1.2c1.6.9 3 2 4 3.6a23 23 0 0 1 3 8.7 62.3 62.3 0 0 1 .6 11.6l-.5 87.3h1.7l1.8-.3a385.7 385.7 0 0 1-6-108l-1.8-.2.4 1.7c2.3-.5 4.5-.8 6.5-.8 2.6 0 4.8.4 6.6 1.4a9 9 0 0 1 4 5c.8 1.9 1.3 4.3 1.6 7a175.1 175.1 0 0 1-.3 23 467.8 467.8 0 0 0 3.2 106.7 1.7 1.7 0 0 0 2.3 1.4 8 8 0 0 0 3-1.8c1.2-1.2 2-2.7 2.6-4.3a16 16 0 0 0 .6-7.2c-.3-2-.8-4-1.2-5.8a25.6 25.6 0 0 1-.5-7.1c.2-1.4 1-3 2-4a6.5 6.5 0 0 1 1.8-1.3c.6-.2 1.1-.4 1.7-.4.4 0 .9.1 1.4.4a1.8 1.8 0 0 0 2.4-.7c.8-1.5 1-3 1-4.5a21 21 0 0 0-.8-5.4c-.4-1.7-1-3.3-1.2-4.8a5.7 5.7 0 0 1 0-1c0-1.4.4-3 1.2-4.3.4-.5.8-1 1.3-1.3a2 2 0 0 1 1-.4c.3 0 .6 0 1 .3a1.7 1.7 0 0 0 2.5-1.6l-.2-11.1 27.8 1.6a5 5 0 0 1 2.7 1c.7.5 1.3 1.2 1.6 2l.2 1.1a2 2 0 0 1-.3 1c-.2.5-.7.9-1.3 1.2-.6.3-1.5.4-2.3.4-1.3 0-2.6-.4-3.3-1.2a9.4 9.4 0 0 1-2.5-4.9c-.4-2-.5-4.2-.5-6.4l-1.5-89-1.7.1.7 1.6a39 39 0 0 1 33 .6l.8-1.6-.6-1.7a47 47 0 0 1-15.3 3c-3.2 0-6-.5-7.7-1.6a5.4 5.4 0 0 1-2-2 6 6 0 0 1-.7-3v-.6a446.1 446.1 0 0 1 2.3-22l-1.7-.4-.4 1.7a8.5 8.5 0 0 0 1.8.2c1.5 0 3-.4 4-1.3.8-.6 1.4-1.4 1.8-2.3.7-1.3 1.2-2.8 1.4-4.3a47.8 47.8 0 0 0-.6-14c-.3-1.8-.8-3.5-1.2-5-.3-1.7-.6-3.1-.6-4.5 0-1 .1-2 .4-3a.7.7 0 0 1 .1-.2h.4l1.7-.4a4.2 4.2 0 0 0 1.2-.7 4.4 4.4 0 0 0 1-1c2.2-3.4 2.9-7.2 2.9-11 0-4-.8-8.2-1.5-12.3A70 70 0 0 1 448 7.8c0-2 .2-3.8.7-5.6l-1.7-.4-1.7.1.2 4c0 4.6-.7 9.4-1.4 14.3-.7 4.8-1.5 9.8-1.5 14.8 0 1.4 0 2.9.2 4.3.1 1.3.7 2.3 1.5 3.2a13.6 13.6 0 0 0 9 3.8v-1 1-1 1-1.8h-1.7c0 6-.5 13.2-.5 19.4 0 2.4.1 4.8.3 6.9.2 2 .5 4 1 5.6a1.8 1.8 0 0 0 1.8 1.2l3-.3c1 0 1.5.1 2 .3l.7.5c.3.3.7.8 1 1.9.2 1 .3 2.5.3 4.5 0 4.3-.7 11-2 20.8a1.8 1.8 0 0 0 2 2 7.4 7.4 0 0 1 1.2-.2c.8 0 1.3.2 1.6.4l.8.6c.3.5.5 1.1.7 2 .2.8.3 1.7.3 2.8 0 1.8-.2 3.8-.5 5.6-.2 2-.4 3.7-.4 5.2v.5c.6 15.8 1.6 31.7 1.6 47.4a244 244 0 0 1-3 42c0 1.5.2 2.8.8 4 .5 1.3 1.3 2.6 2.2 4.2.5.9 1.6 1.1 2.5.6a1.8 1.8 0 0 0 .5-2.4m186.5 9.2.4 2.2 2 17.6a512 512 0 0 0 1.9 14.6c0 .4.3.6.4.8l.6.4.5.1h.4l2 .1a400.8 400.8 0 0 0 24.1-1l.4-.1.3-.1a1.8 1.8 0 0 0 0-3.2 1.7 1.7 0 0 0-2.3.7l1.5.8-1-1.4a1.7 1.7 0 0 0-.5.6l1.5.8-1-1.4 1 1.4-.6-1.6-.4.2 1 1.4-.6-1.6.4 1.1-.3-1.1.3 1.1-.3-1.1.2.5-.1-.5v.5-.5l-1.3.1a428.8 428.8 0 0 1-23.8.8 4.3 4.3 0 0 1-.3 0l-.2 1 .3-1h-.1l-.2 1 .3-1-.5 1.6.9-1.4-.4-.2-.5 1.6.9-1.4-1 1.5 1.3-1.2a1.7 1.7 0 0 0-.3-.3l-1 1.5 1.3-1.2-1.2 1.2 1.6-.5a1.8 1.8 0 0 0-.4-.7L662 263l1.6-.5a8.3 8.3 0 0 1-.1-.8c-.3-1.3-.7-4-1-7l-1.7-15.7a613 613 0 0 0-1-9.1 25 25 0 0 0-.3-1.6 1.7 1.7 0 0 0-2.1-1.4c-1 .3-1.6 1.2-1.4 2.2"/></g></svg>