<svg xmlns="http://www.w3.org/2000/svg" viewBox="0 0 2069 3065"><path d="M1051.2 3056c-19.4-14.5-31.7-30.5-52.2-67.8-36.7-67-61.7-187.6-61.9-299 0-42.4.7-50.6 5.6-79.9 18.6-108.1 34-165.2 74.7-278.5a1206.5 1206.5 0 0 1 86.7-180.6l7.9-14.8-4.9-11.9-9.2-23.1a586.8 586.8 0 0 0-40.3-72.1c-23.6-36-64.8-74.5-112.3-105.1a188.4 188.4 0 0 0-18.4-11.2 603 603 0 0 1-24-12.7c-54.6-29.5-80.4-36.7-147.4-40.4-35.4-2-81.3 0-131.9 6-20.3 2.2-44 5.1-53 6.1-9.1.8-35.7 4.5-59 8-68.2 10-103.2 12.9-151 13.1-36.6 0-48.7-.8-70.6-4.5-45.3-7.8-70.9-15.6-84.8-25.8a139.6 139.6 0 0 1-35-37.7c-6-11.9-37.1-89.9-43.9-109.7C87.8 1598 79 1529.8 79 1347.8c0-105.1 1.3-128.9 10.3-197.7 3.2-24.5 14.5-92.5 16.6-98.9.6-2.7-.2-3.5-3.1-3.5-8.4-.2-20.7-18.6-44.5-66.9A967.6 967.6 0 0 0 28 922.4a193.8 193.8 0 0 1-25.2-55.7c-7.5-35 5.4-96.7 24.6-117.8 9.6-10.4 32.4-22.3 53.7-28a43.8 43.8 0 0 1 24.8-1.5 106 106 0 0 1 52.4 29.9c24.2 24.4 31.3 45.3 22.3 65.6-5.1 11.4-24.4 40.3-27 40.3-1-.2.8-5.5 4.1-12.3 9.6-18.8 16.8-42.2 15.1-48.7-4.5-18.4-18.6-35.6-42.2-51-26.2-17.2-34.6-18-63.7-5.5-31.7 13.3-38.2 20.6-47.5 54a181.7 181.7 0 0 0-6.5 44.3c-1.2 29.3.6 39.1 11.2 56.9l9.7 16.6c1.2 2.2 5.1 8.2 8.6 13.3 8 11.7 12.3 19.9 28.4 56.7 14.8 32.8 30.4 57.4 34.4 53.9 1.5-1 5.6-9.2 9.3-18 10.2-24.4 15.1-33.6 21.5-41 15.3-17.6 32.1-17 40.1 1.6 3.7 8.6 4.3 14.2 4.3 41.6a481 481 0 0 1-7.6 90.5c-5.7 28.1.2 99.4 12.5 150a511 511 0 0 0 29.7 82.3 249.3 249.3 0 0 0 91.4 100.3 2798 2798 0 0 1 28.6 17.7c11.3 6.9 24.2 14.5 28.7 17 127.4 67.7 257.2 130.8 295.5 143.5 33.8 11.1 49 13.3 62.5 9.4a82.8 82.8 0 0 0 37.1-24.1c13.1-15.4 13.9-18.7 15.7-67.2 1.7-49 5.2-70.5 13.8-87.9a191.7 191.7 0 0 1 42.6-56.9c19.4-17.8 20.2-20.7 13.5-41.8-4.3-13.5-22.6-33.8-28.5-31.5-8.2 3.1-33.4 4.9-46.7 3.3-31.1-3.7-42.8-9.9-42.8-23 0-7.8 4.1-11 17.4-13.9 20.5-4.3 38.7-.8 62.7 12.3l14.7 8.2 10.5-5.3c26.8-13.6 55.3-40.4 55.3-52.3 0-1.6-7.2-17.6-16-35.6-15.6-32.6-15.8-33-15.8-49.4 0-14.3.6-18 6.6-29.9 9.4-19.2 21.7-29.5 55.9-46.7l28.5-14.5 4.1-13.1c7.9-26 10.4-45.3 10.2-83.8a553 553 0 0 0-8.2-106.1c-6.1-30.7-32.4-96.2-43.6-109.5-5.6-6.6-7-11.1-3.5-10.9 3.9 0 18.2 21.5 29.3 44.1a350.6 350.6 0 0 1 29.1 77.4c5.7 27.8 9.8 85.4 8.6 122.2-1.1 38.7-2.9 47.5-22.2 105.9-15.5 47.9-17.6 63.7-9 76.4 11.7 17.8 48.8 35.4 79.9 38.1l15 1.2 3.2-14.1c8.8-38.5 15.4-50.6 32.2-59.2 14.1-7.2 27-6.8 39.1.8 11.9 7.6 18.4 16.8 19.7 28.1 1 8.6.6 9.4-10.9 21.3a101.8 101.8 0 0 1-64.7 33.8l-7.4 1.2-4.5 22.9a480.5 480.5 0 0 0-5.5 40.2l-1.4 17 10.8 10c19.5 18.2 51 34 78.7 39.1l13.3 2.5 7.9-7c33.4-28.6 74.2-34.8 85.9-13.1 3.2 6.4 3.4 7.4.2 13.9-2.7 5.8-6.2 8.2-19.3 14-15.6 6.5-16.8 6.7-44 6.7l-28.1.2-7.3 7.2c-9.5 8.8-19.5 24.6-19.5 29.9 0 10.4 10.9 25.4 41 55.1 24.1 24 32.1 33.4 36.8 43 11.7 24.2 12.7 31.3 13.1 96.3.4 60.8 1.5 69.4 9.4 84.7 5 9.9 17.7 21.8 27.5 25.9 11.3 4.7 65.3 6.5 92.4 3a935.2 935.2 0 0 0 126.9-31.9c21.5-8 93.2-42.2 105.5-50.4 3.9-2.7 13.9-9 22.5-13.9 18.9-11.1 20.5-12.1 68.6-43.9 77.7-51.4 139.7-99.3 177.8-137.2 35-34.6 43.4-60.2 48.5-147a918 918 0 0 1 20.5-154.2c6-26 14.4-69.1 14.4-74 0-2.6-1.1-4.9-2.3-5.3-3.5-1.2-6.3-18.4-5.1-29.9 2-15.8 12.5-21.9 21.9-12.5 4.1 4.1 4.3 5.7 3.1 23.4l-1.3 18.8 10.5 3.3a70.4 70.4 0 0 0 15.6 3.3c9.8.2 30.1-6.6 34.2-10.9 7.7-8.8 29.4-61 44-105.7 5.7-17.4 12.9-32.3 13.9-28.4 1 4.1-20.1 77-29.1 100.1-13.9 35.8-21.5 46.3-37.9 52a70.8 70.8 0 0 1-50.1.2c-3.9-1.2-4.9 1.7-14 43.4-15.9 74-21.3 113.1-26 189.3-4.9 80.1-14.9 106.7-54.2 145.2a542.5 542.5 0 0 1-55.1 48.1c-38.9 32-132.9 98.3-162.4 114.5-5.6 3.1-11.3 6.8-12.9 8.2-11.7 9.6-83.8 48.7-117.4 63.7-29.7 13.3-104 35.2-145.8 43.2-23.8 4.3-73.3 4.9-89.1 1-28.5-7.2-46.9-21.1-57.1-43l-5.4-11.5-.2-63.4c0-35.1-.8-67.2-1.8-71.7-4.3-19.7-22.7-46.9-38.5-57.2a215.6 215.6 0 0 1-49.2-52.6c-9.8-18.4-6.7-34.8 10.1-53.2 4.1-4.6 7.1-8.4 6.5-8.9a702 702 0 0 0-18-5.3 138 138 0 0 1-48.9-21.5c-20.3-13.7-31.2-25.6-33.2-36.2-1.7-9.7.4-33.8 5.3-59.8 1.6-8.8 3.1-17 3.1-18.1 0-.8-4.5-1.6-10.1-1.6-13.5 0-39.7-7-54.8-14.5-26.3-13.3-43.7-34.9-43.7-54.3-.2-9.4 6-35.2 13.5-59 2.9-8.8 5-16.2 4.6-16.6a163 163 0 0 0-23.2 12.3c-36 20.9-52 39.5-53.9 63.5-1.2 13.3.9 19.5 17.3 53.2a230 230 0 0 1 14.3 34.2c2.7 16-13.9 37.5-43.6 57a288 288 0 0 1-17.6 10.8c-1.7.6-1.1 2.1 2 4.3 10.7 7.8 27.9 49.8 23.8 57.2a488.8 488.8 0 0 1-20.1 22.7c-40.4 43.2-52.2 70.7-52.2 121-.2 39.8-3.3 67-9 78.1a118 118 0 0 1-37.7 38.1c-21.7 12.5-41.8 11.8-83.2-2.5-36-12.3-45-16.4-137-61.2l-59-28.7-19.6 13.5c-25.4 17.8-35.5 29.3-49 57-18 36.4-32.1 90.9-37.9 145.8-1.4 12.7-3.2 23.1-4.1 23.1-2.6 0-4.7-34.2-3-52.2 2.6-32.4 21.1-98.7 34.6-125.6a131.1 131.1 0 0 1 59.4-57.7l15.9-7.6-12.9-5.7a927.9 927.9 0 0 1-43.6-22.3l-44-23.4c-7.4-3.9-25-14.3-38.9-23.3l-29.7-18.7c-36.3-22.3-69.9-63.1-92-111.8-21.7-47.7-30.5-82.7-37-145.6-3.9-39.1-4.1-62.5-.3-83.4 1.7-8.8 3.3-21.3 3.7-27.6l.9-11.5-6.6 2.1c-8.4 2.6-15.4.8-22.9-5.6-5.8-4.9-7.6-7.7-12.9-22.5l-2.3-6.1-3.9 6.1c-2.6 4.3-5.3 17.2-9 44-14.5 107.6-18 157.7-18 248.9.4 194.7 15.8 296.3 62.4 412.6a543 543 0 0 1 12.1 32.2c1.1 3.7 6.4 16.2 11.9 27.6a91.3 91.3 0 0 0 24 34.7c7.8 7.3 17.8 15.3 22.3 17.6 18.2 9.4 57.3 17 106.9 21.1 36.9 3 107.5-1.7 177.8-11.7 106.1-15.2 150.3-20.3 196.6-22.5a597 597 0 0 1 113.6 7.3c16.8 3.3 27.3 6.8 61.5 19.7 22.3 8.6 81.3 43 108.5 63.5 56.5 42.4 95.7 94 128.8 169.6l7 15.5 15.8-23.3a892.9 892.9 0 0 1 52.8-69.9c27-33.3 122.3-131.4 148.9-153.6a391.5 391.5 0 0 1 63.5-42.8c118-65.3 215.4-115.1 261.1-133.5 18.6-7.6 20.3-7.8 43-7.8 27 .2 40.6 3.9 87.1 24.4 52.6 23.3 96.2 34.6 120.4 30.9 5.5-.8 13.5-4.1 19.2-8 14.6-10 41-41.3 55.3-65.3 14-23.5 44.7-83.3 63.1-122.9 10.4-22.7 15.4-30.3 15.4-24.3 0 .8-5.4 13.1-11.5 27a1292 1292 0 0 0-19.7 46.1c-11.4 28.8-44.2 93.6-56.1 110.6-13.1 18.6-34.2 39.3-47.7 46.7-14.1 7.5-28.9 8.8-52.4 4.5a536 536 0 0 1-99.4-33.4c-52.8-23.4-73.5-27.5-97.9-19.3a1863.3 1863.3 0 0 0-147.8 71.1c-15.4 7.6-42 21.7-59.4 31.3l-47.1 25.4a1114 1114 0 0 0-42 24.6c-36.7 22.7-53.9 38.7-139.3 128.6-34.4 36.3-79.4 91.4-96.4 118l-14.8 22.7-7.1 10.9 7.3 23.9a3170.5 3170.5 0 0 1 56.8 204.4c27.4 119.6 31.9 170.6 29.9 339-2.3 180.6-7.4 221.6-34.6 278.3a102.9 102.9 0 0 1-23.2 34 211.6 211.6 0 0 1-59.4 40.1c-14.5 6.6-19.4 8-30.5 8-12.7 0-14.1-.6-25.2-9m13.3-8.8c-14.1-10.2-34-34.2-45.8-55.1-33.4-59.4-52.9-133.7-63.1-241.5-7.2-74.5-4.1-110.8 20.5-233.2 10.6-53.1 44.4-156.1 74.9-228.6 14.3-34 53.7-111.6 63.7-125.7l4.3-6.2 5.5 16.2c16.6 49.4 55.9 195.6 62.3 230.4 1.6 9.6 4.9 27.4 7.2 39.9 10.6 56.4 14.3 115.5 14.3 221.2 0 108.8-4.5 206.5-11.3 245.8a249.7 249.7 0 0 1-25.6 72.9c-15.3 26-33.8 41.2-70.2 58-19.1 8.8-30.3 10.6-36.7 5.9m97.1-1691.2c1.2-1.9 8.6-6.4 16.6-10.3 10.4-5.3 17-7.2 24.2-7.2 10.2 0 20.4 3.3 20.4 6.6 0 .8-5.5 4.5-12.2 7.8-11.1 5.3-14.4 6.1-31.8 6.1-17 0-19.2-.4-17.2-3m-406.5-46.7a63.4 63.4 0 0 1-13.9-6l-4.8-3.5 5.8-2.2a69.8 69.8 0 0 1 35.2.2c11.1 3.1 25.6 10 25.6 12.3 0 2.6-37.7 2-47.9-.8m296.9-103.5c8.6-38.9 13.1-48.3 26-54.4 14.2-6.8 27.3-2.3 36.5 12.2 3.7 6.2 3.7 7.2 1 12.5-6.9 13.1-38.1 32-56.5 34.4-8.2.9-8.2.9-7-4.7m-909.5-153.6a60.4 60.4 0 0 1-9.2-28c0-13.3 13.3-44.5 21.1-49.2 2.9-1.6 4.3-1.2 7.8 2.9 3.7 4.7 4.1 7.4 3.5 38.5-.7 29.1-1.3 34-4.3 36.4-5 4.1-15.4 3.7-18.9-.6m717-434.1a933.1 933.1 0 0 1-15.9-76.2c-4.1-24-4.8-35.5-4.8-84-.2-116.7 17.9-200.5 56.6-261.9 20.2-32.2 72.3-99 100.3-128.2 7.6-8 16.4-17.7 19.5-21.7 3.2-3.9 11.9-13.6 19.4-21.6 7.4-7.7 16-17 18.9-20.2 3.5-4.1 5.3-5.1 5.3-3.1 0 1.6-7.4 12.3-16.6 23.6-9 11.2-21.3 26.8-27.2 34.8-6 7.8-12.1 15.5-13.8 17.4-3.4 3.5-31.5 37.7-52.4 64.1a971 971 0 0 0-53.4 76c-28.3 48.5-48.2 151.7-48.2 249a447 447 0 0 0 3.5 67.6c7.4 44.8 11.5 77.8 10.7 81.9-.6 2.3-1.5 3.3-1.9 2.5" fill-rule="evenodd"/></svg>