<svg xmlns="http://www.w3.org/2000/svg" viewBox="0 0 2503 3948"><g fill="#231F20"><path d="m1615 1049.2 34.3-8.2 11.1-2.7 6-1.4 3-.8 4.6-1.1 6-1.5 2.8-.8 2.9-.7 4.2-1 4.1-1.2 2.7-.7 4-1 4-1.1 2.7-.8 2.6-.7 1.3-.3 7.9-2.3 3.8-1.1c31.5-9.2 59.6-19 86.6-30.8a514 514 0 0 0 185-134.1l1.7-1.8c61.3-70 112.6-115.6 159.4-144.5a336.2 336.2 0 0 1 55.5-27.9l2.3-.9 2.5-1 1.6-.5 2.3-.9 2-.7 1.2-.5 1.5-.5 2.6-.9 1.6-.5 2.4-.8 3.7-1.2 3.7-1.1 2.6-.9 8.3-2.5 14.8-4.4 3.5-1 2-.7 3.1-1 1.8-.5 1.8-.6 2.2-.7 1.6-.5 1.6-.6 2-.7 2-.7 2.1-.7 1-.4 1.6-.6c23.8-9 43.8-20.6 65.2-39.3l1-.8-.2-.9c-17-69-57.8-109.4-115-119.5l-1.8-.3c-37.6-6.1-80.6 1.2-123.8 20.3l-1.6.7-.3.4a695.9 695.9 0 0 1-6.4 7.4l-1.9 2.2a947.7 947.7 0 0 0-8.8 10.2l-1.9 2.2-2.3 2.8-2 2.2-1.8 2.3-1.9 2.3-2.7 3.3-3.2 4-3.8 4.6-5.9 7.3-5.3 6.8-8.8 11-15 19.3-7 8.7-4.8 6.1-4.4 5.6-3.8 4.6-3.6 4.5-2.4 2.9-1.9 2.3-1.8 2.2-2 2.3-2.6 3.2-6 7.1-6 7.3-5.7 6.8-6 7.1-6.9 8.5-8.2 10-28.3 34.7-6 7.3-8 9.8-7 8.3-6.4 7.9-4.9 5.8-3.3 4-5.2 6.2-3.8 4.5-5 5.8-4.2 5-3.5 4-3.6 4.1-3 3.4-2.8 3.3-2.2 2.5-1.4 1.6-1.5 1.7a1818.4 1818.4 0 0 1-5.8 6.5 1080.1 1080.1 0 0 1-91.2 91.5l-2.8 2.4-1.5 1.4-1.5 1.4-1.7 1.5-1.6 1.6-1.7 1.6-2.3 2.1-1.4 1.4-2.5 2.4-2.6 2.6-7 6.8-9.4 9.4-5.1 5-4.1 4-2 2-1.8 1.7-1.8 1.8-1.8 1.7-1.8 1.6-.9.9-1.7 1.6-1.8 1.6-.8.8-1.7 1.6-1.7 1.5-.8.7-1.7 1.5-.8.8-1.7 1.4-1.6 1.4-1.6 1.4-.8.7-1.6 1.3-1.6 1.4-1.6 1.3-.8.6-1.5 1.3-2.3 1.8-1.6 1.2-.7.6-1.6 1.2a246.7 246.7 0 0 1-7.6 5.6l-1.5 1-1.5 1-1.5 1c-19.6 13.2-38 20.7-56 21.8a6 6 0 0 1-6-8.2l1.6-4-1.2.7-2.5 1.5-2.6 1.4-2.6 1.5-2.6 1.4-1.3.7-2.6 1.4-2.7 1.4-2.7 1.5-1.3.7-2.7 1.4-2.7 1.4-2.8 1.4-2.7 1.4-2.8 1.4-2.8 1.4-2.8 1.5-1.5.7-2.8 1.4-3 1.4-2.8 1.4-3 1.4-1.4.7-3 1.4-3 1.5-1.5.7-3 1.4-3.1 1.4-1.6.7-3.1 1.5-3.1 1.4-3.2 1.4-3.2 1.5-3.2 1.4-3.3 1.5-3.3 1.4-3.3 1.5-3.4 1.4-3.4 1.5-3.4 1.5-3.4 1.5-3.5 1.5-4.7 2-4.3 1.8-4.5 1.8-6 2.6-3.8 1.5.2.1a40.8 40.8 0 0 1 24.3 31v.1l1.5.5c40.7 13.2 71.1 45.4 86.5 96.8l.7 2.3c6.7 23.2 5.9 47.2-1.3 73.7l-.5 1.8-.5 1.8-.4 1.2-.3 1.1-.4 1.2-.3 1.2-.4 1.1-.3 1.2-.4 1.2-.4 1.1-.4 1.2-.4 1.2-.4 1.2-.4 1.2-.4 1.2-.5 1.2-.4 1.2-.5 1.2-.4 1.2-.8 1.9-.7 1.8-.8 2-.5 1.3-.5 1.3-.9 2-.8 2-1 2.1-.8 2.1-1 2.2-1 2.3-1.4 3-1.8 4-1.5 3.3-2 4.4-2.1 4.5-7.4 15.7-2.7 5.6-2 4.5-2 4.1-.8 2-1.4 3.1-1.1 2.4-.8 1.7-.7 1.7-.9 2.1-.7 1.6-.8 2-.8 2-.6 1.4-.5 1.5-.4.9-.7 1.8-.5 1.4-.3 1-.7 1.8-.5 1.4-.5 1.3-.6 2-.6 1.8-.3 1v.2c-2.6 7.2-13.4 3.8-11.6-3.5l.1-.3a7.6 7.6 0 0 0 0-.9v-1.4l-.1-.7a41.3 41.3 0 0 0 0-.4l-.2-.7v-.7l-.2-.8v-.7l-.3-1.4-.2-.9-.4-2-1.2-6.2-.6-2.8-.3-1.8-.2-1.2-.2-1.1-.1-.8-.2-1v-.4l-.1-.7v-1.2l-.1-.4v-2c.1-3.5.5-7.2 1-11l.2-1.3.1-.8.2-1.2.2-.9.2-1.2.2-1.3.2-.8.2-1.3.3-1.3.4-1.8.4-2 .4-1.4.4-1.6.5-2.1.7-3 1-3.8 2-8 1-4.1.8-3.1 2.8-12.3 1.1-5 .8-4 .6-2.4.2-1.5.3-1.5.2-1 .1-1 .3-2 .1-.6a83.7 83.7 0 0 0 .3-26.8c-1.6-9.3-5.2-18.1-11.5-27.2l-1.9-2.8-1.9-2.8-1.8-2.6-1.2-1.7-1.2-1.7-1.7-2.5-1.7-2.4-1.7-2.3-1.7-2.3-1.6-2.2-1-1.5-1.1-1.4-1-1.4-1.1-1.4-1-1.4-1.1-1.4-1-1.3-1.7-2-1.5-2-1.1-1.3-1-1.4-1.1-1.3-1.1-1.3a324 324 0 0 0-6-7l-.4-.5-.8 2.4-.9 2.5-.6 1.8-.7 1.9-1 2.8-1 2.8-.6 1.9-1 2.9-1.1 2.9-1.1 2.9-1.1 3-.8 2-1.1 3-1.2 3.1-.9 2.1-1.2 3.2-1.3 3.3-1.8 4.5-2.3 5.8-2.4 6-3.4 8.1-9 21.7-9.7 23-1.7 4.2-.8 2-.7 1.8-.7 1.7-.7 1.7-.3.8-.6 1.6-.6 1.6-.6 1.5-.5 1.5-.6 1.5-.5 1.4-.2.7-.5 1.5-.4 1.3-.5 1.4-.4 1.4-.4 1.3-.4 1.3c-5 17.6-5.6 31.7-1 45.1a88.9 88.9 0 0 0 27.8 37.1 6 6 0 0 1-4.2 10.6c-25.2-1.1-47.7-14.2-65.6-36.1a161 161 0 0 1-34.6-112.4v-2l.2-2.1v-.7l.1-1.4.1-1.5.1-1.4.2-2.1.2-2.2.2-2.2.1-1.5.2-1.5.1-1.6.2-1.5.2-2.4.2-1.6.2-1.7.3-2.5.3-2.6.4-2.6.3-2.8.4-2.9.6-4v-.3l.1-.9.2-.9.1-1 .1-.4.2-1 .2-1 .3-1.6.4-1.7.5-2.3 1.3-5.7-.5.3a419.6 419.6 0 0 1-9.2 5.6l-.4.3a168.7 168.7 0 0 0-1.9 12.5v1c-1.8 16.3-1.6 34.1.3 54.7l.3 2.5.2 2.6.3 2.6.3 2.6 1.2 9.3.2 1.4c0 .9.2 1.8.3 2.6l.5 3.3.5 3.2.5 3.9.7 4 .4 2.7.7 4.3.9 5.3.8 4.7 1.7 9.7 3.3 18.3 1.4 8 1.3 8 .8 4.9.6 3.2.4 2.5.4 2.4.4 2.8.3 2.1.5 3 .3 2.5.2 1.9.3 1.8.2 2.2.3 2.2.1 1.7.2 1.7v1l.7 7.2 2.6 39 1 15.5.9 11.6.6 8.4.3 4.2.5 5.3.4 5.6.4 3.9.2 3 .3 3 .3 3.2.5 4.8.3 3.7.4 3.6.4 3.6.3 3.6.4 3.5.4 3.6.4 3.4.4 3.5.4 3.4.2 1.8.4 3.4.5 3.3.2 1.7.4 3.3.5 3.3.4 3.3.8 4.9.4 3.2.5 3.2.3 1.6.5 3.1 1.3 7.8.5 3a692 692 0 0 0 3.4 18l.6 3 .6 2.9.6 2.9c3.6 16.3 7.6 31.6 12.2 46.3l1.7 5.3 1.3 4 1.1 3.6 1.7 5.3 1.9 6 2.8 9.3 3.5 11.3 3.7 12.3 4.9 16.5 9.8 33.5 3.7 12.7 3.2 10.8 3 10.4 3.7 12.3 2.1 7.1 3.4 11.3 2.6 8.7 1.3 4.2 1.9 6 1.2 4 1.8 6 1.2 3.7 1.7 5.6 1.7 5.5 1.1 3.5 1.2 3.5 1 3.5 1.1 3.4 1.7 5 1.6 5 1 3.1 1.1 3.2 1.6 4.8 1 3 1.1 3.2 1 3 1.1 3.1 1 3 1.1 3.1 1 3 1.2 3 1 3 1.1 3.1 1.1 3 1.7 4.6 1 3 1.2 3 1.1 3.1 1.2 3.1c25.4 68 65.8 241.3 102.7 433.4l1.6 8.4 2 10.6 2 10.5 1.5 7.8 1.4 7.8 1.5 7.7 1.4 7.7 1.9 10.2 1.3 7.6 1.8 10 1.4 7.5 1.7 9.9 1.7 9.7 1.3 7.2.8 4.8 1.3 7.1 1.2 7 1.5 9.4 1.6 9.1 1 6.8 1.2 6.6 1 6.6 1 6.5 1.1 6.4 1 6.4 1 6.2 1 6.1.8 6 1 6 .8 5.8.6 3.8 1.1 8 .9 6.1.6 4.7.7 4.6.6 4.6.7 5.5.6 4.3.5 4.2.4 3 .6 5 .4 4 .5 3.7.4 3.6.2 1.8.4 4.4.4 4.2.3 3.2.2 2.4.3 3 .1 1.5.3 3.3v1.9l.3 2.4v1.8l.2 1.7v1.6l.1 1.6v2.5l.1 1v8.1l-.1.7v.8l-.1.7v.3l-.1.7-.1.6-.1.6v.6l-.2.6-.1.6-.1.5v.3l-.2.5-.2.8-.1.4c-.5 1.5-1 2.7-1.8 3.6l-.2.3-.2.1a6 6 0 0 1-10.3-3c-10.7-65.7-27.7-120-50.5-164.7-6.6-13-13.6-25-21-36.2l-.7-1 .7 1.9a445 445 0 0 1 20.5 89.5l.3 2.7c24.4 200.5 22.6 419.3-6.2 608-31.8 208.7-140.7 504.4-246.9 669.4a6 6 0 0 1-10-6.5c105.2-163.5 213.5-457.6 245-664.6 28.7-187.7 30.4-405.4 6.2-604.8a409 409 0 0 0-37.7-131.9l-.1-.2a310.7 310.7 0 0 0-19.2-19.6l-1-.9a343.8 343.8 0 0 0-47.5-36.6l-1-.6-1.8-1.2-2-1.2-.9-.6-2-1.2-.9-.6-2-1.2-2-1.3-2-1.2-2-1.2-2.2-1.3-2.2-1.3-5.1-3-16.2-9.3a572.9 572.9 0 0 0-78.6-37.5l-3.8-1.5-3.5-1.4-4.2-1.6-4.2-1.6-4.2-1.6-3.6-1.3-2.2-.8-4.4-1.6-3.8-1.3-3.9-1.4-4-1.4-5-1.8-4.4-1.5-3.6-1.2-6.6-2.3-9.2-3-9.8-3.3-29.6-9.8-9.8-3.3-7-2.4-3-1a1269.6 1269.6 0 0 1-61-22.7l-1.6-.6-.3.4a246.4 246.4 0 0 1-7.8 11.7l-.8 1a387.7 387.7 0 0 1-74.6 76c-30.8 24-65 40.4-105.2 51.7l-2 .6-2.8.8-2 .5-1.8.5-2 .5-1.9.5-2 .5-1.9.4-1.9.5-2 .5-1.9.4-2 .5-2 .4-2 .4-2 .5-2 .4-2 .4-2 .4-2.2.4-1 .2-2 .4-2.2.4-2.2.4-2.1.4-2.2.4-2.2.4-2.2.4-2.3.3-2.3.4-2.3.4-2.3.4-2.4.3-2.4.4-2.4.4-2.5.3-2.5.4-3.8.5-4 .5-3.9.6-4 .5-2.8.4-4.2.5-5.8.7-4.4.6-4.6.5-5 .6-5 .6-4.9.6-3.2.4-3.1.4-4.6.6-4.5.6-4.3.5-2.9.4-2.8.4-2.7.4-2.7.4-2.6.4-4 .5-2.5.4-2.5.4-2.4.4-2.5.4-2.4.4-2.3.4-1.2.2-2.3.4-2.3.5-2.2.4-2.3.4-1 .2-2.2.4-1.1.3-2.2.4-2 .4-1.1.3-2.1.4-2.1.5-2 .4-2.1.5-2 .5-2 .5-2 .5-1 .2-2 .6-2 .5-2 .5-2 .5-2 .6-1.9.6-1 .2-1.9.6-2 .6-1 .3-1.9.6-1 .3c-42.9 13.6-76 33.7-100.4 63.3-14 17.1-24.3 36.7-32.3 60.3a347.2 347.2 0 0 0-1.6 4.8l-.5 1.6-.7 2-.5 2-.6 1.8-.4 1.5-.5 1.4-.6 2.5-.6 2-.5 2-.6 2-.4 1.7-.5 2.1-.6 2.2-.5 2.3-.6 2.4-.7 3-.7 3.3-1 4.7-1 4.3-1.3 6.1-1.4 6.6-2.7 13-.9 4.4-.6 3.2-.7 3-.9 4-.6 3-.6 2.7-.7 2.8-.6 2.6-.6 2.6-.8 3.4-.4 1.6-.6 2.4-.6 2.4-.6 2.3-.4 1.5-.4 1.5-.6 2.2-.6 2.2-.4 1.4-.6 2.1-.5 1.4-.6 2-.4 1.4-.7 2-.4 1.3-.4 1.4-.5 1.3-.4 1.3-.7 2-.5 1.2-.7 2-.5 1.3-.7 1.9-.5 1.3-.5 1.3-.8 2a215.8 215.8 0 0 1-60.1 82.3l-1 .8-1.2 1.1-2 1.7-1.2 1-1.2 1.1-1.3 1-.6.6-2 1.5-1.2 1-1.3 1.1-1.2 1-1.3 1-1.3 1-1.4 1.1-1.3 1-2 1.5-1.3 1-1.4 1-1.4 1.1-1.4 1-1.5 1-2.1 1.7-2.3 1.5-2.3 1.6-2.3 1.7-1.6 1-1.7 1.2-2.5 1.7-1.7 1.1-2.7 1.8-1.8 1.2-2.8 1.8-3.8 2.5-3 2-4.2 2.6-3.2 2-4.5 3-4.7 2.9-5 3-17.6 11.2-6.4 4-4 2.5-3.7 2.4-.7.5c-65.4 42.4-103.2 90.2-127.5 162a6 6 0 0 1-10.4 1.7l-20.7-27-8.2-10.6-3.3-4.4-4-5.2-.9-1.3c-61.6-81.8-108-153.9-143.4-226.6-42.6-87.7-67-172.8-70.8-257.8-4-88.9 21.5-170.5 73-244.3 45.6-65.2 110.7-123.4 191-173.7 82.9-52 166-86.3 247.6-99.8 91.2-15.2 179-4.3 261.7 35.4a725.7 725.7 0 0 1 43.9 23l3.2 1.8 3.2 1.8 3.3 2 3.3 1.8 1.6 1 3.3 2 6.7 4 3.4 2 1.7 1 3.4 2.1 2.9 1.8 3.2 2 3 2 1.9 1 5 3.2 3 2 5 3.1 3.3 2.2 4 2.6 7.3 4.8 6.6 4.3 8.7 5.7 12.3 8.2h.4a817 817 0 0 1 73-7.7l4-.2 5.2-.3 5.9-.3 3.7-.2 2.7-.1 3.4-.1 1.7-.1h2.5l3.3-.2h3.2l2.3-.1h14.3c21.2.1 40.3 1.7 57.6 5 45 8.7 74 28.8 81.4 63.7a85.1 85.1 0 0 1 1.9 17.2v.6l.5.2c31.2 8.2 61.4 17.9 90 28.8l2.7 1c91 35 161.3 78.3 213 133.5 24.6 26.4 45 55.6 61 87.7l.3.6.2.2c18.7 21 35.2 45.3 49.7 73.5l.7 1.3a497.6 497.6 0 0 1 36.5 96.9l.3 1.4-.5-4.5-.6-4.2-.7-5.6-.4-2.9-.4-3-.6-4.4-.8-6.1-.7-4.7-.4-2.8-.8-5.6-.9-5.7-.8-5.8-1-6-.8-6-1-6.2-1.3-8.3-1-6.4-.7-4.3-1.4-8.7-1.1-6.6-.7-4.5-1.5-9-1.6-9.2-1.2-7-1.2-7-1.6-9.5-1.3-7.3-1.7-9.7-1.7-9.8-1.4-7.5-1.3-7.5-1.8-10-1.4-7.7-1.4-7.6-1.5-7.8-1.4-7.7-1.5-7.8-2-10.5-2-10.5-1-5.3c-37-193.7-77.9-369.4-103.2-437.2l-1.8-4.6-1.1-3.1-1.7-4.6-1.1-3-1.1-3.1-1.1-3-1.6-4.6-1.1-3-1-3-.6-1.6-1-3-1.2-3.1-1.5-4.7-1.1-3-1-3.2-1.7-4.8-1-3.2-1-3.3-1.2-3.2-1.6-5-1-3.4-1.7-5.2-1.7-5.3-1.2-3.6-1.1-3.7-1.7-5.6-1.8-5.7-1.2-4-1.9-6-1.9-6.2-1.3-4.3-2-6.5-2.6-9-2.8-9.5-3-9.8-3.8-13-2.4-8-10.8-36.9-6.5-22-3.6-12.1-3-9.6-2.2-7.6-2.2-7.3-2-6.4-1.3-4-1.1-3.6-1.1-3.5-1.3-4-1.3-4c-4.2-13.3-8-27-11.3-41.4l-.6-2.8a671.7 671.7 0 0 1-6.6-33.1l-.5-3.1-.5-3.2-.6-3.2-.2-1.6-.5-3.2a859.6 859.6 0 0 1-.3-1.6l-.5-3.3-.4-3.2-.7-5-.5-3.3-.2-1.7-.5-3.4-.4-3.4-.2-1.7-.5-3.5a1103.5 1103.5 0 0 1-.2-1.7l-.4-3.5-.4-3.5-.2-1.7-.4-3.6-.4-3.6-.4-3.6-.4-3.6-.2-1.9-.3-3.7-.4-3.7-.3-3-.4-4.5-.5-5.9-.5-5.8-.5-5.6-.7-8.3-.6-8.3-.4-6.3-.9-11.6-1-15.5-2.2-32.2-.1-2.1-.2-2v-1.1l-.2-1.5-.2-2-.2-2-.1-1.6-.2-2-.2-1.6-.2-1-.1-1.2-.3-2.2-.3-2.3-.4-2.5-.4-2.6-.4-2.7-.6-3.6-.6-3.9-.5-3.3-.8-4.5-1.4-7.9-1.4-7.8-3.2-18.4-1-5.3-.8-5-.8-4.8-.8-4.4-.6-4.3-.4-2.1-.4-2.7-.6-4-.5-3.3-.3-2.7-.4-2.7c-1.7-12.7-3-24.5-3.6-35.6l-.1-2.4a256.7 256.7 0 0 1 1.3-44.6v-.6l-1 .6c-11.6 6.2-23.5 12-35.7 17.5l-.6.3v.9l.6 7.6.1 1c2.5 26.5 10 53.7 20.4 74.8l.5 1c20.7 41 16.7 67.7-13.7 106.3l-1.2 1.4-.4.6-.7.9-1 1.1-.7.8-.5.6-.8.9-.7.8-.9 1-.8.8-1.3 1.3-1.6 1.8-2.3 2.3-3.9 3.8-1 1-1 1-1.3 1.5-1 .9-.8.9-.8.9-.8.8-.8.9-.4.4-.7.8-.8.8-.3.4-.7.8-.6.8-.4.4-.6.7-.6.8-.6.7-.5.7-.6.8-.5.7-.5.7-.5.7a52 52 0 0 0-1.5 2.4l-.4.7a46.7 46.7 0 0 0-1.1 2.1l-.4.8-.3.7-.4.7-.3.7-.3.7-.1.4-.3.8-.3.7-.3.8-.1.4-.1.4c-5 15.1-6.5 37-2.8 47.8v.2l.1.2 3 4.9.7 1c3.9 5.9-4 12.5-9.2 7.5-2.3-2.1-4-4.9-5.4-8.2l-.1-.3-.3-.5a166.4 166.4 0 0 1-21.5-60l-.2-1.6-.2-1.7-.3-1.6-.2-1.6-.1-1-.1-1.1-.2-1-.1-1.7-.1-1-.2-1.6v-1l-.2-1.2v-1l-.1-1.1-.1-1.7-.1-1.6v-1.2l-.1-1.1v-1.2l-.2-1.7V1446l-.1-2.6v-11.7l.1-3.3v-2.5l.1-3.5.2-5.7.4-13.5.1-6v-3.6l.1-3.3v-3.7l.1-2.4v-4a430.4 430.4 0 0 0-.4-17.8v-2.4l-.1-1.2-.2-3-.1-2.6-.3-3.7-.2-4-.4-4.2-.1-2-.5-6.2-1.2-14.1-.6-6.6-.3-4.2-.2-3.4-.2-2.8-.1-2.6v-1l-.2-2.5v-2.6l-.1-1c-.2-6.6-.2-12.7 0-18.5l.2-1.3-1.5.4c-38 10.6-76.9 17-115.6 18.7h-1l-.3.3c-70 43.5-141 97-209 156.4l-5.3 4.6-2.5 2.2-2.6 2.2-2.5 2.2-2.4 2.1-2.5 2.1-3.6 3.1-2.3 2-2.4 2-2.3 2-2.2 1.8-1.2 1-2.2 1.8-2.2 1.8-2.2 1.8-2.2 1.8-1 .8-2.2 1.7-2 1.7-1.1.9-2.1 1.6-2 1.6-2.1 1.6a568.9 568.9 0 0 1-2 1.5l-2 1.6-2 1.5-2 1.4-1 .8-2 1.4-2 1.4-1.9 1.4-2 1.4-.9.7-2 1.3-1.8 1.3-2 1.3-1.8 1.3-2 1.3-1.8 1.2-1 .6-1.9 1.2a355 355 0 0 1-5.7 3.6l-1.9 1.1-1 .6-1.8 1.1-2 1.1-1.8 1.1-1 .6-1.9 1-1 .6-1.9 1a355.1 355.1 0 0 1-2 1c-41.6 22.5-83.3 32.5-128.3 28.5a147.6 147.6 0 0 1-84.8-37l-1.1-1-1.2-1-1.2-1-1.1-1-.6-.6-1.1-1-1.1-1-.6-.5-1.1-1-1.1-1.1-1.1-1.1-1.2-1-1-1.2-.6-.5-1.1-1.1-.6-.6-1-1.1-1.2-1.2-1-1.1-1.2-1.2-1.1-1.2-1.1-1.2-1.1-1.2-1.2-1.2-1-1.3-1.2-1.3-1.2-1.3-1.1-1.3-1.2-1.3-1.1-1.4-1.2-1.4-1.2-1.4-1.2-1.5-1.2-1.4-1.2-1.5-1.9-2.3-1.8-2.3-2-2.4-1.9-2.5-2-2.6-2-2.6-2.8-3.6-2.1-2.8-2.2-2.9-3-4-12.2-16.3-2.8-3.7-2.2-2.9-2-2.7-2-2.6-2-2.5-1.3-1.8-1.9-2.3-1.3-1.7-1.7-2.2-1.3-1.6-1.7-2.1-1.7-2-1.3-1.6-1.2-1.4-2-2.5-2-2.3-2.1-2.4-1-1.2-2-2.3-2-2.3-2-2.3-1-1-2-2.3-2-2.2-1.9-2.2-1-1-1.9-2.2-2-2-1.9-2.2-1.9-2-1.9-2-1.9-2-2-2-1.8-2-1.9-2a378.7 378.7 0 0 0-48-41.8c-37.9-27.5-73.3-38.7-105.9-30.1a6 6 0 0 1-6.6-9l4.8-7.8 2.8-4.6 4.3-7 2.4-4 1.5-2.4 2.2-3.5 2.5-4 2-3.1 1.4-2.1 2-3 .9-1.5.6-1a611 611 0 0 1 2.2-3.3l1-1.4 1.3-1.9 1.3-1.9c53.8-78.5 125.5-114.5 213.2-114.5 71.4.1 150.3 23.5 243.5 67.2l4.5 2.1 4 2 4.2 2 10 4.8 31.1 15.1 11.8 5.7 5.9 2.8 5.5 2.7 6 2.9 5.8 2.7 2.4 1 4.5 2.2 4.5 2 3.5 1.6 2.8 1.3 3.5 1.5 3.4 1.5 3.5 1.5 3.4 1.4 3.5 1.5 3.5 1.5c31.2 13 59.5 22.2 87.5 28.3 37.1 8 75.6 11.3 114.3 9.9h1.5l2.4-1.5c15.1-9.3 30.3-18.2 45.3-26.6l2.6-1.4a231.3 231.3 0 0 0 35.5-24.7l1.7-1.4 1.9-1.6 1.7-1.5 1.8-1.5 1.5-1.3 2.6-2.3 2.3-2 2.5-2.2 2-2 2.8-2.5 4.5-4 3.8-3.7 10.5-9.8 3.1-2.9 3-2.7 3.4-3.2-1.3-.3c-29.4-8.4-57-18.2-83.2-29.6l-1.5-.7-1.7.2c-8.7.6-17.6.5-26.9-.4l-1.8-.2c-49.2-5-104.8-30.7-161-69.7-57.9-40.4-110.8-83.9-155.5-129.6l-1.2-1.3-1 .3-2.4.7-1.4.5-1.4.5-2 .7-1.5.4-1.4.5-1.4.5-1.3.5-1.4.5-1.4.5-1.4.5-1.4.5-1.4.5-1.4.5-1.4.6-2 .8-2.2.9-2.2.9-2.2.9-2.2 1-1.5.6-2.3 1-1.6.6-2.3 1.1-2.4 1-1.7.8-2.5 1.2-2.6 1.2-1.7.8-1.8.9-2.8 1.3-3.7 1.8-5 2.3-4 2-4.4 2.2-4.4 2.2-5.8 2.9-9 4.5-8.9 4.4-5.7 2.8-4.7 2.2-4.4 2.2-2.8 1.3-3.4 1.7-2.7 1.2-3.2 1.5-2.4 1.1-2.5 1.1-2.3 1-1.8.9-2.3 1-2.8 1.2-2.2 1-2.1.8-2.2.9-1.6.7-2.1.8-1.6.6-2.4 1-1.3.4a410.5 410.5 0 0 1-8.4 3.1 210.8 210.8 0 0 1-83.3 13.6c-74-4.3-133.2-19.6-177.7-44.3-38.7-21.4-65.4-49.5-80-81.3a124.4 124.4 0 0 1-9.6-80c5.6-23 18.8-39.1 35-40.5 38.3-3.3 66.4-14 87.6-31.5a132.8 132.8 0 0 0 29.3-34.8l.9-1.5-1-1-2.5-2.5-2.4-2.7-1.3-1.3-2.5-2.7-2.3-2.5-13.5-14.6-23.3-25.3-2.9-3.2-1.8-2-3.7-3.9-1.8-1.9-1.8-1.8a209.5 209.5 0 0 1-45.4-73l-.6-1.6-.6-1.6-.8-2.3-.5-1.2-.2-.7-1-2.8-.4-1.2-.8-2.4-.7-2-1-3.2-1-3.3-1-3-1.3-4.5-2.3-7.7-2.8-9.3-1-3.1-1-3.7-.9-2.8-1-3.3-.8-2.5-.8-2.5-.8-2.3-.6-1.7-.5-1.6-.6-1.6-.3-1.1-.6-1.5-.4-1-.5-1.5-.6-1.5-.5-1.5-.6-1.4-.4-1-.7-1.8-.4-1-.6-1.3-.8-1.9-.4-.9-.4-1-.8-1.8a263.2 263.2 0 0 0-.3-.5c-8.2-17.9-18.5-33.3-32.4-47.8-19.1-19.8-15-42.5 8.2-63.2 7.7-7 17.5-13.7 29-20l1.8-1 1.9-1c7.6-4 15.8-7.8 24.7-11.4l2-1c9-3.5 18.5-6.9 28.4-10l2.3-.8 1.2-.3 2.5-.8c37.4-11.2 78-18 114.9-18.8h1.7v-.8a121 121 0 0 1 17-48.9l.8-1.2c24-37.6 108.9-100 182.9-136l2.3-1a477 477 0 0 1 3.4-1.7l2.3-1c35.3-16.4 63.6-24.3 81.6-21.5 12.1 1.8 20 8.6 22.1 20 1.1 6.1.5 13.6-2 22.3l-.2 1 .4-.3a192.2 192.2 0 0 1 10.8-5l1.3-.6c15.7-6.7 33-12 54-17l2.6-.5 2.7-.6 2.6-.6 4.1-.9 2.8-.6 2.8-.5 2.9-.6 4.3-.8 3-.6 1.5-.3 3-.5 1.6-.3 3.1-.5 3.2-.6 3.2-.5 3.2-.6 1.7-.3 3.3-.5 3.4-.6 1.7-.2 3.5-.6 3.5-.5 3.6-.6 3.7-.5 5.5-.9 10-1.4 30.8-4.4 8.4-1.2 5.4-.8 5.2-.7 5-.8 3.5-.5 4.6-.7 3.4-.6 3.2-.5 4.2-.7 4-.7 2-.3 2.9-.5 2.8-.5 2.7-.5 2.7-.5 2.6-.5 2.6-.5 1.6-.3 2.5-.5 2.4-.6 1.6-.3 2.3-.5 1.5-.4 2.3-.5 2.2-.5 2.3-.6 2.1-.5 1.5-.4 1.4-.4 2.2-.5 2.1-.6 1.8-.5.9-.3 1.7-.5 1.7-.5 1.6-.5 1.7-.5 1.6-.5 1.6-.6 1.6-.5 2.3-.8 1.5-.5.7-.3 1.5-.6a154.8 154.8 0 0 0 4.2-1.7l1.3-.5c14.8-6.4 24.9-13.8 30.4-22.5l.2-.4c14.4-23.5 51.6-40.4 103.7-49.2 50-8.4 110.5-8.8 168.9-.6 49.8 7 96 19.6 134.3 37.4l1 .5 2.2.2c60.1 4.6 109.4 15.5 154.6 35.7l1.7.8c43 19.6 64.4 43.4 65.3 70.8.3 11.4-2.9 23-9.4 34.9l-.3.6 17.4-3.4 4.6-1 4.3-.8 5.3-1.1 3-.6 3-.7 3.9-.8 2.8-.6 2.8-.6 2.7-.6 4.4-1 3.4-.8 3.4-.8 2.5-.6 2.5-.6 2.5-.6 2.5-.6a551 551 0 0 0 83.3-27.9l1.8-.8a595 595 0 0 1 2.4-1l2.4-1 2.4-1 2.3-1 2.3-.9a467.7 467.7 0 0 1 4.6-1.8l2.2-.8 6.7-2.5 2.2-.8 2.1-.8 2.2-.7c20.4-7 38.9-11.1 57.3-12.7 32.5-2.7 64 3.1 96.6 18.7 44.6 21.5 69 49.2 74.2 82.2 4.6 28.8-5.6 60.6-28 94.3a299.2 299.2 0 0 1-11.2 15.7l-.6.9.4-.2c16.6-4.2 34-6.4 52.3-6.4h1.5c42.6.2 88 12 130 32.4a156.8 156.8 0 0 1 45.2 34.4l.7.7 1.2 1.3 1.3 1.3 1.3 1.4 1.3 1.4 1 1 1.6 1.9 1 1.1 2 2.4 1.8 2 1.8 2.2 2 2.2 2 2.4 2.5 3.1 3.7 4.5 2 2.4 7.4 9.2 2.4 3 1.8 2 2.2 2.8 2.2 2.6 2.6 3 1 1.2 1.9 2.3 1.9 2.2 1.4 1.6 1.3 1.5 1.3 1.5 1.3 1.5.8.9 1.3 1.4 1.2 1.3.8.9 1.2 1.2.8.9.8.8 1.2 1.2.8.7 1.1 1.2.8.8.8.7.8.8 1.1 1 1.2 1.1.8.7 1.2 1.1 1.1 1 1.3 1.1.8.7 1.2 1c18 15.3 36.5 24.4 58 27.5a6 6 0 0 1 5 5.5c2.2 35-30.7 83.7-89.5 141a954.8 954.8 0 0 1-34.5 32l-3.2 2.9a1172.5 1172.5 0 0 1-21 18l-3.4 2.7c-1 1-2.2 1.9-3.3 2.8l-3.3 2.7a1260 1260 0 0 1-11.7 9.5l-3.4 2.6-1.6 1.4-3.4 2.6-13.5 10.4-3.4 2.6a1195 1195 0 0 1-20 15l-3.4 2.3-3.3 2.4-1.7 1.2-3.3 2.3a1051.2 1051.2 0 0 1-4.9 3.5l-3.2 2.2a938.6 938.6 0 0 1-16 10.9 204.2 204.2 0 0 0-31.4 26.1l-1.6 1.6a347.8 347.8 0 0 0-1.6 1.7l-1.6 1.6-1.6 1.7-.9.9-1.4 1.5-2.1 2.3-1.8 1.9-1.4 1.6-2.2 2.4-2.3 2.5-2 2.3-3 3.3-4 4.7-4.6 5.2-18.3 21.3-5.7 6.6-3.5 4-2.5 3-6 6.6a631.6 631.6 0 0 1-87.8 81.7c-74.2 56.7-169.7 102.1-299.2 137-4.7 1.2-11.2 2.3-19.2 3.3l-2.1.3-2.2.2-2.2.2-2.3.3-2.4.2-3.7.3-2.5.2-2.5.2-2.6.2-2.7.2h-1.3l-2.8.2-2.8.2-2.8.2h-1.4l-3 .2-2.9.1-3 .1-3 .2h-3l-3 .2h-3.2l-3.2.2h-3.1l-3.3.1h-3.2l-1.6.1h-6.6l-3.3.1H1636.4l-3.5-.1h-1.7l-5.7-.1-3.7-.1-3.7-.1-3.6-.1-3.7-.1-3.6-.2-3.5-.1-3.5-.1-1.8-.1-3.4-.2-3.4-.2h-1.7l-3.3-.2-3.3-.2a840.8 840.8 0 0 1-1.7-.1l-3.2-.2-3.2-.3-3.1-.2-3.1-.2a569.5 569.5 0 0 1-20.2-2l-2.7-.3-2.6-.3c-19.9-2.6-34.7-6-42.7-10.2a6 6 0 0 1 .5-10.9l1.8-.7 1.8-.8 1.9-.7 1.8-.7.9-.4 1.8-.7 1.8-.7 1.9-.6 1.8-.7 2-.7 1.8-.7 1.9-.7 1.9-.6 1.9-.7 1-.3 2-.7 1.9-.6 2-.7 2-.6 1-.3 2-.7 2-.6 2.1-.7c.4 0 .7-.2 1-.3l2.2-.6 2.2-.7 3.2-1 2.2-.6 2.3-.6 2.3-.7 3.5-1 2.3-.6 3.6-1 3.7-1 2.6-.7 2.5-.6 2.6-.7 4-1 4-1.1 4.2-1 4.3-1.1 3-.7 6-1.5 3-.8 4.7-1.1 3.2-.8zM768.6 2126c-80.5-38.6-165.7-49.2-254.5-34.4-79.9 13.3-161.6 47-243.2 98.2-79 49.5-143 106.6-187.5 170.3-50.1 71.8-74.8 150.8-70.9 237 3.8 83.2 27.6 166.8 69.6 253 31.8 65.5 72.8 130.6 126 203l3.6 4.8 9 12 3.6 5 3.4 4.5 6.6 8.6 8.1 10.6 12.2 15.9.2-.5c25-67.7 63.3-114.7 126.3-156l2-1.3 2.6-1.6 5.3-3.4 5.6-3.5 6.6-4.2 13.8-8.7 6-3.7 4.5-2.9 4.3-2.7 3.2-2 3-2 2-1.2 2.8-1.9 2.8-1.8 1.8-1.2 1.7-1.1 2.6-1.7 2.5-1.7 1.6-1.1 1.6-1.1 1.6-1 1.5-1.2 1.6-1 1.4-1 1.5-1 1.4-1.1 1.4-1 1.4-1 1.4-1 1.4-1 1.3-1 2-1.5 1.3-1 1.3-1 1.2-1 1.3-1 1.2-1 2-1.5 1.1-1 1.3-1 1.2-1 1.2-1 1.3-1.1 1.2-1 1.2-1.1 1.2-1 .6-.6a204.6 204.6 0 0 0 57.9-78.6l.7-2 .8-1.8.7-1.8.7-2 .4-1.2.7-1.8.4-1.3.5-1.3.4-1.2.4-1.3.5-1.3.6-2 .6-1.9.4-1.3.6-2 .4-1.4.4-1.3.4-1.4.4-1.4.4-1.5.4-1.4.6-2.2.4-1.5.3-1.5.4-1.6.4-1.5.4-1.6.6-2.5.6-2.5.6-2.5.8-3.6.6-2.7 1-4.7.7-3 1-5 .8-3.2 3.5-17 1.5-7.4 1.3-6 .8-3.6.8-3.4.9-4 .5-2.4.5-1.8.7-3 .5-2.2.6-2.3.4-1.6.6-2.1.5-2.1.6-2 .6-2 .5-2 .6-2 .6-2 .3-1.1 1.6-5 .4-1c.3-1 .6-2 1-2.8a198.9 198.9 0 0 1 34.3-64c26-31.7 61.2-53 106.1-67.2l2-.6 1-.4 2-.6 2-.6 2-.6 1-.2 2-.6 2.1-.6 2-.5 2-.6 2-.5 2.1-.5 2-.5 1-.3 2.2-.5 2-.5 1-.2 2.2-.5 1-.2 2.2-.5 2.1-.5 2.2-.4 1-.2 2.3-.5 2.2-.4 2.2-.5 1.2-.2 2.3-.4 2.3-.4 1.2-.2 2.3-.4 2.4-.5 2.5-.4 2.4-.4 2.5-.4 2.6-.4 2.6-.4 2.6-.4 2.7-.4 2.7-.4 2.7-.3 2.8-.4 2.9-.4 2.9-.4 3-.4 4.5-.6 3-.4 3.2-.4 3.2-.4 6.6-.8 5-.6 8-1 6-.7 4.3-.5 4.2-.5 4-.6 4-.5 4-.5 3.8-.6 2.6-.3 3.7-.5 2.4-.4 3.6-.5 3.5-.6 3.5-.5 2.2-.4 2.3-.3 2.2-.4 2.1-.4 2.2-.4 2.1-.3 3.2-.6 2-.4 2.2-.4 2-.4 2-.4 2-.4 2-.4 2-.5c.3 0 .7 0 1-.2l2-.4 1.9-.4 2-.5.9-.2 1.9-.4 1.9-.5 1.9-.4 1.9-.5 1.9-.5 1.8-.5 2-.5.9-.2 1.8-.5 1.9-.5 1.9-.5.9-.3a287 287 0 0 0 101-49.7 376 376 0 0 0 72.3-73.4 239.5 239.5 0 0 0 6.8-10l.6-.8-1.4-.6c-53.5-22.3-104-47.8-152-77.2l-2-1.3-4-2.4-2-1.2-3.9-2.5-.7-.4-3-.2c-109.9-5.8-211.5 8-293.2 42.4-186.3 78.1-338.3 241.3-367.3 402-1.4 7.5-12.4 6.1-12-1.4l.5-6.4.2-3.4.3-5 .3-3.7.2-2.2.2-3.5.3-2.7.2-2.6.2-1.9.2-2.5.3-2.4.2-1.8.2-1.7.1-1.2.4-2.8.3-2.3.2-1.8.2-1 .2-1.8c13.1-88 67.7-169.5 155-243 70.5-59.5 159.8-111.3 253-150.9a814.6 814.6 0 0 1 178-52.5l1.7-.3-9.2-6-4.8-3.2-6.7-4.4-4.3-2.8-4.7-3-5.2-3.3-5-3.2-4.3-2.8-1.2-.7-3.8-2.4-4-2.4-1.9-1.2-3.4-2.1a1136 1136 0 0 0-8.3-5l-3.3-2a976 976 0 0 0-9.7-5.7l-3.2-1.9a875.3 875.3 0 0 0-4.8-2.7l-3.2-1.8-3.1-1.7c-12.5-7-24.7-13.3-36.9-19.1zm145.6 87.2h-.5a803.8 803.8 0 0 0-189.2 54c-92 39.2-180.3 90.5-249.9 149-75.8 64-126.1 133.7-145.2 208l-.3 1.3.9-2.3c22.7-56 58.7-110.9 105.5-161.6l2-2.2c67.2-72 153-132 244.4-170.3 78.5-33 174.5-47.4 278.4-44.1h2.2l-4.8-3-6.4-4.2-8.3-5.5-12.5-8.3-16.3-10.8zm268.5 76.8-.1 1c-2 14.8-7.6 30.2-16.1 46l-.4.7 2.4 1a1257.5 1257.5 0 0 0 55.5 20.6l7 2.4 6.3 2.1 5 1.7 38.6 12.8 7.4 2.5 7 2.3 7.3 2.5 5.4 1.9 5.2 1.8 4.2 1.4 4.1 1.5 4 1.4 4 1.4 5 1.9 4.3 1.6 2.9 1a978 978 0 0 1 7 2.7l1.4.6 5 2a591.6 591.6 0 0 1 80.6 38l21.3 12.5 2.5 1.4 3.3 2 2.1 1.2 2.1 1.3 2 1.3 2 1.2 2 1.2 2 1.3 2 1.2 1.9 1.2 1 .6c13.8 9 26.5 18.3 38.5 28.5l1.1 1-.6-1a361.4 361.4 0 0 0-36.4-46.5l-1.6-1.7c-50.3-53.8-119-96.1-208.5-130.5a886.2 886.2 0 0 0-88.7-28.7l-1-.3zm-174.1-30.2 1.4.9a1090 1090 0 0 0 141.6 71.1l3.3 1.4.2-.4c8.8-15.8 14.2-31 15.8-45.5v-.3l-1.6-.5c-51.5-12.9-105.5-22-159.2-26.6h-1.5zm33.9-56.6a526.5 526.5 0 0 0-11.7 0h-1.5l-1.6.1h-2.2l-3.1.1-2.4.1-3.2.1-2.4.1-3.4.1-3.5.2-2.7.1-5.7.3-5.1.3a803.1 803.1 0 0 0-61 5.8h-1l13.9 9.3 7.4 5 7.5 4.9 7 4.5 5.3 3.5 4.6 2.9 4.4 2.8 4.4 2.8 3 .2c60.5 3.8 121.7 13.4 179.8 27.8l2.1.5v-.5a72.1 72.1 0 0 0-1.3-10.9l-.2-.8c-6.3-29.2-31.3-46.5-72-54.4-16.4-3.2-35-4.7-55.4-4.9zM532.8 1126.8c-83.8 0-151.7 34.1-203.3 109.3l-1.3 1.9-1.2 1.8-1.9 2.7-1.8 2.8-1.5 2.3-1.5 2.3-1.9 2.9-1.5 2.4-1.2 1.9-1.7 2.6-1.2 2-2.6 4.2-2.8 4.5-2.4 4-1.4 2.2h.8c32-3.5 65.5 8.7 100.4 33.7l1.2.8c15.8 11.5 31 24.7 46.4 40.1l2 2 .9 1 2 2 .9 1 2 2 1 1 1.9 2 1 1 1.9 2.1 2 2.1 2 2.2 1 1 1.9 2.2 1 1.1 2 2.3 1 1 2 2.3 1 1.2 2 2.3 2 2.3 1 1.2 2.1 2.3 2 2.4 2.1 2.4 2.1 2.5 1.5 1.7 1.7 2.1 1.4 1.6.8 1 1.4 1.7 1.7 2.2 1.9 2.3 1.4 1.8 1.8 2.4 1.5 1.9 1.5 1.9 2.6 3.4 2.7 3.5 3.4 4.6 12 16.2 3 3.9 1.5 1.9 2.8 3.7 2 2.7 1.4 1.7 2 2.6 1.9 2.5 1.3 1.6 1.8 2.3 1.3 1.6 1.2 1.5 1.2 1.5 1.2 1.5 1.2 1.4 1.1 1.4 1.8 2.1 1.1 1.4 1.1 1.3 1.2 1.3 1 1.3 1.2 1.2 1 1.3 1.2 1.2 1 1.2 1.1 1.2 1.1 1.2.5.5 1.1 1.2.5.5 1.1 1.2 1 1 .6.6 1 1 .6.6 1 1 .6.6 1 1 1.1 1 1.1 1.1.5.5 1.1 1 1.1 1 1 1 1.2 1 1 1 .6.4 1.1 1 1.1 1 .6.4a135.7 135.7 0 0 0 78 34.3c42.6 3.7 82-5.7 121.7-27a338.2 338.2 0 0 0 3.7-2.1l1.9-1 3.7-2.2 1.9-1a338 338 0 0 0 3.6-2.3l1.9-1.1a348.3 348.3 0 0 0 7.4-4.7l1.8-1.2 1.9-1.2 2.7-1.9 2-1.3.8-.6 2-1.3 1.8-1.3 3.8-2.8 2-1.4.9-.7 2-1.4.9-.7 2-1.5 1-.7 2-1.6 2-1.5 2-1.6 2-1.6 2-1.6 2-1.6 2.2-1.7 1-.9 2.2-1.7 2.1-1.7 2.2-1.8 1-1 2.3-1.8 2.2-1.8 2.3-2 1.1-.9 2.3-2 2.4-2 2.3-2 2.4-2 3.7-3.2 2.5-2.2 3.8-3.3 2.5-2.2c63.3-55.6 129.2-106 194.5-148l2.2-1.4h-1.9c-31.8-.2-63.4-3.4-94-9.9l-2.8-.6a517.6 517.6 0 0 1-89.6-29 967.6 967.6 0 0 1-7.8-3.2l-2-.9-2.8-1.2-1.4-.6-2.8-1.2-2.7-1.2-4.2-1.9-5-2.2-4.6-2.1-4.7-2.2-4.3-2-5.8-2.8-5.5-2.6-8.1-3.9-11.4-5.5-28-13.7-11.7-5.6-6.5-3.1-4.9-2.3-3.5-1.7c-91.8-43-169.2-66-238.5-66zm756.7 124.5-1 .4a572.5 572.5 0 0 1-13.6 5.4 532.6 532.6 0 0 1-33.6 11.7l-.5.2v.4c-.5 6.6-.7 13.7-.4 21.5v4l.1 1 .1 1.6v1.4l.2 2.2.2 3 .2 3.6.3 4.2.6 7 1.2 14.1.5 5.7.2 3.1.3 4.4.2 2.7.2 2.7.1 1.9.1 2.5.1 1.3.1 2v1.4l.1 1.3.2 4.6v3.3c.2 3.4.2 6.8.2 10.3V1391.8l-.2 4.9v4.5l-.3 6.5-.2 8.4-.1 5.6-.1 4.3v2.5l-.1 3.2v3l-.1 2.9V1449.5l.1.8v1.7l.1 1.7v1.7l.2 1.6v1.5l.1.8.1 1.6v.7l.2 1.6v.7l.2 1.5.1 1 1.2 9.7a157 157 0 0 0 7.3 29.4l.3.9v-.8c1-8.2 2.7-16.3 4.6-22.4l.2-.6c2.3-7.2 6-13.7 11-20.2l.5-.6.7-.9.8-.8.4-.6.5-.6.5-.6.8-.8.7-.9.6-.6.8-.9.9-1 1-1 .6-.6 1.4-1.4 1.9-2 2.1-2.1 2.8-2.8 1.5-1.6 1.7-1.7 1.3-1.3.8-.9 1.1-1.1 1-1.1.5-.5.7-.8.6-.8.7-.8.4-.5.7-.7.6-.8c28.2-35.4 32-57.1 13.8-93.6l-.5-1a232.6 232.6 0 0 1-22.5-85.1v-.6zm148-103.4h-.2c-12 16-27.2 31-45.3 45.2a338.5 338.5 0 0 1-13.6 10.1l-2 1.3-.3 1.6-.3 1.4-.6 2.9-3 13-.2 1.1-.4 1.5-.3 1.5-.2 1.3-.2.8-.1.8-.1.8-.2.7v.7l-.4 2.3-.3 2.3-.4 3.3-.3 2.2-.3 2.1-.2 2.1-.3 2.1-.3 3-.2 2-.2 2-.2 2-.2 1.9-.2 1.8-.2 1.9-.1 1.8-.2 1.8-.1 1.8-.1 1.7-.2 1.8v1.7l-.1 1.6-.1 1.7v1.6l-.1 1.7a219.6 219.6 0 0 0-.1 4.7v7.5l.1 1.5c0 2 .2 3.8.3 5.7l.1 1.4.2 1.4.2 2 .1 1.5.5 3.4.2 1.3.2 1.4.7 4a149 149 0 0 0 29.5 63.9 86.8 86.8 0 0 0 38.2 28l.3.2c-7.9-9-13.4-18.2-16.7-27.6l-.3-.6c-5.5-16-5-32.6.8-52.4l.2-.7.4-1.4.2-.7.5-1.5.2-.7.5-1.4.5-1.5.5-1.5.5-1.5.6-1.6.5-1.6.3-.8.6-1.6.7-1.6.6-1.7.7-1.8.7-1.7.7-1.9 1.3-3 3.8-9.2 7.7-18.1 9.3-22.6 2.3-5.6 2.2-5.4 1.8-4.6 1-2.2 1.3-3.4.8-2.2 1.3-3.2 1.6-4.1 1.2-3.1 1.2-3 1.1-3 .7-2 .8-1.9 1-2.9.7-1.9 1-2.8.7-1.8.6-1.9 1-2.7.6-1.9.7-1.8.3-1a566.3 566.3 0 0 0 3-9l.3-1-.6-.7a162.7 162.7 0 0 0-21.7-18.7l-.7-.5c-6-4.3-12-7.6-17.8-9.8zm65.5-29.2v.3c0 6.2-.8 13-2.2 20.4-2.2 10.7-5 22-8.6 33.8l-.3 1.1.4.6a313.4 313.4 0 0 1 10.2 11.6l.8 1 1.2 1.3 1 1.4 1.2 1.4 1 1.4 1.2 1.4 1 1.4 1.2 1.4 1 1.4 1.2 1.4 1 1.4 1.2 1.5 1 1.5 1.8 2.2 1 1.6 1.8 2.3 1.7 2.4 1.2 1.6 1.7 2.5 1.8 2.6 1.9 2.6 2.5 3.7 2.7 3.8.6 1a79.4 79.4 0 0 1 13.3 61.5l-.3 2-.3 2-.1 1-.3 1.8-.3 1.6-.3 1.6-.4 1.6-.4 1.9-.5 2.4-1.5 6.7-2.6 11.5-.4 1.5-.6 2.6-1 4.1-2.3 9-.5 1.7-.7 2.8-.5 2-.3 1.5-.3 1.5-.4 1.7-.3 1.3-.2.9-.2 1.2-.2.8-.1.8-.2 1.1-.3 1.6-.3 1.5-.1 1.2v.4c-.6 3.4-.9 6.7-1 9.8v2.3l.2.7v.8l.2.8.2 1 .2 1.4 1-2.3 1-2.4 1-2 1.3-3.1 1.8-4 1.6-3.5 1.1-2.4 2.5-5.3 3.4-7.3 5-10.4 1.6-3.6 1.7-3.5 1.5-3.4 1.2-2.5 1.4-3.1 1-2.3 1-2.3 1-2.1.6-1.5 1-2 .8-2.1.9-2 .8-2 .8-1.9.5-1.3.5-1.2.7-1.8.7-1.9.7-1.7.7-1.8.6-1.7.6-1.8.4-1.1.4-1.1.4-1.2.5-1.7.4-1 .4-1.2.5-1.7.5-1.7.5-1.6.5-1.7.4-1.7.2-.6c6.6-24.5 7.4-46.3 1.4-67.3-13.5-46.7-39.5-76.3-74.8-89.4l-1.1-.4zm-163.8 13.4-3.4 1.5a3488.9 3488.9 0 0 0-32.1 14.3l-3 1.3-.7.5a654.4 654.4 0 0 0-25.3 19.1l-1.4 1.1-.8.7-1.7 1.4-1.8 1.4-1.8 1.5-1.3 1 .2.2a6 6 0 0 1 1.7 5.6v.2a6 6 0 0 1-7.3 4.4l-3.4-1-1.5-.3-1.3 1-2.8 2.7-2.6 2.3-2.1 2-4.6 4.2-4.4 4.1-9.4 8.8-5.1 4.7-3.2 3-3 2.7-2.9 2.6-1.9 1.7-2.6 2.3-1.8 1.5-2.5 2.2-.7.6a444.7 444.7 0 0 1-4.3 3.6 243 243 0 0 1-37.4 26 1146.6 1146.6 0 0 0-29 16.6l-1.1.6h.8c31.5-3 63-9 93.7-17.8l2.4-.7v-.8l.2-.5.2-1.5c4-25.3 14.5-47.1 34-68l.8-.7c20.6-21.6 46-40.7 73.2-55.5l1-.6zm-30.8 33.8-1.2 1a273.7 273.7 0 0 0-32.4 28.4l-1.2 1.3a111.7 111.7 0 0 0-31 59v.2l.7-.2a520.6 520.6 0 0 0 24.6-8.6l2.7-1a556.9 556.9 0 0 0 17.8-7.2l.6-.3v-.3c0-24 4.2-45.6 13.3-62.9l.4-.7c1.5-2.8 3.3-5.6 5.4-8.3l.3-.4zm56-3.1-.1-.1c-5.7-8.8-14-10.6-24.5-6.4a56.9 56.9 0 0 0-26.6 24 118 118 0 0 0-12.1 52.1v.8l.3-.2a482.3 482.3 0 0 0 38.9-19.9l1-.5v-.2a121 121 0 0 1 21.6-47.7l.5-.7.4-.5.6-.7zm3.4 15.7-.2.4c-4.6 7.1-8.2 15-11.1 23.5l-.4 1.2 1-.6a378.4 378.4 0 0 0 7.5-5l1-.6.3-1.6c1.2-6.5 1.9-12.2 2-17v-.3zm56.8-34c-16-2.3-31.1 4-45.7 19.7l-.6.7.1.4c1.6 6 1.8 13 1 21.4l-.1 1 .8-.6a315 315 0 0 0 3.4-2.6l1.1-.9a239 239 0 0 0 39.6-38.4l.6-.8h-.2zm-148.8-36.6-.4.1a72.5 72.5 0 0 1-23.8 4.3c-5.1 0-9.8-.7-14-2l-.4-.2-1 1.1a118.5 118.5 0 0 1-57.2 35.4l-1.2.3 1.8.7c22.4 9 45.9 16.7 70.7 23.6l2.1.5h.1a377.2 377.2 0 0 1 8.9-7.6l.7-.6 2-1.6 1.1-.9a5.9 5.9 0 0 1-1.6-5.2v-.3a847 847 0 0 1 12-46.7l.2-.9zm182.5 3.3-.3.7c-3.5 8.6-7.9 17-13.1 25l-.5.9.9.3c5.2 2.4 10.5 5.4 15.8 9l1 .7c6.4 4.4 12.8 9.7 19.2 15.8l1 1v-.5c2.6-9 4.8-17.5 6.4-25.7l.3-1.3a88.1 88.1 0 0 0 2-21.8l-.1-.2c-9.7-2.4-20-3.7-30.8-3.9h-1.8zm-13.4.8.1-.4h-.5l-2 .2a252.5 252.5 0 0 0-95.8 30l-1.3.6h.4a28 28 0 0 1 26.6 11l.1.1.7-.7c18.3-18 38-24 58.6-19.2l.8.2.5-.8c4.6-6.9 8.5-13.9 11.8-21zM1414 996.5l-.7-.5-1 1-13.7 12.8-3.3 3-1.3 1.4-4.8 4.6-22.6 22.2-5.1 5-2.8 2.7-3.4 3.2-1.8 1.7-1 1-.2.2-2 1.8-1.9 1.8-1.9 1.7-1 .9-1.8 1.7-1.9 1.7-.9.8-1.8 1.6-1 .8-1.8 1.6a394.9 394.9 0 0 1-6.3 5.3l-1.7 1.5a234.1 234.1 0 0 1-32 22.3 152.6 152.6 0 0 1-5 2.8l-1.4.7-.2 1a859.5 859.5 0 0 0-11.2 41.6l-.5 1.9.7-.3 10.6-4.9 5.4-2.4.9-.6c35-24.8 70.1-44.2 106.3-58l1.5-.5c18.5-7 36.1-10.4 51.2-9.8h.8v-.8c.9-26.2-10.7-48-33-66.3l-.9-.6a142.5 142.5 0 0 0-7.5-5.6zM891 930l-.8.2a645.2 645.2 0 0 0-67 14.8l-2.4.7c43 43.5 93.4 84.9 148.6 123.5l2 1.4c54.6 38 108.6 62.8 155.3 67.7l3.4.3h.2l-1.3-.6c-52-26.3-98-59.9-141.2-103l-2.3-2.3-1.5-1.6-3.2-3.2-3.2-3.3-3.2-3.2-3.1-3.3-3.2-3.3-3.2-3.3-3.2-3.4-3.2-3.3-3.2-3.4-1.6-1.7-3.2-3.5-3.3-3.4-3.2-3.5-3.2-3.5-3.3-3.5-1.6-1.8-3.3-3.6-3.3-3.6-1.6-1.8-3.3-3.7-1.7-1.8-3.3-3.7-3.3-3.7-1.7-1.9-3.3-3.8-3.4-3.8-3.4-3.8-3.4-3.9-1.7-1.9-3.4-4-3.5-3.9-1.3-1.6zm146.5-10.8c-46-.4-90 2.4-131.8 8.5l-.7.1 3.1 3.7 3.4 3.9 3.4 3.8 3.4 3.8 3.3 3.8 1.7 1.8 3.3 3.8 3.3 3.7 3.3 3.6 3.3 3.7 3.3 3.6 3.2 3.5 3.3 3.6 1.6 1.7 3.2 3.6 3.3 3.4 1.6 1.8 3.2 3.4 1.6 1.7 3.2 3.4 1.6 1.7 3.2 3.4 3.2 3.3 3.1 3.3 1.6 1.7 3.2 3.3 1.6 1.6 3.1 3.2 1.6 1.7 3.2 3.2 3.1 3.2 1.6 1.5a531.2 531.2 0 0 0 162.6 113.7l1.2.5 1.4-.2c25.7-3 48-13.8 66.3-33.1l.7-.7c-10.8-8.4-17.2-23-19.4-42.8l-.1-1c-1-8.5-1-18-.5-28.4v-2l.1-1 .2-2 .2-3 .2-2 .3-3.2.2-2 .1-1.1.3-2.1.2-2.2.3-2.1.3-2.2c0-.8.2-1.5.3-2.2l.3-2.3.1-1 .4-2.4.2-1 .3-2.4.4-2.3.2-1.1.4-2.4.4-2.3.4-2.4.5-2.4.5-2.4.4-2.4.5-2.5.3-1.2.5-2.5.8-3.8.5-2.5.3-1.3.6-2.5.6-2.6.6-2.6.3-1.3.6-2.8h-.1a24 24 0 0 1-3.4 1.6l-.4.1a49.4 49.4 0 0 1-17.2 2l-1.2-.1h-.7l-1.2-.1h-.7l-1.3-.1-1.3-.1-.7-.1-1.4-.1-.6-.1-1.5-.2-2.8-.3-1.5-.2-1.5-.3h-.8l-1.5-.3-.8-.1-1.6-.3a272.4 272.4 0 0 1-.8-.2l-1.6-.2-1.8-.4-1.8-.3-1-.2-1.9-.4-1-.2-2-.4-2-.4-2-.4-2.1-.5-3.8-.8-13.6-3.2-3-.6-2-.5-1.3-.2-1-.2-.8-.2-1.3-.2-1.3-.2-1-.2-1.9-.4-1-.2-2-.5-2.3-.5-2.4-.5-2.5-.6-3.3-.8-2.8-.7-2.2-.6-3.8-1-3.3-.9-3.4-.9-4.4-1.2-4.7-1.3-6-1.6-6.2-1.8-6.6-2-8.3-2.3-7.4-2.1-10.9-3.2-5.7-1.7h-1.2zm416.3 165.3v-.4l-34.2 14-8.9 3.7a4096.4 4096.4 0 0 0-16.9 7l-3.3 1.4h.2c16.5-5.3 33-8.8 49.1-10.2l1.9-.2a196.3 196.3 0 0 1 6.4-.4h1.8l.1-.4a121.3 121.3 0 0 0 3.8-14.5zm12.4-1.2-.2 1a132.6 132.6 0 0 1-3.4 14.6v.4h.2c8.2.2 16.2 1.1 23.8 2.6l1.9.3v-.1c-3-7.8-8.4-13.3-15.8-16.6l-.5-.2a40.3 40.3 0 0 0-5.7-2h-.3zm-171.6-131.6-.1 1a341 341 0 0 1-29 113.4c-5.7 12.2-12 23-19 32.5l-.8 1.2h.4c1.6.3 3.3.4 5 .5h.6c8.5 0 17.8-2.3 27.8-6.8l.7-.2.3-1a898.4 898.4 0 0 1 50.4-129.5l.8-1.6-1.7-.5c-11.2-3-22.5-6-34-8.7l-1.4-.3zm356.7 101.2-33.2 8-7.7 1.8-6.2 1.5-2.4.6-5.9 1.4-4.6 1.2-4.4 1.1-3.2.9-4.3 1-3 .9-3.1.8-3 .8-3 .8-3.7 1-2.8.8-1.9.6-2.7.7-2.7.8-2.6.8-2.6.8-2.5.8-1.7.5-1.7.5-1.6.5-1.7.5-2.4.8-2.4.8-2.3.8-1.6.5-2.3.8-2.3.8-2.2.8-2.2.8.6.2.6.1 1.4.3.7.2 1.5.3.7.1 1.5.3.8.1 1.5.3 1.6.3.8.1 1.7.3 1.7.2.8.2 1.7.2 1.8.3 1 .1 1.7.3h1l1.8.3 2 .2 1.9.3 2 .2 1 .1 2 .2 2 .2 2.1.2 2.1.2 2.2.2 2.2.2 3.3.3 2.2.2 2.3.2 2.3.1 2.3.2 3.6.2 2.4.2 3.6.2 2.4.1 3.8.2 2.5.2h2.5l3.9.2 2.6.1 3.9.2h2.6l4 .2h2.7l4.1.2h4.1l2.8.1 3.5.1h5.1l3.3.1h29.8l3.2-.1h3.2l3.1-.2h3.1l3.1-.1 3.1-.1 3-.1 3-.1h1.5l3-.2 2.8-.1 2.9-.1 2.8-.2h1.4l2.7-.2 2.7-.2 2.7-.1 2.6-.2 2.5-.2h1.3l2.5-.3 2.4-.2 2.3-.2 2.3-.2 1.2-.1 2.2-.2 2.1-.3c9.2-1 16.5-2.1 21.4-3.5 128-34.4 222-79.1 295-134.9a617.2 617.2 0 0 0 84.8-78.6l2.4-2.7 3.5-3.9 2.8-3.1 4.2-4.9 4.8-5.5 9.8-11.3 9.8-11.5 4.2-4.8 2.9-3.3 2.7-3 3-3.4 2.3-2.7 2-2.1 1.8-2.1 1.8-2 2.2-2.3 1.1-1.2 1.1-1.2a235.2 235.2 0 0 1 40.7-35.3 953.6 953.6 0 0 0 22.3-15.3l3.3-2.3a1086 1086 0 0 0 4.9-3.4l3.3-2.4a1146.7 1146.7 0 0 0 8.2-6l3.3-2.5 8.3-6.2 3.4-2.5 3.3-2.6 10-7.7 3.3-2.6 1.7-1.3 3.3-2.7 6.7-5.3 3.3-2.7 1.6-1.3 3.3-2.7 3.3-2.7c1-1 2.2-1.8 3.3-2.7l3.2-2.8 1.6-1.3 3.3-2.8 1.6-1.3 3.2-2.8 1.6-1.3 3.2-2.8c14.8-12.8 29-25.8 42-38.5 53-51.7 84-96 86-126.1v-.9h-.3c-21.3-4.1-40-13.7-57.8-28.6l-.7-.7-5.6-4.8-.8-.7-1-1-1.1-1-1.1-1-.7-.7-1.4-1.4-1.1-1-.7-.7-1-1.1-1.5-1.5-.7-.8-1.1-1.1-1.1-1.2-1.2-1.2-1-1.2-1.2-1.3-1.2-1.3-1.6-1.8-1.6-1.9-1.3-1.4-1.7-2-1.7-2-2.8-3.3-2.3-2.9-1.5-1.8-3-3.7-3.9-4.7-6.5-8-3.3-4-2.7-3.3-2.4-3-3.1-3.6-1.8-2.1-1.8-2-2-2.3-1.6-1.9-1.3-1.4-1.2-1.4-1.3-1.3-.9-1-1.2-1.3-.6-.7-1.6-1.5-.6-.7-.7-.7-1.5-1.5a145.1 145.1 0 0 0-38.8-28.8c-40.3-19.7-84-31-124.8-31.2-24 0-46.6 3.6-67.2 11.2l-.8.3v.1a535.6 535.6 0 0 1-50.8 50.7l-1.2 1a739 739 0 0 1-78.9 60.2 5.8 5.8 0 0 1-7.3-.6l-.2-.2c-2-2-2.6-5-.6-7.7l.5-.7 1-1.5a239.2 239.2 0 0 1 1.6-2.1l1.1-1.4.5-.8 1.2-1.4 1-1.4 1.2-1.4.6-.7 1.2-1.5 1.7-2.1 1.2-1.5.7-.7 1.2-1.4 1.3-1.4.6-.8 1.3-1.4 1.3-1.5 1.3-1.4 1.4-1.5 1.3-1.5 1.4-1.4 1.4-1.5 1.5-1.5 1.4-1.5 1.5-1.5 1.5-1.5 1.5-1.6 1.6-1.5 1.5-1.5 1.6-1.6 1.7-1.6 1.6-1.5 1.7-1.6 1.7-1.7 1.7-1.6 1.8-1.6.8-.8 1.8-1.7 1.9-1.7 1.8-1.7 1.9-1.7 1.9-1.7 2.6-2.3 2.7-2.5 3.6-3.2 14.9-13a169.4 169.4 0 0 1 48.5-30l1.2-.5.2-.2c8.2-9.7 15.6-19.3 22-28.8l.6-1c21-31.5 30.2-60.4 26.1-85.9-4.5-28.7-26.2-53.3-67.5-73.1a170.4 170.4 0 0 0-90.4-17.6 215.8 215.8 0 0 0-47.1 9.6l-2 .7-4.2 1.4-2 .7-2.2.7-2.1.8-2.2.7-2.1.8-1 .4-2.3.9a436 436 0 0 0-4.4 1.7l-2.2.9-1.2.4-2.2 1-2.3.9-1.2.5-2.3 1-2.3 1a562.1 562.1 0 0 1-85 28.7l-3.7 1-2.6.6-2.5.6-3.5.8-3.5.9-2.6.6-1.8.4-2.7.6-2.8.6-4.8 1-3 .7-4 .8-4 .9-5.5 1-5.6 1.2-32.6 6.4-.2.2c-6 7.8-13.1 15.5-21.6 23.3l-.8.8c-13.1 12-29 24-46.8 35.6l-2.4 1.6-2.4 1.5a562.8 562.8 0 0 1-24 14.4l-2.7 1.5-1.3.7-2.7 1.5-2.7 1.5-1.3.7-2.7 1.4-1.2.7-2.4 1.2-2.4 1.3-1.2.6-2.4 1.3-2.4 1.2-1.2.6-2.4 1.2-2.4 1.2-2.4 1.2-1.2.6-2.4 1.2-1.2.6-2.4 1.1-2.4 1.1-2.4 1.2-2.4 1-2.3 1.2-2.4 1-2.3 1-1.2.6-2.3 1-2.3 1-2.3 1-1.1.5-2.3 1-1.1.5-2.3 1-2.2.8-2.2 1-2.2.8-2.1.9-1.1.4-2.1.8-2.1.8-2 .8-1.1.4-2 .7a369.6 369.6 0 0 1-1 .4l-2 .7-2 .7-2.8 1c-5.9 2-10.5-5.2-6.3-9.8l2.7-3 3.7-4 1.7-2 1.8-1.8 1.8-2 2.6-2.7 1.7-1.8 1.7-1.8 1.7-1.8 2.5-2.6 1.6-1.7 1.7-1.7 1.6-1.6 1.6-1.7 1.6-1.6 1.6-1.6.8-.8 1.6-1.5 1.6-1.6 1.5-1.5.8-.7 1.6-1.5 1.5-1.5 1.5-1.5.8-.7 1.5-1.4.8-.7 1.5-1.4 1.5-1.4 1.5-1.4 1.5-1.3 1.5-1.3 1.5-1.4 1.5-1.3 1.5-1.3 1.5-1.2 1.5-1.3.7-.6 1.5-1.3 1.5-1.2 1.5-1.2.7-.6 1.5-1.2.7-.6 1.5-1.2.8-.5 1.5-1.2 1.5-1.2 1.5-1.1 1.5-1.1 1.5-1.1.7-.6a248 248 0 0 1 99.8-45.2l15.6-3v-.2a64.5 64.5 0 0 0 14-37.5l-.1-.6c-.7-22-19-42.4-58.3-60.3a410.3 410.3 0 0 0-124.2-32.7l-1.8-.2.3.2c48.4 29.2 77.8 67.7 83.5 114.4l.2 1.4a6 6 0 0 1-4.3 6.4 61 61 0 0 1-28.9.3 148 148 0 0 1-3-.6l-.6-.1-1.3-.3-1.3-.3-1.3-.3-1-.3-1.4-.3-1.7-.5-2.3-.7-1.2-.3-2.6-.8-2.8-.8-2.5-.8-12.6-4-3-1-1.7-.4-1.6-.5-1.5-.4-1.6-.4a223.2 223.2 0 0 0-1.5-.5l-1.4-.3-1.5-.4-.7-.2-1.4-.3-.7-.2-1.3-.3-1.3-.3-1.3-.3-1.3-.2a64 64 0 0 0-22-1 65.3 65.3 0 0 0-27.9 11.1l-1.2.8-.6.4-1.3.9-1.3.9-8 5.5-.7.5-1.4 1-.7.4-1.3.9c-2.4 1.6-4.6 3-6.9 4.3l-1.2.7-1.2.7a52.4 52.4 0 0 1-43.2 5.3l-.9-.2-2.6-.8-4.8-1.4-8.1-2.5-2.1-.6-1-.3-2-.6a355.2 355.2 0 0 0-3-.8l-2-.5-1.9-.5-2.8-.7-1.9-.5a235.6 235.6 0 0 0-5.4-1.2l-1.7-.4a134.1 134.1 0 0 0-32.1-3.1c-18.2.6-34.8 6-51.5 17.4l-7.7 5.3-5 3.4-3.9 2.8-2.1 1.5-1.7 1.2-1.4 1-1.3 1-1.6 1-1.5 1.2-1.5 1.2-1.6 1.1-.7.6a342 342 0 0 0-4.4 3.4l-1.8 1.4a157 157 0 0 0-38.6 41.4l-.2.3-.1.4a219.2 219.2 0 0 1-3.5 11.2l-.2.5h1.2c11.4.5 22.6 1.7 33.4 3.6l1.4.3c11.4 2.1 22.7 6.2 34.7 12.4l1.5.8 1.6.9 1.7.9 1.2.6 1.3.7 1.6 1 .9.4 1.7 1 1.3.8 1.3.8 1.8 1.1 1.4.9 2 1.2 2 1.3 1.6 1 2.3 1.5 3.6 2.3 10.6 7 4.3 2.8 2.4 1.5 2.2 1.4 1.7 1 2 1.3 1.6 1 1.4.9 1.5.8 1.4.8 1.3.8 1.4.8.9.5.8.5 1.3.7 1.3.7.8.4 1.2.7.8.4.8.4 1.2.6 1.2.6.8.4.8.4 1.2.5.8.4 1.2.5.8.4 1.2.5.8.3.9.4a178 178 0 0 0 66.4 13.3c6 0 12-.1 18.4-.5l2-.1 3-.3 2-.1 2-.2 2.1-.2 8.5-1 2.2-.3 2.2-.3 4.5-.7 2.3-.3 2.3-.4 2.3-.4 2.4-.4 2.4-.4 2.5-.5 2.4-.4 1.3-.2 2.5-.5 1.7-.4.9-.1.9-.2 1-.2 1-.3 1-.2 1.1-.3 1.2-.3 2-.4 2.6-.8 2.5-.6 23.2-6.3 4.3-1.2 2.4-.6 2.4-.6 2.4-.6 2.3-.6 2.2-.6 2.3-.5 2.2-.5 2.1-.6 2.2-.4 2-.5 2.2-.5 2-.4 2-.5 2.2-.4 2-.4 1.1-.2 2-.4a308.2 308.2 0 0 1 4.1-.7l2-.4c16.4-2.7 30.3-3.4 41.8-2 18.3 2.5 30.4 11 34.2 26.2a6 6 0 0 1-5.6 7.4 141.9 141.9 0 0 0-56.5 14.2l-1.5.7-1.5.7-1 .5-1.5.7-1 .5-1.6.8-1.5.7-1 .6-1 .5-1.1.6-1.6.8-1.6.9-1.6.9-1.1.6-1.7 1-1.7 1-1.8 1-1.8 1-2.4 1.5-2.6 1.5-1.3.8-3.4 2-3.5 2.3-3 1.9-13 8.1-4.4 2.8-1.9 1.1-1.8 1.2-1.8 1-1.7 1.1-1.7 1-1.8 1-1.6 1-1.7 1-1.6 1-1.7.9-.8.5-1.6.9-1.5.8-.8.5-1.6.8-.7.4-1.6.8-1.5.8-1.5.8-1.5.7-.7.4-1.5.7-1.4.7-1.5.7-1.4.7-1.4.6a166.8 166.8 0 0 1-8.4 3.5l-1.3.5-.7.3-1.4.5-2 .7-1.4.5a136 136 0 0 1-8.9 2.6l-1.3.3a137.7 137.7 0 0 1-4.2 1 123 123 0 0 1-81-11.3l-.8-.4a454.7 454.7 0 0 0-119.6-37.5l-2.8-.5-3-.5-3.1-.5-3-.5-2-.4-2-.3-2-.3-3.1-.4-3-.5-2-.3-3.1-.4-3.1-.4-2.1-.3-3.2-.4-2-.3-3.3-.4-3.3-.4-3.3-.3-2.3-.3-2.3-.2-3.5-.4-3.6-.4-3.6-.3-2.6-.3-3.8-.3-4-.4-4-.4-2.7-.2-5.7-.5-6-.5-7.7-.6-9.9-.8-10.5-.8-30.7-2.3-2.6-.2-4.2-.4-8.6-.9-19.6-2-6-.7-4.1-.4-4.6-.5-3-.2-3.5-.3-3.3-.3-2-.2-2.6-.2-2-.1-1.8-.1-1.9-.1-1.9-.1-1.3-.1h-1.2l-2-.2h-1l-2.2-.1h-1l-2.2-.1h-1l-2.1-.1h-3.1c-27.2-.3-48.9 3-66.2 10.7l-.6.3 2.8 1.9a595.3 595.3 0 0 1 51.5 38.4l2.8 2.4 2.5 2 1.4 1.3h.9c12.2.2 24.9.6 38 1.3l2.4.1 3.8.2 4.3.3h1.6l2.8.2 5.2.4 4.7.3 6.9.5 7.1.5 6.8.5 7.9.7 10 .8 8.4.8 14.7 1.3 44.3 4 9.9 1 6.5.5 42.2 3.4 16 1.4 5.8.5 4.9.4 6.5.6 5.5.6 5.9.5 6.2.7 3.8.4 3 .3 3 .4 3 .3 3.1.4 3.2.4 1.8.2 3.6.5 3.6.4 3.6.5 1.7.2 3.5.5 3.5.5c27.2 3.9 51.9 8.6 75 14.5l2.9.8a498.6 498.6 0 0 1 24.2 7c11.2 3.5 22 7.4 32.3 11.7l.5.2.3-.3a848.9 848.9 0 0 1 52.5-36.5l4-2.5c64.4-41 126.6-75.8 188.2-104.8l27.6-13 8.5-4 1.8-.8 2.6-1.2 2.5-1 2.4-1.2 2.5-1 2.4-1.1 2.3-1 2.4-1.1 2.3-1 1.2-.5 2.3-1 2.2-.9 2.3-.9 1-.5 2.3-.8 2.2-.9 2.1-.8 2.2-.9 2.1-.8 1-.4 2.2-.7 1-.4 2.1-.8 2-.7 1.1-.4 2-.7 4.1-1.3 2-.6 4-1.3 2-.6 2-.5 4-1.1c24.9-6.7 47.2-8.8 67.2-5.4 29 4.9 44.4 22.6 47.1 50.3 1.4 14-.5 30.6-5.3 49.4l-.5 1.8-.2 1-.5 1.8-.5 1.9-.6 1.9-.5 1.9-.6 1.9-.6 1.9-.6 2-.6 1.9-.3 1-.7 2-.3 1-.7 2-.7 2-.7 2-.7 2-.8 2-.7 2.1-.4 1c-5.1 13.8-11.2 28.1-18.4 43.6l-1.5 3.3-1.5 3-1.3 2.9-1.3 2.7-1.6 3.5-1.3 2.6-2.3 4.6-1.9 3.9-2 4 1-.3 6.3-2.4 2.5-1 13.1-5 3.3-1.2a751.3 751.3 0 0 0 209.2-117.4 6 6 0 0 1 9.7 3.5c5.5 28 1.1 54.7-11.8 81.5-6 12.5-13.6 24.5-23.4 37.5l-.4.5h.4c38-14 75.7-19 109.7-13.8l1.8.3c64.2 10.5 110 56.2 127.5 133.3a6 6 0 0 1-1.8 5.7 217.2 217.2 0 0 1-71.7 44.5l-1.6.6-1.5.5-1.6.6-2.1.8-2.2.7-1.6.6-1.7.6-2.3.7-2.4.8-2 .6-3.2 1-3.5 1-4.6 1.5-14.4 4.3-5.5 1.6-3.9 1.2-3.5 1.1-2.8 1-3 1-2.1.6-1.8.7-2 .7-1.4.5-1.4.5-1.4.5-2.2.8-2.3 1-.8.2a324.2 324.2 0 0 0-55 27.5c-45.7 28.2-96 73.1-156.7 142.2a526.3 526.3 0 0 1-191 139 757 757 0 0 1-97.8 34.1l-3.3 1-4 1-4 1.2-4 1-2.7.8-4.2 1-4.2 1.2-4.3 1-4.4 1.2-4.4 1.1-4.6 1.1-3.1.8-11 2.7-7 1.7zM1234.8 939v.5l-4.4 17.5-.6 2.5-.6 2.5-.6 2.5-.6 2.5-.5 2.5-.3 1.2-.5 2.4-.5 2.5-.5 2.4-.2 1.1-.5 2.4-.4 2.4-.5 2.3-.2 1.2-.4 2.3-.2 1.1-.4 2.3-.2 1.1-.4 2.2-.3 2.3-.4 2.2-.2 1-.3 2.2-.1 1.1-.3 2.2-.3 2-.3 2.2-.1 1-.3 2-.2 2.1-.2 2-.2 2-.1 1-.2 2-.2 2-.1 2-.1 1.8-.2 2.9-.1 1.8v1l-.1 1.8c-.3 8.1-.1 15.6.6 22.4 1.8 17.5 6.8 29.3 15.3 35.6l.2.1 1-1.2c6.8-9 13-19.3 18.5-31l.8-1.8a330.1 330.1 0 0 0 28.2-111.6v-.6l-2.4-.5a1225.3 1225.3 0 0 0-41-8.6l-4.4-.8zm108.5 25.5-.8 1.5c-18 36.8-34 77.2-47 118.2l-.4 1 .8-.5c6-3.7 12-8 18.4-12.9l1.6-1.3 1.7-1.3 1.7-1.3.8-.7 1.7-1.4.9-.7 1.7-1.4 1.7-1.5 1.7-1.5 1.8-1.5.9-.8 1.8-1.5.9-.8 1.8-1.6 1.8-1.6 1.8-1.7 1-.8 1.8-1.7 1-1 2.5-2.4 2-1.9 3.8-3.6 7.9-7.6 25.6-25.1 2.3-2.3 1.2-1.2 11.5-10.7 3.8-3.5-.4-.3c-16.5-9.6-36.1-17.6-58.2-24.3l-1.1-.3zm552.3-439.9-6.9 2.8-7.8 3.1-9 3.7-12.4 5-12 5-16.2 6.8-17.6 7.3-54.7 23-19.3 8-1.7.7-1.6.8-1.7.7-1.7.7-1.7.8-1.7.7-2.5 1.1-2.5 1.2-1.7.7-1.7.8-2.5 1.2-1.7.8-1.7.8-2.5 1.3-1.8.8-2.5 1.3-1.8.9-1.7.8-1.8 1-1.7.8-1.8 1-2.7 1.4-1.8 1-2.7 1.4-1 .5-2.7 1.5-2.8 1.5-2 1-2.8 1.7-2 1-3 1.7-3 1.8-3 1.7-4.3 2.4-3.2 1.9-4.4 2.5-3.3 2-4.6 2.7-3.6 2.2c1.4 13.6 1 27.6-1.3 42l-.2 1.7c-8 47.8-35.5 98.6-78.2 151.2l-1.2 1.6-2.6 3-2.5 3.2-1.3 1.5-2.6 3.2a1271.6 1271.6 0 0 1-3.9 4.6l-2.6 3.1a1303 1303 0 0 1-5.3 6.3l-2.7 3-1.3 1.6-2.7 3.1-1.4 1.6-2.7 3.1-1.4 1.6-2.7 3-2.8 3.2a1433.2 1433.2 0 0 1-5.6 6.2l-2.8 3.2-2.8 3a1507 1507 0 0 1-3 3.2l-2.8 3.1-1.4 1.6-3 3.2-2.9 3.1-1.5 1.6-3 3.1-3 3.2-1.4 1.6-3 3.1-3 3.2-1.6 1.6-3 3.2-3.2 3.2a1841.5 1841.5 0 0 1-3.1 3.2l-3.1 3.2-1.6 1.6-3.2 3.2-3.2 3.3-3.2 3.2-3.3 3.3-1.6 1.6-3.3 3.2-3.3 3.3-3.3 3.3-3.4 3.3-3.4 3.3-1.7 1.7-3.4 3.3-3.5 3.3-3.4 3.4-3.5 3.3-3.6 3.5.5.4a153.8 153.8 0 0 1 5.6 4.1l.7.7c24.5 19.6 38 43.7 38.5 72.2v.5l4.3-1.8 5.2-2.2 3.9-1.6 5-2.1 6-2.6 5.3-2.2 3.3-1.4 3.2-1.4 3.2-1.4 3.2-1.4 3.1-1.4 3.1-1.3 3.1-1.4 3-1.3 3-1.4 3-1.4 3-1.3 3-1.3 3-1.4 1.4-.7 2.9-1.3 2.8-1.3 2.9-1.4 2.8-1.3 2.8-1.3 2.8-1.3 2.7-1.4 2.7-1.3 2.7-1.3 2.7-1.3 1.3-.7 2.7-1.3 2.6-1.3 2.6-1.4 2.6-1.3 2.6-1.3 2.5-1.3 1.3-.7 2.5-1.3 2.5-1.3 2.5-1.4 2.4-1.3 2.5-1.3 2.4-1.4 2.4-1.3 2.4-1.3 1.2-.7 2.4-1.4 1.2-.6 2.4-1.4 2.3-1.3 2.3-1.4 2.3-1.4 2.3-1.3 1-.6.4-1.2 1.3-3.1 1.3-3 .6-1.5 1.3-3 .6-1.5 1.3-3 .6-1.4 1.3-2.9 1.3-2.8 1.2-2.8a788.2 788.2 0 0 1 1.9-4.1l1.2-2.8 1.3-2.7 1.2-2.6 1.3-2.7 1.2-2.6a642.7 642.7 0 0 1 2-3.9l1.2-2.5 1.3-2.6 1.2-2.5 1.3-2.5 1.3-2.4.6-1.3 1.3-2.4.7-1.2 1.3-2.5.6-1.2 1.3-2.4 1.3-2.4.6-1c18.5-33.1 39-61.3 63.5-86a540.2 540.2 0 0 1 35-32.1l2.8-2.3 1.3-1.1 2.8-2.3a815.5 815.5 0 0 1 7-5.7l2.3-1.9 3.2-2.6 1.5-1.1 1.5-1.2 2.8-2.2 4-3.2 3.5-2.6 3.6-2.8 5.4-4.1 6.7-5 8.2-6.2 3.5-2.6.9-2.4.8-2.4.9-2.4 1.1-3.3 1.2-3.3 1.2-3.5 1.2-3.5 1.2-3.5.9-2.8 1.5-4.7 1.6-4.8 1.6-5 2.4-7.2 2-6.5 2.5-8 3-9.6 6-19 3.2-10.3 1.6-5 1.5-4.7 2-6.2 1.4-4.5.9-2.9 1.4-4.2 1.7-5.5 1.4-4 1.2-3.8.9-2.5.8-2.5 1.2-3.6.8-2.4 1.2-3.5.8-2.3.8-2.2.8-2.2.8-2.2 1.1-3.2.8-2.1.8-2.1 1.1-3.1 1.2-3 .7-2 1.2-3 .8-2 1.1-3 .8-1.9.8-2 .8-1.9.8-1.9 1.2-2.9.8-1.9 1.2-2.9.8-2 1.3-2.8 1-2.2.8-2 .9-1.8 1-2 .8-2 1.3-2.5 2.3-4.6zM450.8 732.2l-.5.8c-9 14.5-18.5 25.8-30.7 35.9-23.1 19.1-53.5 30.7-94.2 34.1-10 .9-19.8 12.9-24.4 31.4a112.4 112.4 0 0 0 8.9 72.2c13.5 29.4 38.4 55.6 75 75.8 42.7 23.8 100.1 38.7 172.5 42.8a199.1 199.1 0 0 0 84.3-15l1.3-.5 3.1-1.1 1.3-.5 2-.8 2-.8 2.1-.9 2.1-.8 2.1-1 2.2-.8 2.1-1 2.3-1 2.8-1.2 2.9-1.3 3-1.4 2.5-1.2 3.1-1.5 4-1.8 4.2-2 4.4-2.2 5.4-2.6 6.6-3.3 18.7-9.3 4.3-2.2 4.2-2 4-2 4-1.9 3.7-1.8 2.7-1.3 3.6-1.7 2.5-1.2 2.5-1.2 2.5-1 1.6-.8 3.1-1.4 2.3-1 1.6-.7 2.2-1 2.2-1 1.4-.6 2.2-.9 2-.8 2.2-.9 2-.8 1.4-.5 2-.8 1.4-.5 2-.8 2-.7 1.4-.5 1.4-.5 2-.7 1.4-.5 1.3-.4 2-.7 1.4-.5-.6-.7a751 751 0 0 1-13.8-15l-1.5-1.7a560.4 560.4 0 0 1-67.4-92.8l-1.1-2-3.3-.7-3.4-.7-1.7-.3-2.4-.5-3.3-.7-2.3-.4-2.3-.5-2.3-.4-1.4-.3-2.2-.3-2-.4-2.2-.3-2-.4-1.3-.2-1.2-.1-1.3-.2-1.2-.2-1.3-.2-1.7-.2-1.2-.1-1.7-.2-1-.1-1.2-.1-1-.1-1-.1-1-.1h-1l-1-.1h-1l-.8-.1h-1.8l-.8-.1a73.9 73.9 0 0 0-.5 0H656.8l-.7.1h-.4l-.8.1c-48.5 4.8-89.9-4.3-128.4-26.3l-.8-.5-1.7-1a258.3 258.3 0 0 1-15.3-9.7l-1.6-1.1-1.7-1.2-1.7-1.2a291.3 291.3 0 0 1-10-7.5L492 770a328.2 328.2 0 0 1-4.2-3.4l-1.6-1.4-1.7-1.4a374 374 0 0 1-4.3-3.7l-1.7-1.5-1.7-1.5-1.7-1.5-1.8-1.6-.8-.8-1.8-1.6-1.8-1.7-1.7-1.6-1-.9-1.7-1.7-1.8-1.7-1.8-1.7-1.8-1.8-1-1-1.8-1.8-1.9-1.8-1.8-1.9-1-1-.8-.8zm1184.6-86.7v-.6l-7.5 4.4-1.4.9-1.2.7-3.2 1.8-2.4 1.5-3.1 1.7-2.6 1.5-3.3 1.8-3.4 1.9-2.3 1.3-3.7 2-4 2-5.6 3-6.1 3.3-17.4 9.1-3.8 2-3.7 2-3.6 2-3.5 1.8-3.4 1.9-3.3 1.8-2.1 1.2-3.2 1.7-3 1.7-2 1.1-2 1.2-2.9 1.6-1.9 1.1-1.8 1-1.8 1.1-2.7 1.6-1.7 1-1.8 1.1-1.6 1-1.7 1-1.6 1.1-1.7 1-1.5 1-.8.5-1.6 1-1.5 1-1.5 1-1.5 1-1.5 1c-.5.4-1 .8-1.5 1l-1.4 1.1-.8.5-1.4 1-1.4 1-1.4 1-1.4 1-.7.6-1.4 1-.6.5-1.4 1a292.3 292.3 0 0 0-.7.6l-1.3 1-.7.6-1.4 1-.6.6-1.4 1-.6.6-1.4 1.1c-10.8 9-20 19.6-28.6 32.8l-.9 1.3-.8 1.3-.8 1.3-.9 1.4-.5.8-.8 1.4-.9 1.4-.8 1.4-.8 1.4-1.1 2-.9 1.5-1.1 2-1.2 2.2-.9 1.7-1 1.7-1.2 2.5-1 1.9-1.4 2.7-2.2 4.2-1.5 3-5.2 10.3-1.5 3-1.3 2.6-1.2 2.4-1.2 2.3-1.2 2.2-1.2 2.2a806.4 806.4 0 0 1-1.7 3.1l-1.3 2.5-1.3 2.4-1 1.8-1.3 2.2-1.2 2.2-1.8 3.2-2.1 3.6-2.3 3.9-3 5.1-2.6 4.4-3.6 6-7.4 12.3-8.8 14.6-5.1 8.5-4.1 6.9-2.3 3.8-2.1 3.7-2.3 4-1.4 2.4-1.2 2-1.4 2.6-1 1.9-1.4 2.3a666.1 666.1 0 0 0-8.4 15.9l-1 1.9.3.1a276 276 0 0 1 61.7 26.3l1.2.8 3.5-3.4 3.5-3.3 3.4-3.3 3.4-3.3 3.4-3.3 3.4-3.2 1.7-1.7 3.3-3.2 3.3-3.3 3.2-3.2 3.3-3.2 1.6-1.6 3.2-3.2 3.2-3.2 1.6-1.6 3.1-3.2 1.6-1.6 3.1-3.1 3.1-3.2 3.1-3.1 1.5-1.6 3-3.1 3-3.2 3-3.1 1.6-1.6 3-3 2.9-3.2 2.9-3 1.4-1.6 3-3.1 2.8-3.1 2.9-3.1 1.4-1.5 2.8-3.1 4.2-4.6 2.8-3 1.3-1.6 2.8-3 1.4-1.6 2.7-3 2.7-3.1 1.3-1.6 2.7-3 1.3-1.6 2.7-3 4-4.6 2.5-3 2.6-3.1 2.6-3 8.9-10.7 2.5-3.1 1.2-1.5 1.4-1.8c41.5-51.1 68-100.2 75.6-145.5 2-11.8 2.7-23.3 2-34.4zm172.3 127.8.2-.6-4.5 3.5-4 3-3.8 2.9-2.9 2.2-1.4 1-3.4 2.8-2.7 2.1-2.4 1.9-1.4 1-2.9 2.4c-18.9 15.2-35 29.3-49.3 43.8a376.7 376.7 0 0 0-61.5 83.4 599 599 0 0 0-22.4 44.6l-1.4 3.2a851 851 0 0 0-3.6 8l-.8 1.8 1.4-.9A417.6 417.6 0 0 0 1751.4 879l.9-1.2a438.8 438.8 0 0 0 55.4-104.4zM1091 921l-3.6-.2 6.6 1.9 3.7 1 4.3 1.1 4.7 1.3 3.8 1 3 .8 3.3.8 2.7.7 3 .7 2.3.6 1.8.4 1.7.3 1.2.3 1.2.2 1.4.3 1.4.3 1 .2 1.1.2 1.2.2 1.6.3 1 .2 2.4.5 2.2.5 12 2.8 4.3 1 2 .4 2.1.5 2 .4 2 .4 1 .2 1.8.4.9.1 1.8.4 1.8.3.7.1 1.5.3 1.4.2.7.2 1.4.2 1.4.2 1.3.2 1.3.2h.7l1.3.2 1.2.2 1.3.1h.6l1.2.2 1.1.1h.6l1.1.1 1.1.1h.6l1 .1h1a73.1 73.1 0 0 0 2.6 0h1c3.8 0 7-.4 9.4-1.3 2.7-.9 3.8-2 4-3.6.2-1 .2-2.1-.2-3.5v-.4l-1.3-.2c-41-7-82.1-11.7-122.7-14.2zm183-102.3-.2-.5-1.4 4-1.5 4-.7 2-1.5 4-1.5 4-.7 2.1-1.5 4.1-1.3 3.6c-9.6 27.1-18.1 54-25.2 79.4l-.5 1.9 2 .4a1237.3 1237.3 0 0 1 42.8 8.9l.6.1v-.8c1-18.7.6-38-1-57.6l-.2-2c-1.6-19.1-4.4-38.4-8.3-57.6zm-544 12.6.5 1a561.6 561.6 0 0 0 61 82.1 741.6 741.6 0 0 0 18.2 19.8l1.5 1.7 1.4-.4a643.3 643.3 0 0 1 67.5-15.9l1.6-.3-4.9-5.6-2.8-3.3-6-7.1-4.5-5.3-4.6-5.3-4.5-5.5-5.7-6.7-5.7-6.9-6-7.2-7.4-8.9-8-2.2-7.6-2.1-6-1.7-7.2-2-7-1.9-7-1.9-8-2.1-4-1-5.1-1.4-5.1-1.3-3.7-1-3.7-1-3.6-.9-3.6-.8-4.6-1.2-3.4-.8-5.6-1.4-3.2-.8-3.3-.7zm313.6-393.8c-59.5-.5-109.5 5.2-156.7 19.2-58.9 17.4-113.1 49.8-150.5 91.4a210 210 0 0 0-46.7 81.8l-.2.6.4.7 8.2 15.4.6 1 .2.1 6.5 2.1 4.3 1.5 4.4 1.5 4.4 1.5a1677.3 1677.3 0 0 1 15.7 5.5l4.5 1.7 2.3.8 4.7 1.7 14 5.2 4.7 1.7 2.4 1 4.8 1.8 2 .7a2409.7 2409.7 0 0 1 32.6 12.7l6 2.4a2747.9 2747.9 0 0 1 18.2 7.4l6 2.5a3036.8 3036.8 0 0 1 27.7 11.5l6.2 2.6 6.2 2.7 6.2 2.6 3 1.4 6.3 2.7 6.2 2.7a3507 3507 0 0 1 15.6 6.8l6.2 2.8 6.3 2.8 6.2 2.8 3.1 1.4 7 3 7.5 3.5 8.6 4 5 2.2 8.4 3.9 7 3.3 7 3.2 6.8 3.2 5.5 2.6 7.4 3.6 5.2 2.5 6 2.8 4.7 2.3 4.6 2.3 5.2 2.5 4.1 2 4 2 4.3 2.2 20.9 10.7 9 4.6 7.3 3.8 5.6 3 4.4 2.3 2.5 1.3 4 2.2 2 1 2.8 1.6 2.9 1.6 3 1.7 2 1.2 2 1.1 3.1 1.8 2.2 1.3c50.7 29.5 85.9 57.7 103.3 87.2a63.5 63.5 0 0 1 2.5 4.5l.2.5 2.5.4.2-.8c7.1-25.7 15.7-52.7 25.3-80.1l1.3-3.7 1-3 1.1-3 1.1-2.9 1-2.9 1.1-3 1-2.8 1.1-2.8 1-2.9 1.1-2.7 1-2.8 1.6-4 1.5-4 1-2.5 1.6-4.2-.1-.6a592 592 0 0 0-34.8-101.5l-.8-1.8a758.2 758.2 0 0 0-188.2-255.4l-.2-.2h-1.4zM707.3 663.3l.3.6 13 22.5.9 1.4 1.6 2.7 1.6 2.8 1.7 2.7 1.6 2.7 1.7 2.7 1.7 2.8 1.6 2.7 1.7 2.6 1.7 2.7 2.5 4 1.7 2.6 1.6 2.7 1.7 2.6 1.7 2.6.8 1.3 2.5 3.8 1.7 2.6 1.7 2.5 1.7 2.5 1.6 2.5 2.5 3.7 1.7 2.5 1.6 2.4 1.6 2.4 1.7 2.4 2.4 3.5 2.4 3.5 1.6 2.2 1.6 2.3 1.6 2.2 1.6 2.2 1.6 2.2 1.5 2.1 1.5 2.1 1.6 2.1.7 1 1.5 2 1.5 2 1.5 2 1.5 2 1.5 1.9.7.9 1.4 1.8.7 1 1.4 1.7 1.4 1.8 1.4 1.7 1.3 1.7 1.4 1.6 17.8 21.7 11 13.3 7.6 9.3 8.2 2.3 8.2 2.3 8.3 2.4 8.5 2.5 8.8 2.5 8.8 2.6 10.5 3.1 16.2 4.8 126.5 37.7h2.9l23.4.6 3 .1c44.4 1.8 89.7 6.4 134.7 13.6l4 .6-.3-.4c-14.8-22.5-41.7-45-79.1-68.4l-2.6-1.6-2.6-1.6-1.3-.8-2.7-1.6-1.3-.8-2.7-1.6a718.5 718.5 0 0 0-2.8-1.6l-2.5-1.4-3.2-1.9-3-1.7-2-1.1-2.9-1.7-2-1-3.2-1.9-3.7-2-3.7-2-3.5-2-4.7-2.4-6.1-3.2-6.2-3.2-11.8-6-10.9-5.5-7.3-3.7-3.7-2-4-1.9-3.3-1.6-4.3-2.2-5.5-2.6-3.8-1.9-6-2.8-5-2.5-4.3-2-7.6-3.6-6.7-3.2-8-3.7-9.5-4.4-7.2-3.4-7.4-3.3-6.2-2.9-6.2-2.8-3.8-1.7a3680.3 3680.3 0 0 0-6.2-2.8l-6.2-2.8-6.2-2.7-6.2-2.8-6.3-2.7a3473 3473 0 0 0-9.3-4.1l-6.2-2.7a3249 3249 0 0 0-33.9-14.5l-6.1-2.6-6.1-2.6a2891.3 2891.3 0 0 0-18.3-7.5l-6-2.4a2477 2477 0 0 0-47.5-18.7l-4.8-1.8-4.8-1.8-4.7-1.8-2.4-.9-4.7-1.7-4.6-1.7-9.2-3.4-4.6-1.6-4.5-1.6-4.5-1.6-4.4-1.5-4.5-1.5-2.2-.8-2.1-.7zM850 863.5l5.1 6 3.6 4.3 3.5 4.2 3.5 4.2 4.6 5.4 5.6 6.6 4.5 5.3 3.5 4.1 2.5 2.8 3.2 3.8 2.5 2.9 3.4 4h.3a828 828 0 0 1 101.4-9.4h2.4l-85-25.4-10.3-3-11.9-3.5-7.7-2.3-10-3-9.9-2.8-7.2-2-7.6-2.2zM684.2 655.6l-.1 1c-2.3 17-2.3 34.4.3 52.3A318 318 0 0 0 721 816l.7 1.3 2 .4 3.1.7 3.2.8 3.3.7 3.3.8 3.4.8 3.4.9 3.5.8 3.6.9 4.8 1.2 3.7 1 3.8.9 5 1.3 5.3 1.4 5.4 1.4 4 1 5.6 1.5 5.6 1.6 5.8 1.5 5.8 1.6 7.5 2.1 3.3 1-13.6-16.6-10.6-13-2-2.3-1.3-1.7-1.4-1.7-1.4-1.8-1.5-1.8-1.4-1.8-1.5-1.9-1.4-1.9-1.5-2-1.5-2-1.5-2-1.6-2-1.5-2-1.5-2.2-.8-1-1.6-2.2-.8-1-1.6-2.3-1.6-2.2-1.6-2.2-1.6-2.3-1.6-2.3-1.6-2.4-1.7-2.3-1.6-2.4-1.7-2.4-1.7-2.4-1.6-2.5-1.7-2.5-.8-1.2-2.5-3.8-2.6-3.8-1.7-2.5-1.7-2.6-1.6-2.6-1.7-2.6-2.6-4-1.7-2.6-1.7-2.7-1.7-2.7-1.7-2.7-1.7-2.7-1.6-2.7-1.7-2.7-1.7-2.8-1.7-2.7-1.7-2.8-1.6-2.7-1.7-2.8-1.7-2.8-.8-1.4a1200.2 1200.2 0 0 1-19-33.2l-.9-1.7h-.2l-5-1.6-1-.4zm-78-21.4c-49.4-10.7-83-10.5-97 1l-.9.6-1.2 1-.7.7c-.2 0-.3.2-.4.3l-.8.7-.7.7-.8.7-1.5 1.5-.7.7-.7.8-.7.8-.7.8-.7.8-.7.8-.7.8-.7.9-.7.8-.6 1-.7.8-.3.5-.7.9-1 1.4-.7 1-.3.5-.7 1-.7 1-.6 1-.7 1.1-.7 1.1-.6 1.2-.4.5-.6 1.2-.7 1.2-.7 1.2-.4.6-.6 1.2-.4.7-.7 1.3-.7 1.3-.7 1.3-.7 1.4-.7 1.4-.8 1.4-.7 1.5-.8 1.5-1.1 2.3-1.2 2.4-.8 1.6-1.2 2.5-5.2 11-2.1 4.5-1.4 3-.8 1.6a365.5 365.5 0 0 1-6.2 12l-1 1.8 1.9 1.8 1.8 1.9 1.8 1.8 1 1 1.7 1.7 1 .9 1.7 1.7 1.7 1.7 1 .9 1.6 1.7 1.8 1.6 1.7 1.6.8.8 1.7 1.6 2.6 2.3 1.6 1.5.9.8 1.6 1.5 1.7 1.4 1.6 1.5 1.7 1.4 1.6 1.4.8.7 1.6 1.3 1.6 1.4 1.6 1.3 1.7 1.3 1.6 1.3 1.6 1.2 1.6 1.2a277.4 277.4 0 0 0 6.3 4.8l1.6 1.1 7.2 5 1.6 1a244.3 244.3 0 0 0 8 5l1.7 1 1.6 1 .9.5A196 196 0 0 0 652.4 808l1.4-.1.7-.1h.8l.8-.1H665.2l1 .1 1.1.1 1.1.1h1.2l1 .2 1.2.1 1.2.1 1.2.2 1.3.1 1.9.2 1.2.2 1.4.2 1.3.2 2 .3 1.4.2 1.5.2 1.4.2 2.2.4 2.3.4 1.5.2 2.3.5 2.5.4 2.4.5 2.5.5 3.2.6-.6-1.2a325 325 0 0 1-33.1-100l-.3-2.1a203.2 203.2 0 0 1 0-57.3l.1-1.3-2-.7-3.4-1-1.7-.5-3.3-1-3.3-1a936.3 936.3 0 0 0-12.8-3.6l-3.1-.9-1.6-.4-3-.9-3.2-.8-3-.8a739.2 739.2 0 0 0-3-.8l-3-.7a621.3 621.3 0 0 0-18.7-4.4l-1.3-.3zM1063.5 438l1.8 1.6a774.6 774.6 0 0 1 179 248.7 605.4 605.4 0 0 1 32 88.4l.4 1.6 1-2.3.8-1.9a694 694 0 0 1 211.7-277l2.7-2.2a417.2 417.2 0 0 0-23.8-8.5l-1.5-.5a571.1 571.1 0 0 0-78.6-18.5l-3.2-.5a817.2 817.2 0 0 0-5-.8l-3.3-.5-3.3-.5a898.8 898.8 0 0 0-3.4-.5l-3.4-.5-5.2-.7-3.5-.5-3.5-.5-5.3-.7-3.6-.4-3.1-.4-4.6-.5-3-.4-3-.3-3.7-.4-6.5-.7-5.8-.6-4.2-.4-6.3-.6-9.7-.9-10-.8-13.3-1.1-35.7-3-6-.4-12-1-23.8-2.3-24.8-2.2-13.4-1.2-8.6-.8-8.8-.7-6.6-.6-6.2-.5-6.8-.5-5.1-.4-4.3-.2-4.9-.4-6.3-.4-3.6-.2-4-.2-2-.1c-8-.4-15.7-.8-23.3-1l-3.4-.1zM489.9 328h-.3c-35 .7-73.9 7-111.9 18.4a401.5 401.5 0 0 0-20.2 6.7l-2.2.8-2.1.7-1 .4-2.2.8-2 .9c-8 3-15.6 6.4-22.6 9.8l-1.8.9a161.1 161.1 0 0 0-35.1 22.7c-18.6 16.6-21.3 31.7-7.6 46a179.7 179.7 0 0 1 36.7 55.5l.4 1 .5 1 .4 1 .4.9.6 1.5.8 2 .6 1.5.4 1 .6 1.6.3 1 .6 1.6.6 1.7.6 1.6.6 1.8.6 1.7.6 1.8.8 2.5.9 2.6.8 2.8 1 2.8.8 3 1.2 3.9 1.8 5.9 2.8 9.5 1.4 4.8 1 3.4 1.2 3.6.8 2.8 1 3 .7 2.2.6 1.6.6 2 .4 1 .6 1.6.6 1.9.3.7 1.7 4.6a197.6 197.6 0 0 0 42.9 69l1.8 1.9 2.7 2.9 2.8 3 2.9 3 5.3 5.7 27.8 30.4 6.4 6.8 1.6 1.8 2.5 2.7 1.3 1.3 2.5 2.6.6.7.2-.4a359.9 359.9 0 0 0 4.5-8.7l1.2-2.5 1.7-3.5 1.5-3 5.5-11.7 1.4-3 1.7-3.5 1-2 .9-1.9 1-1.8.8-1.8.6-1.1.6-1.2.8-1.6.6-1 .8-1.6.6-1 .8-1.5.6-1 .8-1.4.6-1 .8-1.3.9-1.4.8-1.4c6.8-10.8 14-19.4 22.6-26.3 18-14.6 54.2-14.8 107.2-3.3l10 2.2 2.9.7 12 3 3 .8 3.1.8 3.1.8 3.2 1 8 2.1 3.2 1 3.3 1 3.3.9 3.3 1 3.4 1 3.4 1 .8.3.2-1 1.3-5.3.4-1.9-.2-.4a973.7 973.7 0 0 1-11.9-24l-.5-1-.2-.1a32.8 32.8 0 0 1-2.5-1l-.3-.2-.7-.4-.7-.3-.3-.2-.7-.4-.4-.2-.7-.4-.3-.2-.8-.4-.3-.3-.8-.4-.4-.3-.7-.5-.4-.2-.8-.6-.4-.2-.8-.6-.8-.6-.9-.6-.8-.6-1-.7-.8-.7-1-.7-1.3-1-1-.8-1.5-1.2-1-.9-1.6-1.2-1.6-1.4-1.1-1-2-1.6-4.2-3.7-27-23.6c-36.3-31.3-73.2-83-94.6-134.8-14-33.7-20.9-66-19.9-95V328zm1431-23.3a146.7 146.7 0 0 0-65.9 6.2l-1.9.5-.9.3-1.9.6a299 299 0 0 0-6.7 2.1l-2 .7-1.9.6-2 .7-1 .4-2 .7-1 .3-2 .8-1 .3-2 .8-2 .8-2.1.8-2.1.8-2.1.9-2.1.8-1.1.5-2.2.9-2.2.9-2.2 1-2.2.9-2.3 1-2.3 1-2.3 1-1.2.5-2.3 1-2.4 1.1-2.5 1.2-4.5 2-9 4.3-20.4 9.5a1693 1693 0 0 0-192 106.5 847.4 847.4 0 0 0-48.5 33.1l-2 1.6h.2c23.5 10.8 45 23.6 64.5 38.7l1 .9c34.4 27 54.7 58 62 92.2l.4 1.6 4.2-2.5 4.5-2.6 4.3-2.5 2-1.2 3.2-1.8 3-1.8 3.1-1.7 4-2.2 1.9-1.1 2.9-1.6 1.9-1 2.8-1.6 1.8-1 2.8-1.5 2.7-1.4 2.7-1.4 2.6-1.4 2.7-1.4 1.7-.9 1.7-.9 1.8-.8 1.7-.9 1.7-.8 2.5-1.3 1.7-.8 1.7-.8 1.7-.8 2.5-1.2 2.5-1.1 2.5-1.2 1.7-.7 2.5-1.1.9-.4 1.6-.7 1.7-.8 2.6-1 1.7-.8 31-13 40.7-17 14.2-6 7.3-3 16.2-6.8 10.8-4.4 12.3-5 7.8-3.3 7.6-3 6.4-2.6 8.9-3.6 6.2-2.4 3.2-6.3 2.8-5.6 2.8-5.8 2.6-5.3 2.3-4.6 1-2.2.7-1.5 1.4-3 1.4-3 .8-1.5 1.5-3.2a616.3 616.3 0 0 0 17.5-41.5l.6-1.4.7-2 .7-2 .7-1.9.7-2 .4-1 .6-1.9.7-1.9.6-1.9.3-1 .6-1.8.6-1.9.3-.9.6-1.8.5-1.9.5-1.8.5-1.8.3-.9.5-1.7 1.5-6.1.5-1.7.3-1.7.2-.9.4-1.6.2-.9.3-1.6c2.6-13 3.5-24.6 2.6-34.6-2.2-22.4-13.7-35.6-37.2-39.6zm-891.2 120c-89.2-72.5-188-111.4-289-108.7-61 1.6-96.5 23-110.6 61.9l-.4 1.2-.2.5.3.5c11 18.3 20.8 40.7 29.5 66.4l.5 1.5a509.2 509.2 0 0 1 3.6 11.1l.8 2.8a557.5 557.5 0 0 1 3 10l.7 2.8a592.8 592.8 0 0 1 3.8 14.4l.7 2.8 1 4.4.8 2.8 1 4.3.6 2.9.6 2.8.6 2.9 1.4 7 .6 2.9.5 2.8 1 5.5.5 2.8.4 2.7c2 12.3 3.5 24 4.4 34.5v1.4l.2 1.4v1.3l.1 1.3v1.3l.1 1.2V584a34.8 34.8 0 0 1-3.9 17.4c-1.3 2.2-3 3.8-4.8 4.9h-.1l.5 1.2a947.9 947.9 0 0 0 3.4 6.8l.5 1 .2-.5a225.5 225.5 0 0 1 44.2-73.2l1.3-1.4c39-43.4 95-77 156-95 44.3-13 90.8-19 144.8-19.6h2.4l-1-.9zm-404.5-28.2v.5c-5.7 33.2.6 76 17.5 126a699.1 699.1 0 0 0 28.8 71l.6 1.1v-.1c.5-.7.9-1.7 1.2-3l.1-.5.3-1.8.1-.6v-.4l.2-.7V587l.1-.7v-1.6l.1-.9V576.5l-.1-1.2-.1-1V573l-.2-1.2v-.6c-.7-8.4-1.8-17.6-3.2-27.3l-.4-2.7a512.2 512.2 0 0 0-1.9-10.8l-.5-2.7a565.4 565.4 0 0 0-2.7-14l-.6-2.7-.6-2.9-.7-2.8-.6-2.8a593.2 593.2 0 0 0-2.4-10l-.7-2.8a560.8 560.8 0 0 0-7.5-26.8l-1-2.8a491.8 491.8 0 0 0-2.6-8.2 365.6 365.6 0 0 0-22.7-54.3l-.5-1zM502 328v1.2c-1 27.3 5.5 58.1 19 90.7 20.4 49.5 55.7 99.2 90.2 129.3l5.6 4.8 23.6 20.7 3.5 3.1 1 .8 1.3 1.2 1.3 1 1.3 1 .6.6 1.8 1.4 1.1 1 1.1.8 1.1.8.7.6-.7-1.6a686.2 686.2 0 0 1-22.5-57l-.6-1.6c-19.6-58.2-25.6-107.2-15.1-144.7l.2-.8c-8.1-12.6-16.7-22.6-25.6-29.7l-.7-.5c-19-14.7-50-22.2-86.8-23H502zM2087.6 363a157.6 157.6 0 0 0-16.7 12.6l-2.7 2.4-10.2 8.9-4.5 4-3.5 3-3.2 3-1.8 1.6-2.2 2-2.2 2-1 1-2.2 2-1 1-2 1.9-1.1 1-2 1.8-2 1.9-1.9 1.8-1 1-1.8 1.8-2 2c11.8-9 23.5-18.6 34.7-28.5l1.4-1.2c9.7-8.5 18.9-17 27.4-25.5l1.6-1.6zm-1308.2-247c-9-1.4-22.3.8-38.7 6l-1.8.7-.9.3-1.8.6-1.8.6c-2.7 1-5.6 2-8.5 3.2l-2 .8-1 .4-1.9.8-2 .8-2 .9-2 .8-1 .5-2.2.9-2 1-2.2.9-2 1-1.2.4-2.1 1-2.2 1-1 .6-2.3 1c-72.1 35.1-155.4 96.4-178 131.7a108.1 108.1 0 0 0-15.6 43.1l-.2 1.3h.5c39.7.8 72.1 9 93.3 25l.7.5a120 120 0 0 1 23.2 24.7l.7 1c17.2-39.3 56-61.2 117-63.2h2c78.4-2.2 155.2 20 227.3 62.6l1.8 1a80.6 80.6 0 0 0-26.2-23.4l-1.4-.9-1.5-.9-1.4-.9-1.6-.8-.6-.4-3.1-1.7-1.5-.9-1.4-.7-1.5-.8-1.4-.8-1.5-.7-1.5-.8-1.5-.7-1.6-.8-1.5-.8-1.1-.5-1-.5-1.7-.7-1.7-.8-1.7-.8-1.2-.5-1.8-.8-1.8-.9-2.6-1-2.6-1.2-2.7-1.2-2.1-.8-3.7-1.6-3.8-1.6-4.9-2-5.2-2-4.5-1.8-5.8-2.3-13.8-5.5-4.7-1.8-5.5-2.2-4.3-1.8-4-1.6-3-1.2-3.7-1.5-1.9-.8-2.6-1.1-1.8-.7-2.5-1.1-1.6-.7-2.4-1-2.3-1-1.5-.8-2.3-1-1.4-.6-1.4-.6-2-1-1.4-.6-2-1-2-1-1.2-.6-1.2-.6-1.2-.6-1.2-.6-1.2-.6-1.8-1-1.1-.6-1.2-.6-1-.6-1.2-.6-1.1-.7-1.1-.6-1-.6-1.2-.7-1-.6-1.7-1-.5-.3c-24.3-15-37-31-36-50 1.4-26.6 14.3-47.5 37.6-63.7l.8-.6.2-.5 2-5 .5-1.3.4-1.2.4-1.2c1-2.7 1.7-5.3 2.3-7.7l.2-1c1-5 1.3-9.2.8-12.6v-.3c-1.2-6-4.9-9.2-12.2-10.3zm626-97.6c-118.5-16.5-235.7 3.3-260.7 44.1-9 14.6-26.2 25.3-52.3 33.7l-1.7.6-1.9.5a271.4 271.4 0 0 1-5.6 1.7l-1.9.5-1.4.4-1.5.4-2.2.6-1.5.4-2.2.6-1.5.3-1.6.4-1.5.4-2.3.5-2.3.6-1.6.3-1.6.4-2.5.5-2.4.5-1.7.3-2.6.6-1.7.3-1.8.3-2.7.6-2.8.5-2.8.5-4 .7-2 .3-4.1.7-2.1.3-3.3.6-4.5.7-4.7.7-4.8.8-5 .7-6.7 1-5.5.8-10.3 1.5-21.4 3-10.3 1.5-4.5.6-3.6.5-3.7.6-3.5.5-3.5.6-3.5.5-3.3.5-3.4.6-1.6.3-3.3.5-1.6.3-3.2.5-3.1.5-3 .6-1.6.2-3 .6-1.5.3-3 .5-1.4.3-2.9.5-2.8.6-4.2.8-2.7.6-2.7.5-2.6.6-1.3.3-2.6.6-1.2.3-2.6.5c-20 4.7-36.4 9.9-51.2 16.2-8.8 3.7-16.6 7.8-23.5 12.1l-.5.4-.1.3-.7 1.5-.4.7c-8.2 17.5-6 32.5 6 47.6l.5.9.7.8a86.2 86.2 0 0 0 2.4 2.8l.8.8.3.4.8.8.8.8.8.8.4.4.8.8.4.4.9.8.8.8 1 .8.8.8 1 .8.9.9 1 .8.4.4 1 .8.5.4 1 .9 1.1.8 1 .8.6.4 1.1.9 1.1.8 1.2.9.6.4 1.2.9 1.2.8 1.2 1 1.2.8 1.3.9 1.3.9 2 1.3 1.3 1 1.4.8 1.4 1 2.2 1.3 2.2 1.5 1.5 1 1.5.9 2.3 1.4 1.6 1 1.7 1 2.4 1.5 2.9 1.7 3 1.9 5 3 6.5 3.7 17.1 10 3.3 2 3.8 2.1 3.6 2.2 2.6 1.6 2.6 1.5 1.6 1 2.5 1.5 1.6 1 2.4 1.5 1.5 1 2.3 1.4 2.2 1.4 1.4 1 1.5.9 1.4 1 1.4.8 1.3 1 1.4.9 1.3.9 1.3.9 2 1.3 1.2.9 1.3.9.6.4 1.2 1 1.2.8 1.2.9 1.2.9 1.2.8 1.2 1 1.1.8 1.1.9 1.2.9 1.7 1.3 1 .9 1.2.9 1 .9 1.1.9c17 14.3 29.3 28.9 36.7 44.7l.3.6.9-.4 1.1-.4 1.2-.5.9-.3.8-.4 1.3-.4.5-.2.9-.3 1.4-.5 1.5-.5 1.5-.5 1.6-.5 1.1-.4 1.7-.5 1.8-.5 1.2-.4 3.2-1 3.4-1 3.7-1 3.8-1 5.6-1.5 5-1.4 3.3-1 3.1-.9 2.4-.7 2.2-.7 1.6-.5 1.6-.5 1-.3 1.9-.6 1.3-.5 1.3-.4.9-.3.8-.3 1.2-.5 1.1-.4.8-.3.7-.3.7-.3.6-.2 1-.5 1-.4.5-.3.6-.3.6-.2.5-.3.5-.3.5-.3.3-.1.5-.3.2-.2.5-.3.5-.3.4-.2.4-.3.2-.2.5-.3.4-.3.2-.1a259.8 259.8 0 0 1 65.4-38.8 277.4 277.4 0 0 1 94.2-17.2h1l.2-.2a78.2 78.2 0 0 1 6.3-15.4l.3-.5.4-1.3.3-1.2.4-1.7.5-1.8.5-1.8.3-1.2.3-1.3.6-2.5.4-2 .3-1.3.6-2.8.6-2.9.7-3 .7-3.8.8-4 .5-2.5.9-4.3 1-5.5 1.2-6.7 2.6-13.8.5-3 .8-4 .7-3.9.7-3.7.7-3.5.7-3.5.5-2.5.5-2.4.5-2.4.5-2.3.5-2.3.4-1.5.5-2.2.5-2.1.5-2.1.5-2.1.5-2 .5-2 .4-1.4.5-2 .5-1.8.6-2 .5-1.9.4-1.2.6-1.9.5-1.8.4-1.2.6-1.8a149.5 149.5 0 0 1 29.7-54.9c13.6-15 31.6-25.4 53.9-32a253.5 253.5 0 0 1 73.4-8.7h11.9l3.3.1 3.4.1 3.6.1 3.7.1 4 .2 4.8.2 7.1.3 24.3 1.1 4.8.2 6 .2c2.6 0 5 0 7.5.2h2l-1.4-.5a505.2 505.2 0 0 0-97.6-23.4l-1.9-.2zM776.8 179.2l-.4.4a64.4 64.4 0 0 0-18 42.2c-.6 11.2 6 21.7 20 32.3l1 .8 3.8 2.7 1.2.8 3.6 2.3 1.1.7 1.5 1 1 .5 1.1.6 1 .6 1.1.7 1 .6 1.1.6 1.1.5 1.1.6 1.1.6 1.2.6 1 .6 1.3.6 1.1.6 1.2.6 1.8 1 1.3.5 1.2.6 2 1 1.3.6 1.4.6 2 1 1.5.6 1.4.6 2.2 1 2.3 1 1.6.7 2.4 1 2.5 1.1 3.5 1.5 3.6 1.5 3.8 1.5 4 1.6 3 1.2 5.4 2.2 6.8 2.7 12 4.8 6.6 2.5 6 2.4 4.8 2 4.5 1.8 2.6 1 3.3 1.4 3.2 1.4 2.3 1 2.2 1 2.2.8 1.4.7 2.8 1.2 2 .9 2 .9 1.8.8 1.2.6 1.9.9 1.2.5 1.7.9 1.8.8 1 .6 1.2.6 1.1.5 1.7.9 1.6.8 1.6 1 1.6.8 1.6.9 1.1.5 1.6 1 3.5 2 .2.1-.4-.4a200.6 200.6 0 0 0-3-2.6l-.8-.6-1-.9-1-.8-1.1-.9-1-.9-1.2-.8-1-.9-1.1-.8-1.1-.9-1.2-.8-1-.9-1.8-1.3-1.2-.8-1.7-1.3-1.2-.8-1.3-1-1.2-.8-1.2-.8-2-1.3-1.2-1-2-1.2-2-1.4-1.4-.9-2-1.3-1.5-1-1.5-.9-1.4-1-2.3-1.3-2.3-1.5-2.4-1.4-2.4-1.5-2.5-1.5-2.5-1.6-2.6-1.5-2.7-1.6-2.8-1.6-6.7-4-16.4-9.5-6-3.6-3.8-2.2-3.6-2.2-2.3-1.3-2.5-1.6-1.7-1-1.7-1-1.6-1-1.6-1-1.6-1-2.3-1.6-1.5-1-1.5-1-1.4-.9-1.4-1-1.5-.9-1.3-1-1.4-.9-1.3-.9-.7-.5-1.3-.9-1.3-.9-1.2-1-1.2-.8-1.3-1-.6-.4-1.1-.9-1.2-.9-1.1-.9-.6-.4-1-.9-.6-.4-1-1a162.5 162.5 0 0 1-1.1-.8l-1-.9-.6-.4-1-1-.5-.3-1-1-.9-.8-1-.9-.8-.9-.5-.4-.9-.9-2.1-2.2-.8-.8-.4-.5-.8-.9-.4-.4-.8-.9a90 90 0 0 1-1.5-1.8l-.7-.9a92.6 92.6 0 0 1-.7-.9 54.2 54.2 0 0 1-12.8-43l.1-.4zm951.3 25.9-1.2.2c-34.7 7-65.3 21.2-95 43l-1.9 1.4-2.7 2-1.8 1.4c-6.5 5-13 10.4-19.6 16.3l-1.8 1.6a435.4 435.4 0 0 0-3.6 3.3l-1.8 1.7a493.3 493.3 0 0 0-5.5 5.2l-1.9 1.8a570.7 570.7 0 0 0-3.8 3.7l-1.9 2-1.9 1.8-2 2-1.9 2-1 1-2 2-1 1-2 2.2-1 1-1.2 1.3.4-.2a642.6 642.6 0 0 0 56.6-26.7l1.1-.6 2.7-1.5 2.6-1.4 2.6-1.4 1.3-.7 2.6-1.5a583.7 583.7 0 0 0 11.4-6.6l2.4-1.4a538.5 538.5 0 0 0 5-3l2.3-1.5a497 497 0 0 0 8.3-5.3l2.3-1.5c5-3.2 9.8-6.5 14.4-9.8l2-1.6c9.9-7.1 18.8-14.3 26.7-21.6a209.4 209.4 0 0 0 10.9-10.7l.9-1zm-247-151.5-19.2-.9-7-.3-5.8-.2-3-.1-3.7-.2h-4.3l-2-.1h-2.7l-2.6-.1h-5l-3-.1h-3l-7.9.1c-52 1.2-88.1 11.7-110.6 36.6a138 138 0 0 0-27.2 50.6l-.6 1.8-.3 1.1-.4 1.2-.5 1.8-.4 1.1-.5 1.8-.4 1.2-.3 1.2-.5 1.8-.5 1.9-.3 1.2-.4 1.3-.3 1.2-.5 2-.3 1.3-.3 1.3-.3 1.3-.5 2-.6 2.9-.5 2.1-.5 2.2-.5 2.3-.6 3-.5 2.4-.5 2.5-.8 4.2-.6 2.6-.6 3.7-1.1 5.6-3.3 18.1-1 5.4-1 5-.7 4-.7 3.7-.6 2.7-.6 3c8.3-8.9 18.2-17.6 30-26.6l1.8-1.4 1.6-1.2 1.5-1.2 1.8-1.3 1.6-1.2 1.7-1.2 1.4-1 2.5-1.8 2.7-1.9 3.8-2.6 4.9-3.4 6.2-4.3a106.1 106.1 0 0 1 57.9-19.5c9.8-.4 19.8.5 31 2.6l1.7.3 1.9.4 1.8.4c3.8.8 7.7 1.7 11.7 2.8l2 .5 2.1.6c.4 0 .7.2 1 .3l2.2.6 2.1.6 4 1.2 9.7 2.9 2.8.8 1.2.3 1.2.4c4.3 1 7.6 1.7 10.8 1.9 7 .4 14-1.4 22.9-6.4l1-.6a112.7 112.7 0 0 0 3.3-1.8l1-.7 1.1-.7 1.2-.7.5-.4 1.2-.8.6-.4 1.2-.8 1.6-1 7-5 .7-.5 1.5-1c13-8.7 22.4-13 35.8-15 8.2-1.2 16.5-.8 26.4 1.1l1.4.3 1.4.3 1.5.4 4.6 1 1.5.5 2.4.6 1.7.5 1.7.5 1.7.5 3.3 1 3.4 1 11.2 3.6 3.4 1 1.3.4 2.1.6 2 .6 1 .3 1.8.5 1 .3 1.3.3 1.2.3 1.2.3 1 .2.5.1 3.5.7a59.2 59.2 0 0 0 17.5 1.1h.7l-.2-1.1c-6.6-39.9-32.8-73.4-75.6-99.6l-1.4-.9c-7.4-4.5-15.3-8.8-23.7-12.8l-1-.5h-.3c-12.8-.9-26.1-1.5-40-1.9l-4.6-.1-3.3-.1-6.2-.2-3.6-.2zM1858.3 660l-8 26.1-3 9.5-2.6 7.9-2.4 7.5-1.6 5.1-1.6 5-1.6 4.8-1.6 4.7-.9 2.7-1.2 3.6-.8 2.2 5.6-4.1 7.6-5.7 4-3 5.2-4 5-3.7 2.6-2 3.8-3 3.1-2.4 3-2.4 3.4-2.7 2.8-2.2 2.7-2.2 2.7-2.2 2.7-2.2 3.1-2.7 2.6-2.2 2.7-2.2 2-1.9.7-.5c12.7-11 24.2-22.1 36-34.6l2.2-2.3 2.2-2.3 1.4-1.5 1.5-1.6 1.5-1.6 1.5-1.7 2.3-2.5 1.6-1.7 2.4-2.7 6.1-7 10.6-11.9 3.6-4 2-2.3 3.4-3.7 1.9-2.2 2.5-2.7 1.8-2 1.2-1.3 1.8-2 2.4-2.4 1.7-1.8 1.7-1.8 1.6-1.7 1.7-1.7 1.7-1.7 1.6-1.6 1.7-1.6 1-1.1 1.2-1 1.7-1.7a428 428 0 0 1 7-6.6 384.3 384.3 0 0 1 95.3-63.9l.9-.4.6-.7 2.4-2.9 1.5-1.9 1.5-1.8c6-7.4 11.1-14.3 15.6-21l1.1-1.6c5-7.5 9.2-14.7 12.8-22.1l.4-.7c10.1-21 14.4-41.6 12.4-63l-.1-1-1.3 1a765.8 765.8 0 0 1-200.7 111l-2.4.9-12.6 4.7-2.5 1a2244.5 2244.5 0 0 0-19.8 7.6l-3.6 1.4-5.7 11.4-3 6-1.5 3.1-1.5 3.1-1 2.2-.7 1.7-.8 2-.9 1.9-.8 2-.8 1.9-1.3 2.9-1.2 2.9-1.1 2.9-.4 1-1.2 2.9-.8 2-1.2 2.9-.7 2-1.2 3-1.1 3-.8 2.2-.8 2-1.2 3.2-.7 2.2-.8 2.2-.8 2.2-.8 2.2-1.2 3.5-1.2 3.5-1.2 3.6-1.3 3.7-.8 2.5-.9 2.6-.9 2.6-.8 2.7-1.8 5.5-1.9 5.8-2 6-1.9 6.2-2 6.4-2.2 6.8-1 3.5zm-278.3 2.2 6.9-3.6 6.9-3.7 4.4-2.4 3.6-2 1.7-1 2.8-1.4 2.1-1.2 2.6-1.5 3-1.8 2.6-1.4 1.4-.8 1.9-1.2 1.9-1 12-7.3-.2-1.2c-5.8-32.8-24.4-62.4-57.1-88.5l-1.5-1.2a311.2 311.2 0 0 0-68.8-40.6l-.5-.2-1 .9a682.1 682.1 0 0 0-213.4 273.8l-1.8 4-1 2.3-1 2.4-1 2.5-1.1 2.7-1.5 3.6-1.8 4.6-.4 1 .3 1.5a542 542 0 0 1 12 74l.2 1.9c1.9 21.7 2.3 42.9 1.2 63.5v.7l.7.2a1213.2 1213.2 0 0 1 39.5 10.1l1.4.4 1-2a685.8 685.8 0 0 1 8.6-16.2l1.1-2 1.6-2.8 1.5-2.7 1.4-2.6 1.7-3 2.8-4.7 2.4-4.1 2.6-4.4 3.5-5.9 5.9-9.7 12-19.8 5-8.4 2.8-4.7 2.6-4.3 3-5.1 1.9-3.4 1.8-3.2 2-3.6 1.9-3.2.9-1.6 1.3-2.5 1.5-2.8 1.6-2.8.7-1.4.8-1.4 1.1-2.2.8-1.6 1.7-3.1 1.8-3.7 6.5-12.8 2.2-4.4 1.5-2.8 1.3-2.6 1.3-2.5 1.3-2.4 1.2-2.3 1.2-2.2 1.2-2 .8-1.6 1.2-2 .8-1.4.8-1.4.9-1.4.5-1 .9-1.3.8-1.4 1.2-1.8.9-1.4.5-.9a154.3 154.3 0 0 1 31.1-35.4l1.4-1.2 1.4-1.1 1.4-1.1 1.4-1.1.6-.6 1.4-1 1.5-1.1.7-.6 1.4-1 1.4-1.1 1.4-1 .8-.6 1.4-1 1.5-1 1.4-1.1.8-.6 1.5-1 1.5-1 1.5-1 .8-.6 1.6-1 1.5-1 .8-.6 1.6-1 1.7-1 1.6-1.1 1.7-1 1.7-1.1 1.7-1 1.8-1.1 1.7-1.1 1.9-1 1.8-1.2 1.9-1 1.9-1.2 1.9-1 2-1.2 2-1.1 2-1.2 3.1-1.7 2.2-1.2 2.1-1.2 2.2-1.2 2.3-1.3 2.3-1.2 3.5-1.9 3.6-2 3.7-2 5.2-2.7 1.3-.6 16-8.5zm397.3-38.7-13.7 15.5-3 3.3-2.4 2.8-1.6 1.8-2.4 2.6-1.5 1.7-1.5 1.6-2.3 2.4-2.2 2.4-2.2 2.3a517.9 517.9 0 0 1-38.4 37 775.5 775.5 0 0 1-8.2 7l-3.1 2.7-2 1.6-2.5 2-2.6 2.1-2 1.7-3.2 2.5-2.1 1.7-3.3 2.6-3.5 2.7-3.6 2.8-3.8 2.9-4.6 3.5-4.2 3.2-6 4.5-9.8 7.3-15.7 11.7-.2.5a791 791 0 0 1-5.8 15.3l-.7 1.7a787.6 787.6 0 0 1-4.2 10.5 450.5 450.5 0 0 1-53 97.5c-30.4 41.2-69.7 76.2-119 107.5a653.2 653.2 0 0 1-10.9 6.8l-.7.5-.3.6-2.4 6-.9 2.2h.3c12.4-2.7 25.4-8.7 39.2-17.9l.9-.5 1.4-1a218 218 0 0 0 5-3.5l1.5-1 .7-.6 1.5-1 1.5-1.2 3.6-2.9 1.5-1.2.8-.6 1.5-1.2.7-.6 1.6-1.3 1.5-1.2.8-.7 1.5-1.3 1.6-1.4 1.6-1.3 1.5-1.5 1.6-1.4 1.7-1.4.8-.8 1.6-1.5 1.7-1.5 1.7-1.6 1.7-1.6 1.7-1.6 1.7-1.6 1.8-1.7 2.7-2.6 3-2.8 2.5-2.5 5-5 13.6-13.4 3.4-3.4 1.6-1.6 3.1-3 1.5-1.4 1.9-1.8 1.3-1.3 1.8-1.7 1.7-1.5 1.6-1.5 1.6-1.5 1.2-1 1.2-1a1020 1020 0 0 0 78.8-77.7l3.2-3.5 3.3-3.6a1445.5 1445.5 0 0 0 10.8-12l4.5-5.1 3-3.5 3.6-4.1 3.7-4.2 4.9-5.7 3.7-4.4 4.5-5.2 4.5-5.4 4.7-5.6 3.5-4.1 6.4-7.8 6-7.3 7.2-8.6 8.5-10.4 31.7-38.8 11.5-14 6.9-8.4 5.9-7.1 5-6 5.6-6.7 2.5-3 1.2-1.4 4.1-5 1.5-1.7 3-3.6 3.5-4.3 3.6-4.4 3.8-4.7 4.4-5.6 5.9-7.4 9.4-12 13.4-17 7.5-9.5 4.4-5.5 4.6-5.8 3-3.8 2.5-3 3.3-4 3.1-3.8 2.7-3.2 3-3.6 1.7-2-.4.2a371 371 0 0 0-30.5 19.4l-1.8 1.4a372 372 0 0 0-34.6 28l-1.8 1.7-1.9 1.7-1.8 1.7-1.2 1.1-1.2 1.1-1.8 1.8-1.7 1.7-1.2 1.2-1.2 1.2-1.2 1.2-1.2 1.2-1.8 1.8-1.8 2-1.9 1.9-1.2 1.3-1.9 2-2.6 2.8-2 2.1-2 2.3-2.1 2.3-2.2 2.4-3 3.3-1.5 1.7-1.4 1.6zm-411.6-270.9-18.5 5-3.2 1-3.4.8-1.6.4-2 .5-1.7.5-1.3.3-1.3.2-1.1.3-1.1.2-1.1.2-1.7.4-2.6.5-2.6.4-1.3.3-2.5.4-1.3.3-2.5.4-1.2.2-2.5.4-1.2.2-2.4.4-11.6 1.6-2.3.3-8.8.9-2.1.2-2.1.1c-7.8.6-15.3.9-22.6.8a190 190 0 0 1-70.9-14.2l-.9-.4-.8-.4-1.3-.5-1.3-.6-.9-.4-1.3-.6-1.2-.5-1.3-.6-.8-.5-.9-.4-1.3-.6-1.2-.7-1.3-.6-1-.5-1.2-.7-1.4-.8-1.3-.7-1.4-.8-1.4-.8-1-.6-2-1.2-1.5-.9-1.5-1-2.2-1.3-2.2-1.4-2.3-1.5-3-2-3.3-2-3.4-2.2-7.3-4.8-3-2-2.8-1.7-2.6-1.7-2-1.2-1.8-1.2-1.8-1.1-1.8-1-1.2-.8-1.7-1-1.6-1-1.2-.6-1.5-.9-1.6-.8-1.2-.7-.8-.4-.8-.4c-11.4-6-21.9-9.9-32.4-11.8-12-2.2-24.6-3.5-37.5-3.9h-.7l-.3.7c-2.4 5.6-10 4.4-11.4-.6v-.1h-.5c-30.3.5-61.1 5.9-87.3 15.8l-1.3.5c-20 7.7-40.1 19.8-61.3 36.2l-1 .8a44.6 44.6 0 0 1-4.7 3.2l-.8.4a56.1 56.1 0 0 1-2.9 1.6l-.9.4-2.4 1.1-1 .4-1 .5-1.1.4-.6.2-1.1.4-.6.3-1.2.4a153.8 153.8 0 0 1-.6.2l-1.3.5h-.2.9c4 0 8.3.2 12.7.4l2.4.1h1.3l1.3.1 2.7.2 2.5.1 2.6.2 2.6.2 2 .2 2.8.2 2 .2 3 .2 2.1.2 3 .3 4.9.5 6 .6 24.6 2.6 5 .5 4 .4 5.8.5 33.1 2.5 8.6.6 6.5.5 6.3.5 6 .5 7.3.7 4.1.3 4 .4 5.3.5 3.8.3 3.7.4 3.6.4 3.6.4 3.4.3 3.4.4 2.2.3 3.3.4 3.3.4 3.2.4 3.1.4 3.2.4 3 .4 2.1.3 3.1.5 2 .3 3.1.5 3 .5 4.2.6 2 .4 3.1.5 2.1.4c45.3 8 85.1 20 123 38l1.5.8c26.5 12.7 50.4 15.8 74.1 10.7 2.6-.5 5.1-1.1 7.6-1.8l1.3-.4 3.8-1.2 1.2-.4 2-.7 1.2-.4 3.2-1.2 1.3-.6a157.1 157.1 0 0 0 4-1.6l1.3-.6 1.3-.6 1.4-.6 2-1 1.4-.7.7-.3 1.3-.7 1.5-.7 1.4-.7.7-.4 1.4-.8 1.5-.8.7-.4 1.5-.8 1.5-.8 1.5-.9 1.6-.8 1.5-1 .8-.4 1.6-1 2.4-1.4 1.7-1 1.7-1 1.6-1 1.8-1 2.7-1.7 17.2-10.9 3.8-2.3 3.5-2.2 2-1.2 2.7-1.6 2.5-1.5 2.5-1.5 1.2-.7 2.3-1.4 1.7-1 1.7-1 1.7-.8 1-.6 1.7-1 1-.5 1.6-.8 1-.6 1-.5 1.6-.8 1-.5 1.6-.8 1.6-.8 1.5-.7 1-.5 1.6-.7 1-.5 1.7-.7.5-.2a158.4 158.4 0 0 1 48.7-13.4l.9-.1c-9-12.3-32.7-13.8-69.8-6.4l-1.3.3-2 .4-2 .4-2 .5-2 .4-2.1.5-1 .2-2.2.5-2.1.6-2.2.5-2.2.5-2.3.6-3.5 1-2.4.5-4.2 1.2-3.2.8z"/><path d="M2198.1 1087.7c16.2 5.7 31.3 12 45.5 18.7l1.9.9 1.1-.2c39.3-4.6 78.1 5 119 31.3l1.4 1c64 41.6 90.7 140.5 59.5 208.2a6 6 0 0 1-10 1.4c-2.2-2.6-4-6.2-5.8-11.3l-.3-1-.4-1.1-.4-1.3-.4-1.3-.4-1.3-.3-1-.5-1.5-.4-1.7-1.9-6.6-2-7.5-.7-2.4-1-3.4-.6-2.2-.3-1-.7-2.2-.6-2-.3-1-.6-2-.6-2-.7-2-.6-2a359 359 0 0 0-.3-1l-.7-1.9-1-2.9-.6-1.9-.7-2a270.7 270.7 0 0 0-42.6-77.5 306 306 0 0 0-107.3-84.2l-.3-.1h-.5a163.4 163.4 0 0 0-7.5 1.3l-1.2.3a226.9 226.9 0 0 0-55 19.8l-1.8 1-1.8.9-1.9 1-1.8.9-1.3.6-1.8 1-1.3.7-2.5 1.4-2 1-1.8 1-2 1.2-1.3.7-2 1.2-1.3.7-2 1.2-2.2 1.2-2.8 1.7-3 1.8-3.7 2.3-4 2.4-4 2.5-4.3 2.6-4.5 2.8-19.2 12.1-6.6 4.1-4 2.5-4.5 2.8-4.2 2.6-3.5 2-1.6 1-2.7 1.6-2.1 1.2-2.6 1.5-1.5.9-2 1.1-1.4.8-1.5.8-2.3 1.4-1.5.7-2.3 1.3-2.4 1.3-2.5 1.3a273.1 273.1 0 0 1-60.9 24.3c-85 21.3-173.3 27.7-245.5 15-19.5-3.6-40.9-12.1-65-25.7l-2.3-1.3a414.2 414.2 0 0 1-3.4-2l-2.3-1.3a503.4 503.4 0 0 1-15.2-9.3l-2.4-1.6-2.5-1.6a633.2 633.2 0 0 1-2.4-1.6l-2.5-1.6a712.7 712.7 0 0 1-7.5-5l-2.1-1.5-2.5-1.8-1.7-1.1-3.4-2.4-2.5-1.8-2.6-1.9-3.5-2.5-2.7-1.9-2.7-2-2.7-2-3.7-2.7-1.9-1.4-2-1.4-2.8-2.2-4-3-3-2.3-4.3-3.2-41-31.4-8.2-6.3-3.7-2.8-2.2-1.7-1.9-1.4-1.8-1.3-2.7-2-2.6-2-1.7-1.2-2.5-1.8-2.5-1.8-2.4-1.7-1.6-1.1-2.3-1.7-1.5-1-2.3-1.6-1.4-1-1.5-1-1.4-1-1.4-1-1.4-.8-1.4-1-1.4-.8-1-.7h-.2a6 6 0 0 1-4.1-1.8l-.2-.2a6 6 0 0 1-.8-1.3l-.1-.1-1.3-.8-1.2-.7a6 6 0 0 1 6.2-10.3l1 .6 1 .7.8-.6c25.3-16.7 84.6-26.2 172.1-31.2l3-.2 4-.2 4.2-.2 6.2-.3 4.2-.2 4.3-.2 6.4-.3 4.3-.2 4.3-.1 4.4-.2 4.5-.2 4.4-.1 4.5-.1 4.6-.2 4.6-.1 4.6-.1 4.7-.2h4.7l8-.3 8.7-.2 8.9-.1 49.4-.8 6.5-.2 6.2-.1h3l2.6-.2c144.3-5.5 258.3 8.6 345.7 39.4zm68.1 30.3 1.6.9a308.6 308.6 0 0 1 92.8 77.7 282.6 282.6 0 0 1 44.4 80.9l.7 2 .7 2 1 3 .7 2 .3 1 .6 2 .7 2 .6 2 .7 2 .6 2.2.6 2.1.7 2.2 1 3.4.6 2.4 1.3 4.5 3 10.8.6 2.3.4 1.1.4 1.5.5 1.6.2-.6c19.6-60.8-5.1-142.1-58.7-178.4l-1.7-1.2c-32.5-21.2-63.2-31.1-93.8-31.4h-.5zm-72-19c-85-30-196.2-43.8-337-38.9l-6.3.3-5 .1-5.5.1-7.2.2-37.4.6-7.8.1-12 .2-8.6.2-5.7.1-7 .2-7 .2-4.6.1-4.5.2-4.5.1-6.7.2-4.4.2-6.6.2-4.3.2-4.2.2-6.4.3-4.2.2-4.2.2-4.1.2-4.1.2-4.1.2-5 .3c-16.2 1-31.4 2-45.6 3.4l-4.3.3c-53.2 5-91.2 12.7-110.2 23l-.1.1 1.6 1.1 1.5 1 1.6 1.1 1.6 1.1.8.6 2.4 1.7 2.5 1.7 1.7 1.2 2.6 1.9 1 .6 2.6 2 1.8 1.3 2.8 2 3.8 2.9 3 2.2 3.8 2.8 7.4 5.6 12.8 9.9 30 23 4.3 3.2 5 3.9 4 3 3 2.1 2.8 2.1 2.8 2 3.6 2.8 2.7 2 2.6 1.9 2.6 1.8 2.6 1.9 2.6 1.8 2.5 1.8 2.5 1.7 1.6 1.2 2.5 1.7 2 1.4 2.5 1.7 2.4 1.6 3.6 2.4 2.4 1.6 2.4 1.5 2.3 1.5 1.2.8 2.3 1.5a514 514 0 0 0 5.7 3.5l2.2 1.4 1.2.7 2.2 1.3c27 16 50 26 70.5 29.6 70.4 12.5 157 6.2 240.5-14.8a261.5 261.5 0 0 0 58.2-23.2l1.2-.6 2.2-1.2 2.8-1.5 1.8-1 1-.5 1.8-1 2.8-1.6 1.9-1 2.9-1.7 1.4-.9 2.5-1.5 3.1-1.8 2.7-1.6 3.3-2 4.7-3 3.8-2.2 5.3-3.4 8.8-5.5 12.7-8 4.6-2.9 2.7-1.6 4.3-2.7 3.4-2 2.4-1.5 3.1-2 3-1.7 3-1.8 2.2-1.3 2.1-1.2 2.1-1.2 2-1.2 2.8-1.5 2-1.2 2.6-1.4 1.3-.7 1.3-.7 1.3-.7 2-1 2-1 1.8-1 2-1 1.2-.7.7-.3c17.9-9 34.6-15.5 51-19.6l1.1-.3a473.1 473.1 0 0 0-28.6-11.3l-2.2-.8z"/></g></svg>