<svg xmlns="http://www.w3.org/2000/svg" viewBox="0 0 5076 3510"><path d="M4919.7 446.3c-23.4 0-42.8 5.8-55 17.3-21.5 20.4-27.4 66.3-14.7 114.3 10 38 33.9 81.7 70.8 90.7a67 67 0 0 0 28.3.3c8.3-5.7 16.3-11.4 24-17.2 51-38.4 82-75.8 88.5-106 1-7.4 1.1-14.7.2-21.7-6.3-27.1-42-55-89-69.2-18.8-5.7-37-8.5-53.1-8.5zM3549.9 330.5c-.5 173.3 67 385.6 171.5 524.5l10.6 14.3c44.4 60 126.8 171.5 215.3 159.2 47.1-6.5 88.8-46 123.8-117.2 36-73 51-151.2 54.7-173.5 8.2-48.7 27.4-162.7-31.3-276-53.1-102.1-161.7-186.5-283.4-220-82.6-22.8-159.7-17.4-211.5 14.6-8.4 5.2-21.3 13.2-49.7 74.1zm111.4 1302.9c-26.6 0-64.5 12.3-105.6 35.3a493 493 0 0 0-140.7 118.7c-42.7 53.8-63.6 108.8-60.3 159.2 3.9 59.3 40.8 119.4 104 169.4a408.4 408.4 0 0 0 62 40.3c17.7-40.5 35.3-80 52.2-117.9 47-105.4 87.7-196.4 110.7-267 24-73.5 25.6-116.4 4.9-131.1-6.6-4.7-15.9-7-27.2-7zm-194.7 686c-38.8 97.8-74.3 198.8-98.4 296-15.6 62.8-25.7 121-30.5 174.5a1035.5 1035.5 0 0 1 114-203.7c64-89.8 131.4-158.3 185.6-213.3 59.1-60 101.8-103.3 89.2-126.8-15.7-29.2-101.7 6.9-220.7 56.8l-39.2 16.4zM533.1 1818.4c5.8 0 9.7 1.5 12 4.3 6.3 7.6-1.7 17.2-4.7 20.8-5.2 6-13.3 13.9-23.6 23.8-35.8 34.4-95.8 92-147 186.7-61.7 114.2-76.3 194.1-91.9 278.7-14.1 76.9-30.1 164.1-83.8 288.8-46.5 108.1-93.6 175.4-128 224.6-41.2 58.9-64 91.4-47.8 138.8 18.7 55 70.2 76 141.5 104.9 18.8 7.6 38.7 15.6 59.5 25a341.1 341.1 0 0 1 49.6-104.3c24.9-35.8 57.2-70 98.8-104.2 77-63.6 172.3-116.7 273.3-173 142.6-79.6 269.3-128 385-168.5 1.3-.5 144.2-52.8 272.4-88.1 52.8-14.6 171.2-18 362.1-10.7 164 6.4 352.2 19.5 518.2 31 130.4 9.2 243 17 313.7 19.4 20.3.7 40.4 1 60.3 1 379.8 0 696.9-122 903.8-208 19.1-48 39-95.2 59-141.2a422.3 422.3 0 0 1-64.9-42.1 330.9 330.9 0 0 1-75.5-82.1 206.4 206.4 0 0 1-33.4-96.7c-7.5-115.3 102.4-231.2 207.7-290 65-36.4 119.8-46.7 146.6-27.7 14.4 10.2 20.9 28.2 19.8 55-.9 23-7.4 52.6-19.9 90.8-23.2 71.2-64 162.5-111 268.2a14820 14820 0 0 0-52.5 118.6c67 32.9 140.7 46.8 202.7 36.3 140-23.7 222.2-169.8 266.5-288.2 49.6-132.4 68.9-276 68.1-323.3-.8-53.4-5.9-96-6-96.4a930.8 930.8 0 0 0-10.9-65c-8.8-45.5-17.2-88.4-15-175 3.3-134.6 6.8-273.8 98-356.6 14-12.7 28.1-22.7 81.7-36 53.8-13.2 145.2-29.2 305.8-53.6 45.9-7 80.3-12 107.9-16 78-11.5 92-13.5 123-23.7a820.5 820.5 0 0 0 173.5-81.9c-3.4-.3-6.7-.9-10-1.7-42.4-10.3-69.3-58.4-80.3-100-14.1-53.3-6.9-103.1 18.4-127 28.6-27 81.2-23.9 120.8-11.8a212.5 212.5 0 0 1 49.7 22 466 466 0 0 0-41.8-32.2c-54-38.2-93.7-49.9-180.9-75.6-19.1-5.6-40.8-12-65.3-19.5-188-57.4-228-83-249.6-96.7-34-21.7-50.4-37.2-66.3-52.1-13.7-13-27.9-26.3-53.8-44-63.1-43.3-153.8-75.2-269.5-95-112-19.2-200.3-34.3-272.3-36.1-75.5-2-128.2 11.3-170.7 42.9-53 39.4-87.9 107-100.7 195.4a532 532 0 0 0-4.6 47.9l3-5.8c18.3-33.6 29.3-42.2 39-48.2a217.1 217.1 0 0 1 102.1-30.1c37.5-2.3 77.7 2.4 119.7 14a501.7 501.7 0 0 1 166.8 82.7A434 434 0 0 1 4106 456c60.8 117 41 234 32.6 284a689.9 689.9 0 0 1-55.8 177 312.3 312.3 0 0 1-55.7 82c-24 24.3-50.2 38.5-78 42.4-96.1 13.4-181.6-102.2-227.5-164.4l-10.6-14.2c-59-78.4-108.7-183-139.9-294.3a907 907 0 0 1-33.8-209.7c-14.7 34-32.7 80-55 142.3-42.9 119.8-72.5 218.4-110 343.3-10.6 35.4-21.6 72-33.9 112.4-49 161.2-66.2 217.4-73 226.2-33.8 43-75 69.8-137.9 89.2-60.4 18.8-140.3 30.8-251 47.5-80.8 12.2-181.4 27.4-303.1 49.7-74 13.5-102.8 19.9-130.5 26-26 5.8-50.4 11.3-109.6 22-322.5 58.1-514 62-683 65.5-167.7 3.4-312.5 6.4-540.6 62.4a1765 1765 0 0 0-299 99.6c-78.7 33-153 64-301.3 92.5l-4 .7c-46.4 8.9-142.8 27.2-241.6 94.3-40 27.1-133.7 90.7-181.6 213-45.8 117-24 221-15.7 260.3 8.7 41.5 24 88.1 41 124.7 19.4 41.7 34.2 55.3 39.4 54.3.6-.2 3.7-1.5 4.8-16.3 1-12.6 0-30.4-1-53-1.8-37-4-83.1.2-135.3 5-62 17.8-116.9 39.2-167.6 42.8-101.1 119.4-171.9 176.1-213.4 63.4-46.4 128.3-75.3 159.5-80 2.8-.4 5.2-.6 7.4-.6zM3322 2871a961.1 961.1 0 0 0-15.4 53.7c-22.7 89-70 274.3 30.4 377.9 69.9 72 198.4 89 283.7 68.1 32-7.8 53.4-20.3 57.4-33.5 5.5-18.2-31.6-37.7-78.5-62.3-60.8-32-144-75.7-199.5-150-53-71-76-158-78.1-254zM228.1 3133l-1.6 7.3c-12.7 62.8-7.5 120.7 15.6 172 49.6 110.7 179.1 173.8 255.2 183.3 26.7 3.3 46.8.1 53.8-8.6 10-12.7-.8-46.2-29.7-92a838.6 838.6 0 0 0-98-123.5A634.7 634.7 0 0 0 228.2 3133zM516.5 3510c-6.4 0-13.4-.5-20.8-1.4-44-5.5-97.7-26.3-143.5-55.7-39.3-25.3-92.4-69.2-122-135.2a274.1 274.1 0 0 1-23.4-111 345.2 345.2 0 0 1 9.2-79.2c-21.3-9.5-41.8-17.8-61-25.6-71.7-29-128.4-52-149-112.7-18.3-53.7 7.2-90.1 49.5-150.5 34-48.7 80.6-115.3 126.7-222.2 53-123.4 68.3-206.1 83-286 15.7-85.7 30.5-166.6 93.2-282.6 52.1-96.4 113-155 149.4-189.9 10.8-10.4 21.9-21 25.5-26.5-5.5 0-19.2 2.2-44.7 12.6a543 543 0 0 0-95.3 51.9c-62.3 42-146 114.5-191.2 221.5-47.4 112.3-42 223.6-38.4 297.3 1 23 2 41.1 1 54.6-.6 7.6-1.9 25.3-15.3 28-15.2 3-33.2-17.6-53.6-61.5a625.8 625.8 0 0 1-42-127.5c-8.5-40.3-31-147.2 16.3-267.8 49.3-126 145.4-191.2 186.4-219 101-68.5 199.2-87.2 246.4-96.2l4-.8c147-28.1 220.7-59 298.8-91.7 71.5-29.9 152.5-63.8 301-100.2 229.4-56.4 375-59.4 543.4-62.8 168.5-3.4 359.4-7.3 681-65.3 58.8-10.7 83.2-16 109-21.8 27.8-6.2 56.7-12.7 131-26.2 121.8-22.3 222.6-37.5 303.5-49.7 222.3-33.6 314.4-47.5 380.5-132 5.8-7.7 33.1-97.5 70.9-221.9l33.9-112.3c37.5-125 67.2-223.9 110.2-344 26.2-73.2 48.2-129 66.7-169 .3-27.2 2.2-53.4 5.7-78 6.5-44.5 18.2-84 35-117.5 18-36 41.9-65 70.9-86.5 45-33.5 100.1-47.5 178.8-45.5 72.8 1.8 161.7 17 274.1 36.3 117.6 20 210 52.7 274.6 97 26.8 18.4 41.4 32 55.5 45.3 16.1 15.2 31.4 29.6 64.3 50.6 21 13.4 60.2 38.4 246.4 95.3 24.4 7.4 46 13.8 65.2 19.4 85.9 25.4 129 38 184.7 77.5 36 25.4 76.7 54.3 82.7 100.2 2 8.8 1.7 18.1-.6 28-5 33.4-25.5 69.1-56.5 96.8a144.4 144.4 0 0 1-63.2 34.4 828.6 828.6 0 0 1-196.1 96c-32.1 10.7-46.3 12.8-125.2 24.3-27.6 4-62 9-107.9 16-328.1 49.8-355 63.2-380.6 86.4-87.2 79.1-90.6 215.5-93.9 347.4a680 680 0 0 0 14.9 172.2c3.9 20 8 40.8 11 65.8.2.5 5.3 43.6 6.1 97.8.7 43.3-15.8 186.2-69 328.1-29.2 78.3-64.8 142.6-105.6 191-49.7 59.2-107.2 94.7-170.8 105.4-45.4 7.7-96.8 3.3-148.8-12.8-21-6.5-41.5-14.7-61.3-24.4-18 41.6-36.2 84.5-53.8 128.2l27.4-11.5c65.9-27.6 118-49.5 157-60.5 30.3-8.6 66.8-15.3 80.2 9.5 10.6 20-3.1 42.8-16.3 60.5-16.7 22.4-42.5 48.5-75.1 81.7-95.2 96.6-233.3 236.6-311.5 450.2-4 118 21 212.2 75.3 284.9 53.7 71.8 135.5 114.8 195.2 146.2 54.2 28.5 93.4 49.1 84.8 77.6-5.4 18.2-29.1 33.2-66.7 42.4a365.5 365.5 0 0 1-149 1.7c-42.4-8.1-102.5-27.4-147.2-73.5-105.4-108.8-57-298.8-33.6-390.1 8-31.2 17.4-61.8 28.3-91.8 5.7-156.7 60.9-333.8 127.6-503.4-99.7 41.3-225.2 90.5-368.3 129.8a2135.5 2135.5 0 0 1-276.9 57.2 1857 1857 0 0 1-312.6 16.2c-71-2.4-183.7-10.3-314.2-19.3-320.5-22.4-759.5-53-876-20.9a4074 4074 0 0 0-271.4 87.8c-115.2 40.4-241.3 88.5-383 167.6-190.2 106-370.2 206.4-416.1 375.6a647.5 647.5 0 0 1 201.5 142.3c36.5 38 74.7 86 99.6 125.6 33.4 53 43.1 89 28.8 107-7.7 9.7-23.3 14.8-44.7 14.8z" fill-rule="evenodd"/></svg>