<svg xmlns="http://www.w3.org/2000/svg" viewBox="0 0 267 378"><path d="M250.8 144.8c-8.5-2.5-18.2-5-26.7-6a13.9 13.9 0 0 0-1.6 0c-3 0-6.2.8-9.1 1.5-3 .7-6.2 1.5-7 .7-.3-.3-.2-1.1 0-1.7.4-1.9 8-3.8 10.9-4.5l1-.2c5-1.3 13-1.8 17.5-.1 5.7 2 10.6 5.4 15 10.3zm-81.2 23.3a18.3 18.3 0 0 1 1.9-2c-.1.7-.8 1.3-2 2zM227 157a161.4 161.4 0 0 0-7.4-.3c-6.5-.6-9.4-1.8-9.8-2.7-.1-.1-.2-.3 0-.7.5-.8 1.7-1.1 3.1-1.1 3.4 0 8.4 1.7 10.7 2.8a27.4 27.4 0 0 1 3.4 2zm8.8 1.4c-2-.7-4-1-6.1-1.2a32.6 32.6 0 0 0-5.5-3.5c-2.5-1.2-13.1-5.2-15.5-1.1a2 2 0 0 0-.2 2c1 1.8 4.6 3 11 3.5l4.9.2c1.6 0 3.1 0 4.7.2l5 4.2 2.7 2.3 1.7 1.4c4 3.2 9 7.3 10 12.4.8 4.7-2.3 8.8-5 12.4l-1 1.5-1 1.1c-3 4.3-6.3 8.7-8.1 13.9-1.8 5 0 11.8 1.4 17.6-2.8-2.7-6.3-4-8.4-4.6a57 57 0 0 0-18-2.8c-2 .1-4 .6-5.8 1a55 55 0 0 1-3.6.7c-2.7.5-5.9 1-8.1 2.8-2.3-8.3-3-16.1-2.5-23.2.2-1.8.6-4 1.1-6.2 1.2-5.2 2.5-11.1.3-15.6-1-2-2.4-3-4-3-4 .3-8.2 7.4-9.2 10.2a34.3 34.3 0 0 0-.7 20.8c1.3 4.3 3.5 8.3 5.6 12.2 1.3 2.3 2.6 4.7 3.7 7.1-5.4-1.4-9.7-2.3-14.3-2.9-10.5-1.3-9.5-22.3-9-28.7.7-6.6 1.9-15 5.4-21.5a9 9 0 0 1 1.4-1.2l.8-.6c1.7-1 4.4-2.7 3-5.3a.7.7 0 0 0-1-.3c-2.2 1.8-4 4-5.3 6.6a17 17 0 0 0-2.4 3.8l-4 7.6c-2.8 5-5.6 10-7.7 15.5l-1.6 3.8a47.4 47.4 0 0 0-3.4 10.5l-1 4c-.6 2.4-1.3 5-1.3 7.6-3.4-5.1-6.8-9.9-9.7-14-3.9-5.3-4.6-9.6-2.7-15l.4-1.2c1.8-5 3.7-10.4 6.6-14.5 2-3.1 5-4.9 8-6.8 1.4-.9 3-1.8 4.4-3 2-1.5 3.9-3.3 5.7-5 2-2 4.1-4.1 6.5-5.8a.7.7 0 0 0-.2-1.2c-4.9-1.5-7.7-1.7-11.9 1.1a81.5 81.5 0 0 0-16.6 14.1c-2.5 3-3.8 5.8-5.1 9.6l-.7 1.8c-.7 1.9-1.5 4-1.7 6a63.8 63.8 0 0 1-10.1-21.6 30 30 0 0 1 2.5-21.9 72 72 0 0 0 9.3 2c12.2 1.6 27.6.3 37.4-13.2 31.1 9.2 42 39 49.5 59.4 3.3 9.1 6 16.3 9.4 18.8a.7.7 0 0 0 1-.2.7.7 0 0 0-.2-1c-3.1-2.2-5.7-9.2-9-18-7.4-20.6-18.4-50.7-49.8-60.2 1.4-2 2.6-4.4 3.7-7 3.7-13.1 10.2-21 19.3-23.8 16.9-5 37.8 9.2 43.9 14.5 8.7 7.7 14.8 18.3 20.7 28.6l-2-.5a39 39 0 0 0-17.1-12.4c-5.5-2-14-1-18.4 0l-1 .3c-5.7 1.4-11.3 3-12 5.4-.3 1.4-.1 2.5.5 3.1 1.4 1.4 4.5.6 8.3-.4 3.4-.8 7.1-1.7 10.3-1.4 9 1 19.6 3.9 28.5 6.6a58.5 58.5 0 0 1 2.2 2.7 70.3 70.3 0 0 1 9.5 26.3 57.4 57.4 0 0 0-28.4-17.4zm-114-14.5c6.3-7.6 18.1-11.3 34.9-11 3.1.4 6 1 8.8 1.7-9.5 12.5-24.2 13.7-35.8 12.2a70 70 0 0 1-8.7-1.8l.9-1.1zm-13.3 79c2.6 5.9 3.2 11.4 1.5 14.9a6.2 6.2 0 0 1-4 3.4c-1 .3-2 0-3-1-4.5-4-7.9-17.1-7.8-27.6 6 2.5 11.4 5.8 13.3 10.2zm-43.1 91c.4-2.2.9-4.4 1.2-6.7l.2-1.2c.3-2.5.6-5.7 2.5-7.2.7-.5 1.2-.8 1.8-.8h.5c1 .4 1.9 1.4 2.4 3 3.1 8.5-2.8 16.7-10.1 22.8.1-3.4.8-6.6 1.5-10zm26.8-12.5c-.5-2-1.1-3.9-1.9-6a37 37 0 0 1-2.8-12.8c0-1.8.5-3 1.1-3h.2c1.6 0 4.8 3.5 5.7 6.1 1.8 4.6 1.4 9.5 1 14.3a148.1 148.1 0 0 0-.2 3.2 149 149 0 0 1-1 11.2c0-4.4-1-8.7-2-13zM115 274a58.2 58.2 0 0 0-2.1-1.3c-3-1.9-6.8-4.2-7.5-7.2-.2-.7-.3-1.6.2-2l.8-.1c1.2 0 3.3.8 4.6 1.8a19 19 0 0 1 6.5 10.8 21.8 21.8 0 0 0-2.5-2zm5.7-36.7-3.5 1.5c6.9-5 13.6-7.6 20-7.6a23.8 23.8 0 0 1 5.3.6c-7 .4-14.3 2.2-21.8 5.5zM107 246l-37.2 39.3c9.1-11.8 24-29.3 29-33.4a75.6 75.6 0 0 1 8.3-6l-.1.1zM90.4 108.2a197.4 197.4 0 0 1-2-3.2 629 629 0 0 1 2 3.2zM108.3 85c-5 2.9-10.7 5.7-12.4 4.8-.1 0-.4-.2-.4-1 0-2.3 7-3.2 12.8-3.8zm-6-19c0 .4-.2.8-.4 1.3-1 3.2-2.1 6.5-4.8 8.5-1.7 1.3-3.3 1.8-4.3 1.3-1-.4-1.2-1.6-1.3-2.6-.4-6.1 5-7.8 10.9-8.6zM84.5 54.6c-2.5 3.7-5.3 7.4-7.1 7.8l-.7-.1c-1-.8-1.6-1.6-1.5-2.3.4-2 4.9-4 9.3-5.4zM39.3 11.4l1.8.6c1.8.6 3.6 1.1 4.6 2.1 1.6 1.6 1.8 4.2.8 5.5-.7 1-1.8 1-3.3.2-2-1-3.1-5.2-4-8.4zm1 46.4c2.4-.7 4.6-1 7-.7 2 .3 3.4 1.2 3.7 2.3.2.8-.1 1.6-1 2.2-1 .9-3.2 1.2-5.9-.4a16 16 0 0 1-3.4-3l-.4-.4zM43.7 80c5.3-3.1 11.1-6.2 14.6-3.7 1.1.8 1.6 1.8 1.5 2.9-.1 1.6-1.8 3.4-3.9 4.3-4.6 2-8.5-.5-11.5-3a32.3 32.3 0 0 0-.7-.5zm9 20.6c4.1-3.3 8.1-6.2 13-7.1 3.1-.6 4.1-.1 4.4.3.5.6.2 1.7-.1 2.6-1.5 3.7-8.4 5.2-12.5 5-1.7 0-3.2-.4-4.8-.8zM43 128.4a26 26 0 0 0 2.3-1.7l2.3-2c3.3-3.2 8.8-8.4 12.7-8.2 1 0 1.9.4 2.6 1.2 1 1 1.2 2 .8 3-1.5 3.9-11.2 7.2-14.3 7.4a54.7 54.7 0 0 1-6.4.3zm54.9 6v-.3c.5-3.4.1-5.6-1.1-6.5-.9-.7-2-.7-3.4-.1-1 .4-1.5 1.2-1.4 2.2.2 1.5 1.8 3.3 4.3 5.4-1.7 9.3-8.7 24.1-12.2 25.5-4.5 1.8-20.1.5-27.7-3.8-2.1-1.2-3.4-2.5-3.8-3.9 4.5-2 25.8-13 26.3-17.5.3-2.7-.1-4.3-1.4-5-3.2-1.5-10.3 5.6-12.4 7.8-10 10.5-18.4 11.5-29 3.4a26.7 26.7 0 0 1-7.2-9c4 .1 8.2-1 11.8-3 3 .2 6 .2 8.9 0 2.6-.3 13.5-3.4 15.4-8.3.4-1 .5-2.7-1.1-4.5-1-1-2.1-1.6-3.5-1.7-4.5-.2-10 5-13.7 8.5l-2.3 2a24.8 24.8 0 0 1-4 2.6c-4.8-.3-9.9-1.2-15-2.6a.7.7 0 0 0-.8 1 97 97 0 0 0 2 4.5 14 14 0 0 1-4.5-1.4c-5.5-2.8-8.9-9.8-11.8-16l-1.4-2.9a53.5 53.5 0 0 0 30.6-1.7 43 43 0 0 0 12-7.5c2 .6 3.9 1.1 6 1.2 3.7.1 12-1.1 13.9-6 .7-1.7.6-3 0-4-1-1-3-1.3-6-.7-5.4 1-9.9 4.5-14.2 8a100.9 100.9 0 0 1-2.5-1c-1.8-.6-3.6-1.3-5.6-1.8-5-1.2-9.6-.5-14.5.3l-1.2.2c-12.5 2-18.5-1.3-23-12.8a79.7 79.7 0 0 0 29.5-.3c2.4-.4 5.4-2.1 8.6-4l1.1.9c3 2.5 7.6 5.6 13 3.2 2.2-1 4.5-3 4.7-5.5.1-1.1-.1-2.7-2-4.1-4.4-3.1-10.9.5-16.7 3.8-6.2-4.4-11.9-4.9-19-5.4a216.7 216.7 0 0 1-4.6-.4c-7.5-.7-12-2.5-14.6-5.7-2-2.6-3-6.2-2.6-11 6.4 3.2 14 5.2 22.1 5.8 4.2.3 8.1-1.2 12-2.7l3-1.3.8.8c1.2 1.2 2.3 2.5 3.8 3.4 3.3 1.9 6 1.3 7.5.2 1.2-.9 1.8-2.3 1.5-3.6-.5-1.7-2.2-3-5-3.4-2.7-.4-5.5.1-8.1 1a12 12 0 0 0-2.6-2 19.2 19.2 0 0 0-8.8-1.6A95.3 95.3 0 0 1 26 53c-7.1-.4-13.6-2.2-20.4-4l-2.6-.8c-.7-2.8-.6-4.7.3-5.8 1.4-1.7 5.1-1.2 8.7-.8l3 .3 6.4.7c5.4.7 11 1.5 16.6.5a.7.7 0 0 0 .6-.8c-.4-9.1-10.5-9.2-17.3-9.3a156 156 0 0 1-1.6 0h-.9c-2.6-.1-5.7-.2-7.6-1.8-.9-.7-1.3-1.7-1.7-2.7-.5-1-1-2.3-2-3 1.2-.6 2.2-1.3 3-2 1.7-1.1 3-2 6.2-1.1l3.2 1.4c3.4 1.8 7.7 4 10.1 2 1.3-1 1.9-2 1.7-3-.5-2-3.8-3-6.8-3.7l-2.6-.9c-1.3-1-2-2.4-2.9-4-.6-1.2-1.2-2.3-2-3.3 4.6.1 6.4-1.4 9.7-4.2l1.2-1c2.1-1.8 3.8-2.6 5-2.2.6.1 1.3.6 1.8 1.4-.5 1.4-.5 2.5 0 3.6a5 5 0 0 0 2.5 2.2l.2.8c.9 3.6 2 8.1 4.6 9.6 2.1 1.1 4 .9 5.1-.6 1.4-1.8 1.3-5.2-1-7.4a13.1 13.1 0 0 0-5-2.4c-1-.3-2-.6-2.8-1l-.6-2a23.7 23.7 0 0 0-.6-1.5 6.7 6.7 0 0 0 4-.2 6.6 6.6 0 0 0 3.8-3.7c8 4.4 9.3 7 8.6 16.8-.2 2.4.7 6.6 3 8 1 .6 2.4 1 4.4-.3 3-1.9 2.6-7.5 2.3-11v-.7c-.4-4.5-1.4-9.4-5.8-12.3 4.3-2.6 9-1.5 13 3.1 4.3 5 2.4 11.5.2 16.8l-.8 1.8c-2.3 5.1-6.1 13.7 1 17 2.3 1 4.5 1 6.4-.1 3.3-2 5-6.7 5.2-10.2.3-6.1-.2-13.1-1.7-20.8 6.7-2.2 12.5-2.2 15.8.3 2.3 1.7 3.4 4.7 3.2 8.8-.2 3.4-1.7 6.7-3.2 9.8l-2 4.5a92.4 92.4 0 0 0-1.2 3.4c-1 3-2 6-3.8 8.6l-1.8 2.8-2.6 4.2c-6 1.9-11.3 4.1-11.8 7-.3 1.3.4 2.5 2 3.7.5.4 1.1.5 1.8.3 2.5-.5 5.7-4.7 9-9.8a164.3 164.3 0 0 1 5-1.4c2-.5 2.9-.8 3.3-1A31.9 31.9 0 0 0 110 23.9c5.2 1.6 8.2 3.9 9.3 7 2.1 6-4 14.5-9.3 22-3 4.2-5.7 8.2-7.1 11.5-6.5.8-13.3 2.7-12.8 10.2.2 2.4 1.3 3.4 2.1 3.8 1.5.7 3.6.2 5.8-1.4 3-2.3 4.1-5.8 5.2-9.3l.7-2 3-.2c2.9-.3 5.3-.5 7-1a27.5 27.5 0 0 0 17-21.3c7 7.3 7.6 14 2 20.6a109.1 109.1 0 0 1-22 19.6c-7.8.7-16.7 1.4-16.8 5.4 0 1.3.6 2 1.1 2.2 3 1.6 11.7-3.5 16.2-6.3 3.4-.3 6-.5 7.3-1l.4-.1a114 114 0 0 0 24.7-12.3l1.1 4.1c1 3.4 2 7 1.6 9.8-.8 4.4-4.6 5.7-8.7 7.2l-1.8.7-3.8 1.3c-3.6 1.2-7.7 2.5-10.4 4.8-2.5 2.2-3.6 4.9-3 7 .5 2 2.2 3.5 5 4A37.4 37.4 0 0 0 141 108c-1.5 8.5-5.9 14.7-12.4 17.4-8 3.3-18.4 1.2-27.7-5.7a37.1 37.1 0 0 1-4.7-4.3c-2-3.8-4.3-7.4-6.6-11a162 162 0 0 1-9-15.7 280.4 280.4 0 0 0-13.3-23.7c-3.8-7.9-7.4-15.5-11-22-3.8-7.4-8.6-15.2-15.3-18.2a.7.7 0 0 0-.4 0l-.2-.2a.7.7 0 1 0-.6 1.3c5 2 10 8.7 15.1 17.7l3.4 7.1c1.2 2.7 2.3 5.2 3.4 7.1a310.1 310.1 0 0 0 4.4 7.8l1.6 3.5C76.3 87 85 105.5 95 116a66 66 0 0 1 7.3 21.2l-4.5-2.8zm-1.3-1c-2-1.5-3-2.9-3.2-3.8 0-.3 0-.6.6-.8l1.2-.3c.3 0 .5 0 .7.2.7.5 1 2.3.7 4.8zm-70.2-6c3.9 1 7.7 1.6 11.4 2-3 1.2-6.4 2-9.6 1.8a74.8 74.8 0 0 1-1.8-3.9zM37 8.1l.2.5a2.6 2.6 0 0 1-.6-.8 2.5 2.5 0 0 1-.2-1.3l.6 1.6zm229.3 170.4-.5-2.5a73 73 0 0 0-10.8-28.6l1.8.5a.7.7 0 0 0 .8-1l-.9-1.6c-6-10.4-12.1-21-21-29-6.2-5.4-27.7-19.9-45.2-14.7-9.6 2.8-16.4 11.1-20.2 24.6-1.1 2.7-2.4 5-3.8 7.1a69 69 0 0 0-9.6-2c-17.3-.2-29.5 3.7-36 11.6a22.2 22.2 0 0 0-1.2 1.6c-5.9-1.7-11.4-4-15.8-6.4-1-7.5-3.1-13.6-5.7-19.1l2 1.6c9.7 7.2 20.5 9.4 29 5.9 7.3-3 12-10 13.5-19.5a.7.7 0 0 0-.9-.8l-1.9.5c-5 1.4-11.1 3.1-15.8 2-2.1-.4-3.5-1.4-3.9-2.9-.4-1.7.6-3.8 2.7-5.6 2.4-2.2 6.2-3.4 9.8-4.6l3.9-1.3a77.7 77.7 0 0 1 1.8-.7c4-1.4 8.6-3 9.5-8.2.6-3.3-.5-7-1.6-10.5l-1.3-5a.7.7 0 0 0-1-.4c-7.1 5.4-16.8 9.3-25.4 12.7l-.4.1c-.7.3-2.3.5-4.2.7h.1c6.9-4.9 14.2-11.5 20-18.4 6.3-7.4 5.3-15.3-3-23.5a.7.7 0 0 0-1.3.5c-1 9.5-7.8 18.5-16.2 21.4-1.6.5-4 .7-6.7 1-.7 0-1.5 0-2.3.2 1.4-3.1 4-6.7 6.7-10.6 5.5-7.8 11.8-16.6 9.4-23.3-1.3-3.7-5-6.4-11.1-8.2a.7.7 0 0 0-.9.7 30.6 30.6 0 0 1-14.4 27.5l-3 .8-3.5 1 1.7-2.8 1.7-2.8c2-2.8 3-5.8 4-9l1.2-3.3 2-4.4a28 28 0 0 0 3.3-10.4c.2-4.6-1-8-3.8-10-5.5-4-14.9-1.2-17.6-.2a.7.7 0 0 0-.5.8c1.5 7.8 2.1 14.8 1.8 21-.2 3.3-1.8 7.4-4.5 9-1.5 1-3.2 1-5.1.1-5.9-2.7-2.5-10.2-.3-15.1l.8-1.9c2.3-5.6 4.4-12.7-.4-18.2-4.8-5.5-10.6-6.5-15.9-2.7a.7.7 0 0 0 .1 1.2c4.7 2.4 5.7 7 6 11.7l.1.8c.3 2.8.7 8.2-1.7 9.6-1.1.7-2 .8-2.8.3-1.8-1-2.6-4.6-2.4-6.7C56.1 9 55 5.9 45.4.7a.7.7 0 0 0-1 .4A5.3 5.3 0 0 1 41 4.7a5.2 5.2 0 0 1-4.6-.5 4.8 4.8 0 0 0-2.7-2c-1.8-.5-3.8.2-6.3 2.4l-1.3 1c-3.5 3.1-5 4.4-10.5 3.7a.7.7 0 0 0-.5 1.3 11 11 0 0 1 3 4.2c.9 1.7 1.8 3.4 3.4 4.6.5.3 1.4.6 3 1 2 .6 5.5 1.5 5.8 2.7 0 .4-.3 1-1.1 1.7-1.7 1.3-5.8-.7-8.7-2.2-1.4-.7-2.5-1.3-3.4-1.6-4-1-5.7.2-7.4 1.5a9.2 9.2 0 0 1-4.5 2 .7.7 0 0 0 0 1.4c1.8.4 2.3 1.6 3 3.2a8 8 0 0 0 2 3.2c2.4 2 5.9 2 8.6 2h2.5c6.4.1 15 .3 15.8 7.5-5.1.8-10.4.1-15.5-.6l-6.6-.7-2.8-.3c-4.1-.5-8-1-10 1.3C1 43 1 45.5 2 49c0 .2.2.4.4.5l3 .8c7 1.9 13.4 3.7 20.7 4l1.8.2c2.8 0 5.7.2 8.2 1.5.6.3 1.2.8 1.8 1.3l-2.6 1c-3.6 1.4-7.4 3-11.3 2.6a57.3 57.3 0 0 1-22.5-6.1.7.7 0 0 0-1 .5c-.6 5.8.3 10 2.8 13 2.9 3.6 7.7 5.5 15.6 6.3l4.7.4c6.8.5 12 1 17.7 4.8a28.6 28.6 0 0 1-7.7 3.6c-11 2-21.4 2-30.2 0a.7.7 0 0 0-.7.2.7.7 0 0 0-.1.7c4.8 13.1 11.4 17 25 14.9l1.2-.2c4.8-.8 9.3-1.5 14-.3 1.8.4 3.7 1 5.4 1.7l1.7.7c-3.4 2.7-7 5.3-10.9 6.7a51.7 51.7 0 0 1-31.3 1.3.7.7 0 0 0-.8 1l2.1 4.2c3 6.4 6.5 13.6 12.5 16.6 1.8 1 3.7 1.5 5.8 1.7 2 3.8 4.3 7.3 8 10 11.1 8.6 20.3 7.6 30.8-3.4 4.1-4.3 9.1-8.3 10.8-7.5.6.3.9 1.6.6 3.5-.4 3.5-21.2 14.7-26 16.7a.7.7 0 0 0-.4.7c.3 2 1.8 3.8 4.6 5.4 7.5 4.3 23.6 6 28.9 4 4.2-1.8 11-16.6 13-26 1.4 1 3.1 2 5 3.1.7 5.4 1 11.4.4 18.5-.5 7.3-2.6 17.6-4.6 27.6-1.6 7.7-3 15-3.9 21a.7.7 0 0 0 0 .3 34.4 34.4 0 0 0-.5 4l-9.6-3.4-2.4-.8c-10.2-3.5-24.4-2.1-32 7a.7.7 0 0 0 .2 1c1.4 1.3 3.9 1 5.8.8l1.8-.1a34.5 34.5 0 0 1 8.4 1c4.4 1.1 8.5 2.4 10.8 5.6-2.8-1.2-6-1-9-.8l-3.2.2c-2.7 0-5.1-.4-7.5-.8-6-.8-11.5-1.6-17.4 4a540.8 540.8 0 0 1-4 3.9c-5.4 5.1-11 10.4-15.6 16.7a.7.7 0 0 0 .7 1c2-.5 4.2-1.5 6.6-2.6 3.8-1.8 8.2-3.8 12.3-4l3-.4c4.8-.7 11.2-1.6 13.4 2.3-5.8-2-11.4-.3-15.7 1.5-5.2 2-10 4.1-15.4 5.5l-1.2.3c-5 1.3-10.7 2.8-14.7 6.7-7.4 7.4-8 24.7-8.2 30.4a.7.7 0 0 0 .8.7c5-1.2 9.7-3.2 13.5-5.7a247.1 247.1 0 0 1 1.9-1.2c2.7-1.7 5.4-3.5 7.9-5.6 3.4-3 6.9-5.9 11-7.2a45.5 45.5 0 0 1 12.7-2.1l3.2-.5c2.4-.4 5-.8 7-.6l-6 1.6c-4 1-8.2 2.2-12 4-4.5 2.3-8.5 5.6-12.4 8.8l-2.7 2.2-2.1 1.7a100.7 100.7 0 0 0-12.2 10.8c-3.5 3.5-7 7.1-6 12.9a254.6 254.6 0 0 0 4.1 18.3.7.7 0 0 0 1 .4c1.2-.7 2.2-2 3.2-3.1.6-.8 1.3-1.5 2-2.1l.5-.6c1.8-1.6 3.6-3.3 5.4-4.7l3.5-2.9c3.2-2.7 6.2-5.3 10.2-6.6-.8 1-2.2 1.8-3.3 2.6l-2.4 1.8c-2.2 2.2-4 4.5-5.9 7l-.3.4c-1.4 1.8-2.6 4-3.8 6-1.4 2.3-2.8 4.7-4.5 6.8-.2.2-.2.6 0 .9 2.4 3.6 5.1 7.6 8.8 10 2.4 1.7 4.4 2.2 6.1 1.5 3.4-1.4 4.4-6.8 5.3-11.2.2-1.2.4-2.3.7-3.2 1.9-7.3 6.7-15.9 13.1-17.8.7 4.5-2.7 11.5-5 16.2l-1.2 2.6-.8 1.9A31 31 0 0 1 37 338c-1.8 2.1-3.7 4.3-4.4 7a.7.7 0 0 0 .3.7.7.7 0 0 0 .8 0 97 97 0 0 0 7.2-5.4c3.3-2.7 6.5-5.2 10.5-7.1a66.7 66.7 0 0 0 11-6.6v.3a.7.7 0 0 0 1.2.4l.5-.4c4.2-4.3 7.6-7.6 13.6-8.8 4.2-.8 12.6-1.2 14.3 3 0 .4.4.5.7.5a.7.7 0 0 0 .6-.5l.3-1.2a.7.7 0 0 0 .9.1c4.7-3.6 8.8-6 13-8l3-1.1c3.4-1.3 7.2-2.7 9.3-5.8 3.7-5.4 1.7-15.2.3-22.4 0-.5-.2-1-.3-1.4.5.9 1 1.7 1.3 2.7 1.6 3.9 2.6 8.3 3.5 12.6a51.2 51.2 0 0 0 5.2 16 .7.7 0 0 0 .7.2.7.7 0 0 0 .6-.5c1.4-5.7 2.6-9.5 5.8-14 1.3-1.8 3.5-3.7 5.8-5.7 5.7-5 12.2-10.5 8.1-17.9a57 57 0 0 0-19.6-17.4l-1.2-.7c7.6 1.6 19.5 7 22.4 14.8a.7.7 0 0 0 1.3.1c12-16.4 7.9-25.1 6.5-28-.7-1.5-4.2-6.6-10.2-10a39 39 0 0 1 26 13.4c10.2 11.8 14.5 30.3 12 52-2.6 23.5-12.9 50.7-29.8 79h1.7c39.3-66 35-111.3 17.2-132A40.7 40.7 0 0 0 147 232a24.8 24.8 0 0 0-5.5-1.6c-9.5-1.6-19.6 2.3-30 11.5a79.5 79.5 0 0 0-13.5 9 345.6 345.6 0 0 0-36 43 .7.7 0 0 0 1.2.8c3.3-3.7 40.3-42.9 44.9-47.6a84.9 84.9 0 0 1 4.2-4c2.8-1.5 5.8-3 9-4.4a60 60 0 0 1 25.4-5.3 27.3 27.3 0 0 1 12.5 11c1.4 2.8 5 10.4-5.8 25.5-4.4-8.9-19.1-14.5-26.2-15a.7.7 0 0 0-.5 1.3l4 2.5c7 4.6 15.2 9.9 19 17 3.6 6.3-2.1 11.3-7.7 16-2.4 2-4.6 4-6 6-3 4.2-4.3 8-5.6 12.8-2.1-4.1-3.2-9-4.2-14-1-4.4-2-8.8-3.6-12.9-.9-2.1-2-3.9-3.2-5.4-1-6.2-3.6-11-7.5-14-1.4-1-5-2.9-7-1.6-.6.4-1.3 1.3-.8 3.4.9 3.6 4.9 6 8.1 8l2 1.4c1.6 1 2.8 2 3.9 3.3l.8 4.4c1.4 7 3.3 16.5 0 21.5-2 2.7-5.4 4-8.7 5.2l-3 1.2c-3.9 1.7-7.7 4-11.9 7 .9-5 1.2-10 1.5-14.6l.2-3.2c.4-5 .8-10-1-14.9-1-2.7-4.8-7.5-7.5-7-1.4.2-2.2 1.7-2.3 4.3a38 38 0 0 0 3 13.4l1.8 5.8a38.8 38.8 0 0 1 1.5 17.5c-3.7-4.3-13.6-2.6-14.8-2.4A19.7 19.7 0 0 0 70 320c5-5.7 8-12.4 5.4-19.5-.8-2-2-3.4-3.4-3.8-.8-.2-2-.2-3.5 1-2.4 1.8-2.8 5.3-3.1 8.1a68.6 68.6 0 0 1-1.4 7.8c-.7 3.6-1.5 7.3-1.5 11.3-4 3-8.2 5.5-11.6 7.1-4.2 2-7.4 4.6-10.8 7.3-1.7 1.3-3.3 2.7-5.2 4a26.3 26.3 0 0 1 4.3-5.6c2-2.3 3.2-5 4.3-7.7l.9-1.9 1.2-2.4c2.6-5.5 6.3-13 5-18a.7.7 0 0 0-1-.5c-7.2 1.7-12.7 11-14.8 19l-.7 3.3c-.8 4-1.8 9.1-4.4 10.2-1.2.5-2.9 0-4.9-1.3-3.2-2.2-5.8-6-8-9.3 1.5-2 2.9-4.4 4.2-6.6 1.2-2 2.3-4 3.7-5.9l.3-.4c1.9-2.4 3.6-4.7 5.8-6.8.5-.5 1.3-1 2.2-1.6 2-1.4 4.3-3 4.6-4.7a.7.7 0 0 0-.2-.7.7.7 0 0 0-.7-.1c-5 1-8.7 4.2-12.3 7.2l-3.5 3c-1.8 1.3-3.6 3-5.4 4.7l-.6.5a23 23 0 0 0-2 2.3l-2 2.2-1.1-4.5c-1-4.2-2-8.5-2.8-12.7-1-5 2-8 5.6-11.6l1.5-1.6c3.3-3.3 7-6.3 10.6-9.1l2-1.7 2.8-2.2c3.8-3.1 7.8-6.4 12.1-8.6 3.7-1.8 7.8-2.9 11.8-4 2.7-.6 5.6-1.4 8.2-2.3a.7.7 0 0 0 .1-1.3c-2.4-1.3-6.4-.7-10 0a59.4 59.4 0 0 1-5.5.6c-3.6.4-7 .7-10.6 2-4.3 1.4-7.9 4.3-11.5 7.4a65 65 0 0 1-7.7 5.5l-1.8 1.2a42 42 0 0 1-12.2 5.3c.2-6.3 1.2-21.9 7.8-28.5 3.7-3.6 9-5 14-6.3l1.3-.3c5.4-1.5 10.3-3.5 15.5-5.7 4.4-1.8 10.2-3.5 16.1-.8a.7.7 0 0 0 1-.8c-1.6-6.8-10-5.6-15.5-4.8l-3 .3c-4.3.3-8.7 2.4-12.7 4.2l-4.2 1.9c4.2-5.4 9.2-10.1 14-14.7a524.8 524.8 0 0 0 4.1-3.9c5.3-5.2 10.4-4.4 16.2-3.6 2.4.4 5 .8 7.7.8l3.3-.2c3.6-.2 7.3-.4 10.2 1.8a.7.7 0 0 0 1.1-.8c-2-5.4-7.2-7.1-12.9-8.5a36 36 0 0 0-8.7-1.1l-1.9.1c-1.4.2-3.1.3-4.2 0 7.2-8.2 20.4-9.3 29.9-6l2.4.7c3 1 6.5 2.2 9.9 3.6-.3 11 3.4 24.9 8.3 29.2 1.7 1.6 3.2 1.6 4.2 1.3 2.3-.6 4-2 5-4.1 1.8-3.8 1.2-9.8-1.5-16.1-2.1-5-8.2-8.5-14.6-11.2l.2-2.4a.7.7 0 0 0 .1-.3c.8-6.2 2.4-14.3 4.1-22.9 2-10 4.2-20.4 4.7-27.8a93 93 0 0 0-.2-17.8c4.2 2.3 9.3 4.4 14.7 6a31 31 0 0 0-2.5 22.5c1.9 9 6.7 16.8 12 24.5a.7.7 0 0 0 1.2-.6c-.8-2.6.3-5.5 1.3-8.1l.7-1.8c1.3-3.7 2.5-6.4 4.9-9.2 4.7-5.4 10-9.4 16.3-13.8 3.3-2.2 5.5-2.4 9.3-1.4-2 1.6-3.7 3.3-5.5 5a67 67 0 0 1-9.9 8c-3 1.8-6.1 3.8-8.4 7-3 4.4-4.9 9.8-6.7 15l-.4 1c-2 6-1.2 10.7 2.9 16.5 3.4 4.7 7.4 10.3 11.3 16.3a.7.7 0 0 0 1.3-.6c-.9-3.1 0-6.6 1-10l.8-4c.7-3.6 2-6.8 3.4-10.1l1.6-3.9c2-5.3 4.9-10.4 7.5-15.3l1.9-3.4a82 82 0 0 0-2.2 13.5c-.6 6.7-1.6 28.7 10.1 30.2 5 .6 9.6 1.6 15.6 3.2a.7.7 0 0 0 .8-1c-1.2-2.8-2.8-5.7-4.3-8.5-2.2-3.8-4.3-7.8-5.6-12a33 33 0 0 1 .7-19.8c1-2.6 4.8-9 8-9.3 1 0 1.9.7 2.6 2.2 2 4 .8 9.7-.3 14.7-.5 2.3-1 4.5-1.2 6.4a70 70 0 0 0 2.8 24.8c.1.2.3.4.6.5a.7.7 0 0 0 .6-.3c2-2 5.4-2.6 8.3-3l3.6-.8c1.9-.5 3.7-.9 5.6-1 6.4-.3 12.5 1.2 17.5 2.7 4 1.2 7.5 3.4 9.5 6.2.1.2.4.2.7.2a.7.7 0 0 0 .5-.2.7.7 0 0 0 .1-.6 275.5 275.5 0 0 0-.4-2c-1.5-5.3-3.4-12.7-1.7-17.5 1.8-5 5-9.3 8-13.4l.9-1.2 1-1.4c2.8-3.7 6.2-8.2 5.2-13.6-1-5.6-6.3-9.8-10.4-13.2l-1.7-1.3a185.6 185.6 0 0 1-2.7-2.4 169.2 169.2 0 0 0-3.2-2.8l3.6.9a53.8 53.8 0 0 1 29.5 19.4.7.7 0 0 0 1.3-.5z" fill-rule="evenodd"/></svg>