<svg xmlns="http://www.w3.org/2000/svg" viewBox="0 0 699 1616"><path d="M372.7 23c-1 5.4-.8 11 1.2 15.9a26.4 26.4 0 0 0 2.4 4.4c.5-4.3-.2-12.4-3.4-19.9l-.2-.3zm4.5 375.9c-9.3 0-17.9 2.8-24 8.1-12 10.6-16.3 31.7-8.9 44.3 5 8.5 13.9 10.4 28.4 13.5l12 2.6 9.8-.4c8.7-.3 12.3-.5 16.4-3.4 10.4-7.6 14.4-26.4 8.5-40.2-4.7-11-16.6-20-31-23.3a50 50 0 0 0-11.2-1.2zM207 1331.3a209.2 209.2 0 0 0-36.2 89.6c-5.8 38.3 1 72.1 18.7 93 16.1 19 46 32.4 74.3 33 17.4.5 31.3-3.9 39.2-12.3 14.4-15.4 8-45 .2-67.3-9.3-26.2-23.3-50.5-28-58.5a264.1 264.1 0 0 0-68.2-77.5zm194 238.2c14.8 13 33.4 24 56 28.2 69.6 12.9 125.6-50.3 152.5-80.7 50.8-57.4 86.2-145.2 82.2-204.2-1.5-21.4-8.1-37.8-19.3-47.5-18.3-15.8-46.1-11.8-56.6-10.4-42.2 6-89 52.5-135.5 134.6a685.6 685.6 0 0 0-54.3 123c-8.1 23.2-14.6 41.7-25 57zM297 1616c-17 0-36.3-2.4-58.2-8.3-49.6-13.4-76.9-41.9-122-89.1a492.5 492.5 0 0 1-100.2-160C-1 1312.8-4.7 1282.2 6 1270c18.6-21.1 62.7-8 91.9.6 19.5 5.7 63.6 18.7 107.7 51a157 157 0 0 1 38.7-36.2c38.3-24.5 75.2-20.4 111-16.5 36 4 69.9 7.7 102.1-18.5 22.7-18.6 38.4-66.5 69.5-162a942 942 0 0 0 18.4-62.9c4.4-17 9-34.7 20.1-68.7 14.8-45.2 24.8-69.8 32.2-87.7 8.5-20.7 13.6-33.1 19-59.5 6.4-30.4 6.4-75.8 6.3-158.2 0-99.2 0-153.8-9.3-181.6-19.1-57.5-55-99.7-93-144.4-14.4-16.8-27.1-30-38.3-41.8-26.5-27.5-45.6-47.4-56.5-85-2-6.5-2.7-10.6-4.2-18.1a1461 1461 0 0 0-12-56.6c-6.6-28.8-10.9-45.3-13.4-55.2-3.5-13.8-4.2-16.3-3.8-22.9 0-2.4.4-15.4-5.8-29.4-1.2-3-3.9-9-5.4-9.4-.3 0-1.9.8-4 4.1a27.9 27.9 0 0 0-1.5 2.7c2 3.2 3.2 6 3.3 6.2l.3.7c4.6 10.7 5.2 23.3 2.7 28.4-1 2-2.4 2.8-3.4 3-5.7 1.6-10.3-8.5-11.1-10.5a38 38 0 0 1 .3-27.1c-2-3-4-4.8-5-5-.9.6-2.7 3.8-3.8 11-.7 4.2-.3 7.2.3 12 .5 4.2 1.2 9.3 1.5 17.2l.2 4.5c1 31.4-13 99.9-13.6 102.8a614.2 614.2 0 0 0-7.4 40.6c-.6 4-.8 5.4-2.3 10-12.5 37.8-35 60.4-58.7 84.3l-4.2 4.3c-70.4 71-105.7 106.7-124 152.8-9.4 24-12.2 45.5-17.9 88.5a755.8 755.8 0 0 0-3.2 152.7 941.5 941.5 0 0 0 30.4 170c3.9 15.3 5.8 21.6 8.2 29.7 2.5 8.2 5.3 17.5 11 39.2 20.9 78.5 31.3 117.9 36 161 4.5 41.7 2.7 73 1.4 95.7-1.6 27.4-1.9 39.7 7 44.3 18.5 9.7 56.8-22.4 78-46.3 49-55 53.9-125.5 53.7-153.2-.2-43.6-11.3-67.3-22.1-90.2-12-25.2-23.2-49-20.1-95.6.5-8.3 1.5-16.4 2.4-24.3 3-26.2 6-50.9-6-81.7-4.7-12.5-8.8-17.6-13.5-23.6a130 130 0 0 1-17.9-29.1c-31.5-67-24.1-111.6-12.3-137.2a148.3 148.3 0 0 1 18-28.5c12.9-16.8 27.4-35.8 51.3-45a107 107 0 0 1 26.3-6c-10.3-2.5-18-5.9-23.2-14.6-9.2-15.5-4.3-40.3 10.3-53 10.3-9 25.4-12.1 41.3-8.5a50.9 50.9 0 0 1 36 27.4c7.1 16.8 2.2 39-10.9 48.5a21.6 21.6 0 0 1-10.3 4.1 194 194 0 0 1 8.5 3.2c16.2 6.6 38.4 15.6 54.3 33 17.6 19.4 25.8 47.2 24.5 82.6-1.1 28.1-8 53.3-11 64-7.8 28.8-21.1 56-39.5 80.8a3.5 3.5 0 0 1-5 .8 3.5 3.5 0 0 1-.7-5c18-24.1 31-50.5 38.5-78.5 17.7-64.6 13.7-111.7-12-140-14.8-16.2-35.3-24.5-51.7-31.2-10-4-18.8-6.6-26.5-8.5l-3 .2c-17.1 1.3-30.7 2.4-43.4 7.3-22 8.4-36 26.6-48.2 42.7-5 6.6-12 15.7-17.2 27.1-11.2 24.3-18.2 66.7 12.2 131.3 7.2 15.3 12.5 22 17.1 27.8a83.4 83.4 0 0 1 14.6 25.4c12.5 32.4 9.5 58 6.3 85-.9 7.8-1.8 15.8-2.3 24-3 44.7 7.9 67.8 19.4 92.1 11.1 23.6 22.6 48 22.8 93.1.2 28.6-5 101.1-55.4 158-2 2.3-45.1 50.4-75.7 50.4-3.9 0-7.6-.8-11-2.6-13.1-6.9-12.2-23.4-10.6-50.9 1.3-22.5 3-53.4-1.4-94.6-4.6-42.5-15-81.8-35.7-159.9-5.7-21.5-8.5-30.8-11-39-2.3-7.8-4.4-14.5-8.3-30-11.1-44.1-25-99-30.6-171.2a762.7 762.7 0 0 1 3.3-154.2c5.7-43.5 8.6-65.3 18.4-90C163 399 198.7 363 269.8 291.1l4.3-4.3c23.1-23.3 45-45.2 57-81.5 1.3-4 1.4-5 2-8.8.6-5 2-14.6 7.4-41 .2-.7 14.4-70.6 13.5-101.1l-.2-4.5c-.3-7.6-1-12.6-1.4-16.6-.7-5-1.2-8.8-.4-14C353.6 9 357 3.4 361.6 2.6c3.5-.5 6.8 1.9 9.6 5l.7-1c3-4.3 6.2-6.6 9.5-6.5 5.8.2 8.6 6.7 11.7 13.6a77.4 77.4 0 0 1 6.3 32.6c-.3 5.5.2 7.5 3.6 20.8 2.5 9.9 6.8 26.4 13.4 55.3 7.4 32.4 10.4 47.7 12.1 56.9 1.5 7.5 2.2 11.3 4 17.4 10.5 36 28.1 54.3 54.8 82.2a908.1 908.1 0 0 1 38.6 42c38.5 45.3 74.8 88 94.3 146.8 9.2 27.7 9.7 76.4 9.7 183.8.1 82.9.2 128.5-6.4 159.7a294 294 0 0 1-19.4 60.6c-7.3 17.9-17.4 42.3-32 87.3-11 33.8-15.6 51.3-20 68.3-4.5 16.9-8.6 32.8-18.5 63.2-31.6 96.8-47.4 145.4-71.8 165.3-34.5 28.1-71.5 24-107.3 20-34.5-3.8-70.2-7.7-106.4 15.5-13.5 8.7-26 20.4-36.9 34.4a271 271 0 0 1 70.1 79.6c21.7 37.5 54.1 104.9 26.8 134-9.2 10-25 15.2-44.5 14.7-30.7-.8-61.9-14.7-79.5-35.6-19.2-22.7-26.4-57.7-20.2-98.6 5-33.7 18.6-66.4 37.5-92.6-43.2-31.5-86.4-44.3-105.5-50-27.5-8-69-20.3-84.6-2.6-4.1 4.7-11.1 21.9 11.9 81.5 30.5 79 75 132.7 98.7 157.6 44.3 46.4 71 74.4 118.8 87.3 61.9 16.7 102.5 4.2 125.7-9.3a87 87 0 0 0 25.2-21.3 199.6 199.6 0 0 1-41-57.6 3.5 3.5 0 0 1 1.6-4.6 3.5 3.5 0 0 1 4.7 1.6 192.8 192.8 0 0 0 38.8 55c9.6-14.3 15.7-31.8 23.6-54.5 11-31.6 24.8-70.9 55-124.2 47.4-84 96-131.8 140.5-138.1 11.3-1.6 41.4-5.8 62.2 12 12.8 11 20 28.7 21.7 52.3 2 29.3-5.3 66.4-20.4 104.4-15.3 38.7-37.9 76-63.6 105-27.7 31.3-85.5 96.5-159 82.9a124.2 124.2 0 0 1-59-29.5 94 94 0 0 1-26.8 22.7c-16 9.3-40 18.2-73 18.2z" fill="#1B1A19" fill-rule="evenodd"/></svg>