<svg xmlns="http://www.w3.org/2000/svg" viewBox="0 0 330 418"><path d="M0 415.8c11.6-3.5 17-2.4 22.9-1.4 4.8 1 9.8 2 19.2 0a62.7 62.7 0 0 1 24.8.3c6.8 1.2 10.8 1.9 13-4.3a112.6 112.6 0 0 1 37.6-54.3 72.8 72.8 0 0 1 43-14.8 73.3 73.3 0 0 1 43.2 14.3 115 115 0 0 1 39.2 54.8c2.2 5.8 5.9 5.4 12.1 4.9 4.3-.4 9.7-.9 16.4.2 2.4.3 4.4-.1 4-3-.2-1.2-.9-2.8-2-4.4l-1-1.4c-4.2-1.7-8-2.1-12.7-2.6-2.1-.3-4.4-.5-7-1-1.3-.1-2.6-.5-3.7-1-4-1.5-6-4.6-5.3-8.9.3-1.6.9-3 1.5-4.5l1.5-4c1.4-4.4 1.3-8-5.1-10-5-1.7-10.3-3.2-14.7-5.9-5.3-3.3-8.4-8-3.9-15.3 1.2-2 2.4-3.7 3.5-5.3 1.3-1.8 2.4-3.5 3.2-5l-5-7.4c-7.4-10.7-18.2-10.7-30.7-10.6a2092.7 2092.7 0 0 1-71 .7 46.1 46.1 0 0 1-8.6 14.2c-5.2 5.8-11.4 6.3-18.5 7.4-3.7.6-4.5 2.2-4.2 4.3.5 3 2.7 6.8 4 9.8 3.2 7.7-1 11.7-7 14.2-3.8 1.7-8 2.5-12.2 3.6-3.7 1-4.2 3.3-3.4 6.2.5 1.8 1.4 4 2.4 6.1 3.6 8.1.3 12.6-7.2 15.9-3.7 1.6-8 2.5-11 2.6-4.7.2-7.2-3.5-4.8-7.7 5.5-9.9 11.2-20.6 17-31.6a2465.6 2465.6 0 0 0 19.1-37.2c4.6-9 9.2-10.3 18.7-10.2l14 .2c.8-3.8-.6-5.4-4.5-5.3-1.5 0-3.3 0-5.1.2-3.3 0-6.7.2-8.7 0-6.9-.4-7.5-4.8-8-8.9a21 21 0 0 0-.5-2.6c-1.6-5.5 2.1-8.4 7.3-8 2.5.1 4.5.2 5.8-.4 1.3-.5 2.2-1.6 2.9-4l4.6-16 12-41.6c1-4 1.1-6.5-1.3-10-3-4.4-1.6-10.2 4.4-9.4 12.5 1.7 24 1.2 35.2.7l-1-6.2c-2.3-16.5-4.7-32.7-6.8-46.2l-1.7 11c-1.9 12.3-3.8 25-5.3 30.8a9.7 9.7 0 0 1-4.6 6.6 12.5 12.5 0 0 1-8.6.7c-3.8-.8-5.3-3.4-4.7-7.2 4.8-27.7 8.5-52 11.1-76.4 2.6-24.4 4-48.8 4-76.3 0-5.2-1.4-8-3.3-11.8-2.6-5-5.4-10.5.4-14.5 1-.7 1.2-1.8 1.5-3.2.5-2.3 1-5.3 5-8.6 1-1 2.1-2.1 3-3.4-1.7-3-3.4-7.9-2-11.2 1.5-3.6 5.3-3.1 6.4.4 1 3.2-.5 8-1.9 10.8a17 17 0 0 0 3 3.4c3.5 3 4.1 5.8 4.6 8.2.4 1.6.7 3 2 3.6 4.3 2.6 5.1 6.7 2.8 11a9.6 9.6 0 0 1-2.9 3.2c.3 1.8 0 4-.3 6.4-.2 1.8-.5 3.7-.5 5.8 0 10 2 34.3 4.7 61.4 3.2 31.6 7.3 67 10.4 88.5.8 5.7 2.4 7.2 8 7.7 2.7.3 5 1.4 6.2 4 1.3 2.7.6 6.2-.5 8.9a33 33 0 0 1-2 3.9c-1.6 2.7-2.9 4.9-1.7 9 5 18.4 9.3 31.4 14.4 47.3 1 2.7 1.8 5.6 2.8 8.5 1.7 5.4 5 5.5 8 5.6 3.8.1 7 .3 7.1 7v4.3c0 5.2-.1 8.7 4.1 13.9 7 8.3 7.6 12.8 5.3 17.8l30.4 45.2a7023 7023 0 0 0 11 16.5c2.7 1 5.4 2.6 8.6 4.9 8 5.9 13.4 5 20.2 4 6.4-1.1 14.1-2.4 26.4 1.2l-.6 2.2c-11.8-3.4-19.2-2.2-25.5-1.2-7.3 1.1-13 2-21.9-4.4a45.3 45.3 0 0 0-4.7-3c.7 1.3 1.1 2.6 1.3 3.7.7 4.4-2.6 6.1-6.5 5.5-6.5-1-11.7-.5-15.9-.2-7.3.7-11.6 1-14.4-6.3a112.8 112.8 0 0 0-38.4-53.8 71 71 0 0 0-42-13.9A70.5 70.5 0 0 0 119 358 110.4 110.4 0 0 0 82 411.1c-2.8 8-7.5 7.3-15.4 5.9-5.9-1-13.7-2.4-24-.3-9.9 2-15.1 1-20.1 0-5.5-1-10.8-2-21.8 1.3l-.7-2.2zm270.3-12.3-9.3-14-29.8-44.2-2.8 4.2-3.5 5.2c-3.5 5.8-1 9.5 3.2 12.2 4.2 2.6 9.4 4 14.2 5.6 8.2 2.7 8.4 7.3 6.5 12.9l-1.6 4.2c-.5 1.3-1 2.5-1.2 4-.5 3.2.8 5.3 3.8 6.5 1 .4 2 .6 3.3.8l6.8.9c3.8.4 7.1.8 10.4 1.7zm-43.8-69 4.3 6.2c1-3.7 0-7.6-5.4-14-4.8-5.7-4.7-9.6-4.6-15.3V307c-.1-4.6-2.4-4.6-5-4.7-3.7-.2-7.9-.3-10-7.2l-2.8-8.5c-5.2-16-9.4-29-14.5-47.4-1.4-5 0-7.6 1.9-10.8.6-1 1.3-2.2 1.9-3.6.8-2 1.5-5 .6-7.1-.8-1.8-2.6-2.4-4.4-2.6-6.7-.7-9-2.9-10-9.6-3.1-21.5-7.3-57-10.5-88.7a823.5 823.5 0 0 1-4.7-61.7c0-2.1.3-4.1.5-6 .3-1.8.5-3.5.4-4.8a14 14 0 0 1-3.9.8c-3.6.4-6.1 0-7.7-.9l-.9-.6c-2-1.7-1-4 1-5a11 11 0 0 1 6.3-1c3.7.4 5.7 1.5 6.6 3.2a7.4 7.4 0 0 0 1.7-2c1.7-3.3 1.3-6.1-2-8-2.1-1.2-2.5-3-3-5.1-.4-2-1-4.5-3.8-7a19 19 0 0 1-2.8-3 18.4 18.4 0 0 1-2.9 3 11.3 11.3 0 0 0-4.2 7.4c-.4 1.8-.7 3.4-2.4 4.6-4.5 3.1-1.7 7.9.3 11.6 2 4 3.6 7 3.6 12.8 0 27.6-1.5 52-4 76.5-2.6 24.5-6.4 49-11.1 76.6-.5 2.6.2 4 2.9 4.6 2.7.6 5.1.5 7-.5 1.7-1 2.9-2.6 3.5-5.2 1.4-5.6 3.4-18.3 5.2-30.5l2.8-17.7a514 514 0 0 0-1.3-7.2c-2.5-13.5-2-22-.6-25.9 1.6-4.3 5-4 6.5 0 2.5 6.8.6 18.8-.9 25.6l-1.4 7.5c2.5 14.7 5.2 33.6 8 52.8l1 6.4c4.8-.2 9.5-.5 14.4-.5 3 0 4.8 1.2 5.7 2.9.4.8.5 1.8.5 2.7a7 7 0 0 1-1.5 3.7c-1.6 2-4.1 3.4-7.6 3.2l-9.8-.2 1.8 12.6a225.1 225.1 0 0 1 7.4.4 8 8 0 0 1 4 1.2c.7.5 1.2 1 1.6 1.7.3.7.5 1.5.4 2.3a7 7 0 0 1-1.3 3.4c-2.4 3.6-3.3 5.7-2.7 7.1.5 1.4 2.7 2.5 6.3 4 4.9 2.1 5.3 5 4 8.2-.9 2-2.5 4-4 5.8l-.3.4c-3 3.7-1.6 6.2.9 8.1 1.1 1 2.6 1.8 4 2.7l2.5 1.6c2.2 1.5 3.6 3.3 4.2 5 .4 1 .5 2.2.2 3.2-.3 1.1-.9 2-1.8 2.7a7.8 7.8 0 0 1-4.8 1.3l-39.2.1-30 .2c-1.9 0-3.3-.5-4.4-1.1a4.4 4.4 0 0 1-1.8-5.3 7.5 7.5 0 0 1 2.4-3.5l3.7-2.7c1.9-1.4 4-2.8 5.7-4.4 3.2-3 5-6.5 1.3-10.5l-.8-.8-2.1-2.4c-3-3.6-4.2-6.8 1-11.2 2-1.6 4-3.5 6.2-5.4a293.8 293.8 0 0 1 3.9-3.6c.9-.8 1.9-1.2 2.8-1.3.7-.1 1.4 0 2 .4.7.3 1.2.9 1.5 1.6.3.8.4 1.9.2 3l-1 5.4-4 21c-1 4.5 1.4 7.8 5.3 9.8a27 27 0 0 0 12 2.5c4.5 0 8.9-.8 12.4-2.5 4.4-2.1 7.3-5.6 6.3-10.4-1.9-10-3.9-22.4-6-35.7a286.4 286.4 0 0 0-6.8-.1c-5.4 0-10.7.1-16 .3-5 .2-8.7-2.5-10.5-5.8-.6-1-1-2.3-1.2-3.4a7 7 0 0 1 .5-3.5c1-2.3 3.2-4 7-4.2a564.9 564.9 0 0 1 24.5-.5l-1-7.1c-11.4.6-23 1-35.8-.6-4.1-.6-4 3.2-2.2 5.8 2.8 4 2.8 7.2 1.5 11.9-3.8 13.9-7.9 27.8-12 41.7l-4.6 16c-.9 3-2.2 4.7-4.1 5.4-1.8.8-4 .7-6.9.5-3.6-.2-6 1.3-5 5.1l.6 3c.4 3.2.9 6.7 6 7 1.9.2 5.1 0 8.4-.1l5.2-.2c5 0 7.7 2.5 6.8 7.6 20.7 0 36.8-.3 49.5-.5l20.9-.3c13.1 0 24.5 0 32.5 11.6zm-106-8.6-13.2-.1c-8.7-.1-12.5.7-16.6 9a2485 2485 0 0 1-19.2 37.1c-5.7 11-11.5 21.8-17 31.7-1.5 2.6-.2 4.5 2.7 4.3 2.8-.1 6.7-.9 10.2-2.4 6.3-2.8 9-6 6-12.9a45 45 0 0 1-2.5-6.4c-1-4.2-.4-7.5 5-9 4-1 8.2-1.8 12-3.4 4.8-2 8.2-5.3 5.6-11.4-1.3-3.1-3.5-6.9-4-10.2-.6-3.5.7-6 6-7 6.5-1 12.5-1.4 17.2-6.6 3-3.3 6.3-8.6 7.9-12.7zm61.7-106c-4.7.1-9.5.3-14.2.6l1 7.2c4 0 7.5 0 10.3.2 2.6.2 4.6-.9 5.7-2.3.5-.7 1-1.5 1-2.4a3 3 0 0 0-.3-1.6c-.4-1-1.6-1.7-3.5-1.7zM167 230a552 552 0 0 0-24.7.6c-2.9.1-4.5 1.2-5.1 2.7-.3.8-.4 1.6-.3 2.4 0 .9.4 1.8.9 2.6a9.3 9.3 0 0 0 8.5 4.7 459.8 459.8 0 0 1 22.6-.3l-2-12.6zm11.4 15.4a223.6 223.6 0 0 0-7-.4c2.1 13.2 4 25.5 6 35.3 1.1 6-2.3 10.3-7.6 12.8a31.7 31.7 0 0 1-13.4 2.8c-4.7 0-9.4-1-13-2.8-4.8-2.5-7.8-6.5-6.6-12.3 1.4-6.4 2.7-13.6 4-20.9.5-2 .9-4 1-5.3.2-.8.2-1.4 0-1.8a1 1 0 0 0-.4-.5l-.8-.2a3 3 0 0 0-1.5.8 294 294 0 0 0-4 3.6l-6 5.4c-3.9 3.2-3 5.5-.9 8l2 2.4.8.8c5 5.3 2.7 9.8-1.4 13.6-1.8 1.7-4 3.2-6 4.6l-3.4 2.7c-1 .7-1.5 1.6-1.8 2.4v1.5c.2.5.5.9 1 1.2.6.4 1.7.7 3 .7l30-.1c15.5 0 31.2-.2 39.3-.1 1.5 0 2.7-.3 3.4-.9.5-.4.9-.9 1-1.4.2-.6.1-1.3-.1-2a8.3 8.3 0 0 0-3.3-3.8l-2.5-1.6c-1.5-.9-3-1.8-4.2-2.8-3.5-2.8-5.4-6.2-1.3-11.3l.4-.4c1.4-1.8 2.9-3.6 3.6-5.3.8-2 .5-3.8-2.8-5.2-4.1-1.7-6.6-3-7.5-5.2-1-2.3 0-5 3-9.3.5-.8.8-1.6.8-2.3a2.1 2.1 0 0 0-.2-1c-.1-.4-.4-.7-.8-1-.6-.4-1.6-.7-2.8-.7zm-21-92.7c1.5-7.4 4-18.9 1.3-26-.8-2-1.4-1.9-2.1 0-2.4 6.6-.4 19.3.8 26zm-2-141.5c1.5-3.8 1.6-6.4 1-7.8-.5-1.3-1.4-1.4-2 0-.6 1.4-.6 4 1 7.8zm4.6 31.9c1.2-.1 2.3-.4 3.4-.8-.8-1.2-2.2-2-4.8-2.2-2.3-.3-4 0-5 .7-1 .6-1 1.1 0 1.6 1.1.7 3.2 1 6.4.7z" fill="#000105" fill-rule="evenodd"/></svg>