<svg xmlns="http://www.w3.org/2000/svg" viewBox="0 0 504 545"><path d="M74.5 26.2a347 347 0 0 1-41.7 51.3 152.3 152.3 0 0 0-13.2 15.1c-6.6 9.9-10.9 22.9-14.5 43.9A277.8 277.8 0 0 0 .6 200c0 28.8.3 35 2.7 55.1 4.4 37.1 5.2 51.8 3.7 71.5a192 192 0 0 0-.7 21.8c1.2 8.7 7.4 15.4 25.2 27.2 12 7.9 18.8 14.5 30.3 28.8A275.9 275.9 0 0 0 135 468a253.6 253.6 0 0 0 38 19.1c5 1.5 10.9 7 15.5 14.4 3.8 6.2 6.1 7.7 8 5.1 1.3-1.7 1.5-1.7 4.8.8 1.9 1.5 5.3 5.3 7.6 8.6 6.8 9.7 11 12 14.6 8 1-1.1 2.4-2 3.1-2 .7 0 2.1-1.1 3.2-2.5 2.4-3.1 2.3-3.1 6.7-.1 8.3 5.7 20 4 35.1-5 5.1-3 15.2-7.9 22.4-11a129 129 0 0 0 20.9-10.7c4.2-2.9 11.1-7.5 15.4-10.1 4.4-2.7 10.9-7.4 14.5-10.5 3.7-3.1 9.9-8 13.7-10.8 12-8.8 37.5-37.4 48.2-54.1a87 87 0 0 1 10.1-13.2c8-7.3 17.5-15.5 18.3-15.8 2.4-1-4.5 9.1-10.8 15.9a64 64 0 0 0-10.7 15.1c-6.9 14.5-12.3 21.4-30.6 38.6-9.5 9-21.1 19.1-25.8 22.5a902.3 902.3 0 0 0-21 16.2 233.9 233.9 0 0 1-29.7 21.7 84.9 84.9 0 0 0-9 5.9c-2.8 2.1-9 5.6-13.7 7.8-8.5 4-8.7 4-15 3-3.5-.6-8.3-.8-10.8-.5-5.7.6-21.4 7.1-21.7 8.8-1 6.9-1.6 8.8-2.8 8.8-2.1 0-5.1-4.9-6.5-10.8-.6-2.8-1.6-5.2-2.2-5.2-.5 0-.7.8-.4 1.7l1.6 6.2c.6 2.4 2.4 5.7 4 7.3 5.5 5.4 14.4 3.5 33.7-7.5 5.4-3.1 14.1-7.5 19.3-9.8 5.2-2.3 12-6.1 15-8.4 3-2.3 7.9-5.4 10.8-7 4.2-2.3 24.3-17.5 34.8-26.4a286.5 286.5 0 0 0 43-35.8c15.8-14.9 19.4-19.6 27.3-34.8 3.6-6.9 7.2-12 12-17 3.7-3.9 8.1-9.8 9.8-13.1a71 71 0 0 1 12-14.9c4.9-5 9.9-11.1 11.1-13.5a93.2 93.2 0 0 0 8.8-30.7c.3-4.9 1.6-13.8 3-19.8 3.5-16.5 5.3-38.1 6.4-78.5.5-20.1 1.3-40.3 1.7-45l.6-8.5 9.2-9c12.7-12.4 15-17.3 14.9-31-.1-11.9.3-10.4-24.9-83L466.3 12c-3.6-10.8-4-11.7-4.8-10.9-.4.5 4.6 15.4 23 68.4 16.4 47.2 16.6 48 17.2 59.2.5 9.8.4 10.4-2.5 16.7a58.7 58.7 0 0 1-17.7 20.6 281.8 281.8 0 0 1-68 33.8c-18.8 6.3-16.8 6.6-20.4-3.1a499.8 499.8 0 0 0-26.8-62.2c-11-22-27-50.3-39.8-70.5l-11-17.5c-15.5-24.6-17.6-27.7-18.1-27.2-.3.2 5.2 9.4 12.2 20.3 12 18.9 31.2 50.3 35.9 58.9l7 12.5a552.6 552.6 0 0 1 42.1 94.7c-1.1 1.1-23.4 5.5-30.3 6-12.8.9-13.9.3-50-25.1-18.7-13.2-21.3-16.1-21.3-23.9 0-5 2.3-9.7 7.5-15.5 3.9-4.3 4.4-5.4 3.6-7.1-.6-1-1.5-2.1-2-2.3-.5-.1-6.1-5.3-12.3-11.3l-23.3-22.4c-27.6-26.4-34.6-33.4-33.8-34.1l8.3-6.5c8-6.2 24.1-20.2 37.9-32.9 4.7-4.3 11.9-10.1 16-12.9 4.2-2.7 9.5-6.8 11.8-9.1 2.3-2.2 5.2-4.6 6.5-5.3 2.2-1.2 2.2-1.2.3-1.3-1.1 0-4.4 2.2-7.3 5-2.8 2.7-8.6 7.2-12.8 10.1a177 177 0 0 0-16.7 13.5A780.3 780.3 0 0 1 215 82a1316 1316 0 0 0-34.2 26.9c-4.3 3.7-12.6 9.2-18.5 12.4a50.5 50.5 0 0 0-20.8 16.6c-6 9.4-4 14.8 11.8 31 15.1 15.6 21.3 26.4 30.1 52.6 4.2 12.3 5.9 15.4 23.1 41 18.4 27.4 25.5 42.9 25.5 55.6 0 12.1-12 19.9-21.6 14-3.4-2-23.9-24.8-30.8-34.2-2.3-3.1-6.8-10.4-10.1-16.3-6.1-11.1-11.1-16.7-18.3-20.2a44.8 44.8 0 0 0-23.7-.6 55.1 55.1 0 0 0-26.2 25.2 24 24 0 0 0-2.7 13c.1 9.5 4.1 23.6 9.6 34 10.5 19.6 11.8 23.4 9.8 29.5-.7 2-.9 3.9-.6 4.3.4.3.9-.4 1.3-1.6.3-1.3.9-2.2 1.3-2 2.6 1 18.1 17.1 20.5 21.3a118.1 118.1 0 0 0 18.3 25.3c3.7 3.7 10.9 11.3 16 17 6.8 7.4 13.7 13.5 25 22 24.2 18.1 33.3 28.2 33.5 37.1a165 165 0 0 1-2.9 29.8c-1.4 3.6-6.4 6.7-7.2 4.5a57.7 57.7 0 0 0-17.2-18.9c0-.2 1-1.7 2.2-3.4 3.3-4.5 3.7-14.7.8-23.5-3.5-11.1-10.5-19.9-28.3-36.4-31.8-29.3-39.3-36.9-47.2-47.5-8.9-11.9-14.5-17.9-18.6-20.1-2.2-1.1-2.7-2.2-3.1-6.4-.4-3.7-1.5-6.5-4.1-10.3a67.6 67.6 0 0 1-9.8-21.9c-1.2-4.3-2.5-7.5-2.9-7.3-1 .6 4 17 6.7 22.3 1.1 2 3.3 5.9 5.1 8.7a32 32 0 0 1 3.8 8.8l.6 3.8-3.8-.7c-4.5-.9-10-.7-12 .4-.8.5 1.4.8 5.3.8 11.8-.1 18.7 4.8 31.3 22.4 6.8 9.5 16.2 19.1 40 41 31 28.6 37.2 37.6 37.1 53.6-.1 9.6-2.1 14.4-6.2 14.4-3.9 0-20.8-15.7-34.6-32.1-9.1-10.9-9.4-11.1-18.6-14.9-9.2-3.8-11.5-5.6-21-16.4-9.3-10.7-16.6-17-31.7-27.4a943.2 943.2 0 0 1-53-39.9c-17.7-14.2-18.1-14.8-19-34.4-.7-14.7-.7-14.8-4.8-22.8a46.2 46.2 0 0 1-4.8-13.3c-1-8.3-3.3-16.8-6.4-23.3-2.4-5.1-3-8.5-4.4-23-4.1-41.9-3.9-73.9.5-105.3 5.1-36.4 11.1-51.4 26.8-66.7 11.4-11 23.6-25.6 36.5-43.5l17.1-23.5C92.4 4.1 94.4 1 93.4 1c-.5 0-9 11.3-18.9 25.2ZM242.7 83c14.7 14.2 48.5 46.4 55.6 53l5.8 5.3-3 3.1c-7.3 7.7-10.8 15.8-9.2 21.3.7 2.4.5 3.7-.7 5.5A2222.8 2222.8 0 0 0 223.6 286a81 81 0 0 1-5.2-7.8c-2.6-4.2-8.6-13.3-13.3-20.2-14.3-20.7-15.3-22.6-22-41.5-8.1-22.9-16.9-37.8-28.6-48.1-8.4-7.4-14.5-16.3-14.5-21.1 0-7.9 7.5-16.7 19.3-22.9 10.4-5.4 17.4-10 24.2-15.9 5.8-5 18.2-14.7 37.4-29.4 5.2-3.9 9.8-7 10.2-6.9.4.2 5.7 5 11.6 10.8Zm54.1 91.4c3.9 4.2 42.8 32 49.2 35.2a34.6 34.6 0 0 0 18.5 3.9 301 301 0 0 0 105.3-38.2c4.1-2.4 7.6-4.3 7.8-4 .2.2 0 5.7-.5 12.3-.6 6.5-1.3 25.4-1.6 41.9-.7 33.9-2.6 58.6-5.6 72.5-1.1 5.2-2.6 15.1-3.4 22a90.4 90.4 0 0 1-8.8 31.8c-2.4 5.1-15.9 19.2-29.7 30.7-13.2 11.1-17.2 15.5-22.3 24.2-2.7 4.5-7.6 11.3-11 15-3.4 3.7-9.6 10.8-13.7 15.8-9.3 11.3-14.2 16-24.4 23.7a401 401 0 0 0-13.6 10.9 151 151 0 0 1-14.1 10c-4.8 3-12 7.6-16 10.3-9.4 6.3-32 15.9-37 15.7-2.2-.1-5.3.8-8 2.3-2.4 1.3-7.2 3-10.7 3.7-4.9.9-6.8 1.8-8.8 4.2-2.1 2.5-3 2.8-5.6 2.3-1.7-.3-4.6-1.5-6.4-2.7l-3.3-2 .6-9.7a35 35 0 0 1 1.8-11.2 14 14 0 0 0 1.9-5.1c.5-2.9 1.6-4.2 5.4-6.7 7.6-4.9 23-12.1 32.2-14.9 4.6-1.5 7.8-2.9 7.1-3.1-3.2-1.1-29.6 10-38.3 16-5.5 3.8-5.8 1.8-1.2-7.3l2.3-4.6 15.8-5.2c8.7-2.8 17.5-5.4 19.4-5.7 3.6-.6 3.6-.6 4.9 4.2 2.6 9.7 6.6 14 14.3 15.4 9.3 1.8 15-3.4 26.7-24.1 6.5-11.6 9.1-14.9 19.8-26.2 8.7-9.2 13.7-15.4 17.6-22a63.8 63.8 0 0 1 21.1-24.3c4.9-3.6 10.8-8.2 13-10.2 5.5-5 18-18.6 20.6-22.5 1.1-1.8-.8-.1-4.2 3.8a178.2 178.2 0 0 1-28 26.2 68.3 68.3 0 0 0-22.8 25.1c-4 7-8.4 12.5-17.7 22.3-8.5 9-13.9 15.6-17.1 21.1-2.7 4.7-4.9 7.5-5.3 6.8-1.4-2.3-18.7 7.5-24.4 13.8-1.8 2-1.8 3.4-.1 7.5.7 1.5.4 1.6-2.1.6-6.7-2.5-10.3-9.1-10.4-18.4 0-10.2 3.9-16.7 21-35a66.5 66.5 0 0 0 14.2-19.2c3.2-6.8 4.5-8.5 8.1-10.6 2.3-1.4 5.2-3.6 6.4-4.9a301 301 0 0 0 13.8-24.3c6.5-12.1 13-23.8 14.5-26 3.5-5.1 11.5-12.5 13.4-12.5.8 0 1.8-.5 2.1-1 1.4-2.2-2.6-.8-7 2.6-2.6 1.9-4.9 3.3-5.2 3-1.4-1.4 3-14.4 7.2-21.2 2.4-4 5.2-10 6.1-13.1.9-3.2 2.7-8.4 4.1-11.6 2.5-5.6 2.7-5.7 6.7-5.8 2.2 0 6.1-.4 8.6-.9 3.5-.7 2.7-.8-3.7-.4-7.9.5-8.2.4-11.1-2.3-3.6-3.3-7.1-13.7-10.1-29.3-1.9-10.1-4.9-20.1-5-17-.1.8.6 3.7 1.4 6.5.9 2.7 2 8.1 2.6 12a88 88 0 0 0 9.5 28.4c2.5 3 2.5 3.1.8 6.3-1 1.8-2.5 5.8-3.4 8.8-1.5 4.8-4 8-4 5.1 0-.5-1.9-5.9-4.1-11.8-5.6-14.5-9.2-18.1-29.6-28.6-14.2-7.3-15.4-7.7-21.5-7.7-8.1 0-14.6 3-23 10.8-10.6 9.9-15.6 17.3-28.7 42.5-12.5 24.2-16.9 30-24.3 32.2-5 1.4-18.8 2.1-18.8.9 0-.3 1.1-1.9 2.5-3.6 4.2-5 5-10 3-19.6a82 82 0 0 0-5.2-15.4c-2.1-4.5-3-7.5-2.4-8.2a2082.3 2082.3 0 0 1 52.8-91.6c14.9-24.3 14.7-24 15.3-24 .3 0 2 1.5 3.8 3.4Zm45 81.1c18.1 9 23.9 13.8 27.5 22.7 5.4 13 7.7 19.5 7.7 21.4 0 1.1-1.8 5-4 8.7-4 6.6-7 15.6-7 21.1a20 20 0 0 1-3.4 8 704 704 0 0 0-22.7 41.5c-3.2 5.9-7 10-13.3 14.4a30 30 0 0 0-6.2 9c-4.4 9-6.2 11.3-19 24.8-10.2 10.8-16.4 20.5-16.4 25.4 0 2.9-1.6 4.1-6.5 4.9-2.2.4-10.7 3-18.9 5.7l-14.9 5-2.6-2.5c-3-2.8-20.4-14-32.3-20.9-4.6-2.6-13-8.8-18.8-13.8a153.8 153.8 0 0 0-22.4-16.9c-1.5 0-.4 1.9 1.4 2.5 2.3.7 14.7 10.2 20.5 15.6 6.5 6.1 12.9 10.7 22.8 16.3 15.8 9 28.7 17.8 29.2 20 .3 1.2-.6 4.3-2 7s-2.5 6.1-2.6 7.5c0 1.4-.7 4.2-1.4 6.1l-1.3 3.5-.1-4.8c-.2-10.7-8.9-20.9-34.2-39.8a175.1 175.1 0 0 1-24.4-21.4l-17.2-18.3a68.3 68.3 0 0 1-8.9-10.4c-.3-1.1-1.4-2.8-2.4-3.8-.9-.9-3.2-4.5-5-7.8a76.4 76.4 0 0 0-13.1-15.7c-8.6-8.5-9.9-10.2-9.9-13.1 0-4.3-3.2-12.3-7.9-19.9a76.1 76.1 0 0 1-9.6-23c-3.4-11.9-3.4-20.8 0-27.8a52.4 52.4 0 0 1 18.5-20.9c11.2-6.6 21.7-7.2 31.3-2 6.4 3.5 10.3 8 16.2 18.7 2.6 5 6.6 11.5 8.7 14.5 4.9 6.8 25.9 31.1 29.9 34.5 4.4 3.7 9.9 4.8 14.8 3.2 2.9-1 4.3-1.1 5.1-.3 1.5 1.5 11.3 1.3 17.8-.3 9.1-2.2 13.2-7.6 27.6-35.6 10.7-20.7 15.7-28.2 24.6-37.1 9-8.9 17.2-13.4 24.5-13.4 4.7 0 7.3 1 20.3 7.5ZM10 280.9c.6 1.6 2.2 8 3.4 14.4 1.6 8 3.3 13.1 5.4 16.9 3.6 6.2 5.1 14.6 5.2 27.9 0 7.3.4 9.3 2.8 14 2.9 5.8 9.4 11.4 38.5 33.5 7.5 5.8 13.7 10.8 13.7 11.2 0 .4-2.4 3.1-5.3 6l-5.4 5.3-8.1-9.9a126.8 126.8 0 0 0-31.4-28.1c-11.9-8-17.1-13.2-20.1-19.9-1.8-4.2-1.9-5.6-1.1-14.7 1-11.6 1.1-51.5.1-56.3-.8-4 .6-4.2 2.3-.3Zm73 120.5c0 1.4-10.7 11.6-12.1 11.6-2.7 0-1.5-2.9 3.2-7.5 5.4-5.2 8.9-6.8 8.9-4.1Zm8 5.2 5.1 3.6-6.8 7.2c-3.7 3.9-7.1 7.2-7.4 7.4-.7.3-9.9-9.4-9.9-10.5 0-.4 1.5-1.8 3.3-3.1 1.8-1.2 4.6-3.6 6.2-5.2 1.6-1.7 3.2-3 3.7-3 .4 0 3.1 1.6 5.8 3.6Zm10 6.8c0 .6-14 14-14.8 14.3-.4.2-1.4-.2-2.2-.7-1.2-.8-.1-2.4 5.9-8.4 6.2-6.2 7.7-7.3 9.3-6.5 1 .5 1.8 1.1 1.8 1.3Zm7.4 5.5a126 126 0 0 1 20.6 20 46.2 46.2 0 0 0 21.5 16.1c7.6 3.1 9.5 4.7 17.2 14a212 212 0 0 0 23.1 24.2c6.3 5.8 7.3 8 5.1 11.9-1 2-1.1 2-3 .3-1.1-1-3.3-4-4.9-6.8-4-7.2-7.7-10.3-15.1-13A287.4 287.4 0 0 1 99.6 441c-8.4-6.9-11.1-9.9-6.2-6.6l6.3 3.7c2.1 1.1 7.6 4.5 12.3 7.3 8.5 5.2 38.1 22.1 47.4 27 4.8 2.5 9.6 3.4 9.6 1.8 0-.5-1.3-.9-2.9-.9-1.7 0-6.9-2.2-12.3-5.3l-16.6-9.4c-4-2.3-13.2-7.6-20.5-12l-20.9-12.3c-4.3-2.5-7.8-5-7.8-5.7a69 69 0 0 1 14.4-13.6 26 26 0 0 1 6 3.9Zm214.1 38.3a49 49 0 0 1-12.5 17 13.5 13.5 0 0 1-6 2.8c-2.2 0-5.9-3.5-6-5.7 0-2 10.2-10.2 16.5-13.3 7.4-3.6 8.9-3.8 8-.8Zm-120.4 44.2A43 43 0 0 1 219 516c4.5 6.6 4.7 7.5 2.4 8.4-2.5 1-5.8-1.7-11.3-9a62 62 0 0 0-8.5-9.2c-1.9-1.5-3.5-3.5-3.6-4.5 0-2.1-.1-2.1 4.1-.3Zm72.6 9.4c-3.9 4.2-23.4 12.1-26 10.5-2-1.2 3.6-5.2 8.4-5.8 2.6-.4 7.4-2 10.6-3.6 6.9-3.4 9.4-3.8 7-1.1Zm-6.4 15.2c1.5 0 2.7.4 2.7.9 0 1-13.6 9.1-21.1 12.5a33.7 33.7 0 0 1-9.4 2.8l-4 .3.3-3.5c.5-5.7 1.1-6.6 4.5-7.8l10.2-3.6a22 22 0 0 1 10.5-2.1c1.9.2 4.7.5 6.3.5Z"/><path d="M357 19.3a22.3 22.3 0 0 0-11.9 12.4 32.1 32.1 0 0 0 .8 18.8c2 4.6 7.9 10.1 12.7 12.1 7.4 3.1 18.1.9 22-4.5 4-5.3 4.6-18 1.4-25.6-5.1-12-14-16.7-25-13.2Zm11.1.7c5.1 1.4 11.4 8.5 13.3 15.1 5.9 19.6-6.4 33.3-22.9 25.5-8.6-4.1-13.5-11.2-13.5-19.8 0-10.3 4.3-16.8 13-19.8 6.6-2.3 5.7-2.2 10.1-1Zm8.8 45a21.5 21.5 0 0 0-10.4 22c.8 3.8 6.1 9.2 11.8 12.2 3.1 1.6 6 2.1 11.2 2.1 7.5 0 11.4-1.4 15.2-5.5 8.9-9.5 3.5-28.3-9.2-31.7a29.5 29.5 0 0 0-18.6.9Zm21.8 2c1.8 1 4.5 3.8 6 6.1 3.6 5.5 4 15.1.7 19.5-3.9 5.4-7 6.8-14.7 7.2-6.4.3-7.8 0-12.7-2.5-5.4-2.9-9.5-7.5-10.6-12-1.1-4.3 1.7-11.4 6.3-16l4.2-4.3h8.8c7 0 9.5.4 12 2ZM83.1 229.6c5.8 6.7 10.1 21.4 10.2 34.4 0 14.7-3.8 20.6-13.1 20.2-3.3-.1-4.3.1-3.2.8.8.5 3.2 1 5.3 1 11.3 0 15.8-17.9 10.1-40.4-1.8-7.1-6.9-16.7-9.4-17.4-1.2-.4-1.2-.2.1 1.4Zm6.4 62.2c0 6.3-.1 6.7-2.6 7.6-1.9.6-3.5.5-5.8-.7-1.7-.8-3.1-1.1-3.1-.7 0 1.5 3.6 3 7.2 3 3.1 0 3.4.3 4.5 4.7l2.5 9.1c2.5 8.6-3.1 13.2-17.3 14-4.9.2-8.9.9-8.9 1.3 0 1.2 7.5 1.1 14.5-.2 7.1-1.3 11.2-4 13.1-8.5 1.3-3.1 1.2-4-.7-9.6a39 39 0 0 1-2-16c.1-5.3-.2-9.9-.7-10.1-.4-.3-.8 2.4-.7 6.1Z"/></svg>