<svg xmlns="http://www.w3.org/2000/svg" viewBox="0 0 2757 1907"><path d="M1445.3 307c9.8 2.1 17.9-1.5 20.5-9.4-9.3-2-14.9 3.3-20.5 9.4zm950 661.7-7.7 32.4c13-8 16-20.1 7.8-32.4zM2237 518.5c-7.5-7.5-32.1-2.2-41.5 6.4l41.5-6.4zm-694-349.3c-10.7-16-33-29.7-42.4-25.7l42.4 25.7zm295 322.3L1836 465c-6 4.8-11.2 8.3-15.7 12.5-4.4 4-3.7 8.2 1.9 10.3 4.6 1.8 9.7 2.4 16 3.8zm-104.3-338.8c28-9.2 40 6.4 48.5 30 .3-15.4 3-29.6-12-37.5-10.8-5.7-25.6-2.8-36.5 7.5zM1899.3 450l.3-2.2c-2.2-.5-4.3-1.1-6.5-1.3-5.6-.5-8.3-3.5-8.6-9.1-.5-7.5-2-8.1-9.4-6a44 44 0 0 1-14.3 2c-6.7-.4-11.1 1.9-14.6 7.4-6.4 10.2-5.2 21.2-3.1 32.8 2.1-1.4 4.5-3.1 4.8-5.2 1.5-8 6.6-12.7 14-14.6 7-1.9 14.4-3 21.6-3.7 5.3-.6 10.6-.1 15.8-.1zm-572.8-105.1c-4.4-29.4-11.6-57.5-7.3-86.5a331.6 331.6 0 0 1 24-84.9c-55.3 49.1-59.2 131.7-16.7 171.4zm1066.9 606.5c4.4-3.2 8.4-6.7 12.9-9.5 6.4-3.8 7-4.8 2.1-10.5-14.9-17.7-29.5-35.6-45.1-52.5a735.2 735.2 0 0 1-75.4-93.7c-13.1-19.8-28-38.4-42.2-57.4-2.1-2.9-4.9-5.2-7.4-7.8.1 3.4 1.2 6.1 2.6 8.6 9.5 16.5 18 33.6 29 49.2 28.3 40.6 57.7 80.5 86.5 120.8 12.7 17.6 24.9 35.6 37 52.8zM2059.6 613c-14.5 15.2-34.3 27.5-44.6 50.2 12.3-10.2 16.9-10.3 30-3.2a51 51 0 0 0 15.8 5.3c11 1.8 22.1 2.9 33.2 3.9 2.3.2 4.8-1 7-1.9 10.8-4.6 21.5-9.6 32.4-14 7-2.7 8-4.8 3.4-10.7-5.1-6.5-10-13.3-15.9-19-2.8-2.8-7.7-4.1-11.8-4.6-3.9-.5-8 1.5-12 1.5-9.3 0-18.7 0-28-1.1-3-.3-5.6-3.7-9.5-6.4zM2223 476c12.3 14.5 24.5 27.7 35.3 42 7 9.3 13.8 19.6 17.6 30.6 11.1 32 1 60.4-20.7 84.3a201 201 0 0 1-74.3 52 114.1 114.1 0 0 1-32.2 8.7c-10.4.9-13.7 5.7-15 14.5-.7 4.8-1.7 9.6-2.6 14.4l2 1c2.2-1.3 4.5-2.5 6.6-4 31.2-20.6 61.9-42 95.5-58.8 13-6.6 25-15.7 36.8-24.7a99.5 99.5 0 0 0 36-47.5c3-9.1 2.7-16.7-3.4-24.4-16.2-20.9-32-42-48.1-63l-22.8-29.5c-.4 9.9-5.3 6.5-10.7 4.4zm-507-313.9c4.8-6 9.7-10.5 12.2-16 3.1-6.8 4.3-14.6 6.3-22 3.8-14.6 2-28.7-6.5-41.1a66.9 66.9 0 0 0-45-29.5c-32.6-5.6-62.4 3.7-89.7 21.7-3.6 2.4-6.3 6.3-8.9 10-1.2 1.6-1 4-2 8l6.2-3.7c8.3-5.8 16.4-11.7 24.8-17.3a108.9 108.9 0 0 1 40.1-18.2c15-2.7 25.9 5.6 26.6 20.7.3 7-.2 13.9-.6 20.8-.9 14.3 3.2 26 14.5 35.8 7 6.2 11.8 14.9 17.5 22.6 1.5 1.9 2.3 4.2 4.5 8.2zM1580.6 363c8.4-16.6 22.3-25.2 35-35 1-.6 1.8-1.4 2.6-2.1 4.5-4 5.6-8.3 3-14.3-2.8-6.5-5-13.6-5.5-20.5a39 39 0 0 0-10-23.7c-4.2-4.8-8.9-9.7-11.5-15.5-4-9-9-15.7-18.7-19.5-7.8-3-8.6-7.2-7-15.8.3-1.3-.7-2.9-1.2-4.3-9.3-21.7-26-36.7-45.2-49.3-5.4-3.5-11.4-6.4-18.5-10.3 2.5 6.8 4.5 11.7 6 16.8a328.1 328.1 0 0 0 38 84.3 170.8 170.8 0 0 1 24.6 61.3l8.4 47.9zm136.3-16.4-4.8-2.6c-17.4-9-36-7.7-54.6-6-5.3.4-11.5.5-15.5 3.4a125 125 0 0 0-41.1 47 16.7 16.7 0 0 0-.3 12c10 25.2 27.1 44 51.4 56.3 5.3 2.7 8.9 1.3 11.5-3.8 13.4-25.8 27-51.6 40.3-77.5 4.7-9.3 8.7-19 13-28.8zM1576.6 407l-2.3-.3c-.4 4.2-.4 8.4-1.2 12.5a5884.4 5884.4 0 0 1-13.5 64.4c-6 27.5-15 54.2-17.3 82.6A513 513 0 0 0 1544 676c.2 1.5.3 3.8 1.1 4.3 6.2 2.9 6 8.8 7.5 14.1 4.6 17 14 29.5 31.3 34.8 20.1 6.2 38.7 1 58-7.6l-24.7-37.4c-17-25.3-36-49.4-46.1-78.6a9.2 9.2 0 0 0-1.2-2.4 59.8 59.8 0 0 1-11.1-35.2c-.4-34.5 6.5-68 11.4-102 2.8-19.6 4.2-39.4 6.3-59.1zm267.7 89.6.8 5.7c2.4 21 6 41.8 7 62.7 2 40.6 4 81 11.3 121 2.2 12.7 2.4 26 9.8 37.4 3.7 5.7 8.9 8.7 16.2 10.4 1.5-9.5 3.5-18.3 4.3-27.1 4-47.6 5.5-95.3 3-143-.1-2.4-1-4.8-2-7-5-13-10.8-25.6-15-38.8a74.3 74.3 0 0 1-3.1-23.8c.4-19 13.5-34.5 31.1-38 3.4-.8 7-.8 10.4-1l.4-2c-4.4-1.2-8.8-3.2-13.2-3.1-4.8 0-9.6 2.1-14.5 3-9.6 2-19.5 3-28.8 5.8-3.6 1-6.4 5.6-9.1 8.9-2.3 2.8-3.7 6.4-6.1 9-2.7 3-3.9 5.4-.5 8.6 6.8 6.5 6.8 6.8-2 11.3zM1578.1 81.4c8.1-6.2 14.7-12.2 22.3-16.7a143 143 0 0 1 48.7-16.6 81.4 81.4 0 0 1 75 22 53 53 0 0 1 16.8 49.3c-1.3 7.8-3.4 15.4-5.2 23.4 4.3-1.5 7.7-3.1 11.4-4.2 22.6-6.4 39 4.8 40.8 28 .5 7-.4 14 0 20.8.3 3.6 1.1 9 3.5 10.4 8.1 4.6 17 7.9 26.5 12 .6-8 1-14.5 1.6-20.9 2.5-26 3.3-51.8-2.2-77.6-5.2-24.4-13.8-47-31-66-28.6-31.8-64.3-42.6-106-38.3-42.9 4.5-73.9 26.5-96.5 61.9-2.4 3.6-3.6 7.8-5.7 12.5zm45 245.4 1.2 1.5c5.9-2 12.3-2.9 17.6-5.9 35.9-20.3 68.4-44.5 88.7-81.8a31.4 31.4 0 0 1 18.6-15.4 50.3 50.3 0 0 0 16-8.2c17.7-14.7 14-49-6.7-59.3-5-2.4-11.6-1.4-17.5-1.4-3 0-6.1 1.2-9.1 2s-6.4 1-8.7 2.8c-7.2 5.5-9.8 4.8-14.8-2.7-5.5-8.3-11-17-18.3-23.7a45 45 0 0 1-15.4-33.7c-.2-5.8.3-11.6.7-17.5 1.4-19.8-8.2-27.8-27-22.1a56.4 56.4 0 0 0-12.5 4.9c-12 7-23.6 14.7-35.5 21.8-8.3 5-14 10.3-14.1 21.5-.1 20.3-3.4 40.6-2.5 60.8.5 10 2.2 19-2.5 28.4-2.3 4.5-3.2 9.7-11 9.5 2.4 2.7 3.6 4.4 5.1 5.6 2 1.6 4.4 2.9 6.6 4.3l-8.2 3.2c-.3.1-.6.5-2.3 2 4.1 2.3 7.9 4.2 11.3 6.7 3.9 2.7 8.2 5.3 11 9 6 8 10.7 17 16.6 25 5.2 7 9 14.2 9.6 23.1.4 6.2 1.4 12.6 3.6 18.4 2.8 7.3 4 14-.4 21.2zm603.2 144.9 1.2-1.3c-1.4-2.7-2.7-5.6-4.3-8.2-19.4-32.5-38-65.4-58.7-97.2a171.9 171.9 0 0 0-66-61.9c-27-13.7-50.2-7.5-67 17.7-15 22.5-17.7 47.3-13.7 73.4 10.2 66.5 48.3 114 102.8 149.8 17.4 11.4 26.2 9.2 42.6-3.3 11.7-9 23.6-18 36.4-25 10.9-6.1 23.4-9.3 36.3-6.5 2.6.5 6.6 4 6.4 6-.2 2.7-3.1 6.4-5.8 7.5a41 41 0 0 1-14.4 2.6 64.9 64.9 0 0 0-51.6 26.1c-10.4 13.4-19 28.2-28.1 42.5a28.4 28.4 0 0 0-2.3 27 72.8 72.8 0 0 1 4.5 37l-4.7 30.6c5.1-.7 10.3-1 15.1-2.3a193.6 193.6 0 0 0 95.4-58.8c29-31.9 32-68.6 4.9-104.5a431.3 431.3 0 0 0-98.7-93.3c-1.7-1.3-2.7-3.6-4-5.4 2.4.1 5.1-.5 7 .5a241.6 241.6 0 0 1 52.9 35.6c4.5 3.9 9.2 7.6 13.8 11.4zM1653 727.3c8.5 13.7 17.3 27.2 25.4 41.2 13.8 24 26.4 48.9 40.9 72.5 19.4 31.7 39.7 39.2 82 34.5a197.9 197.9 0 0 0 87.5-34.3c41.1-27.6 81-57 121.2-86 5.1-3.6 9.5-8.4 14-12.6-.9-1.3-1-1.7-1.4-2a27.6 27.6 0 0 0-2-1.7c-11.7-8.5-17-19-12.6-33.7 1.6-5.2 1.5-11 1.5-16.5 0-5.7-.8-11.3-1-14.4-4.3 3.7-10.2 9.4-16.7 14.5-30.4 23.8-65.2 40-100.2 55.7-11.7 5.2-17.1 2.7-23.2-8.4-16.9-30.6-33.8-61.2-50-92.2a196.5 196.5 0 0 1-21.5-75 93.3 93.3 0 0 0-15.3-46c-4-5.8-9.1-11.4-15-15.1-9.6-6.2-17.2-2.7-20.7 8.2a67 67 0 0 0-1.6 37.1c4.3 17 9.6 33.5 14.4 50.3 7 24.9 1.6 46.8-17.1 64.6-9.2 8.8-19 17.3-29.6 24.2-19 12.2-38.8 23.2-59 35.1zm70.4-379.9c-4 8.8-7.2 17-11.2 24.6-14.7 27.7-29.7 55.2-44.5 83-3.5 6.5-8.4 8-15 5.6-2.2-.8-4.3-1.6-6.3-2.6-21.4-10.6-35-28.8-46.9-48.6-6.9-11.5-5.4-22.1 2.3-32.4 2.7-3.6 5.1-7.4 8-10.8 7.2-8.1 14.6-16.1 21.7-23.9l-18.3-5c-4.4 3.6-10 7.5-14.8 12-10.6 10.3-17.8 21.7-16.8 37.8 1.1 17.6 1.3 35.5-.7 53-4 35.1-10.5 70-14.3 105-1.8 16.7-6.1 34.8 7.8 49.4.3.3.5.8.6 1.2 7.8 26.2 23 48.4 38.3 70.5 12 17.3 23.5 35 35.4 52.7 2.2-1 4.5-1.8 6.6-3 18.7-11 38-21.2 56-33.3a177 177 0 0 0 29-25.7 47.5 47.5 0 0 0 11.3-46.3c-3.8-15.5-8.7-30.6-13-45.9a88 88 0 0 1 .6-52.3c4.5-13.2 14.8-18.2 27.5-12.8a41.3 41.3 0 0 1 14.1 10 92.6 92.6 0 0 1 23 51.4c3 22.9 5.8 45.9 16 66.9 11.5 23.5 23.8 46.7 35.8 70l5.1 9c.7-2.2.5-4 .2-5.7-2.9-19.4-6.6-38.8-8.5-58.4-3.4-35.2-5.4-70.6-8.4-105.8-1.2-14-3.5-27.9-5.3-41.4-6.4-1.1-12-1.5-17.4-3.1-10.1-3.2-12-11.4-4.6-19 3-3 6.2-5.8 9.8-8 6-3.7 8.7-9 8.2-15.8-.5-8-.6-16.2-2.2-24-9-44.8-7.5-89.5-.6-134.3 2.2-14.4 4.3-28.8 6.2-43.2 1-7.7-.7-14.9-6-22.6-1 4.6-2 7.8-2.5 11a242.8 242.8 0 0 1-49.5 114.6c-2.4 3-4.2 6.4-6.2 9.6-2.5 4-1.4 7 2.6 8.7 5.6 2.4 11.3 4.5 17 6.5 21.5 7.8 21.5 8.2 16.6 30.5-6 27.9-10.5 56-4.7 84.6 1.9 9.6 4.4 19.2 6.2 28.8.4 2.3-1 5-1.5 7.4-2.3-.9-5-1.3-6.8-2.8-2.8-2.3-4.7-5.5-7.3-8-5.8-5.4-12.1-10.5-17.7-16.2-3.2-3.2-6.8-7-7.7-11.1-4.7-19.4-8.2-39-12.7-58.4-4.4-19.1-8.8-38.3-14.8-57a51.4 51.4 0 0 0-19.7-26.4zm427.7-14.8c-9.5-29.7-47.2-75-72.9-87.8-6.7-3.4-14.2-6-21.6-6.8-12-1.3-24.1-1.2-36.2-1-9.2.2-18.3 1.5-27.4 2-18.6 1-37.1 1.6-55.7 3-8.2.6-16.3 2.7-24.3 4.4-4.2 1-5.2 3.2-4.2 8 1.6 7.7 2.4 15.9 2.1 23.8-1.2 25.7-4 51.4-4.4 77.1-.3 29.2 1.3 58.5 2 86.9 7 4 14 8 20.9 12.2 1.2.7 1.6 2.8 2.3 4.3-1.5.5-3 1.2-4.6 1.2-4.3.1-8.5-.2-12.8-.2a28.6 28.6 0 0 0-27.5 17c-5 10.2-7 21-3.7 32 4.4 14.2 10.3 28 15 42.2 2.3 6.7 4.7 13.8 4.6 20.6-.3 55.4 1 111-9.5 166.7l54.5-28.3a183.4 183.4 0 0 0 70.1-61.9c11.9-17.7 31-30.5 47-45.5 1.6-1.4 4-2.3 6-3 1.3-.3 4-.1 4.2.5.6 1.4.5 3.6-.3 4.8-2 3.1-4.7 5.8-7.9 9.6 3.5 1 6.3 2.4 9 2.3 9.3-.2 18.7-.3 27.9-1.9 12.2-2 16.8-.8 24.2 9 2.7 3.6 6 6.8 9 10.1 0-4.8-.8-9-2.4-12.9a30.3 30.3 0 0 1 1.6-27.7c6-10.3 12-20.5 18.4-30.5 2.9-4.6 6.4-8.8 9.6-13.1-16.2 13.2-31.8 7.8-47.3-.5a88 88 0 0 1-10.1-6.6 271.6 271.6 0 0 1-51.1-48.5c-30.3-37.4-46.5-80-44.5-128.5 1-22.9 9.3-43.3 25.6-59.8a47.9 47.9 0 0 1 48-13.5 102.6 102.6 0 0 1 41 22.5c1.4 1.2 4 3.1 4.8 2.6 4.7-2.6 6.6.9 9 3.4 3.5 3.4 6.9 7 11.6 11.8zm-698.5-41c2.3-.4 5.4-1.2 8.4-1.5 5-.5 9.7 0 11.8 5.4 2 5.2-.6 9.1-4.3 12.4-8.1 7.3-21 9.1-30.6 4.4-6-3-14.2 1.5-16.4 8a17.7 17.7 0 0 1-6.5 9c-5.2 3.3-11.3 5-17 7.8-7.4 3.8-15.7 6.8-22 12.2-12.2 10.4-24.8 17-39.7 11.2-5.6 22.3-10.6 44.5-16.9 66.4-13.3 46.2 2 86.4 27 123.6 14 20.6 27 41.1 33.8 65.2 5.7 20 8 40.6 7.5 61.2-1 31-3.7 62-5.7 93.1-1.8 28.7.5 55.9 22.7 77.9 9.7 9.7 16.9 21.8 19 35.7 1.2 8.6.7 17.4.8 26.2.2 9.3 4.4 12.7 12.8 8.8a32.8 32.8 0 0 0 13.8-11.1c4.3-7 8.4-15.3 9.3-23.4a101.2 101.2 0 0 1 41.8-71.5c6.3-5 12.9-10 17.7-16.3 6-7.7 12-16.1 15-25.2 5.8-17.6 9.3-36 4.2-54.7-1.3-5-1.3-10.2-1.7-15.4-1-16-1.8-32-3-48-3-40.2-3.3-80.2 6.5-119.6 11.3-45.3 22.6-90.7 29.3-137 2.3-15.8 3.2-30.9 1-46.6-5.1-37.5-15-73-36.7-104.8a209.6 209.6 0 0 1-25.6-55.3c-3.6-11.5-7.2-23.1-12.3-34A72 72 0 0 0 1462 119c-1.6 2.2-2.5 4.6-4 5.3-7.5 3.1-5.7 8.6-3.8 14 1.5 4.1 3.4 8.2 5.5 12.2 4.4 8.5 9.5 16.8 13.8 25.4 4.9 9.9 4.8 20-1 29.6-3 5.1-3.3 9.5 1.6 13.6 5.1 4.4 10.2 4.6 16 .6-3.6-4.5-7.3-8.4-10.3-12.8-3.8-5.6-3.2-11.8.9-15.3 5-4.2 10.2-2.6 14.8.7 6.9 5.1 10.5 12.3 11 20.7a49 49 0 0 1-26.9 48.2c-10 5.7-21 9.9-33 .3l6 30zm480 548.7 7.7-3.5 15.8-7.4c29.8-13 56.7-30.2 76.7-56.3 6.1-8 9.6-18 14.7-26.9 1.3-2.2 4-4.4 6.5-5 3.4-.7 7.1.3 10.7.1a39 39 0 0 0 32-18c5.3-7.6 10.1-15.5 16.4-22.2 4.5-4.8 11-7.7 16.7-11.5 1.3-.9 3.4-1.7 3.7-3 2.3-9.4 4.3-19 6.5-29.5-3 .7-4.3.8-5.5 1.3-10.6 4.5-21.3 9.1-32 13.5-2.6 1-5.7 1.8-8.5 1.5-12-1.2-24-2.3-36-4.3-5.8-1-11.5-3.6-16.9-6.2-10.1-5-16.6-3-22.6 6.3-4 6.2-5 12-3.7 19.5 1 5.6-.5 12-2 17.7-3.4 13 .2 22.7 11.9 29.6 6.8 4 7.8 7.7 1.8 13a435.2 435.2 0 0 1-33.2 27.3c-30 22-60 44-91 64.7-30.3 20.4-63.2 36.1-99.8 41.4-35.5 5.2-67.2-2.5-87.4-35.8-10.8-17.8-20.6-36.2-31.2-54.2-11.6-19.7-23.6-39.2-35.1-58.9-2.4-4-4.7-3.6-8.2-2.2-15.6 6.3-31.3 11-48.4 8.2a53.7 53.7 0 0 1-40.5-26l-2.1-3.3-2.5-.7c1.6 7.4 2.2 14.2 4.6 20.4 9.1 24.6 27.8 41.3 48.1 56.5 12.4 9.3 24.8 18.4 37 28 18.3 14 25.8 33.2 27.3 56 2.1 32.1-6 60.6-23.7 87.6a218.5 218.5 0 0 1-41.3 46.5c-88.7 76.4-170 160.1-248 247.3-40.8 45.7-80.6 92.3-121.8 137.5-76.8 84.1-159.3 162.2-251.9 229.1-54.2 39.2-111.6 72.5-175.8 93a428.7 428.7 0 0 1-139.8 19.4c-17.7-.3-35.3-2.6-51.7-10-22.5-10.3-31-26.6-24-50.1 4.5-15.1 11.4-29.5 17.2-44.2-9.2 1.2-19.3 2.8-29.4 3.9-26 2.7-52.1 5.9-78.2 7.5-28.9 1.8-57.8 2.9-86.7 3-138.6.4-266.5-36-382.6-112.2-7.2-4.7-14.7-8.8-21.7-13.5-1.8-1.2-2.5-3.8-3.8-5.7 2.5-.3 5.5-1.7 7.3-.8 8.3 4.4 16.4 9.2 24.3 14.3a663.6 663.6 0 0 0 241.6 97.4 733.9 733.9 0 0 0 158.5 11.8c35.6-1.4 71.2-3.3 106.7-6.2 23.9-2 47.5-6 71.2-9.4 2.5-.3 4.7-2.4 7-3.7 7.2-3.8 14.4-7.8 21.8-11.5 1.3-.6 3-.7 4.6-.6 5 0 10.6.4 11.8 6.4 1.3 6.2-4.3 7.8-8.6 9.2-7.3 2.3-14.7 4.4-22.1 5.7-5.6 1-9.4 3.5-12.4 8.1a139.7 139.7 0 0 0-20.7 50c-2.4 11.9 3.5 23.1 14.8 30a91 91 0 0 0 41 11.6c84.6 6 163-15.1 237-54.7 58.7-31.4 111.3-71.4 162.3-113.7 87.8-72.8 165.4-155.8 240-241.8 87.8-101.4 179-199.7 279-289.4 18.4-16.4 38-31.8 54.6-49.8 17.8-19.3 32-41.6 35.8-68.7 2.7-18.7 1.8-37.4-4.7-55a72.6 72.6 0 0 0-17.5-24.1 198.7 198.7 0 0 0-27.2-22c-22.5-15.7-44.1-32.3-58.7-58.1l-3.7 19.3a76.2 76.2 0 0 1-24.6 43c-5.5 5-11 9.8-16.9 14.5a89.5 89.5 0 0 0-35.7 63 52.5 52.5 0 0 1-15.3 32.9 28.8 28.8 0 0 1-20.3 9.3c-7.2.1-12-3.7-13-10.9-.8-5.5-1-11.1-.8-16.7a62.1 62.1 0 0 0-13-38.8c-1.9-2.7-3.7-5.7-6.1-8-23-22.1-26.6-50.2-24.7-80 2-31 4.6-62 5.5-93.2.7-22-.4-44.4-8.6-64.9-7.4-18.3-18.1-35.3-28-52.6-19.1-33.1-39-66.2-35.5-106.4 1.5-16.6 6.6-32.8 9.9-49.3 3-15 6-30.2 8.6-45.3.4-2.2-1-5.4-2.5-7-26.2-24.7-35.7-55.7-33.3-90.7 2.2-31.8 15.6-59 35.8-83.2 3.9-4.6 8.3-8.8 12.7-13 7.2-6.6 14.5-13 22-19.5 3.6-3.1 8-8.4 12.5-3.6 4.7 5.2-1.4 9.4-5.2 11.5-10.5 5.8-15.3 15.4-19.7 25.5a248 248 0 0 0-22.7 93.5c-.4 19.2 4.1 38.6 6.4 57.9.6 4.9 1.7 9.7 1.9 14.6 0 4.1 1.5 6 5.4 7.1 9 2.6 17.7 1.8 24.6-4.6a91.8 91.8 0 0 1 38.5-21c6.5-1.9 11.7-5.4 13.3-13.5.7-3.3 5.8-6.8 9.6-8 16.2-5.3 21.3-14.7 16.5-31.1a38.5 38.5 0 0 1-2.3-13.1c.2-2.8 2.6-6.8 5-7.8 2.2-.9 5.7 1.6 8.6 2.7 2.8 1 5.7 3.1 8.4 2.9a45 45 0 0 0 38.2-44.5 39.3 39.3 0 0 0-6.5-16.3c-1-1.7-5.2-1.6-8-2.3.4 2.6.1 5.6 1.4 7.8 1.6 2.9 4.5 5 6.6 7.6 6.5 7.9 4.7 13-5 16.2a18.6 18.6 0 0 1-19.4-3.9c-6.2-5.4-8.6-12-4.6-19.2 7.4-13 4-24.5-2.9-36-4.2-7.4-8.6-14.8-12.2-22.5-2.6-5.3-3.8-11.3-5.9-17.9-1.7-.5-5-.6-7-2.2-2.7-2.2-6.2-5.6-6-8.5 0-2.8 3.5-6.8 6.4-8 10.1-4 20.3-1.7 30 2.5a66.2 66.2 0 0 1 25.8 22c2.1 2.8 3.7 3.9 7.6 3 3.4-.8 7.5.2 11 1.5a90.6 90.6 0 0 1 43.4 36.7c5.8 8.7 12 17.2 18.9 25.6 2.3-8.2 7.5-14.6 5.1-24.5-4-16.7-4.2-34.1-.6-51.2.8-4.2 1.8-8.4 2.2-12.6.7-5.8 1-10.5-2.8-16.8a26.8 26.8 0 0 1 .5-27c3.5-5.8 7-11.6 11.1-16.9 31.8-42 75-54.5 125.8-51.8 46.8 2.5 95.8 45 108.2 105.6 6.2 30.1 5.9 60 2 90.2l-1.6 12c-.9 5.4-4.2 7.4-9.2 5.5-7.7-3-15.6-5.7-22.8-9.7-3.8-2.1-6.1-6.6-8.7-9.6-1.6 17.3-12 29.3-29.5 34.9-9.2 3-14.8 9-19.5 17.2a180.2 180.2 0 0 1-60.2 63c-5.7 3.7-11 8-17.1 10.7-9.3 4.3-19 7.5-28.7 11-2 .8-4.1 1.1-6.2 1.6l.2 2.8c7-.6 15 1 20.5-2 17.6-9.4 35.2-6.3 53.1-3.2 35.8 6.4 53.8 30.4 61.4 63.4 6.8 29.8 12 60 17.7 90.2 1.2 6.2 4 10.1 9 14 8.4 6.5 15.8 14.3 23.6 21.6l-5.8-26.8c-5.9-28.7-2-57.1 3.2-85.4.8-4.4 1.2-9 2.4-13.2 1.6-5.6-.9-8.5-5.7-10.3-8.6-3.3-17.3-6.3-25.7-10-8.9-4.1-10.2-9.2-5.5-18 1.3-2.3 2.6-4.7 4.3-6.8a256.1 256.1 0 0 0 52.4-120c.2-.9 0-2 .5-2.6l4.7-6.7c2.4 1.7 5.7 3 7.1 5.3a46.8 46.8 0 0 1 5 31.8c-2.6 18.2-5.5 36.3-8 54.5a317.8 317.8 0 0 0-2.3 77c1.8 16.8 4.2 33.5 6.2 49.5 2.4-2 5-4.6 8-6.8 1.8-1.3 4-2.4 6.2-2.7a590 590 0 0 1 26.2-3c4.7-.4 7.7 2 8.7 6.7 2 9.7 2 9.7 14.3 9.3v-26.2c-.2-27.8-.8-55.6-.4-83.3.4-20.8 2.3-41.6 3.1-62.4.2-4.8-1-9.8-2.3-14.4-2.2-7.6-1-11.8 6.8-13.8a172 172 0 0 1 30.3-5.4c28.2-2.1 56.3-3.8 84.5-5 11.8-.4 23.8 0 35.5 1.5 17.1 2.2 30.8 11.8 43.3 23a205 205 0 0 1 48.5 64.8c11.6 24.4 26 47.2 38.4 71 29 55.5 68 103.7 106.1 152.7 5.5 7 10.5 14.5 15.6 21.9 4.1 5.9 4.7 12.1 3 19.2-6.6 25.8-23.3 44.4-44.1 59.1-16 11.3-33.6 20.5-50.4 30.8l-79 48.8c-1.2.8-2.5 2-4 2.4-2.8.5-6.6 1.7-8.5.4-2-1.4-3.2-5.4-3.2-8.1.1-4.4 1.6-8.8 2.5-13.2l2-8.3-1.7-1.4c-3.6 3-7.7 5.6-10.7 9.1-5.4 6.3-10.4 13-15 19.9a48 48 0 0 1-49.6 22.3c-10.7 31.6-34.2 52.1-61 69-16.6 10.5-34.7 18.7-52 27.9 40.4 65.6 74.8 135.4 121.9 197.8a171 171 0 0 0 124.9 70c42 4.4 79.2-7 109-37.9a404.6 404.6 0 0 1 79-64.3c2.5-1.5 4.3-5 5.1-8 3.3-12.6 6.5-25.2 9-37.9.7-3-.1-7.2-2-9.7-28.5-40.1-57.2-80.2-86.3-120-24.4-33.4-48.4-66.9-66-104.5-2-4.4-4-9-5.4-13.7-.5-1.8 0-5.5 1-5.8 1.8-.7 4.8-.4 6.5.8 3.2 2.3 6.3 5 8.8 8.2 14.9 19.4 30.7 38.2 44.1 58.5a760.9 760.9 0 0 0 84.3 103.8c13.8 14.6 26.4 30.5 39.1 46 7.6 9.4 6.2 14.5-4.4 20.3-10.4 5.8-12 10-7 20.4 7.8 15.8 6 26.5-10.8 39.4-4 3-6 6-6.4 10.9-2.7 32.8-4.1 65.7-8.7 98.3-2.4 17.1-3.8 34-3.8 51.2a869.6 869.6 0 0 0 30.4 219 921.2 921.2 0 0 0 48.6 138 623 623 0 0 1 45.5 161.7c6.1 41.5 14.6 82.4 32.1 121 23.2 51 64.7 77 117.4 87.5 25.1 5 50.7 7 76 .2 8.7-2.4 17-6.8 25.5-10.2 2.4-1 4.9-1.5 7.3-2.3l1.4 2c-3.2 2.6-6 5.6-9.6 7.7a92.8 92.8 0 0 1-42.6 13.4c-37.2 2-73.3-2.6-107.2-19.4a152.9 152.9 0 0 1-72.5-73c-15-31.2-23-64.3-29.6-98-7.2-37.6-13.2-75.5-23.1-112.3-8.2-30.4-20-60-32.8-88.8-25.6-58-41.9-118.5-55.8-180-13.9-61-17-122.9-16.9-185 .1-27.7 3.6-55.4 6-83 1.3-16.3 3.3-32.5 5.1-49.4l-4.5 2.4a347.3 347.3 0 0 0-69.5 56.9 129.6 129.6 0 0 1-81.3 42 195.8 195.8 0 0 1-84-10.5 160.5 160.5 0 0 1-76-55.5 884.6 884.6 0 0 1-77.3-118c-16.5-29.5-33.5-58.8-50.2-88.2-1.1-2-1.8-4.3-2.5-5.8z" fill-rule="evenodd"/></svg>