<svg xmlns="http://www.w3.org/2000/svg" viewBox="0 0 677 1536"><g clip-path="url(#a)"><path d="M494 377.6c3 .5 5.3.3 7.6.6 2.3.2 4.7.4 7 .8a65.4 65.4 0 0 1 13.4 3.7c2.1.7 4.1 2 6.6 2.7-1.8-4.1-3.5-8-5-11.8-1.4-3.9-1.4-8-2-12.2a293.4 293.4 0 0 0-26.1 14.7l-1.4 1.5ZM99 667.3l.8-.3-1-3c-1.3-4.4-2.6-8.7-3.7-13-1.4-6-1.5-12-2-18-.9-13.4.2-26.7 2.6-39.9 1.7-9 3.6-17.9 5.5-26.8a333 333 0 0 1 10.7-40.3 475.5 475.5 0 0 1 34.8-73.4l7-11.5a9.6 9.6 0 0 0 1.4-4.3c.4-4.5.8-9 1.5-13.4a61.2 61.2 0 0 0-.7-23.5 21.5 21.5 0 0 0-9.4-14l-2.6-1v7.2c-.1 2.4.3 4.7 1.6 6.8 2.4 3.7 3 7.8 3.2 12 0 .6-.4 1.2-.8 2.2-.7-1.2-1.3-1.8-1.5-2.6-2-5.7-5-10.9-8.4-16-1.2-1.9-2-4-2.6-6.1-1-3-.8-6.6.2-9.7 2 3.7 1.7 8.2 5 11.7-.3-3-.2-5.4-1.3-7.6-1.3-2.7-2.8-5.5-4.3-8.1a11 11 0 0 0-6.8-5.4c-3.4-.9-6.4-.2-8.7 2.6a14 14 0 0 0-3.4 9c0 2.9.3 5.8.3 8.8.1 4.4.2 9-1.3 13.5-1.7-2-1.2-4.1-1.3-6.2-.2-2-.2-4.2-.3-6.3l-.6-6.7c-.1-2 .3-4.1-.3-6.3-2.4-.5-4.6-.5-6.8-.4-4.2.3-7.3 2.2-8.8 6.2-1.1 2.8-2 5.8-2.7 8.8-1.2 5.4-1 11-.9 16.4 0 1.8.2 3.5-.2 5.6-.5-.6-.8-.8-1-1.2-1.8-7.2-2-14.6-1.8-22.3-1 .1-1.7 0-2.3.3-2.6 1-4.7 2.6-6.2 4.9-2.3 3.3-3.6 7-4.4 10.8-.9 4.6-.9 9.2-.7 13.9v5c0 .5.2 1.3-.8 1.2-1.2-1.4-1.2-3.3-1.6-5l-.7-5.5-.2-5.9c0-1.7.4-3.5.5-5.3h-.7l-.9 1c-4.3 5.6-6.6 12-6.4 19.2a92 92 0 0 0 2.7 19.6c1.7 7.3 4.1 14.5 5 22.1.8 8.3.9 16.6-.8 24.8-1.7 8.7-3.5 17.3-4.2 26.2l-1 15.5c-.9 14.8.1 29.5 2.5 44.1 2.7 17 6.7 33.6 11.5 50.1 3.2 11 7.1 22 12.8 32 1.4 2.6 3 5 4.6 7.5Zm374 540.4c-8 3.3-15.4 7.7-21.7 13.6-10.6 9.9-19 21.4-25.5 34.4a204.2 204.2 0 0 0-15.4 42.2c-3.7 15-5.5 30.1-6.6 45.4-.6 7.5-1.4 14.8-3.1 22.1-2 8.2-5.9 15.2-11.9 21-2.3 2.3-4.6 4.5-6.8 6.9-2 2.3-4.1 4.6-5.9 7.2-1 1.5-2 3.4-2.3 5.3a27.7 27.7 0 0 0 4.2 22.1c4 5.6 9.3 9.8 14.7 13.8 5.3 4 10.4 8 15.3 12.5a83.9 83.9 0 0 1 19 25 74.2 74.2 0 0 0 25.5 28.6 27.3 27.3 0 0 1 6 5.4c1.8 2.3 3.8 4.4 5.9 6.5a9.5 9.5 0 0 0 4.7 2.7c2 .5 3.6-.4 3.9-2.6a12 12 0 0 0-1.6-8.1l-4.6-7.1c-.3-.5-1-1 0-1.9 2.3 2.5 4.9 4.8 6.8 7.5 2.9 4 4.3 8.5 2 13.5-.2.2 0 .5 0 1 1.1.4 2.3.9 3.5 1 1.2.2 2.4-.3 2.8-1.4 1.2-3.5 2.5-6.9 1.2-10.7-.7-2-1.6-3.9-2.8-5.6-.4-.6-1.3-1-.9-2.3 2 1.2 3.4 3 4.7 4.8 2.4 3.1 3.5 6.6 2.7 10.6l-1.2 6.3c.8.9 2 1.1 3.3 1.3 2.4.2 4-.9 4.8-3.2l.8-3.3c1-3.6.6-7-1.2-10.2l-4-7c-.2-.3-.1-.8-.3-1.6 9.8 8.7 11 15.8 7 27 .7 1 2 1 3 1 1.7.1 3-.5 3.6-2.3l1.4-3.5c1.3-3.5 1.1-7-.3-10.3l-2.3-4.5c-.3-.5-1-1.1-.4-1.9h.3c5.3 4.4 7.8 9.9 6.3 16.8l-1 4.5v2c3 0 5-1.3 6.8-3.2a9 9 0 0 0 2.8-6.8c0-4.1-.8-8-2-12-1.6-5.5-2.7-11.2-3.5-16.9a67.7 67.7 0 0 0-9.3-26.5c-3-4.8-6-9.7-9.3-14.5a232 232 0 0 1-17.8-31c-3.5-7.4-4.5-15-2.7-23a44.8 44.8 0 0 1 6.7-15.4c2.9-4.3 6-8.5 9.2-12.6l36-46.6c9-11.5 17-23.5 23.9-36.3a50.8 50.8 0 0 1 8-11.3c2.6-3 5.5-5.6 8.1-8.5a96 96 0 0 0 12.9-17.2c5.6-10 8-20.9 7.2-32.4-.4-4.8-.6-9.6-.2-14.3a238.9 238.9 0 0 0 .4-59.3c-1.5-13.6-3-27.1-5.6-40.5-2.3-11.9-4.5-23.8-7.6-35.4-2.2-7.8-4.8-15.3-6.8-23a382.9 382.9 0 0 0-13.4-40.4c-4.4-11.4-9.2-22.7-13.9-34-1.1-2.6-2.5-5.2-3.7-7.9l-3.6-.3c-1.8 0-3.6 0-5.4.2-7.3.7-14.4 2.7-21.2 5.2a147.9 147.9 0 0 0-35.5 19.1 403 403 0 0 0-52.7 46.6 247.6 247.6 0 0 0-25.2 32.2c-1.2 2-2.6 4-3.3 6.4l3.3 2.7c4.6 3.7 9.3 7.2 13.8 11 4.7 4 9 8.7 12 14.1 2.8 5 5.5 10.1 8 15.3 5.2 10.8 10.2 21.6 15.2 32.4a224.8 224.8 0 0 0 35.3 53.7c5.7 5.9 12.5 10 19.8 13.2 6.6 3 13.5 5 20.5 6.6l2.7.8c-3.8.7-6.7.5-9.4 0-9.1-1.8-17.8-5-26-9.4-2.8-1.6-5.4-3.5-8.2-5.3ZM172.1 812.8c-3.6 1.9-6.4 4-9.1 6.2l-4.9 4.1a75.1 75.1 0 0 0-14.6 16.3c-3.2 4.8-6.3 9.6-9.3 14.5-3.3 5.4-6.7 10.7-9 16.6-1 2.4-1.8 4.8-2.3 7.2-.7 3-.2 4 2.6 5.4a64.4 64.4 0 0 1 15 10.8l7.3 7a269.3 269.3 0 0 1 33.8 38c11.6 16 22.4 32.4 33.6 48.6l2 3.2a417.9 417.9 0 0 1 29 58.5 37 37 0 0 1 2.3 7.2 7 7 0 0 0 3.8 5.2c1.5.8 2.9 1.7 4.4 2.4 5 2.5 10.4 4.3 15.8 5.9 7.4 2.1 15 3.3 22.6 4.6 10.3 1.8 20.5 3.4 31 4.1 12.9.9 25.8.4 38.5-2.2 4.4-.9 8.8-1.7 12.8-3.4l4.5-7.9c7.4-12 16-23 25.6-33.4a474.7 474.7 0 0 1 39.4-37.5c15.9-13.7 33.6-24.3 53.4-31.5a129 129 0 0 1 21-5.8c4.4-.8 8.7-1 13 .4l.8-.1.8-1a60.6 60.6 0 0 0 7.2-19.7c.9-6.6 1.7-13.3.8-20-1.5-10.3-4.3-20-8.3-29.6l-9.6-23.4-7.7-19.6c-2-5.1-4.6-10-7.6-14.5-.9-1.4-1.7-3-3.4-3.5l-4.3 3a151.5 151.5 0 0 1-51.9 21.3c-7.6 1.5-15.1 3.3-22.7 4.5-12.3 2-24.8 3-37.3 4.2-19 1.8-37.9.6-56.8-.2-8.5-.4-17-1.4-25.6-2.3-7.8-.8-15.6-1.6-23.4-2.8-12.5-2-25-4-37.4-6.4a178.5 178.5 0 0 1-52-17.8c-7.3-4-14.3-8.3-20.3-14-1-1-2.3-1.7-3.5-2.6Zm-48.6 75.3-4.1 3.2c-5.6 4.7-11 9.7-16.7 14.2-5 4-9.6 8.3-13.9 12.9a4398.6 4398.6 0 0 0-22 23.8 251.9 251.9 0 0 0-35.3 48.2c-6.8 12.3-12 25.3-16.1 38.8l-6.9 23a61.9 61.9 0 0 0 3 45.6c4.2 8.5 9 16.6 15 23.9 8.3 10 16.3 20.5 23.5 31.3 6.4 9.6 13.5 18.7 20.5 27.9a237 237 0 0 0 11.8 14.3c10.5 11.7 21.2 23.2 31.8 34.8 8.8 9.6 18 18.6 27.4 27.5a188.1 188.1 0 0 1 17 18.7c2.4 3.1 4.3 6.5 5.9 10.2 1 2.2 1.6 4.5 1.8 6.9l.6 6.3c.3 3.2.8 6.4.8 9.6.2 9.9-1.3 19.6-3 29.3-2.1 11.9-4.6 23.7-6.7 35.6a89.4 89.4 0 0 0-1.3 29.4c.2 1.4.2 2.8.2 4.2.4 8.3 5.1 14 11 19.1l.3.2c1.4.8 2.4.7 3.4-.4a8.5 8.5 0 0 0 1.4-9c-.4-1-1-1.7-1.5-2.6-1-2-1.4-3.9 0-6.2.5.7 1 1 1 1.5a9.7 9.7 0 0 0 2 4.1c2.9 3.6 3 7.5 1.2 11.5-.3.7-1 1.3-.6 2.5 1.7 1 3.4 2.1 5.3 3 1.6.9 3.6-.2 3.9-2 .3-1.9.4-3.8-.5-5.7-.8-1.8-1.2-3.7-1.5-5.7-.3-1.9 0-3.8 2-5.6a14 14 0 0 0 1.8 9c1.4 2.3 2 4.6 1.7 7.3-.4 2.5 1 3.6 3.5 3 2-.4 3.3-1.5 3.8-3.5a9 9 0 0 0-.2-5.3c-.6-1.8-1.1-3.5-1.5-5.3-.3-1.4-.4-2.8 1-4l2.2 5a13 13 0 0 1 .2 12.6l-.3 1.3c.9.2 1.7.6 2.4.5 1-.2 2-.5 2.7-1a7.9 7.9 0 0 0 2.5-8.4l-1.6-4c-1-2.7-1.3-5.5.2-8.3.3.4.7.5.7.7.4 3.6 1.7 6.8 3.2 10 1 2.4 1.1 5 .3 7.4l-.4 2c3.5 1.7 4.9 1.6 8-.2 4.6-2.7 6.1-7.3 3.3-11.9a19 19 0 0 1-3-7.6c-.7-1.1-2-.4-2.1-1.8l2.4-2.7a34.8 34.8 0 0 0 10-18.7c1-4.8 1.8-9.6 2.5-14.5 1.1-8 2.7-15.7 5.6-23.3a44 44 0 0 1 12-18c3-2.6 5.9-5.3 8.7-8 6.2-6 9.8-13.3 10.3-22 .2-4.3-.5-8.4-3.1-12-2.1-2.8-4.3-5.5-6.7-8.1-2.7-3-5.7-5.8-8.6-8.7a86.8 86.8 0 0 1-12.3-18l-1.6-2.5c-1.6 1-1.3 3.7-4 3.7l-.2-1.6c0-3.2-.7-6.1-1.6-9.1-2.1-7.7-4.3-15.4-6.1-23.2-2.7-11.7-5-23.4-7.7-35a161.2 161.2 0 0 0-17.5-45.9 98 98 0 0 0-29.2-32.2c-5.6-3.8-11.6-6.8-17.7-9.8-3.6-1.8-7.2-2-11-.9a260.3 260.3 0 0 1-11 3 60 60 0 0 1-18.3 2c-.4 0-1.2.3-1.2-.9 5.1-2 10.7-2.6 17-4.8-5.3-1-9.6-1.4-13.9-2.2-4.2-.7-8.5-1-13.3-3.2l2.4-.4c2.3 0 4.7 0 7.1.2 9.3.7 18.5 1 27.8.3l8.4-.8c7.5-.7 15-1.7 22.5-3 8-1.4 15.9-3.5 23.8-5.6a208.3 208.3 0 0 0 18.4-6 258 258 0 0 0 17.4-7.3l16.3-8c1-.5 1.8-1.2 2.5-1.6 1-2.2.4-4-.3-5.7-3-8.1-5.9-16.4-9.4-24.3a309.3 309.3 0 0 0-25.8-47.3c-5.2-7.9-10.6-15.6-15.8-23.4a366.3 366.3 0 0 0-32.4-41.5 269.3 269.3 0 0 0-23.5-23 51 51 0 0 0-12-7.8Zm261-525.5c-4.3-2.1-9-3-13.7-3.8-7.3-1.5-14.8-1.8-22.2-2.4-2.5-.2-5 0-7.6 0-2.1 0-4.2.5-6.4 1.1 4.8 1.4 9.5 2.5 14.3 3.7 4.6 1.3 9.1 2.6 13.6 4.2a40.8 40.8 0 0 1 13.5 6.9l-2.7-.5c-2.6-1-5.2-2.2-7.8-3-5.6-1.7-11.1-3-16.7-4.6-7.6-2-15.4-3.1-23.1-4.4-6-1-12-1.8-17.9-2.9-15-2.8-30-3.9-45.2-1.5-7.8 1.2-15.5 3-22.9 5.6-11 3.8-21.3 9.4-31 16a119.8 119.8 0 0 0-34.2 35c-3.6 5.6-6.8 11.3-10.2 17-4 6.7-6.8 14-11.3 20.6-3.2 4.6-5.7 9.7-8.4 14.6a618.7 618.7 0 0 0-18.4 37.4c-6 13-11 26.5-15.1 40.2-3 10.2-5.1 20.5-7.3 30.8-2.7 13-5.5 26.1-6.5 39.5-1 13.3-1 26.7 1.2 39.9a116 116 0 0 0 4.4 18.9c.5 1.5 1.2 3.2 2.2 4.5a84.2 84.2 0 0 0 22.3 20.3c3.6 2.2 7.3 4.2 11 6.2 3.9 2.1 8 3.2 12.5 2.8 2.9-.2 5.5-1.1 8.2-1.8 6.1-1.5 11-5 15-9.8a9 9 0 0 0 2.1-4.8c1-6.8 2-13.6 3.2-20.4 3-17 7-33.6 12.5-49.8 6-18 13.2-35.3 20.8-52.5 3.6-8.2 7.3-16.4 9.8-25.1 1.3-4.4 2.2-8.7 2.5-13.2 0-1.1.1-2.3.5-3.3.1-.6.8-1 1.3-1.4 2 2.7 2.1 3.7 1 11.5 1.5-.6 2-2 3-3l5.7-5.5c.5-.5 1.2-.8 1.9-.2-.7 2.5-.8 2.6-2.8 5l-6.5 8.3c-2.2 3-4 6.1-5 9.7-1 4.3-2.5 8.3-4.2 12.3-3.2 7.8-6.6 15.6-9.7 23.4a426 426 0 0 0-27.7 95.7 372 372 0 0 0-4 36.9c-.8 11.6-1.3 23.3-1.9 35-.3 6.3-.4 12.6-.9 18.9-1 11.7-.7 23.3.3 35a8 8 0 0 0 1.7 4.6 17 17 0 0 0 3 3c3.2 2.4 6.5 4.8 10 7 9.9 5.8 20.3 10.7 31.2 14.6 13.8 4.8 28.2 7.6 42.6 9.8 11 1.8 22.2 3.3 33.4 4.7a413.6 413.6 0 0 0 19.2 2.1c9.1.8 18.2 1.6 27.3 2 11.8.4 23.6.7 35.4.6 12-.1 23.8-1.4 35.7-2.7 5.2-.6 10.4-1.1 15.4-2.1 8.3-1.7 16.5-3.5 24.7-5.5 14.9-3.7 28.6-9.9 41.4-18.3 1-.6 1.8-1.3 2.7-2 1.1-10 1.8-19.9 1.6-29.9-.2-13-.4-26.1-.3-39.2 0-7.2.6-14.3 1-21.5l1.6-30.7c.5-8.9 1.5-17.7 1.8-26.5.8-17.6 1.7-35.1 1.1-52.7-.4-12.8-.5-25.6-1.1-38.4-.5-10-1.5-19.9-2.5-29.8-.8-8.1-2-16.2-3.1-24.2l-.9-6 1.6 2.9.9 2.4a59.6 59.6 0 0 1 1.3 4.8l.5 2.5c.2.8.3 1.7.6 2.5.2.6-.1 1.6 1 2.2l1-3.9c.7-1.8 1.3-3.7 3-5 .4-.1 1-.2 1.2 0 .3 0 .5.6.5 1 0 .5 0 1-.3 1.6-1 3-1.4 6-1.8 9-.4 4.1-.8 8.2-1 12.2a25 25 0 0 0 .4 5.5c1 6.5 2 13 2.2 19.6l.5 15.6.3 4.7 1.7 13.8c.2 1.4.6 2.4 1.9 3 .3 0 .5.2.7.4L539 632l2 1a172.5 172.5 0 0 0 69.6 11.8c10-.2 19.5-2 29-4.8a44 44 0 0 0 21-13.5l3-3.6c3.4-4.3 5.7-9.2 6.7-14.8a61.9 61.9 0 0 0 1-14.2c-.2-3 0-6 0-8.9l.6-7.5c.5-10.6-.5-21.1-1.3-31.6-.5-7.4-1.6-14.8-3.1-22.1l-5-22.7c-3-13.6-6.3-27-10.8-40.2-6.2-18-13.5-35.5-23.3-51.8a55.6 55.6 0 0 1-8.5-35.4l.2-1.3c.7-5 2-9.9 3.3-14.7a332.2 332.2 0 0 0 4.2-16.4 45 45 0 0 0-2-27.3c-1.1-2.8-1.9-5.9-2.6-8.9l-3.4-14.3c-.5-2.2-1.4-4.3-2.8-6.1-.8-1.2-2-2-3.4-2.1-1.6-.2-3.1 0-4 1.2 1.3 3.7 2.7 7.2 3.8 10.8 2.2 6.6 2.3 8.1 1.4 11.6-1.4-1.3-1.8-3-2.5-4.4l-2.2-5a100.3 100.3 0 0 0-2.3-4.5l-2.6-4.7a76.2 76.2 0 0 0-10.8 12c3 7.4 3.4 9.7 1.8 13.2-2.3-3-3.4-6.5-5.5-9.7-4.4 3.4-7.5 7.7-10.8 11.9l.6 2.5 1.2 8.3c0 .5-.4 1-.6 1.7-2.4-2.7-2.5-6-4.4-8.7-5 4.7-9.7 9.3-14.6 13.6-5 4.4-10.4 8.6-15.6 12.9-.9 4.8 2 9.1 2.3 14.4-3.6-3.1-5.1-7.2-8.3-10.2l-6.8 4.4c-2.3 1.5-5 2.6-7 4.4-.4 3.2-.2 6.1.6 9 .5 2 1 4 1.7 6 2 6.1 4.8 11.8 9.2 16.4 3 3 6.2 5.8 9.3 8.6 1.9 1.7 3.9 3.2 5.8 5l5 4.8-3.3.7 1.4 2.2c4.6 6.1 8.4 12.7 11.8 19.5l6.4 12.8c8.2 17.3 16.7 34.4 23.7 52.2 5 12.8 9.8 25.7 14.5 38.7 1 2.6 2.4 4.7 4.4 6.5l8.6 7.4c4.6 3.9 8.2 8.5 11 13.8l1 2.7c-4-2.8-6.2-6.2-9-8.7-3-2.6-6-5.3-10.2-7.8 1 3.7 2.6 6.4 3.5 9.3 1 3 2 5.9 2.7 8.9.7 3 1 6 1.4 9.1.5 3 .8 6 .4 9.3-.4-.4-.8-.5-.8-.7-.6-2-1.3-4-1.7-6-1-4.3-2.2-8.5-4-12.5-2.2-5.3-4.5-10.6-7-15.8a337.6 337.6 0 0 1-14.9-35.7 345.5 345.5 0 0 0-14.1-35.2c-7-14.8-14.2-29.3-21.3-44a143 143 0 0 0-18.1-27.8c-6.5-8-14.5-14.1-24-18a61.9 61.9 0 0 0-14-4.4 164.5 164.5 0 0 0-33.7-1c-7.1.2-14.2 1.4-21.3 2.3-8 1-16 1.7-24 1.4-4.7-.2-9.4-1-14-2.2a14.3 14.3 0 0 1 3.7-.2 69.2 69.2 0 0 0 19.7-1.4 282 282 0 0 1 45.7-6.4c2.1-2 4-4 6.3-5.7 3.6-2.8 7.4-5.5 11.4-7.9 7.2-4.4 14.5-8.4 21.8-12.7l17.2-10.6c8.5-5.3 16.4-11.4 24-17.8 9.7-8.2 18.4-17.5 26.7-27 11.3-13 21.4-27 29.3-42.6 1.7-3.5 3.3-7.1 4.7-10.8 1.6-4.6 3-9.3 4.4-14 2.4-8 3.7-16.2 4.8-24.4 1.4-11 1.2-22 .6-32.9-.4-5.4-1.3-10.8-2-16.3-1-8.2-3.4-16.2-5.6-24.2-1.5-5-3-10.2-5-15.1-2.8-6.8-6-13.4-9.2-19.9a84.6 84.6 0 0 0-6.2-10.5 172 172 0 0 0-15.5-19.4c-9.6-10.3-20.4-19-32.6-25.8l-8.8-5c-7-3.6-13.9-7.3-21-10.8-6-3-12.4-5-18.8-7a193 193 0 0 0-29.8-7.6c-6.5-1-13-1.7-19.6-2.5a151.7 151.7 0 0 0-31.1-.3c-11 1-21.8 2.6-32.5 4.8-14 3-27.6 7-40.3 13.3a318.4 318.4 0 0 0-36.9 21.2c-6.2 4.2-12.1 8.7-17.4 14-7 6.7-14.4 13-20.5 20.5-3.9 4.7-8 9-11.6 13.9a92.6 92.6 0 0 0-9 14.2c-2.8 5.6-4.9 11.3-7 17.2-3.2 8.9-3.9 18-2.5 27.4 1 6.8 3.4 13.3 5.4 19.9 1.3 4.6 2.2 9.2 2.5 14 0 1.1 0 2.3-.3 3.4a43.1 43.1 0 0 1-6 13.3c-2.2 2.8-4.2 5.7-6.4 8.4-5.7 6.8-11.5 13.5-16.6 20.7a91.9 91.9 0 0 0-14.7 32.4 123 123 0 0 0-2.5 26.3 81.2 81.2 0 0 0 6.6 32c3.7 9.4 9.2 18 14.6 26.5 1.3 2.1 2.9 4.2 4.9 5.4h.7c1-.3 2.2-.5 3.2-.9a99.7 99.7 0 0 1 33.2-5l1.2-.1c9.5-.5 18.8.4 28 2.4a145.4 145.4 0 0 1 8.6 2.2c2.2.6 4.4.6 6.7.4 3.9-.4 7.7-1.4 11.5-2.2l25.7-4.9a98.3 98.3 0 0 1 12.6-1.4c-.3.5-.4.9-.6 1l-21.2 5.5c-.6.1-1.3.2-1.4 1 4.5.4 9 .8 13.4 1.5a222.3 222.3 0 0 1 16.5 3.4c2.7.7 5.2 2 7.8 3 .6.4.7.9.4 1.4v.1Zm84 841.6-1.4-1.9a184.5 184.5 0 0 1-21.8-28.9 476 476 0 0 1-23-42c-4.3-8.6-8.5-17.3-13-25.7a71.5 71.5 0 0 0-28.5-28.2 95.4 95.4 0 0 1-21 5.5c-6 1-12.2 1.4-18.4 1.7l-16.4.4c-9.5.1-18.8-1-28-2.6a212.8 212.8 0 0 1-40-10.5c-3.5-1.4-7-3.4-10.8-5.4a192.3 192.3 0 0 1-90.3 31c.8.8 1 1.2 1.4 1.4 19.5 10 33.7 25.3 44.2 44.4a167.8 167.8 0 0 1 15.7 42.1l12.9 53.7c.2 1 .5 2.2 1 3.2 5.8 11.8 13 22.7 22.5 31.9 3.2 3 6.3 6.4 9.2 9.8a27 27 0 0 1 5.4 26 38 38 0 0 1-10.5 18l-8 7.5-1.6 1.5a38 38 0 0 0-11.6 19.6c-1.6 6.3-2.9 12.6-4 19-.5 3.5-1.1 7-2 10.3-2.4 8.8-5.8 17-13.2 23 .3 2.7 1.1 5 2.5 7.2.9 1.6 1.7 3.2 2.2 5 1.5 5.5-.7 10-5.3 13-4.1 2.8-7 2.7-12.2 0-1.8.7-3.7 1.4-5.5 1.8-2.1.4-3.9-.5-5.1-2.3-3 .7-6 2.3-8.5-.2l-2.4 1.1c-1.2.6-2.5.6-3.7 0l-5-3c-1.2-.8-2.4-1.6-4-1.4-2.8.3-5.2-1-7-3-5.4-5.4-9.3-11.5-9.3-19.6 0-2.5-.4-5-1-7.5-.8-4.2-.8-8.4-.2-12.6a648.4 648.4 0 0 1 3.4-22.5c1.6-9.1 3.6-18.2 5-27.3 2.2-14 2.9-28 1.3-42-.2-2-.7-4-1.8-5.6-2-3-4-5.9-6.2-8.5a427.4 427.4 0 0 0-16.6-18 1098.3 1098.3 0 0 1-41-44.1l-17.2-19.2c-12-13.8-22.9-28.5-32.7-44l-11.5-18.1c-1.3-2.1-2.9-4-4.7-6-5-5-10.3-9.9-14.5-15.8-7-10-12.8-20.5-15-32.6a69.2 69.2 0 0 1 1.4-33.4c2.4-7.8 4.6-15.6 6.9-23.5a227.2 227.2 0 0 1 39-72.8c12-15.3 25.3-29.7 39.1-43.5 5.7-5.7 11.9-10.7 17.9-16l11.2-10V882c-.3-5.3.8-10.4 3-15.2a145.2 145.2 0 0 1 34.5-49 55 55 0 0 1 15.7-10.8l.2-2.7L169 778c-.8-13-.5-25.9.8-38.8l1-11c.5-8.5 1.8-17 3.2-25.4l.4-4c-1-.7-1.4 0-1.8.6a34.4 34.4 0 0 1-24 10.7c-2 .2-4.2-.3-6.2-.8a19 19 0 0 1-4.7-1.7 100 100 0 0 1-24.9-16.4c-13.2-13-23.4-28-29.7-45.5-4-11.4-7.2-23-9.8-34.9-2-8.9-3.9-17.8-5.5-26.8a233.1 233.1 0 0 1-4-39.8 368.3 368.3 0 0 1 1-29c.7-9 2.4-17.9 4.3-26.7a71.3 71.3 0 0 0 1.3-22.2c-.2-2-.8-3.8-1.3-5.8l-5.6-22a56.5 56.5 0 0 1-1.2-16.3c.5-9 4.4-16.2 11.8-21.3.7-.5 1.2-1.2 1.6-1.8l1.6-3c3-5.4 7-9 13.7-9.2l1.1-2.7c3.7-9.3 10.5-12.8 20-10.2l1.7.4 2.2-3.2c4-4.5 8.8-6.4 14.7-5 4.1 1.1 6.7 4 8.6 7.6l2.7 5.8c3.4.7 6.5 2 9.1 4.3 4.8 3.8 7.4 8.8 8.8 14.5a49 49 0 0 1 .5 22.5c-.6 2.9-1 5.7-.7 8.8.4-.5.8-1 1-1.6a439.6 439.6 0 0 0 3.3-6.4 138 138 0 0 1 25.5-35.4 98 98 0 0 1 10-9 145 145 0 0 1 29.4-18l2.2-1.2.3-.7-1.6-2.6c-3.4-5.4-6.9-10.6-10.2-16a84 84 0 0 1-9-20.8c-1.8-6-3.3-12.2-3.8-18.5l-.3-6a104.8 104.8 0 0 1 15-58.3c3.5-5 7.3-10 11.1-14.7 4.3-5.3 8.8-10.3 13.2-15.4 1-1 1.7-2.2 2.8-3.6h-3.2c.5-2 1.8-3 3-4.1 1-1 1.7-2 2-3.6.2-2.4 1.4-4.5 3.1-6.2 1-1 1.3-2.2 1-3.5-.3-1.8-.7-3.6-1.2-5.3-2-6.1-4.1-12.3-6.3-18.3a57.4 57.4 0 0 1-1.7-30.4c.8-4.4 2.4-8.6 3.7-13 3-9.6 8.5-18 14.1-26.2 3.6-5.3 7.3-10.7 11.7-15.4a199 199 0 0 1 24.8-23.4c3-2.2 5.8-4.8 8.8-7.1a214.5 214.5 0 0 1 70.3-35.5c12.6-3.8 25.3-6.6 38.3-8.3 12.7-1.6 25.5-1.7 38.2-.5 12.5 1.2 24.8 3.2 37 5.6 16.8 3.2 32.4 9.3 47.4 17.2l17.5 9.2c2 1 3.9 2.3 5.8 3.5 8.5 5.7 16.8 11.7 24.2 18.8a111.6 111.6 0 0 1 14.5 17c1.7 2.4 3.7 4.6 5.3 7 6.3 9.8 12 19.6 17 30 4.1 8.8 7.2 17.8 9.9 27 1.7 6.1 3.4 12.4 4.8 18.7a182 182 0 0 1 1.8 51.7 150 150 0 0 1-8.9 36.7 230 230 0 0 1-6.7 16c-2.6 5.3-6 10-9.6 14.8l-2 3 2.2.7a11 11 0 0 1 7 5.7 37 37 0 0 1 2.8 7c.9 3.2 1.3 6.6 2.1 9.9 1.2 4.9 2.3 9.8 3.9 14.6a54.8 54.8 0 0 1 1.2 29.6c-1.2 5.4-2.8 10.8-4.2 16.3l-4.8 17.4c-1.3 4.7-.7 9.2.8 13.7 2 5.7 4.7 11.2 7.7 16.4 17 29 27.9 60.4 34.8 93.1 2.1 9.8 4.3 19.5 6.1 29.3 1 5.3 1.6 10.6 2 16 .6 7.5.8 15 1.2 22.7.3 8.1-.6 16.2-2 24.3-.4 3-.6 5.8-.5 8.8.3 4-.2 7.9-1.1 11.7-1 4.5-3 8.5-5.8 12.1a65 65 0 0 1-10.6 10.9 35.3 35.3 0 0 1-10.6 5.8c-9 3.1-18.1 5-27.5 5.9-12.1 1-24.2 1-36.2 0a124 124 0 0 1-66.6-26.8l-1.4-.8c-1 .9-.6 1.9-.6 2.8 0 21-.6 41.9-1.8 62.8l-2 36.2c-.4 6-.4 12-.3 18.1 0 15.3-.2 30.7-.5 46 0 10.1-.4 20.2-.6 30.5 4.4 2.3 7 6.3 9.4 10.4 3.5 5.7 6.3 11.6 8.7 17.8 5 13 10.3 26.1 15.6 39.1 4.2 10.4 7.1 21 8.4 32.1.7 6.5.2 13-.8 19.3-1 7.1-3.4 13.7-6.8 19.8-1.1 2-2.5 3.7-3.9 5.8l1.5 3.3c4.2 9.5 8.6 19 12.3 28.6 3.3 8.7 5.8 17.6 8.7 26.5l1.1 3.6c6 16.4 10.2 33.3 14.5 50.1 3.6 13.8 6.4 27.7 8.8 41.7a502 502 0 0 1 4.6 43.2c.8 14.2.4 28.4-1 42.5a60.8 60.8 0 0 0 .4 16 49.4 49.4 0 0 1-8.3 36 92.5 92.5 0 0 1-17.2 19.6c-3.5 3-6 6.7-8.4 10.5a453.5 453.5 0 0 0-8.8 14.9c-4 7-8.5 13.9-13.5 20.4l-41.7 54c-3.2 4.2-6.5 8.5-9.5 12.9a42.2 42.2 0 0 0-6.3 13.7c-1.8 7-.8 13.6 2.3 20 5 10.5 11 20.3 18 29.5a94 94 0 0 1 19.1 42.6c1.3 7.8 3 15.5 4.4 23.2.5 3 .8 6.2.6 9.2a12 12 0 0 1-14 11 8.8 8.8 0 0 0-3.8-.1c-2.7.7-5 0-7.2-1.3-1.8-1-3.5-1.7-5.5-1.7-2.1 0-4.1-.7-6-1.9-.8-.5-1.8-.9-2.7-.9-2 0-3.8-.7-5.5-1.8a6 6 0 0 0-4.3-1.1c-2.8.3-5.2-1-7.4-2.6a44.9 44.9 0 0 1-8.8-9 9.6 9.6 0 0 0-3.2-3.2 67.2 67.2 0 0 1-19.3-16.8 77.8 77.8 0 0 1-9.4-13.5 125.7 125.7 0 0 0-19.2-26c-3.4-3.5-7.6-5.8-11.6-8.3-6.8-4.3-13-9.4-18-15.8-4.2-5.3-6-11.4-5.6-18l.2-3c0-6.4 2.5-11.8 6.7-16.4a167 167 0 0 1 8.8-9c6.3-6 10.3-13 11.9-21.4.9-4.7 1.7-9.4 2.3-14.2l3.2-29.3a226.3 226.3 0 0 1 16.2-60.9c4.1-9.6 9.1-18.7 15.2-27.2a82 82 0 0 1 20-20.3c4-2.7 8.2-4.9 12.8-6.2l2.6-.9Z"/><path d="M354.7 261.7c-.1 1-.1 2.2-.4 3.2a23.2 23.2 0 0 0-.3 8.8c.8 5.7 4.7 8.4 10.2 7.1 2-.4 3.8-1.1 5.5-2 5.9-2.9 12.1-4.4 18.5-5.3 6.9-1 13.5-2.9 19.8-5.8a46 46 0 0 0 15.7-12.4 63.2 63.2 0 0 0 14.3-29.1c1.1-7.3 1-14.6-.5-21.8a36 36 0 0 0-10.4-19.4 24 24 0 0 0-8.5-5.2 48.2 48.2 0 0 0-22-2.6c-8.9 1-14.8 6-18.7 13.8l-2.3 5-1 1.5c-1.5-.4-1.3-1.4-1.3-2.1.2-5.9 2-11 6-15.3 4-4.2 8.5-6.6 14-8a48.4 48.4 0 0 1 27.8 1.8c7 2.4 12.2 7.4 16.2 13.6a47 47 0 0 1 7 21.4c.5 6.5 0 13-1.2 19.3a68.3 68.3 0 0 1-25.4 39c-6.6 5-14 8.2-22.2 9.7-5 1-10 1.6-15 2.5-2.5.4-5 1.4-7.5 2.4a51.6 51.6 0 0 1-8.8 2.9 10.2 10.2 0 0 1-12.2-7c-1.6-5.7-1-11.2 2.8-16Z"/><path d="m384.6 202.9 1.6-1c2.3-1.9 4.8-2 7.5-1.1l4 1.5c1.9.8 3.8 1.5 6 1.5 2-.1 3.4-.9 4.6-2.5 1.2-1.6 1.8-3.1.8-5v-1a3 3 0 0 1 1.9 2.3c.2 1.2.2 2.6-.1 3.7-1.3 4.4-6.1 7.2-11 6.3-2.1-.4-4.1-1.2-6.1-1.8l-2.8-1.1c-1.4-.5-2.7 0-3.2 1.2-.6 1.5-.4 3.4.7 4.2.4.4 1 .6 1.5.9 3.4 2.1 5.9 5 7.1 9 .6 1.7 1.2 3.5 2.9 4.5 1.4 1 2.4 1 3.9 0 1.2-.7 1.7-1.7 1.4-3.1l-.5-2v-2a8 8 0 0 1 3 5.3c.2 1.6-.5 3-1.7 4-4.3 4-8.9 2.7-11.8-1.7-.5-.9-.8-1.8-1.1-2.8a15 15 0 0 0-7-8.6c-1.1-.7-2.1-1.7-3.1-2.7-4.7-4.5-4.3-9.8-1.4-14.2 4.3-6.5 10.2-10.8 18.4-10.9 3 0 5.9 0 8.8.5a23 23 0 0 1 18 14.3 42.3 42.3 0 0 1-.9 36.7c-4.3 8.9-10.9 16-19 21.6-3.2 2.2-6.8 3.9-10.5 5-.4.2-.8.1-1.7.1.7-.6 1-1 1.5-1.3 2.8-1.7 5.7-3.2 8.4-4.9a50 50 0 0 0 22.2-35.7 33 33 0 0 0-3.3-19.3 21.3 21.3 0 0 0-22.4-12.3c-1.8.2-3.7.3-5.4.9a18.7 18.7 0 0 0-11.2 11.5Zm49.3 341.5c-1.8.4-3-.4-4.2-1.1a52.4 52.4 0 0 1-12.5-10 24.6 24.6 0 0 1-5.9-12.3c-.5-2.8-.8-5.6-.9-8.4l-.5-27.8c0-2.8.2-5.6.9-8.8.6.7 1.1 1 1.2 1.5l1 6.2c1 10.3 2 20.7 3.2 31a39.6 39.6 0 0 0 12.7 24.5l4 3.8 1 1.4ZM306 522.6c1-.3 2-.8 3-1 6.6-1.6 13.2-2.9 19.5-5.1 2.7-1 5.3-1.9 7.9-3 3.6-1.4 6.5-3.8 8.8-7a80.8 80.8 0 0 0 9.8-16c1.7-4.2 3.8-8.2 5.7-12.2.5-1 1.2-1.9 1.8-2.8 1 .6.7 1.3.6 1.9-1.9 6.1-3.6 12.4-5.8 18.4-2.3 6.1-6 11.4-10 16.5a17.8 17.8 0 0 1-10.8 6.8c-3.3.7-6.6 1.2-10 1.7a676.4 676.4 0 0 1-15 2l-5.3.4-.2-.5Z"/><path d="M396.7 241.7c1.2-2.3.7-4.2-1.5-5.7l-5.3-4.2c-1.3-1.1-2.8-1.3-4.3-.5a7.3 7.3 0 0 0-3.9 4.7c-1.2 4.7-4 8.2-7.7 11.2-1.2 1-2.4 2-3.4 3.2a10.9 10.9 0 0 0-1.8 3.7c-.5 1.8.3 3.3 1.8 4.3 1.2.9 2.7.6 4.2-.7.8-.8 1.5-1.7 2-2.7.6-.8 1-1.7 1.4-2.6 2.8-4.6 6.5-8 12.2-8.6 2.2-.2 4.5-.5 6.3-2Zm2.3-1.8c.2 3-2 5-4.6 5.8-1.4.4-3 .6-4.5.8a12 12 0 0 0-10 7.1l-1.7 3.5c-.8 2-2.3 3-4.1 4a5.9 5.9 0 0 1-7.5-1.9c-2-2.6-2-6-.3-9 1.5-2.5 3.7-4.2 5.8-6.1l2.1-2c1.8-1.8 2.7-4 3-6.3.7-3.7 3-6 6.1-7.7 2.4-1.3 6.2-1.6 8.5 1 1.4 1.8 3.2 3.1 4.8 4.7a7.8 7.8 0 0 1 2.4 6Zm8.1-46 .3-.1v.2l-.3-.2Zm-52.3 67.9.3-.7.3.4-.7.2h.1Zm29.8 100.7h.6a30.4 30.4 0 0 0-.6 0Zm-185 920.7a5.7 5.7 0 0 1-5.3 1.6 9.3 9.3 0 0 1-5-1.9c-1.2-1-2-2.3-2.2-4-.2-.9-.2-1.9-.1-2.8 0-1-.2-2 .8-2.7.6-.4 1.3.4 1.7 2.4.7 3.8 3 5.8 6.7 6.6 1 .1 1.8.4 3.3.8ZM423.1 1394a9 9 0 0 1-8.3-1c-1.8-1.1-2.8-2.8-2.7-5a18 18 0 0 1 3-8c.4 1 .8 1.6.9 2.2l-.1 4.2a5 5 0 0 0 2.6 4.9l4.6 2.7Z"/></g><defs><clipPath id="a"><path fill="#fff" d="M0 0h677v1536H0z"/></clipPath></defs></svg>