<svg xmlns="http://www.w3.org/2000/svg" viewBox="0 0 1961 3046"><g fill-rule="evenodd"><path d="M1490.2 212.1c-7.4 0-14.9.3-22.6 1-49.8 4.1-85.6 50-95.7 123-13.9 99.8 23.8 227.3 108.8 259.2 59.3 22.3 113.5 12.5 148.8-26.7 46.8-52 47.7-140.8 2.2-231.7-28-55.9-61.4-94.2-98.9-120.6a210.7 210.7 0 0 0-42.6-4.2zM1391.9 656c-1.2 0-2.3.3-3.2.9-11 7-17.2 51.2 16.4 221.4 14 71 32.2 151 51.3 231l1.6-22.2c16.8-233-2.2-384-53.2-424.8-3.9-3.1-8.9-6.3-13-6.3zm68.2 503c-17 176.8-49.4 356.4-79 461.2a351 351 0 0 0-13.6 125.3c115.4-103.7 179.8-176.6 179.8-204.4 0-26-27.2-136.6-58.6-264.7l-28.6-117.4zm454.9 526.4c-13.2 0-34.4 11.2-66.8 55-29.6 40.3-42.3 75.7-33.8 94.7 3 6.6 8.6 10.6 16.1 11.3 13 1.2 35.1-7.7 55.2-36.6 21.4-30.8 37-46.3 47.5-56.6 6.9-6.8 11.6-11.5 14.6-17.6-3.2-23-11.8-44.4-26.3-49.2-2-.7-4.1-1-6.5-1zM483 2588.9c3 0 6 1.5 7.8 4.3 2.5 3.7 2 8.6-1.2 11.8-24.6 24.3-64.5 47-122 69.6a11 11 0 0 0-7 10.1 11 11 0 0 0 6.6 10.5c26.2 11.6 70.3 17 131.8-23.6 15.3-10 38-23.3 64.1-38.7 78.2-46 196.4-115.4 259.2-182.7 59.2-63.4 163-108.4 246.5-144.5 36.3-15.8 67.6-29.3 90.4-42.2 31.9-18 174-101.8 311.3-182.8l5-3a2318 2318 0 0 0-49.5-120.6c-31-71.4-56.9-131-65-195.2a4123 4123 0 0 1-76.5 66.4c-143.8 122-287.4 229.7-319.7 244.3-63.2 28.8-196.5 72.9-220.3 70.7l-14.3-1.4c-34.5-3.4-92.3-9-175-8.9-101 .3-351.5 73.1-362.2 105.3-3.6 11-2.6 20.5 3.1 28.4 9 12.5 29.4 20.3 53.1 20.3 26.7 0 130.6-24.3 174-34.8 5-1.2 10 1.1 12.2 5.8 2.2 4.7 1 10-3.1 13.2-34.4 26.6-102 74.4-169.9 95.6a619.9 619.9 0 0 0-148 72 22 22 0 0 0 6 39.5c10.5 3.3 23.7 5.5 39.1 6.7 65.5 5 161.2-24.2 189-33.3a4.4 4.4 0 0 1 3 8.1c-6 2.7-13.6 6.5-22.5 10.8-36.8 18-98.3 48.3-169.2 58.3-5.7.8-22.9 3.3-25 9-2.2 6.6 11.1 21.6 21.3 32.3 20.5 21.5 61.9 15.2 92.1 10.6 10-1.5 18.5-2.8 24.7-2.8 19.2 0 114.7-35.5 143.5-46.4a5.2 5.2 0 0 1 4.6 9.3c-28 17.3-125.2 75.4-200.7 96-5.1 1.3-8.4 3.9-9.2 7.2-.8 3.4 1 7.5 5 11.2 10.8 10.2 38.2 17.2 80 3.9 56.7-18.2 147.1-54.7 183.3-69.5 1.2-.5 2.4-.8 3.6-.8zm840.2 456a4 4 0 0 1-2.6-.9 4 4 0 0 1-.5-5.6c.7-.9 71-85.3 133-214.6 57.2-119.2 119-302 88.1-496.2a1281 1281 0 0 0-62.8-242.3l-3.8 2.3c-137.4 81-279.5 164.9-311.5 182.9-23.1 13-54.7 26.7-91.2 42.5-82.7 35.8-185.7 80.4-243.8 142.7-63.5 68.1-182.3 137.9-261 184a1659.9 1659.9 0 0 0-63.7 38.6c-64.5 42.6-111.4 36.7-139.4 24.2a18.9 18.9 0 0 1-11.4-18c.2-7.8 4.8-14.5 12.2-17.3 55.6-21.8 95.6-44.7 119.1-68 .6-.4.6-1 .2-1.6-.4-.6-1-.8-1.7-.5-36.3 14.8-126.9 51.4-184 69.7-45 14.4-74.8 6.5-87.8-5.6-6.2-5.8-8.8-12.7-7.2-19 1.5-6.3 6.8-11 14.8-13 58.4-16 132-56 172.3-79.4C348 2565.4 288.9 2586 273 2586c-5.6 0-13.9 1.3-23.5 2.7-30.1 4.6-75.7 11.5-99-13-19.9-20.7-26-31.7-23-40.3 3-8.7 14.6-12 31.3-14.4 59-8.3 111.8-31.1 148.7-48.8-42.3 11.4-102.5 24.3-148.5 20.8-16-1.3-29.8-3.6-40.9-7a30 30 0 0 1-8-53.8 628 628 0 0 1 150-73c66.6-20.8 133.4-68 167.4-94.3 1.6-1.3 1-3 .7-3.4-.2-.6-1.1-2-3-1.5-54.3 13-149.3 35-175.9 35-26.3 0-49.1-9-59.6-23.6a38.2 38.2 0 0 1-4.2-35.7C199 2195.3 468 2125.3 555.3 2125a1620.6 1620.6 0 0 1 190 10.4c20.5 1.8 151.8-40.7 216.3-70 31.2-14.2 176.8-123.5 317.8-243.2 29-24.6 56-48 80.6-70-4-41.1-.6-84.5 13.4-134.3 27.8-98.6 63.6-287.2 80.8-483.5-62.5-261.6-103.4-463-69.9-484.4 6.7-4.2 15.3-2.2 25.5 6 65.7 52.5 71.7 260.7 52.6 478.4 11.4 47.6 23 94.8 34 140 33 133.8 58.9 239.6 58.9 266.6 0 37.8-96.2 133-186.9 214.3 7.2 65.6 33.4 125.9 65 198.6 15.6 35.8 32.7 75 49.3 119.6 116-68.4 223.4-131.7 258.6-152 3.4-2 8.7-4.8 15.4-8.4 36.8-20 123.1-66.7 165.9-112.3 22-23.5 26.6-36.8 26.6-43.8a167 167 0 0 0-.2-8.9c-2.8 3.3-6.2 6.7-10.2 10.7a355.6 355.6 0 0 0-46.5 55.5c-18.4 26.5-42.4 41.8-62.5 40a26.5 26.5 0 0 1-22.7-16c-9.8-22 2.8-59.4 34.7-102.7 33-44.8 60.7-64 82.1-57 14.1 4.7 22.7 19.7 27.6 36.4.1-14.5-2.5-36.9-7-75.4-2.1-17.3-4.5-37.7-7.2-62.1-24.2-217.2-48.4-373.3-114-623.4-31.8-121.7-48-223-62.2-312.4-15-94.1-26.9-168.5-51.5-227-23.1-54.9-44.3-98.5-72.6-132.9a182.8 182.8 0 0 0-83.2-59.9c31.8 26.4 60.5 62.2 85 111.4 47 94 45.7 186.1-3.3 240.6-37.1 41.2-96 52-157.6 29-88.7-33.4-128.2-165-114-268 10.7-76.8 49.2-125.3 103-129.8 17.5-1.5 34-1.3 49.4.4-75-45-164.6-48.4-257.4-51.9l-13.8-.5c-114-4.4-248 11.1-272.4 55.6-6.5 11.9-4.6 25 5.9 40.1 23.4 33.9 62.3 39.5 90.6 43.5 19 2.8 32.8 4.8 36 14.5 3.3 9.7-5.5 23.5-31 49.1-30.7 30.6-77.6 59-127.3 89.2-96.6 58.6-206 125-225.7 226.7a4 4 0 0 1-4.7 3.2 4 4 0 0 1-3.1-4.7c20.2-105.2 131.3-172.6 229.3-232 49.3-29.9 95.8-58.1 125.8-88 21.3-21.4 31-35.1 29.2-41-1.7-5-15.3-7-29.6-9-28.1-4-70.7-10.2-96-47-12.3-17.5-14.4-33.8-6.4-48.4 26.2-47.7 159.4-64.4 279.7-59.8l13.8.5c100.8 3.8 197.8 7.4 277.4 63.2 41.8 9 76.5 31.4 106.6 68 28.9 35 50.4 79.2 73.7 134.7 25.1 59.5 37 134.3 52.1 229 14.2 89.1 30.4 190.3 62.1 311.5 65.7 250.7 90 407 114.1 624.6 2.7 24.3 5.1 44.8 7.2 62 7.3 62 9.8 83.8 3.6 98.6.9 7.2 1.2 14 1.2 19.8 0 12.3-9.7 28.8-28.8 49.2-43.6 46.6-127.6 92-168 114l-15.2 8.3c-35.2 20.2-143.3 84-259.7 152.7a1288.4 1288.4 0 0 1 63.7 245.2c31.2 196.2-31 380.8-88.8 501a1135.2 1135.2 0 0 1-134 216.1 4 4 0 0 1-3.1 1.4z"/><path d="M599.3 988c-6.7 48.5 14.4 128.5 70 193.2 37.8 44.2 104 95 203.6 85.9 34.4-3.2 69-8.3 102.3-17.6-31.5-5-67.6-8.5-108-10.5-87-4.1-155.9-39.9-204.6-106.2-39.2-53.4-54.8-112.3-62.2-140.6l-1.1-4.1zm-70.5 1451.6c-90.3 0-174.8-23.2-245.7-67.8a408.5 408.5 0 0 1-151-167.5c-38.5-81.2-38.4-161.3.3-204 13.6-15 25.8-20.4 36.1-16 17 7.3 22.6 40.4 20.5 68.2-.7 9.8-4.3 42.1-20.5 46.4-8 2-16.2-3.2-24.5-15.7a4 4 0 0 1 1.1-5.5 4 4 0 0 1 5.6 1c6 9.1 11.6 13.5 15.8 12.4 7-1.8 13-18 14.6-39.2 2.1-29.6-4.6-55.5-15.7-60.2-8.6-3.7-19.5 5.6-27 14-36.6 40.3-36.2 117 1 195.1C192.8 2314 334 2442.1 555 2431c146.6-7.3 266.4-81 337.3-207.3 73.6-131 81.5-302.3 19.4-416.8-80.8-148.8 6.5-214.1 91-277.2 37.3-28 76-56.8 101.2-93 31.7-45.2 40.4-83.1 26-112.6-16.6-33.6-62.9-57.6-138.3-71.7a544.8 544.8 0 0 1-118 22.6c-80.4 7.3-155.2-24.1-210.6-88.6-53.8-62.7-83.8-153.1-69.7-210.3.4-1.4 1.4-5.4 5.2-5.5 4.3 0 5.2 3.4 9.5 19.5 15.1 57.3 61.1 231.5 259.4 241 47.5 2.2 89 6.7 124.5 13.3 120.6-39.5 220.4-139.7 225.3-405.4 2.1-116.5 27-186.6 73.7-208.6 54.1-25.4 116.2 23.5 118.8 25.5a4 4 0 0 1-5 6.3c-.6-.5-60.8-47.8-110.4-24.5-43.8 20.5-67 88.3-69.1 201.4-2.9 153.8-36.6 262.9-103.1 333.4-31 33-69 57.6-115.7 74.8 70.3 15 114 39.6 130.6 73.3 15.9 32.3 7 73-26.5 120.7-26 37.2-65.2 66.5-103 94.8-85.6 63.9-166.3 124.2-88.8 267 63.4 116.7 55.4 291.3-19.4 424.5-72.4 128.8-194.5 204-343.9 211.4-9 .4-17.8.6-26.7.6z"/><path d="M428.5 1239.2c10.2 2 20.9 4.6 31.5 8.2 56-70 62.7-177.8 68.3-268.8l.2-3.3c-1.7 3.2-3.2 6.5-4.6 9.6l-2.8 6.1-13.8 43.7c-22.3 71.6-43.7 140.3-78.8 204.5zm-4.1 7.4a515 515 0 0 1-35.8 55c27-11.7 48.6-28 65.8-47.6a228 228 0 0 0-30-7.4zM284 1290c30 15.9 63 21.6 91.6 15.4a497.4 497.4 0 0 0 40.3-60c-26-3-52.9 5-76.6 12.2l-12.6 3.7c-15 6.5-29.2 16.8-42.7 28.7zm183 39.8c6.7 2.3 13 5 19.1 8a92 92 0 0 0-39.2-19.5c5 4.5 10.8 7.2 16.1 9.7l4 1.8zm-214.5-9.7c-12.3 18.5-12.8 25.4-12 27.8.3.6.7 1.3 2.2 1.8l.4.2c48.4 22.3 94.8-2.3 124.6-35.1-29 3.7-61-3.2-90-19.2a826 826 0 0 0-25.2 24.5zm22.2 243v.2l1.4 2 .3-1-1.7-1.1zM181 1540a293.4 293.4 0 0 0 51.4 74.4c6-5.4 12.1-10.7 18.4-15.9 8-8 15.9-15.9 21.2-25-1.4-1.7-2.7-3.7-4-5.7a53.5 53.5 0 0 0-5.5-7.4 4 4 0 0 1-.9-4.3 4 4 0 0 1 3.7-2.5h8a4 4 0 0 1 2.2.7l3.1 2c8.1-32.5-1.9-64.6-12.5-98.5l-4.6-15c-6.1-18.3-20.5-49.2-48.2-49.2-.4 0-.9 0-1.3-.2-10.6-3.5-20.6.3-27.4 10.4-27.6 50.8-14.2 107-3.6 136.2zm57 80a236.2 236.2 0 0 0 45.3 34.2 249 249 0 0 1 15.1 8.5c20 11.8 42.6 25.2 62.5 13-6.7-29.8-33.2-52.5-59-74.5-8.1-7-16.6-14.2-24.2-21.6-5.8 9.1-13.8 17-21.6 24.8a569.8 569.8 0 0 0-18 15.6zM75.3 2397a4 4 0 0 1-3.7-2.6c-5.8-16.7-12-33.3-18-49.3a1452.4 1452.4 0 0 1-36-106.4c-11-51-20.4-106-16.2-165.4C5 2014.5 19.8 1955 49.7 1880c53.3-115.6 108.7-197.3 176.8-260.3a301.3 301.3 0 0 1-52.7-76.4l-.2-.4c-11-30.4-25.1-89.4 4.3-143.3 8.8-13.3 22.2-18.4 36.1-14 32.3.4 48.4 34.4 55.2 54.7l4.6 15c10.8 34.5 22 70.1 11.9 105.8 11.3 8 22.3 16.3 33 24.4 43.6 33 84.7 64 134.7 64 5.7 0 14.8-5 19.3-12.3 3-4.7 3.3-9.3 1.2-13.7-27.5-41.2-64-72.3-102.5-105.3-13.7-11.7-27.9-23.8-41.5-36.3-2.3.6-2.8 0-8.2-7.7a4 4 0 0 1-.7-2v-.1c0-.6 0-1.3.3-2 0 0 0 .1 0 0l.3-.4c.4-.6.8-1 1.3-1.3h.1l1-.4c.7-.2 1.4-.2 2.1 0h.2v.1c1.2.4 3 .8 4.7 1.1 4.3.9 9.7 2 13.2 5.5 28.9 26.6 59.8 45.5 92.5 65.5 24.7 15 50.3 30.7 74.8 50 8 3.9 15.5 7.6 26.8 11.4a33 33 0 0 0 30.1-10.9 28.6 28.6 0 0 0 5.4-27.4l-23.5-35.2c-39-36.3-79.1-73.4-122.7-104.9l-1.1-.7c-12.2-7.6-24.8-15.4-37.2-23.4a5 5 0 0 1-.4-.3v.1c-.2 0-.3-.2-.6-.4-2.6-1.5-7-4.5-15.2-10.2a4 4 0 0 1-.9-.8 4 4 0 0 1-.8-1.6v-.1a4.2 4.2 0 0 1 0-1.2c0-.6.2-1.2.6-1.7l.7-.9c.5-.4 1-.7 1.6-.8a3.9 3.9 0 0 1 3 .4c19 10.5 37.2 22.3 54.8 35 24.7 15.3 50.2 31.2 75.5 49.6 7.9 4.5 15 9.3 22 14 17.5 11.5 34 22.5 56 25.3 13.4 0 15.5-5.6 18.1-12.7.6-1.5 1.1-3 1.8-4.4 3.4-30-15.3-52.5-35.2-76.3-2.4-2.4-5.1-4.7-7.8-6.8-4.7-4-9.2-7.7-12.2-13a648 648 0 0 1-19.9-15.1c-20.5-16-40-31.1-66.3-39.9a5 5 0 0 1-.5-.2l-4-1.9a56.6 56.6 0 0 1-25.5-19.5 4 4 0 0 1 3.3-6.2c28.8 0 51.1 19.2 72.8 37.8 9.3 8 18.2 15.6 27.4 21.6l4.7-2.3c7.8-19.6 7-38.2-2.9-55.2-13.6-24-44.2-43-76.7-54.6a189.7 189.7 0 0 1-71.7 52.4c-3.6 1.3-7.2 2.4-10.8 3.3-31.2 38.6-84.2 70.5-140.3 44.7a10.7 10.7 0 0 1-6.9-6.7c-2.4-7.1 1.6-18 13-35.2l.6-.6c7.8-7.8 15.7-15.7 23.8-23.3a173.9 173.9 0 0 1-15.8-11c-3-3-5.5-6-7.6-8.7-4-4.7-7-8.4-11.4-10.6a4 4 0 0 1-1.4-1.2c-36-47.4-52.2-105-46.8-166.7 4.9-55.4 26.5-112.8 62.7-166 32.4-44.5 65.3-77.2 104.6-112.6 30.2-26.2 60.7-49.6 90.3-72.2a1900 1900 0 0 0 89.8-71.9c126-117 173.3-277 219.1-431.7 14.7-49.7 30-101.1 47.5-150l.3-12.6c.6-22 1.4-52-11.3-62.9-4.9-4.2-11.5-5.4-20.3-3.8-46.6 4.9-78.9 34-113.1 64.7-20.3 18.3-41.3 37.1-65.6 50.8-34.2 21.3-67.8 24.1-99.8 8.1-32.1-16-41.1-50.6-49-81l-1.2-4.4a4 4 0 0 1 2.9-5 4 4 0 0 1 4.9 3l1.1 4.3c7.5 28.8 16 61.5 44.9 76 29.8 14.8 59.9 12.3 92-7.9 23.8-13.3 44.4-31.9 64.4-49.8C685.3 38 720.1 6.7 769 1.5c10.8-2 19.9 0 26.6 5.7 15.6 13.4 14.8 44.4 14 69.2l-.2 13.1c0 .5 0 1-.2 1.4-17.6 48.8-32.9 100.4-47.6 150.2-46.1 155.7-93.8 316.8-221.5 435.4-30.2 26.1-60.7 49.5-90.3 72.2-29.4 22.6-59.9 46-89.8 71.8-39 35-71.4 67.5-103.4 111.4-77.1 113.4-83.3 234-16.6 322.5a46 46 0 0 1 13.1 12.3c2.1 2.5 4.3 5.2 7 7.8 5.3 4.1 10.8 8 16.5 11.3a179 179 0 0 1 47.7-32.1l12.7-3.8c24.8-7.4 52.8-15.9 80.9-12.4l2.2.4c35.5-64.4 57.1-133.5 79.6-205.5a5308.2 5308.2 0 0 1 14.1-44.7c1-1.8 1.9-3.9 2.8-6a75.2 75.2 0 0 1 14-23 4 4 0 0 1 4.4-.8 4 4 0 0 1 2.4 3.9l-1.1 17.3c-5.7 91.4-12.4 199.4-68.2 271 32.6 12 63.5 31.5 78.3 57.3a68.8 68.8 0 0 1 2.7 63.7 4 4 0 0 1-2 2l-5.3 2.7c4.5 3.6 9.2 7 14 10.5a4 4 0 0 1 1.2 1.4c2.2 4.4 6 7.5 10.6 11.4 2.7 2.2 5.7 4.6 8.6 7.6 20.5 24.5 41.4 49.6 37.2 83.3 0 .5-.2.9-.4 1.3-.7 1.3-1.2 2.8-1.8 4.3-2.8 7.6-6.7 18-25.8 18a4 4 0 0 1-.5-.1c-24-3-41.3-14.5-59.6-26.7a374.1 374.1 0 0 0-22.2-14 737.6 737.6 0 0 0-8.3-6c21 18.3 41.3 37.1 61.3 55.8.3.2.5.4.6.7l24 36 .5 1a37 37 0 0 1-6.6 35.6 41 41 0 0 1-38.5 13.4c-12.2-4-20.5-8.2-28.5-12.2l-.7-.4c-24.3-19.1-49.7-34.7-74.3-49.7a804.6 804.6 0 0 1-65.6-43l9.6 8.1c37.3 32 76 65 104.1 107.2l.3.4c3.4 7 2.9 14.6-1.5 21.7-5.6 9-17 16.1-26.1 16.1-52.7 0-94.8-31.9-139.5-65.6-10-7.6-20.3-15.4-30.7-22.8l-1.4 3.1c7.8 7.7 16.4 15 25.5 22.8 27.5 23.5 55.9 47.9 62 81.8a4 4 0 0 1-1.6 4c-24.5 17.5-51.5 1.5-73.2-11.3-5.3-3.2-10.3-6-14.9-8.4a246.2 246.2 0 0 1-47.4-35.8C164.6 1687.8 110 1768.7 57 1883.2c-29.5 73.8-44.2 132.6-47.6 190.5-4.2 58.5 5.2 112.9 16 163 10.6 37.4 23.4 72 35.8 105.5 6 16.1 12 32.7 18 49.5a4 4 0 0 1-3.9 5.3z"/></g></svg>