<svg version="1.0" xmlns="http://www.w3.org/2000/svg" viewBox="0 0 373 885"><path d="M109.5 2.4c-7.5 2.4-13 5.9-19 12.1-14.5 14.9-22 36.4-24.7 70.4C62.4 130.1 75 209.1 99.4 294l4.5 15.4-8.7 12.3-21.8 31c-36.5 51.7-59.7 98.8-68.8 139.4-9.3 41.6-2.8 74.3 21.1 106 28.5 37.9 77.3 62.8 131.1 66.8 23.2 1.8 44.2-.7 65-7.8 6.4-2.2 11.7-3.9 11.8-3.8.7.7 14 41.9 17.3 53.2 12.4 43.2 17.4 71.9 17.4 98.5 0 17.6-1.8 27.2-7.3 38.8-9.6 20.3-28.3 30.4-56 30.4-32.3 0-52.1-13.6-57.7-39.5a122 122 0 0 1-.9-28.7c.3-11.8.9-25.4 1.2-30.2l.6-8.7-2.7-.7c-6-1.5-6.5-.1-8.6 25.9-2.2 28.2.1 48.5 7.2 61.7a61.1 61.1 0 0 0 37.8 27.2 116 116 0 0 0 46.2 0 63.5 63.5 0 0 0 47-47.8c4.1-15.7 3.6-43.2-1.2-71.1-4.3-25.5-17-72-27.9-102.2-3.5-9.8-3.9-11.6-2.6-12.3l8.3-5.4c6.2-4.2 7.5-4.6 15.6-5.5 33.2-3.4 57.1-13.9 92.6-40.7 12.5-9.5 14.5-12 11.6-15.2-1-1.1-2.5-2-3.4-2-.9 0-6.5 3.9-12.6 8.6-27.8 21.7-49.4 32.6-74.9 37.8a40 40 0 0 1-8.4 1.2c-.2-.3 2.1-3.3 5.2-6.7a120.3 120.3 0 0 0 29.7-62.4c6.4-48.8-22.3-105.4-64.8-127.7-18.1-9.5-38-13.2-58.2-11a134 134 0 0 0-19.4 3.7l-9.7 2.7c-2 .5-19-45.6-33-89.6l-7.7-24 10.2-15.5a376 376 0 0 0 41.3-78.1c19.1-50.9 24.3-112.6 13.2-156-9.5-37.3-32.4-61.2-58.2-60.9-4 0-9.1.6-11.3 1.3zm26.2 11.1a68 68 0 0 1 24 24.5c18.3 32.5 20.8 90.7 6.4 147.6a290.3 290.3 0 0 1-30 73.7c-7.2 13-24.2 39.7-25.1 39.7-.8 0-11.4-39.1-16.9-62.5A783 783 0 0 1 76.4 136a326.2 326.2 0 0 1 1.5-73.2c6.4-29.3 17.8-46.2 35.1-51.9a39 39 0 0 1 22.7 2.6zm-27.2 310.7c4.2 14.8 26.3 78.6 36 104 .4 1.1-1.5 2.9-7.2 6.4a86.7 86.7 0 0 0-39.5 55 137.2 137.2 0 0 0-.5 47.4c10.2 45.2 38 74.4 85.7 90.4 9 3 27.4 7.1 41.2 9.1 2.9.5 3.8 1.1 4.7 3.6.6 1.7.9 3.5.6 3.9-.9 1.5-17.4 6.9-27.7 9.2-9 1.9-13.2 2.2-32.3 2.2-20.1 0-23.1-.2-35-2.7a186.3 186.3 0 0 1-47-16.2 145.8 145.8 0 0 1-67.1-64.9A92.3 92.3 0 0 1 10.3 531c-.7-15 .6-25.7 5.2-43.6 8.4-32.7 28-73.5 54.1-112.5a937.9 937.9 0 0 1 37.6-52.9c.4 0 1 1 1.3 2.2zM204.8 428c4.5.5 11.3 1.6 15 2.5 6.4 1.6 21.6 8.3 25.1 11l9.1 7.3c22.2 17.6 39 48.3 43.6 79.4 5 33.9-6.9 66.2-33.9 92.5l-8.5 8.3h-5.9c-3.3 0-8.1-.3-10.6-.6l-4.6-.7-2.7-7.1a5784 5784 0 0 0-54.9-135.4c-.2-1-4.7-12.7-10-26.1a391 391 0 0 1-9.3-24.7c1.2-1.1 19.6-5.7 25.8-6.3a69.3 69.3 0 0 1 21.8-.1zm-48.3 30.7a1228 1228 0 0 0 14.1 34.8c1.2 3.3 7.5 18.8 13.9 34.5 19.7 48.2 39.5 98.3 39.1 98.8a130 130 0 0 1-24.8-4.4c-45.1-11.2-74.7-35.2-87.7-71a99 99 0 0 1-6.4-37.9c0-23.4 6.7-42.3 20.3-56.8 6.2-6.6 20.6-17.7 23-17.7.4 0 4.3 8.9 8.5 19.7z"/></svg>