<svg xmlns="http://www.w3.org/2000/svg" viewBox="0 0 632 1698"><g clip-path="url(#a)"><path d="M81.5 332c-1 .3-1.7.5-2.4.9-.6.3-1.6.3-1.7 1.5l1.5 3.1c.5 1.2.6 2.6 1.8 3.7 1.7-2 3.4-3.6 4.6-5.8l-3.8-3.4Zm-16-12.5c-1-.7-1.4-1.2-1.9-1.4-2.4-1.2-4.8-1-6.4.5-2.1 2-2.6 4.4-1.3 7.1a28.3 28.3 0 0 0 1.8 3.3l9.4 14.7 1.9 2.6c1.4 1.6 4.1 2.4 5.8 1.6 1.9-.9 2.5-2.6 2.6-4.6.1-2.5-.6-4.8-1.4-7.2-.5-1.5-1.4-2.5-3.2-2.8a9.5 9.5 0 0 1-6.4-4 8.7 8.7 0 0 1-.9-9.8Zm-22.2 6.2c-5.5.2-8.2 3.2-5.9 8.4.5 1 1.3 2 2 3l12.4 16c1 1.2 2 2.3 3.3 3.2a5.8 5.8 0 0 0 6.9 0c2.2-1.5 2.7-3.8 1.9-6.1-1.4-3.9-3-7.7-4.7-11.4-1.2-2.5-3-4.6-4.6-7-.5-.7-1-1.5-1.8-2a90.2 90.2 0 0 0-7-3.4c-1-.4-2-.5-2.5-.7ZM198.4 412c1 14.5 11 58.3 14.9 65.6 4-2.5 8-5 11.8-7.7 4-2.6 8.6-3.8 12.5-6.7-2.4-4.3-5-8-8-11.5-4.3-4.8-8.7-9.6-12.8-14.5a203.5 203.5 0 0 1-18.4-25.2ZM76.7 398.2c-1 2.7-2.4 3.7-3.7 4.7-1.3 1.1-2.5 2.3-4 3.2a26.2 26.2 0 0 1-5 2.4c-1.4.5-3.1.7-5 1.2l1.2 2.3c1.8 3.2 3.7 6.3 5.3 9.7 4.4 9.4 8.9 18.9 13 28.5l24.7 60 3.7 9c.3.7.9 1.2 1.8 2.6-.4-3.2-.7-5.5-.8-7.8-.6-8.1-1.5-16.2-1.7-24.4-.3-9-.2-18.1.1-27.2.2-6 1-12 1.6-17.9 1-8.7 2-17.4 3.3-26 1.3-9.1 2.8-18.2 4.3-27.3a5 5 0 0 0-.6-3.5l-6-10.6-2 2.8c-.6 1-1.2 1.9-1.9 2.7-.7.7-.8 2.2-2 2l3-11.4a40.4 40.4 0 0 0 0-22.3c-1.1-4.3-2-8.6-3-13-.8-4-1.7-8-2.8-12-1-3.3-2.6-6.3-5-8.9a8.6 8.6 0 0 0-7.7-3c-1.4.2-2.9.4-4 1a31.2 31.2 0 0 1-10.1 3l-2.3.5c-2.6.7-3.5 2.2-3 4.8a7.2 7.2 0 0 0 6.7 6c3.5.3 6.8-.2 10-1.4.4-.2.9 0 1.3 0l-.3 2c1.2 2.1 4 2.8 4.4 5.7-.8 1.3-1.6 2.8-2.6 4.1a136 136 0 0 1-5.4 7c-3.8 4.6-6 9.9-6.8 15.8l-1.1 7.5-1-1.3a10.1 10.1 0 0 1-.4-2.2c-.4-5 .7-9.8 1.7-14.7l-5.9-1.2-.3 1.1.1 1c.2 3.5-1.8 5.7-4.9 7-3.7 1.4-7.3 1.1-10.3-1.6a35.1 35.1 0 0 1-4.6-5.2c-1.3-1.8-2.8-3-5.1-3.4-2.6-.4-5-1.6-7.2-3-1.8-1.1-3.6-2.4-5.5-3.4-2.1-1.2-4.3-2.4-6.6-3.2-3-1-5.2.7-5.2 3.9 0 2.7.9 5.1 2.8 7 1.9 2 3.7 3.7 5.7 5.5a50 50 0 0 1 8.5 9 12.8 12.8 0 0 0 2.8 3 5 5 0 0 0 5.6.1c2-1.5 2.7-3.6 1.9-6-.9-2.5-2.5-4.3-4.3-6l-5.2-5.2c-.4-.5-1.1-1.1-.3-2.2 3 2.7 6.7 4.8 9.4 8 1 1.2 2.1 2.6 3 4 1.8 2.6 1.5 5.2-.3 7.7l-1.1 1.4c-2.5 2.7-5.4 3.4-8.8 1.9-2-1-3.6-2.3-5-4-1.2-1.4-2.3-3-3.5-4.3-3-3.1-6.1-6-10.6-7-1-.2-1.9-1-2.9-1.4a129 129 0 0 0-5-2c-2-.8-4-.4-6 .3-2 .8-3 2.5-2.8 4.7.3 3.1 1.8 5.5 4.3 7.3l11.5 8.5 3.1 2c2.6 1 5.4.2 7-2.1.3-.6.5-1.5.3-2.1-.8-2.4-1.9-4.6-4-6.1-1.2-1-2.5-1.8-3.6-2.8-.5-.4-1.3-.9-.7-2a26.3 26.3 0 0 1 7 4.4c1.4 1.2 2.6 2.7 3.5 4.3 1.8 3 1 6.4-1.6 8.7l-2.6 2.3L41.6 396c2 2 4.2 3.6 6.4 5.3 3.1 2.6 6.8 3.4 10.7 3.2 5-.4 9.7-2 14-4.2l4-2Zm372.5 774-14.4 2c-9.6 1.4-19.2 2.8-28.9 3-15.6.3-31.3 1.7-47 1.2l-21.6-.6-19.8-1c-11.4-.4-22.8-.7-34.1-1.3a116 116 0 0 1-13.3-1.5c-6-1-12-2.4-18-3.6l-5.6-1c.3 1.8 1.8 2.7 2.7 3.8 2 2.5 4.2 5 6.1 7.5 11.2 14.7 19.2 31.1 26.5 48 2 4.5 3.5 9.4 4.8 14.3 1.8 7.5 3.4 15 4.8 22.6 3 15.6 8 30.6 16 44.4l10 17.2a108.5 108.5 0 0 1 9.6 20.3c3.4 9.5.8 17.5-5.3 24.9a67.7 67.7 0 0 1-5.6 6c-2.8 2.7-5.7 5.2-8.6 7.8l-2.4 2 7.2 25.5c2 7 4 13.9 5.1 21 1.3 8 2.3 15.9 3.9 23.7 2.7 13.9 5.7 27.7 8.5 41.5 1.3 6.3 2.6 12.7 3.5 19 1 7.5.3 14.7-2.6 21.8a101 101 0 0 1-12.8 21.8c-2.3 3-4.5 6.2-6.6 9.4-6 9-12.1 18.2-19.4 26.4l-11.4 13.2c-6.1 7-12.4 13.8-20 19.2-2 1.5-3.2 3.4-4 5.9 2.2.5 3.4-1.7 5.7-1.3-.5 1-.7 1.7-1.1 2.2-1 1-2 2-3.2 2.7a6.5 6.5 0 0 0-3.1 4.9c-.4 3.9-2 7.4-3.4 11-.3.4-.2 1-.5 2.7 1-1.5 1.6-2 1.9-2.6 1-2.1 1.8-4.2 2.7-6.4 1.2-3 3-5.4 5.4-7.3 2.1-1.6 4.3-3 7.2-2.5 0 2-1.6 2.2-2.8 2.9-3.6 2.1-6 5-7 9.2-.8 3.8-2.4 7.3-4.2 10.7-.5 1-1 2-1.2 3-.1.7 0 1.6 1.2 2 .7-1.3 1.5-2.6 2.1-4l3.3-6.5c.9-2 2.3-3.7 4-5 3.3-2.4 7.1-4 11.3-6.3l-.6 2.3c-1.2 2.2-3.2 3.7-5.2 5a14.6 14.6 0 0 0-5 6l-6 12.5c-.6 1.2-1.4 2.4-1.7 3.7-.2 1 0 2.2.5 3 .8 1.3 2 2.5 3.8 2.7 2.2-2.3 3.8-5 5-8 .8-2.6 2-5 3.9-6.7 4.9-4.2 10-8.2 15-12.3l.3-.2c.8-.3 1.5-.5 2.2.4-.2 3.2-2.2 5.6-4.5 7.6-1.9 1.8-4.1 3.2-6.3 4.7-2.8 2-5.1 4.2-6.6 7.4-1.2 2.5-2.8 4.8-4.2 7.2-.8 1.3-1.8 2.5-2.5 3.9-1.2 2.1-.3 5.3 2 6 3.3 1.1 6.7 1.8 10 1 4.7-1.3 9-3.5 12.4-7 1.4-1.3 2.7-2.8 4-4.4 4.4-5.1 9.8-8.1 16.7-8.7 6.2-.6 11.3-3.6 15.5-8.2 4.2-4.5 7.7-9.5 11-14.8 5-8.2 10.6-15.8 17.6-22.4 8-7.6 16.2-15.1 24.5-22.4a41.5 41.5 0 0 1 17.9-9.3c4.1-1 8.4-1.6 12.7-2.1 8-1 16-2.4 24-4.4a21 21 0 0 0 13.5-10.3c1.9-3.3 2.8-6.8 3.9-10.3.7-2.6.5-5.1-.2-7.7-2-7-5.4-13.4-9-19.6-2.3-3.9-4.8-7.6-6.9-11.5-2.9-5.6-5.1-11.5-7-17.6-1.6-5-2.4-10.1-2.5-15.4-.1-7.2.6-14.4 1.5-21.6 1.9-13.4 4.1-26.7 6.7-40 2-10.3 2.9-20.6 1.6-31.2a162.7 162.7 0 0 0-8.7-36.6c-2.8-7.4-5.5-14.7-7.9-22.2a66 66 0 0 1-3-29 75.7 75.7 0 0 1 2.4-10.9l11-36.6 5.1-16.3c1.2-3.8 2.5-7.6 3.5-11.4a1764 1764 0 0 0 7.2-27.7c3-11.8 5-23.7 6.5-35.8.2-1.5.2-3 .3-4.6ZM166 1445.6c3.9 4.4 7.2 3.8 11.2.8 1.8-1.4 3.3-3.3 4.8-5l3-3.5c.4-.4 1.1-.8 1.6-.7 3 .5 5.7-.8 8.5-1 3.9-.5 7.5-1.8 11-3.4 5.1-2.2 9.7-5.3 14.3-8.3 5.3-3.5 10.4-7.2 16-10.1 11.7-6.1 23.6-11.8 36-16.5 11.4-4.3 22.3-9.5 32.4-16.4 3.6-2.4 6.8-5.3 9.6-8.6 2-2.4 3.9-4.8 5.6-7.3a17.6 17.6 0 0 0 1.6-15c-1.4-4.1-2.8-8.3-4.8-12a361.6 361.6 0 0 0-11.8-20.9c-8-13-13.8-26.8-17.3-41.5-2.4-10-4.3-20.2-6.5-30.2-1.7-7.8-3.5-15.6-7-22.9-4.4-9.3-9.1-18.5-15-27l-8-11.9a62.6 62.6 0 0 0-7.2-8.9 41.7 41.7 0 0 0-18.6-11.4 2429.2 2429.2 0 0 1-22-6.6l-6.6-2.2c-.4-.2-.7-.6-1.8-1.6l16.3 3.1 14 2.7c4 .7 7.8 1.5 11.4 3.4 1 .5 2.4.8 3.6 1l27.7 4.2c10.4 1.5 20.7 2.9 31.2 3.2a2155.5 2155.5 0 0 0 60.9.6c6.4 0 12.9-.1 19.3-.3 10.5-.3 21-.9 31.4-1a176 176 0 0 0 37-4.1c4.8-1 9.6-2.3 14-4.5a122.5 122.5 0 0 0 40.2-29.5 322.1 322.1 0 0 0 30.7-40.9c7.1-13 14.5-25.7 19.6-39.6 3.6-9.5 7-19 9.1-29 1-4.5 1.8-9 2.6-13.6 1.8-10.3 3.6-20.6 5.1-31 1.7-11.2 2.5-22.5 3.2-33.9.8-12.5.4-25-.8-37.3-1.2-11.4-3-22.9-4.9-34.2-2.7-16.2-6.5-32.2-10-48.3-2-8-3.7-16.2-5.4-24.3-1-4.8-1.4-9.7-2.6-14.5-2.8-10.6-4-21.4-3.7-32.4.5-20 .4-40 2-60l3.2-34.8c.8-7.8 1.7-15.6 2.2-23.4.8-11 1-22.2.6-33.2a258 258 0 0 0-2.8-31.7c-2-12.8-5.5-25.2-9.3-37.6a249 249 0 0 0-17.5-44c-4.8-9.1-9.7-18.2-15.2-27-2.2-3.6-4.3-7.3-6.7-11a9.9 9.9 0 0 1-1.2-9c1.6-5 1.7-10 1.6-15l-4.2-1.5c0-1.5 1-1.7 1.8-2 1.5-.6 3-.8 4.4-1.5 7.7-3.8 15.4-7.6 22.6-12.4 9.7-6.4 18-14.2 26.2-22.4a252 252 0 0 0 48.3-69.3 320.6 320.6 0 0 0 18-48.9c3.8-13.1 6.1-26.6 7.1-40.3.6-7.5 1.4-15 1-22.6a405.7 405.7 0 0 0-1.6-19.7 204.5 204.5 0 0 0-18.5-65.4A174 174 0 0 0 579 75.8a175 175 0 0 0-24-22.2c-11-8.5-22.1-16.7-34.6-22.8-7.3-3.6-14.7-7.1-22-10.4a134 134 0 0 0-22.7-8 247.6 247.6 0 0 0-62-7.5c-5 .1-10.1.8-15.2.9a190.2 190.2 0 0 0-37 4.2 267.8 267.8 0 0 0-69 26.8 148 148 0 0 0-28.4 19.5c-6.8 6-13.4 12.3-19.8 18.7a171.5 171.5 0 0 0-36.9 67.3 162 162 0 0 0-5.4 24.8 222 222 0 0 0-.5 45.5c1 13.7 1.8 27.3 4 40.9v.9c.5 9 .2 18.1-2 27a51.2 51.2 0 0 1-14.8 27l-8.3 8.1a7.7 7.7 0 0 0-2.2 8.4 17 17 0 0 0 9 10.3c.8-2 1.4-3.9 2.2-5.6.9-2 1.9-3.8 3.7-5.3.9 1.4.5 2.6.2 3.7l-1.6 6.3a135 135 0 0 0-2.5 28.4 62 62 0 0 0 6.5 28l3 6.8 5.2 13.3a56.7 56.7 0 0 0 9.9 16c5.3 6 10.1 12.3 16 17.9l3.3 3.8 10 12.2c.7-.1 1.4-.2 2.1-.5 6.2-2 12.3-3.9 18.4-6 4.4-1.4 8.8-2.9 13-4.7 12.7-5.5 25.3-11.2 38-16.6a206.1 206.1 0 0 1 55.2-15.8c8.9-1 17.8-1.2 26.7-1.1 7.6 0 15.1.2 22.5 1.5 21.6 4 42.4 10.4 61.8 20.9 3.9 2 7.5 4.7 11.2 7.2.5.3 1.3.8.8 2-2.3-.6-4.3-1.8-6.2-3-11.7-6.7-24-11.8-37-15a259.6 259.6 0 0 0-43.5-7.7c-26.1-2-51.2 2.2-75.4 11.9-15.8 6.3-31.5 13-47.3 19.5l-9 3.6a4323.5 4323.5 0 0 1-27.8 9.9c-9.4 3.3-18.5 7.4-27 12.6l-5 2.8c1.4 8 3 15.4 4 23 1.1 7.7 2.1 15.4 1.5 23.5-1-.6-1.4-1.2-1.6-2-.9-3.7-2-7.4-2.7-11.1a283.2 283.2 0 0 0-9.5-39.9c-.7-2-1.2-4.1-1.6-6.2l-8.6-40.2a150.7 150.7 0 0 1-3.7-32c0-2-.3-3.9-1.2-5.7-2.8-6-4.5-12.5-5.8-19a74.2 74.2 0 0 1-.5-23l1.1-9.7a21 21 0 0 1-9-5.9c-5.7-6.2-6-14-.5-20.5 1-1.3 2.3-2.4 3.5-3.7l6.6-7c2.7-3 4.9-6.4 6.9-9.8 3.8-6.7 5-14.2 6.2-21.6v-1.8c-.5-2.8-.8-5.5-1.5-8.2a94 94 0 0 0-3.2-9.6c-.5-1.5-1.3-3.1-3.5-3.6-.6 1-1.3 1.7-1.6 2.7-1 3-1.3 6.2-.5 9.5a41 41 0 0 1 1.1 13.3 277.3 277.3 0 0 1-2.4 19.1c-.1.6-.3 1.3-1.5 1l-.3-2.5v-7.4c0-7-.1-13.8-1-20.7a71.2 71.2 0 0 0-3.8-16.6c-.7-2-1.7-4-2.9-5.7-1.2-2-3.1-2-4.5-.2-.8 1-1.2 2.2-2 3.2a6.6 6.6 0 0 0-.9 5.6c1.2 5.3 2.2 10.6 3.2 15.9 1.6 8.8.7 17.7.6 26.6 0 .6-.6 1.2-1.2 2a8 8 0 0 1-1.3-4.7l-1-18a48 48 0 0 0-1.1-7.7c-1.4-5.8-2.7-11.7-3.6-17.6-.3-2.1-1-4.2-2-6.1-1.1-2.6-3.8-3-6.2-1.3-1.5 1-2 2.6-2 4.4-.2 4 .2 8 1.1 11.9a35.2 35.2 0 0 1 0 15.5c-.4 2-.8 4-1 6l-1 13.7a34 34 0 0 1-1.1 5.4c-.2 1-1 1.6-2.4 1 0-.9-.4-2-.3-3 .2-5.5.3-11 .8-16.5a28 28 0 0 0-1.5-14l-5.7-13.1-.7-1.2c-1.4-2-3.5-2-4.9.1a8.3 8.3 0 0 0-1.5 5.2c.1 2.2.3 4.3.8 6.4a46.3 46.3 0 0 1 1 17.9c-1 7.5-3.4 14.6-7 21.3a127 127 0 0 0-10.6 28.4l-1 5.5a115 115 0 0 0 1.2 40.3c.6 2.4.4 5 .6 7.4l-.2 1.6-1.3.4c-.7 5-1.1 10-2.2 14.7-2.3 10-3.4 20-4.6 30l-2.3 22c-.8 8.5-1.8 16.9-2.1 25.3-.8 21 .4 41.8 3.6 62.6 2.2 13.6 5.2 27.1 9.9 40.2 3.3 9 7 18 9.5 27.4 1 3.8 3 7 5.7 10 1 1.1 2.1 2.1 3.7 2.5 5.5 1.4 11 3.1 16.5 4.3 6.3 1.3 12.7 2.3 19 3.2a166 166 0 0 0 26.7 1.8c5.7-.1 11.4-.4 17-.7a62.8 62.8 0 0 0 3.7-.2l25.7-2.7c4.5-.4 9-.6 13.3-1.1 10.1-1.2 20-3.5 30-5.6 14-3 27.5-7.4 41.3-11 15-4 30.3-7 45.8-8 7.7-.6 15.4-.7 23-1.7 5.6-.7 11 .7 16.3 2.2a8.1 8.1 0 0 1 2.5 1.2c.5.3.8 1 1.6 2.2-6-1-11.3-1.5-17.4-1.5 4 2.8 8.5 2.9 11.4 6.8l-2.8-.4c-5.4-1-10.8-2.2-16.3-3-11.8-1.8-23.6-.7-35.3 1.3a423.4 423.4 0 0 0-45.7 11c-10.8 3-21.6 6-32.5 8.6a276.5 276.5 0 0 1-34 5.8c-1.6.1-3.1.4-4.6.6l-4.6.7-.2 4.8c-.1 3-.1 5.8-.4 8.7-1 11.6-3.4 22.8-5.7 34.1-4.2 20.3-8.3 40.7-12.6 61-2.4 11.4-4.7 22.8-7.4 34.2a254 254 0 0 0-5.6 28.5l-3.3 25.1c-1 8.2-2.1 16.5-2.8 24.7-1 11-1.6 22.1-2.2 33.2a376.8 376.8 0 0 0 6 94.6c.2 1.2.3 2.7 1.6 3.7 6.1-1.1 12.3-2.4 18.5-3.3 9.3-1.5 18.6-2.7 27.9-4a5228 5228 0 0 1 31.5-4.4l26-3.3c10.4-1.3 20.7-2.8 31.1-3.9 14.9-1.6 29.7-2.5 44.6-3 12.2-.5 24.3 0 36.3 2 4.4.8 8.8 1.7 13 3.5 2.3 1 4.5 2.2 6.1 4.4-1.6 1.6-3 .7-4.5.3a171.5 171.5 0 0 0-37-4.3c-10.4 0-20.9.7-31.3 1.2-4 .2-8 .4-12 .8-11.1 1-22.3 2-33.5 3.2a1232 1232 0 0 0-74.4 10.2l-36.8 6.1a472.3 472.3 0 0 0-54.2 13c-10.5 3.1-21 6.2-31 10.4a96.1 96.1 0 0 0-33.2 22 177 177 0 0 0-9.2 10.4c-5.8 7-9.7 15-11.4 23.9a96 96 0 0 0-.7 27.5c.7 7.5 1.9 15 3.4 22.3.6 2.6 1.4 5.1 2.4 7.5 2 4.5 4.2 8.9 6.5 13.2 8.8 16.4 17.8 32.7 26 49.4a439.4 439.4 0 0 0 22.6 41.2 496.2 496.2 0 0 0 63 80.5 7.7 7.7 0 0 1 2 7.6c-.3 1-.8 2-1.3 3-2 3.5-4.7 6.5-7.5 9.3a435.2 435.2 0 0 1-35.3 32.5c-9.8 8-19 16.6-27.5 25.9a40 40 0 0 1-10.6 8.7c-1.6.8-3.5 1.9-4.4 3.3-3.6 5.7-6.9 11.6-10.3 17.4-.7 1.2-.5 2.5.2 3.6 2.2 3.2 4.9 6 9.4 5.4l2.7-.4c2-3.1 3.5-6.3 4.6-9.6 1.5-4.8 4.6-8.3 9-10.7l8.3-4.9c.5-.3 1.1-.7 1.9.1.2 1.8-1 3.1-2.2 4.1-1.8 1.6-3.8 3-6 4.2a14.9 14.9 0 0 0-6.9 7.7l-4.7 10c-.8 1.7-.5 2.8 1 4 2.4 1.7 5.2 1.7 8 1.7 2 0 3.2-1 3.7-2.8.6-1.9 1.3-3.8 1.7-5.7 1-3.8 2.9-6.7 6.4-8.6l8.3-4.9c.5-.2 1-.1 1.8-.2-.1 2.4-1.5 3.7-3 4.9a29 29 0 0 1-4.4 3.1 8.8 8.8 0 0 0-4.6 6 29 29 0 0 1-3.6 9.5c-.2.3-.1.8-.2 1.4 2.8 2.9 6.1 3.2 10 2.4.7-1.7 1.7-3.3 2.3-5 1.5-5 4.8-8.4 9.1-11.1l2.3-1.6 1.9-.5c-1 3-3 4.8-4.8 6.5a13.2 13.2 0 0 0-3.7 5.3l-2.2 6c-.6 2 0 3.3 1.7 4.3 2.1 1.3 4.4.9 6.7.4 1.8-.3 2.2-1.8 2.9-3.2.6-1.4 1.4-2.8 2.2-4 .6-1 1.4-1.7 2.2-2.4l9.1-6.2c.5-.3 1-.8 1.7.1l-1 1.4c-2.1 2-4.2 4.2-6.5 6a12.9 12.9 0 0 0-4.3 6.8l-1 3.7ZM17 351l-1-4.8c-1-5.3 1.9-9 7.3-9.5 2.2-.2 4.3.3 6.2 1.4l8.8 5c.9.4 1.7 1.4 3.2.8-.3-.7-.6-1.4-1-1.9l-2.9-3.5a21 21 0 0 1-2.3-5c-1-3.1-.5-6.3 1.9-8.6 2.6-2.5 6-3 9.4-1.9 1.6.6 3 1.5 4.7 2.3.3-1.4.5-2.8.9-4 1-3.2 2.8-5.9 6-7.1 2.9-1.1 5.5-1 7.8 1.1.6.7 1.3 1.2 2 1.8 4.5-1.9 8.9-3.8 13.3-5.4 8.9-3.3 15.6-.5 20 6.5 1.1 2 2.1 4.1 2.7 6.3 1.7 6 3 12.2 4.7 18.3 2.3 8.1 3.1 16.3 2.1 24.6-.2 1.6 0 3 .5 4.6l4.1 11.7c.1.2.5.3.7.4 1.4-3.4 2-8.5 1.5-12l-.7-4a86.2 86.2 0 0 1-1-30.7l.5-5c.6-6 2.4-11.5 4.8-16.8l9.7-21c3.7-8 6.5-16.2 6.5-25.1 0-2.4-.2-4.6-1.2-6.8a22.9 22.9 0 0 1-1.9-9c0-3.7 1.5-6.8 4.3-9.3 2.3-2 4.6-2.3 7-.5 1.4 1 2.7 2.2 3.6 3.6 1.2 2.1 2.1 4.4 3 6.7.5 1.1.7 2.3 1 3.6 1.1-.3.8-1.2.8-1.8l-.6-6c-.1-2.5-.4-5.2-.3-7.7.2-4.1 3-7.3 7-8.1 2.9-.6 5.3.2 7 2.6.8 1 1.4 2.3 2.2 3.8.8-.7 1.5-1.4 2.1-2.2a5.8 5.8 0 0 1 9.4.6c1.5 2.5 2.8 5.1 4.2 7.7.6 1 1 2.2 1.5 3.4 1-1.4 1.7-2.8 2.7-4 1.7-1.9 3.7-2 5.7-.5 1 .8 2 1.9 3.1 3 .4-2.3.2-4.3 0-6.2l-3-24.3c-.8-7.5-1.7-15-1.3-22.5l.8-10.1c.6-6.8.9-13.5 1.9-20.2 2.4-16 5.3-31.9 12-46.8A171.3 171.3 0 0 1 244 66.4a204.9 204.9 0 0 1 39-30.1 225.1 225.1 0 0 1 37.7-19.1 319.7 319.7 0 0 1 46.9-13.7c8-1.7 16-2.4 24.2-2.7 10.6-.5 21.2-.7 31.8-.8 9.6-.1 19 .9 28.4 2.7 9.7 2 19.3 3.7 28.8 6.6 10.3 3.1 20.3 7 30 11.8l6.2 3c20.8 9.7 39.2 22.9 55.3 39.3 6.8 7 13.2 14.2 19.3 21.7 7 8.3 12.6 17.5 17.2 27.2a243.8 243.8 0 0 1 17.6 48c3.4 13.7 5.4 27.7 5.3 42 0 5.5.4 11 0 16.5a227 227 0 0 1-8.2 51.3c-5 16.4-10.6 32.5-17.7 48a282.8 282.8 0 0 1-32.8 53.3c-9.8 12.6-21 23.7-33.1 34-7.2 6-15.1 11-23.5 15.4-2.5 1.3-5.3 2.3-8 3.5v6.9a48 48 0 0 1-1.1 6.8c-.5 2.2-1.3 4.4-2 6.4l.4 1a211.2 211.2 0 0 1 23 36.8 318 318 0 0 1 18 44.3 235 235 0 0 1 10.8 42.4c1.5 10.5 2.4 21.1 2.5 31.7 0 9.6 0 19.1-.2 28.6-.2 7.4-1 14.7-1.5 22.1l-2.2 23-2.2 23.4c-.4 4.4-1 8.8-1.2 13.3-1 15.6-2 31.3-2.5 47-.2 5.1.8 10.4 1.7 15.5a987.2 987.2 0 0 0 6.2 32.1c1.3 6.3 3.2 12.5 4.7 18.8 3.9 15.4 7.5 30.8 10.2 46.4 2.3 13.4 4.6 27 5.8 40.6 1 11.3 1 22.7.6 34-.5 13-1.2 26-3.1 38.7-3.2 21.3-6.4 42.6-13.6 63a252.7 252.7 0 0 1-16.3 37 269 269 0 0 1-48.4 63 88 88 0 0 1-24.9 15.7c-2.4 1-4.6 2.4-7 3.4l-9.7 3.8-1 7.1a655.5 655.5 0 0 1-14.1 63.5c-3.2 11.5-6.6 23-10 34.5l-8.5 27.8a112 112 0 0 0-3.4 14.3c-1 5.7-.4 11.3.6 17 1.1 6.8 3.3 13.4 5.7 19.9 5 12.9 9.4 26 11.8 39.7 1.3 7.7 2.5 15.4 2.4 23.3 0 7-1.2 13.8-2.4 20.6L431 1474a92.5 92.5 0 0 0-1.4 20.7c.3 5.5 1.4 11 3.2 16.2a112.5 112.5 0 0 0 9.5 20c3.6 6 7.2 12 10 18.6 1.4 3.5 2.7 7 3 10.7.6 10.9-1.9 20.7-11 27.8l-.8.5a37 37 0 0 1-22 9.7 87 87 0 0 1-14.2 1 41.8 41.8 0 0 0-29.8 11.5A363.1 363.1 0 0 0 345 1644c-3.8 4.5-6.8 9.5-10.2 14.3-2.6 3.6-5 7.3-8 10.7-5 5.7-11.3 9.4-19.2 9.7l-4 .6c-2.6.4-4.7 1.6-6.5 3.4a49.2 49.2 0 0 0-3.6 4.2 32.7 32.7 0 0 1-13.3 9.6c-6 2.7-11.7 1.4-17.3-1.4-1.8-.9-3-2.5-3.9-4.4l-1.1-3.4c-6.7-2.9-8.5-6.3-7.2-13.7-3-2.6-3.3-6.2-2.2-10.1l-1.1-1.9a6.3 6.3 0 0 1-.4-7c1.6-2.8 2.2-5.9 2.4-9.2.3-4 1.2-8.2 2.2-12.2.8-3.5 2.9-6.3 5.8-8.6 8.9-7 16.7-15 23.8-23.7l3.9-4.6a213 213 0 0 0 15.8-21c5-7.3 9.8-14.8 15.1-22a71.1 71.1 0 0 0 10.1-20.6c2-6 2-12.5.7-18.7-1.5-8.2-3.3-16.3-5.4-24.3a447.6 447.6 0 0 1-8.6-40c-2-12.2-4.3-24.3-7.4-36.2-1.9-7.1-3.5-14.3-5.2-21.8-.9.3-1.8.4-2.5.7a413.5 413.5 0 0 1-34 15.4c-8.3 3.3-16.4 7-24.4 10.9-6.3 2.9-12 6.8-17.3 11.3a47 47 0 0 1-16.3 9.3c-5.5 1.8-11.1 2.6-16.8 2.7-2.6 0-4.3.9-5.5 3.2a18 18 0 0 1-6.6 7c-6.1 3.9-12.4 2.2-15.8-4.3-.1-.3-.4-.5-.7-.8-5.4 2-9.8.6-13-4.4-6.3 2-11.5 1-14.7-5.4-6.3 2-12 1.8-15.5-4.9h-3.7c-2.6 0-4.8-.8-6.7-2.5a16.7 16.7 0 0 1-5-7.6 7.5 7.5 0 0 1 0-3.6c.3-1.2 1-2.3 1.5-3.4 2-4 4.2-7.9 6.3-11.8 1.9-3.8 4.5-7 8.1-9.2 4.3-2.6 7.7-6 10.7-10 6-7.9 13.3-14.5 21.1-20.5a421 421 0 0 0 32.7-27.8c4.3-4.1 8.8-8.2 12.3-13 1.4-2 3-4 3.6-6.5l-1.5-1.7a370.6 370.6 0 0 1-42.9-50c-9-12.5-18-25-26.4-37.9-6.2-9.4-12-19.3-17.4-29.3-7.4-13.6-14.5-27.4-21.6-41.2-2-4.1-3.8-8.4-5.5-12.7a25 25 0 0 0-3.9-6.7c-3.4-4.1-5-9.1-6-14.3a212.7 212.7 0 0 1-2.7-43.2c.4-8.5 1.8-16.8 5.4-24.6a67.8 67.8 0 0 1 9.7-15.6c10.1-12.1 22.4-21.4 36.3-28.7 8-4.1 16.2-7.5 24.6-10.3 9-3 18.4-5.1 27.6-7.3l27.9-6.5 2.3-.8c.7-1.2 0-2-.2-2.9-2-5-2.7-10.4-3.5-15.7a376.1 376.1 0 0 1-3.5-34.9 502.4 502.4 0 0 1 2.7-82.9c1.5-14.3 3.7-28.6 5.8-42.9 2-15 6-29.5 9-44.2 2.3-10.6 4.2-21.1 6.3-31.7 3.8-18.2 7.8-36.3 11.3-54.6 2-10 3.4-20.3 5-30.5.5-3.6.5-7.3.7-11l-.3-2-3.7-.2-25.8 1a203 203 0 0 1-58-6.7c-1.8-.6-3.7-1.2-5.5-2.2a30.5 30.5 0 0 1-15-17.2c-4.2-11.5-7.8-23-11.6-34.6-2-6.3-3-12.8-4.1-19.3l-3.2-19.6a7 7 0 0 0-1.6-3.7c-1.2-1.4-2-3-2.8-4.7l-10.9-25c-1.9-4.3-3.6-8.7-5.6-13-6-13.2-11.1-26.7-16.7-40-4-10-8.5-19.8-12.8-29.7l-2.6-5.4c-1-1.9-2.2-3-4.5-3.4-2.7-.5-5.1-2-7.3-3.8-1.5-1.3-3-2.6-4.4-4.1l-15.5-18.2c-.8-1-1.6-1.8-2.8-2.3-1.7-.7-3.4-1.6-4.7-2.8a46.6 46.6 0 0 0-12.1-9c-4.4-2.1-6-6-6-10.6 0-3.6 1.9-6 5.3-7.3 2.7-1 5.4-1 8.2-.4l3.5.9"/><path d="M377.3 240c-.3-.5-.8-1-1-1.5a33 33 0 0 1 3.8-24.9c3.4-5.3 8.2-9.5 13.5-13 8.5-5.8 18-7 27.8-5.5a36.7 36.7 0 0 1 24.4 15.9c5 6.9 7.3 14.7 8.2 23.2.7 7.4.4 14.7-.8 22-2.5 16-10 29.6-22.3 40.3-3.5 3-7.3 6-11.2 8.8a156.5 156.5 0 0 0-18.8 14.8 14 14 0 0 1-18.4-1.3 20 20 0 0 1-5.6-8.4 73 73 0 0 1-2.3-8c-.7-3.7-.3-7.3 1.7-10.6 1.7-2.7 2-3.3 4.5-5.3-.1 2-.9 3.5-1.5 5a16.7 16.7 0 0 0-.5 10.8 26 26 0 0 0 7.5 13c3.3 3 7.2 2.5 10.2.7 1-.6 1.9-1.5 2.8-2.3a181 181 0 0 1 18-15c6.6-4.9 13-10 18-16.4 7-8.8 10.8-19 12-30l.6-7.8a57 57 0 0 0-2-20.1 36.2 36.2 0 0 0-20.2-22.6c-1.2-.6-2.7-.8-4-1a46.8 46.8 0 0 0-16-.6c-5.7 1-10.6 3.3-14.8 7a29.5 29.5 0 0 0-10 13.6 65.8 65.8 0 0 0-1.8 8.5c-.5 3.5-.7 7-1 10.5l-.8.1Z"/><path d="M390.9 224.3c0-.7 0-1.5.3-2.2a19.5 19.5 0 0 1 14-12.2c1-.3 2-.3 3.2-.3 16 .7 24.4 11.3 27 22.8 1 4.6 1.2 9.1.1 13.7l-1 4a39 39 0 0 0-1 11.5c.7 11.7-5.2 19.8-14.8 25.7a18.2 18.2 0 0 1-8.3 2.4 75.4 75.4 0 0 1-3.2.2c-3.6 0-6.5 1.6-8.8 4.3a18.3 18.3 0 0 1-4 3.8 6.1 6.1 0 0 1-9.2-3c-.4-1-.4-2.3-.3-3.5 0-1.2.4-2.4.8-3.6 1-3.3 1.3-6.6.7-10-.2-1-.3-1.9-.2-2.8.3-1.4.7-3 1.4-4.3 1.7-2.9 4.8-3 6.7-.1.7 1 1 2.2 1.5 3.3l1.2 3c.4.7 1.2 1 2 .6 1-.8 2.2-1.6 3-2.8 1.9-3 3.4-6.1 4.2-9.6.3-1.6.2-3.4 0-5a4.8 4.8 0 0 0-3-3.9l-5.5-2.3c-2-.8-4-1.4-6-2.4a11.3 11.3 0 0 1-6.2-8.5c-.5-2.6-.8-5.2 0-7.8 1.7-4.8 6.1-6.9 10.7-4.7 1.5.7 3 1.7 4.2 2.8 2.2 2 4.8 2.7 7.6 2.7 1.6 0 3 0 4.6.2 2 .2 3.6 1 4.8 2.5.7.8 1.3 1.8 1.4 2.8.3 2.4-.1 4.7-1.6 7.5-.5-1-1-1.5-.9-2 0-1.2.4-2.4.4-3.6.2-1.7-.8-3-2.4-3.5l-2.7-.3-3.7.3c-3.9.4-7.3-.6-10-3.6a11.7 11.7 0 0 0-2.9-2.2c-2.7-1.6-5.3-.3-5.9 2.7a10 10 0 0 0 5.5 11c1.4.7 3 1 4.4 1.5 2.3.8 4.7 1.5 7 2.4 3 1.3 4.8 3.7 5.5 6.9.7 3 .7 5.8-.3 8.6a40 40 0 0 1-5.5 10.6 11.4 11.4 0 0 1-5.1 3.8c-3.5 1.4-6.6 0-7.7-3.5-.3-1.2-.4-2.5-.8-3.6-.1-.5-.5-1-1-1.6-.4.5-.9.8-1 1.2a12 12 0 0 0 0 3.2c.5 4 .4 8-.9 11.8a9.9 9.9 0 0 0-.4 2.7c0 1 .4 2 1.3 2.2.7.1 1.6-.2 2-.6 1-1 2-2 2.8-3.1 3-3.6 6.7-5.2 11.3-5.3h1.4c5.8.3 10.5-2 14.3-6a24 24 0 0 0 7.6-17.8 48 48 0 0 1 1.7-14.6c1.2-4.5 1.2-9 .5-13.7a22.8 22.8 0 0 0-18.9-18.9c-2.6-.4-5-1-7.8-.5-4.4 1-7.9 3.3-10.5 7l-2.8 4-.8-.3ZM267.7 1331.6l3.7-.2 3.6.1c2.5.2 4.5-.8 6.1-2.6l3.9-4.3c1.3.2 1.1 1.1 1 1.8-.4 4-2.2 7-5.8 8.8-3.2 1.5-9.4.2-12.4-2.5l-.1-1Z"/></g><defs><clipPath id="a"><path fill="#fff" d="M0 0h632v1698H0z"/></clipPath></defs></svg>