<svg xmlns="http://www.w3.org/2000/svg" viewBox="0 0 385 1030"><path d="M188.2 334.3a770.2 770.2 0 0 1 37.9 62.3c27.3-21.8 64.6-66.2 96.5-115.5 39.7-61.2 60.7-113.8 56.3-140.7-1.8-11.1-7.7-17.7-17.8-20.3-53.9-13.6-84.1-22.6-99.7-33.6-15.9-11.2-17.8-24.6-20.9-46.8L238.8 28c-3-19.4-6-22-6.5-22.3-2.2.9-6.2 11.4-8.5 22.4-7.8 51-28.3 64-112.4 96.6-10 3.9-16 9.9-18.7 18.4-10.5 33.4 33.5 98.8 76 162.1l16.4 24.5c7.7-12.6 17-26.5 26.8-41 14-20.7 28.4-42 39.5-62.3 10-18.1 21.9-64.6 12.3-83a36 36 0 0 0-31.4-17.7c-14.9-.4-28 6.6-35.4 18.8-11 18.4 10.4 66.7 17.2 81.1l-4.5 2.2c-9-19.2-29-65.9-17-85.8a44.2 44.2 0 0 1 39.8-21.2c15.8.4 29.4 8.3 35.7 20.4 10.9 20.8-1.8 68.6-12.3 87.6a870 870 0 0 1-39.7 62.6c-10.3 15.3-20.2 30-28 43zm-2.8 4.8a207 207 0 0 0-5.4 10c-15.3 30.6-18.5 51.1-9.3 59.4 11.1 10 37.4.5 45.5-4.7a108 108 0 0 0 5.9-4.1 740.1 740.1 0 0 0-36.7-60.6zm56.8 147c-44.4 16.5-97.5 54-129.8 78.6C53 610.1 6.8 655.7 5.8 663.1c-2.5 19.1.8 32.2 95.9 58.9 91.6 25.6 115 59.6 118.4 83.5l.6 5c1.1 7.8 3.4 24.2 6.2 25 .2 0 1.5-.4 3.8-3.6 6.7-9.1 2.9-30.4.4-44.4-1.2-6.7-2.1-11.5-1.8-14.2 5.3-42.3 5-47.7 4.8-48.4-.2-1 0-4.6 1.4-31.8 2.7-48.6 8-145.3 6.7-207zm-22.6 543.2-.2-5c23-1 43-5.6 43-9.9 0-6.6-13.2-17.9-21.6-23.5l-.2-.2-.2-.2c-.7-.7-15-18 11-79.4 24.3-58 30.3-119.1 23.5-147.3-2.4-10 3.6-27.8 12-52.3 16.2-47.1 40.5-118.2 28.7-201-3.1-22-14.9-32.7-35.8-32.5-9.8 0-20.9 2.4-32.7 6.4 1.5 62.1-4 160-6.6 209-.9 16-1.6 28.7-1.5 30.5.3 1.3.8 6.3-4.7 50-.3 2 .7 7.2 1.7 12.7 2.8 15.8 6.7 37.4-1.2 48.3-1.2 1.6-4.8 6.5-9.1 5.4-5.8-1.5-7.5-12-9.9-29.1a938.7 938.7 0 0 0-.7-5c-2.6-18.4-21-53.2-114.8-79.4C6.1 700.4-2.3 686.9 1 662.4c1.4-10.7 54.1-60 108.5-101.6 32.9-25.2 87.2-63.4 132.6-79.9-.5-19.2-1.8-34.5-4-43.1-2.7-10.1-7.5-21.4-13.6-33.6a110.8 110.8 0 0 1-5.5 3.7c-9.6 6.3-38 16.3-51.5 4.3-11.3-10-8.5-32 8.1-65.3 2-4 4.3-8 6.8-12.4L164.6 308C119.4 240.8 76.7 177.2 88 141.6a34 34 0 0 1 21.7-21.5c83.2-32.4 101.8-44 109.3-92.9 2-10 6.6-26.7 13.5-26.5 5.2.1 8.4 7.8 11.3 26.5l1.8 11.8c6 42.9 6.8 48.4 116.8 76.3 12.1 3 19.4 11.2 21.5 24.3 6.7 40.6-37.6 114.3-57 144.2-32.5 50-70.6 95.3-98.4 117.3a186.4 186.4 0 0 1 14.3 35.4 221 221 0 0 1 4.2 42.8c11.8-4 23-6.3 32.8-6.3h.4c23.4 0 37 12.4 40.4 36.8 12 84-12.6 155.8-28.8 203.3-7.9 22.9-14 41-12 49.5 7.2 29.7 1.3 91-23.8 150.4-22.9 54.3-13.3 72-12 74 3.8 2.5 23.6 16.4 23.6 27.4 0 6-8 10-24.9 12.6a230.4 230.4 0 0 1-23 2.3z" fill="#0A0B09" fill-rule="evenodd"/></svg>