<svg xmlns="http://www.w3.org/2000/svg" viewBox="0 0 208 385"><path d="M191.8 15.7a594.1 594.1 0 0 0-32.5 40.4C140 82.2 133.2 93.9 131 104.5a71.3 71.3 0 0 1-5.3 20c-5.1 10.2-30.1 31.7-52.7 45.3-18.2 11-19.7 15.3-10.9 30.7 2.8 5 5.5 9.2 6 9.3.5.2.9.9.9 1.6 0 .7 2.2 4.5 5 8.5 2.7 4 5 7.6 5 8 0 .5-2.7 3.8-5.9 7.5-9.6 10.9-9.6 10.9 7 38.6 5.6 9.4 9.9 17.3 9.6 17.6-.3.3-5.5 1-11.7 1.6-13.2 1.2-16.5.3-18.6-4.8-1.9-4.4-1.8-4.8 1.2-8.3a16 16 0 0 1 7.9-4.6l5.3-1.6-.8-3.5c-1.7-7.6-7.4-12.3-22.4-18.5-6.9-2.9-7.7-3.4-5.5-4 1.3-.4 5.9-.7 10.2-.8 4.9-.1 7.6-.5 7.2-1.1-1.2-1.9-28.5-1-28.5 1 0 .4 3.7 2.2 8.3 4 17.3 6.8 25.5 12.2 27.6 18.1.9 2.5.8 3.1-.7 3.5-5.5 1.8-7.5 3-10.2 6.1-4 4.5-4 9.1-.1 13.5 2.7 3 3.4 3.3 10.4 3.6 6.8.4 23.4-1.2 24.5-2.2.2-.3-5.3-10.1-12.2-21.9C72 255.4 69 249.5 69 246.8c0-2.8 1.2-4.8 6.3-10.7 5.8-6.8 6.4-7.2 9.6-6.7 6.1.9 12.1-3.2 12.1-8.5 0-1.8-2.1-.9-2.9 1.4-2.3 5.9-9.2 6.2-14.7.5C74 217.2 59 191.2 59 187.4c0-4.8 3.7-8.5 16.3-16.1a244.5 244.5 0 0 0 38.5-28.8c13.1-12.2 15.9-17.2 18.6-33.3A81 81 0 0 1 143.7 82c.7-.8 5.8-8 11.4-15.9a654.1 654.1 0 0 1 43.2-54.2C206.8 2.5 208.4 0 206 0c-.3 0-6.7 7.1-14.2 15.7ZM87.7 41.6c-1 1.1.3 2.4 2.3 2.4 1 0 3 1.5 4.5 3.2 2.6 3.1 2.7 3.7 2.2 10.5-.3 4-.8 7.7-1.2 8.2-.3.6-3.8-1.5-7.8-4.6a82.1 82.1 0 0 0-48.3-18c-13.4-.7-18 .6-29 7.9-7.7 5.1-10.4 8-10.4 11C0 63.9 1.5 64 19.3 64 41 64 48.4 65.2 59 70.1c11.8 5.4 14.8 10.8 11.5 20.8-.9 2.8-2 5.1-2.4 5.1-1.6 0-27.6-11.3-27.9-12.1-.2-.5-1.2-.9-2.3-.9-3.1 0-10.2-3.1-13.1-5.8-3-2.8-4.6-2.5-3 .5a204 204 0 0 0 31.5 28.8c6.7 3.5 9.7 3 13.5-2.5 2.4-3.6 3-4 5.7-3.4 4.8 1 6.4 1 6.6-.1 0-.6-1.6-1.4-3.8-1.9a50 50 0 0 1-4.1-1.1c-.1-.1.5-2.1 1.3-4.5.8-2.3 1.5-6.5 1.5-9.3 0-4.7-.3-5.4-4.4-9.2a45.9 45.9 0 0 0-9.7-6.8c-9.9-4.8-16-5.9-37.1-6.4-15.9-.5-19.5-.8-19.1-1.9.9-2.4 14.6-10.7 20.6-12.6a49.4 49.4 0 0 1 26.3.1c15 3.1 28.3 9.8 41.1 20.7l4.3 3.7 1.6-3.9c2.5-5.9 3-14.4 1.1-18.1-2.8-5.3-9-9.6-11-7.7ZM33 83.9c0 .5 1 1.3 2.3 1.6 2.1.7 30.8 12.6 31.6 13.2.2.1-.8 1.8-2.3 3.8-4.4 5.8-7.2 5.1-19.1-4.9C33.5 87.6 29.2 83 32 83c.6 0 1 .4 1 .9Z"/><path d="M140 111.5c-.8 1-1.4 3.5-1.3 5.9l.6 23.8c.2 13.8.7 20.1 1.6 21.2 3 3.6 10.2 5.9 20.2 6.4 12.8.6 13.3-1.3.7-2.2-10.3-.7-17.5-3.4-19.4-7.4-.7-1.5-.8-4-.2-8 .6-3.7.5-10.8-.2-20.5-1.6-19-1.2-19.6 10.6-16.1 7.6 2.2 15.2 9.5 28.9 27.9a113.2 113.2 0 0 0 17 19.5l5.8 4.5-7 3.2a67 67 0 0 1-64-4.7c-2.8-1.8-3.6-1-3.6 3.8 0 5.8 2.7 9.9 9.5 14.3 6.6 4.2 7.8 4.6 7.8 2.6 0-.8-1.8-2.2-4-3.2-5.5-2.5-11-8.7-11-12.5v-2.9l7.7 3.9a60.7 60.7 0 0 0 33.6 6.8 58.3 58.3 0 0 0 34.7-11.6c0-.4-2-2-4.5-3.5-5.9-3.7-12.1-10.8-22.7-25.3a143 143 0 0 0-14.1-17c-8.5-7.7-23.5-12.7-26.7-8.9ZM66.8 308.2c.3 5.6-.2 7.8-4.2 18.5-5.5 14.5-5.9 21.1-2.4 32 1.9 5.8 3.2 7.8 9.2 13.9 9.5 9.5 14.6 11.5 31.4 12.2 8.7.3 12.2.1 12.2-.7 0-.7-2.3-1.1-6.2-1.1-17.3-.1-27.3-3.5-36.1-12.2a31.4 31.4 0 0 1-10-24.8c0-6.3.7-9.1 4.1-18.2 2.3-5.9 4.5-12.5 4.8-14.7.8-5-.3-11.1-1.9-11.1-1 0-1.2 1.7-.9 6.2Z"/></svg>